<svg xmlns="http://www.w3.org/2000/svg" width="1336.048" height="1295.071" version="1.1" id="svg16"><defs id="defs4"><style id="style2">.prefix__cls-2{fill:none;stroke:#fff;stroke-miterlimit:10;stroke-width:.5px}</style></defs><path id="prefix__Tracé_587" d="M1090.191 596.404c-25.786-10.793-57.322-21.239-77.542-29.625-30.289-12.56-53.186-32.517-70.508-58.375-38.525-57.514-50.273-133.665-124.19-162.953-74.48-29.512-140.16 15.015-184.422 67.725-34.536 41.132-63.53 166.179-138.827 148.425-62.652-14.78-90.8-86.716-121.742-130.19-30.268-42.521-70.98-95.92-123.418-116.577C47.62 235.313-18.437 443.71 4.634 589.18c18.714 117.985 53.65 233.973 86.7 284.471 316.553 483.722 924.068 474.152 1092.333 346.892 132.46-100.181 223.8-491.345-93.476-624.138z" class="prefix__cls-2" data-name="Tracé 587" style="isolation:isolate;mix-blend-mode:overlay" fill="none" stroke="#fff" stroke-width=".5" stroke-miterlimit="10" stroke-opacity=".533"/><path id="prefix__Tracé_588" d="M1091.273 797.552c-55.889-167.67-95.729-153.613-194.8-194.8-99.07-41.187-81.553-222.593-180.55-181.128-89.582 37.524-159.864 255.48-260.52 174.1-80.94-65.444-135.7-200.962-255.73-207.31-134.08-7.09-154.457 122.796-154.147 224.643.366 120.753 34.121 195.817 69.833 257.653 65.37 90.47 182.248 183.974 476.116 271.912 293.868 87.938 450.483 55.723 489.78-89.051 21.15-77.917 35.62-179.212 10.018-256.02z" class="prefix__cls-2" data-name="Tracé 588" style="isolation:isolate;mix-blend-mode:overlay" fill="none" stroke="#fff" stroke-width=".5" stroke-miterlimit="10" stroke-opacity=".533"/><path id="prefix__Tracé_589" d="M997.77 807.57c-11.445-29.64-54.765-124.215-84.9-145.21-25.459-17.742-56.225-6.062-83.82-16.862-25-9.775-34.96-37.535-45.068-59.089-18.586-39.612-55.045-115.8-106.3-73.455-63.98 52.86-93.129 205.593-207.72 169.23-90.483-28.72-100.952-148.587-183.15-184.923-134.372-59.4-205.172 82.9-202.607 197.086 1.12 49.725 33.411 140.692 132.143 212.291 145.821 105.748 238.211 116.88 443.031 170.31 296.815 77.431 381.8-156.952 338.39-269.379z" data-name="Tracé 589" style="isolation:isolate;mix-blend-mode:overlay" fill="none" stroke="#fff" stroke-width=".8" stroke-linejoin="round" stroke-dasharray="2.167,4.33499999999999996" stroke-opacity=".533"/><path id="prefix__Tracé_590" d="M701.661 704.203c-23.356-19.114-40.853-49.153-29.243-79.54 6.28-16.429 19.233-26.492 36.918-25.654 41.727 1.966 57.01 72.407 80.276 97.495 25.1 27.058 64.3 37.9 97.64 51 11.75 4.614 60.021 29.123 38.05 46.48-19.6 15.485-84.454-24.527-103.426-32.923-39.8-17.61-79.09-27.147-114.432-52.423q-2.937-2.104-5.783-4.434z" data-name="Tracé 590" style="isolation:isolate;mix-blend-mode:overlay" fill="none" stroke="#fff" stroke-width=".6" stroke-linecap="round" stroke-linejoin="round" stroke-dasharray="2.167,4.33499999999999996" stroke-opacity=".533"/><path id="prefix__Tracé_591" d="M419.543 738.288c17.021 26.433 38.972 47.377 78.418 52.54 42.1 5.511 81.535 5.28 88.818 56.877 4.81 34.06-9.09 84.645-44.326 97.972-28.833 10.9-61.138-2.069-88.233-12.375-33.553-12.763-67.259-21.316-100.11-33.9-63.134-24.175-135.252-59.053-182.58-108.7-27.045-28.372-41.3-74.79-37.124-116.666 2.226-22.308 20.278-78.865 81.441-89.358 48.393-8.3 110.632 8.262 162.993 80.22 16.811 23.105 26.155 50.794 40.703 73.39z" class="prefix__cls-2" data-name="Tracé 591" style="isolation:isolate;mix-blend-mode:overlay" fill="none" stroke="#fff" stroke-width=".5" stroke-miterlimit="10" stroke-opacity=".533"/><path id="prefix__Tracé_575" d="M1335.799.022c-16.99 191.22-70.815 417.483-245.864 480.574-31.511 11.357-67.806-9.502-94.673-33.682-78.889-71.008-50.629-263.138-194.5-235.37-117.627 22.701-176.827 156.226-291.909 183.252-160.067 37.573-179.91-201.403-167.58-300.96 4.016-32.448 12.888-66.97 20.681-91.7" class="prefix__cls-2" data-name="Tracé 575" style="isolation:isolate;mix-blend-mode:overlay" fill="none" stroke="#fff" stroke-width=".5" stroke-miterlimit="10" stroke-opacity=".533"/><path id="prefix__Tracé_576" d="M426.446.321c-28.532 183.6 29.8 331.153 154.8 252.9 68.571-42.925 172.85-140.947 262.431-123.99 71.164 13.466 93.151 93.125 123.81 147.692 17.42 31 64.417 79.347 106.225 71.115 136.774-26.928 200.44-209.827 209.625-347.987" data-name="Tracé 576" style="isolation:isolate;mix-blend-mode:overlay" fill="none" stroke="#fff" stroke-width=".6" stroke-miterlimit="10" stroke-opacity=".533"/><path id="prefix__Tracé_577" d="M478.05.45c-1.707 47.415 9.153 99.252 44.914 119.585 62.733 35.66 170.582-31.392 233.134-42.053 78.267-13.33 131.924 1.648 182.55 73.72 25.962 36.97 55.636 99.532 101.96 95.288 100.778-9.231 176.689-132.295 180.456-244.146" data-name="Tracé 577" style="isolation:isolate;mix-blend-mode:overlay" fill="none" stroke="#fff" stroke-width=".8" stroke-miterlimit="10" stroke-opacity=".533"/></svg>