<svg width="1440" height="578" viewBox="0 0 1440 578" fill="none" xmlns="http://www.w3.org/2000/svg">
<g clip-path="url(#clip0_438_14187)">
<rect y="351.001" width="1440" height="227" fill="#66CDBA"/>
<path d="M-139.261 598.841C-136.027 591.596 -132.808 584.284 -129.767 576.975C-124.018 563.155 -119.208 549.377 -115.232 537.672C-109.702 521.42 -104.361 504.795 -99.1955 488.72C-98.241 485.695 -97.2778 482.657 -96.2958 479.65C-92.6315 468.251 -87.3579 453.409 -79.1781 439.738C-73.7073 430.596 -68.4157 424.604 -62.0476 420.306C-54.6403 415.088 -45.7057 412.487 -36.6551 412.913C-35.3947 412.977 -34.1243 413.087 -32.8527 413.256C-23.6388 414.574 -14.7646 417.652 -6.71375 422.323C7.05557 429.983 20.084 440.667 34.2764 455.898C40.4127 462.201 46.0054 469.01 50.9946 476.254C77.8616 516.667 69.0137 556.251 60.0478 578.57C60.0478 578.57 43.1031 631.877 -8.29846 689.487" stroke="#000091" stroke-width="3.5" stroke-linecap="round" stroke-linejoin="round"/>
<path d="M-174.116 576.649C-157.725 537.634 -142.86 447.692 -120.576 393.899C-115.221 380.848 -106.412 369.502 -95.0963 361.079C-84.5596 352.747 -71.6798 347.921 -58.2623 347.277C-56.0419 347.176 -53.824 347.17 -51.6036 347.282C-44.2711 347.652 -37.0358 349.122 -30.1406 351.644C-16.9361 356.438 2.94296 368.474 17.5772 380.083C33.542 393.014 48.5333 407.103 62.4295 422.235C77.1231 437.961 89.4338 455.355 106.319 471.544C170.791 533.491 167.943 563.377 163.973 576.232" stroke="#000091" stroke-width="5" stroke-linecap="round" stroke-linejoin="round"/>
<path d="M-209.373 554.202C-193.923 500.681 -185.42 401.328 -168.514 364.952C-159.915 346.381 -150.83 330.586 -138.65 317.558C-126.564 304.519 -111.667 294.402 -95.0901 287.975C-85.3476 284.31 -75.1519 281.987 -64.7832 281.07C-56.6542 280.314 -48.4699 280.378 -40.3537 281.26C-25.8952 283.182 -11.809 287.273 1.43044 293.393C44.1867 313.273 84.9156 362.939 89.4294 367.93C95.9118 375.107 143.228 429.161 162.164 449.084C172.293 459.747 182.853 470.22 193.173 480.247C200.448 487.307 226.664 509.34 237.17 522.613C255.64 545.832 262.975 571.498 251.153 598.272C247.341 606.975 243.141 615.372 238.751 623.395" stroke="#000091" stroke-width="3" stroke-linecap="round" stroke-linejoin="round"/>
<path d="M-240.786 534.202C-229.816 487.501 -212.908 390.78 -201.735 355.629C-197.334 341.423 -191.64 327.65 -184.725 314.483C-178.661 302.775 -171.361 291.75 -162.951 281.595C-149.957 265.998 -133.899 253.236 -115.771 244.1C-100.591 236.518 -83.7338 232.372 -64.693 228.763C-46.7166 225.33 -25.3147 227.438 -5.69232 230.298C8.13627 232.447 21.6494 236.282 34.5451 241.718C51.5076 248.633 66.6222 258.664 80.6897 270.34C114.912 298.713 167.676 375.601 182.558 392.923C208.655 424.196 240.419 450.264 276.182 469.76C362.07 516.771 365.057 576.844 333.227 614.362C323.146 626.259 309.828 641.961 294.135 659.104" stroke="#000091" stroke-width="2.5" stroke-linecap="round" stroke-linejoin="round"/>
<path d="M-267.64 517.104C-267.127 515.139 -250.338 390.508 -237.501 341.151C-232.665 322.573 -225.713 308.023 -218.676 294.499C-211.218 279.791 -202.236 265.909 -191.877 253.079C-177.309 235.227 -159.191 220.597 -138.671 210.116C-124.047 202.705 -85.6026 191.987 -64.5339 189.707C-41.8731 187.276 -9.20831 189.388 7.19841 192.356C21.2638 194.725 35.1705 197.955 48.8398 202.029C72.0626 209.239 91.1898 218.368 107.314 229.955C120.176 239.017 131.223 250.412 139.883 263.548C150.603 280.085 160.977 297.256 171.021 313.848L171.336 314.36C182.642 333.211 195.11 353.134 210.018 371.482C211.254 372.988 227 392.491 234.335 400.036C240.557 406.464 247.317 412.594 253.988 418.376C276.687 437.819 310.127 459.945 333.437 468.24C379.436 484.766 483.841 567.03 359.215 673.055C359.215 673.055 351.932 679.49 340.969 688.961" stroke="#000091" stroke-width="3.5" stroke-linecap="round" stroke-linejoin="round"/>
<path d="M89.8094 437.59C92.8258 432.853 94.3693 427.327 94.2449 421.712C94.1204 416.097 92.3334 410.645 89.11 406.045C85.8866 401.446 81.3717 397.906 76.1362 395.873C70.9006 393.84 65.1797 393.405 59.6972 394.624C54.2146 395.843 49.2166 398.66 45.3353 402.72C41.4541 406.779 38.864 411.899 37.8927 417.43C36.9213 422.962 37.6124 428.658 39.8784 433.797C42.1444 438.936 45.8835 443.287 50.6229 446.301C56.9751 450.34 64.6712 451.691 72.0194 450.058C79.3677 448.425 85.7666 443.94 89.8094 437.59Z" fill="#000091"/>
<path d="M83.3363 214.902C84.927 212.403 85.7411 209.489 85.6757 206.528C85.6103 203.567 84.6682 200.692 82.9687 198.266C81.2693 195.841 78.8887 193.973 76.128 192.901C73.3673 191.828 70.3505 191.598 67.4591 192.24C64.5677 192.882 61.9316 194.367 59.8841 196.507C57.8366 198.647 56.4697 201.346 55.9562 204.263C55.4426 207.18 55.8056 210.183 56.9992 212.894C58.1928 215.605 60.1634 217.9 62.6617 219.491C66.012 221.624 70.0723 222.339 73.9495 221.478C77.8268 220.617 81.2033 218.252 83.3363 214.902Z" fill="#66CDBA"/>
<path d="M63.2051 332.335C60.8831 335.982 57.5316 338.859 53.5746 340.601C49.6176 342.342 45.2329 342.872 40.975 342.121C36.7172 341.371 32.7776 339.375 29.6545 336.385C26.5314 333.395 24.3651 329.546 23.4297 325.325C22.4944 321.104 22.832 316.701 24.3997 312.671C25.9675 308.642 28.695 305.168 32.2373 302.69C35.7796 300.211 39.9775 298.838 44.2999 298.746C48.6224 298.653 52.8752 299.844 56.5205 302.169C58.941 303.71 61.0341 305.713 62.6802 308.063C64.3262 310.414 65.4929 313.065 66.1137 315.867C66.7345 318.668 66.7971 321.565 66.298 324.39C65.799 327.216 64.748 329.916 63.2051 332.335Z" fill="#FF8D7E"/>
<path d="M1532.48 67.9166C1526.61 71.2056 1520.68 74.4872 1514.74 77.6187C1503.5 83.5389 1492.23 88.6617 1482.65 92.9208C1469.34 98.8426 1455.71 104.633 1442.52 110.233C1440.04 111.272 1437.54 112.319 1435.08 113.38C1425.73 117.353 1413.6 122.949 1402.67 130.911C1395.37 136.236 1390.71 141.168 1387.57 146.879C1383.73 153.539 1382.22 161.288 1383.28 168.902C1383.43 169.962 1383.62 171.027 1383.86 172.088C1385.68 179.772 1388.96 187.033 1393.53 193.477C1401.06 204.522 1411.09 214.709 1425.05 225.529C1430.84 230.23 1437.03 234.432 1443.53 238.09C1479.74 257.684 1512.51 247.166 1530.68 237.875C1530.68 237.875 1574.41 219.461 1619.14 171.602" stroke="#000091" stroke-width="3.5" stroke-linecap="round" stroke-linejoin="round"/>
<path d="M1511.05 40.1717C1479.35 57.0198 1404.5 76.4927 1360.76 99.4559C1350.15 104.984 1341.24 113.299 1334.99 123.507C1328.76 133.05 1325.67 144.304 1326.16 155.69C1326.24 157.574 1326.41 159.448 1326.67 161.316C1327.55 167.483 1329.35 173.483 1332.01 179.115C1337.08 189.903 1348.77 205.774 1359.71 217.247C1371.86 229.742 1384.92 241.325 1398.77 251.903C1413.19 263.11 1428.83 272.174 1443.8 285.196C1501.1 334.909 1526.13 330.205 1536.69 325.863" stroke="#000091" stroke-width="5" stroke-linecap="round" stroke-linejoin="round"/>
<path d="M1489.38 12.1082C1445.34 29.2758 1362.05 44.0972 1332.62 61.1773C1317.59 69.8705 1304.94 78.7607 1294.87 90.0527C1284.78 101.267 1277.38 114.631 1273.22 129.132C1270.87 137.645 1269.69 146.438 1269.72 155.27C1269.7 162.196 1270.39 169.106 1271.75 175.896C1274.49 187.965 1279.03 199.552 1285.22 210.268C1305.3 244.865 1350.4 275.461 1354.96 278.891C1361.52 283.816 1410.83 319.64 1429.12 334.108C1438.91 341.846 1448.57 349.964 1457.83 357.912C1464.36 363.517 1484.99 383.974 1497.01 391.831C1518.05 405.651 1540.3 409.876 1562.01 397.829C1569.07 393.94 1575.84 389.745 1582.29 385.419" stroke="#000091" stroke-width="3" stroke-linecap="round" stroke-linejoin="round"/>
<path d="M1470.07 -12.8967C1431.45 -0.0377851 1351.03 21.6828 1322.19 33.8249C1310.52 38.6352 1299.32 44.5047 1288.73 51.3596C1279.3 57.3831 1270.55 64.3982 1262.62 72.285C1250.44 84.4624 1240.89 99.0115 1234.56 115.031C1229.32 128.439 1227.11 143.001 1225.53 159.366C1224.01 174.819 1227.44 192.74 1231.36 209.099C1234.24 220.618 1238.52 231.741 1244.1 242.219C1251.25 256.019 1260.89 268.019 1271.83 279.008C1298.44 305.742 1367.46 344.414 1383.24 355.656C1411.67 375.303 1436.13 400.137 1455.35 428.855C1501.68 497.81 1552.66 495.717 1581.92 465.939C1591.19 456.507 1603.44 444.047 1616.72 429.47" stroke="#000091" stroke-width="2.5" stroke-linecap="round" stroke-linejoin="round"/>
<path d="M1453.55 -34.272C1451.93 -33.6874 1347.92 -9.92237 1307.2 4.71803C1291.88 10.2319 1280.12 17.2244 1269.23 24.2101C1257.38 31.6414 1246.34 40.2979 1236.3 50.0368C1222.33 63.7172 1211.36 80.1502 1204.09 98.2935C1198.95 111.22 1192.85 144.526 1192.54 162.503C1192.23 181.836 1196.52 209.273 1200.29 222.907C1203.38 234.61 1207.17 246.111 1211.67 257.348C1219.54 276.415 1228.73 291.874 1239.76 304.608C1248.4 314.778 1258.88 323.236 1270.64 329.543C1285.44 337.33 1300.75 344.775 1315.54 351.986L1315.99 352.214C1332.79 360.316 1350.58 369.32 1367.23 380.506C1368.6 381.434 1386.29 393.239 1393.23 398.857C1399.14 403.62 1404.83 408.86 1410.23 414.053C1428.41 431.737 1449.67 458.291 1458.47 477.348C1475.97 514.943 1553.5 596.835 1633.51 483.385C1633.51 483.385 1638.38 476.737 1645.54 466.746" stroke="#000091" stroke-width="3.5" stroke-linecap="round" stroke-linejoin="round"/>
<path d="M1281.62 33.9656C1279.63 35.5016 1277.23 36.4135 1274.72 36.5858C1272.22 36.7581 1269.71 36.1832 1267.53 34.9337C1265.35 33.6842 1263.59 31.8164 1262.47 29.5662C1261.36 27.3161 1260.93 24.7849 1261.25 22.2925C1261.57 19.8002 1262.62 17.4587 1264.27 15.5642C1265.92 13.6697 1268.1 12.3073 1270.52 11.6492C1272.95 10.9911 1275.51 11.067 1277.9 11.8671C1280.28 12.6672 1282.37 14.1558 1283.91 16.1445C1285.97 18.8112 1286.88 22.1869 1286.45 25.529C1286.02 28.8712 1284.28 31.9058 1281.62 33.9656Z" fill="#000091"/>
<path d="M1413.85 273.858C1410.08 276.77 1405.53 278.499 1400.77 278.826C1396.02 279.152 1391.27 278.061 1387.14 275.691C1383.01 273.321 1379.67 269.779 1377.55 265.511C1375.43 261.244 1374.62 256.444 1375.23 251.718C1375.84 246.992 1377.83 242.552 1380.97 238.961C1384.1 235.369 1388.22 232.787 1392.82 231.542C1397.42 230.296 1402.29 230.442 1406.8 231.961C1411.32 233.481 1415.28 236.306 1418.19 240.078C1422.1 245.135 1423.83 251.534 1423.01 257.868C1422.2 264.202 1418.9 269.954 1413.85 273.858Z" fill="#66CDBA"/>
<path d="M1457.43 74.1627C1455.44 75.7012 1453.04 76.6158 1450.53 76.7906C1448.03 76.9653 1445.52 76.3925 1443.34 75.1445C1441.16 73.8965 1439.4 72.0294 1438.28 69.7796C1437.16 67.5297 1436.73 64.9981 1437.05 62.505C1437.37 60.0119 1438.42 57.6693 1440.07 55.7737C1441.72 53.8781 1443.89 52.5146 1446.32 51.8557C1448.74 51.1968 1451.31 51.2721 1453.69 52.0721C1456.08 52.8721 1458.17 54.3609 1459.7 56.35C1461.76 59.0148 1462.68 62.3877 1462.25 65.7277C1461.83 69.0677 1460.09 72.1015 1457.43 74.1627Z" fill="#000091"/>
<path d="M1225.2 285.505C1223.21 287.041 1220.81 287.953 1218.3 288.125C1215.79 288.297 1213.29 287.722 1211.11 286.473C1208.93 285.223 1207.17 283.355 1206.05 281.105C1204.93 278.855 1204.51 276.324 1204.83 273.832C1205.15 271.339 1206.2 268.998 1207.85 267.103C1209.5 265.209 1211.68 263.846 1214.1 263.188C1216.53 262.53 1219.09 262.606 1221.47 263.406C1223.86 264.206 1225.95 265.695 1227.48 267.683C1229.54 270.35 1230.46 273.726 1230.03 277.068C1229.6 280.41 1227.86 283.445 1225.2 285.505Z" fill="#000091"/>
<path d="M1394.05 188.678C1392.07 190.214 1389.67 191.126 1387.16 191.298C1384.65 191.471 1382.15 190.896 1379.97 189.646C1377.79 188.397 1376.03 186.529 1374.91 184.279C1373.79 182.029 1373.37 179.497 1373.69 177.005C1374.01 174.513 1375.06 172.171 1376.71 170.277C1378.36 168.382 1380.54 167.02 1382.96 166.362C1385.39 165.704 1387.95 165.779 1390.33 166.58C1392.72 167.38 1394.81 168.868 1396.34 170.857C1398.4 173.524 1399.32 176.899 1398.89 180.241C1398.46 183.583 1396.72 186.618 1394.05 188.678Z" fill="#000091"/>
<path d="M1286.71 127.109C1289.56 130.789 1291.25 135.231 1291.57 139.873C1291.89 144.515 1290.83 149.148 1288.51 153.185C1286.2 157.223 1282.74 160.484 1278.58 162.556C1274.41 164.628 1269.72 165.417 1265.11 164.825C1260.49 164.232 1256.16 162.284 1252.65 159.226C1249.14 156.169 1246.62 152.14 1245.41 147.649C1244.19 143.159 1244.33 138.408 1245.81 133.998C1247.3 129.587 1250.06 125.717 1253.74 122.875C1258.67 119.064 1264.92 117.369 1271.1 118.163C1277.29 118.957 1282.9 122.175 1286.71 127.109Z" fill="#66CDBA"/>
<path d="M1322.87 259.469C1325.77 257.226 1327.95 254.174 1329.11 250.696C1330.28 247.219 1330.39 243.474 1329.43 239.934C1328.47 236.394 1326.48 233.219 1323.71 230.81C1320.95 228.401 1317.53 226.866 1313.89 226.4C1310.25 225.934 1306.56 226.558 1303.27 228.193C1299.99 229.827 1297.26 232.398 1295.44 235.582C1293.62 238.765 1292.78 242.418 1293.04 246.077C1293.29 249.736 1294.62 253.238 1296.87 256.139C1298.36 258.066 1300.21 259.681 1302.32 260.891C1304.43 262.101 1306.76 262.883 1309.18 263.192C1311.59 263.501 1314.05 263.331 1316.39 262.693C1318.74 262.054 1320.94 260.958 1322.87 259.469Z" fill="#FF8D7E"/>
</g>
<defs>
<clipPath id="clip0_438_14187">
<rect width="1440" height="578" fill="white"/>
</clipPath>
</defs>
</svg>
