<?xml version="1.0" encoding="UTF-8" standalone="no"?>
<!-- Generator: Adobe Illustrator 24.0.2, SVG Export Plug-In . SVG Version: 6.00 Build 0)  -->

<svg
   xmlns:dc="http://purl.org/dc/elements/1.1/"
   xmlns:cc="http://creativecommons.org/ns#"
   xmlns:rdf="http://www.w3.org/1999/02/22-rdf-syntax-ns#"
   xmlns:svg="http://www.w3.org/2000/svg"
   xmlns="http://www.w3.org/2000/svg"
   xmlns:sodipodi="http://sodipodi.sourceforge.net/DTD/sodipodi-0.dtd"
   xmlns:inkscape="http://www.inkscape.org/namespaces/inkscape"
   version="1.1"
   id="bcf710b1-c458-4f9f-8ad7-030bb98cfa68"
   x="0px"
   y="0px"
   viewBox="0 0 725.6 146.3"
   style="enable-background:new 0 0 725.6 146.3;"
   xml:space="preserve"
   sodipodi:docname="home_steps.svg"
   inkscape:version="0.92.4 (5da689c313, 2019-01-14)"><metadata
   id="metadata90"><rdf:RDF><cc:Work
       rdf:about=""><dc:format>image/svg+xml</dc:format><dc:type
         rdf:resource="http://purl.org/dc/dcmitype/StillImage" /></cc:Work></rdf:RDF></metadata><defs
   id="defs88">
	
	
	
	
	
	
	
	
	
	
	
	
	
	
	
	

	
	
	
	
	
	

		
	
		
	
		
	
		
	
		
		
		
	
		
		
	
		
	
	
	
	
	
	
	
	
	
	
	
	
	

	
	

	
	

	
	

			
			
		
			
			
		
			
			
		
			
			
		
			
			
		</defs><sodipodi:namedview
   pagecolor="#ffffff"
   bordercolor="#666666"
   borderopacity="1"
   objecttolerance="10"
   gridtolerance="10"
   guidetolerance="10"
   inkscape:pageopacity="0"
   inkscape:pageshadow="2"
   inkscape:window-width="2560"
   inkscape:window-height="1376"
   id="namedview86"
   showgrid="false"
   inkscape:zoom="1.7541238"
   inkscape:cx="417.26563"
   inkscape:cy="28.209549"
   inkscape:window-x="0"
   inkscape:window-y="27"
   inkscape:window-maximized="1"
   inkscape:current-layer="bcf710b1-c458-4f9f-8ad7-030bb98cfa68" />
<style
   type="text/css"
   id="style2">
	.st0{fill:#DB1C83;}
	.st1{fill:#FCB40A;}
	.st2{fill:#59BBAB;}
	.st3{fill:none;stroke:#3A3188;stroke-width:2.5;stroke-linecap:round;stroke-linejoin:round;}
	.st4{fill:none;stroke:#3A3188;stroke-width:2.5;stroke-miterlimit:10;}
	.st5{fill:none;stroke:#3A3188;stroke-width:2.5;}
	.st6{fill:none;stroke:#3A3188;stroke-width:3;stroke-miterlimit:10;}
	.st7{fill:none;stroke:#FCB40A;stroke-width:3;stroke-linecap:round;stroke-linejoin:round;}
	.st8{fill:none;stroke:#DB1C83;stroke-width:3;stroke-linecap:round;stroke-linejoin:round;}
</style>
<title
   id="title4">HOME_3 patates</title>










<path
   id="path6"
   d="m 107.7,105.126 c -4,0 -7.2,-3.2 -7.2,-7.2 0,-4 3.2,-7.2 7.2,-7.2 4,0 7.2,3.2 7.2,7.2 0,4 -3.2,7.2 -7.2,7.2 z"
   class="st0"
   inkscape:connector-curvature="0"
   style="fill:#db1c83" /><path
   id="path8"
   d="m 107.7,91.426 c -3.6,0 -6.5,2.9 -6.5,6.5 0,3.6 2.9,6.5 6.5,6.5 3.6,0 6.5,-2.9 6.5,-6.5 0,-3.6 -2.9,-6.5 -6.5,-6.5 m 0,-1.5 c 4.4,0 8,3.6 8,8 0,4.4 -3.6,8 -8,8 -4.4,0 -8,-3.6 -8,-8 0,-4.4 3.6,-8 8,-8 z"
   class="st0"
   inkscape:connector-curvature="0"
   style="fill:#db1c83" /><path
   id="path11"
   d="m 179.647,83.126 c -2.3,0 -4.3,-1.9 -4.3,-4.3 0,-2.4 1.9,-4.3 4.3,-4.3 2.4,0 4.3,1.9 4.3,4.3 0,2.4 -1.9,4.3 -4.3,4.3 z"
   class="st0"
   inkscape:connector-curvature="0"
   style="fill:#db1c83" /><path
   id="path13"
   d="m 179.647,75.426 c -1.9,0 -3.5,1.6 -3.5,3.5 0,1.9 1.6,3.5 3.5,3.5 1.9,0 3.5,-1.6 3.5,-3.5 0,-1.9 -1.6,-3.5 -3.5,-3.5 m 0,-1.5 c 2.8,0 5,2.2 5,5 0,2.8 -2.2,5 -5,5 -2.8,0 -5,-2.2 -5,-5 0,-2.8 2.2,-5 5,-5 z"
   class="st0"
   inkscape:connector-curvature="0"
   style="fill:#db1c83" /><path
   id="path16"
   d="m 68.647,57.126 c -2.3,0 -4.3,-1.9 -4.3,-4.3 0,-2.4 1.9,-4.3 4.3,-4.3 2.4,0 4.3,1.9 4.3,4.3 0,2.4 -1.9,4.3 -4.3,4.3 z"
   class="st0"
   inkscape:connector-curvature="0"
   style="fill:#db1c83" /><path
   id="path18"
   d="m 68.647,49.426 c -1.9,0 -3.5,1.6 -3.5,3.5 0,1.9 1.6,3.5 3.5,3.5 1.9,0 3.5,-1.6 3.5,-3.5 0,-1.9 -1.6,-3.5 -3.5,-3.5 m 0,-1.5 c 2.8,0 5,2.2 5,5 0,2.8 -2.2,5 -5,5 -2.8,0 -5,-2.2 -5,-5 0,-2.8 2.2,-5 5,-5 z"
   class="st0"
   inkscape:connector-curvature="0"
   style="fill:#db1c83" /><path
   style="fill:#fcb40a"
   inkscape:connector-curvature="0"
   id="Tracé_546-4"
   class="st1"
   d="m 115.7,74.2 c 3.1,0 5.7,2.6 5.7,5.7 0,3.1 -2.6,5.7 -5.7,5.7 -3.1,0 -5.7,-2.6 -5.7,-5.7 0,0 0,0 0,0 0,-3.2 2.5,-5.7 5.7,-5.7 z" /><rect
   style="fill:#fcb40a"
   id="Rectangle_697"
   x="115.4"
   y="76.5"
   class="st1"
   width="0.69999999"
   height="6.9000001" /><path
   style="fill:#fcb40a"
   inkscape:connector-curvature="0"
   id="Tracé_546-5"
   class="st1"
   d="m 58.5,93.9 c 5.4,0 9.8,4.4 9.8,9.9 0,5.4 -4.4,9.8 -9.8,9.8 -5.4,0 -9.8,-4.4 -9.8,-9.8 0,-5.5 4.4,-9.9 9.8,-9.9 0,0 0,0 0,0 z" /><path
   style="fill:#59bbab"
   inkscape:connector-curvature="0"
   id="Tracé_546-6"
   class="st2"
   d="m 126.7,83.9 c 5.5,0 10,4.5 10,10 0,5.5 -4.5,10 -10,10 -5.5,0 -10,-4.5 -10,-10 0,-5.5 4.5,-10 10,-10 0,0 0,0 0,0 z" /><path
   style="fill:#59bbab"
   inkscape:connector-curvature="0"
   id="Tracé_546-7"
   class="st2"
   d="m 211.5,59.9 c 2.7,0 4.8,2.2 4.8,4.8 0,2.7 -2.2,4.8 -4.8,4.8 -2.6,0 -4.8,-2.2 -4.8,-4.8 0,0 0,0 0,0 0,-2.6 2.2,-4.8 4.8,-4.8 z" /><path
   style="fill:#59bbab"
   inkscape:connector-curvature="0"
   id="Tracé_546-8"
   class="st2"
   d="m 29.6,47.9 c 3.8,0 6.9,3.1 6.9,6.9 0,3.8 -3.1,6.9 -6.9,6.9 -3.8,0 -6.9,-3.1 -6.9,-6.9 0,0 0,0 0,0 0,-3.8 3.1,-6.9 6.9,-6.9 z" /><path
   d="m 134.6,56.992 v -4.6 c 0,-2.4 1.7,-4.4 3.7,-4.4 2,0 3.7,2 3.7,4.4 v 25"
   class="st3"
   id="Tracé_6236"
   inkscape:connector-curvature="0"
   style="fill:none;stroke:#3a3188;stroke-width:2.5;stroke-linecap:round;stroke-linejoin:round" /><path
   d="m 127.2,65.592 v -9.2 c 0,-2.4 1.7,-4.4 3.7,-4.4 2,0 3.7,2 3.7,4.4 v 21.1"
   class="st3"
   id="Tracé_6237"
   inkscape:connector-curvature="0"
   style="fill:none;stroke:#3a3188;stroke-width:2.5;stroke-linecap:round;stroke-linejoin:round" /><path
   d="m 120.5,70.692 c 0,-5.1 0,-6.1 0,-6.1 0,-2.2 1.5,-4 3.4,-4 1.9,0 3.4,1.8 3.4,4 v 8.4"
   class="st3"
   id="Tracé_6238"
   inkscape:connector-curvature="0"
   style="fill:none;stroke:#3a3188;stroke-width:2.5;stroke-linecap:round;stroke-linejoin:round" /><path
   d="m 126.3,115.892 c 0,-1.3 -0.1,-4.7 -0.2,-5.7"
   class="st3"
   id="Tracé_6239"
   inkscape:connector-curvature="0"
   style="fill:none;stroke:#3a3188;stroke-width:2.5;stroke-linecap:round;stroke-linejoin:round" /><path
   d="m 144.5,115.892 c 0,-7.7 4.5,-11.6 7.4,-16.3 6,-9.7 5.3,-11.4 7.3,-17.3 1.7,-5.2 4.1,-10.6 1.1,-12 -2.2,-1 -5.7,2.3 -8.2,8.6 -1.6,4.2 -2.2,5.6 -3.2,8.4 -0.4,1 -1.2,1.8 -2.3,2.2 -2.3,0.8 -6.2,2.8 -7,7.5"
   class="st3"
   id="Tracé_6240"
   inkscape:connector-curvature="0"
   style="fill:none;stroke:#3a3188;stroke-width:2.5;stroke-linecap:round;stroke-linejoin:round" /><path
   d="m 142,58.392 c 0,-2.4 1.7,-4.4 3.7,-4.4 2,0 3.7,2 3.7,4.4 v 27.3"
   class="st3"
   id="Tracé_6241"
   inkscape:connector-curvature="0"
   style="fill:none;stroke:#3a3188;stroke-width:2.5;stroke-linecap:round;stroke-linejoin:round" /><path
   d="m 98.8,56.992 v -4.6 c 0,-2.4 -1.7,-4.4 -3.7,-4.4 -2,0 -3.7,2 -3.7,4.4 v 25"
   class="st3"
   id="Tracé_6242"
   inkscape:connector-curvature="0"
   style="fill:none;stroke:#3a3188;stroke-width:2.5;stroke-linecap:round;stroke-linejoin:round" /><path
   d="m 106.2,65.592 v -9.2 c 0,-2.4 -1.7,-4.4 -3.7,-4.4 -2,0 -3.7,2 -3.7,4.4 v 21.1"
   class="st3"
   id="Tracé_6243"
   inkscape:connector-curvature="0"
   style="fill:none;stroke:#3a3188;stroke-width:2.5;stroke-linecap:round;stroke-linejoin:round" /><path
   d="m 112.9,70.792 v -6.3 c 0,-2.2 -1.5,-4 -3.4,-4 -1.9,0 -3.4,1.8 -3.4,4 v 8.4"
   class="st3"
   id="Tracé_6244"
   inkscape:connector-curvature="0"
   style="fill:none;stroke:#3a3188;stroke-width:2.5;stroke-linecap:round;stroke-linejoin:round" /><path
   d="m 107.1,115.892 c 0,-1.3 0.1,-4.7 0.2,-5.7"
   class="st3"
   id="Tracé_6245"
   inkscape:connector-curvature="0"
   style="fill:none;stroke:#3a3188;stroke-width:2.5;stroke-linecap:round;stroke-linejoin:round" /><path
   d="m 89,115.892 c 0,-7.7 -4.5,-11.6 -7.4,-16.3 -6,-9.7 -5.3,-11.4 -7.3,-17.3 -1.7,-5.2 -4.1,-10.6 -1.1,-12 2.2,-1 5.7,2.3 8.2,8.6 1.6,4.2 2.2,5.6 3.2,8.4 0.4,1 1.2,1.8 2.3,2.2 2.3,0.8 6.2,2.8 7,7.5"
   class="st3"
   id="Tracé_6246"
   inkscape:connector-curvature="0"
   style="fill:none;stroke:#3a3188;stroke-width:2.5;stroke-linecap:round;stroke-linejoin:round" /><path
   d="m 91.4,58.392 c 0,-2.4 -1.7,-4.4 -3.7,-4.4 -2,0 -3.7,2 -3.7,4.4 v 27.3"
   class="st3"
   id="Tracé_6247"
   inkscape:connector-curvature="0"
   style="fill:none;stroke:#3a3188;stroke-width:2.5;stroke-linecap:round;stroke-linejoin:round" /><path
   style="fill:#fcb40a"
   inkscape:connector-curvature="0"
   id="Tracé_6248"
   class="st1"
   d="m 166.8,31.2 c 5.4,0 9.9,4.4 9.9,9.8 0,5.4 -4.4,9.9 -9.9,9.9 -5.5,0 -9.8,-4.4 -9.8,-9.9 0,-5.5 4.4,-9.8 9.8,-9.8 0,0 0,0 0,0 z" />
<rect
   style="fill:#59bbab"
   height="23"
   width="22"
   class="st2"
   y="93.75"
   x="352"
   id="Rectangle_998" /><line
   style="fill:none;stroke:#3a3188;stroke-width:2.5;stroke-miterlimit:10"
   y2="103.75"
   x2="352"
   y1="103.75"
   x1="342"
   class="st4"
   id="Ligne_300" /><line
   style="fill:none;stroke:#3a3188;stroke-width:2.5;stroke-miterlimit:10"
   y2="104.65"
   x2="384.20001"
   y1="104.65"
   x1="374.39999"
   class="st4"
   id="Ligne_301" /><line
   style="fill:none;stroke:#3a3188;stroke-width:2.5;stroke-miterlimit:10"
   y2="83.75"
   x2="363"
   y1="93.75"
   x1="363"
   class="st4"
   id="Ligne_302" /><line
   style="fill:none;stroke:#3a3188;stroke-width:2.5;stroke-miterlimit:10"
   y2="84.150002"
   x2="331.10001"
   y1="93.949997"
   x1="331.10001"
   class="st4"
   id="Ligne_303" /><line
   style="fill:none;stroke:#3a3188;stroke-width:2.5;stroke-miterlimit:10"
   y2="70.75"
   x2="352"
   y1="70.75"
   x1="340"
   class="st4"
   id="Ligne_304" /><line
   style="fill:none;stroke:#3a3188;stroke-width:2.5;stroke-miterlimit:10"
   y2="70.75"
   x2="386"
   y1="70.75"
   x1="374"
   class="st4"
   id="Ligne_305" /><line
   style="fill:none;stroke:#3a3188;stroke-width:2.5;stroke-miterlimit:10"
   y2="93.75"
   x2="396"
   y1="83.75"
   x1="396"
   class="st4"
   id="Ligne_306" /><path
   style="fill:none;stroke:#3a3188;stroke-width:2.5;stroke-miterlimit:10"
   inkscape:connector-curvature="0"
   d="m 395.6,61.35 v -11.4 c 0,-4.5 -3.7,-8.2 -8.2,-8.2 h -4.1"
   class="st4"
   id="Tracé_6261" /><path
   id="Tracé_6262"
   class="st4"
   d="m 342.541,41.724 h -4.1 c -4.5,0 -8.2,3.7 -8.2,8.2 v 11.4"
   inkscape:connector-curvature="0"
   style="fill:none;stroke:#3a3188;stroke-width:2.5;stroke-miterlimit:10" /><ellipse
   style="fill:#db1c83"
   ry="11"
   rx="11.5"
   cy="72.75"
   cx="330.5"
   class="st0"
   id="Ellipse_772" /><circle
   style="fill:#59bbab"
   r="11"
   cy="72.75"
   cx="363"
   class="st2"
   id="Ellipse_773" /><ellipse
   style="fill:#fcb40a"
   ry="11"
   rx="11.5"
   cy="72.75"
   cx="395.5"
   class="st1"
   id="Ellipse_774" /><rect
   style="fill:#fcb40a"
   height="23"
   width="23"
   class="st1"
   y="93.75"
   x="384"
   id="Rectangle_999" /><rect
   style="fill:#db1c83"
   height="23"
   width="23"
   class="st0"
   y="93.75"
   x="319"
   id="Rectangle_1000" /><rect
   style="fill:none;stroke:#3a3188;stroke-width:2.5"
   height="23"
   width="42"
   class="st5"
   y="28.75"
   x="342"
   id="Rectangle_1001" />
<path
   id="Tracé_6255"
   class="st6"
   d="m 642.215,108.386 -6.8,-8.7 c -1.3,-1.6 -2,-3.6 -2,-5.7 v -19.3 0 c -0.2,-12 -8.8,-22.2 -20.6,-24.4 v -3.3 0 c 0,-0.1 0,-0.1 0,-0.2 0,-2.5 -2.1,-4.6 -4.6,-4.6 -2.5,0 -4.5,2 -4.6,4.6 0,0.1 0,0.1 0,0.2 v 0 3.3 c -11.8,2.2 -20.4,12.4 -20.6,24.4 v 0 19.3 c 0,2.1 -0.7,4.1 -2,5.7 l -6.8,8.7 c -0.6,0.9 -0.4,2 0.5,2.6 0.3,0.2 0.7,0.3 1.1,0.3 h 64.8 c 1,0 1.9,-0.9 1.9,-1.9 0,-0.3 -0.1,-0.7 -0.3,-1 z"
   inkscape:connector-curvature="0"
   style="fill:none;stroke:#3a3188;stroke-width:3;stroke-miterlimit:10" /><path
   id="Tracé_6256"
   class="st6"
   d="m 600.415,115.386 c 0,4.3 3.5,7.8 7.8,7.8 4.3,0 7.8,-3.5 7.8,-7.8"
   inkscape:connector-curvature="0"
   style="fill:none;stroke:#3a3188;stroke-width:3;stroke-miterlimit:10" /><path
   id="Tracé_6257"
   class="st2"
   d="m 569.615,90.986 c -0.5,0 -1,-0.2 -1.4,-0.6 -9.8,-9.8 -9.8,-25.7 0,-35.5 0.7,-0.8 2,-0.8 2.7,0 0.7,0.8 0.8,2 0,2.7 0,0 0,0 0,0 -8.3,8.3 -8.3,21.7 0,30 0.8,0.8 0.8,2 0,2.7 -0.3,0.5 -0.8,0.7 -1.3,0.7 z"
   inkscape:connector-curvature="0"
   style="fill:#59bbab" /><path
   id="Tracé_6258"
   class="st2"
   d="m 575.615,84.886 c -0.5,0 -1,-0.2 -1.4,-0.6 -6.4,-6.4 -6.4,-16.9 0,-23.3 0.8,-0.7 2,-0.7 2.7,0 0.7,0.7 0.7,1.9 0,2.7 -4.9,4.9 -4.9,12.9 0,17.8 0,0 0,0 0,0 0.8,0.8 0.8,2 0,2.7 -0.3,0.5 -0.7,0.7 -1.3,0.7 z"
   inkscape:connector-curvature="0"
   style="fill:#59bbab" /><path
   style="fill:#59bbab"
   inkscape:connector-curvature="0"
   d="m 646.715,90.986 c -1.1,0 -1.9,-0.9 -1.9,-1.9 0,-0.5 0.2,-1 0.6,-1.4 8.3,-8.3 8.3,-21.7 0,-30 0,0 0,0 0,0 -0.8,-0.7 -0.8,-2 0,-2.7 0.7,-0.8 2,-0.8 2.7,0 0,0 0,0 0,0 9.8,9.8 9.8,25.7 0,35.5 0,0 0,0 0,0 -0.3,0.3 -0.8,0.5 -1.4,0.5 z"
   class="st2"
   id="Tracé_6259" /><path
   style="fill:#59bbab"
   inkscape:connector-curvature="0"
   d="m 640.715,84.886 c -1.1,0 -1.9,-0.9 -1.9,-1.9 0,-0.5 0.2,-1 0.6,-1.4 4.9,-4.9 4.9,-12.9 0,-17.8 0,0 0,0 0,0 -0.7,-0.8 -0.7,-2 0,-2.7 0.7,-0.7 1.9,-0.7 2.7,0 6.4,6.4 6.4,16.9 0,23.3 -0.4,0.3 -0.8,0.5 -1.4,0.5 z"
   class="st2"
   id="Tracé_6260" /><path
   style="fill:none;stroke:#fcb40a;stroke-width:3;stroke-linecap:round;stroke-linejoin:round"
   inkscape:connector-curvature="0"
   d="m 686.51671,40.629434 7.14105,3.196144 -4.70123,6.211154"
   class="st7"
   id="Tracé_4082" /><path
   style="fill:none;stroke:#fcb40a;stroke-width:3;stroke-linecap:round;stroke-linejoin:round"
   inkscape:connector-curvature="0"
   d="m 693.28419,44.000065 c -10.14892,1.769007 -21.01234,5.103101 -28.98558,10.72781"
   class="st7"
   id="Tracé_577" /><path
   style="fill:none;stroke:#db1c83;stroke-width:3;stroke-linecap:round;stroke-linejoin:round"
   inkscape:connector-curvature="0"
   d="m 528.61496,40.669552 -7.14106,3.196145 4.70124,6.211153"
   class="st8"
   id="Tracé_4082-2" /><path
   style="fill:none;stroke:#db1c83;stroke-width:3;stroke-linecap:round;stroke-linejoin:round"
   inkscape:connector-curvature="0"
   d="m 521.86656,43.94202 c 10.14892,1.769008 21.01233,5.103102 28.98558,10.727811"
   class="st8"
   id="Tracé_577-2" /><path
   style="fill:none;stroke:#db1c83;stroke-width:3;stroke-linecap:round;stroke-linejoin:round"
   inkscape:connector-curvature="0"
   d="m 689.58882,93.566824 1.74503,7.626586 -7.78971,-0.0166"
   class="st8"
   id="Tracé_4082-3" /><path
   style="fill:none;stroke:#db1c83;stroke-width:3;stroke-linecap:round;stroke-linejoin:round"
   inkscape:connector-curvature="0"
   d="M 690.96968,101.00007 C 683.44912,93.9594 674.24862,87.289998 664.95811,84.307315"
   class="st8"
   id="Tracé_577-3" /><path
   style="fill:none;stroke:#fcb40a;stroke-width:3;stroke-linecap:round;stroke-linejoin:round"
   inkscape:connector-curvature="0"
   d="m 525.62327,93.607952 -1.74504,7.626588 7.78972,-0.0166"
   class="st7"
   id="Tracé_4082-4" /><path
   style="fill:none;stroke:#fcb40a;stroke-width:3;stroke-linecap:round;stroke-linejoin:round"
   inkscape:connector-curvature="0"
   d="m 524.17549,100.96689 c 7.52057,-7.040677 16.72106,-13.710079 26.01157,-16.692762"
   class="st7"
   id="Tracé_577-4" />
</svg>