<svg xmlns="http://www.w3.org/2000/svg" xmlns:xlink="http://www.w3.org/1999/xlink" viewBox="0 0 3392.73 1361.25"><defs><style>.e2c3624c-8eac-41d5-acd4-a34e02dd537d,.fb5a3ed1-eb72-4de5-92c5-4fdceda58649{fill:#000091;}.a048152c-55aa-4466-acd0-ba7c95f73755,.a27c4a70-2005-4913-8560-c7cd0f7c4dfd,.a514a5e5-5b5f-43e6-9ec4-f77a6a2329cc,.a7f0181a-50a9-46f8-90f7-859a9543b771,.ac528353-85b6-4097-891e-5872c4daf40f,.ae83b854-8109-4d3b-903f-484ce340b011,.b2fea8a0-776b-4292-8790-6e3551854b15,.b40788d7-d15f-438f-82f0-5574231fa67c,.b458169e-7252-402c-bda7-1c96de3a818e,.b648ae5a-bdd6-4f16-bb51-5bb2d1b05c04,.b85f34a9-6d72-4c1e-afbd-b951850a7add,.bd3e1170-1ebe-42ac-8837-791b278f5347,.e47bc81e-dae7-437d-b73c-2b9b79e3134f,.eee5acf5-bf31-4937-b5f5-e311e8ca8f74,.f2830c02-7ba8-4786-b0a0-5e873ffb9d41,.f9523030-fbb0-4f19-ad7c-7a36aad60aac,.f9a9926c-25c9-4a5b-96cb-0c00b814aa69,.fa986719-8504-4de3-8eff-369168c53a8b,.fb5a3ed1-eb72-4de5-92c5-4fdceda58649,.fffd28d6-5f10-479d-8962-922f5e134ca7{fill-rule:evenodd;}.be4a119a-75b9-4816-aa28-81c0e54ced75{fill:url(#b0d7285b-d1be-459a-a2b3-cd7f02ff997d);}.a27c4a70-2005-4913-8560-c7cd0f7c4dfd,.b2fea8a0-776b-4292-8790-6e3551854b15,.e2bd95b9-f74d-4907-8d3c-6e8eddd433f5,.f9523030-fbb0-4f19-ad7c-7a36aad60aac{fill:#ffb9b0;}.ae83b854-8109-4d3b-903f-484ce340b011{fill:url(#fbc3021a-1289-458f-8cba-f85fe80c343f);}.bd3e1170-1ebe-42ac-8837-791b278f5347{fill:url(#bc2822d6-ee28-4aa2-aab4-f361332e39c0);}.a7f0181a-50a9-46f8-90f7-859a9543b771{fill:url(#a73b674f-1f92-4a57-94c1-ba468013e267);}.fa986719-8504-4de3-8eff-369168c53a8b{fill:url(#e3065c08-71fb-4407-a452-4948ab0fb89e);}.fffd28d6-5f10-479d-8962-922f5e134ca7{fill:url(#aecaa50b-707b-4510-bb1a-122b6117a36a);}.f9a9926c-25c9-4a5b-96cb-0c00b814aa69{fill:#59bbab;stroke:#59bbab;stroke-width:2.6px;}.a6c67554-c891-413f-8039-0951551697d2,.b2fea8a0-776b-4292-8790-6e3551854b15,.b8ed3ad5-3d81-4832-830e-27a40bf869e7,.f4084334-1df1-4292-8608-000fea54b92b,.f9523030-fbb0-4f19-ad7c-7a36aad60aac,.f9a9926c-25c9-4a5b-96cb-0c00b814aa69{stroke-miterlimit:10;}.a048152c-55aa-4466-acd0-ba7c95f73755{fill:#ccc;}.eee5acf5-bf31-4937-b5f5-e311e8ca8f74{fill:#6a6af4;}.b40788d7-d15f-438f-82f0-5574231fa67c{fill:url(#abe911a1-1ba7-439a-bc75-451f30e5f318);}.ac684c1f-23cc-4a4e-9b8b-72b9f1016ffc,.e47bc81e-dae7-437d-b73c-2b9b79e3134f{fill:#00ac8c;}.ac528353-85b6-4097-891e-5872c4daf40f{fill:url(#e7bc8b29-c5e7-4191-8e02-6bdd8ffa4330);}.a514a5e5-5b5f-43e6-9ec4-f77a6a2329cc,.b0f1c46f-4dfb-4114-83bd-d0fc9609bd33{fill:#66cdba;}.b85f34a9-6d72-4c1e-afbd-b951850a7add{fill:url(#affb6d67-587f-4285-839e-d6a2cfa3d78b);}.b648ae5a-bdd6-4f16-bb51-5bb2d1b05c04{fill:url(#e654fd0a-0fd4-40ac-b6d3-6ffc4cc32d54);}.b458169e-7252-402c-bda7-1c96de3a818e{fill:url(#af676719-5c69-43ec-a733-ed4ed37a4455);}.b2fea8a0-776b-4292-8790-6e3551854b15,.f9523030-fbb0-4f19-ad7c-7a36aad60aac{stroke:#ffb9b0;}.f9523030-fbb0-4f19-ad7c-7a36aad60aac{stroke-width:1.15px;}.f2830c02-7ba8-4786-b0a0-5e873ffb9d41{fill:url(#a70c09a5-50e1-49e0-bbb9-0aeab59fb180);}.a6c67554-c891-413f-8039-0951551697d2,.b8ed3ad5-3d81-4832-830e-27a40bf869e7,.f4084334-1df1-4292-8608-000fea54b92b{stroke:#000;}.b8ed3ad5-3d81-4832-830e-27a40bf869e7{stroke-width:0.61px;}.a6c67554-c891-413f-8039-0951551697d2{stroke-width:3.42px;}.f4084334-1df1-4292-8608-000fea54b92b{stroke-width:4.09px;}</style><linearGradient id="b0d7285b-d1be-459a-a2b3-cd7f02ff997d" x1="2700.14" y1="1180.82" x2="2700.14" y2="454.09" gradientUnits="userSpaceOnUse"><stop offset="0" stop-color="#fff"/><stop offset="0.19" stop-color="#eefaf8"/><stop offset="0.73" stop-color="#c5ece5"/><stop offset="1" stop-color="#b5e7de"/></linearGradient><radialGradient id="fbc3021a-1289-458f-8cba-f85fe80c343f" cx="2773.22" cy="537.97" r="52.49" gradientUnits="userSpaceOnUse"><stop offset="0" stop-color="#f16963"/><stop offset="0.66" stop-color="#ffb9b0"/><stop offset="0.73" stop-color="#ffb9b0"/><stop offset="1" stop-color="#ffb9b0"/></radialGradient><radialGradient id="bc2822d6-ee28-4aa2-aab4-f361332e39c0" cx="1943.38" cy="196.15" r="46.54" gradientUnits="userSpaceOnUse"><stop offset="0" stop-color="#f16963"/><stop offset="0.13" stop-color="#f26e68"/><stop offset="0.29" stop-color="#f57e77"/><stop offset="0.48" stop-color="#f9978f"/><stop offset="0.66" stop-color="#ffb9b0"/><stop offset="0.73" stop-color="#ffb9b0"/><stop offset="1" stop-color="#ffb9b0"/></radialGradient><linearGradient id="a73b674f-1f92-4a57-94c1-ba468013e267" x1="2006.52" y1="328.04" x2="2074.89" y2="259.68" gradientUnits="userSpaceOnUse"><stop offset="0" stop-color="#000091"/><stop offset="0.14" stop-color="#1717a6"/><stop offset="0.39" stop-color="#3b3bc8"/><stop offset="0.62" stop-color="#5555e0"/><stop offset="0.83" stop-color="#6464ef"/><stop offset="1" stop-color="#6a6af4"/></linearGradient><linearGradient id="e3065c08-71fb-4407-a452-4948ab0fb89e" x1="672.73" y1="1163.65" x2="672.73" y2="302.36" gradientUnits="userSpaceOnUse"><stop offset="0" stop-color="#fff"/><stop offset="0.19" stop-color="#eefaf8"/><stop offset="0.72" stop-color="#c5ece5"/><stop offset="1" stop-color="#b5e7de"/></linearGradient><linearGradient id="aecaa50b-707b-4510-bb1a-122b6117a36a" x1="1920.11" y1="1186.3" x2="1920.11" y2="403.53" gradientUnits="userSpaceOnUse"><stop offset="0" stop-color="#fff"/><stop offset="0.1" stop-color="#f6fcfb"/><stop offset="0.68" stop-color="#c7ede6"/><stop offset="0.96" stop-color="#b5e7de"/><stop offset="0.97" stop-color="#b6eae5"/><stop offset="1" stop-color="#b7f0f5"/></linearGradient><linearGradient id="abe911a1-1ba7-439a-bc75-451f30e5f318" x1="642.05" y1="731.66" x2="784.13" y2="731.66" xlink:href="#a73b674f-1f92-4a57-94c1-ba468013e267"/><radialGradient id="e7bc8b29-c5e7-4191-8e02-6bdd8ffa4330" cx="697.82" cy="549.78" r="53.03" xlink:href="#fbc3021a-1289-458f-8cba-f85fe80c343f"/><linearGradient id="affb6d67-587f-4285-839e-d6a2cfa3d78b" x1="2726.12" y1="1038.53" x2="2726.12" y2="1036.07" gradientUnits="userSpaceOnUse"><stop offset="0" stop-color="#66cdba"/><stop offset="0.27" stop-color="#66cabc"/><stop offset="0.46" stop-color="#66c1c1"/><stop offset="0.62" stop-color="#67b2ca"/><stop offset="0.77" stop-color="#689cd7"/><stop offset="0.91" stop-color="#6980e7"/><stop offset="0.99" stop-color="#6a6af4"/></linearGradient><linearGradient id="e654fd0a-0fd4-40ac-b6d3-6ffc4cc32d54" x1="2770.25" y1="1211.8" x2="2770.25" y2="784.51" xlink:href="#affb6d67-587f-4285-839e-d6a2cfa3d78b"/><linearGradient id="af676719-5c69-43ec-a733-ed4ed37a4455" x1="2763.63" y1="818.6" x2="2763.63" y2="617.96" gradientUnits="userSpaceOnUse"><stop offset="0" stop-color="#6a6af4"/><stop offset="0.17" stop-color="#6464ef"/><stop offset="0.38" stop-color="#5555e0"/><stop offset="0.61" stop-color="#3b3bc8"/><stop offset="0.86" stop-color="#1717a6"/><stop offset="1" stop-color="#000091"/></linearGradient><linearGradient id="a70c09a5-50e1-49e0-bbb9-0aeab59fb180" x1="2032.26" y1="574.81" x2="2032.26" y2="328.07" gradientUnits="userSpaceOnUse"><stop offset="0.01" stop-color="#6a6af4"/><stop offset="0.09" stop-color="#6980e7"/><stop offset="0.23" stop-color="#689cd7"/><stop offset="0.38" stop-color="#67b2ca"/><stop offset="0.54" stop-color="#66c1c1"/><stop offset="0.73" stop-color="#66cabc"/><stop offset="1" stop-color="#66cdba"/></linearGradient></defs><g id="e0ec43fe-bd9f-443a-8af2-a58717640de4" data-name="Livello 1"><path class="fb5a3ed1-eb72-4de5-92c5-4fdceda58649" d="M1972.8,329.5c.15-4.72,2.29-7.83,4.66-12,2.79-4.89,4.49-10.37,7.24-15.3,5.77-10.38,11.74-20.6,17.36-31.07,6.48-12.08,16-30.12,25.88-39.81,10.4-10.19,31.38-6.72,31.5,11.88.06,9.13-5.91,19.12-10.61,26.72-5.16,8.36-11.4,16-16.82,24.19-8.75,13.24-18.31,26.83-28.92,38.6-4.8,5.32-11,12.37-19.08,10-5.46-1.61-10.74-5.37-11.17-11.36A16.62,16.62,0,0,1,1972.8,329.5Z"/><path class="e2c3624c-8eac-41d5-acd4-a34e02dd537d" d="M1973.9,329.5c.25-5.46,3.81-9.72,6.09-14.47,1.22-2.54,2.27-5.17,3.43-7.75s2.67-5.31,4.13-7.92c5.73-10.21,11.55-20.37,17.09-30.69a262,262,0,0,1,15-25.45c4.29-6.21,9.24-13.39,16.85-15.62,5.78-1.68,12.57-.76,17,3.47,6.25,5.91,5.41,15.24,2.63,22.61a82.91,82.91,0,0,1-7.27,14c-2.94,4.82-6.16,9.44-9.47,14-6.84,9.42-13.12,19.23-19.93,28.67-6.42,8.91-13.2,17.86-21,25.63-3,3-6.76,6.05-11.24,6.06a15.36,15.36,0,0,1-11.56-6,10.54,10.54,0,0,1-1.8-6.59,1.1,1.1,0,0,0-2.2,0,13.14,13.14,0,0,0,6.33,11.71c3.87,2.52,8.72,3.93,13.21,2.41s7.84-4.89,10.91-8.23c3.92-4.25,7.65-8.67,11.22-13.21,7.61-9.66,14.33-19.9,21.29-30,6.78-9.87,14.22-19.24,19.91-29.82,4.46-8.3,8.35-18.5,4.19-27.69-2.82-6.23-9.23-9.78-15.92-10a22,22,0,0,0-9.68,1.88,25.54,25.54,0,0,0-8.63,6.82c-7,7.88-12.37,17.13-17.47,26.29-5.58,10-11,20.17-16.62,30.16-3.13,5.54-6.52,11-9.11,16.83-1.21,2.72-2.32,5.49-3.64,8.15s-2.87,4.91-4.1,7.47a18.53,18.53,0,0,0-1.89,7.29C1971.63,330.92,1973.84,330.92,1973.9,329.5Z"/><polygon class="be4a119a-75b9-4816-aa28-81c0e54ced75" points="3273.96 1160.8 2126.32 1180.82 2332.99 782.31 2431.16 811.8 2561.56 832.67 2623.71 699.7 2448.61 589.24 2458.26 454.08 2713.67 525.97 3273.96 1160.8"/><path class="a27c4a70-2005-4913-8560-c7cd0f7c4dfd" d="M2806,589.61c-1.91,10.56-3.82,21.35-5.25,32-6,.3-37.68.26-45.61-1.63,4.7-11.83,8.21-30.79,10.19-43.33,11.82-1,34.55-24.58,45.22-25.67C2810.65,555.19,2806.71,585.52,2806,589.61Z"/><path class="e2bd95b9-f74d-4907-8d3c-6e8eddd433f5" d="M2803.85,589c-1.93,10.63-3.81,21.27-5.26,32l2.13-1.62c-5.2.26-10.44.16-15.65.11-7.18-.07-14.38-.22-21.55-.72-1.6-.11-3.21-.25-4.8-.43l-.56-.07-.87-.12c-.53-.09-1.07-.19-1.6-.31l1.54,2.71a139,139,0,0,0,6.12-21.4c1.6-7.26,2.91-14.59,4.08-21.93l-2.13,1.62c6.65-.61,12.77-5.08,18.09-8.77,6.4-4.44,12.52-9.36,19.2-13.4a42.31,42.31,0,0,1,4.65-2.49c.16-.07.31-.14.75-.3s.69-.25,1-.36.59-.17.89-.24l.44-.09c.57-.14-.28,0,.16,0l-2.21-2.2A41.13,41.13,0,0,1,2808,556c-.27,2.87-.6,5.74-.93,8.6-.38,3.3-.79,6.59-1.2,9.88-.38,3-.77,5.91-1.13,8.54-.27,2-.52,4-.87,6a2.26,2.26,0,0,0,1.54,2.71,2.22,2.22,0,0,0,2.71-1.54c.83-4.64,1.35-9.36,2-14,.81-6.35,1.6-12.7,2.24-19.07a48.45,48.45,0,0,0,.43-6.13,2.22,2.22,0,0,0-2.2-2.21,22.33,22.33,0,0,0-8.14,2.94,97.59,97.59,0,0,0-9.14,5.91c-6.4,4.53-12.59,9.46-19.4,13.39-.8.46-1.62.91-2.45,1.33-.44.22-.89.44-1.35.65l-.78.34a20.21,20.21,0,0,1-2.27.77c-.32.09-.65.17-1,.24l-.48.08c-.16,0-.12,0,.13,0l-.37,0a2.24,2.24,0,0,0-2.12,1.61c-1.17,7.35-2.48,14.67-4.08,21.94a139.37,139.37,0,0,1-6.12,21.4,2.21,2.21,0,0,0,1.54,2.71c5.69,1.32,11.83,1.32,17.64,1.52,7.13.26,14.28.35,21.42.32,2.38,0,4.76,0,7.14-.14a2.23,2.23,0,0,0,2.13-1.61c1.44-10.71,3.32-21.36,5.25-32a2.27,2.27,0,0,0-1.54-2.71A2.22,2.22,0,0,0,2803.85,589Z"/><path class="ae83b854-8109-4d3b-903f-484ce340b011" d="M2820,504.07c2,10.69-.6,19-.75,29.74-.15,9.88-13,37.26-17.5,42.64-9.54,11.47-21.86,15.07-35.19,17.4-14.88,2.61-27.41,1.79-31.35-12.6-2.15-7.87.46-18.29.34-26.56-2.76.61-6.64-.55-9.77-1.19,1.72-14,2.87-19,8.89-41,4.83-17.73,21.67-29.44,39.77-31.32C2790.08,479.55,2816.51,486,2820,504.07Z"/><path class="bd3e1170-1ebe-42ac-8837-791b278f5347" d="M1939.77,152.09a51.68,51.68,0,0,1,13.42,11.52c4,4.85,6.57,10.95,12.22,14.72,12.4,8.26,22.43,17.5,22,33.62-.31,13-10.51,27.42-24.88,33-9.25.73-15.76-5.92-22.26-11.81-3.32-3-3.32-5.74-7.57-5.13-7.31,1-8,1.32-8.71-4.3-1.44-11.31-6.55-13.73-14.12-21.78-11.46-12.17-14.6-30.22-4.67-44.25C1914.63,144.42,1928.25,145.35,1939.77,152.09Z"/><path class="e2bd95b9-f74d-4907-8d3c-6e8eddd433f5" d="M1938.66,154a49.59,49.59,0,0,1,12.7,10.84c3.21,3.82,5.45,8.35,8.9,12,3.29,3.47,7.7,5.73,11.39,8.76a43.5,43.5,0,0,1,8.72,9.2,28.91,28.91,0,0,1,3.59,24.58,38.29,38.29,0,0,1-16.64,20.8c-1.85,1.12-4.12,2.67-6.33,2.64a15.78,15.78,0,0,1-6.41-1.48c-4.43-2.06-8-5.45-11.58-8.71a30.92,30.92,0,0,1-2.58-2.54c-.65-.76-1.21-1.59-1.9-2.32a6.57,6.57,0,0,0-5.78-1.95,36.69,36.69,0,0,1-5.42.6l-.45,0h-.09q.48.06.12,0s-.23-.05-.28-.09c.41.31.29.09.11,0s.47.29.09.06,0,0,.09.12a1,1,0,0,1-.18-.32q-.11-.21.06.15l-.12-.34c-.44-1.84-.58-3.7-1-5.56a25.33,25.33,0,0,0-2.15-6.22c-1.74-3.47-4.49-6.27-7.24-8.95-3.43-3.36-6.86-6.68-9.42-10.79a36.15,36.15,0,0,1-5-13.26,30.11,30.11,0,0,1,8.28-25.92,19.5,19.5,0,0,1,11.06-5.62,24.76,24.76,0,0,1,11.82,1.62,37.1,37.1,0,0,1,5.64,2.73c2.46,1.42,4.68-2.39,2.22-3.81-8.08-4.69-17.89-7-26.74-3-9.62,4.33-15.58,15-16.81,25.15-1.26,10.4,2.48,20.81,9,28.84,3,3.71,6.68,6.76,9.9,10.26a21.07,21.07,0,0,1,5.31,10.53c.61,3.12.38,7.72,4.27,8.68a14.39,14.39,0,0,0,5.39-.19,11.94,11.94,0,0,1,3-.31c.77.1,1,.44,1.62,1.14s1.3,1.68,2,2.46c.91,1,2,1.87,3,2.78,2,1.84,4.08,3.66,6.26,5.31,4.17,3.14,9.07,5.46,14.39,5.39,2.62,0,5.13-1.49,7.36-2.77a43.91,43.91,0,0,0,16.07-16.14c4.84-8.48,6.34-18.63,3.18-28s-10.29-16-18-21.52a47.82,47.82,0,0,1-6-4.53,39.75,39.75,0,0,1-4.84-6.2,60.35,60.35,0,0,0-11-12.77,53,53,0,0,0-7.17-5.1C1938.44,148.74,1936.22,152.55,1938.66,154Z"/><path class="fb5a3ed1-eb72-4de5-92c5-4fdceda58649" d="M2070.84,269.87c-12.62,1.43-26-2.07-35.14-11-10.76-10.43-36.08-34.19-40.6-47.16-2.51-7.21-7.49-18.38-12.72-24-3-3.21-7.81-4.49-11.91-5.62-9.8-2.69-19.82-9.85-22.26-20.32-2.53-10.82,2.82-28.18,15.26-20.74,9,6.48,20.48,6.51,30.65,2.45,9.29-3.7,20.15-10,30.43-6,14.74,5.71,18.78,29,33.7,32.86,8.64,2.24,18.39-1.42,27.24,1.06,20.66,5.81,31.92,29.3,31,48-.47,9.2-5.67,22.37-12.57,29.93-6,6.53-12.91,14.28-21,17.5A47.33,47.33,0,0,1,2070.84,269.87Z"/><path class="e2c3624c-8eac-41d5-acd4-a34e02dd537d" d="M2070.84,267.67a44.21,44.21,0,0,1-25.15-4.31c-6.19-3.22-10.91-8.4-15.85-13.21-5.3-5.16-10.54-10.4-15.57-15.83A129.13,129.13,0,0,1,2000.94,218c-.79-1.18-1.54-2.39-2.21-3.63-.3-.55-.58-1.1-.84-1.66a9.74,9.74,0,0,1-.6-1.42c-1.37-3.78-2.85-7.52-4.58-11.16a65.17,65.17,0,0,0-6.43-11.13,21.59,21.59,0,0,0-4.17-4.47,22.27,22.27,0,0,0-5.95-3c-3.76-1.36-7.66-2.09-11.27-3.87a31.72,31.72,0,0,1-9.62-7.14,22,22,0,0,1-5.14-18.61,17.65,17.65,0,0,1,3-7.88,5.77,5.77,0,0,1,5.26-2.55,10.36,10.36,0,0,1,3.78,1.39,40.75,40.75,0,0,0,6,3.29,31.62,31.62,0,0,0,13.15,2.31,39.8,39.8,0,0,0,13.18-2.76c4.35-1.72,8.56-3.79,13-5.31,4.17-1.43,8.77-2.54,13.18-1.69a18.46,18.46,0,0,1,8.84,4.48c9.63,8.59,13.49,23.76,26.29,28.72,8.89,3.44,18.51-.58,27.59,1.29,7.19,1.48,13.6,5.84,18.45,11.23a49.05,49.05,0,0,1,10.33,18.83c1.92,6.45,2.81,13.48,1.59,20.15a52.64,52.64,0,0,1-9.87,22.55,100.1,100.1,0,0,1-8.86,9.56,46.26,46.26,0,0,1-10.66,8.23,39.33,39.33,0,0,1-13.56,3.91,2.27,2.27,0,0,0-2.2,2.2,2.22,2.22,0,0,0,2.2,2.21,46,46,0,0,0,15.26-4.24,47.37,47.37,0,0,0,11.18-8.32c6.53-6.23,12.51-12.95,16.29-21.23,3.41-7.45,5.55-15.45,5.08-23.7a56.18,56.18,0,0,0-5.92-21.89A48.29,48.29,0,0,0,2098,175a38.6,38.6,0,0,0-10.42-5.28c-4.77-1.56-9.69-1.55-14.65-1.22-4.77.32-9.78,1-14.46-.39a17.89,17.89,0,0,1-7.42-4.59c-4.86-4.75-8.11-10.87-12.1-16.31-4.29-5.84-9.61-11.37-17-12.79-9.92-1.88-19.09,3.19-28,6.78-8.34,3.37-18,4.2-26.18-.14-1.92-1-3.6-2.34-5.62-3.16a11.22,11.22,0,0,0-4.6-.88,10.28,10.28,0,0,0-7.57,4c-4,5-5.11,12.38-4.31,18.64,1.1,8.49,6.58,15.39,13.69,19.88a43.25,43.25,0,0,0,11.65,4.94c4.12,1.15,8,2.45,10.81,5.84a53.87,53.87,0,0,1,6.62,10.94c1.79,3.67,3.27,7.45,4.69,11.28,2.2,6,6.36,11.2,10.36,16.07,5,6.07,10.43,11.78,16,17.36,4.71,4.75,9.54,9.38,14.35,14a43.59,43.59,0,0,0,23.76,11.69,51.3,51.3,0,0,0,13.33.32,2.27,2.27,0,0,0,2.21-2.21A2.22,2.22,0,0,0,2070.84,267.67Z"/><path class="a27c4a70-2005-4913-8560-c7cd0f7c4dfd" d="M1977.37,235.32c8.67,7.11,20.36,22,27.45,21.53,18.33-1.2,11.92-21.41,11.92-21.41l-31.57-23.54S1965.4,225.5,1977.37,235.32Z"/><path class="e2bd95b9-f74d-4907-8d3c-6e8eddd433f5" d="M1975.81,236.88c4.57,3.77,8.61,8.17,12.9,12.26,3.74,3.59,7.91,7.73,12.93,9.43a12.9,12.9,0,0,0,7.13-.08,15.34,15.34,0,0,0,6.18-3c3-2.48,4.48-6.2,4.93-10a27.42,27.42,0,0,0-.55-8.8,18.21,18.21,0,0,0-.45-1.8,3.73,3.73,0,0,0-1.55-1.75l-15.76-11.76-9.55-7.11c-1.81-1.36-3.59-2.81-5.46-4.08a2.92,2.92,0,0,1-.28-.21,2.13,2.13,0,0,0-2.22,0,41.41,41.41,0,0,0-6.7,5.83c-3.18,3.42-6.41,8-6,12.91a11.83,11.83,0,0,0,4.47,8.15,2.28,2.28,0,0,0,3.12,0,2.24,2.24,0,0,0,0-3.12,10.25,10.25,0,0,1-2.36-2.62,4,4,0,0,1-.52-1.11c-.07-.22-.13-.44-.19-.66a3.39,3.39,0,0,1-.09-.41,8.62,8.62,0,0,1,1.18-5.2,29,29,0,0,1,7.48-8.53l.89-.72c.43-.34-.19.14,0,0l.29-.22.62-.45h-2.22l27.67,20.64,3.89,2.9-1-1.32c.14.45.25.91.36,1.37s.22,1,.31,1.54c0,.3.1.61.14.92,0,.13,0-.42,0,0,0,.22,0,.43.07.65a24.5,24.5,0,0,1,0,4.69c0,.43,0,.06,0,.17s-.06.39-.09.58c-.08.44-.18.89-.3,1.32a11.22,11.22,0,0,1-.36,1.12c0,.12-.27.66-.11.3-.09.21-.19.42-.3.62a8.8,8.8,0,0,1-1.25,1.88,7.29,7.29,0,0,1-1.88,1.6,13.32,13.32,0,0,1-6.37,1.84c-.22,0-1.15-.07-.77,0a9.13,9.13,0,0,1-1.45-.39c-.2-.08-.58-.25-1-.46s-1.08-.6-1.6-.94a45.41,45.41,0,0,1-6.23-5c-5-4.61-9.57-9.74-14.83-14.08a2.27,2.27,0,0,0-3.12,0A2.22,2.22,0,0,0,1975.81,236.88Z"/><path class="fb5a3ed1-eb72-4de5-92c5-4fdceda58649" d="M1914,145.48c-5.62,6.33-12.07,15-17.14,21.81,3.44,12.78,23.1,24.31,40.14,20.83,6.9-1.41,16.17-11.09,24.23-6.49,8.37,4.78,3.37,17.05,4.81,24.55a29.82,29.82,0,0,0,17.82,21.38c9.32,3.7,17.1,3.15,24.21-4,8.29-8.33,14-26.72,12-37.91-2.3-12.6-28.92-33.13-30.29-35-13.54-18.35-26.7-25.42-40.72-25.18C1935.87,125.71,1925,133.11,1914,145.48Z"/><path class="e2c3624c-8eac-41d5-acd4-a34e02dd537d" d="M1912.46,143.92c-5.19,5.86-9.9,12.13-14.59,18.39l-1.59,2.13a6.19,6.19,0,0,0-1.56,2.55c-.19,1.38.79,3.16,1.35,4.37a26.91,26.91,0,0,0,5.09,7.16A41.66,41.66,0,0,0,1918,188.84c6.33,2.11,13.74,3,20.27,1.25,5.76-1.54,10.34-6,16.19-7.25a7.72,7.72,0,0,1,7.07,1.69,9.18,9.18,0,0,1,2.48,6.24c.38,5.51-1.12,11.07.06,16.54a31.45,31.45,0,0,0,10.82,17.39c5.38,4.39,12.52,7.39,19.55,7.31,6.79-.07,12.81-3.7,17-8.89a51,51,0,0,0,8.73-17.2c1.82-5.91,3-12.38,2.32-18.57-.51-4.7-2.64-8.68-5.4-12.45a99.48,99.48,0,0,0-10.88-12.23c-3.38-3.31-6.91-6.47-10.47-9.58-1.13-1-2.26-2-3.37-3-.3-.26-.57-.57-.88-.82,0,0-.1-.14-.12-.14a3,3,0,0,0,.28.37,7.64,7.64,0,0,1-.58-.79c-.69-.91-1.39-1.82-2.1-2.72-8.17-10.33-18.9-19.88-32.31-22.16a38.55,38.55,0,0,0-18.44,1.2,50.53,50.53,0,0,0-17.58,10.61,96.38,96.38,0,0,0-8.18,8.24c-1.88,2.11,1.22,5.24,3.12,3.12,8.11-9.11,18.23-18.1,30.94-19.23,10.8-1,20.81,3.25,28.89,10.24a75.17,75.17,0,0,1,7.24,7.26c1.21,1.37,2.37,2.78,3.49,4.21.75,1,1.41,2,2.23,2.91,1.67,1.79,3.72,3.31,5.55,4.92,6.85,6,13.86,12.3,19.28,19.66,2.35,3.19,4.34,6.26,4.85,10.06.7,5.25-.22,10.83-1.62,15.94-2.69,9.77-8.64,22.92-20,24.47-5.82.79-12.19-1.53-16.92-4.79A27.65,27.65,0,0,1,1969,208.81a19.77,19.77,0,0,1-1-7.31c.08-2.56.37-5.12.43-7.69.14-5.14-.79-10.45-5.29-13.58-5.13-3.58-11.24-1.7-16.34.87-2.4,1.21-4.7,2.61-7.13,3.76a19.37,19.37,0,0,1-7.43,1.65,36.61,36.61,0,0,1-17.18-3.55c-5-2.33-9.78-5.69-13-10.18a19.37,19.37,0,0,1-3-6.08l-.22,1.7c5.42-7.25,10.78-14.58,16.79-21.36C1917.45,144.92,1914.34,141.79,1912.46,143.92Z"/><path class="a7f0181a-50a9-46f8-90f7-859a9543b771" d="M2055.39,363.41c-.8-1.11-1.47-2.33-2.06-3.29-1.92-3.1-4.33-5.71-6.34-8.81-4.64-7.15-9.87-14.9-17.52-19.11-8.24-4.53-22.39-5-29.77-11.11-14.51-11.91-3.11-38.8-7.32-64.93,2.16-23.41,36.65-47.05,61.32-17.36,11.89,14.31,12.61,21.33,18.82,38,1.21,3.25,2.94,6.41,4.18,9.67,1.05,2.75,2.55,5.39,3.67,8.05,2.31,5.48,4.09,11.37,6.81,16.66s6.17,11.72,8,17.49c1.43,4.51-.39,7.39-3.69,10.55-5.19,5-10.6,9.63-15.8,14.6-2.57,2.46-5.07,4.92-7.78,7.21-2.43,2.05-4.29,5-7.76,5.26C2058.13,366.47,2056.6,365.07,2055.39,363.41Z"/><polygon class="fa986719-8504-4de3-8eff-369168c53a8b" points="919.32 302.36 940.41 597.06 1138.82 586.85 1308.74 677.59 1232.52 1163.65 36.72 1160.73 919.32 302.36"/><polygon class="fffd28d6-5f10-479d-8962-922f5e134ca7" points="1856.22 674.68 1913.41 403.53 2448.68 1184.27 1391.54 1186.3 1593.17 793.66 1856.22 674.68"/><path class="fb5a3ed1-eb72-4de5-92c5-4fdceda58649" d="M863.63,617.26c-7.46-3.87-16.55-2.82-24.84,0-15.31,5.29-30.51,10.1-46.61,12.41-22.76,3.27-41.26,2.55-64.75,6-9.59,1.4-29.6,13.84-30.17,23.53-3,51.73,54.72,40.72,82.42,34,14.57-3.53,32.8-7.87,46.59-13.74,13.15-5.6,23.29-11.6,35.38-19.16a39.62,39.62,0,0,0,7.37-5.63c8-8.17,8.8-22.39,1.73-31.4A21.9,21.9,0,0,0,863.63,617.26Z"/><path class="fb5a3ed1-eb72-4de5-92c5-4fdceda58649" d="M864.36,598.54c-4.76,3.83-9.57,7.62-14.53,11.33a63.7,63.7,0,0,1-8.09,5.46c-2.69,1.46-5.58,2.53-8.22,4.07-5.95,3.47-10.52,9.55-11.41,16.38-1.2,9.21,5.36,20.09,13.93,23.47,25.16,9.92,51.23-19.71,65.87-35.17,20.34-21.47,34.13-38.14,52.58-63.16-4.49-8.2-11.78-13.1-16.6-20.87,0,0-49,38.62-53.5,42.21C877.67,587.68,871.07,593.14,864.36,598.54Z"/><path class="f9a9926c-25c9-4a5b-96cb-0c00b814aa69" d="M955.65,504.19a7,7,0,0,0-2.21-2.39c-3.23,4.32-8.21,12.15-9.11,13.17-3.53,4-8.35,7-11.62,11.22-4.44,5.74-7.35,13.24-8.75,20.31-1.15,5.83.09,11.84,7.89,13.35,5.12,1,7,.19,10.54-3.69a18.05,18.05,0,0,0,3.5-5.43,13.5,13.5,0,0,0-2.82-13.94,1.44,1.44,0,0,1-.53-.91,1.74,1.74,0,0,1,.23-.61c3.87-8.59,9.14-16,13-24.59a7.27,7.27,0,0,0,.2-5.78A4.3,4.3,0,0,0,955.65,504.19Z"/><path class="a27c4a70-2005-4913-8560-c7cd0f7c4dfd" d="M936.44,566.14c.94.76,9.2,8.11,10,7.46q3.21-2.45,6.45-5A172.9,172.9,0,0,0,968,555.16c2.12-2.13,4.38-4.69,6.59-6.64,2-1.73,3.72-3.89,3.35-6.63-.34-2.43-2.3-4.27-4.19-5.82q-4-3.27-8.23-6.17a13.57,13.57,0,0,0-4.76-2.34c-3-.63-6.1.73-8.69,2.41-1.85,1.2-3.58,2.59-5.51,3.65s-3.78,1.44-5.54,2.8a28.86,28.86,0,0,0-5.58,6.38c-.7,1-9.88,13.83-9.7,14C926.29,557.27,933.22,563.56,936.44,566.14Z"/><path class="a27c4a70-2005-4913-8560-c7cd0f7c4dfd" d="M954.32,537q.31.79.69,1.56a33,33,0,0,0,7,8.66,12.15,12.15,0,0,0,4.67,3.19,8.62,8.62,0,0,0,6.88-1.25,39.57,39.57,0,0,0,5.21-3.91c1.46-1.27,3.64-2.65,5.15-3.89,3.47-2.82,9.81-8.65,13.08-11.71-.16-.52-2.27-1.61-3.21-1.82.4.09-9.57,7.62-17,11.75,5.88-4.63,14.76-13.41,20-18.94a4.72,4.72,0,0,0-4.42-2.43c-3.39,3.66-14.06,12.36-18.62,14.41,1.4-.63,10.76-10.61,12.13-12.13a90.25,90.25,0,0,0,7.75-9.37,5.89,5.89,0,0,0-5.72-1.46c-.1,0-8.39,8-9.21,8.8-2.6,2.41-6.6,6.16-9.43,8.29,7.68-9.68,18.63-23.57,18.57-23.61-1.64-1-3.55-2.51-5.88-2.38-.63,0-14.8,14.89-16.82,16.79-3.83,3.61-8.85,9.15-13,12.73C952.65,533.58,953.18,534,954.32,537Z"/><path class="a048152c-55aa-4466-acd0-ba7c95f73755" d="M604.12,1255.47s105.27,3.36,211.76,3,238-4.33,238-4.33-131.5-3.24-238-2.92S604.12,1255.47,604.12,1255.47Z"/><path class="fb5a3ed1-eb72-4de5-92c5-4fdceda58649" d="M795.38,858.14c4.86,22.37,8.07,46.09,11.59,69.17,3.73,24.48,14.55,94.05,15.36,106.33.61,9.27-3.57,18.35-8.82,26.06a31,31,0,0,1-7.3,7.93c-5.07,3.65-11.53,4.82-17.78,5-7.85.24-16.11-1.06-22.33-5.84-14.51-11.15-11.68-32.83-14.05-48.82a475,475,0,0,0-12.78-58.09c-7.9-28.22-14.5-57.61-22.5-86.39-3.46-12.43-6.3-25.06-8.77-37.71-1.5-7.72-3.91-15.53-3.69-23.38a68.32,68.32,0,0,1,4.94-23.62,53.37,53.37,0,0,1,5.61-10.52c9-12.82-15.35-51.82.11-49.36C756.91,735.58,788.62,827.06,795.38,858.14Z"/><path class="fb5a3ed1-eb72-4de5-92c5-4fdceda58649" d="M789.94,1253.26c2.82-.19,6.36.51,8.89.54,7.16.07,14.32-.08,21.48-.29,12.4-.38,37,2,49.11-1-4-5.2-23.52-13.69-30.39-16.31-27.06-21.71-20-17.76-32.27-17.28-19.66.76-21.37,19.08-18.65,34.59A8.44,8.44,0,0,1,789.94,1253.26Z"/><path class="fb5a3ed1-eb72-4de5-92c5-4fdceda58649" d="M822.45,1194.47c-.23,8.77-.52,17.55-1,26.31-.49,9,0,22.88-8.54,28.49-21.61,14.21-27.58-18.83-30.1-33.15-7-39.75-20.11-79.25-23.56-119.55-1.07-12.45-2.72-69.24,5.19-80s27.15-15.92,39.39-10.49c5.44,2.41,9.94,6.6,13.75,11.2,11.49,13.87,7.13,75.3,8.61,91.73,1.34,14.92-1.68,28.82-2.43,43.68C823.06,1166.61,822.82,1180.54,822.45,1194.47Z"/><path class="eee5acf5-bf31-4937-b5f5-e311e8ca8f74" d="M770.22,902.41c-5.57,25.46-11.4,49.93-14.32,73.2-3.11,24.7-20.92,69.65-23.51,81.74-1.95,9.13-8.48,16.76-15.66,22.77a31.32,31.32,0,0,1-9.23,5.67c-5.91,2.13-12.47,1.5-18.57,0-7.65-1.91-15.28-5.43-20-11.76-11-14.76-.82-63-.76-82.93.1-29.44,1.78-59.66,1.94-89.68.06-13,.78-25.94,1.86-38.85.66-7.88.47-16.09,2.84-23.62a68.68,68.68,0,0,1,11.25-21.48,53,53,0,0,1,8.31-8.62c12.2-9.93,55.56-14.09,69.83-7.48C802.94,819.27,777.05,871.19,770.22,902.41Z"/><path class="eee5acf5-bf31-4937-b5f5-e311e8ca8f74" d="M607.57,1231.25c2.63,1,5.53,3.13,7.8,4.21,6.44,3.07,13,5.93,19.52,8.73,11.35,4.84,23.47,11,35.68,13.4-1.4-6.34-11-16.43-16.05-21.68-9.27-27.68-13.62-16.94-17.41-28.58-7.24-22.27-27.28,8.28-31.31,23.42A9.12,9.12,0,0,1,607.57,1231.25Z"/><path class="eee5acf5-bf31-4937-b5f5-e311e8ca8f74" d="M695.31,1148c-17,28.22-29.58,42.81-44.94,72-5,9.57-16,14.16-23.06,4.68-10.88-14.71-7.32-11.82.08-52.82,2.84-15.7,9-30.6,12.68-46,2.14-9,20-60.67,23-69.58,5.24-15.59,10.46-35.94,28.51-41.29,34.55-10.26,45.41,21.06,39.34,48.56-2.47,11.22-22.8,62.21-28.54,72.33Q698.94,1142,695.31,1148Z"/><path class="b40788d7-d15f-438f-82f0-5574231fa67c" d="M766.87,688.42c-4.32-18.47-7.72-35.25-24.47-46.33-20.34-13.45-42.85-15.36-63.63-7-21.44,8.69-37.1,27.34-36.71,53.34.38,26.37,6.69,46.17,12.63,70.44,7.16,29.29,20.54,45.42,29.69,74.31,0-.17,91.12-4.7,99.75-6.17C784,819.63,775.14,723.81,766.87,688.42Z"/><path class="ac684c1f-23cc-4a4e-9b8b-72b9f1016ffc" d="M918.09,302.64l117.58-28.45,274.59,402-95.46,23.09-70.19-104.8-177,42.82L953.09,762.6l-95.46,23.09Zm180.2,222.06L997.37,373.13,976.91,554.07Z"/><path class="a27c4a70-2005-4913-8560-c7cd0f7c4dfd" d="M669.71,604.78c2.86,10.34,5.74,20.92,8.12,31.38,6.07-.25,40.47,2.27,48.34-.34-5.8-11.35-13.32-35.38-16.42-47.7-12,.12-37.13-21.31-48-21.43C662,570.92,668.6,600.77,669.71,604.78Z"/><path class="ac528353-85b6-4097-891e-5872c4daf40f" d="M648.07,520.84c-1.12,10.84,2.27,18.87,3.37,29.57,1,9.83,16.44,35.92,21.44,40.87,10.67,10.56,23.46,13,37.15,14.11,15.3,1.23,27.91-.73,30.63-15.43,1.5-8-2.06-18.17-2.66-26.43,2.84.36,6.67-1.15,9.79-2.08-3-13.78-4.57-18.61-12.6-40-6.45-17.22-24.51-27.35-43-27.55C676.16,493.68,650,502.55,648.07,520.84Z"/><path class="a514a5e5-5b5f-43e6-9ec4-f77a6a2329cc" d="M822.17,738.59c-2.53-8-9.69-13.7-17.58-17.55-14.56-7.1-28.7-14.45-41.71-24.21-18.4-13.79-31-27.4-50-41.61-7.77-5.8-30.72-11.17-38-4.72-38.74,34.41,9.86,67.49,34.19,82.34,12.8,7.81,28.75,17.65,42.65,23.26,13.25,5.35,24.66,8.28,38.55,11.49a39.72,39.72,0,0,0,9.19,1.24c11.45-.1,22.07-9.6,23.45-21A21.87,21.87,0,0,0,822.17,738.59Z"/><path class="a27c4a70-2005-4913-8560-c7cd0f7c4dfd" d="M983.13,752.32c-.25-.39-14.8-4.3-16.73-4.93-2.63-.86-6.11-1.76-9.27-2.73a12,12,0,0,0-3.67-1.54c-1.56-.4-3.17-.64-4.71-1.15-1-.35-1.9-.84-2.87-1.2l.1,0c6.56-2.18,13.18-3,19.76-5.18a5.36,5.36,0,0,0,3.22-2.77,2.58,2.58,0,0,0,.2-.55,5,5,0,0,0,.2-2.38c-3.94.41-10.64,1.61-11.64,1.63-3.9.07-7.93-1-11.83-.7a36.55,36.55,0,0,0-15.32,5.38c-2.38,1.45-4.3,3.47-4.59,6l-.08,0c0,.53.06,7.4.27,10.42.06.89.2,9,1,9.14,1.94.34,3.91.68,5.91,1a127.71,127.71,0,0,0,14.74,1.46c1.34,0,2.79.06,4.21.1,2.51.81,5,1.89,7.06,2.5a12.13,12.13,0,0,0,2.24-4.5c4.28.43,5-1,6.32-5-.14.45,3.5.13,3.92-.09,1.77-.93,1.41-2.05,3.58-2.12.87,0,8.52,2.2,8.54,1.83C983.75,755.53,984,753.78,983.13,752.32Z"/><path class="a514a5e5-5b5f-43e6-9ec4-f77a6a2329cc" d="M835.94,725.88c-6.08-.66-12.17-1.39-18.29-2.27a66.19,66.19,0,0,1-9.58-1.87c-2.93-.88-5.73-2.17-8.69-3-6.66-1.75-14.19-.69-19.65,3.51-7.37,5.65-10.43,18-6.77,26.44,10.76,24.81,50.15,22.32,71.43,21.76,29.57-.78,51.11-2.8,81.85-7.42,2.63-9,1-17.59,3-26.49,0,0-62-7.42-67.67-8C853,727.62,844.49,726.81,835.94,725.88Z"/><path class="fb5a3ed1-eb72-4de5-92c5-4fdceda58649" d="M2665.06,761.73c-1-8.22,3.07-16.22,8.63-22.87,10.25-12.28,20-24.62,27.75-38.65,10.94-19.84,16.65-37.14,28-57.6,4.62-8.35,23.21-22.48,32.49-19.65,49.56,15.13,19.26,64.52,3.38,87.71-8.36,12.2-18.72,27.5-29,38.17-9.8,10.18-18.93,17.44-30.2,26a39.19,39.19,0,0,1-7.82,4.84c-10.44,4.56-24.05.36-30.05-9.27A21.42,21.42,0,0,1,2665.06,761.73Z"/><path class="e2c3624c-8eac-41d5-acd4-a34e02dd537d" d="M2666.17,761.73c-1-8.46,3.35-16.16,8.59-22.45,5.58-6.69,11.07-13.47,16.16-20.54A186.86,186.86,0,0,0,2705,696c4-7.64,7.55-15.5,11.08-23.36s7.19-15.9,11.21-23.64a51.2,51.2,0,0,1,5.1-8.7,46.3,46.3,0,0,1,5.89-6c4.55-3.94,9.82-7.57,15.55-9.52a14.43,14.43,0,0,1,6.9-1,36.2,36.2,0,0,1,8.82,3.23,35.12,35.12,0,0,1,12.67,9.6,27.08,27.08,0,0,1,5.31,12c1.68,9.38-.93,19.17-4.35,27.87a151.1,151.1,0,0,1-14,26.28c-2.92,4.54-6,9-9.06,13.43-4.93,7.16-9.93,14.28-15.34,21.09-10.41,13.1-22.91,24-36.18,34.16-3.38,2.59-6.76,5.35-10.69,7.09a21.83,21.83,0,0,1-9.67,1.76,24.25,24.25,0,0,1-17.35-8.2,20.9,20.9,0,0,1-4.76-10.73c-.2-1.4-2.32-.8-2.13.59,2,14.75,18.5,23.8,32.35,19.51,4-1.23,7.39-3.58,10.66-6.06q5.2-3.91,10.3-8a204.92,204.92,0,0,0,19.28-17.38c11.68-12,21.06-26.25,30.46-40.08a193.26,193.26,0,0,0,15-25.49c4.38-9.2,8-19.26,8.14-29.56.1-9.88-3.86-19-11.71-25.07a41.67,41.67,0,0,0-7.42-4.59,47.32,47.32,0,0,0-9.25-3.54c-5.24-1.28-11,1.45-15.43,4a57.6,57.6,0,0,0-14.65,11.81,38.39,38.39,0,0,0-4.91,7.49c-2.21,4.13-4.3,8.31-6.31,12.53-7.77,16.34-14.4,33.29-23.93,48.73a228.46,228.46,0,0,1-15.89,22.23c-5.42,6.8-11.88,13.18-15.09,21.42a24.54,24.54,0,0,0-1.64,11.74C2664.12,763.12,2666.33,763.14,2666.17,761.73Z"/><path class="fb5a3ed1-eb72-4de5-92c5-4fdceda58649" d="M2647.25,755.92c5.24-3.06,10.46-6.18,15.65-9.46a65.51,65.51,0,0,0,7.92-5.57c2.29-2,4.3-4.27,6.66-6.17,5.31-4.28,12.59-6.38,19.3-4.83,9,2.08,17,11.89,17.19,21,.61,26.61-36.19,40.37-55.75,48.51-27.17,11.31-47.57,18.24-77.4,26.58-6.15-7-8.22-15.39-13.83-22.52,0,0,53.16-31.82,58.07-34.68C2632.46,764.42,2639.87,760.23,2647.25,755.92Z"/><path class="e2c3624c-8eac-41d5-acd4-a34e02dd537d" d="M2647.8,756.87c4.5-2.63,9-5.29,13.4-8,4.23-2.62,8.46-5.23,12.07-8.68,3.42-3.25,6.64-6.44,11.13-8.15a20.59,20.59,0,0,1,12.92-.82c7.42,2.1,13.53,9.14,15.17,16.59,1.33,6-.52,12.63-3.62,17.82-6.57,11-18.66,18-29.85,23.51-5.57,2.74-11.28,5.16-17,7.52-7.59,3.14-15.18,6.27-22.85,9.22-16.85,6.46-34,12-51.35,17l-7.28,2.06,1.08.28c-5.84-6.72-8.39-15.52-13.83-22.52l-.23,1.73c2.32-1.26,4.55-2.72,6.82-4.07l15.93-9.53q16-9.59,32.08-19.16c8.42-5,17-9.8,25.43-14.74a1.1,1.1,0,0,0-1.11-1.9c-12.47,7.28-25,14.46-37.37,21.86l-34.5,20.62c-2.79,1.67-5.54,3.47-8.39,5a1.11,1.11,0,0,0-.22,1.73c5.44,7,8,15.77,13.83,22.52a1.08,1.08,0,0,0,1.07.28c18.34-5.13,36.54-10.75,54.38-17.44,8.48-3.18,16.86-6.6,25.24-10,5.78-2.39,11.56-4.77,17.21-7.46,11.84-5.62,24.41-12.69,31.87-23.84a29.74,29.74,0,0,0,5.25-17.7c-.34-7.86-5.59-15.35-12.23-19.32-7.54-4.51-17.16-3.45-24.29,1.39-4.22,2.86-7.38,7-11.56,9.89-4.33,3-8.93,5.75-13.47,8.47q-3.41,2-6.82,4A1.1,1.1,0,0,0,2647.8,756.87Z"/><path class="ac684c1f-23cc-4a4e-9b8b-72b9f1016ffc" d="M2410.21,736.11c19.91,39.79,51.54,67.34,87.9,74.61,35.71,7.14,61.22-7.66,67.73-40.19,15.93-79.72-191.73-102.66-162-251.27,14.15-70.79,83.92-117.87,168.74-100.91,67,13.39,112.64,53.69,141.22,106.49l-78.19,46.06c-19.39-39-44.4-66.58-78.2-73.34-31.25-6.24-55.74,10.08-61,36.23-15.93,79.73,191.86,102,161.64,253.19-17.85,82.65-93.1,120.67-174.74,104.35-75.26-15-120.8-52.67-150.91-107.77Z"/><path class="ac684c1f-23cc-4a4e-9b8b-72b9f1016ffc" d="M1353.69,432.37H1446V887.66h-92.35Z"/><path class="a048152c-55aa-4466-acd0-ba7c95f73755" d="M2889.93,1240.65s-111.91,3.56-225.11,3.46-252.94-3.86-252.94-3.86,139.79-3.5,253-3.39S2889.93,1240.65,2889.93,1240.65Z"/><path class="e47bc81e-dae7-437d-b73c-2b9b79e3134f" d="M2660.82,874.38c-3.58,23.38-5.71,47.11-9.07,69.52-3.67,24.49-6.71,49.08-8.72,73.76-1,12.28-1.38,24.58-2.18,36.86-.6,9.27,3.51,18.35,8.67,26a31,31,0,0,0,7.18,7.94c5,3.65,11.35,4.82,17.5,5,7.71.25,8.28-1,14.4-5.83,14.28-11.16,18.2-44.76,20.54-60.75,2.87-19.63,8.15-27.06,13.42-46.16,7.77-28.22,14.25-57.61,22.13-86.4,3.4-12.42,6.19-25,8.62-37.71,1.48-7.72,3.85-15.52,3.63-23.38a69.26,69.26,0,0,0-4.86-23.62,53,53,0,0,0-5.52-10.52c-8.7-12.61-29.73-22.52-45.28-19.16-11,2.39-17.31,15.17-21.53,24.41C2669.86,826.09,2664.56,850,2660.82,874.38Z"/><path class="ac684c1f-23cc-4a4e-9b8b-72b9f1016ffc" d="M2659.76,874.09c-2.07,13.58-3.67,27.23-5.32,40.88s-3.62,27.26-5.54,40.89c-3.84,27.35-6.82,54.8-8.25,82.38-.18,3.48-.35,7-.55,10.44a77.66,77.66,0,0,0-.34,9.64,42.57,42.57,0,0,0,5.39,17.16c2.74,5.09,6.09,10.31,10.78,13.82,4.52,3.37,10.16,4.74,15.7,5.18,4.11.33,8.57.55,12.19-1.75a40.93,40.93,0,0,0,9.12-7.73c5.48-6.49,8.49-14.89,10.77-23a211.62,211.62,0,0,0,5.27-26.29c1.43-9.66,2.86-19.18,5.91-28.49,1.56-4.75,3.35-9.41,5-14.13,2-5.89,3.73-11.86,5.34-17.87,3.55-13.24,6.82-26.55,10.11-39.85s6.65-26.81,10.28-40.14,6.36-26.61,9.13-40c1.34-6.48,3.09-12.94,3.31-19.58a64.48,64.48,0,0,0-2.42-18.89,60.39,60.39,0,0,0-7.47-17.22,41.39,41.39,0,0,0-9.76-10.26,53.44,53.44,0,0,0-27.51-10.92c-4.57-.38-9.43-.07-13.65,1.84s-7.49,5.24-10.21,8.87a70.88,70.88,0,0,0-7.07,12.31c-2.53,5.36-4.8,10.85-6.81,16.43a255.38,255.38,0,0,0-10.06,37.27c-1.25,6.31-2.33,12.65-3.31,19-.21,1.38,1.91,2,2.13.58,3.76-24.46,9.12-48.92,19.62-71.46,3.7-7.93,8.39-17.35,16.82-21.1,4.25-1.9,9.3-2,13.84-1.42a48.66,48.66,0,0,1,14.18,4c9.15,4.1,17.11,10.44,21.91,19.34,6,11,8.9,24.71,7,37.17-1,6.5-2.61,12.92-3.89,19.37s-2.65,12.83-4.16,19.21c-3.07,12.94-6.75,25.74-10,38.64s-6.36,25.75-9.62,38.61c-3.06,12.13-6,24.34-10.14,36.16-3.32,9.54-6.86,18.88-8.67,28.85-1.48,8.11-2.34,16.32-3.84,24.43-1.62,8.71-3.64,17.5-7.08,25.7a44.91,44.91,0,0,1-6,10.6,40.1,40.1,0,0,1-8.69,7.69c-3.57,2.45-8,2.12-12.11,1.75-5.7-.52-11.42-2.24-15.68-6.22s-7.65-9.71-10.1-15.13a36.46,36.46,0,0,1-3.3-17.6c.84-13.32,1.32-26.65,2.47-39.95s2.59-26.7,4.28-40,3.72-26.29,5.49-39.45,3.21-26.22,4.87-39.33c.84-6.63,1.74-13.26,2.75-19.88C2662.1,873.28,2660,872.69,2659.76,874.09Z"/><path class="e47bc81e-dae7-437d-b73c-2b9b79e3134f" d="M2672.23,1241.07c-2.83-.18-29.52.13-36.71-.1-12.46-.38-26.36.92-38.55-2.13,4-5.31,23.36-11,30.26-13.69,19.72-14.53,15.74-19.6,28.1-19.11,19.76.78,21.47,19.49,18.74,35.33A9.31,9.31,0,0,0,2672.23,1241.07Z"/><path class="ac684c1f-23cc-4a4e-9b8b-72b9f1016ffc" d="M2672.23,1239.52c-2.57-.16-5.17-.07-7.75-.07l-13.57,0c-9.76,0-19.52-.15-29.28-.12-8.11,0-16.32-.08-24.25-2l.93,2.29c1.76-2.28,5.58-3.88,8.31-5.11,4-1.8,8.11-3.28,12.23-4.73l5.5-1.93,2.19-.78a11.25,11.25,0,0,0,3-1.74,105,105,0,0,0,11.16-9.69c1.92-1.94,3.69-4.08,5.77-5.86a9.12,9.12,0,0,1,4.94-2.11c7.18-.76,14.93,1.38,18.77,7.89,4.39,7.43,3.74,17.23,2.35,25.4l1.92-1.09a13.13,13.13,0,0,0-2.26-.35c-2-.17-2,3,0,3.11a7.79,7.79,0,0,1,1.43.25,1.59,1.59,0,0,0,1.92-1.09c1.38-8.11,2-17.11-1.24-24.88a19.63,19.63,0,0,0-7-8.9c-3.69-2.52-8.21-3.44-12.62-3.55a16.16,16.16,0,0,0-7.95,1.39,21.41,21.41,0,0,0-5.46,4.72,110.92,110.92,0,0,1-8.92,8.56c-1.18,1-2.37,2-3.59,2.9a11.5,11.5,0,0,1-3.08,2c-1.7.63-3.43,1.22-5.14,1.82-4.89,1.7-9.78,3.43-14.53,5.5-3.67,1.6-7.9,3.41-10.42,6.67a1.57,1.57,0,0,0,.93,2.29c7.15,1.76,14.55,2.11,21.88,2.15,6.22,0,12.43,0,18.64.08,8.55.14,17.09,0,25.63,0,3.17,0,6.37-.13,9.53.06C2674.24,1242.76,2674.23,1239.64,2672.23,1239.52Z"/><path class="e47bc81e-dae7-437d-b73c-2b9b79e3134f" d="M2640.73,1179.65c.23,8.77.51,17.55,1,26.31.49,9,0,22.88,8.41,28.49,21.25,14.21,26.45-43.64,28.94-58,6.89-39.75,18.3-72.51,21.69-112.81,1.05-12.45,1.7-54.06-6.07-64.79s-11.53-54.44-23.57-49c-5.35,2.41-19.67,42.69-23.42,47.3-11.29,13.87-9,125.85-8.25,140.72C2640.13,1151.79,2640.37,1165.72,2640.73,1179.65Z"/><path class="ac684c1f-23cc-4a4e-9b8b-72b9f1016ffc" d="M2639.63,1179.65c.24,9.15.62,18.29,1,27.43.27,6.05.3,12.25,2,18.1,1.5,5.08,4.52,9.54,9.52,11.67a9.89,9.89,0,0,0,8.67-.22c2.9-1.55,5-4.39,6.6-7.19a58.08,58.08,0,0,0,4.8-11.65,189.81,189.81,0,0,0,5.83-27.61c1.6-10.5,3.27-20.91,5.46-31.3,3.53-16.78,7.77-33.41,11.32-50.18,3.3-15.63,6.13-31.51,7.13-47.47a269.25,269.25,0,0,0,.07-31.12,157.74,157.74,0,0,0-1.72-17.09c-.71-4.31-1.61-8.77-3.57-12.71-.7-1.4-1.69-2.63-2.42-4a38.81,38.81,0,0,1-2.25-5.37c-1.6-4.58-2.84-9.29-4.11-14-1.34-4.92-2.65-9.85-4.3-14.67-1.28-3.71-2.71-7.62-5.15-10.75-1.72-2.19-4.23-3.83-7.1-3-2.52.76-3.94,3.51-5.16,5.65-4.84,8.46-8.39,17.72-12.2,26.67-1.67,3.94-3.32,7.89-5.16,11.75a32.64,32.64,0,0,1-1.81,3.41c-.36.56-.94,1.25-1.4,2.1-2.72,5.08-3.53,11.35-4.34,17-1.3,9-2,18-2.49,27-.6,10.51-.92,21-1.1,31.56q-.27,15.24-.15,30.48.06,11.88.34,23.74c.2,8,.64,16,.9,24.07.29,9.22.48,18.44.72,27.66,0,1.41,2.24,1.42,2.2,0q-.57-22.08-1.39-44.13c-.21-5.87-.33-11.74-.42-17.62-.3-19.24-.27-38.5.33-57.74.31-9.88.76-19.76,1.57-29.61a170,170,0,0,1,3.1-23.16,37.58,37.58,0,0,1,2.17-7.18c.84-1.87,1.87-2.92,2.83-4.77,4.05-7.8,7.11-16.15,10.61-24.2,1.89-4.36,3.82-8.7,6-12.93.84-1.62,1.7-3.24,2.69-4.78a9.39,9.39,0,0,1,2.06-2.54,3.87,3.87,0,0,1,2.58-.36,5.79,5.79,0,0,1,2.73,2c2.4,2.87,3.73,6.7,4.93,10.19,3.2,9.3,5.08,19,8.29,28.28a51.19,51.19,0,0,0,2.13,5.34c.69,1.44,1.62,2.69,2.41,4.06,2.05,3.56,2.9,7.84,3.62,11.84,1.95,11,2.25,22.4,2.22,33.58a247.79,247.79,0,0,1-2.45,34c-4.6,32.83-14.7,64.55-20,97.24-1.22,7.54-2.15,15.11-3.54,22.63-1.63,8.77-3.51,17.85-7.37,26-2.4,5-6.63,11.53-13.12,9.34-11.3-3.79-10.49-19.29-11-28.82-.45-8.88-.76-17.75-1-26.63A1.1,1.1,0,0,0,2639.63,1179.65Z"/><path class="a514a5e5-5b5f-43e6-9ec4-f77a6a2329cc" d="M2849.2,1216.16c-2.49,1-5.25,3-7.42,4.07-6.11,3-12.32,5.73-18.55,8.44-10.79,4.68-22.32,10.66-33.92,12.95,1.33-6.13,10.41-15.88,15.26-20.95,14.19-28.08,5.8-23.07,16.55-27.63,17.18-7.28,25.93,8,29.77,22.64A9,9,0,0,0,2849.2,1216.16Z"/><path class="b0f1c46f-4dfb-4114-83bd-d0fc9609bd33" d="M2848.82,1214.76c-3.55,1.45-6.71,3.72-10.18,5.37-4.09,1.94-8.22,3.8-12.37,5.62-7.83,3.45-15.57,7.18-23.55,10.28a83.8,83.8,0,0,1-13.8,4.18l1.8,1.8c.9-3.91,3.7-7.45,6.16-10.52,1.43-1.79,2.94-3.53,4.48-5.24,1.37-1.53,2.94-3,4.24-4.55a19.44,19.44,0,0,0,1.91-3.68c.61-1.25,1.21-2.51,1.79-3.77q1.36-2.94,2.62-5.93,1.59-3.81,2.89-7.72c.24-.73.47-1.46.74-2.18.09-.27.31-.77.18-.49.1-.22.21-.42.32-.64l.16-.24c.16-.25-.25.26,0,0s.29-.3.45-.44c-.39.35.14-.07.29-.16s.51-.28.77-.41c.87-.42,1-.45,1.84-.79,1.37-.57,2.73-1.18,4.15-1.64a15.67,15.67,0,0,1,11.7.29c8.19,3.91,11.92,14,14.08,22.15l1-1.8a10.79,10.79,0,0,0-1.68.49c-1.75.64-1,3.46.77,2.81a11.2,11.2,0,0,1,1.69-.48,1.48,1.48,0,0,0,1-1.8c-2.17-8.18-5.69-17.12-12.76-22.29a17.11,17.11,0,0,0-11.15-3.26c-3.72.24-7,1.62-10.36,3a11.58,11.58,0,0,0-3.61,2,7.37,7.37,0,0,0-1.74,3.08,179.36,179.36,0,0,1-7.21,17.76,22.32,22.32,0,0,1-2.31,4.48c-.7.84-1.53,1.61-2.27,2.41-1.85,2-3.66,4-5.38,6.13-3,3.68-6.51,7.91-7.61,12.66a1.49,1.49,0,0,0,1.8,1.8c8.37-1.69,16.28-5,24-8.52,7.91-3.54,15.88-7,23.74-10.62,2.12-1,4.3-1.93,6.34-3.09a51.8,51.8,0,0,1,5.77-3.23C2851.31,1216.87,2850.56,1214,2848.82,1214.76Z"/><path class="b85f34a9-6d72-4c1e-afbd-b951850a7add" d="M2726.32,1038.15c-1.19-5.59.37,2.11,0,0Z"/><path class="b648ae5a-bdd6-4f16-bb51-5bb2d1b05c04" d="M2838.33,1183.27c-1.6-8.78-3.27-17.61-5.72-26.19-4.39-15.32-8.87-30.61-12.48-46-2.1-9-6-17.55-9-26.47-2.49-7.5-8.76-27-16.58-45.79,0-10.93-3.86-22.6-5.15-32.67-2.52-19.78,1.3-89.52,1.15-119.54-.06-13-.77-26-1.83-38.86-.65-7.87-.47-16.08-2.8-23.61a69,69,0,0,0-11.07-21.48,52.58,52.58,0,0,0-8.17-8.63c-12-9.92-29.63-12.4-43.66-5.79-38.09,17.93-18.55,70.2-16.59,102.09,1.41,23,4.75,46.76,7.63,70,3.06,24.69,6.75,49.31,11.47,73.73.44,2.32.67,3.54.77,4.09s.29,1.38.5,2.35a26.54,26.54,0,0,0,1.11,3.85l.12.6c2.43,11.22,11.85,43.26,17.5,53.39,2.27,4.07,13.42,25.81,15.78,29.81,16.72,28.22,26.54,32.13,41.65,61.38,4.94,9.56,14.76,26.09,25.43,21.48C2845.5,1203.62,2840.68,1196.21,2838.33,1183.27Z"/><path class="b458169e-7252-402c-bda7-1c96de3a818e" d="M2714,671.36c5.72-18.08,10.4-34.53,27.72-44.25,21-11.79,43.25-11.92,63-1.89,20.32,10.35,34.17,30.18,31.71,56.06-2.5,26.26-10.28,45.5-18.05,69.22-9.38,28.63-21.54,40-32.83,68.1.05-.17-86.6-7.86-94.94-10C2691.34,801.19,2703.07,706,2714,671.36Z"/><path class="fb5a3ed1-eb72-4de5-92c5-4fdceda58649" d="M2705.86,781.79c-2-8.15,1-16.66,5.67-24,8.57-13.5,16.65-27,22.53-42,8.31-21.18,11.82-39.22,20.44-61.07,3.52-8.92,20-25.22,29.49-23.41,50.43,9.65,26.71,62.73,14,87.84-6.72,13.21-15,29.76-23.81,41.65-8.37,11.33-16.44,19.66-26.46,29.49a38.17,38.17,0,0,1-7.08,5.75c-9.69,5.75-23.54,3.06-30.6-6A22,22,0,0,1,2705.86,781.79Z"/><path class="e2c3624c-8eac-41d5-acd4-a34e02dd537d" d="M2706.92,781.5c-2.08-8.72,1.74-17.07,6.31-24.29,4.81-7.62,9.5-15.32,13.69-23.3,8.36-15.88,13.69-32.85,18.88-50,2.6-8.55,5.27-17.08,8.43-25.44a37,37,0,0,1,3.92-8.07,52.15,52.15,0,0,1,5.74-6.93c4.09-4.22,9-8.48,14.64-10.44a12.24,12.24,0,0,1,7.19-.24,52.82,52.82,0,0,1,8.78,2.73c8.78,3.67,15.49,10.46,17.95,19.76,2.41,9.08,1.08,18.83-1.21,27.79a153.26,153.26,0,0,1-10.18,27.22c-2.14,4.56-4.44,9-6.73,13.53-3.88,7.62-7.83,15.21-12.15,22.58a163.67,163.67,0,0,1-14.46,20.87,246.38,246.38,0,0,1-17.11,18.58c-3.1,3.08-6.14,6.4-9.83,8.78a20.94,20.94,0,0,1-9.56,3.25,23.89,23.89,0,0,1-18.38-6.3,21.57,21.57,0,0,1-5.92-10.12,1.1,1.1,0,0,0-2.13.58c3.76,14.51,20.93,22.15,34.42,16,3.83-1.75,6.94-4.67,9.9-7.58,3.24-3.19,6.45-6.39,9.59-9.68a197.63,197.63,0,0,0,16.86-20c9.68-13.32,17-28.36,24.36-43a197,197,0,0,0,11.31-26.7c3.09-9.46,5.39-19.65,4.48-29.66-.86-9.54-5.08-18.16-13-23.78a45,45,0,0,0-16.25-6.84,14.61,14.61,0,0,0-7.68-.06,27.44,27.44,0,0,0-7.66,3.81,57.66,57.66,0,0,0-13.9,13.45,30.7,30.7,0,0,0-3.88,6.76c-1.8,4.52-3.42,9.1-5,13.7-5.86,17.55-10.22,35.66-17.68,52.64a224.59,224.59,0,0,1-13.11,24.9c-2.4,4-4.92,7.92-7.37,11.88a42.56,42.56,0,0,0-5.26,12,26.06,26.06,0,0,0-.18,12.26C2705.12,783.46,2707.25,782.88,2706.92,781.5Z"/><path class="fb5a3ed1-eb72-4de5-92c5-4fdceda58649" d="M2687.68,778c4.77-3.67,9.51-7.4,14.2-11.28a64,64,0,0,0,7.09-6.48c2-2.25,3.7-4.78,5.78-7,4.69-4.9,11.57-7.83,18.34-7,9.13,1.08,18.11,10.06,19.41,19.16,3.83,26.7-30.6,44.67-48.79,55-25.27,14.42-44.43,23.68-72.68,35.42-6.87-6.33-9.92-14.56-16.29-21.1,0,0,48.27-38,52.74-41.4C2674.21,788.15,2681,783.11,2687.68,778Z"/><path class="e2c3624c-8eac-41d5-acd4-a34e02dd537d" d="M2688.24,778.9c4.08-3.14,8.14-6.32,12.14-9.57,3.71-3,7.49-6,10.54-9.74s5.61-7.21,9.72-9.58a20.25,20.25,0,0,1,12.25-2.72c7.83.87,15,7.46,17.62,14.71,2.16,6,1.28,12.88-1.16,18.6-5.13,12-16.45,20.62-27.07,27.54-5.16,3.36-10.49,6.43-15.85,9.46-7.1,4-14.2,8-21.41,11.87-15.45,8.21-31.31,15.58-47.42,22.41q-3.42,1.46-6.86,2.88l1.07.29c-6.57-6.13-10.09-14.66-16.29-21.1l-.23,1.73c2.14-1.54,4.16-3.26,6.23-4.89l14.42-11.34q14.64-11.49,29.28-23l2.05-1.59.69-.54s-.17.13.07-.06l2.14-1.64c6-4.59,12.07-9.13,18.07-13.74,1.1-.85,0-2.77-1.12-1.9-11.32,8.7-22.7,17.31-33.93,26.12q-15.72,12.35-31.43,24.7l-5.6,4.4-1.59,1.25c-.13.1-.91.68-.39.31a1.12,1.12,0,0,0-.22,1.73c6.2,6.44,9.71,15,16.29,21.09a1.09,1.09,0,0,0,1.08.29c17-7.09,33.9-14.62,50.28-23.14,8-4.15,15.88-8.54,23.72-13,5.45-3.1,10.92-6.17,16.22-9.53,11.14-7.07,22.91-15.7,28.91-27.81a30.75,30.75,0,0,0,3.05-18.7c-1.3-7.89-7.61-15-14.83-18.1-7.91-3.39-16.95-1.13-23.27,4.45-3.68,3.26-6.19,7.59-9.79,10.94-3.84,3.58-8,6.81-12.17,10.06q-3.15,2.48-6.33,4.93C2686,777.85,2687.11,779.77,2688.24,778.9Z"/><path class="f9523030-fbb0-4f19-ad7c-7a36aad60aac" d="M2625.1,850.16c-1.4-2.7-4.94-8.63-5.21-9.1l-.09,0c-1.58-2.06-4.26-2.81-7-2.84a35.67,35.67,0,0,0-15.75,3.24c-3.48,1.71-6.31,4.73-9.64,6.67-.86.5-7.16,2.9-10.7,4.57a5.18,5.18,0,0,0,1.41,1.95,3.16,3.16,0,0,0,.45.37,5.3,5.3,0,0,0,4.17.72c6.57-1.48,12.5-4.08,19-5.59-3.89,3.1-7.3,6.86-11,10.2-.92.83-3.84,2.66-3.84,4.13,0,3.51,6.11,2.83,8.06,1.73-1,2.11-3.18,3-1.26,4.6s5.26-.49,7.2-.58a18.1,18.1,0,0,0-2.82,3.22c6.21,8.66,21.55-6.87,26.5-11.07,1.52-1.29,3-2.59,4.48-3.88C2629.63,858,2625.51,851,2625.1,850.16Z"/><path class="b2fea8a0-776b-4292-8790-6e3551854b15" d="M2561.38,784.09c2,1.18,7.23,5,5.89,7.5-2.18,4-6.81.13-9-1.4,1.59,2.26,6.11,5.34,4.81,8.34-1.83,4.21-7-.35-9.25-2.22,1.31,1.72,7.43,8.64,2.35,9.33-1.76.24-6.49-2.9-7.33-4.38,0,0-5.65-4,2.08-12.1S2561.38,784.09,2561.38,784.09Z"/><path class="a048152c-55aa-4466-acd0-ba7c95f73755" d="M2362.86,1184.92s-245,6.82-410.36,6.45-518.78-7.94-518.78-7.94,353.44-6.66,518.84-6.29S2362.86,1184.92,2362.86,1184.92Z"/><path class="fb5a3ed1-eb72-4de5-92c5-4fdceda58649" d="M1986.84,323a14.64,14.64,0,0,0-8.8-.41c-5.64,1.5-9.79,6.48-13.71,10.46-6.95,7-12.73,14.93-20,21.55-14.1,12.84-31.34,28.95-47.44,39.36,4.25,4,6.75,10.34,11.22,13.74.73.55,24.3-15.41,26.65-16.68a141,141,0,0,0,23.59-15.85c10.54-8.72,21.19-17.35,30.88-27,6.31-6.29,11.41-14.33,2.94-21.93A16.57,16.57,0,0,0,1986.84,323Z"/><path class="e2c3624c-8eac-41d5-acd4-a34e02dd537d" d="M1987.14,321.91a15.83,15.83,0,0,0-11.18.19,26,26,0,0,0-8.18,5.81c-5.51,5.37-10.5,11.2-15.6,16.95a215,215,0,0,1-16.81,16.4c-5.88,5.34-11.79,10.64-17.87,15.74a216,216,0,0,1-21.16,16,1.11,1.11,0,0,0-.22,1.73c4.22,4,6.37,9.83,10.94,13.52.91.73,1.51.57,2.47.1s1.91-1.07,2.84-1.63c6.23-3.79,12.28-7.87,18.39-11.85,2.29-1.5,4.57-2.88,7-4.22a141.6,141.6,0,0,0,17-11.19c5.48-4.2,10.75-8.71,16-13.16,5.54-4.65,11-9.4,16.22-14.4,4.38-4.19,9.7-9,10.62-15.36,1-6.76-4.56-12.37-10.46-14.61-1.33-.51-1.91,1.62-.59,2.12,5.09,1.94,10.06,7,8.75,12.86-1.2,5.37-5.74,9.45-9.54,13.1-9.68,9.31-20.1,18-30.62,26.35a138.44,138.44,0,0,1-15.81,10.82c-2.7,1.59-5.45,3-8.08,4.73-5.79,3.75-11.52,7.6-17.36,11.27-1.3.82-2.61,1.64-3.94,2.41-.45.26-.9.52-1.36.76-.16.08-.33.15-.48.24.12-.07,0,.1-.12,0s.68,0,.63.07-.71-.61-.82-.71a20.71,20.71,0,0,1-1.52-1.59,42.5,42.5,0,0,1-2.9-3.91,44,44,0,0,0-5.7-7.31l-.23,1.73c12.89-8.36,24.53-18.57,35.92-28.84,5.59-5,11.39-10,16.57-15.45,5.4-5.71,10.33-11.82,15.81-17.45,2.63-2.7,5.19-5.59,8.4-7.62a14.07,14.07,0,0,1,12.4-1.49C1987.89,324.5,1988.47,322.37,1987.14,321.91Z"/><path class="a27c4a70-2005-4913-8560-c7cd0f7c4dfd" d="M1863.83,408.8c6-2.67,10.75-7.14,16.67-9.85,1.8-.83,15.06-5.16,15.77-4.31,2,2.41,4.59,4.69,6.87,7.07,2.82,3,5.31,4,4.24,7.69s-4.86,8-7.27,11.17a83.27,83.27,0,0,1-19.54,19c-.21-.09-1.89-1.11-1.7-1.33,2.14-2.54,7.22-7.29,8.43-10.45-3.07,2.54-9,8.66-12.32,11.08-.28-.13-4.08-1.82-3.89-2,3.32-3.26,9.69-9,11.49-12.38-3.2,2.86-4.86,3.6-13.85,11.87a14.66,14.66,0,0,1-3.52-2.41c3.2-3.78,9.7-9.51,12.73-13.75-4.29,2.54-10.08,8-13.72,11.2-1.24,1.09-2.73-2.06-2.68-2.47.17-1.62,15.61-16.18,18.72-21.77a38.2,38.2,0,0,1-15.27,4.1A20.57,20.57,0,0,1,1863.83,408.8Z"/><path class="ac684c1f-23cc-4a4e-9b8b-72b9f1016ffc" d="M1485.89,354.12,1660,313c140.52-33.22,259.55,46.24,287.84,165.87s-42.57,244-183.09,277.2l-174.06,41.15Zm109.18,60.4,66.14,279.77,85.45-20.2c82.29-19.45,127.27-94.92,108.72-173.41-18.71-79.12-92.57-125.81-174.86-106.36Z"/><path class="ac684c1f-23cc-4a4e-9b8b-72b9f1016ffc" d="M2100.18,1183c-152.61,0-242.95-109.63-242.95-238.57,0-132.44,84.2-238.57,224.53-238.57,121.92,0,200.86,82.45,200.86,194.72,0,21.05-2.63,41.22-6.14,54.38H1950.2c3.51,87.71,63.15,146.47,151.74,146.47,52.62,0,96.48-23.68,123.67-60.52l65.78,52.63C2250.17,1148.78,2182.63,1183,2100.18,1183Zm-143-298.21H2191.4C2188.77,829.51,2149.3,783,2082.64,783,2018.61,783,1973,816.36,1957.22,884.77Z"/><path class="fb5a3ed1-eb72-4de5-92c5-4fdceda58649" d="M2043.86,704.3c1.61,8.15.61,24-1.51,32.56a58.51,58.51,0,0,1-13.67.51c1.3-4.58.8-4.79,1.3-8.62-13.69,15.31-43.61,8.38-43.6,8.19,20.19-17.5,25-21.05,36.26-37.85C2022.64,699.09,2041,689.9,2043.86,704.3Z"/><path class="e2c3624c-8eac-41d5-acd4-a34e02dd537d" d="M2041.74,704.88a65.74,65.74,0,0,1,.56,15.56,85.39,85.39,0,0,1-2.08,15.84l1.54-1.54a52.06,52.06,0,0,1-13.08.43l2.12,2.79a59.69,59.69,0,0,0,1.38-9.21c.24-1.91-2.56-2.88-3.76-1.56-5,5.47-12.2,8-19.33,8.86a62.66,62.66,0,0,1-10.52.33c-1.48-.07-3-.18-4.44-.34s-1.77-.19-3.23-.42c-.92-.15-1.84-.31-2.75-.51-.28-.05-.55-.13-.83-.19s-.47-.31.17.12l.79.79h0l-.34,2.68c10.43-9,21.31-17.72,29.79-28.71,2.39-3.1,4.63-6.32,6.82-9.58l-.8.79.45-.21.52-.23c.38-.18-.27.11-.12.05l.41-.17a34.52,34.52,0,0,1,4.21-1.38c.86-.21,1.73-.39,2.61-.52-.41.06.24,0,.36,0l.63,0c.46,0,.92-.05,1.38,0s.91,0,1.36.08c.11,0-.15,0,.24,0s.54.1.81.17l1,.31c-.16-.06.3.14.39.19a7.24,7.24,0,0,1,.71.41,6,6,0,0,1,1.72,1.76,10.27,10.27,0,0,1,1.3,3.51c.57,2.78,4.83,1.61,4.25-1.17a12.26,12.26,0,0,0-3.92-7.08,12.07,12.07,0,0,0-6.72-2.57,25.5,25.5,0,0,0-11.63,2.18c-1.34.53-2.35.84-3.19,2-1.91,2.77-3.79,5.55-5.81,8.23a100,100,0,0,1-10.89,12.1c-6.12,5.83-12.63,11.23-19,16.76a2.22,2.22,0,0,0-.35,2.67c.82,1.29,2.82,1.4,4.19,1.64a77.14,77.14,0,0,0,8.44,1c7.57.5,15.53,0,22.68-2.69a29.91,29.91,0,0,0,11.76-7.71l-3.77-1.56a49.37,49.37,0,0,1-1.22,8,2.24,2.24,0,0,0,2.13,2.8,56.27,56.27,0,0,0,14.26-.59,2.18,2.18,0,0,0,1.54-1.54,92.7,92.7,0,0,0,2.23-17,69.91,69.91,0,0,0-.72-16.73C2045.45,700.93,2041.2,702.11,2041.74,704.88Z"/><path class="a27c4a70-2005-4913-8560-c7cd0f7c4dfd" d="M1981.13,598.86c-9.62-23.89-32.7-56.29-15.55-68,16.61-11.32,30.67.27,39,12.7,7.2,10.72,13.72,32.29,14.85,46.09Z"/><path class="fb5a3ed1-eb72-4de5-92c5-4fdceda58649" d="M1968.46,571.92c13.25,31.23,55.68,125.43,55.14,148.87,7.17-2.09,15.13-2.92,21.45-8.18-18.26-112.55-31.11-156.67-33.65-155.91C1996.73,561.08,1982.78,566.41,1968.46,571.92Z"/><path class="e2c3624c-8eac-41d5-acd4-a34e02dd537d" d="M1966.56,573c3.45,8.14,7,16.25,10.5,24.37q7,16.22,13.84,32.5c4.89,11.73,9.68,23.51,14.23,35.38,4,10.48,7.9,21,11.22,31.75,1.31,4.22,2.53,8.48,3.52,12.79.39,1.73.75,3.47,1,5.23.06.36.12.73.17,1.1.09.61,0-.16,0,.17s0,.39.07.59c.08.68.14,1.37.18,2.06s0,1.22,0,1.82a2.23,2.23,0,0,0,2.79,2.13c5.38-1.55,10.92-2.48,16.06-4.78a27.2,27.2,0,0,0,3.57-1.91c1.17-.75,3.2-1.83,3.4-3.33a9.21,9.21,0,0,0-.31-2.6c-.14-.81-.27-1.62-.4-2.44-.28-1.68-.55-3.36-.83-5.05q-3-18.31-6.28-36.59c-3.35-18.81-6.9-37.59-10.87-56.29-2.51-11.85-5.16-23.7-8.29-35.41-1.53-5.71-3-11.67-5.49-17-.63-1.35-1.56-3-3.25-3a5.54,5.54,0,0,0-1.6.36c-1.54.47-3.07.94-4.6,1.43q-4.8,1.51-9.55,3.17c-6.33,2.19-12.6,4.52-18.86,6.89l-9,3.45a2.28,2.28,0,0,0-1.54,2.72,2.22,2.22,0,0,0,2.71,1.54c11.33-4.36,22.67-8.71,34.21-12.49,1.37-.45,2.74-.89,4.12-1.32l1.84-.57,1.38-.43c.35-.1,1.07-.49,1.39-.41-.93-.23-.06.26-1,0,.19.06-.68-.33-.39-.15-.27-.17-.48-.44-.14,0-.64-.75-.16-.19,0,.08.32.53.54,1.11.81,1.67.09.18-.26-.65-.09-.21,0,.09.08.18.11.27l.26.65c.18.46.35.93.52,1.41.91,2.57,1.7,5.19,2.46,7.81,2.6,9,4.76,18.17,6.83,27.33,3.31,14.62,6.27,29.32,9.08,44,4,20.72,7.58,41.5,11,62.31l1.5,9.2.57-2.14c-5.8,4.74-13.51,5.6-20.48,7.62l2.79,2.12a43.83,43.83,0,0,0-1.06-9.26c-.8-4-1.88-8.06-3-12-3.08-10.53-6.82-20.87-10.69-31.13-4.47-11.84-9.2-23.58-14-35.27q-7.07-17-14.38-33.94c-3.73-8.66-7.5-17.3-11.21-26l-1-2.37a2.23,2.23,0,0,0-3-.8A2.27,2.27,0,0,0,1966.56,573Z"/><path class="a27c4a70-2005-4913-8560-c7cd0f7c4dfd" d="M2041.58,533.61c-11.17,17.9-18.19,28.21-25.62,37.77-6.13,7.89-10.77,12.49-21.29,10.11-23.41-5.3-17.32-29.67-13.29-48,6.39-29,17.89-66.34,30-93.06,10.81-23.8,19.31-47,34-68.14,11.77-16.9,40.83-41.42,56.88-17.14,12.88,19.48-3,57.77-9.89,77.65C2079.88,469.12,2061.3,502,2041.58,533.61Z"/><path class="fb5a3ed1-eb72-4de5-92c5-4fdceda58649" d="M2124.85,704.05c2.27,8.17,2.63,24.32,1.26,33.08a55.1,55.1,0,0,1-13.38,1.25c.89-4.71.38-4.89.54-8.8-12.15,16.25-42.12,10.83-42.13,10.64,18.35-18.82,22.81-22.68,32.42-40.3C2103.56,699.92,2120.84,689.61,2124.85,704.05Z"/><path class="e2c3624c-8eac-41d5-acd4-a34e02dd537d" d="M2122.72,704.64a68.75,68.75,0,0,1,1.92,15.73,90,90,0,0,1-.65,16.18l1.54-1.54a49.58,49.58,0,0,1-12.8,1.17l2.12,2.79a30.17,30.17,0,0,0,.63-5.18c0-1.4-.05-2.8,0-4.21a2.25,2.25,0,0,0-1.62-2.13,2.32,2.32,0,0,0-2.49,1c-4.33,5.71-11.38,8.45-18.21,9.7a63.94,63.94,0,0,1-17.87.47c-.54,0-1.09-.12-1.64-.19.72.09-.5-.07-.77-.12l-.81-.15c-.35,0-.54-.29.18.14l.79.79h0l-.34,2.67c9.51-9.75,19.55-19.2,26.93-30.75,2.08-3.25,4-6.61,5.84-10l-.8.79c.51-.3,1-.57,1.57-.83l.77-.36.43-.19.22-.1c.29-.13-.35.14,0,0q1.09-.45,2.22-.81a23.82,23.82,0,0,1,2.51-.68,10.31,10.31,0,0,1,2.4-.3c.43,0,.86,0,1.29,0,.21,0,.43,0,.64.06s0,0-.06,0l.42.07c.42.09.82.2,1.23.33.1,0,.57.23.26.1a7,7,0,0,1,.67.34,6.08,6.08,0,0,1,1.91,1.67,10.75,10.75,0,0,1,1.62,3.5c.79,2.72,5,1.56,4.25-1.18a13.13,13.13,0,0,0-4.64-7.19,11.67,11.67,0,0,0-6.62-2.11c-4.05-.14-8.11,1.27-11.7,3a5.07,5.07,0,0,0-2.72,2.28c-1.57,2.86-3.19,5.7-4.92,8.46a95.07,95.07,0,0,1-9.58,12.78c-5.5,6.2-11.43,12-17.21,17.95a2.24,2.24,0,0,0-.35,2.67c1,1.41,3.14,1.37,4.7,1.57a68.18,68.18,0,0,0,7.83.53c7.67.11,15.53-.9,22.55-4.09a28.17,28.17,0,0,0,10.87-8.65l-4.11-1.11a53.62,53.62,0,0,1-.47,8.21,2.25,2.25,0,0,0,2.13,2.8,53.74,53.74,0,0,0,14-1.33,2.16,2.16,0,0,0,1.54-1.54,95,95,0,0,0,.81-17.35,74,74,0,0,0-2.08-16.91C2126.23,700.73,2122,701.89,2122.72,704.64Z"/><path class="a27c4a70-2005-4913-8560-c7cd0f7c4dfd" d="M2019.38,613.9c-17.58-19.17-50.93-41.9-38.82-58.38,11.73-16,29.16-9.74,41.49-.85,10.62,7.65,24.45,25.67,30.4,38.19Z"/><path class="fb5a3ed1-eb72-4de5-92c5-4fdceda58649" d="M1997.84,592.87c23.61,24.84,97.2,99,105,121,6.06-4.3,13.31-7.66,17.43-14.63-57.18-99.12-85-136.11-87.13-134.58C2020.77,573.55,2009.45,583.07,1997.84,592.87Z"/><path class="e2c3624c-8eac-41d5-acd4-a34e02dd537d" d="M1996.28,594.43c6.16,6.49,12.4,12.91,18.61,19.35q12.48,13,24.84,26.07c8.77,9.32,17.46,18.73,26,28.3,7.54,8.49,15,17.09,22,26.06,4.42,5.67,9.48,12.15,12.56,19l.18.41c0,.07-.18-.45,0,0l.33.87c.44,1.22,2,2.19,3.24,1.31,6.57-4.63,13.92-8.3,18.21-15.42a2.2,2.2,0,0,0,0-2.22q-16.71-29-34.07-57.56c-8.29-13.59-16.72-27.11-25.46-40.42-5.52-8.41-11.13-16.78-17.11-24.88-2.84-3.86-5.71-8.13-9.31-11.35-1.16-1-2.62-2-4.19-1.16a34.42,34.42,0,0,0-3.49,2.53q-1.92,1.43-3.81,2.86c-2.48,1.88-4.94,3.8-7.38,5.73-4.77,3.79-9.46,7.66-14.12,11.57q-3.48,2.91-6.94,5.84a2.22,2.22,0,0,0,0,3.12,2.24,2.24,0,0,0,3.11,0c9.18-7.74,18.36-15.49,27.93-22.74l3.44-2.57,1.74-1.27a11.05,11.05,0,0,1,1.75-1.27c.3.15-1.21.26-1,.26s-.75-.14-.42-.06c.17.05-.56-.42-.14,0a1.25,1.25,0,0,0,.24.16c.25.11-.53-.47-.15-.11a39.2,39.2,0,0,1,3.2,3.37c.79.94,1.57,1.9,2.33,2.87l.62.8c.36.46-.25-.33,0,.07.14.18.28.35.41.53.5.65,1,1.3,1.48,2,5.65,7.58,11,15.43,16.17,23.32,8.3,12.55,16.31,25.3,24.18,38.13q16.59,27,32.44,54.44l4.68,8.08v-2.22c-3.87,6.39-10.73,9.67-16.64,13.84l3.24,1.31c-2.42-6.79-7.09-12.87-11.39-18.57-6.7-8.88-13.91-17.36-21.24-25.72-8.47-9.65-17.16-19.11-25.92-28.49q-12.6-13.46-25.39-26.72c-6.61-6.88-13.26-13.72-19.85-20.62l-1.78-1.87C1997.44,589.25,1994.32,592.38,1996.28,594.43Z"/><path class="f2830c02-7ba8-4786-b0a0-5e873ffb9d41" d="M2096,328.52c17,22.89,18.59,81.67,12.94,118.59-4.62,30.16-16,80.42-16.23,127.7-30.42-2.87-96.35-17.25-140-37.12,42-99.3,62.59-139.34,91.21-187.44C2051.83,353.55,2086.25,324.11,2096,328.52Z"/><path class="eee5acf5-bf31-4937-b5f5-e311e8ca8f74" d="M1987.93,355.72c-.92-4.64.46-8.16,1.83-12.74,1.61-5.39,2-11.11,3.58-16.54,3.28-11.42,6.78-22.72,9.88-34.19,3.58-13.24,8.75-33,16.2-44.64,7.82-12.28,29-13.65,33.38,4.44,2.12,8.88-1.44,20-4.29,28.43-3.13,9.31-7.49,18.15-10.91,27.37-5.52,14.88-11.76,30.28-19.43,44.14-3.48,6.27-7.91,14.54-16.33,14.05-5.68-.33-11.68-2.8-13.45-8.54C1988.2,356.89,1988.05,356.29,1987.93,355.72Z"/><path class="eee5acf5-bf31-4937-b5f5-e311e8ca8f74" d="M2000.13,346.18a14.57,14.57,0,0,0-8.66,1.59c-5.16,2.73-8.07,8.53-11,13.29-5.18,8.41-9,17.42-14.59,25.51-10.83,15.71-22.38,36.19-35.7,50,5,2.9,8.6,7.72,13.73,10,.83.37,18.88-20.57,20.89-22.34a141.51,141.51,0,0,0,19.39-20.78c8.29-10.88,16.71-21.7,24-33.3,4.72-7.55,7.87-16.54-2.1-22A16.23,16.23,0,0,0,2000.13,346.18Z"/><path class="a27c4a70-2005-4913-8560-c7cd0f7c4dfd" d="M1901.74,457.45c5.19-3.94,8.86-9.38,14-13.36,1.57-1.21,13.51-8.44,14.39-7.77,2.49,1.89,5.54,3.53,8.29,5.34,3.42,2.24,6.08,2.64,5.87,6.52s-2.92,8.89-4.54,12.53a87.3,87.3,0,0,1-15.37,23.3c-.22,0-2.21-.52-2.07-.79,1.51-3,6.48-9.77,7.57-13.2-2.41,3.17-8.56,11.48-11.29,14.61-.3-.07-3.18-.52-3-.75,1.51-2.89,3.3-6.2,9.41-17.87-2.47,3.28-5.93,6.79-12.82,16.87-1.67-.43-2.16-1.1-3.69-1.92,2.26-4.4,8.62-12.72,10.61-17.53-3.6,3.45-9,12-11.81,16-1,1.34-1.8-2.4-1.85-2.81-.2-1.62,1.4-3.93,2.12-5.4,2.94-6,9.19-14.14,11-20.29-3.81,3.2-10.06,7.36-15,8.7A19.49,19.49,0,0,1,1901.74,457.45Z"/><path class="b8ed3ad5-3d81-4832-830e-27a40bf869e7" d="M722.16,498.84c-8.43-7.72-17.95-11.35-29.56-12.38a63.83,63.83,0,0,0-25,3.1c-4.38,1.44-14.14,5.51-16.78,10.65a22.21,22.21,0,0,0-1.73,1.65C625,528.69,655.9,563,662.67,583.44c-1.56-7.31-4.34-27.7,0-34.46,6.38-10,16.16,1.58,24.81-6.18,7.7-6.92,15.95-18.3,14.7-29.55a17.65,17.65,0,0,0-3.14-8.64C706.77,502.36,714.48,500.09,722.16,498.84Z"/><path class="a6c67554-c891-413f-8039-0951551697d2" d="M2765.83,503.45c.69,10.21,4.51,26.85,13.28,29.27,7.85,2.17,17.7-16.34,30.64-2.72,3.88,4.08,2.52,22.13,1.36,27.23,4.26-12.34,11.93-30.17,13.43-43.2.64-5.63.32-15-3.56-19.09-7.15-7.57-36.55-19.72-45.61-18.05C2772.93,477.34,2765.14,493,2765.83,503.45Z"/><path class="f4084334-1df1-4292-8608-000fea54b92b" d="M2738.26,502.77s-14.63-17.15,1.36-25.2c7.75-3.89,46.43-2.82,50.73,6.47,1.92,4.17,18.15,12.59,14.8,15.43-5.15,4.36-10.22-1.39-17.45-2.42C2751.54,491.87,2738.26,502.77,2738.26,502.77Z"/></g></svg>