<svg id="bbadc744-bb8e-44f8-8a8b-34863c010299" data-name="Calque 1" xmlns="http://www.w3.org/2000/svg" viewBox="0 0 1133.62 612.77"><defs><style>.fec6003c-04c6-4e89-8f05-4a19575753fb{fill:#ff8d7e;}.fd5d16fe-fc84-46c6-8db4-d6c1335c7c44{fill:#fed042;}.f702bf6c-942f-4e27-8ac1-34de9ae5e56e{fill:#66cdba;}.e6a8d5a2-037d-4f50-afc1-ff32ce130c0a{fill:none;stroke:#000091;stroke-linecap:round;stroke-linejoin:round;stroke-width:13px;}</style></defs><g id="b023a7e7-9fbe-4046-b4f6-ad9395e05aff" data-name="Tracé 546"><path class="fec6003c-04c6-4e89-8f05-4a19575753fb" d="M513.4,456.18A37.55,37.55,0,1,1,551,418.63,37.59,37.59,0,0,1,513.4,456.18Z"/><path class="fec6003c-04c6-4e89-8f05-4a19575753fb" d="M513.4,385a33.66,33.66,0,1,0,33.65,33.65A33.69,33.69,0,0,0,513.4,385m0-7.8A41.45,41.45,0,1,1,472,418.63,41.45,41.45,0,0,1,513.4,377.18Z"/></g><g id="f43827e8-2778-4d67-b076-c8bed1f4e78a" data-name="Tracé 546-2"><path class="fec6003c-04c6-4e89-8f05-4a19575753fb" d="M887.55,342.09A22.09,22.09,0,1,1,909.64,320,22.12,22.12,0,0,1,887.55,342.09Z"/><path class="fec6003c-04c6-4e89-8f05-4a19575753fb" d="M887.55,301.81A18.2,18.2,0,1,0,905.74,320a18.21,18.21,0,0,0-18.19-18.19m0-7.8a26,26,0,1,1-26,26A26,26,0,0,1,887.55,294Z"/></g><g id="b35d1a06-5a1a-4489-ac22-a5454a1bb8c4" data-name="Tracé 546-3"><path class="fec6003c-04c6-4e89-8f05-4a19575753fb" d="M310.52,206.94a22.1,22.1,0,1,1,22.1-22.1A22.12,22.12,0,0,1,310.52,206.94Z"/><path class="fec6003c-04c6-4e89-8f05-4a19575753fb" d="M310.52,166.65a18.2,18.2,0,1,0,18.2,18.19,18.21,18.21,0,0,0-18.2-18.19m0-7.8a26,26,0,1,1-26,26A26,26,0,0,1,310.52,158.85Z"/></g><path id="a3e5bc67-dd9e-4dbe-a90f-7265b277edb3" data-name="Tracé 546-4" class="fd5d16fe-fc84-46c6-8db4-d6c1335c7c44" d="M555,295.43a29.63,29.63,0,1,1-29.63,29.63h0A29.63,29.63,0,0,1,555,295.43Z"/><rect id="b0396845-9b41-46b3-9b7f-fda1e95bc567" data-name="Rectangle 697" class="fd5d16fe-fc84-46c6-8db4-d6c1335c7c44" x="553.35" y="307.19" width="3.61" height="36.07"/><path id="a98ef34d-b355-4ce1-afe9-b18c08856669" data-name="Tracé 546-5" class="fd5d16fe-fc84-46c6-8db4-d6c1335c7c44" d="M257.9,397.84a51.21,51.21,0,1,1-51.2,51.21,51.21,51.21,0,0,1,51.2-51.21Z"/><path id="ec4ea7a8-8948-443c-a84b-e4b918cfd13e" data-name="Tracé 546-6" class="f702bf6c-942f-4e27-8ac1-34de9ae5e56e" d="M612.17,346a51.85,51.85,0,1,1-51.85,51.85A51.85,51.85,0,0,1,612.17,346Z"/><path id="ef65974c-38cb-4b9e-89eb-28ae76db48bd" data-name="Tracé 546-7" class="f702bf6c-942f-4e27-8ac1-34de9ae5e56e" d="M1053.32,221.23a25.15,25.15,0,1,1-25.14,25.15h0A25.15,25.15,0,0,1,1053.32,221.23Z"/><path id="e6d37f74-b9c2-42e6-b4bd-3d4e8f1c578a" data-name="Tracé 546-8" class="f702bf6c-942f-4e27-8ac1-34de9ae5e56e" d="M107.46,158.85a35.79,35.79,0,1,1-35.79,35.79h0A35.79,35.79,0,0,1,107.46,158.85Z"/><g id="fd50ddb1-32d4-4e2b-a1be-b6e6f9cad398" data-name="Groupe 1573"><path id="a09c2b70-31e1-4bb9-9476-39bd0f241572" data-name="Tracé 6236" class="e6a8d5a2-037d-4f50-afc1-ff32ce130c0a" d="M653.54,206.25V182.12c0-12.65,8.66-22.87,19.31-22.87S692,169.53,692,182.17v130.2"/><path id="b1dab7c2-7ec9-4649-995e-6e102f83d38b" data-name="Tracé 6237" class="e6a8d5a2-037d-4f50-afc1-ff32ce130c0a" d="M615,250.62V202.76c0-12.65,8.67-22.88,19.33-22.88s19.27,10.29,19.23,22.93V312.37"/><path id="f8e6410e-fefb-41a3-8a08-bb133a926e02" data-name="Tracé 6238" class="e6a8d5a2-037d-4f50-afc1-ff32ce130c0a" d="M579.91,277V245.27c0-11.5,7.87-20.8,17.55-20.8S615,233.83,615,245.3V289"/><path id="f58aea32-8394-4dd0-9bf8-778e823717e8" data-name="Tracé 6239" class="e6a8d5a2-037d-4f50-afc1-ff32ce130c0a" d="M610.33,512.37c0-6.61-.32-24.28-.89-29.79"/><path id="ebc66756-566d-4627-a3ff-dd7a6876aee2" data-name="Tracé 6240" class="e6a8d5a2-037d-4f50-afc1-ff32ce130c0a" d="M704.59,512.37c0-40,23.51-60.37,38.42-84.48,31.19-50.42,27.76-59.41,38-90.05,9.09-27.08,21.23-55.28,5.86-62.55C775.72,270,757.09,287.1,744.18,320c-8.48,21.62-11.44,29.11-16.88,43.88a19.14,19.14,0,0,1-12,11.37c-12,4-32.43,14.39-36.43,38.79"/><path id="b9626fd2-df88-49c7-b25d-36f4b390e4ed" data-name="Tracé 6241" class="e6a8d5a2-037d-4f50-afc1-ff32ce130c0a" d="M692,213.06c0-12.64,8.83-22.87,19.49-22.87s19.11,10.27,19.09,22.92V355.23"/><path id="fb5117ae-52c4-4c3a-a75e-c61162ddb4f2" data-name="Tracé 6242" class="e6a8d5a2-037d-4f50-afc1-ff32ce130c0a" d="M467.12,206.25V182.12c0-12.65-8.66-22.87-19.32-22.87s-19.12,10.28-19.1,22.92v130.2"/><path id="b8bb1ae5-c1a0-4cd7-a52a-158dab7de310" data-name="Tracé 6243" class="e6a8d5a2-037d-4f50-afc1-ff32ce130c0a" d="M505.7,250.62V202.76c0-12.65-8.67-22.88-19.32-22.88s-19.28,10.29-19.24,22.93V312.37"/><path id="bd11a693-2adc-4744-a90f-e8bb9d386e28" data-name="Tracé 6244" class="e6a8d5a2-037d-4f50-afc1-ff32ce130c0a" d="M540.74,277.78V245.27c0-11.5-7.87-20.8-17.55-20.8s-17.51,9.36-17.5,20.83V289"/><path id="a52d6b64-d17c-4ecf-905f-ab95f550357f" data-name="Tracé 6245" class="e6a8d5a2-037d-4f50-afc1-ff32ce130c0a" d="M510.38,512.37c0-6.6.31-24.28.86-29.79"/><path id="a0a587c2-0c43-4089-9ceb-2555d9b3b050" data-name="Tracé 6246" class="e6a8d5a2-037d-4f50-afc1-ff32ce130c0a" d="M416.06,512.37c0-40-23.51-60.37-38.42-84.48-31.19-50.42-27.76-59.41-38.05-90.05-9.08-27.08-21.22-55.28-5.85-62.55C344.93,270,363.55,287.1,376.47,320c8.48,21.62,11.44,29.11,16.89,43.88a19.1,19.1,0,0,0,11.95,11.37c12,4,32.43,14.39,36.43,38.79"/><path id="b24179f3-969c-44a8-b543-92137139d15f" data-name="Tracé 6247" class="e6a8d5a2-037d-4f50-afc1-ff32ce130c0a" d="M428.7,213.06c0-12.64-8.83-22.87-19.48-22.87s-19.12,10.27-19.1,22.92V355.23"/></g><path id="f4dbd5a3-b11f-41b4-9293-d74b8ea9290b" data-name="Tracé 6248" class="fd5d16fe-fc84-46c6-8db4-d6c1335c7c44" d="M820.88,71.9a51.21,51.21,0,1,1-51.2,51.21,51.21,51.21,0,0,1,51.2-51.21Z"/></svg>