<svg xmlns="http://www.w3.org/2000/svg" xmlns:xlink="http://www.w3.org/1999/xlink" id="fad14ec6-f34f-4f27-8ade-1465910a0508" data-name="Calque 1" version="1.1" width="850" height="336.16"><defs id="defs42"><radialGradient id="b2082c80-d81d-4e24-8eb6-4377de02dfe3" cx="519.07" cy="36.05" r="18.08" gradientUnits="userSpaceOnUse"><stop offset="0" stop-color="#f06060" id="stop35"/><stop offset=".49" stop-color="#fc9" id="stop37"/></radialGradient><radialGradient id="b2240c32-03ae-4080-bec5-3956833d72b1" cx="182.67" cy="146.8" r="19.39" xlink:href="#b2082c80-d81d-4e24-8eb6-4377de02dfe3"/><radialGradient id="bdf7ce4b-4438-49a8-9694-2f9552d7c0a8" cx="744.59" cy="142.61" r="18.32" xlink:href="#b2082c80-d81d-4e24-8eb6-4377de02dfe3"/><radialGradient xlink:href="#b2082c80-d81d-4e24-8eb6-4377de02dfe3" id="radialGradient1051" gradientUnits="userSpaceOnUse" cx="519.07" cy="36.05" r="18.08"/><linearGradient id="a4f84d1e-ad82-4aed-baf2-124659a5480a" x1="1.63" y1="479.17" x2="2.04" y2="480.64" gradientTransform="matrix(270.32 0 0 -219 237.17 105392.47)" gradientUnits="userSpaceOnUse"><stop offset="0" stop-color="#fff" id="stop4"/><stop offset=".29" stop-color="#f0fbfc" id="stop6"/><stop offset=".72" stop-color="#c6f3f7" id="stop8"/><stop offset="1" stop-color="#b7f0f5" id="stop10"/></linearGradient><linearGradient id="fd98d6f8-bbf5-4395-8a14-770189d082d4" x1="1.81" y1="479.74" x2="1.81" y2="480.74" gradientTransform="matrix(344.59 0 0 -262.7 -444.55 126369.01)" gradientUnits="userSpaceOnUse"><stop offset="0" stop-color="#fff" id="stop13"/><stop offset=".33" stop-color="#f0fbfc" id="stop15"/><stop offset=".72" stop-color="#c6f3f7" id="stop17"/><stop offset="1" stop-color="#b7f0f5" stop-opacity=".5" id="stop19"/><stop offset="1" stop-color="#b7f0f5" id="stop21"/></linearGradient><linearGradient id="b0cd0a0b-da80-464d-8832-1fa8c22f20a3" x1="1.83" y1="479.38" x2="1.83" y2="480.71" gradientTransform="matrix(323.71 0 0 -235.11 -86.68 113119.71)" gradientUnits="userSpaceOnUse"><stop offset="0" stop-color="#fff" id="stop24"/><stop offset=".26" stop-color="#f0fbfc" id="stop26"/><stop offset=".6" stop-color="#c6f3f7" id="stop28"/><stop offset="1" stop-color="#b7f0f5" stop-opacity=".5" id="stop30"/><stop offset="1" stop-color="#b7f0f5" id="stop32"/></linearGradient><style id="style2">.bae87e50-0722-40b7-8794-cfb4dd95289d,.bb4e70c3-3a01-4496-916a-a5f27c5a4d1a,.e581e44d-6e98-4235-a316-eee4b33b2ead{fill-rule:evenodd}.a26b579a-391a-4fe0-87ad-aa05fd51477f{fill:#090e7c}.b4f7f29b-8e9d-4db9-aede-7c06fba008a5{fill:#9c38fa}.a22b5772-cadd-4946-bb8a-526e1114fac0{fill:#2b2465}.b20012be-06f1-4468-9709-0857e0c08757{fill:#59bbab}.bae87e50-0722-40b7-8794-cfb4dd95289d{fill:#9f6652}.bb4e70c3-3a01-4496-916a-a5f27c5a4d1a,.bc65d32b-a153-4b3b-94b7-d42985eb89db{fill:#ccc}.e581e44d-6e98-4235-a316-eee4b33b2ead{fill:#fc9}.a5611a68-2874-4906-b645-fe63dbb9ed43{fill:#6acef0}.a1ce16d1-16e4-48da-984a-a081faf39faf{fill:#00a1d9}.b3a0ef92-1fc4-47e7-a87d-3acb19e16a18{fill:#0066cb}.b6423444-9dc9-4818-87e9-89659960a870{fill:#003056}</style></defs><g id="g1432" transform="scale(.96837)"><g transform="translate(0 .04)" data-name="HOME illus" id="a7aa574b-516d-4f37-b01f-4174adf9669b"><path transform="translate(-6.24 -12.01)" d="M753.83 169.81L884 336.55l-267.69 5.53-2.63-104.15 8.19-101.75 25-.93 54.6-12.17z" data-name="Tracé 1237" id="bb2619ed-7d4e-4e81-a70f-37bad0f93706" fill="url(#a4f84d1e-ad82-4aed-baf2-124659a5480a)"/><path transform="translate(-6.24 -12.01)" d="M259.66 78l91.17 109.91L330 340.71 6.24 324.5z" data-name="Tracé 1238" id="a65950ca-3fd4-4619-9cc4-569d9f9ca322" fill="url(#fd98d6f8-bbf5-4395-8a14-770189d082d4)" fill-rule="evenodd"/><path transform="translate(-6.24 -12.01)" d="M494.87 196.55l7.1-97 165 234.5-323.71.62 80-117.62z" data-name="Tracé 1239" id="a4850144-3be2-4ca6-8b42-3fd51d33409e" fill="url(#b0cd0a0b-da80-464d-8832-1fa8c22f20a3)" fill-rule="evenodd"/><path transform="translate(-6.24 -12.01)" d="M549.8 46.44a5.35 5.35 0 00-4.35-3.44c-5.6-.81-8.82 5.7-11.1 9.72-2.14 3.76-4.17 7.59-6.29 11.36a77.672 77.672 0 00-2.95 5.92c-.53 1.12-1.21 2.13-1.65 3.25a12.21 12.21 0 00-2.24 1.88c-2.19 2.26-4.14 4.78-6.42 6.94-4.58 4.36-9 9.12-14.33 12.64a.35.35 0 00-.1.48c.68.68 2 3 3 3.21.48 0 1.15-.43 1.53-.63 2-1 4.06-2.17 6.08-3.28a55 55 0 007.86-5.13 89.22 89.22 0 0010.27-9.06 9 9 0 001.29-1.77 22.22 22.22 0 004.2-4.46 110.32 110.32 0 006.84-9.39c2.18-3.28 4.67-6.35 6.6-9.8 1.45-2.49 2.8-5.56 1.76-8.44z" data-name="Tracé 3854" id="b33787fa-3010-4ada-9dc5-558ffceb3f1e" fill="#3a3188"/><path id="path50" transform="translate(-6.24 -12.01)" d="M537.61 46.74a1.67 1.67 0 00-.56-1.14c-1.54-1.23-3.16-2.36-4.73-3.54l-3.85-2.86a10.57 10.57 0 00-.36-3.39c-1-3.2-3.52-5.44-6.18-7.27-1.69-1.16-2.55-2.76-3.77-4.34a16.51 16.51 0 00-4.51-4c-2.43-1.37-5.36-2.13-8-1a9.54 9.54 0 00-5.17 7.09 11.72 11.72 0 002.18 8.8c1.82 2.5 4.62 4 5.16 7.28.15.81.15 1.84 1 2.24 1.16.54 2.43-.55 3.4.44 2 2 4.63 5 7.85 4.7a8 8 0 003.77-2c.29-.24.57-.49.84-.74 1.28 1.11 2.44 2.34 3.68 3.49a11.06 11.06 0 003.89 2.82 4.65 4.65 0 003.87-.82 4.39 4.39 0 001.63-2.9 8 8 0 00-.14-2.86z" fill="url(#radialGradient1051)"/><path transform="translate(-6.24 -12.01)" d="M566.41 33.84c-1.95-4.36-6-8.1-11-8.1-2.84 0-5.76.78-8-1.38-1.64-1.55-2.68-3.64-4.05-5.42a8.46 8.46 0 00-4.95-3.55c-2.91-.55-5.64.89-8.24 2a14.06 14.06 0 01-2.44.76C525 15 521.51 12.32 517.23 12c-5.07-.37-9 2.71-12.22 6.26-1.59 1.81-3 3.74-4.49 5.66-.62.82-1.12 1.19-.74 2.19a7.58 7.58 0 001.22 2.16 12.51 12.51 0 0010.73 4.31c1.89-.22 3.3-1.34 5-2a2.91 2.91 0 013.13.12 3.48 3.48 0 01.84 2.76c0 1.76-.34 3.42.24 5.13a9.86 9.86 0 003.53 4.78 8 8 0 008.37 1l.14.16c1.77 2.12 3.71 4.06 5.66 6.08a34.13 34.13 0 005.43 4.9 14.59 14.59 0 009.17 2 13.52 13.52 0 007.76-3.58 21.68 21.68 0 005.17-6.52 15.71 15.71 0 00.2-13.57z" class="a26b579a-391a-4fe0-87ad-aa05fd51477f" data-name="Tracé 3857" id="bc1b7b1f-f318-439a-8c6e-71440fe59b69" fill="#090e7c"/><path transform="translate(-6.24 -12.01)" d="M559.32 70.7c-1.15-2.27-2-4.65-3-7-1-2.35-2.12-4.69-3-7.09a28.9 28.9 0 00-4.76-9.2c-2.29-2.82-5.48-4.92-9.24-4.65a11.83 11.83 0 00-9.85 7.7c-.66 1.9-.21 3.61-.17 5.56.1 4.14-.91 8.41-.17 12.52a6.62 6.62 0 002.28 4.16c1.66 1.35 3.94 1.75 5.94 2.28a11.37 11.37 0 016.34 4c1.67 2 3.11 4.36 4.59 6.56 1.1 1.38 2.4 1.08 3.58 0q2.71-2.57 5.5-5.06c1.25-1.15 3.4-2.5 3.73-4.31.33-1.81-1-4.03-1.77-5.47z" class="b4f7f29b-8e9d-4db9-aede-7c06fba008a5" data-name="Tracé 3858" id="f2bcdfe5-1c54-4fd5-b7fe-5e3bab675827" fill="#9c38fa"/><path transform="translate(-6.24 -12.01)" d="M182.49 175.51c.18-3 6.29-6.76 9.2-7.19 7.17-1 12.82-.8 19.76-1.81a77 77 0 0012.93-3.34c.71-.36 1.46-.66 2.16-1a20.57 20.57 0 002.47-1.67c1.51-1.12 3-2.28 4.43-3.45 2-1.65 4.06-3.32 6.11-5 1.36-1.1 16.32-12.88 16.32-12.88 1.47 2.32 3.7 3.87 5.07 6.38a186.8 186.8 0 01-16 19.25c-2.39 2.52-5.78 6.28-9.58 8.77-.15.19-.3.37-.46.55a12 12 0 01-2.25 1.71 72.64 72.64 0 01-10.8 5.85 97 97 0 01-14.18 4.2 54.61 54.61 0 01-12.32 1.78c-7.02 0-13.42-2.48-12.86-12.15z" class="a22b5772-cadd-4946-bb8a-526e1114fac0" data-name="Union 17" id="fc391375-93ea-49f8-8af2-3931549a8a1b" fill="#2b2465"/><path transform="translate(-6.24 -12.01)" d="M263.61 129.28a1.48 1.48 0 00-.44-.46c-.64.85-1.61 2.38-1.79 2.58-.69.78-1.63 1.37-2.28 2.2a9.83 9.83 0 00-1.74 4c-.22 1.14 0 2.32 1.55 2.62a1.8 1.8 0 002-.72 3.82 3.82 0 00.69-1.08 2.64 2.64 0 00-.56-2.73.29.29 0 01-.1-.18.24.24 0 010-.12c.76-1.68 1.8-3.14 2.57-4.82a1.5 1.5 0 000-1.14c.15-.06.12-.11.1-.15z" data-name="Tracé 3861" id="bde9173c-2c50-46eb-aa3c-fab2e11c0528" fill="#59bbab" fill-rule="evenodd"/><path transform="translate(-6.24 -12.01)" d="M259.59 140.54a4.29 4.29 0 01-.71-.08 2.25 2.25 0 01-1.52-.86 2.71 2.71 0 01-.27-2 10.06 10.06 0 011.76-4 9.68 9.68 0 011.29-1.27 9.08 9.08 0 001-.95c.06-.07.34-.48.6-.87.26-.39.82-1.23 1.18-1.69l.14-.2.2.14a1.68 1.68 0 01.51.55l.09.17a1.73 1.73 0 010 1.34c-.39.85-.85 1.65-1.29 2.43a26 26 0 00-1.28 2.39 2.93 2.93 0 01.62 3 3.66 3.66 0 01-.73 1.13 2 2 0 01-1.59.77zm3.62-11.36c-.31.45-.69 1-1 1.46-.31.46-.56.83-.65.93a12.15 12.15 0 01-1 1 8.65 8.65 0 00-1.22 1.2 9.3 9.3 0 00-1.66 3.86 2.28 2.28 0 00.19 1.66 1.69 1.69 0 001.13.71 1.5 1.5 0 001.82-.63 3.2 3.2 0 00.64-1 2.39 2.39 0 00-.5-2.46.49.49 0 01-.17-.35.41.41 0 010-.22c.4-.87.86-1.68 1.3-2.45a23.74 23.74 0 001.27-2.39 1.16 1.16 0 000-.93l-.05-.1a1 1 0 00-.11-.23zm-2.21 6.27l.23.09v-.06z" class="b20012be-06f1-4468-9709-0857e0c08757" data-name="Tracé 3862" id="ba3db219-6cff-4913-94a5-ac1b8bf7ac0e" fill="#59bbab"/><path transform="translate(-6.24 -12.01)" d="M259.84 141.44c.18.15 1.8 1.59 2 1.46.43-.31.84-.64 1.27-1a35.11 35.11 0 003-2.64c.41-.41.86-.92 1.3-1.3a1.49 1.49 0 00.65-1.3 1.94 1.94 0 00-.82-1.14 18.94 18.94 0 00-1.62-1.21 2.7 2.7 0 00-.93-.46 2.38 2.38 0 00-1.71.47c-.36.24-.7.51-1.07.71a8.68 8.68 0 00-1.1.55 6 6 0 00-1.09 1.26c-.13.19-1.94 2.71-1.9 2.74.04.03 1.38 1.36 2.02 1.86z" class="bae87e50-0722-40b7-8794-cfb4dd95289d" data-name="Tracé 3863" id="b106d72f-946c-4e5c-8784-17379056627d" fill="#9f6652" fill-rule="evenodd"/><path transform="translate(-6.24 -12.01)" d="M263.34 135.72c0 .1.08.2.13.3a6.61 6.61 0 001.37 1.7 2.44 2.44 0 00.92.63 1.74 1.74 0 001.35-.25 7.69 7.69 0 001-.77c.29-.25.71-.51 1-.76.69-.55 1.92-1.7 2.57-2.3a1.35 1.35 0 00-.63-.35 23.28 23.28 0 01-3.34 2.3 44.55 44.55 0 003.93-3.72 1 1 0 00-.87-.48 17.59 17.59 0 01-3.65 2.83 27.67 27.67 0 002.37-2.35 16.68 16.68 0 001.52-1.84 1.17 1.17 0 00-1.12-.28l-1.8 1.72c-.52.48-1.3 1.21-1.86 1.63 1.51-1.9 3.66-4.63 3.64-4.64a2 2 0 00-1.14-.46c-.13 0-2.91 2.93-3.3 3.3-.75.7-1.75 1.79-2.57 2.49a5.36 5.36 0 00.46 1.29z" class="bae87e50-0722-40b7-8794-cfb4dd95289d" data-name="Tracé 3864" id="bd1af92b-d91b-4113-85ca-3e65c1d320d5" fill="#9f6652" fill-rule="evenodd"/><path transform="translate(-6.24 -12.01)" d="M143.37 357.45s32.11 1 64.6.93c32.49-.07 72.6-1.32 72.6-1.32s-40.12-1-72.6-.89c-32.48.11-64.6 1.28-64.6 1.28z" class="bb4e70c3-3a01-4496-916a-a5f27c5a4d1a" data-name="Tracé 3865" id="a6948e81-0fe9-4f33-a495-6b714b09a64d" fill="#ccc" fill-rule="evenodd"/><path transform="translate(-6.24 -12.01)" d="M177.39 356.64h.42c-.12.02-.29-.01-.42 0z" class="bc65d32b-a153-4b3b-94b7-d42985eb89db" data-name="Tracé 3876" id="bd87281b-3b33-4cb9-a132-063bdc042011" fill="#ccc"/><path transform="translate(-6.24 -12.01)" d="M154.32 357.08h8.29l.92-.08h3.05l-.41-.56h114.45v.56H196l-.48 1.52H145.4l-.42-.05h22.49l.84.07h32.16l.85.06h79.24v.4-.53.53H200l-.41-2.57h-39.06l-.93.08h-4.86zm0 .52zm19.46.55zm-.29-.19h.07zm12.49.14z" class="bc65d32b-a153-4b3b-94b7-d42985eb89db" data-name="Tracé 3885" id="a3bb5944-b69f-41b3-85d0-330632fcc76c" fill="#ccc"/><path transform="translate(-6.24 -12.01)" d="M169.77 358.16h.42a1.48 1.48 0 01-.42 0z" class="bc65d32b-a153-4b3b-94b7-d42985eb89db" data-name="Tracé 3888" id="a9051c48-721b-4e62-9fb5-b94dbe9c2eec" fill="#ccc"/><path transform="translate(-6.24 -12.01)" d="M208.56 345.4c-2.14-12.15-6.13-24.17-7.19-36.47l-.06-.7c-2-3.58-1.56-8.52-2.14-12.36a143 143 0 00-3.89-17.73c-2.41-8.61-4.43-17.58-6.87-26.34-1-3.79-1.91-7.65-2.68-11.51-.45-2.35-1.18-4.74-1.12-7.09a21.16 21.16 0 011.51-7.2 15.86 15.86 0 011.71-3.2 13.13 13.13 0 0112.49-5.38c12.8 2 11.32 18.89 13.38 28.38 1.48 6.83 2.46 14.06 3.54 21.1q1.69 11.21 2.7 22.51c.29 3.47.41 7 .63 10.44 1.7 3.92.85 8.7 1.23 12.91.4 4.55-.52 8.79-.74 13.33q-.26 6.35-.41 12.73c-.07 2.68-.15 5.35-.3 8-.15 2.65 0 7-2.6 8.69a5.47 5.47 0 01-3 1.06c-4.19.02-5.54-7.57-6.19-11.17z" class="a22b5772-cadd-4946-bb8a-526e1114fac0" data-name="Union 18" id="e9730510-0061-4a9b-b7cd-dfc23a60aa76" fill="#2b2465"/><path transform="translate(-6.24 -12.01)" d="M210.57 357.08c.63 0 1.41.11 2 .11 1.58 0 3.16 0 4.74-.06a41 41 0 008.42-.63c-.87-1.15-3.73-2.29-5.25-2.87a6 6 0 00-6.16-4.12c-4.34.17-4.71 4.2-4.12 7.63a2.76 2.76 0 01.37-.06z" data-name="Tracé 3899" id="e2a11b98-0570-490c-8586-5cb8ce1b4234" fill="#2b2465" fill-rule="evenodd"/><path transform="translate(-6.24 -12.01)" d="M160.36 353.41c-5.3-2.26-1.72-9.55-1-13.49.5-2.68 1-5.38 1.77-8 1.37-4.68 2.76-9.33 3.87-14.05.65-2.74 1.88-5.35 2.79-8.1.91-2.75 1.85-6 3.53-8.55.39-2.17 1-4.31 1.21-6.27a144.35 144.35 0 001.1-18.23c0-9 .53-18.24.58-27.36 0-4 .24-7.93.57-11.86.2-2.4.14-4.91.87-7.2a20.8 20.8 0 013.43-6.56 16.14 16.14 0 012.53-2.63 13.16 13.16 0 0113.55-1.76c11.8 5.51 5.72 21.45 5.13 31.19-.45 7-1.48 14.26-2.38 21.36-.94 7.53-2.08 15-3.55 22.49-.73 3.71-1.64 7.37-2.42 11.05a11.58 11.58 0 01-3.25 5.54c-.06.34-.13.68-.2 1a34.1 34.1 0 01-3.58 9.73c-.68 1.27-1.41 2.5-2.14 3.72-5.19 8.61-11 16.7-15.65 25.63-1.05 2-2.27 3-4 3a7.37 7.37 0 01-2.76-.65z" data-name="Union 19" id="fd350a90-baa3-4bd3-9af3-af704eac9a89" fill="#4f43b8" stroke="#4f43b8"/><path transform="translate(-6.24 -12.01)" d="M155.86 352.59c.59.22 1.23.7 1.74.94 1.44.68 2.88 1.32 4.34 1.94 2.54 1.08 5.23 2.46 7.95 3-.3-1.41-2.43-3.66-3.57-4.83a6 6 0 00-3.88-6.37c-4.05-1.67-6.08 1.84-7 5.22a1.82 1.82 0 01.4.11z" data-name="Tracé 3902" id="aaf7fca8-16b8-4e01-97dc-394df64df1b3" fill="#4f43b8" fill-rule="evenodd" stroke="#4f43b8"/><path transform="translate(-6.24 -12.01)" d="M203.66 184.43c-1.32-5.64-2.36-10.76-7.47-14.19a20.39 20.39 0 00-19.41-2.12c-6.54 2.66-11.32 8.34-11.2 16.27.12 7.93 2 14.09 3.85 21.5 2.19 8.93 6.27 13.85 9.06 22.66 0 0 26.34-1.42 29-1.87-.02-2.21-1.27-31.45-3.83-42.25z" data-name="Tracé 3904" id="bcb4b612-5202-4b55-9a0f-1da38f94a39b" fill="#4f43b8" fill-rule="evenodd"/><path id="path75" transform="translate(-6.24 -12.01)" d="M198.53 145.51a62.37 62.37 0 00-2.22-7.83c-1.25-3.51-2.33-7.09-5.26-9.58-5.06-4.36-12.35-4.62-18.23-1.89-3 1.38-5.58 3.69-6 7.1a26.38 26.38 0 00.76 7.19 21.46 21.46 0 001.14 4.81 44 44 0 002.88 5.69c.17.74.34 1.47.5 2.19.42 2 .81 4 1.34 5.9.88 3.17 1.74 6.36 2.48 9.58a.65.65 0 00.65.48c2.32-.1 4.64-.36 6.94-.62a38.9 38.9 0 007.28-1.17.67.67 0 00.48-.83.49.49 0 00-.08-.18 42.32 42.32 0 01-2.51-6.44 9.58 9.58 0 005.07-1.28c4-2.63 2.37-7.72 1.87-11.7a13.2 13.2 0 002.42-.61.7.7 0 00.49-.81z" fill="url(#b2240c32-03ae-4080-bec5-3956833d72b1)"/><path transform="translate(-6.24 -12.01)" d="M746.41 166.76a14.4 14.4 0 00-4.83-2.52 5.88 5.88 0 00-4.45.69 17.38 17.38 0 00-4.66 3.41 21.37 21.37 0 00-3.52 5.75c-2.78 5.73-5.06 11.72-8.56 17.07a85.6 85.6 0 01-5.64 7.48 34.77 34.77 0 01-3.81 3q-2.45 1.53-5 3c-8.18 4.77-16.28 9.72-24.48 14.49a.34.34 0 00-.13.46c1.65 2.18 2.5 4.83 4.27 6.93a.33.33 0 00.33.09c5.91-1.66 11.76-3.49 17.51-5.67a140.64 140.64 0 0013.1-5.52 34.26 34.26 0 004.64-2.74 18 18 0 004.9-3.12 70.3 70.3 0 006.16-5.28c3.86-3.77 6.91-8.23 9.94-12.66a65 65 0 004.93-8.22c2.59-5.14 4.54-12.33-.7-16.64z" data-name="Tracé 3909" id="e16690b1-d4c6-4d4c-ab08-d409cfd8157e" fill="#04518c"/><path transform="translate(-6.24 -12.01)" d="M780.19 352.9s-34.14 1.09-68.68 1c-34.54-.09-77.17-1.18-77.17-1.18s42.65-1.06 77.18-1c34.53.06 68.67 1.18 68.67 1.18z" class="bb4e70c3-3a01-4496-916a-a5f27c5a4d1a" data-name="Tracé 3913" id="a5371c2d-eff7-4542-bd53-3603c42b9d5d" fill="#ccc" fill-rule="evenodd"/><path transform="translate(-6.24 -12.01)" d="M779.3 353.18l-.5.05h.45-.49 1z" class="bc65d32b-a153-4b3b-94b7-d42985eb89db" data-name="Tracé 3914" id="f0ea6da1-6e77-4c27-9119-f88cb70d59b6" fill="#ccc"/><path transform="translate(-6.24 -12.01)" d="M772.77 352.71h2.94-3.37z" class="bc65d32b-a153-4b3b-94b7-d42985eb89db" data-name="Tracé 3916" id="a51757ba-bb29-43b7-847b-699a1c1c7a5d" fill="#ccc"/><path transform="translate(-6.24 -12.01)" d="M777 352.87s-.42 0-.44-.05h.88z" class="bc65d32b-a153-4b3b-94b7-d42985eb89db" data-name="Tracé 3917" id="af5e3966-943c-4f74-8ad7-bdd215de7604" fill="#ccc"/><path transform="translate(-6.24 -12.01)" d="M744 351.91h-.44a1.09 1.09 0 01.44 0z" class="bc65d32b-a153-4b3b-94b7-d42985eb89db" data-name="Tracé 3924" id="bd33045d-7d1c-4296-8601-5833da239935" fill="#ccc"/><path transform="translate(-6.24 -12.01)" d="M764.62 352.63H764l.45.05h3.5a1.38 1.38 0 01-.45-.05h-2.87z" class="bc65d32b-a153-4b3b-94b7-d42985eb89db" data-name="Tracé 3926" id="ef750669-6789-4d57-8370-715ae109fab9" fill="#ccc"/><path transform="translate(-6.24 -12.01)" d="M773 353h-.46.46z" class="bc65d32b-a153-4b3b-94b7-d42985eb89db" data-name="Tracé 3927" id="a1afd679-73b7-4dc0-b892-254a1e9fa751" fill="#ccc"/><path transform="translate(-6.24 -12.01)" d="M774.44 353h.5s-.46 0-.45-.05H774z" class="bc65d32b-a153-4b3b-94b7-d42985eb89db" data-name="Tracé 3929" id="b6680774-ca1e-46a7-8a64-25c0fd2be3e9" fill="#ccc"/><path transform="translate(-6.24 -12.01)" d="M772.14 352.9h-.5l.45.05h.5s-.46-.04-.45-.05z" class="bc65d32b-a153-4b3b-94b7-d42985eb89db" data-name="Tracé 3931" id="f10f1604-d116-4d3a-95cd-c6806b20acbc" fill="#ccc"/><path transform="translate(-6.24 -12.01)" d="M768.54 352.56h-4.36l-.45-.05h-7.86l-.9-.08H634.32v-.55l.45.05h2.39l.45.05H778.1l1-.08h.9a1.67 1.67 0 00-.5.05h-2l-.5.05h-2.87l-.49.05a1.77 1.77 0 00-.5.05h.45-54.08l-.9-.06h-84.29v-.46.57-.58h116.75l.9.08h12.33l.45.05h3.33zm0 .79zm-20.7.25zm.33.2zm-13.28.2z" class="bc65d32b-a153-4b3b-94b7-d42985eb89db" data-name="Tracé 3933" id="f148aa78-47db-44fc-be31-e597a88e1440" fill="#ccc"/><path transform="translate(-6.24 -12.01)" d="M772.63 352.88h-.29l-.89-.08h.69z" class="bc65d32b-a153-4b3b-94b7-d42985eb89db" data-name="Tracé 3935" id="b5578654-1358-4f13-b948-a6adfc2d4469" fill="#ccc"/><path transform="translate(-6.24 -12.01)" d="M752.15 353.45h-.46a1.19 1.19 0 01.46 0z" class="bc65d32b-a153-4b3b-94b7-d42985eb89db" data-name="Tracé 3936" id="e38c1c81-a725-4578-b695-f05537c715ac" fill="#ccc"/><path transform="translate(-6.24 -12.01)" d="M777 353.1h.46c-.12.02-.25-.01-.46 0z" class="bc65d32b-a153-4b3b-94b7-d42985eb89db" data-name="Tracé 3938" id="aabee722-5258-4004-b94b-3f6032627091" fill="#ccc"/><path transform="translate(-6.24 -12.01)" d="M776 353.24h-.45l-1 .08h1.88z" class="bc65d32b-a153-4b3b-94b7-d42985eb89db" data-name="Tracé 3939" id="f22940e2-7f80-479c-b38c-bbb88716d485" fill="#ccc"/><path transform="translate(-6.24 -12.01)" d="M779.24 353.09h1-.45z" class="bc65d32b-a153-4b3b-94b7-d42985eb89db" data-name="Tracé 3941" id="ad19ded0-71cb-4d87-81c0-1d60e3ad4616" fill="#ccc"/><path transform="translate(-6.24 -12.01)" d="M779 352.82l.44.05h.5l-.44-.05z" class="bc65d32b-a153-4b3b-94b7-d42985eb89db" data-name="Tracé 3945" id="a1c220e0-0672-402a-9d8a-bedaecb0e5f0" fill="#ccc"/><path transform="translate(-6.24 -12.01)" d="M732.61 214.28a15.39 15.39 0 00-8.17-2.45 7.58 7.58 0 00-6.26 3.44 34.49 34.49 0 00-4 8.46 78 78 0 00-3.18 11.35c-.4 2-.74 4-1 6-1.25 8.18-2.11 16.42-3.28 24.62s-2 16.34-2.51 24.56c-.09 1.7-.26 3.4-.29 5.07-.09.21-.18.42-.25.64a23.8 23.8 0 00-.84 7.88c0 3-.31 6.08-.12 9.12.21 3.51.69 7 .83 10.5s.21 7.19.31 10.78c.09 3 .23 6.13.35 9.19a20.47 20.47 0 00.46 4.2 5.24 5.24 0 00-.54 1.18c-1.74.67-3.94 1.4-5.13 2.88a.35.35 0 000 .49.33.33 0 00.13.07 35 35 0 007.43.62c1.29 0 2.57.07 3.86.08 1.29.01 2.46-.15 3.68-.11l.31.05a.33.33 0 00.41-.23 11.42 11.42 0 00-.07-4.8 28.1 28.1 0 001.16-4.32c1.09-5.06 2-10.25 3.18-15.35 1.42-6.08 2.88-12.24 3.78-18.47.29-2 .5-4 .66-6a11.82 11.82 0 001-2.83c.68-2.78.62-5.67.92-8.49a95.45 95.45 0 012.25-12.1c1.91-8.11 4.17-16.22 6.2-24.32 2.03-8.1 4.4-16.17 5.76-24.43 1.13-6.42-1.35-13.79-7.04-17.28z" data-name="Tracé 3946" id="ebe7dd14-6f67-4762-b008-963800f090e3" fill="#4f43b8"/><path transform="translate(-6.24 -12.01)" d="M768.61 347.87a11.27 11.27 0 00-2-4.23c-.09-3-1.39-5.93-1.92-8.8-1.14-6.2-3-12.16-4.66-18.24a81.6 81.6 0 00-2.58-8.68c-.84-2.26-1.52-4.57-2.34-6.83a23.2 23.2 0 00-2-4.27c-.08-.48-.17-.95-.26-1.41-1.68-8.4-1.94-16.81-2-25.33-.1-8.88-.44-17.76-.58-26.63-.08-4.38-.44-8.74-.72-13.1a20 20 0 00-3.4-10.37 14.56 14.56 0 00-7.88-6.08 12.94 12.94 0 00-9.12.72c-10.38 5.07-6.78 18.63-5.5 27.58.18 1.26.33 2.51.41 3.78.55 8.64 1.76 17.23 2.91 25.84 1.15 8.61 2.72 17.42 4.64 26.05a23 23 0 001.52 5.47 13.85 13.85 0 002.32 3.2c.81 5.22 3.2 10 5.88 14.52 3.15 5.3 6.54 10.46 9.76 15.72 1.57 2.56 3.09 5.16 4.53 7.8a29 29 0 001.81 3.28 6.61 6.61 0 000 1.09 31.07 31.07 0 00-2.16 2.42 7.06 7.06 0 00-1.4 2.49.35.35 0 00.25.42.43.43 0 00.16 0 35.22 35.22 0 007.09-2.66c1.2-.54 2.4-1 3.6-1.6 1.2-.6 2.08-1.14 3.15-1.62a2.24 2.24 0 01.37-.1.34.34 0 00.12-.43z" class="b4f7f29b-8e9d-4db9-aede-7c06fba008a5" data-name="Tracé 3947" id="ad9a8269-fd80-4c46-a511-87120a466497" fill="#9c38fa"/><path transform="translate(-6.24 -12.01)" d="M726.52 179.23c1.75-5.52 3.18-10.54 8.46-13.51a19.75 19.75 0 0119.25-.58c6.2 3.16 10.43 9.21 9.68 17.12s-3.13 13.87-5.51 21.1c-2.86 8.74-5.2 12.92-8.66 21.49 0-.06-27.77-3.1-30.32-3.76.18-2.25 3.77-31.3 7.1-41.86z" data-name="Tracé 3948" id="bb647334-136a-43d9-9dbb-f3bb6193c00c" fill="#9c38fa" fill-rule="evenodd"/><path id="path114" transform="translate(-6.24 -12.01)" d="M758.85 128.19c-1.06-5.5-9.12-7.48-13.89-7-5.54.56-10.68 4.14-12.16 9.54-1.83 6.74-2.18 8.25-2.7 12.52a8.33 8.33 0 003 .36c0 2.52-.76 5.71-.1 8.11 1.07 3.94 4.27 4.54 8.2 4a48.78 48.78 0 01-2.13 7.76c2.43.58 12.1.59 13.93.5.43-3.24 1-6.54 1.6-9.76.14-.81.71-5.05 1.07-8.24 1.47-3.08 3-6.92 3-8.78-.01-3.2.79-5.75.18-9.01z" fill="url(#bdf7ce4b-4438-49a8-9694-2f9552d7c0a8)" fill-rule="evenodd"/><path transform="translate(-6.24 -12.01)" d="M683.89 235.16a1.59 1.59 0 01-.45-.63c1.14-.53 3.17-1.3 3.44-1.47 1.09-.62 2-1.6 3.11-2.15a11.51 11.51 0 015.07-1c1.4 0 2.72.6 2.72 2.49a2.11 2.11 0 01-1.32 2.26 4 4 0 01-1.41.54 3.19 3.19 0 01-3-1.32c0-.08-.1-.16-.18-.17h-.16c-2.15.49-4 1.35-6.26 1.84a1.74 1.74 0 01-1.35-.24.7.7 0 01-.21-.15z" class="bae87e50-0722-40b7-8794-cfb4dd95289d" data-name="Tracé 3955" id="b7345563-61f0-4f5f-939a-d7b21dca792f" fill="#9f6652" fill-rule="evenodd"/><path transform="translate(-6.24 -12.01)" d="M642.91 328.52s-74.72 2.09-125.14 2c-50.42-.09-158.31-2.43-158.31-2.43s107.82-2 158.28-1.93c50.46.07 125.17 2.36 125.17 2.36z" class="bb4e70c3-3a01-4496-916a-a5f27c5a4d1a" data-name="Tracé 3958" id="fec159b5-8ce6-4ffb-9e59-5b23376e1cb9" fill="#ccc" fill-rule="evenodd"/><path transform="translate(-6.24 -12.01)" d="M641.18 329.08c-.3 0-.65.07-1 .09h.88l-1 .08h.94c.3 0 .65-.07 1-.08.07 0 .94-.07.95-.09z" class="bc65d32b-a153-4b3b-94b7-d42985eb89db" data-name="Tracé 3959" id="ac5aa0df-2e1c-4cbf-a3b9-f52484361d31" fill="#ccc"/><path transform="translate(-6.24 -12.01)" d="M621.33 327.72h-.41l-.46-.05h1c-.32 0-.53-.07-.87-.09h-2.94l.87.09.88.09h1c.2-.01.8-.02.93-.04z" class="bc65d32b-a153-4b3b-94b7-d42985eb89db" data-name="Tracé 3960" id="bd4b8801-7316-41b6-bc7b-e5fdfa73961a" fill="#ccc"/><path transform="translate(-6.24 -12.01)" d="M628.5 328.19h1c.29 0 .7.09.87.09h4c-.34 0-.52-.07-.87-.08h-1c-.25 0-.7-.09-.87-.09h-4c.37.01.51.06.87.08z" class="bc65d32b-a153-4b3b-94b7-d42985eb89db" data-name="Tracé 3961" id="eb47bd29-433f-413f-851c-db30cb47e90f" fill="#ccc"/><path transform="translate(-6.24 -12.01)" d="M636.7 328.5l-.87-.09h1s-.83-.07-.88-.09h-2a1.84 1.84 0 00.41.05h-1.52c-.07 0 .83.06.87.08h2c.17 0 .68.08.87.09h1z" class="bc65d32b-a153-4b3b-94b7-d42985eb89db" data-name="Tracé 3962" id="ab5b28a5-aa2f-49e1-b7e6-48938effba59" fill="#ccc"/><path transform="translate(-6.24 -12.01)" d="M437.73 327.33l-1 .07.89.05c.36 0 .6-.06 1-.07z" class="bc65d32b-a153-4b3b-94b7-d42985eb89db" data-name="Tracé 3963" id="a1b0ae47-a0c6-47e3-9803-1c00b0c91366" fill="#ccc"/><path transform="translate(-6.24 -12.01)" d="M501.9 325.72l-.89-.06c-.29 0-.65.06-1 .06.22 0 .64.06.87.06z" class="bc65d32b-a153-4b3b-94b7-d42985eb89db" data-name="Tracé 3964" id="ba5c4a8b-e1eb-4bcf-8d0b-eb42dcf14895" fill="#ccc"/><path transform="translate(-6.24 -12.01)" d="M605.93 330.33c.3 0 .66-.07 1-.08h-.88l-.95.07z" class="bc65d32b-a153-4b3b-94b7-d42985eb89db" data-name="Tracé 3965" id="ae530a9b-be7c-425c-a0ee-25b8e499a12a" fill="#ccc"/><path transform="translate(-6.24 -12.01)" d="M631.64 328.51c-.27 0-.63-.06-.89-.05-.26.01-.6.07-1 .09h.87c.38.03.71-.04 1.02-.04z" class="bc65d32b-a153-4b3b-94b7-d42985eb89db" data-name="Tracé 3966" id="e26e5699-f35d-4f80-839b-3d88a78fae62" fill="#ccc"/><path transform="translate(-6.24 -12.01)" d="M574.52 326.57h1l-.88-.09a8.51 8.51 0 01-1 0c.17.01.62.08.88.09z" class="bc65d32b-a153-4b3b-94b7-d42985eb89db" data-name="Tracé 3967" id="bf0b0787-a40c-4d66-85f0-9ee722fd5590" fill="#ccc"/><path transform="translate(-6.24 -12.01)" d="M621.24 327.84h-1l.87.1h1c-.19 0-.66-.09-.87-.1z" class="bc65d32b-a153-4b3b-94b7-d42985eb89db" data-name="Tracé 3968" id="a764e7a8-42b5-4ba8-b4d4-0717645d96d3" fill="#ccc"/><path transform="translate(-6.24 -12.01)" d="M572.63 326.52h1c-.3 0-.57-.07-.87-.08h-1c.24.01.62.08.87.08z" class="bc65d32b-a153-4b3b-94b7-d42985eb89db" data-name="Tracé 3969" id="b6677168-676c-45cc-921a-a1bea1b8ce01" fill="#ccc"/><path transform="translate(-6.24 -12.01)" d="M613.72 327.87s.82.08.87.1h1s-.94-.08-.87-.09c.07-.01-.99-.02-1-.01z" class="bc65d32b-a153-4b3b-94b7-d42985eb89db" data-name="Tracé 3970" id="b783b58d-f870-4878-a706-7f5b7e248c7f" fill="#ccc"/><path transform="translate(-6.24 -12.01)" d="M612.67 328.07h-1s.91.07.87.09h-1c-.16 0-.76-.07-.87-.08l-.87-.09h-1.56l.47.05h-1c.3 0 .56.08.87.09a8.51 8.51 0 011 0l.87.09h-1.93l.88.08h2c.3 0 .57.08.87.09.3.01.57.07.87.09.3.02.71-.05 1 0a6.25 6.25 0 00.87.09h1c.35 0 .62.08.87.09h1l-.87-.08H619c.08 0-.88-.07-.87-.09.01-.02 1 0 1 0s-.82-.07-.87-.09c-.05-.02 1 0 1 0s-.78-.07-.87-.09h-1c-.22 0-.67-.08-.87-.09l-.87-.09a8.27 8.27 0 01-.87-.08h-1z" class="bc65d32b-a153-4b3b-94b7-d42985eb89db" data-name="Tracé 3971" id="a407c486-5c00-4f13-9b30-cddfb0cee962" fill="#ccc"/><path transform="translate(-6.24 -12.01)" d="M628.84 328.64c.35 0 .61-.08 1-.09-.25 0-.62-.05-.88-.05s-.65.07-.95.08c.21 0 .58.07.83.06z" class="bc65d32b-a153-4b3b-94b7-d42985eb89db" data-name="Tracé 3972" id="a88a18be-05e7-49b1-9d24-81f253d2360e" fill="#ccc"/><path transform="translate(-6.24 -12.01)" d="M606.94 328.13h-1l.87.09h1c-.29-.02-.5-.08-.87-.09z" class="bc65d32b-a153-4b3b-94b7-d42985eb89db" data-name="Tracé 3973" id="bf0e4686-1d44-4099-97ba-f923dafb19b0" fill="#ccc"/><path transform="translate(-6.24 -12.01)" d="M631.8 328.79h1c.12 0-.88-.07-.87-.09.01-.02-.94 0-1 0l.46.05a1.84 1.84 0 01.41.04z" class="bc65d32b-a153-4b3b-94b7-d42985eb89db" data-name="Tracé 3974" id="feceb563-3f0e-4f3c-876d-62f1e9dda7ec" fill="#ccc"/><path transform="translate(-6.24 -12.01)" d="M629 328.77h-1l-.87-.1h-1l-.87-.08h-1s.88.07.87.09c-.01.02-1 0-1 0h.39l.48.06h1c.3 0 .56.08.87.09h3c-.3.01-.56-.06-.87-.06z" class="bc65d32b-a153-4b3b-94b7-d42985eb89db" data-name="Tracé 3975" id="b9dbcaa2-2793-4496-8831-1418eca36f4c" fill="#ccc"/><path transform="translate(-6.24 -12.01)" d="M627.26 328.58h-1l.87.1h1c.09-.02-.92-.08-.87-.1z" class="bc65d32b-a153-4b3b-94b7-d42985eb89db" data-name="Tracé 3976" id="adf35a11-3e14-4e57-91e0-bfb4fa7c699d" fill="#ccc"/><path transform="translate(-6.24 -12.01)" d="M389.87 329.34c.32 0 .54.08.87.09h1s-.8-.07-.87-.09z" class="bc65d32b-a153-4b3b-94b7-d42985eb89db" data-name="Tracé 3977" id="befeec13-9ad0-4630-ac12-9b378d48655e" fill="#ccc"/><path transform="translate(-6.24 -12.01)" d="M620.28 327.88h-.09l.87.09h-1c-.25 0-.62-.09-.87-.09h-1s-.88-.07-.87-.09c.01-.02 1 0 1 0l-.87-.08-.87-.09-.87-.09h-1s.82.06.87.08h-1c-.08 0-.78-.06-.87-.09-.09-.03-1 0-1 0h-1c-.15 0-.75-.07-.87-.08l-.89-.09h-1.51.46-3.85c-.3 0-.68-.08-.87-.09h-2l.87.09h.87s.8.06.87.09h-1c-.3 0-.57-.07-.87-.08l-1.92.07-.88-.08-.87-.09h1s-.92-.07-.87-.09h2s-.9-.07-.87-.08c.03-.01-.84-.07-.87-.09h-2.94l.87.08h.87c.05 0 .77.06.87.08h-2c-.35 0-.68-.08-.87-.09h-1l-1.75-.17h2l-.47-.06a1.41 1.41 0 01-.41 0h2s-.85-.06-.88-.08h-4.13l-.87-.09a5.68 5.68 0 01-1 0l-.87-.08-.87-.09h-2c-.34 0-.68-.08-.87-.08h-1c-.36 0-.57-.08-.87-.08h-1c-.16 0-.66-.06-.88-.08-.22-.02-.71-.08-.86-.08h-2c-.24 0-.6-.08-.87-.08h-1c-.29 0-.54-.09-.87-.09h-1c-.3 0-.57-.08-.88-.09a7.69 7.69 0 01-1 0 8.52 8.52 0 00-.87-.08 7.69 7.69 0 01-1 0 8.52 8.52 0 00-.87-.08h-1l-.87-.08h1l-.88-.08h-1l.87.08h-1c-.19 0-.7-.08-.87-.07h-2l-.87-.08c-.12 0-.71-.08-.87-.08h-2c-.21 0-.73-.06-.87-.07-.14-.01-.72-.08-.87-.08h-2c-.27 0-.58-.08-.87-.09-.29-.01-.72.07-1 .06-.28-.01-.54-.08-.87-.09h-1c-.35 0-.57-.08-.88-.08a5.68 5.68 0 01-1 0 8.5 8.5 0 00-.87-.07h-1c-.34 0-.59-.07-.87-.08-.28-.01-.66.05-1 .05-.34 0-.56-.07-.87-.08-.31-.01-.73 0-1 0s-.55-.07-.88-.08c-.33-.01-.67.05-1 .05-.33 0-.55-.07-.87-.07a5.13 5.13 0 01-1 0 5.1 5.1 0 00-.87-.07 5.13 5.13 0 01-1 0 8.5 8.5 0 00-.87-.07l-.88-.08c-.1 0-.9-.06-.88-.07h1s-.89-.05-.88-.07h1l-.87-.08h-1s.9.07.87.09c-.03.02-.94 0-1 0h.87l-.95.05-.88-.08-1 .05.87.08c-.2 0-.73.05-1 .05s-.61-.08-.87-.08a5.13 5.13 0 01-1 0c-.14-.06-.66 0-.87-.07a3.65 3.65 0 00-.87-.07l-1 .05c-.17 0-.74.05-1 .05s-.61-.07-.87-.07h-1c-.25 0-.54-.07-.87-.07h-1c-.32 0-.57-.07-.87-.07-.3 0-.66.06-1 .06-.34 0-.63-.07-.88-.07s-.63.05-1 .05-.58-.07-.88-.07c-.3 0-.73.06-1 .06l-.87-.07a4.44 4.44 0 001-.07l-.87-.06h-1s.93.07.87.08h-1c-.2 0-.71-.07-.88-.07l-1 .06-1 .06-.87-.07c-.16 0-.66-.06-.88-.06l-1 .06-1 .06c-.17 0-.69-.07-.88-.07-.19 0-.71.07-.95.06l-.89-.06c-.16 0-.74-.07-.87-.07l-1 .06a4.25 4.25 0 01-.87-.06 5.22 5.22 0 00-.88-.07l-.95.07.87.06c-.26 0-.7.06-1 .06-.3 0-.62-.06-.87-.06s-.82.07-1 .07c-.18 0-.67-.05-.88-.07-.21-.02-.71-.06-.87-.06-.16 0-.82.06-1 .07l-1 .06c-.23 0-.64-.07-.87-.06-.23.01-.66.06-1 .06-.34 0-.63-.06-.87-.06s-.8.07-1 .06l-.87-.06s1-.05.95-.06l-.87-.07-1 .08.88.05c-.27 0-.69.07-1 .07-.31 0-.57-.06-.87-.06-.3 0-.66.06-1 .07-.34.01-.6-.07-.88-.06-.28.01-.65.06-1 .06s-.71-.06-.87-.06c-.16 0-.73.05-1 .07-.27.02-.79.06-1 .06h-.87c-.31 0-.8.07-1 .06a6.36 6.36 0 01-.87-.06 3.72 3.72 0 00-.88-.05l-1 .06c-.14 0-.77.07-1 .07-.23 0-.6-.06-.88-.06s-.72.07-1 .07-.55-.06-.89-.06c-.34 0-.66.07-1 .07-.34 0-.56-.06-.87-.05-.31.01-.66.06-1 .06-.34 0-.57-.06-.87-.05-.3.01-.66.06-1 .06-.34 0-.56-.06-.88 0-.32.06-.65.06-.95.06a4.31 4.31 0 00-.88 0 5.21 5.21 0 01-1 .06h-.87c-.29 0-.65.07-1 .07s-.58-.06-.87-.06c-.29 0-.66.07-1 .07-.34 0-.56-.05-.87-.05-.31 0-.74.07-1 .07l-.88-.06s1 0 1-.07l-.87-.05-1 .07h.87l-.95.07a4.41 4.41 0 00-.89 0l-.95.06c-.2 0-.72.07-1 .07l-.87-.05-.87-.06-1 .07c-.17 0-.73.07-1 .07s-.62-.05-.87-.05-.72.07-1 .07-.55-.06-.88 0c-.33.06-.67.06-1 .07-.33.01-.56-.06-.88-.06-.32 0-.65.07-.95.07-.3 0-.63-.06-.88-.05-.25.01-.63.06-1 .07a6.31 6.31 0 00-.87 0 5.65 5.65 0 01-1 .07 6.36 6.36 0 01-.87-.06h-.88c-.18 0-.81.06-1 .07l-1 .07-.87-.05 1-.07c-.3 0-.56-.06-.87-.06l-1 .07.87.06c-.19 0-.75.07-1 .07s-.63-.06-.87-.06-.66.07-1 .08c-.34.01-.56-.06-.87-.06-.31 0-.72.08-1 .07a6.35 6.35 0 01-.87-.05l1-.07h.95a5.08 5.08 0 01-.87-.05c.06-.05.93-.05 1-.07a6.25 6.25 0 01-.87-.06l-1 .07-.95.08-.88-.06-.95.07-1 .08c-.13 0-.94 0-1 .07l.87.05c-.23 0-.71.07-1 .07-.29 0-.57-.06-.87-.05-.3.01-.66.07-1 .07-.34 0-.6-.06-.87-.05-.27.01-.65.07-1 .07s-.71-.06-.87 0l-1 .07c-.24 0-.81.07-1 .07l-.88-.05-.87-.05c-.31 0-.65.07-1 .07a4.22 4.22 0 00-.87 0 5.22 5.22 0 01-1 .08c-.35 0-.67.07-1 .07-.33 0-.63-.06-.87-.05-.24.01-.64.07-1 .07s-.58-.05-.87-.05c-.29 0-.72.07-1 .07h-.88c-.35 0-.56-.06-.87-.06-.31 0-.65.08-1 .08s-.65.07-1 .08a4.22 4.22 0 00-.87 0 5.65 5.65 0 01-1 .07c-.37 0-.63-.06-.87-.05-.24.01-.73.07-1 .07l-.89-.05 1-.07c-.32 0-.57-.07-.89-.06l-1 .08.87.05c-.19 0-.74.07-.95.07h-.88c-.25 0-.63.07-.95.07-.32 0-.59-.05-.89-.05l-1 .08h-.87s1-.06 1-.08h-.88l-1 .08h.46a1.48 1.48 0 01.42 0l-1 .07c-.29 0-.71.07-1 .07l-.87-.05h-.87l-1 .08-.88-.05a4.22 4.22 0 00-.87 0l-1 .07.87.05c-.29 0-.66.07-.95.07-.29 0-.57-.05-.88-.05-.31 0-.65.07-1 .08-.35.01-.58-.05-.88-.05-.3 0-.71.07-1 .07h-.87c-.13 0-.7-.05-.88-.05-.18 0-.82.07-.95.08l-1 .07h-.88c-.27 0-.71.07-.95.07s-.55-.05-.88-.05c-.33 0-.67.07-.95.08-.28.01-.58-.06-.89-.05-.31.01-.66.07-1 .07h-.87c-.24 0-.63.07-1 .08-.37.01-.59-.06-.87-.05-.28.01-.73.07-1 .07l-.88-.05 1-.07-.87-.05-1 .07h.87l-.95.08c-.19 0-.71-.06-.88-.05l-1 .07-.95.08h-1.75l-1 .07c-.24 0-.67.07-1 .08-.33.01-.68-.05-.87-.05-.19 0-.68.07-1 .08-.32.01-.57-.06-.87-.05-.3.01-.8.07-1 .07a5.32 5.32 0 01-.89-.05l-.87-.05-1 .08-1 .08c-.28 0-.59-.06-.87-.05-.28.01-.66.07-1 .07-.34 0-.56-.05-.87-.05-.31 0-.66.08-1 .08-.34 0-.57-.05-.87-.05h-1v-1.13c.3 0 .56.07.87.08h1c.3 0 .57.08.87.08h1c.3 0 .57.08.89.09a7.53 7.53 0 01.95 0 6.4 6.4 0 00.88.08 7.69 7.69 0 011 0 5.12 5.12 0 00.87.08h1l.87.09h-1l.88.08h1l-.87-.08h1c.19 0 .71.08.87.08h1.93l.87.08c.1 0 .77.09.88.09.11 0 .61.08.87.09h1l-.87-.08h1c.28 0 .56.07.87.08a7.69 7.69 0 011 0 8.52 8.52 0 00.87.08 7.69 7.69 0 011 0 6.4 6.4 0 00.87.08h1c.31 0 .56.08.87.08a5.13 5.13 0 011 0 5.12 5.12 0 00.87.08h1c.35 0 .61.08.86.09h1c.35 0 .57.07.87.08a7.69 7.69 0 011 0 5.12 5.12 0 00.87.08 7.85 7.85 0 011 0 5.12 5.12 0 00.87.08h1c.3 0 .57.08.87.09a7.85 7.85 0 011 0 6.4 6.4 0 00.88.08 7.53 7.53 0 01.95 0 6.54 6.54 0 00.88.08 5.13 5.13 0 011 0 8.46 8.46 0 00.88.08h-1s.93.07.87.08h-1c-.09 0 .88.06.87.08h-1l.87.08h1l-.87-.08h1s-.88-.06-.87-.08c.01-.02 1 0 1 0s-.77-.06-.87-.08a5.13 5.13 0 011 0 6.4 6.4 0 00.87.08 7.69 7.69 0 011 0 6.4 6.4 0 00.87.08 7.85 7.85 0 011 0 8.52 8.52 0 00.87.08c.13 0 .71.08.88.08H406c.24 0 .64.08.87.08a7.85 7.85 0 011 0 6.11 6.11 0 00.87.08 7.69 7.69 0 011 0l.87.09h-1l.87.08h1s-.93-.07-.87-.08h1.93c.25 0 .62.08.87.08h1l.87.08c.1 0 .89.07.87.08h-1c-.1 0-.71-.08-.88-.08h-1s.82.06.87.08c.05.02.88.06.87.08-.01.02-.89 0-1 .05.3 0 .57.07.88.08l1-.05-.87-.08h3c.13 0 .71.07.87.08a7.69 7.69 0 011 0 5.12 5.12 0 00.87.08c.34 0 .68-.05 1-.05.32 0 .56.07.87.08h-1l.89.08h1l-.88-.08a7.69 7.69 0 011 0 5.24 5.24 0 00.88.08 7.69 7.69 0 011 0 5.14 5.14 0 00.88.08c.29 0 .56.07.87.08a7.69 7.69 0 011 0 5.12 5.12 0 00.87.08h1l-.87-.09h1l.87.09c.1 0 .75.08.87.08h1c.18 0 .74-.05 1-.05s.62.08.89.08.56.07.87.08h1c.22 0 .68-.05 1-.05.32 0 .65.08.87.08a5.24 5.24 0 011 0 8.52 8.52 0 00.87.08c.19 0 .77.06.87.08h-1l.87.08H441a6.18 6.18 0 001-.05 5.13 5.13 0 011 0c.28 0 .67.08.87.08a5.24 5.24 0 011 0 5.14 5.14 0 00.88.07 7.69 7.69 0 011 0 5.12 5.12 0 00.87.08h1c.28 0 .56.08.87.08a7.69 7.69 0 011 0 5.12 5.12 0 00.87.08c.3 0 .66-.05 1-.05.34 0 .58.08.88.08a7.69 7.69 0 011 0 5.22 5.22 0 00.88.07 7.69 7.69 0 011 0 6.42 6.42 0 00.87.09l1-.06.87.09.87.08 1-.05-.87-.09a8.51 8.51 0 011 0 6.4 6.4 0 00.88.09c.3 0 .65-.06 1-.06s.58.08.88.09c.3.01.7-.06 1-.06l.88.09.88.08h2c.35 0 .68.07.87.07a5.79 5.79 0 011 0 5 5 0 00.87.07c.27 0 .56.07.87.08l1-.05a5.13 5.13 0 011 0c.32 0 .57.07.89.07h1l.87.08c.11 0 .73.07.87.07h1l1-.05c.17 0 .68.07.87.08.19.01.66 0 1 0 .34 0 .57.07.87.08a5.24 5.24 0 011 0 3.69 3.69 0 00.88.07c.3 0 .56.07.87.08l1-.05h1c.32 0 .65.07.88.07a7.69 7.69 0 011 0 6.38 6.38 0 00.87.07c.28 0 .66-.05 1-.05.34 0 .57.07.87.07h1l.88.07a6.11 6.11 0 00-1 .05l.87.08 1-.06-.87-.07h1c.34 0 .62.07.87.07s.66-.05 1-.05c.34 0 .56.07.87.08.31.01.72-.06 1-.06s.57.07.87.08c.3.01.66-.06 1 0 .34.06.63.07.87.07a5.24 5.24 0 011 0 4.3 4.3 0 00.88.07c.31 0 .72-.06 1-.05.28.01.6.07.87.07l1-.05c.11 0 .83-.06 1 0 .17.06.57.06.87.06h1c.37 0 .59.07.87.07s.65-.06 1-.06.62.07.87.07.62-.05 1-.05.59.06.88.07c.29.01.66-.06 1-.06.34 0 .57.06.88.07a4.48 4.48 0 00-1 .07c0 .06.82 0 .87.06.05.06-.95 0-1 .06-.05.06.83 0 .87.07.04.07-.94 0-1 0l.88.07 1-.06A4.34 4.34 0 01514 331c-.05-.06.95 0 1-.06.05-.06-.88 0-.87-.07.01-.07 1 0 1 0s-.83 0-.87-.08c.3 0 .64-.06 1 0s.7.07.87.07l1-.06c.15 0 .76-.06 1-.06l.87.06c.11 0 .72.07.87.07l1-.06c.13 0 .78-.06 1-.06.22 0 .58.06.89.06.31 0 .64-.06 1-.06s.57.07.86.07c.29 0 .67-.06 1-.06.33 0 .56.06.87.06.31 0 .72-.06 1-.06s.55.06.87.06c.32 0 .66-.06 1-.06.34 0 .63.06.87.06s.66-.07 1-.07c.34 0 .57.06.88.06.31 0 .73-.06 1-.06s.65.06.88.06c.23 0 .79-.05 1-.06l1-.07c.15 0 .75.06.87.06s.66.06.87.06c.21 0 .69-.06 1-.07.31-.01.71.07.87.06l1-.06 1-.07c.21 0 .72.05.87.06l.88.05c.18 0 .81-.05 1-.06.19-.01.66-.06 1-.07.34-.01.69.06.88.06.19 0 .65-.06 1-.07.35-.01.6.06.87.06s.66-.07 1-.07c.34 0 .56.05.87.05.31 0 .71-.07 1-.07l.87.06s-1 .05-1 .06l.87.06 1-.07h-.88l1-.07c.29 0 .7-.07 1-.07.3 0 .66.05.88.05.22 0 .79-.07.95-.07l.88.06h.87c.17 0 .83-.06 1-.07.17-.01.78-.07 1-.07.22 0 .58.05.87.05.29 0 .66-.07 1-.07.34 0 .57.06.87.05.3-.01.67-.07 1-.07.33 0 .56.06.88 0 .32-.06.71-.07 1-.07.29 0 .57.06.88.05.31-.01.66-.06 1-.07.34-.01.63.06.87.05.24-.01.66-.06 1-.07.34-.01.57.06.87 0 .3-.06.72-.07 1-.07s.63.06.87.05l1-.07c.13 0 .8-.08 1-.08l.87.05h.89c.28 0 .77-.07 1-.07.23 0 .58.05.87.05.29 0 .82-.06 1-.07l1-.08c.28 0 .57.06.87.05.3-.01.72-.07 1-.07s.57.05.87.05c.3 0 .66-.08 1-.08.34 0 .63.06.87.05.24-.01.67-.07 1-.08.33-.01.56.06.88 0 .32-.06.71-.07 1-.07.29 0 .55.05.88.05l-1 .07a5.08 5.08 0 01.87.05 7.45 7.45 0 01-.95.08h.87c.05 0 .87-.05 1-.07.13-.02-.89 0-.88-.05l1-.08h.89a4.3 4.3 0 001-.07c0-.07-.82 0-.87-.05l1-.08c.13 0 .79-.07 1-.07a6.31 6.31 0 00.87 0 6.33 6.33 0 011-.07h.87c.34 0 .58.06.88 0 .3-.06.72-.08 1-.08s.72.06.87.05l1-.08.95-.08h.88l.87.06h.89l1-.09-.87-.05c.28 0 .68-.07 1-.08.32-.01.63.06.87.05.24-.01.63-.07 1-.08h.87c.29 0 .66-.07 1-.08.34-.01.56.05.88.05.32 0 .72-.08 1-.08h.88c.34 0 .67-.07 1-.08.33-.01.56.05.87.05.31 0 .65-.07 1-.08a6.31 6.31 0 00.87 0 5.22 5.22 0 011-.07 6.32 6.32 0 00.87 0 6.22 6.22 0 011-.08c.31 0 .58.05.87.05.29 0 .66-.08 1-.08a6.61 6.61 0 00.89 0 6.77 6.77 0 011-.08h.87s-1 .07-1 .08l.88.05.95-.08h-.45a2.94 2.94 0 01-.42 0l1-.08c.2 0 .7-.07 1-.08.3-.01.64.05.88.05s.8-.09 1-.08c.2.01.66 0 .87 0a6.46 6.46 0 00.88 0 6.22 6.22 0 011-.08l1-.09h.88l-1 .09.87.05h-1l-1 .08-1 .08h-.88l-1 .08h.87l1-.08.87.05h.88c.16 0 .83-.07 1-.08l-.88-.05 1-.08c.13 0 .87-.05 1-.08a6.32 6.32 0 00-.87 0h1.83c.32 0 .65-.08 1-.09a6.46 6.46 0 00.88 0l1-.08h-.87l1-.09c.23 0 .68-.07 1-.08a6.46 6.46 0 00.88 0 6.77 6.77 0 011-.08h.87s-.94.07-1 .09c-.06.02.89 0 .88 0-.01 0-.89.06-1 .08-.11.02.88 0 .87 0h-.95l-1 .08a4.22 4.22 0 00.87 0 7 7 0 011-.08 4.22 4.22 0 00.87 0c.3 0 .8-.07 1-.08l1-.09h.08l1.93-.17h1.75s-.86.06-1 .09l-1 .08-1 .08-.52.05h.44c-.15 0-.78.08-1 .08h-.87c-.25 0-.63.08-1 .09-.37.01-.58 0-.87 0-.29 0-.81.09-1 .09l-.88-.05h-1.74c-.09 0-1 .06-1 .08 0 .02.93 0 .87 0l-1 .08a5.08 5.08 0 01.87 0h.87l-1 .08a4.31 4.31 0 00-.88 0 6.87 6.87 0 01-1 .08h-.87l-1 .08h1.75s-.91.06-1 .08c-.09.02.89 0 .88 0h-1l-1 .08a6.31 6.31 0 00-.87 0l-1 .08h-.87l.95-.08c-.17 0-.67-.05-.87-.05-.2 0-.72.08-1 .09-.28.01-.54-.05-.87-.05l-1 .08-1 .08h-1l.88.06c-.17 0-.77.08-1 .08-.23 0-.63-.05-.88-.05s-.82.09-1 .09l-.88-.05a4.22 4.22 0 00-.87 0l-1 .08h.88c-.32 0-.66.08-1 .08a4.31 4.31 0 00-.88 0c-.31 0-.63.07-.95.08h-.88a4.22 4.22 0 00-.87 0c-.32 0-.64.07-1 .08h-1.75l-1 .07.88.05c-.15 0-.78.08-1 .08l-.89-.05h-.87l-1 .08h-.87c-.25 0-.81.07-1 .08-.19.01-.71.07-1 .08-.29.01-.62-.06-.87-.05-.25.01-.59 0-.88 0l-1 .08c-.24 0-.69.07-1 .08h-.88c-.23 0-.81.08-.95.08h-.88s1-.06 1-.07a8.46 8.46 0 01-.87 0l-.88-.05h-.87c-.08 0-1 .06-1 .08h.87a4.39 4.39 0 01.89.05l-1 .07-1 .08-1 .08-.87-.05s.88-.06 1-.08l-1.75-.09a4.2 4.2 0 01-.87-.05h.08s.94-.06 1-.08c.06-.02-.83 0-.88-.05l-1 .08h-.08a4.29 4.29 0 01.88.05l-1 .08h-1 .87l-1 .08a4.31 4.31 0 00-.88 0c-.17.06-.73 0-1 .07l-1 .08-.87-.05-1 .08h-.87l1-.08H582c-.28 0-.66.08-1 .08-.34 0-.57-.06-.87-.05-.3.01-.66.08-1 .08a4.22 4.22 0 00-.87 0l-1 .07h.87l-1 .07c-.19 0-.7-.05-.87-.05-.17 0-.73.06-1 .08l-1 .07c-.23 0-.62-.05-.87-.05s-.66.07-1 .07h-.87c-.3 0-.67.07-1 .08-.33.01-.57-.06-.89 0-.32.06-.71.07-1 .07-.29 0-.56-.05-.88-.05a4.22 4.22 0 00-.87 0 7.75 7.75 0 01-1 .07c-.15 0-.68.06-1 .07-.32.01-.65-.05-.87-.05-.22 0-.65.06-1 .07-.35.01-.59-.06-.88-.05-.29.01-.65.07-1 .07s-.57-.06-.88-.05c-.31.01-.73.07-1 .07l-.87-.05h1l1-.07-.88-.05c-.25 0-.72.07-1 .07s-.54-.05-.87-.05l-1 .07-1 .07.87.05c-.25 0-.69.07-.95.07a4.31 4.31 0 00-.88 0l-1 .07-.87-.06 1-.06-.87-.06c-.22 0-.8.06-1 .07l-1 .07-1 .07c-.24 0-.66.06-1 .07-.34.01-.7-.06-.88-.06-.18 0-.67.07-1 .07h-.87c-.3 0-.66.06-1 .06-.34 0-.58-.05-.88-.05-.3 0-.79.07-1 .06l-.87-.05s1-.05 1-.07l-.88-.06-1 .07c-.2 0-.71-.05-.88-.06l-1 .07.88.06c.32 0 .63-.07 1-.07l.87.06h-1c-.13 0-.8.07-1 .07-.2 0-.66-.06-.88-.06-.22 0-.64-.06-.88-.05l-1 .06-1 .07c-.28 0-.66-.06-.88-.06-.22 0-.73.07-1 .07l-.87-.06c-.11 0-.74-.07-.87-.06-.29 0-.59-.07-.88-.06l-1 .06.88.06c-.27 0-.7.06-1 .06-.3 0-.62-.06-.88-.06s-.62.06-1 .06-.58-.06-.87-.06c-.29 0-.65.06-1 .07-.35.01-.59-.06-.88-.06-.29 0-.71.06-1 .06-.29 0-.73-.07-.88-.06a7.46 7.46 0 00-.95.06h-1l-1.75-.12 1-.06 1-.06-.87-.06a5.79 5.79 0 01-1 0c-.32-.06-.73 0-.87-.06l-.87-.06a5.16 5.16 0 00-1 .06c0 .06.83 0 .87.06.04.06-.95 0-1 .06l.88.06c-.28 0-.69.06-1 .06-.31 0-.62-.07-.88-.06l-1 .06-.87-.07a5.16 5.16 0 001-.06l.51-.09a6.11 6.11 0 00-1 .05l-1 .06-1 .05c-.14 0-.78.06-1 .06-.22 0-.58-.07-.89-.07l-1 .05-.87-.07h1c-.17 0-.67-.07-.87-.07-.2 0-.72.06-1 .06s-.6-.07-.88-.07l-1 .05s.95.06.89.07l-1 .05c-.19 0-.71-.07-.88-.07l-.95.06c-.19 0-.72.06-1 .06l-.87-.08-.88-.08-1 .05c-.15 0-.76.07-1 .07s-.59-.08-.87-.09c-.28-.01-.66.07-1 .06-.34-.01-.56-.07-.87-.08-.31-.01-.66.07-1 .06-.34-.01-.57-.07-.88-.08-.31-.01-.66.07-1 .06-.34-.01-.57-.08-.88-.08-.31 0-.65.06-1 .06s-.57-.08-.87-.09c-.3-.01-.66.07-1 .06-.34-.01-.57-.08-.87-.08-.3 0-.66.06-1 .06-.34 0-.56-.08-.88-.09a5.68 5.68 0 01-1 0 5.1 5.1 0 00-.87-.07c-.3 0-.74.05-1 .05l-.87-.08h1l-.87-.08h-2l.88.07h-1c-.3 0-.76-.06-.87-.07h-.88 1c-.28 0-.56-.06-.87-.07-.31-.01-.71.05-1 .05-.29 0-.67-.08-.87-.08h-1.92l-1 .05-1 .05-.87-.08c-.21 0-.59-.06-.88-.07h-1c-.25 0-.56-.07-.87-.07-.31 0-.56-.07-.88-.08l-1 .05h-1c-.28 0-.6-.07-.87-.07a8.68 8.68 0 01-1 0 6.4 6.4 0 00-.88-.08c-.28 0-.65.05-.95.05-.3 0-.63-.08-.88-.08h-1c-.39 0-.58-.07-.88-.08-.3-.01-.7.05-1 .05l-.87-.08a6.18 6.18 0 001-.05 6.38 6.38 0 00-.87-.07 6.32 6.32 0 001-.06l-.89-.07h-.95s.88.06.87.08h-1l-1 .06c.34 0 .5.06.87.07l-1 .05c-.26 0-.62-.08-.87-.08l-1 .05-.86-.08h1c-.25 0-.59-.07-.88-.08a7.69 7.69 0 01-1 0 6.42 6.42 0 00-.87-.09 5.21 5.21 0 00-1 .06h-2c-.3 0-.57-.08-.87-.08a8.68 8.68 0 01-1 0 6.42 6.42 0 00-.87-.09c-.34 0-.72.06-1 .06l-.88-.09-.87-.08-1 .05h-1c-.29 0-.67-.07-.87-.08a8.51 8.51 0 01-1 0 8.47 8.47 0 00-.88-.07c-.21 0-.67-.08-.87-.08h-1l.88.08h-1c-.3 0-.68-.07-.88-.08l-.87-.08c-.15 0-.67-.07-.87-.07-.2 0-.56-.08-.88-.08h-2.93c-.3 0-.65-.08-.88-.08a8.51 8.51 0 01-1 0 6.4 6.4 0 00-.87-.08 8.51 8.51 0 01-1 0 6.69 6.69 0 00-.88-.08l-1 .05h-1l.58.76h1c-.29 0-.58-.08-.87-.08h-1.61c-.12 0-.72-.08-.87-.09l-1 .06h-1c-.13 0-.78-.08-.87-.09-.09-.01-.6-.07-.88-.08h-1c-.2 0-.56-.07-.87-.08-.31-.01-.57-.07-.88-.08h-2c-.29 0-.65-.07-.87-.08h-1l-.88-.08h1c-.32 0-.57-.07-.89-.08h-3c-.25 0-.6-.08-.87-.08a7.69 7.69 0 01-1 0l-.87-.08c-.13 0-.7-.08-.87-.08h-1l.87.08a7.85 7.85 0 01-1 0 5 5 0 00-.87-.08h-1l-.87-.08h1c-.3 0-.58-.09-.88-.09h-2.53c-.26 0-.64-.08-.87-.08a5.13 5.13 0 01-1 0 6.4 6.4 0 00-.87-.08 7.85 7.85 0 01-1 0 8.52 8.52 0 00-.87-.08 7.69 7.69 0 01-1 0 8.52 8.52 0 00-.87-.08l-.87-.08-.89-.08h-1c-.3 0-.74-.09-.87-.08h-1l.87.08h-1c-.3 0-.56-.08-.88-.08-.32 0-.56-.08-.87-.09h-2c-.27 0-.65-.07-.87-.08a8.51 8.51 0 01-1 0 6.42 6.42 0 00-.87-.09c-.3 0-.58-.07-.87-.08h-1a5.13 5.13 0 01-1 0 6.4 6.4 0 00-.87-.08h-1c-.32 0-.63-.08-.88-.08h-1c-.13 0-.66-.06-.87-.08l-.88-.08h.09c-.14 0-.69-.08-.87-.08h-1l-.88-.08h-1l.87.08h1c.13 0 .79.07.87.08h-.15s.78.06.89.08c.11.02-.95 0-1 0l-.87-.08c-.11 0-.71-.08-.87-.08h-1.92c-.3 0-.68-.08-.87-.09-.19-.01-.57-.07-.88-.08h-1.93c-.27 0-.65-.08-.87-.08h-1l-.88-.1-.88-.08h-1.92l-.87-.08h1c-.3 0-.57-.08-.87-.08h-.17v-1l.78-.06h-.78V327.4c.21 0 .7-.08.87-.08a4.22 4.22 0 00.87 0c.32 0 .64-.06 1-.07l1-.08h1.75l.87.05.87.06 1-.09 1-.07 1-.08 1-.07h.87a4.31 4.31 0 00.88 0 6.77 6.77 0 011-.07l1-.08a5.14 5.14 0 01.88.05h1.75c.2 0 .8-.08 1-.07a8.65 8.65 0 01.88.05 2.54 2.54 0 00.87 0l1-.07-.88-.05c.32 0 .66-.07 1-.07h.88c.3 0 .56.05.87.05.31 0 .7-.08 1-.08h.87c.3 0 .72-.07 1-.07h.87l1-.08 1-.07 1-.08c.28 0 .58.06.87 0 .29-.06.8-.07 1-.07a5.2 5.2 0 01.88.05 6.35 6.35 0 00.87.05c.18 0 .84-.07 1-.08l1-.07h.87c.26 0 .66-.08 1-.08.34 0 .57.06.87.06.3 0 .66-.08 1-.09.34-.01.61.07.88.06.27-.01.81-.07.95-.08.14-.01.78-.07 1-.07l.87.05-1 .08c.15 0 .69.05.87.05.18 0 .72-.07 1-.07s.54.05.87.05c.33 0 .67-.07 1-.08.33-.01.57.06.87.06.3 0 .66-.07 1-.08.34-.01.73.06.89.05l.95-.07-.87-.06c.31 0 .65-.07 1-.07a5 5 0 01.87.05l.88.06 1-.09.95-.07.88.05-1 .09c.27 0 .59.05.87.05l1-.08-.87-.06c.2 0 .74-.07 1-.07s.63.06.88.05c.25-.01.82-.07 1-.07h.87c.2 0 .7.05.88.05l.95-.07-.87-.05c.32 0 .65-.07 1-.08l.87.05.88.06c.2 0 .73-.07 1-.08.27-.01.58.06.87.06.29 0 .65-.07 1-.08.35-.01.7.06.87.06l1-.08 1-.07h.87l-.95.07c.11 0 .71.06.87.06l1-.08 1-.07c.22 0 .73.05.88.05l.87.06c-.3 0-.65.06-1 .07-.35.01-.62-.06-.87 0l-1 .07.87.06c.32 0 .66-.08 1-.08.34 0 .58.06.88.06.3 0 .65-.07 1-.08a4.33 4.33 0 01-.88-.05h1c.22 0 .68-.06 1-.07l.87.05 1-.07c.15 0 .78-.07 1-.07h.89c.12 0 .7.06.87.06.17 0 .83-.06 1-.07l1-.08c.16 0 .68.06.87.06.19 0 .64-.07 1-.07s.6.05.87.05.66-.07 1-.07h.87c.3 0 .78-.07 1-.07h.01s-1 .06-1 .07l.88.06 1-.08a4.24 4.24 0 01-.87-.05l.95-.07.88.05c.17 0 .81-.06.95-.07l1-.07.87.06h.87l.88.06h.87c.17 0 .82-.06 1-.07l1-.07 1-.07c.21 0 .68-.06.95-.07l.89.05c.12 0 .7.06.87.06l1-.07 1-.07a4.24 4.24 0 01.87.05l.89.06c.18 0 .65.05.87.05.22 0 .8-.07 1-.07l.87.06.88.05.95-.07h-.87c.18 0 .75-.07 1-.07h.88l.88.06.95-.07a5.08 5.08 0 01-.87-.05 5.17 5.17 0 011-.07l.88.05c.25 0 .72-.07 1-.07l.88.06s-1 .05-1 .07c0 .02.7 0 .87.05l.88.06.87.05a5.65 5.65 0 001-.06h-.88c-.09 0-.89-.05-.87-.06l1-.06 1-.07a4.25 4.25 0 01.87.06c0 .06-.89 0-1 .06.3 0 .58.06.89.06l1-.07h-.88c.29 0 .67-.07 1-.07l.87.05c.14 0 .7.06.88.06.18 0 .83-.06 1-.07.17-.01.73-.06 1-.06s.62.05.88.05.66-.06 1-.06c.34 0 .57.05.87.05.3 0 .65-.06 1-.07.35-.01.61.06.88.06s.81 0 .95-.06c.14-.06.79-.07 1-.07l.89.06-1 .06c.32 0 .58.06.88.06a5.21 5.21 0 001-.06l1-.07c.15 0 .76-.06 1-.06l.87.06.88.05c.12 0 .71.06.88.06l1-.06.95-.07 1-.06c.18 0 .73.05.87.05l.87.06c.24 0 .59.06.87.07.28.01.71-.07 1-.07.29 0 .67.07.88.06.37 0 .6-.05 1-.06.4-.01.61.06.88.06s.83-.05 1-.06h1l-.88-.06c.32 0 .66-.07 1-.07.34 0 .74.06.89.06.15 0 .57.06.87.07.3.01.76-.07 1-.07s.74.06.87.06l.88.07 1-.06 1-.06 1-.06.87.06-1 .06c.3 0 .57.07.87.07.3 0 .82-.05 1-.06.18-.01.64-.05 1-.06.36-.01.7-.06 1-.06.3 0 .63.07.87.07s.67-.06 1-.06c.33 0 .76.05.89.06l.87.07c.22 0 .61.06.87.07.26.01.68-.06 1-.06.32 0 .57.07.87.07.3 0 .66-.06 1 0 .34.06.67.07.89.06l1-.05s-.94-.05-.88-.07l1-.05.88.07c.3 0 .65-.06 1-.06l.87.07-1 .05c.3 0 .58.07.87.07a5.21 5.21 0 001-.05h1c.2 0 .7-.05 1-.05.3 0 .65.07.89.07s.67-.05 1-.05c.33 0 .56.07.88.07h1c.37 0 .57.07.87.08l1-.06.87.08a6.31 6.31 0 00-1 .05l.89.07h1l1-.05h1c.18 0 .67.07.88.08.21.01.71-.06 1-.05.29.01.79.06.87.07l-1 .05.87.08h2a8.68 8.68 0 011 0 4.3 4.3 0 00.88.07c.24 0 .66-.05.95-.05.29 0 .63.08.88.08l1-.05.87.08h-1l.88.09h1.92l.87.08h1l-.87-.07c.32 0 .65-.06 1-.06s.56.08.87.09c.31.01.56.07.87.08l1-.05h-.08l.87.08h1l1-.05h1a5.13 5.13 0 011 0c.23.05.78.07.87.08l.88.08h1c.31 0 .57.07.87.08h1c.33 0 .57.07.86.08a8.68 8.68 0 011 0 8.52 8.52 0 00.87.08h2c.3 0 .68.08.87.08h1c.31 0 .6.08.87.08h-1c.3 0 .56.08.88.08h.95c.23 0 .55.08.88.09a7.69 7.69 0 011 0 5.14 5.14 0 00.88.08h2.93c.23 0 .61.07.88.08a8.51 8.51 0 011 0 6.42 6.42 0 00.87.09c.32 0 .57.07.88.08h2l.88.08h-1s.76.08.87.08a5.13 5.13 0 011 0 5.12 5.12 0 00.87.08l1.74.17h1.93l-.87-.08h-1a6.42 6.42 0 01-.87-.09l-.87-.08h1c.3 0 .56.07.87.09.31.02.66 0 1 0 .34 0 .57.07.87.08.3.01.66 0 1 0 .34 0 .58.07.87.09.29.02.71-.05 1 0 .29.05.73.07.86.08l.88.09a7.69 7.69 0 011 0 5.12 5.12 0 00.87.08h2c.29 0 .58.09.87.09h1c.22 0 .66.06.88.08l.88.09h2.93l.87.08h-1l.87.08.87.09.87.08 1.92-.07h1c.17 0 .68.08.87.08h1l.87.09h-1l.88.09h1s-.82-.06-.87-.08a8.68 8.68 0 011 0 8.42 8.42 0 00.86.09 8.51 8.51 0 011 0l.87.09c.18 0 .62.08.87.09.25.01.55.08.87.09h1c-1.1.11-2.47-.81-2.19-.81zm-.08 1.5l-1 .08h-.08l1-.08h.08c.13 0 .87-.07 1-.09.13-.02-.89 0-.87 0 .02 0 .88-.06 1-.08a6.32 6.32 0 00-.87 0c-.13 0-.85.07-1 .08l-1 .09zm-40.23.43h.88l.87.05c.16 0 .83-.07 1-.08l1-.07c.1 0 .91-.06 1-.08.09-.02-.77 0-.87 0l-.87-.05-1 .08-1 .07zm.62.43s-.94.06-1 .08c-.06.02.84 0 .89 0 .34 0 .6-.07 1-.08.4-.01.62.05.87.05s.65-.07 1-.08a4.22 4.22 0 00-.87 0 7.75 7.75 0 01-1 .07 5.14 5.14 0 01-.88 0 6.2 6.2 0 011-.07 8.46 8.46 0 01-.87-.05 3.85 3.85 0 00-1 .07s.88 0 .88.06zm-25.79.41a4.25 4.25 0 01.87.06c.36 0 .61-.06 1-.07a4.22 4.22 0 00.87 0 7 7 0 011-.07h-.87s.9-.05 1-.07a6 6 0 001-.07l-.87-.05c-.3 0-.65.06-1 .07-.35.01-.57-.06-.87-.06l-1 .07h.87l.89.05-1 .07c-.32 0-.53-.06-.88-.06z" class="bc65d32b-a153-4b3b-94b7-d42985eb89db" data-name="Tracé 3978" id="e5bb6167-50f8-4cc6-9705-3610dbd797f4" fill="#ccc"/><path transform="translate(-6.24 -12.01)" d="M629.87 328.85l.87.09h2a1.92 1.92 0 00-.41-.05h-1.42z" class="bc65d32b-a153-4b3b-94b7-d42985eb89db" data-name="Tracé 3979" id="aaacb08d-c47a-4467-9dbd-ae5b106c0208" fill="#ccc"/><path transform="translate(-6.24 -12.01)" d="M628.22 328.55l-.87-.09h-.87 1c-.16 0-.62-.06-.87-.09l-.87-.08a6.56 6.56 0 01-.88-.09h1s-.94-.07-.87-.08h1l.87.09h1l-1.74-.18-1.94.07h-2c.32 0 .58.07.87.08l.87.09h-1.15c.22 0 .6.08.88.09h1l.87.09h-1c-.25 0-.61-.08-.87-.09h-2.94s.83.07.89.09h2c.12 0 .71.08.87.09h2l.46.05h.41s.88-.02.88-.04z" class="bc65d32b-a153-4b3b-94b7-d42985eb89db" data-name="Tracé 3980" id="fb60c7eb-72d1-47c9-a9a7-db51e67a0880" fill="#ccc"/><path transform="translate(-6.24 -12.01)" d="M588.36 329.5c.3 0 .66-.06 1-.07h-.87c-.25 0-.68.07-1 .08a5.06 5.06 0 01.87-.01z" class="bc65d32b-a153-4b3b-94b7-d42985eb89db" data-name="Tracé 3981" id="aa158b7a-481d-4978-932a-9c1f10562b37" fill="#ccc"/><path transform="translate(-6.24 -12.01)" d="M632 328.54h-1 1z" class="bc65d32b-a153-4b3b-94b7-d42985eb89db" data-name="Tracé 3982" id="bc08f692-33d8-43a2-a53e-5a7e90840679" fill="#ccc"/><path transform="translate(-6.24 -12.01)" d="M636.8 328.89l-1 .09h.88l1.76.08c-.37 0-.6.07-1 .09h.87l1-.09 1-.08c.07 0 .94-.06 1-.08h-.89l-1 .08h-.87l1-.09h-.88l-1 .09a5.7 5.7 0 00-.87-.09z" class="bc65d32b-a153-4b3b-94b7-d42985eb89db" data-name="Tracé 3983" id="b6f57dd0-5ecd-4c55-b21e-02f65c013c82" fill="#ccc"/><path transform="translate(-6.24 -12.01)" d="M634.8 329.18l1-.08h-.87c-.25 0-.77.07-1 .08l-1.93.17-1 .08h.87l-1 .09.88.05.95-.09 1-.09a4.31 4.31 0 00.88 0l.95-.08h-.87l1-.08z" class="bc65d32b-a153-4b3b-94b7-d42985eb89db" data-name="Tracé 3984" id="bb268f13-97b0-49e7-8424-d2accf524b18" fill="#ccc"/><path transform="translate(-6.24 -12.01)" d="M636.63 329.14c-.25 0-.71.09-1 .09h.87c.17 0 .65-.08 1-.08a6.48 6.48 0 01-.87-.01z" class="bc65d32b-a153-4b3b-94b7-d42985eb89db" data-name="Tracé 3985" id="ae00ffc4-8cc9-43ea-afec-c3c7f1da4a9d" fill="#ccc"/><path transform="translate(-6.24 -12.01)" d="M641.07 329c-.19 0-.71-.08-.87-.08h-2s.88.07.87.09h1c.4 0 .59.07.87.08h2c-.35 0-.52-.07-.87-.09-.23-.09-.79 0-1 0z" class="bc65d32b-a153-4b3b-94b7-d42985eb89db" data-name="Tracé 3986" id="efbccd0c-ec03-4ee3-8d36-1dd419f341ae" fill="#ccc"/><path transform="translate(-6.24 -12.01)" d="M638.18 329.08h-1c-.06 0 .82.07.87.09h2s-.83-.07-.87-.09c-.04-.02-.93 0-1 0z" class="bc65d32b-a153-4b3b-94b7-d42985eb89db" data-name="Tracé 3987" id="b22ab02e-2305-41f1-8504-5389c05b786c" fill="#ccc"/><path transform="translate(-6.24 -12.01)" d="M641.39 328.58h1s-.78-.07-.87-.09h-1a6.42 6.42 0 00.87.09z" class="bc65d32b-a153-4b3b-94b7-d42985eb89db" data-name="Tracé 3988" id="be0cb4e6-0b23-4ea4-89fa-77700914b8e9" fill="#ccc"/><path transform="translate(-6.24 -12.01)" d="M639.69 328.29c-.27 0-.6-.08-.88-.09h-.95l.87.09c.27.04.7-.01.96 0z" class="bc65d32b-a153-4b3b-94b7-d42985eb89db" data-name="Tracé 3989" id="afe7a297-d37b-4bb8-89c5-ef6dff3d8ecc" fill="#ccc"/><path transform="translate(-6.24 -12.01)" d="M640.56 328.38h1.5l-.48-.05-.87-.09a5.24 5.24 0 01-1 0 8.27 8.27 0 00.85.14z" class="bc65d32b-a153-4b3b-94b7-d42985eb89db" data-name="Tracé 3990" id="be63f30e-ffb1-4c7a-8b2d-109775273054" fill="#ccc"/><path transform="translate(-6.24 -12.01)" d="M494.55 97.46c1.43-.65 2.58-1.73 4.05-2.37.44-.2 3.63-1.25 3.8-1 .48.59 1.1 1.14 1.66 1.7.67.72 1.27 1 1 1.86a10 10 0 01-1.75 2.7 20.39 20.39 0 01-4.7 4.57c-.06 0-.46-.27-.42-.32a13 13 0 002-2.52c-.74.62-2.16 2.09-3 2.67a4.55 4.55 0 01-.93-.48 19.47 19.47 0 002.76-3c-.77.69-1.17.87-3.34 2.86a3.8 3.8 0 01-.84-.58c.77-.91 2.33-2.29 3-3.31a26.63 26.63 0 00-3.3 2.7c-.3.26-.66-.5-.65-.6.05-.39 3.76-3.9 4.51-5.24a9.28 9.28 0 01-3.68 1c.05-.1-.14-.54-.17-.64z" class="e581e44d-6e98-4235-a316-eee4b33b2ead" data-name="Tracé 3991" id="a5461b8c-4b0c-4353-876b-c159072166b2" fill="#fc9" fill-rule="evenodd"/><path transform="translate(-6.24 -12.01)" d="M535.12 143.4c-1.34-3.15-3.44-6.39-6.6-8-2.84-1.43-7.1-.85-8.86 2-1.45 2.38-.4 5.58.52 7.95 1.55 4.06 3.8 7.77 5.43 11.77a.09.09 0 000 .07.28.28 0 00.32.11l11.69-2.8a.33.33 0 00.25-.32 36.39 36.39 0 00-2.75-10.85z" class="a5611a68-2874-4906-b645-fe63dbb9ed43" data-name="Tracé 3994" id="f937e9f1-7d70-4705-ba20-206411f0a618" fill="#6acef0"/><path transform="translate(-6.24 -12.01)" d="M544.37 137.2a128 128 0 01-7.81 11.52c-1.86 2.41-3.28 3.82-6.5 3.09-7.14-1.62-5.29-9.06-4-14.64a156.63 156.63 0 019.12-28.37c3.24-7.26 5.82-14.34 10.32-20.8 3.59-5.15 12.46-12.63 17.35-5.22 3.93 5.93-.92 17.62-3 23.69-3.78 11.06-9.46 21.08-15.48 30.73z" data-name="Tracé 3996" id="f74fd871-6e8e-4691-bc96-61aa21ce0232" fill="#6acef0" fill-rule="evenodd"/><path transform="translate(-6.24 -12.01)" d="M544.34 137.8c-.05.09-.08.2-.12.28a1.2 1.2 0 01.17-.21l-.13.27.17-.21c.05-.08.08-.19.14-.27a1.23 1.23 0 00.12-.26s-.14.17-.17.2z" class="a1ce16d1-16e4-48da-984a-a081faf39faf" data-name="Tracé 3997" id="b8785c4a-162d-49e7-bad9-051861e6d468" fill="#00a1d9"/><path transform="translate(-6.24 -12.01)" d="M547.9 131.63s.16-.21.17-.21c.01 0-.12.25-.12.28a.82.82 0 00.16-.22 1.23 1.23 0 00.12-.26l.13-.27s.12-.26.12-.28l-.16.21-.18.22-.12.27z" class="a1ce16d1-16e4-48da-984a-a081faf39faf" data-name="Tracé 3998" id="faf05391-abca-4b70-ad2e-d0c3ca7d9922" fill="#00a1d9"/><path transform="translate(-6.24 -12.01)" d="M546.65 133.44a.71.71 0 01-.13.26l-.16.21c-.05.09-.09.18-.13.27l-.12.26-.13.27-.13.27c.06-.08.11-.11.17-.2a2.41 2.41 0 00.14-.28c0-.06.14-.16.16-.2.02-.04.09-.18.13-.27l.12-.26.12-.28.13-.26a1.2 1.2 0 00-.17.21z" class="a1ce16d1-16e4-48da-984a-a081faf39faf" data-name="Tracé 3999" id="aa082872-29df-4740-acfa-826000cb6b34" fill="#00a1d9"/><path transform="translate(-6.24 -12.01)" d="M545.3 135.54l.17-.2a1.59 1.59 0 00-.12.27 2.46 2.46 0 00.17-.22l.12-.26.12-.26s-.16.21-.16.2c0-.01.12-.24.12-.26 0-.02.13-.27.12-.28-.01-.01-.15.2-.17.21l-.12.27-.12.27c-.06.07-.12.13-.17.2l-.13.26z" class="a1ce16d1-16e4-48da-984a-a081faf39faf" data-name="Tracé 4000" id="be13eeda-7361-4a7e-97a1-6b8a0637125f" fill="#00a1d9"/><path transform="translate(-6.24 -12.01)" d="M560.33 80.62a2.67 2.67 0 00-.26-.09l.2.15.25.11z" class="a1ce16d1-16e4-48da-984a-a081faf39faf" data-name="Tracé 4001" id="e2775203-3bf7-449d-b8a5-01fb29d4460c" fill="#00a1d9"/><path transform="translate(-6.24 -12.01)" d="M562.88 98.5a2.56 2.56 0 01.11-.24.61.61 0 010-.3c0 .07-.09.17-.11.25z" class="a1ce16d1-16e4-48da-984a-a081faf39faf" data-name="Tracé 4002" id="be53048b-c096-4f24-92b5-4a1e153d4b21" fill="#00a1d9"/><path transform="translate(-6.24 -12.01)" d="M538.57 146.9c.06-.08.09-.18.15-.26l-.19.2-.15.25z" class="a1ce16d1-16e4-48da-984a-a081faf39faf" data-name="Tracé 4003" id="ff71854d-a51f-4488-aa53-48a051ec33ca" fill="#00a1d9"/><path transform="translate(-6.24 -12.01)" d="M542.39 140l-.18.2c0 .06-.07.18-.12.27l.17-.2a1.66 1.66 0 00.13-.27z" class="a1ce16d1-16e4-48da-984a-a081faf39faf" data-name="Tracé 4004" id="a0369c13-9c6a-4fab-8235-31929aa9e63f" fill="#00a1d9"/><path transform="translate(-6.24 -12.01)" d="M554.78 119.1c0 .09-.07.19-.1.28l.15-.22a1.31 1.31 0 01.09-.28c.08-.07-.11.12-.14.22z" class="a1ce16d1-16e4-48da-984a-a081faf39faf" data-name="Tracé 4005" id="e538e92c-07d4-4938-b801-26a04622571a" fill="#00a1d9"/><path transform="translate(-6.24 -12.01)" d="M547.86 131.58c0-.08.07-.19.12-.27l-.17.21a.83.83 0 01-.12.27 1.43 1.43 0 00.17-.21z" class="a1ce16d1-16e4-48da-984a-a081faf39faf" data-name="Tracé 4006" id="b13e2127-5845-4c17-a088-6a039622f0a2" fill="#00a1d9"/><path transform="translate(-6.24 -12.01)" d="M555 118.6a.73.73 0 01-.1.28c0-.08.11-.14.15-.23a1.33 1.33 0 00.1-.28c-.01.07-.09.16-.15.23z" class="a1ce16d1-16e4-48da-984a-a081faf39faf" data-name="Tracé 4007" id="f6eae80d-282f-4222-ae26-a548c5104f0b" fill="#00a1d9"/><path transform="translate(-6.24 -12.01)" d="M548.9 129.54l-.16.21a1.59 1.59 0 01-.12.27l.17-.21a1 1 0 00.11-.27z" class="a1ce16d1-16e4-48da-984a-a081faf39faf" data-name="Tracé 4008" id="ac544e1c-0924-47b8-a258-2b7a19ecc374" fill="#00a1d9"/><path transform="translate(-6.24 -12.01)" d="M549 129.21a1.59 1.59 0 00.12-.27l-.16.21.11-.27.17-.22.17-.21.11-.26c0-.07.11-.23.12-.28a1.77 1.77 0 00-.16.22 2.33 2.33 0 00.11-.28s-.11.14-.16.22c-.05.08-.08.19-.13.27a1.66 1.66 0 01-.16.21l.12-.27a1.53 1.53 0 00.11-.27l-.16.21-.11.27s-.09.23-.12.28a1.66 1.66 0 00-.16.21c0 .08-.12.13-.16.21-.04.08-.09.2-.13.27a1.16 1.16 0 00-.16.21c0 .08-.07.19-.12.27-.05.08-.12.14-.16.22a1.23 1.23 0 00-.12.26l.16-.21-.12.27s-.12.24-.12.26l.17-.2c0 .09-.09.18-.13.27a2.38 2.38 0 00.18-.22s-.14.27-.13.28l.17-.22.12-.26c0-.06.13-.16.16-.21l.17-.22.16-.21.13-.27z" class="a1ce16d1-16e4-48da-984a-a081faf39faf" data-name="Tracé 4009" id="ea2b5d91-d41f-4936-991c-ff92049f9d87" fill="#00a1d9"/><path transform="translate(-6.24 -12.01)" d="M542 140.74c0-.09.07-.17.13-.26 0 .06-.13.14-.18.2-.05.06-.08.18-.13.26a1.12 1.12 0 00.18-.2z" class="a1ce16d1-16e4-48da-984a-a081faf39faf" data-name="Tracé 4010" id="b9ba300f-c117-4f13-bc3b-039bccf82aa0" fill="#00a1d9"/><path transform="translate(-6.24 -12.01)" d="M549.72 127.64a1.36 1.36 0 00.11-.28l-.15.22s-.11.26-.12.27a1.46 1.46 0 00.16-.21z" class="a1ce16d1-16e4-48da-984a-a081faf39faf" data-name="Tracé 4011" id="afb65b6a-379d-4516-b3e4-30c66bd8ed37" fill="#00a1d9"/><path transform="translate(-6.24 -12.01)" d="M545.87 134.15l-.12.27s.16-.22.17-.21a.91.91 0 00.13-.26s-.18.22-.18.2z" class="a1ce16d1-16e4-48da-984a-a081faf39faf" data-name="Tracé 4012" id="f4295b72-c14c-4a31-8c3d-7ec21e18377c" fill="#00a1d9"/><path transform="translate(-6.24 -12.01)" d="M546.3 133.41a.77.77 0 01.12-.28c0-.07.15-.18.16-.2.01-.02.12-.24.13-.27l.17-.2.12-.27s-.16.22-.16.21c0-.01.12-.26.12-.28a1.84 1.84 0 00-.17.22l-.13.27c0 .07-.12.13-.17.2l-.12.28-.12.26-.12.26c.02-.09.12-.09.17-.2z" class="a1ce16d1-16e4-48da-984a-a081faf39faf" data-name="Tracé 4013" id="ae4c5a5d-84c5-4018-939c-fba3a67c9e4b" fill="#00a1d9"/><path transform="translate(-6.24 -12.01)" d="M546.63 133a1.59 1.59 0 00.12-.27l-.17.21s-.1.23-.12.26c-.02.03.11-.14.17-.2z" class="a1ce16d1-16e4-48da-984a-a081faf39faf" data-name="Tracé 4014" id="a3c368cc-a528-4aa4-90d5-bcf8417cd622" fill="#00a1d9"/><path transform="translate(-6.24 -12.01)" d="M538.15 101.09c0 .09-.09.14-.13.23l-.09.28a1.64 1.64 0 01.14-.22 1.38 1.38 0 00.08-.29z" class="a1ce16d1-16e4-48da-984a-a081faf39faf" data-name="Tracé 4015" id="ac8e2800-d8c5-444f-8648-3ea7cc674cdb" fill="#00a1d9"/><path transform="translate(-6.24 -12.01)" d="M546.15 133.61l-.18.21-.12.27-.12.27.16-.21.13-.27z" class="a1ce16d1-16e4-48da-984a-a081faf39faf" data-name="Tracé 4017" id="e093679d-c459-45de-8c8e-251fa5d4f3ff" fill="#00a1d9"/><path transform="translate(-6.24 -12.01)" d="M546.51 133.26a1.84 1.84 0 00.17-.22l.17-.2-.13.27a1.71 1.71 0 01.18-.2l.16-.22.17-.21a1.59 1.59 0 00-.12.27s.17-.23.17-.21l-.13.27-.16.2a2.28 2.28 0 00-.13.28l.34-.43.24-.53.12-.27.12-.27a1.46 1.46 0 01-.16.21l-.17.21.12-.27.12-.26-.16.2-.17.21s-.09.22-.12.27a1.12 1.12 0 01-.17.2l.12-.26c0-.07.13-.14.17-.21.04-.07.1-.22.12-.26l.12-.28.13-.26a1.12 1.12 0 01-.18.2l-.12.27a1.59 1.59 0 01-.12.27s-.14.17-.16.21a1.59 1.59 0 00-.12.27l-.13.27-.17.21s-.13.27-.12.27z" class="a1ce16d1-16e4-48da-984a-a081faf39faf" data-name="Tracé 4018" id="ba200c95-93d6-445b-972a-e6312dc20963" fill="#00a1d9"/><path transform="translate(-6.24 -12.01)" d="M534.67 150.63a2 2 0 00.19-.22c-.05.05-.15.1-.21.15l-.2.21a.74.74 0 00.22-.14z" class="a1ce16d1-16e4-48da-984a-a081faf39faf" data-name="Tracé 4019" id="ade300ed-6308-4e55-bdd5-e50a8d85f29d" fill="#00a1d9"/><path transform="translate(-6.24 -12.01)" d="M546 134.27l.13-.28-.18.22s-.14.28-.12.26z" class="a1ce16d1-16e4-48da-984a-a081faf39faf" data-name="Tracé 4020" id="a5481317-2dd8-43d1-b6d3-49645666b3f8" fill="#00a1d9"/><path transform="translate(-6.24 -12.01)" d="M543.48 138.84l-.13.26.17-.2.36-.41c-.06.1-.08.17-.13.27 0-.08.12-.13.17-.21l.13-.27.12-.26a1.66 1.66 0 00.13-.27 1.73 1.73 0 00-.17.21l-.13.26a1.63 1.63 0 01-.17.2l.13-.26-.17.21-.13.27a1.71 1.71 0 00-.18.2z" class="a1ce16d1-16e4-48da-984a-a081faf39faf" data-name="Tracé 4021" id="f8acaba7-68de-498f-993d-05cfe027f5f3" fill="#00a1d9"/><path transform="translate(-6.24 -12.01)" d="M543.27 139.44l.13-.28-.17.22a1.26 1.26 0 00-.13.26l-.27.53-.13.26s.16-.19.18-.2c.02-.01-.14.25-.13.26l.17-.2a2.36 2.36 0 01.14-.26 1.26 1.26 0 01.13-.26s.14-.17.17-.22l.13-.26a1.12 1.12 0 01-.18.2l.13-.26z" class="a1ce16d1-16e4-48da-984a-a081faf39faf" data-name="Tracé 4022" id="b73fe5bd-2f00-45a5-a1fc-351c0501dabe" fill="#00a1d9"/><path transform="translate(-6.24 -12.01)" d="M543.57 139a.64.64 0 01-.13.26 1.63 1.63 0 00.17-.2 2.36 2.36 0 01.14-.26c.05-.11-.14.1-.18.2z" class="a1ce16d1-16e4-48da-984a-a081faf39faf" data-name="Tracé 4023" id="a7407e4b-544a-4a54-852e-cb68bd29868a" fill="#00a1d9"/><path transform="translate(-6.24 -12.01)" d="M544.44 136.56c0-.05.15-.16.18-.2l.12-.28.13-.26a1.2 1.2 0 01-.17.21s-.07.18-.13.27c-.06.09-.13.13-.18.2l-.12.27-.12.26c.06-.09.1-.12.16-.2a1.34 1.34 0 00.13-.27z" class="a1ce16d1-16e4-48da-984a-a081faf39faf" data-name="Tracé 4024" id="b24f4c22-02f3-412e-94f3-e92bff91d0a4" fill="#00a1d9"/><path transform="translate(-6.24 -12.01)" d="M544.82 135.78s.13-.26.13-.27c0-.01-.16.2-.17.2l-.13.28a1.23 1.23 0 00-.12.26 1.06 1.06 0 01.17-.2 1.31 1.31 0 00.12-.27z" class="a1ce16d1-16e4-48da-984a-a081faf39faf" data-name="Tracé 4025" id="b0198e6e-9af2-4f62-936e-3a204a9b39d6" fill="#00a1d9"/><path transform="translate(-6.24 -12.01)" d="M544.58 136.76s-.11.24-.13.26l.18-.2.12-.27z" class="a1ce16d1-16e4-48da-984a-a081faf39faf" data-name="Tracé 4026" id="f2e1720c-6dee-4773-8f40-d7aa3597514f" fill="#00a1d9"/><path transform="translate(-6.24 -12.01)" d="M545 136.41c0-.07.12-.15.17-.22l.13-.26-.18.2a.49.49 0 00-.12.28z" class="a1ce16d1-16e4-48da-984a-a081faf39faf" data-name="Tracé 4027" id="a8145d95-20d6-4c11-a4b6-13fadec78739" fill="#00a1d9"/><path transform="translate(-6.24 -12.01)" d="M544.8 136.61l-.17.21-.13.27.17-.2a1.84 1.84 0 00.17-.22.71.71 0 01.13-.26z" class="a1ce16d1-16e4-48da-984a-a081faf39faf" data-name="Tracé 4028" id="f07ddb19-9ccc-4239-983f-505a7c6a0cd5" fill="#00a1d9"/><path transform="translate(-6.24 -12.01)" d="M527.81 83.23a.31.31 0 01-.14-.21c-.27-2 .63-3.86 1-5.89.46-2.39 1.1-4.68 1.77-7 1.18-4 2.19-8 3.4-11.93 1.33-4.36 3.06-11.1 8.65-11.38a5.36 5.36 0 015 2.74c1.48 2.76.71 6.05-.14 8.84-1.16 3.79-2.88 7.38-4.27 11.09a106.82 106.82 0 01-4.55 10.69c-1.1 2.19-2.48 5.55-5.16 6.17a4.7 4.7 0 01-5.56-3.12z" class="b4f7f29b-8e9d-4db9-aede-7c06fba008a5" data-name="Union 14" id="a64406b3-ba03-4ae5-bee7-f078ecadceb2" fill="#9c38fa"/><path transform="translate(-6.24 -12.01)" d="M510.23 107.87a.3.3 0 01-.17-.24.32.32 0 01.1-.29c4.35-4.54 7.48-10.16 11-15.36 1.83-2.7 3.18-5.7 4.86-8.49 1.34-2.21 3-4 5.75-3.81h.1a4.82 4.82 0 013.84 2.72 5.19 5.19 0 01-.63 4.1c-2 4-5.16 7.6-7.88 11.15a54.86 54.86 0 01-6.63 7c-1.73 1.58-3.44 3.13-5.21 4.62-.36.27-.91.95-1.38 1h-.11c-1.14.04-2.87-1.9-3.64-2.4z" class="b4f7f29b-8e9d-4db9-aede-7c06fba008a5" data-name="Union 15" id="bde2f5c8-12d4-4055-bac5-c655c808b8d9" fill="#9c38fa"/><path transform="translate(-6.24 -12.01)" d="M305.75 249.72s32.12 1 64.6.93c32.48-.07 72.6-1.32 72.6-1.32s-40.11-1-72.6-.89c-32.49.11-64.6 1.28-64.6 1.28z" class="bb4e70c3-3a01-4496-916a-a5f27c5a4d1a" data-name="Tracé 4037" id="ab147ade-d640-4e6a-8dbf-68bbda9d1710" fill="#ccc" fill-rule="evenodd"/><path transform="translate(-6.24 -12.01)" d="M306.61 249.51h.51-.94z" class="bc65d32b-a153-4b3b-94b7-d42985eb89db" data-name="Tracé 4038" id="b0d1d9b6-f072-4643-8158-eddb3cf01f52" fill="#ccc"/><path transform="translate(-6.24 -12.01)" d="M312.73 249.46H310.45h1.77z" class="bc65d32b-a153-4b3b-94b7-d42985eb89db" data-name="Tracé 4040" id="e6dfbb83-5a2d-405c-8759-939a08d5f46a" fill="#ccc"/><path transform="translate(-6.24 -12.01)" d="M308.76 249.55h.84l.46-.05h-1.73z" class="bc65d32b-a153-4b3b-94b7-d42985eb89db" data-name="Tracé 4041" id="f61561df-051c-4c54-be9f-153012247a5e" fill="#ccc"/><path transform="translate(-6.24 -12.01)" d="M339.77 248.93h.43a1.55 1.55 0 01-.43 0z" class="bc65d32b-a153-4b3b-94b7-d42985eb89db" data-name="Tracé 4048" id="becafd4a-8c2e-4392-b885-eaae1d4fa958" fill="#ccc"/><path transform="translate(-6.24 -12.01)" d="M323.14 248.93h-.43c.16-.01.29.01.43 0z" class="bc65d32b-a153-4b3b-94b7-d42985eb89db" data-name="Tracé 4052" id="a6bff194-0dee-445a-8260-04fe5fc5621a" fill="#ccc"/><path transform="translate(-6.24 -12.01)" d="M311.12 249.28l-.47.05h.89z" class="bc65d32b-a153-4b3b-94b7-d42985eb89db" data-name="Tracé 4053" id="a0316f93-1ffd-46f2-8dff-a052ef8dd3fb" fill="#ccc"/><path transform="translate(-6.24 -12.01)" d="M313.32 249.24h-.43s.44-.01.43 0z" class="bc65d32b-a153-4b3b-94b7-d42985eb89db" data-name="Tracé 4055" id="ee2cc886-196f-4324-97ff-c9f2d51ef734" fill="#ccc"/><path transform="translate(-6.24 -12.01)" d="M316.71 249.38H325l.93-.07h117v.5H308.74l.42.05h20.69l.85.08h32.17l.84.06H443v.44V249v.55H323l-.93.08h-4.86zm0 .51zm19.47.56zm-.3-.2zm12.49.14z" class="bc65d32b-a153-4b3b-94b7-d42985eb89db" data-name="Tracé 4057" id="edabbf91-dbe0-40d0-8d72-819e7a71c8bd" fill="#ccc"/><path transform="translate(-6.24 -12.01)" d="M312.85 249.29H314l.93-.09h-1.58s-.51.08-.5.09z" class="bc65d32b-a153-4b3b-94b7-d42985eb89db" data-name="Tracé 4059" id="e36c84d2-a354-45b3-b703-eb1e398c427e" fill="#ccc"/><path transform="translate(-6.24 -12.01)" d="M308.72 249.71l-.84-.08h-1.36l.42.05h1.31c.19 0 .31.03.47.03z" class="bc65d32b-a153-4b3b-94b7-d42985eb89db" data-name="Tracé 4062" id="a3ab1fb6-b696-4ba9-a05b-aadbc75f313e" fill="#ccc"/><path transform="translate(-6.24 -12.01)" d="M259.68 76.54l-22.33 131.55 25.18-4.45 4.87-29.32 43.65-7.71 14.45 25.91 25.61-4.52-64.63-116.19zM271 152.06l7.25-44.06 21.7 39z" class="b20012be-06f1-4468-9709-0857e0c08757" data-name="Tracé 4114" id="f9cc2b30-29ee-4582-bf79-2e1fe9ada989" fill="#59bbab"/><path class="b20012be-06f1-4468-9709-0857e0c08757" data-name="Rectangle 994" id="af0fb228-53f7-40b7-a046-3c9c63a413b1" fill="#59bbab" d="M359.91 110.08h24.75v126.38h-24.75z"/><path transform="translate(-6.24 -12.01)" d="M449.93 84.68l-44.13 7 19.65 124.08 44.13-7c39.87-6.31 54.62-28.26 47.82-71.17-6.8-42.91-27.6-59.22-67.47-52.91m15.57 102.5l-19 3-12.78-80.72 19-3c24.2-3.84 34.93 5.68 39.59 35.1 4.66 29.42-2.61 41.78-26.81 45.61" class="b20012be-06f1-4468-9709-0857e0c08757" data-name="Tracé 4115" id="f53ecada-f472-46ed-97b2-b20941724efd" fill="#59bbab"/><path transform="translate(-6.24 -12.01)" d="M668.24 166.76c-17.2-6.68-25.17-10.74-24-19 1.52-10.78 5.92-16.13 24.85-13.47 17 2.39 22.26 8.44 20.2 23.13l-.71 5.08 23.2 3.26.71-5.08c3.93-28-8.92-43-40.44-47.47-31.52-4.47-48.15 6.14-52 33.32-3.6 25.63 19 34.46 37.21 41.55 16.92 6.6 27.09 11.35 25.64 21.71-1.52 10.79-6.16 16.1-26.32 13.27-18.42-2.59-23.93-8.48-21.84-23.36l.72-5.08-23.37-3.28-.72 5.07c-4 28.35 9.05 43.07 42.25 47.73 33.2 4.66 49.56-5.56 53.44-33.12 3.88-27.56-19.81-36.85-38.84-44.25" class="b20012be-06f1-4468-9709-0857e0c08757" data-name="Tracé 4116" id="fd59a75a-e48c-4785-9193-2542eb13c677" fill="#59bbab"/><path transform="translate(-6.24 -12.01)" d="M554.73 195c-40.1 0-58 20.62-58 66.86 0 46.24 17.88 66.87 58 66.87 25.24 0 40.84-9 49.09-28.29l3.62-8.47H582l-1.73 3.12c-4.79 8.61-12.19 12.13-25.56 12.13-20.37 0-30-8.57-32.8-29.45h90.78V265.4c0-48.67-17.88-70.37-58-70.37m-33.58 61.72c1-28.73 10.52-40 33.57-40h.43l1.08-.22c21.87.49 31 11.8 32 40.19z" class="b20012be-06f1-4468-9709-0857e0c08757" data-name="Tracé 4117" id="f5a9edce-21a7-48ab-880d-6e9703042e4e" fill="#59bbab"/><path transform="translate(-6.24 -12.01)" d="M268.39 204c-.06-.1-3.95-1.15-4.47-1.32-.71-.23-1.65-.47-2.5-.74a3.37 3.37 0 00-1-.4c-.42-.11-.85-.17-1.26-.3l-.78-.32c1.75-.57 3.53-.8 5.28-1.38a1.45 1.45 0 00.86-.73l.06-.16a1.49 1.49 0 00.05-.63c-1 .11-2.85.43-3.11.43-1 0-2.13-.27-3.17-.18a9.79 9.79 0 00-4 1.43 2.91 2.91 0 00-1 .92c0 .22 0 .45-.07.66a6.36 6.36 0 01-.06.87l-.09 1.55v.42a9.55 9.55 0 00.26 2.44l1.58.26a35 35 0 003.95.4H260c.67.21 1.33.5 1.88.66a3.16 3.16 0 00.6-1.2c1.14.11 1.33-.28 1.69-1.35 0 .12.93 0 1 0 .48-.24.39-.54 1-.56.24 0 2.28.6 2.28.5a1.89 1.89 0 00-.1-1.26z" class="e581e44d-6e98-4235-a316-eee4b33b2ead" data-name="Tracé 3907" id="bd9621ba-28ea-4737-afbe-338fea077190" fill="#fc9" fill-rule="evenodd"/><path transform="translate(-6.24 -12.01)" d="M253.25 198.78c-6.51-.7-13-1.56-19.5-2.31-3-.35-6-.62-9-.95a48.23 48.23 0 01-10-1.81c-1.59-.83-3.26-1.54-4.73-2.34a75.66 75.66 0 01-13.88-10c-2.1-1.85-4.19-3.71-6.37-5.48a17.79 17.79 0 00-4.7-3c-2.58-1-7-2.19-9.52-.34-2.9 2.16-5.07 5.94-4.62 9.6.38 3.38 2.54 6.28 4.87 8.62a48.84 48.84 0 008.79 6.76 108.54 108.54 0 0012.94 7.35 59.17 59.17 0 008.27 2.9c2.66.72 5.75 1.87 8.53 1.55a32.34 32.34 0 003.38.48 103.48 103.48 0 0013.64-.06 199.79 199.79 0 0021-2.19.31.31 0 00.24-.23 18.11 18.11 0 00.5-3.67l.09-1.55a4.25 4.25 0 01.06-.87c.06-.29 0-.43.07-.66 0-.45.12-.89.21-1.34a.35.35 0 00-.32-.38z" data-name="Tracé 3908" id="beb3be83-6f60-4fe3-b521-d7f6f4c441aa" fill="#04bfbf"/><path transform="translate(-6.24 -12.01)" d="M505 111.4c1.24-1 2.13-2.26 3.36-3.22.39-.3 3.25-2 3.47-1.88.6.46 1.33.85 2 1.29.67.44 1.47.64 1.42 1.57a10 10 0 01-1.09 3 21.25 21.25 0 01-3.7 5.61c-.06 0-.54-.13-.51-.19a27.86 27.86 0 001.83-3.18c-.58.77-2 2.76-2.72 3.51a2.29 2.29 0 01-.73-.17c.35-.7.79-1.5 2.26-4.3-.59.79-1.43 1.63-3.09 4a3.24 3.24 0 01-.88-.47c.54-1 2.07-3 2.55-4.21a33.48 33.48 0 00-2.85 3.84c-.23.32-.42-.58-.44-.68a3.84 3.84 0 01.51-1.3c.71-1.45 2.21-3.4 2.64-4.88a11.22 11.22 0 01-3.62 2.1 5.25 5.25 0 01-.43-.53z" class="e581e44d-6e98-4235-a316-eee4b33b2ead" data-name="Tracé 4036" id="ae1b6531-0226-4be1-a80a-2e16f2dcee6d" fill="#fc9" fill-rule="evenodd"/><path transform="translate(-6.24 -12.01)" d="M690.34 241.23a5.79 5.79 0 01.76-.88 3.52 3.52 0 01-1.28.3 1.52 1.52 0 01-.56-.08.64.64 0 01-.27-.11 1.56 1.56 0 01-.6-.54.93.93 0 010-.73l-.28.13a1.18 1.18 0 01-1.65-.14.93.93 0 01-.31-.62.89.89 0 01.23-.66l-.31.17a1.43 1.43 0 01-1.42.19 1 1 0 01-.63-.89c.07-.92 2-1.72 3.84-2.4.31-.12.56-.21.69-.28.36-.18.79-.36 1.24-.56.62-.28 1.24-.55 1.78-.83l.13-.11.4-.28a7.42 7.42 0 00.64-.46 3.11 3.11 0 00.31-.32c-.8.07-1.5.17-2.36.32-.86.15-1.79.28-2.71.34a1.61 1.61 0 01-1.18-.4l-.12-.12a1.45 1.45 0 01-.31-.62v-.12h.12c.56-.15 1.5-.36 2-.48s.92-.27 1-.27a9.12 9.12 0 001.26-.61 9.34 9.34 0 011.61-.73 10.13 10.13 0 014.38-.2 2.63 2.63 0 011.74.92.16.16 0 01.07.12l.06.06.08.19c.19.48.71 1.75.92 2.38a2.25 2.25 0 01.05.22c.74 2 .7 2.16.56 2.25l-.16.1c.23.48.4.87.32.94-.47.42-1 .83-1.45 1.25-1.25 1.07-4.6 4.4-6.93 4.4a1.84 1.84 0 01-1.66-.84z" data-name="Union 16" id="fa482640-e2e2-4204-8587-687d4dc3071c" fill="#fc9"/><path transform="translate(-6.24 -12.01)" d="M753.74 169a13.63 13.63 0 00-4.94-2.15 5.5 5.5 0 00-4.48.86 16.84 16.84 0 00-4.32 4 18.41 18.41 0 00-2.7 5.76c-2.18 6.33-3.67 12.88-6.62 18.92a91.47 91.47 0 01-4.55 8 36 36 0 01-3.23 3.42c-1.5 1.25-3 2.45-4.59 3.65-7.4 5.68-15 11.78-22.29 17.33a.33.33 0 00-.1.47c1.87 2 3 4.54 5 6.44a.34.34 0 00.33.09c5.37-2.24 10.68-4.62 15.84-7.33a142.27 142.27 0 0012.65-7.22 35.14 35.14 0 004.38-3.4c1.94-.9 3.44-2.67 4.9-4.15a66.11 66.11 0 005.26-6c3.36-4.33 5.81-9.26 8.26-14.13a61.77 61.77 0 003.54-8.24c1.82-5.32 2.92-12.45-2.34-16.32z" class="b3a0ef92-1fc4-47e7-a87d-3acb19e16a18" data-name="Tracé 3954" id="b8769a73-51eb-42af-970f-7703fc57f62d" fill="#0066cb"/><path transform="translate(-6.24 -12.01)" d="M679.66 217c.44.57 1.48 2.24.81 2.79-1.07.9-1.94-.73-2.38-1.42.19.82 1.12 2.21.41 2.91-1 1-1.94-.9-2.36-1.69.17.64 1.12 3.3-.4 2.91a3.87 3.87 0 01-1.57-2" class="e581e44d-6e98-4235-a316-eee4b33b2ead" data-name="Tracé 3957" id="fd87374e-0fc7-4722-9b97-6c1e9bf95ca8" fill="#fc9" fill-rule="evenodd"/><path transform="translate(-6.24 -12.01)" d="M546.09 191.63a5.35 5.35 0 00-.14-.8c-.06-.59-.13-1.18-.23-1.73a1.69 1.69 0 00-.14-.5c-1.74-10.58-3.61-21.15-6-31.62-.66-3-1.35-5.9-2.19-8.82a15.26 15.26 0 00-1.4-4c-.51-.84-1.09-.6-2-.32-4.13 1.28-8.11 2.82-12.16 4.37a.68.68 0 00-.45.64.88.88 0 000 .23.17.17 0 000 .1c5.27 12.42 11.15 24.73 15.13 37.63.17.57.35 1.15.54 1.73-.22.3-.42.61-.64.9a29.57 29.57 0 01-3.46 4c-1.92 1.85-4 3.56-6 5.31a.68.68 0 000 .95 3.78 3.78 0 001.74.45 22.29 22.29 0 003.83.27 13.13 13.13 0 007.34-2 3.23 3.23 0 01-.17.82.68.68 0 00.49.83h.16a18.64 18.64 0 004.35-.18.66.66 0 00.47-.47 28.07 28.07 0 00.77-7.25 1 1 0 00.16-.54z" class="a26b579a-391a-4fe0-87ad-aa05fd51477f" data-name="Tracé 3995" id="a3b64638-93e5-46ff-a421-7218e720f563" fill="#090e7c"/><path transform="translate(-6.24 -12.01)" d="M548 155.1a36.54 36.54 0 00-7.09-9.78c-2.33-2.32-5.38-4.38-8.74-4.73-3-.31-6.66 1.52-7.4 4.67-.65 2.76 1.52 5.43 3.2 7.35 2.92 3.32 6.41 6.08 9.41 9.32h.34l10.09-6.41a.38.38 0 00.19-.42z" class="a5611a68-2874-4906-b645-fe63dbb9ed43" data-name="Tracé 4029" id="aa4f63fe-7282-4b82-b410-1b41985eb12a" fill="#6acef0"/><path transform="translate(-6.24 -12.01)" d="M570.47 189a3.86 3.86 0 00-2-2.5c-5.76-10-11.62-19.87-18-29.47-1.66-2.53-3.34-5.07-5.14-7.45a15.7 15.7 0 00-2.73-3.24c-.91-.72-1.44-.07-2.32.58-3.35 2.49-6.55 5.17-9.75 7.87a.56.56 0 00-.15.71 1 1 0 00.15.24c9.4 9.88 19.26 19.46 27.72 30.22a46.49 46.49 0 013 4.05 29.38 29.38 0 01-3 4.05c-1.71 2-3.58 3.78-5.4 5.65a.68.68 0 00.08 1h.06c.4.31 1.3.25 1.76.3a20 20 0 003.79 0 12.21 12.21 0 006.92-2.49 4.81 4.81 0 01-.1.84.69.69 0 00.51.83h.14a16.55 16.55 0 004.27-.41.66.66 0 00.47-.46 26.72 26.72 0 00-.28-10.32z" class="a26b579a-391a-4fe0-87ad-aa05fd51477f" data-name="Tracé 4030" id="a25b72b9-4fb0-4800-9c7d-8176ae4ba0e1" fill="#090e7c"/><path transform="translate(-6.24 -12.01)" d="M565.78 87.17c-.6-4.4-1.56-9.22-4.22-12.88a.47.47 0 00-.15-.13h-.07l-.16-.1a4.66 4.66 0 00-3.33.44 33.46 33.46 0 00-4.61 2.28c-1.55.9-3 1.84-4.66 2.7-.81.42-2.32 1.45-3.29 1.1a.66.66 0 00-.76.3 375.69 375.69 0 00-20.2 39.51q-3.9 8.77-7.62 17.63a.68.68 0 00.23.92 136 136 0 0023 7.75 137.35 137.35 0 0020 3.74.68.68 0 00.68-.67c.09-11.8 2.29-23.39 4.3-35a89.79 89.79 0 00.86-27.59z" class="b3a0ef92-1fc4-47e7-a87d-3acb19e16a18" data-name="Tracé 4031" id="f1ca6cda-1050-4808-a429-f3d420036a57" fill="#0066cb"/></g><path id="path235" d="M185.56 115.49a14.64 14.64 0 00-8.79-4.54 19.68 19.68 0 00-7.76.34c-1.39.34-4.49 1.35-5.43 2.86-.19.15-.38.3-.57.47-6.11 5.39-1.63 16-.05 22.48-.3-2.29-.85-6.33.65-8.3 2.21-2.91 7.34 1.54 10.2-.64 2.54-1.94 5.35-5.24 5.25-8.73a5.5 5.5 0 00-.75-2.73 58.32 58.32 0 017.25-1.21z" class="b6423444-9dc9-4818-87e9-89659960a870" fill="#003056"/><path id="path237" d="M737.69 113.18a5 5 0 00-3.4 4.88c0 3.41 2.85 6.63 5.43 8.53 2.89 2.12 6.77-3.4 9-.56 1.54 1.93.25 8.76 0 11 1.24-5.46 4.86-12.72 4.86-18.36 0-2.44-.23-4.56-2.13-6.16-3.5-3-6.86-3.56-10.73-2.48-.96.29-2.09 2.73-3.03 3.15z" class="b6423444-9dc9-4818-87e9-89659960a870" fill="#003056"/><path id="path239" d="M726.76 118.03c4-2.7-3.32-9.6 3-11 9-2 15.49.66 16.51 3.27.46 1.17.82 3.17-.06 4.28-1.34 1.7-2.67.9-4.43.41-7.02-1.96-13.58 2.04-15.02 3.04z" class="b6423444-9dc9-4818-87e9-89659960a870" fill="#003056"/></g></svg>