<?xml version="1.0" encoding="UTF-8" standalone="no"?>
<!-- Created with Inkscape (http://www.inkscape.org/) -->

<svg
   xmlns:dc="http://purl.org/dc/elements/1.1/"
   xmlns:cc="http://creativecommons.org/ns#"
   xmlns:rdf="http://www.w3.org/1999/02/22-rdf-syntax-ns#"
   xmlns:svg="http://www.w3.org/2000/svg"
   xmlns="http://www.w3.org/2000/svg"
   xmlns:sodipodi="http://sodipodi.sourceforge.net/DTD/sodipodi-0.dtd"
   xmlns:inkscape="http://www.inkscape.org/namespaces/inkscape"
   width="51.223331mm"
   height="22.74354mm"
   viewBox="0 0 51.223331 22.74354"
   version="1.1"
   id="svg934"
   inkscape:version="0.92.4 (5da689c313, 2019-01-14)"
   sodipodi:docname="home_steps_1.svg">
  <defs
     id="defs928" />
  <sodipodi:namedview
     id="base"
     pagecolor="#ffffff"
     bordercolor="#666666"
     borderopacity="1.0"
     inkscape:pageopacity="0.0"
     inkscape:pageshadow="2"
     inkscape:zoom="0.98994949"
     inkscape:cx="95.761774"
     inkscape:cy="337.07601"
     inkscape:document-units="mm"
     inkscape:current-layer="layer1"
     showgrid="false"
     inkscape:window-width="2560"
     inkscape:window-height="1376"
     inkscape:window-x="0"
     inkscape:window-y="27"
     inkscape:window-maximized="1" />
  <metadata
     id="metadata931">
    <rdf:RDF>
      <cc:Work
         rdf:about="">
        <dc:format>image/svg+xml</dc:format>
        <dc:type
           rdf:resource="http://purl.org/dc/dcmitype/StillImage" />
        <dc:title></dc:title>
      </cc:Work>
    </rdf:RDF>
  </metadata>
  <g
     inkscape:label="Calque 1"
     inkscape:groupmode="layer"
     id="layer1"
     transform="translate(-112.12279,-140.92414)">
    <path
       id="path6"
       d="m 134.61237,160.48373 c -1.05833,0 -1.905,-0.84667 -1.905,-1.905 0,-1.05833 0.84667,-1.905 1.905,-1.905 1.05833,0 1.905,0.84667 1.905,1.905 0,1.05833 -0.84667,1.905 -1.905,1.905 z"
       class="st0"
       inkscape:connector-curvature="0"
       style="fill:#db1c83;stroke-width:0.26458332" />
    <path
       id="path8"
       d="m 134.61237,156.85894 c -0.9525,0 -1.71979,0.76729 -1.71979,1.71979 0,0.9525 0.76729,1.71979 1.71979,1.71979 0.9525,0 1.71979,-0.76729 1.71979,-1.71979 0,-0.9525 -0.76729,-1.71979 -1.71979,-1.71979 m 0,-0.39688 c 1.16417,0 2.11667,0.9525 2.11667,2.11667 0,1.16417 -0.9525,2.11667 -2.11667,2.11667 -1.16417,0 -2.11667,-0.9525 -2.11667,-2.11667 0,-1.16417 0.9525,-2.11667 2.11667,-2.11667 z"
       class="st0"
       inkscape:connector-curvature="0"
       style="fill:#db1c83;stroke-width:0.26458332" />
    <path
       id="path11"
       d="m 153.64835,154.6629 c -0.60854,0 -1.13771,-0.50271 -1.13771,-1.13771 0,-0.635 0.50271,-1.13771 1.13771,-1.13771 0.635,0 1.13771,0.50271 1.13771,1.13771 0,0.635 -0.50271,1.13771 -1.13771,1.13771 z"
       class="st0"
       inkscape:connector-curvature="0"
       style="fill:#db1c83;stroke-width:0.26458332" />
    <path
       id="path13"
       d="m 153.64835,152.62561 c -0.50271,0 -0.92604,0.42333 -0.92604,0.92604 0,0.50271 0.42333,0.92604 0.92604,0.92604 0.50271,0 0.92604,-0.42333 0.92604,-0.92604 0,-0.50271 -0.42333,-0.92604 -0.92604,-0.92604 m 0,-0.39688 c 0.74083,0 1.32291,0.58208 1.32291,1.32292 0,0.74083 -0.58208,1.32291 -1.32291,1.32291 -0.74084,0 -1.32292,-0.58208 -1.32292,-1.32291 0,-0.74084 0.58208,-1.32292 1.32292,-1.32292 z"
       class="st0"
       inkscape:connector-curvature="0"
       style="fill:#db1c83;stroke-width:0.26458332" />
    <path
       id="path16"
       d="m 124.2796,147.78373 c -0.60854,0 -1.13771,-0.50271 -1.13771,-1.13771 0,-0.635 0.50271,-1.13771 1.13771,-1.13771 0.635,0 1.13771,0.50271 1.13771,1.13771 0,0.635 -0.50271,1.13771 -1.13771,1.13771 z"
       class="st0"
       inkscape:connector-curvature="0"
       style="fill:#db1c83;stroke-width:0.26458332" />
    <path
       id="path18"
       d="m 124.2796,145.74644 c -0.50271,0 -0.92604,0.42333 -0.92604,0.92604 0,0.50271 0.42333,0.92604 0.92604,0.92604 0.50271,0 0.92604,-0.42333 0.92604,-0.92604 0,-0.50271 -0.42333,-0.92604 -0.92604,-0.92604 m 0,-0.39688 c 0.74083,0 1.32291,0.58209 1.32291,1.32292 0,0.74083 -0.58208,1.32292 -1.32291,1.32292 -0.74084,0 -1.32292,-0.58209 -1.32292,-1.32292 0,-0.74083 0.58208,-1.32292 1.32292,-1.32292 z"
       class="st0"
       inkscape:connector-curvature="0"
       style="fill:#db1c83;stroke-width:0.26458332" />
    <path
       style="fill:#fcb40a;stroke-width:0.26458332"
       inkscape:connector-curvature="0"
       id="Tracé_546-4"
       class="st1"
       d="m 136.72904,152.30123 c 0.82021,0 1.50812,0.68791 1.50812,1.50812 0,0.82021 -0.68791,1.50813 -1.50812,1.50813 -0.82021,0 -1.50813,-0.68792 -1.50813,-1.50813 0,0 0,0 0,0 0,-0.84666 0.66146,-1.50812 1.50813,-1.50812 z" />
    <rect
       style="fill:#fcb40a;stroke-width:0.26458332"
       id="Rectangle_697"
       x="136.64966"
       y="152.90977"
       class="st1"
       width="0.18520834"
       height="1.8256251" />
    <path
       style="fill:#fcb40a;stroke-width:0.26458332"
       inkscape:connector-curvature="0"
       id="Tracé_546-5"
       class="st1"
       d="m 121.59487,157.51352 c 1.42875,0 2.59292,1.16417 2.59292,2.61937 0,1.42875 -1.16417,2.59292 -2.59292,2.59292 -1.42875,0 -2.59292,-1.16417 -2.59292,-2.59292 0,-1.4552 1.16417,-2.61937 2.59292,-2.61937 0,0 0,0 0,0 z" />
    <path
       style="fill:#59bbab;stroke-width:0.26458332"
       inkscape:connector-curvature="0"
       id="Tracé_546-6"
       class="st2"
       d="m 139.63945,154.86769 c 1.45521,0 2.64584,1.19062 2.64584,2.64583 0,1.45521 -1.19063,2.64583 -2.64584,2.64583 -1.4552,0 -2.64583,-1.19062 -2.64583,-2.64583 0,-1.45521 1.19063,-2.64583 2.64583,-2.64583 0,0 0,0 0,0 z" />
    <path
       style="fill:#59bbab;stroke-width:0.26458332"
       inkscape:connector-curvature="0"
       id="Tracé_546-7"
       class="st2"
       d="m 162.07612,148.51769 c 0.71438,0 1.27,0.58208 1.27,1.27 0,0.71437 -0.58208,1.27 -1.27,1.27 -0.68792,0 -1.27,-0.58209 -1.27,-1.27 0,0 0,0 0,0 0,-0.68792 0.58208,-1.27 1.27,-1.27 z" />
    <path
       style="fill:#59bbab;stroke-width:0.26458332"
       inkscape:connector-curvature="0"
       id="Tracé_546-8"
       class="st2"
       d="m 113.94841,145.34269 c 1.00542,0 1.82563,0.8202 1.82563,1.82562 0,1.00542 -0.82021,1.82563 -1.82563,1.82563 -1.00541,0 -1.82562,-0.82021 -1.82562,-1.82563 0,0 0,0 0,0 0,-1.00542 0.82021,-1.82562 1.82562,-1.82562 z" />
    <path
       d="m 141.72966,147.74828 v -1.21709 c 0,-0.635 0.44979,-1.16416 0.97896,-1.16416 0.52917,0 0.97896,0.52916 0.97896,1.16416 v 6.61459"
       class="st3"
       id="Tracé_6236"
       inkscape:connector-curvature="0"
       style="fill:none;stroke:#3a3188;stroke-width:0.66145831;stroke-linecap:round;stroke-linejoin:round" />
    <path
       d="m 139.77175,150.02369 v -2.43416 c 0,-0.635 0.44979,-1.16417 0.97895,-1.16417 0.52917,0 0.97896,0.52917 0.97896,1.16417 v 5.58271"
       class="st3"
       id="Tracé_6237"
       inkscape:connector-curvature="0"
       style="fill:none;stroke:#3a3188;stroke-width:0.66145831;stroke-linecap:round;stroke-linejoin:round" />
    <path
       d="m 137.99904,151.37307 c 0,-1.34938 0,-1.61396 0,-1.61396 0,-0.58208 0.39687,-1.05833 0.89958,-1.05833 0.50271,0 0.89958,0.47625 0.89958,1.05833 v 2.2225"
       class="st3"
       id="Tracé_6238"
       inkscape:connector-curvature="0"
       style="fill:none;stroke:#3a3188;stroke-width:0.66145831;stroke-linecap:round;stroke-linejoin:round" />
    <path
       d="m 139.53362,163.33224 c 0,-0.34396 -0.0265,-1.24355 -0.0529,-1.50813"
       class="st3"
       id="Tracé_6239"
       inkscape:connector-curvature="0"
       style="fill:none;stroke:#3a3188;stroke-width:0.66145831;stroke-linecap:round;stroke-linejoin:round" />
    <path
       d="m 144.34904,163.33224 c 0,-2.0373 1.19062,-3.06917 1.95791,-4.31271 1.5875,-2.56646 1.4023,-3.01625 1.93146,-4.57729 0.44979,-1.37584 1.08479,-2.80459 0.29104,-3.175 -0.58208,-0.26459 -1.50812,0.60854 -2.16958,2.27541 -0.42333,1.11125 -0.58208,1.48167 -0.84667,2.2225 -0.10583,0.26459 -0.3175,0.47625 -0.60854,0.58209 -0.60854,0.21166 -1.64041,0.74083 -1.85208,1.98437"
       class="st3"
       id="Tracé_6240"
       inkscape:connector-curvature="0"
       style="fill:none;stroke:#3a3188;stroke-width:0.66145831;stroke-linecap:round;stroke-linejoin:round" />
    <path
       d="m 143.68758,148.11869 c 0,-0.635 0.44979,-1.16416 0.97896,-1.16416 0.52916,0 0.97896,0.52916 0.97896,1.16416 v 7.22313"
       class="st3"
       id="Tracé_6241"
       inkscape:connector-curvature="0"
       style="fill:none;stroke:#3a3188;stroke-width:0.66145831;stroke-linecap:round;stroke-linejoin:round" />
    <path
       d="m 132.25758,147.74828 v -1.21709 c 0,-0.635 -0.44979,-1.16416 -0.97896,-1.16416 -0.52917,0 -0.97896,0.52916 -0.97896,1.16416 v 6.61459"
       class="st3"
       id="Tracé_6242"
       inkscape:connector-curvature="0"
       style="fill:none;stroke:#3a3188;stroke-width:0.66145831;stroke-linecap:round;stroke-linejoin:round" />
    <path
       d="m 134.2155,150.02369 v -2.43416 c 0,-0.635 -0.4498,-1.16417 -0.97896,-1.16417 -0.52917,0 -0.97896,0.52917 -0.97896,1.16417 v 5.58271"
       class="st3"
       id="Tracé_6243"
       inkscape:connector-curvature="0"
       style="fill:none;stroke:#3a3188;stroke-width:0.66145831;stroke-linecap:round;stroke-linejoin:round" />
    <path
       d="m 135.9882,151.39953 v -1.66688 c 0,-0.58208 -0.39687,-1.05833 -0.89958,-1.05833 -0.50271,0 -0.89958,0.47625 -0.89958,1.05833 v 2.2225"
       class="st3"
       id="Tracé_6244"
       inkscape:connector-curvature="0"
       style="fill:none;stroke:#3a3188;stroke-width:0.66145831;stroke-linecap:round;stroke-linejoin:round" />
    <path
       d="m 134.45362,163.33224 c 0,-0.34396 0.0265,-1.24355 0.0529,-1.50813"
       class="st3"
       id="Tracé_6245"
       inkscape:connector-curvature="0"
       style="fill:none;stroke:#3a3188;stroke-width:0.66145831;stroke-linecap:round;stroke-linejoin:round" />
    <path
       d="m 129.66466,163.33224 c 0,-2.0373 -1.19062,-3.06917 -1.95791,-4.31271 -1.5875,-2.56646 -1.4023,-3.01625 -1.93146,-4.57729 -0.44979,-1.37584 -1.08479,-2.80459 -0.29104,-3.175 0.58208,-0.26459 1.50812,0.60854 2.16958,2.27541 0.42333,1.11125 0.58208,1.48167 0.84667,2.2225 0.10583,0.26459 0.3175,0.47625 0.60854,0.58209 0.60854,0.21166 1.64041,0.74083 1.85208,1.98437"
       class="st3"
       id="Tracé_6246"
       inkscape:connector-curvature="0"
       style="fill:none;stroke:#3a3188;stroke-width:0.66145831;stroke-linecap:round;stroke-linejoin:round" />
    <path
       d="m 130.29966,148.11869 c 0,-0.635 -0.44979,-1.16416 -0.97896,-1.16416 -0.52916,0 -0.97895,0.52916 -0.97895,1.16416 v 7.22313"
       class="st3"
       id="Tracé_6247"
       inkscape:connector-curvature="0"
       style="fill:none;stroke:#3a3188;stroke-width:0.66145831;stroke-linecap:round;stroke-linejoin:round" />
    <path
       style="fill:#fcb40a;stroke-width:0.26458332"
       inkscape:connector-curvature="0"
       id="Tracé_6248"
       class="st1"
       d="m 150.24925,140.92414 c 1.42875,0 2.61937,1.16417 2.61937,2.59292 0,1.42875 -1.16417,2.61938 -2.61937,2.61938 -1.45521,0 -2.59292,-1.16417 -2.59292,-2.61938 0,-1.45521 1.16417,-2.59292 2.59292,-2.59292 0,0 0,0 0,0 z" />
  </g>
</svg>
