<svg xmlns="http://www.w3.org/2000/svg" width="88" height="89.25" viewBox="0 0 23.283 23.614"><g transform="translate(37.344 -195.99)"><path class="st2" fill="#59bbab" stroke-width=".265" d="M-28.613 213.519h5.821v6.085h-5.821z"/><path class="st4" fill="none" stroke="#3a3188" stroke-width=".661" stroke-miterlimit="10" d="M-31.259 216.165h2.646M-22.686 216.403h2.593M-25.702 213.519v-2.646M-34.143 213.572v-2.593M-31.788 207.434h3.175M-22.792 207.434h3.175M-16.971 210.873v2.646M-17.077 204.947v-3.017a2.18 2.18 0 00-2.17-2.17h-1.084M-31.115 199.754H-32.2a2.18 2.18 0 00-2.17 2.17v3.016"/><ellipse ry="2.91" rx="3.043" cy="207.963" cx="-34.301" class="st0" fill="#db1c83" stroke-width=".265"/><circle r="2.91" cy="207.963" cx="-25.702" class="st2" fill="#59bbab" stroke-width=".265"/><ellipse ry="2.91" rx="3.043" cy="207.963" cx="-17.103" class="st1" fill="#fcb40a" stroke-width=".265"/><path class="st1" fill="#fcb40a" stroke-width=".265" d="M-20.146 213.519h6.085v6.085h-6.085z"/><path class="st0" fill="#db1c83" stroke-width=".265" d="M-37.344 213.519h6.085v6.085h-6.085z"/><path class="st5" fill="none" stroke="#3a3188" stroke-width=".661" d="M-31.259 196.321h11.113v6.085h-11.113z"/></g></svg>