<svg xmlns="http://www.w3.org/2000/svg" version="1.1" id="bcf710b1-c458-4f9f-8ad7-030bb98cfa68" x="0" y="0" viewBox="0 0 725.6 146.3" xml:space="preserve"><style type="text/css" id="style2">.st0{fill:#db1c83}.st1{fill:#fcb40a}.st2{fill:#59bbab}.st3,.st4{fill:none;stroke:#3a3188;stroke-width:2.5}.st3{stroke-linecap:round;stroke-linejoin:round}.st4{stroke-miterlimit:10}.st6,.st7,.st8{fill:none;stroke-width:3}.st6{stroke:#3a3188;stroke-miterlimit:10}.st7,.st8{stroke:#fcb40a;stroke-linecap:round;stroke-linejoin:round}.st8{stroke:#db1c83}</style><path id="path6" d="M107.7 105.126c-4 0-7.2-3.2-7.2-7.2s3.2-7.2 7.2-7.2 7.2 3.2 7.2 7.2-3.2 7.2-7.2 7.2z" class="st0" fill="#db1c83"/><path id="path8" d="M107.7 91.426c-3.6 0-6.5 2.9-6.5 6.5s2.9 6.5 6.5 6.5 6.5-2.9 6.5-6.5-2.9-6.5-6.5-6.5m0-1.5c4.4 0 8 3.6 8 8s-3.6 8-8 8-8-3.6-8-8 3.6-8 8-8z" class="st0" fill="#db1c83"/><path id="path11" d="M179.647 83.126c-2.3 0-4.3-1.9-4.3-4.3s1.9-4.3 4.3-4.3 4.3 1.9 4.3 4.3-1.9 4.3-4.3 4.3z" class="st0" fill="#db1c83"/><path id="path13" d="M179.647 75.426c-1.9 0-3.5 1.6-3.5 3.5s1.6 3.5 3.5 3.5 3.5-1.6 3.5-3.5-1.6-3.5-3.5-3.5m0-1.5c2.8 0 5 2.2 5 5s-2.2 5-5 5-5-2.2-5-5 2.2-5 5-5z" class="st0" fill="#db1c83"/><path id="path16" d="M68.647 57.126c-2.3 0-4.3-1.9-4.3-4.3s1.9-4.3 4.3-4.3 4.3 1.9 4.3 4.3-1.9 4.3-4.3 4.3z" class="st0" fill="#db1c83"/><path id="path18" d="M68.647 49.426c-1.9 0-3.5 1.6-3.5 3.5s1.6 3.5 3.5 3.5 3.5-1.6 3.5-3.5-1.6-3.5-3.5-3.5m0-1.5c2.8 0 5 2.2 5 5s-2.2 5-5 5-5-2.2-5-5 2.2-5 5-5z" class="st0" fill="#db1c83"/><path id="Tracé_546-4" class="st1" d="M115.7 74.2c3.1 0 5.7 2.6 5.7 5.7s-2.6 5.7-5.7 5.7-5.7-2.6-5.7-5.7c0-3.2 2.5-5.7 5.7-5.7z" fill="#fcb40a"/><path id="Rectangle_697" class="st1" fill="#fcb40a" d="M115.4 76.5h.7v6.9h-.7z"/><path id="Tracé_546-5" class="st1" d="M58.5 93.9c5.4 0 9.8 4.4 9.8 9.9 0 5.4-4.4 9.8-9.8 9.8s-9.8-4.4-9.8-9.8c0-5.5 4.4-9.9 9.8-9.9z" fill="#fcb40a"/><path id="Tracé_546-6" class="st2" d="M126.7 83.9c5.5 0 10 4.5 10 10s-4.5 10-10 10-10-4.5-10-10 4.5-10 10-10z" fill="#59bbab"/><path id="Tracé_546-7" class="st2" d="M211.5 59.9c2.7 0 4.8 2.2 4.8 4.8 0 2.7-2.2 4.8-4.8 4.8-2.6 0-4.8-2.2-4.8-4.8 0-2.6 2.2-4.8 4.8-4.8z" fill="#59bbab"/><path id="Tracé_546-8" class="st2" d="M29.6 47.9c3.8 0 6.9 3.1 6.9 6.9 0 3.8-3.1 6.9-6.9 6.9-3.8 0-6.9-3.1-6.9-6.9 0-3.8 3.1-6.9 6.9-6.9z" fill="#59bbab"/><path d="M134.6 56.992v-4.6c0-2.4 1.7-4.4 3.7-4.4s3.7 2 3.7 4.4v25" class="st3" id="Tracé_6236" fill="none" stroke="#3a3188" stroke-width="2.5" stroke-linecap="round" stroke-linejoin="round"/><path d="M127.2 65.592v-9.2c0-2.4 1.7-4.4 3.7-4.4s3.7 2 3.7 4.4v21.1" class="st3" id="Tracé_6237" fill="none" stroke="#3a3188" stroke-width="2.5" stroke-linecap="round" stroke-linejoin="round"/><path d="M120.5 70.692v-6.1c0-2.2 1.5-4 3.4-4s3.4 1.8 3.4 4v8.4" class="st3" id="Tracé_6238" fill="none" stroke="#3a3188" stroke-width="2.5" stroke-linecap="round" stroke-linejoin="round"/><path d="M126.3 115.892c0-1.3-.1-4.7-.2-5.7" class="st3" id="Tracé_6239" fill="none" stroke="#3a3188" stroke-width="2.5" stroke-linecap="round" stroke-linejoin="round"/><path d="M144.5 115.892c0-7.7 4.5-11.6 7.4-16.3 6-9.7 5.3-11.4 7.3-17.3 1.7-5.2 4.1-10.6 1.1-12-2.2-1-5.7 2.3-8.2 8.6-1.6 4.2-2.2 5.6-3.2 8.4-.4 1-1.2 1.8-2.3 2.2-2.3.8-6.2 2.8-7 7.5" class="st3" id="Tracé_6240" fill="none" stroke="#3a3188" stroke-width="2.5" stroke-linecap="round" stroke-linejoin="round"/><path d="M142 58.392c0-2.4 1.7-4.4 3.7-4.4s3.7 2 3.7 4.4v27.3" class="st3" id="Tracé_6241" fill="none" stroke="#3a3188" stroke-width="2.5" stroke-linecap="round" stroke-linejoin="round"/><path d="M98.8 56.992v-4.6c0-2.4-1.7-4.4-3.7-4.4s-3.7 2-3.7 4.4v25" class="st3" id="Tracé_6242" fill="none" stroke="#3a3188" stroke-width="2.5" stroke-linecap="round" stroke-linejoin="round"/><path d="M106.2 65.592v-9.2c0-2.4-1.7-4.4-3.7-4.4s-3.7 2-3.7 4.4v21.1" class="st3" id="Tracé_6243" fill="none" stroke="#3a3188" stroke-width="2.5" stroke-linecap="round" stroke-linejoin="round"/><path d="M112.9 70.792v-6.3c0-2.2-1.5-4-3.4-4s-3.4 1.8-3.4 4v8.4" class="st3" id="Tracé_6244" fill="none" stroke="#3a3188" stroke-width="2.5" stroke-linecap="round" stroke-linejoin="round"/><path d="M107.1 115.892c0-1.3.1-4.7.2-5.7" class="st3" id="Tracé_6245" fill="none" stroke="#3a3188" stroke-width="2.5" stroke-linecap="round" stroke-linejoin="round"/><path d="M89 115.892c0-7.7-4.5-11.6-7.4-16.3-6-9.7-5.3-11.4-7.3-17.3-1.7-5.2-4.1-10.6-1.1-12 2.2-1 5.7 2.3 8.2 8.6 1.6 4.2 2.2 5.6 3.2 8.4.4 1 1.2 1.8 2.3 2.2 2.3.8 6.2 2.8 7 7.5" class="st3" id="Tracé_6246" fill="none" stroke="#3a3188" stroke-width="2.5" stroke-linecap="round" stroke-linejoin="round"/><path d="M91.4 58.392c0-2.4-1.7-4.4-3.7-4.4s-3.7 2-3.7 4.4v27.3" class="st3" id="Tracé_6247" fill="none" stroke="#3a3188" stroke-width="2.5" stroke-linecap="round" stroke-linejoin="round"/><path id="Tracé_6248" class="st1" d="M166.8 31.2c5.4 0 9.9 4.4 9.9 9.8s-4.4 9.9-9.9 9.9-9.8-4.4-9.8-9.9 4.4-9.8 9.8-9.8z" fill="#fcb40a"/><path class="st2" id="Rectangle_998" fill="#59bbab" d="M352 93.75h22v23h-22z"/><path class="st4" id="Ligne_300" fill="none" stroke="#3a3188" stroke-width="2.5" stroke-miterlimit="10" d="M342 103.75h10"/><path class="st4" id="Ligne_301" fill="none" stroke="#3a3188" stroke-width="2.5" stroke-miterlimit="10" d="M374.4 104.65h9.8"/><path class="st4" id="Ligne_302" fill="none" stroke="#3a3188" stroke-width="2.5" stroke-miterlimit="10" d="M363 93.75v-10"/><path class="st4" id="Ligne_303" fill="none" stroke="#3a3188" stroke-width="2.5" stroke-miterlimit="10" d="M331.1 93.95v-9.8"/><path class="st4" id="Ligne_304" fill="none" stroke="#3a3188" stroke-width="2.5" stroke-miterlimit="10" d="M340 70.75h12"/><path class="st4" id="Ligne_305" fill="none" stroke="#3a3188" stroke-width="2.5" stroke-miterlimit="10" d="M374 70.75h12"/><path class="st4" id="Ligne_306" fill="none" stroke="#3a3188" stroke-width="2.5" stroke-miterlimit="10" d="M396 83.75v10"/><path d="M395.6 61.35v-11.4c0-4.5-3.7-8.2-8.2-8.2h-4.1" class="st4" id="Tracé_6261" fill="none" stroke="#3a3188" stroke-width="2.5" stroke-miterlimit="10"/><path id="Tracé_6262" class="st4" d="M342.541 41.724h-4.1c-4.5 0-8.2 3.7-8.2 8.2v11.4" fill="none" stroke="#3a3188" stroke-width="2.5" stroke-miterlimit="10"/><ellipse ry="11" rx="11.5" cy="72.75" cx="330.5" class="st0" id="Ellipse_772" fill="#db1c83"/><circle r="11" cy="72.75" cx="363" class="st2" id="Ellipse_773" fill="#59bbab"/><ellipse ry="11" rx="11.5" cy="72.75" cx="395.5" class="st1" id="Ellipse_774" fill="#fcb40a"/><path class="st1" id="Rectangle_999" fill="#fcb40a" d="M384 93.75h23v23h-23z"/><path class="st0" id="Rectangle_1000" fill="#db1c83" d="M319 93.75h23v23h-23z"/><path id="Rectangle_1001" fill="none" stroke="#3a3188" stroke-width="2.5" d="M342 28.75h42v23h-42z"/><path id="Tracé_6255" class="st6" d="M642.215 108.386l-6.8-8.7c-1.3-1.6-2-3.6-2-5.7v-19.3 0c-.2-12-8.8-22.2-20.6-24.4v-3.3-.2c0-2.5-2.1-4.6-4.6-4.6-2.5 0-4.5 2-4.6 4.6v3.5c-11.8 2.2-20.4 12.4-20.6 24.4v19.3c0 2.1-.7 4.1-2 5.7l-6.8 8.7c-.6.9-.4 2 .5 2.6.3.2.7.3 1.1.3h64.8c1 0 1.9-.9 1.9-1.9 0-.3-.1-.7-.3-1z" fill="none" stroke="#3a3188" stroke-width="3" stroke-miterlimit="10"/><path id="Tracé_6256" class="st6" d="M600.415 115.386c0 4.3 3.5 7.8 7.8 7.8s7.8-3.5 7.8-7.8" fill="none" stroke="#3a3188" stroke-width="3" stroke-miterlimit="10"/><path id="Tracé_6257" class="st2" d="M569.615 90.986c-.5 0-1-.2-1.4-.6-9.8-9.8-9.8-25.7 0-35.5.7-.8 2-.8 2.7 0 .7.8.8 2 0 2.7-8.3 8.3-8.3 21.7 0 30 .8.8.8 2 0 2.7-.3.5-.8.7-1.3.7z" fill="#59bbab"/><path id="Tracé_6258" class="st2" d="M575.615 84.886c-.5 0-1-.2-1.4-.6-6.4-6.4-6.4-16.9 0-23.3.8-.7 2-.7 2.7 0 .7.7.7 1.9 0 2.7-4.9 4.9-4.9 12.9 0 17.8.8.8.8 2 0 2.7-.3.5-.7.7-1.3.7z" fill="#59bbab"/><path d="M646.715 90.986c-1.1 0-1.9-.9-1.9-1.9 0-.5.2-1 .6-1.4 8.3-8.3 8.3-21.7 0-30-.8-.7-.8-2 0-2.7.7-.8 2-.8 2.7 0 9.8 9.8 9.8 25.7 0 35.5-.3.3-.8.5-1.4.5z" class="st2" id="Tracé_6259" fill="#59bbab"/><path d="M640.715 84.886c-1.1 0-1.9-.9-1.9-1.9 0-.5.2-1 .6-1.4 4.9-4.9 4.9-12.9 0-17.8-.7-.8-.7-2 0-2.7.7-.7 1.9-.7 2.7 0 6.4 6.4 6.4 16.9 0 23.3-.4.3-.8.5-1.4.5z" class="st2" id="Tracé_6260" fill="#59bbab"/><path d="M686.517 40.63l7.14 3.196-4.7 6.21" class="st7" id="Tracé_4082" fill="none" stroke="#fcb40a" stroke-width="3" stroke-linecap="round" stroke-linejoin="round"/><path d="M693.284 44c-10.149 1.77-21.012 5.103-28.985 10.728" class="st7" id="Tracé_577" fill="none" stroke="#fcb40a" stroke-width="3" stroke-linecap="round" stroke-linejoin="round"/><path d="M528.615 40.67l-7.141 3.196 4.701 6.21" class="st8" id="Tracé_4082-2" fill="none" stroke="#db1c83" stroke-width="3" stroke-linecap="round" stroke-linejoin="round"/><path d="M521.867 43.942c10.148 1.769 21.012 5.103 28.985 10.728" class="st8" id="Tracé_577-2" fill="none" stroke="#db1c83" stroke-width="3" stroke-linecap="round" stroke-linejoin="round"/><path d="M689.589 93.567l1.745 7.626-7.79-.016" class="st8" id="Tracé_4082-3" fill="none" stroke="#db1c83" stroke-width="3" stroke-linecap="round" stroke-linejoin="round"/><path d="M690.97 101c-7.52-7.04-16.721-13.71-26.012-16.693" class="st8" id="Tracé_577-3" fill="none" stroke="#db1c83" stroke-width="3" stroke-linecap="round" stroke-linejoin="round"/><path d="M525.623 93.608l-1.745 7.627 7.79-.017" class="st7" id="Tracé_4082-4" fill="none" stroke="#fcb40a" stroke-width="3" stroke-linecap="round" stroke-linejoin="round"/><path d="M524.175 100.967c7.521-7.04 16.722-13.71 26.012-16.693" class="st7" id="Tracé_577-4" fill="none" stroke="#fcb40a" stroke-width="3" stroke-linecap="round" stroke-linejoin="round"/></svg>