<svg id="f642c984-9178-4fd9-bf75-5ef00365dfc9" data-name="Calque 1" xmlns="http://www.w3.org/2000/svg" viewBox="0 0 1058.04 606.64"><defs><style>.a4587370-5572-4e0c-a781-d15d6b6a5995,.a518f339-e77e-4b07-b2fd-f63a5e720fc8,.a5e68236-6727-48ae-ae39-420deca2919b,.b7048529-058c-49ff-b2b0-b861bf81f972,.be2344fa-0c8f-44b9-a77e-94624399a316{fill:none;}.a518f339-e77e-4b07-b2fd-f63a5e720fc8{stroke:#000091;stroke-miterlimit:10;stroke-width:13px;}.a25e09cf-c6bf-4d28-9d2b-02380ccd1d7b{fill:#66cdba;}.a4587370-5572-4e0c-a781-d15d6b6a5995,.a5e68236-6727-48ae-ae39-420deca2919b{stroke:#fed042;}.a4587370-5572-4e0c-a781-d15d6b6a5995,.a5e68236-6727-48ae-ae39-420deca2919b,.b7048529-058c-49ff-b2b0-b861bf81f972,.be2344fa-0c8f-44b9-a77e-94624399a316{stroke-linecap:round;stroke-linejoin:round;}.a5e68236-6727-48ae-ae39-420deca2919b,.be2344fa-0c8f-44b9-a77e-94624399a316{stroke-width:15.04px;}.b7048529-058c-49ff-b2b0-b861bf81f972,.be2344fa-0c8f-44b9-a77e-94624399a316{stroke:#ff8d7e;}.a4587370-5572-4e0c-a781-d15d6b6a5995,.b7048529-058c-49ff-b2b0-b861bf81f972{stroke-width:15.04px;}</style></defs><g id="be1198d0-c9fa-4d55-a71b-365a37a7bbfc" data-name="HOME picto collectivités"><g id="a2219c90-5775-4081-b3f2-d23817d8c5eb" data-name="Groupe 1591"><path id="b90780d2-9038-4b6f-8597-f9257919cb7c" data-name="Tracé 6255" class="a518f339-e77e-4b07-b2fd-f63a5e720fc8" d="M708,442.08l-34.25-43.75A46.15,46.15,0,0,1,664,369.88V273.24h0A126.19,126.19,0,0,0,560.7,150.79V134.31h0c0-.26,0-.5,0-.77a22.88,22.88,0,0,0-45.76,0c0,.26,0,.5,0,.77h0v16.48A126.2,126.2,0,0,0,411.69,273.24h0v96.64a46.14,46.14,0,0,1-9.81,28.45l-34.26,43.75A9.53,9.53,0,0,0,375.5,457H700.2A9.52,9.52,0,0,0,708,442.08Z"/><path id="b6ca05aa-f233-49d6-b2e9-15e404a0becf" data-name="Tracé 6256" class="a518f339-e77e-4b07-b2fd-f63a5e720fc8" d="M498.58,477.52a39.21,39.21,0,0,0,78.41,0"/></g><g id="f12c64fa-940a-4e68-a09b-5778a0635b07" data-name="Groupe 1587"><path id="ad044d52-d645-4295-ad62-bfe3c02940b3" data-name="Tracé 6257" class="a25e09cf-c6bf-4d28-9d2b-02380ccd1d7b" d="M344.15,355.12a9.66,9.66,0,0,1-6.84-2.84,126,126,0,0,1,0-178,9.68,9.68,0,0,1,13.93,13.44L351,188a106.65,106.65,0,0,0,0,150.65,9.68,9.68,0,0,1-6.84,16.52Z"/><path id="b2b92844-97da-4735-bec1-597024d02144" data-name="Tracé 6258" class="a25e09cf-c6bf-4d28-9d2b-02380ccd1d7b" d="M374.29,324.47a9.59,9.59,0,0,1-6.84-2.83,82.54,82.54,0,0,1,0-116.74,9.68,9.68,0,0,1,13.68,13.69,63.18,63.18,0,0,0,0,89.35v0a9.68,9.68,0,0,1-6.84,16.51Z"/><g id="a380d407-1e4b-4924-a046-a8b9e6a1c984" data-name="Groupe 1586"><path id="f2cbfc68-9fd6-4241-87cc-c860c776dd33" data-name="Tracé 6259" class="a25e09cf-c6bf-4d28-9d2b-02380ccd1d7b" d="M730.86,355.12A9.68,9.68,0,0,1,724,338.6,106.53,106.53,0,0,0,724,188h0A9.68,9.68,0,0,1,737.46,174l.24.24a125.86,125.86,0,0,1,0,178l0,0A9.64,9.64,0,0,1,730.86,355.12Z"/><path id="f4928e23-3e06-4549-b905-bf852d9d87bb" data-name="Tracé 6260" class="a25e09cf-c6bf-4d28-9d2b-02380ccd1d7b" d="M700.73,324.47A9.67,9.67,0,0,1,693.88,308a63.19,63.19,0,0,0,0-89.36h0a9.68,9.68,0,0,1,13.69-13.69,82.56,82.56,0,0,1,0,116.74A9.62,9.62,0,0,1,700.73,324.47Z"/></g></g><g id="b057e34f-bcb4-4227-be16-b1dc111f7207" data-name="Groupe 1605"><g id="b470b719-57ed-4579-b2d9-2232f3f6e0d8" data-name="Groupe 1606"><path id="a8736648-4498-421d-a099-05d04362b2e8" data-name="Tracé 4082" class="a5e68236-6727-48ae-ae39-420deca2919b" d="M930.44,102.63l35.69,16.19L942.52,150"/><path id="a996acfb-33b3-4ae4-a877-772b87adb88d" data-name="Tracé 577" class="a5e68236-6727-48ae-ae39-420deca2919b" d="M964.19,119.25C913.05,128,858.7,144.74,819,173"/></g></g><g id="bd64fa7e-faf8-4e27-8bfe-01e40b1fc46e" data-name="Groupe 1611"><g id="b8c8e6be-9aca-4a09-8920-85548bcdb3ef" data-name="Groupe 1606-2"><path id="a1fd46c4-f00c-4fff-9404-4c0792fc587f" data-name="Tracé 4082-2" class="be2344fa-0c8f-44b9-a77e-94624399a316" d="M138.42,102.63l-35.68,16.19L126.35,150"/><path id="b88c5101-d16e-472b-b10e-e7a82cc01fcb" data-name="Tracé 577-2" class="be2344fa-0c8f-44b9-a77e-94624399a316" d="M104.68,119.27C155.82,128,210.17,144.74,249.92,173"/></g></g><g id="af05cab7-7d37-492d-a33c-c557dcdc1d8f" data-name="Groupe 1609"><g id="b6c73f7b-d904-455a-8a04-bfb0c79b2c99" data-name="Groupe 1606-3"><path id="b0489357-e080-4738-ade2-dcf924e36510" data-name="Tracé 4082-3" class="b7048529-058c-49ff-b2b0-b861bf81f972" d="M945.59,368.19l8.55,38.24-39.08-.11"/><path id="e9197b76-8a88-4bd2-be06-db5fa64f251a" data-name="Tracé 577-3" class="b7048529-058c-49ff-b2b0-b861bf81f972" d="M952.63,405.14c-37.77-35.57-83.85-68.91-130.35-83.64"/></g></g><g id="e1074b34-d91b-4306-adda-357a4f29644d" data-name="Groupe 1610"><g id="bb42e940-9e06-46cd-a6fb-92d61620cd7a" data-name="Groupe 1606-4"><path id="e4df8c6b-e703-457e-9c3f-8b9d3859565e" data-name="Tracé 4082-4" class="a4587370-5572-4e0c-a781-d15d6b6a5995" d="M123.28,368.18l-8.54,38.25,39.09-.11"/><path id="b0170dc9-9165-483c-871d-e6234171269b" data-name="Tracé 577-4" class="a4587370-5572-4e0c-a781-d15d6b6a5995" d="M116.26,405.15c37.76-35.59,83.83-68.92,130.36-83.64"/></g></g></g></svg>