<svg xmlns="http://www.w3.org/2000/svg" width="175.184" height="85.565" viewBox="0 0 46.351 22.639"><path class="st6" d="M32.343 18.326l-1.8-2.301a2.38 2.38 0 01-.528-1.509V9.41h0a6.676 6.676 0 00-5.45-6.456v-.873h0v-.053c0-.661-.556-1.217-1.218-1.217-.661 0-1.19.53-1.217 1.217v.053h0v.873a6.676 6.676 0 00-5.45 6.456h0v5.106a2.38 2.38 0 01-.53 1.509l-1.799 2.301a.48.48 0 00.133.688c.079.053.185.08.29.08H31.92a.52.52 0 00.502-.503.51.51 0 00-.08-.265zM21.283 20.179c0 1.137.926 2.063 2.064 2.063a2.066 2.066 0 002.064-2.063" fill="none" stroke="#3a3188" stroke-width=".794" stroke-miterlimit="10"/><path class="st2" d="M13.134 13.723a.522.522 0 01-.37-.159 6.643 6.643 0 010-9.393.481.481 0 01.714 0c.185.212.212.53 0 .715a5.605 5.605 0 000 7.937c.212.212.212.53 0 .715a.386.386 0 01-.344.185z" fill="#59bbab" stroke-width=".265"/><path class="st2" d="M14.722 12.109a.522.522 0 01-.37-.159 4.376 4.376 0 010-6.165c.21-.185.528-.185.714 0 .185.185.185.503 0 .715a3.338 3.338 0 000 4.71c.211.21.211.528 0 .714-.08.132-.186.185-.344.185zM33.534 13.723a.502.502 0 01-.503-.503c0-.132.053-.265.159-.37a5.605 5.605 0 000-7.938.481.481 0 010-.714.481.481 0 01.714 0 6.643 6.643 0 010 9.392.523.523 0 01-.37.133z" fill="#59bbab" stroke-width=".265"/><path d="M31.946 12.109a.502.502 0 01-.503-.503c0-.132.053-.265.16-.37a3.338 3.338 0 000-4.71c-.186-.212-.186-.53 0-.714.184-.186.502-.186.713 0a4.376 4.376 0 010 6.164.573.573 0 01-.37.133z" class="st2" fill="#59bbab" stroke-width=".265"/><path d="M44.064.4l1.89.845-1.244 1.643M45.855 1.291c-2.685.468-5.56 1.35-7.67 2.838" class="st7" fill="none" stroke="#fcb40a" stroke-width=".794" stroke-linecap="round" stroke-linejoin="round"/><path d="M2.286.41l-1.89.845L1.642 2.9M.5 1.276c2.686.468 5.56 1.35 7.67 2.838M44.877 14.406l.462 2.017-2.061-.004M45.243 16.372c-1.99-1.863-4.424-3.627-6.883-4.416" class="st8" fill="none" stroke="#db1c83" stroke-width=".794" stroke-linecap="round" stroke-linejoin="round"/><path d="M1.495 14.416l-.462 2.018 2.061-.004M1.112 16.363c1.99-1.862 4.424-3.627 6.882-4.416" class="st7" fill="none" stroke="#fcb40a" stroke-width=".794" stroke-linecap="round" stroke-linejoin="round"/></svg>