<svg xmlns="http://www.w3.org/2000/svg" width="193.6" height="85.96" viewBox="0 0 51.223 22.744"><path d="M22.49 19.56a1.897 1.897 0 01-1.905-1.905c0-1.059.846-1.905 1.905-1.905 1.058 0 1.905.846 1.905 1.905a1.897 1.897 0 01-1.905 1.905z" class="st0" fill="#db1c83" stroke-width=".265"/><path d="M22.49 15.935c-.953 0-1.72.767-1.72 1.72 0 .952.767 1.72 1.72 1.72.952 0 1.72-.768 1.72-1.72 0-.953-.768-1.72-1.72-1.72m0-.397c1.164 0 2.116.952 2.116 2.117a2.123 2.123 0 01-2.116 2.116 2.123 2.123 0 01-2.117-2.116c0-1.165.952-2.117 2.117-2.117zM41.526 13.739a1.146 1.146 0 01-1.138-1.138 1.13 1.13 0 011.138-1.138 1.13 1.13 0 011.137 1.138 1.13 1.13 0 01-1.137 1.138z" class="st0" fill="#db1c83" stroke-width=".265"/><path d="M41.526 11.701a.937.937 0 00-.926.927c0 .502.423.926.926.926a.937.937 0 00.926-.926.937.937 0 00-.926-.927m0-.396c.74 0 1.322.582 1.322 1.323a1.31 1.31 0 01-1.322 1.322 1.31 1.31 0 01-1.323-1.322c0-.741.582-1.323 1.323-1.323zM12.157 6.86a1.146 1.146 0 01-1.138-1.138 1.13 1.13 0 011.138-1.138 1.13 1.13 0 011.138 1.138 1.13 1.13 0 01-1.138 1.138z" class="st0" fill="#db1c83" stroke-width=".265"/><path d="M12.157 4.822a.937.937 0 00-.926.926c0 .503.423.926.926.926a.937.937 0 00.926-.926.937.937 0 00-.926-.926m0-.397c.74 0 1.323.583 1.323 1.323a1.31 1.31 0 01-1.323 1.323 1.31 1.31 0 01-1.323-1.323c0-.74.582-1.323 1.323-1.323z" class="st0" fill="#db1c83" stroke-width=".265"/><path class="st1" d="M24.606 11.377c.82 0 1.508.688 1.508 1.508 0 .82-.688 1.508-1.508 1.508-.82 0-1.508-.688-1.508-1.508a1.49 1.49 0 011.508-1.508z" fill="#fcb40a" stroke-width=".265"/><path class="st1" fill="#fcb40a" stroke-width=".265" d="M24.527 11.986h.185v1.826h-.185zM9.472 16.59a2.603 2.603 0 012.593 2.619 2.597 2.597 0 01-2.593 2.593 2.597 2.597 0 01-2.593-2.593 2.603 2.603 0 012.593-2.62z"/><path class="st2" d="M27.517 13.944a2.654 2.654 0 012.646 2.645 2.654 2.654 0 01-2.646 2.646 2.654 2.654 0 01-2.646-2.646 2.654 2.654 0 012.646-2.645zM49.953 7.594a1.27 1.27 0 010 2.54c-.688 0-1.27-.583-1.27-1.27 0-.688.582-1.27 1.27-1.27zM1.826 4.419A1.83 1.83 0 013.65 6.244 1.83 1.83 0 011.826 8.07 1.83 1.83 0 010 6.244 1.83 1.83 0 011.826 4.42z" fill="#59bbab" stroke-width=".265"/><path d="M29.607 6.824V5.607c0-.635.45-1.164.979-1.164.529 0 .979.53.979 1.164v6.615M27.649 9.1V6.665c0-.635.45-1.164.979-1.164.53 0 .979.53.979 1.164v5.583" class="st3" fill="none" stroke="#3a3188" stroke-width=".661" stroke-linecap="round" stroke-linejoin="round"/><path d="M25.876 10.449V8.835c0-.582.397-1.058.9-1.058s.9.476.9 1.058v2.222M27.41 22.408c0-.344-.026-1.243-.052-1.508M32.226 22.408c0-2.037 1.19-3.07 1.958-4.313 1.588-2.566 1.402-3.016 1.932-4.577.45-1.376 1.084-2.804.29-3.175-.581-.264-1.507.609-2.169 2.276-.423 1.11-.582 1.481-.847 2.222a1.019 1.019 0 01-.608.582c-.609.212-1.64.74-1.852 1.984" class="st3" fill="none" stroke="#3a3188" stroke-width=".661" stroke-linecap="round" stroke-linejoin="round"/><path d="M31.565 7.195c0-.635.45-1.165.979-1.165.529 0 .979.53.979 1.165v7.223M20.135 6.824V5.607c0-.635-.45-1.164-.98-1.164-.528 0-.978.53-.978 1.164v6.615" class="st3" fill="none" stroke="#3a3188" stroke-width=".661" stroke-linecap="round" stroke-linejoin="round"/><path d="M22.093 9.1V6.665c0-.635-.45-1.164-.98-1.164-.528 0-.978.53-.978 1.164v5.583" class="st3" fill="none" stroke="#3a3188" stroke-width=".661" stroke-linecap="round" stroke-linejoin="round"/><path d="M23.865 10.475V8.81c0-.583-.396-1.059-.9-1.059-.502 0-.899.476-.899 1.059v2.222M22.33 22.408c0-.344.027-1.243.054-1.508M17.542 22.408c0-2.037-1.19-3.07-1.958-4.313-1.588-2.566-1.402-3.016-1.931-4.577-.45-1.376-1.085-2.804-.292-3.175.583-.264 1.509.609 2.17 2.276.423 1.11.582 1.481.847 2.222.106.265.317.476.608.582.609.212 1.64.74 1.852 1.984" class="st3" fill="none" stroke="#3a3188" stroke-width=".661" stroke-linecap="round" stroke-linejoin="round"/><path d="M18.177 7.195c0-.635-.45-1.165-.98-1.165-.528 0-.978.53-.978 1.165v7.223" class="st3" fill="none" stroke="#3a3188" stroke-width=".661" stroke-linecap="round" stroke-linejoin="round"/><path class="st1" d="M38.126 0c1.43 0 2.62 1.164 2.62 2.593a2.625 2.625 0 01-2.62 2.62c-1.455 0-2.592-1.165-2.592-2.62A2.58 2.58 0 0138.126 0z" fill="#fcb40a" stroke-width=".265"/></svg>