<?xml version="1.0" encoding="UTF-8" standalone="no"?>
<!-- Created with Inkscape (http://www.inkscape.org/) -->

<svg
   xmlns:dc="http://purl.org/dc/elements/1.1/"
   xmlns:cc="http://creativecommons.org/ns#"
   xmlns:rdf="http://www.w3.org/1999/02/22-rdf-syntax-ns#"
   xmlns:svg="http://www.w3.org/2000/svg"
   xmlns="http://www.w3.org/2000/svg"
   xmlns:sodipodi="http://sodipodi.sourceforge.net/DTD/sodipodi-0.dtd"
   xmlns:inkscape="http://www.inkscape.org/namespaces/inkscape"
   width="46.350685mm"
   height="22.639174mm"
   viewBox="0 0 46.350686 22.639174"
   version="1.1"
   id="svg2868"
   inkscape:version="0.92.4 (5da689c313, 2019-01-14)"
   sodipodi:docname="home_steps_3.svg">
  <defs
     id="defs2862" />
  <sodipodi:namedview
     id="base"
     pagecolor="#ffffff"
     bordercolor="#666666"
     borderopacity="1.0"
     inkscape:pageopacity="0.0"
     inkscape:pageshadow="2"
     inkscape:zoom="0.35"
     inkscape:cx="-1764.1224"
     inkscape:cy="501.69339"
     inkscape:document-units="mm"
     inkscape:current-layer="layer1"
     showgrid="false"
     inkscape:window-width="2560"
     inkscape:window-height="1376"
     inkscape:window-x="0"
     inkscape:window-y="27"
     inkscape:window-maximized="1" />
  <metadata
     id="metadata2865">
    <rdf:RDF>
      <cc:Work
         rdf:about="">
        <dc:format>image/svg+xml</dc:format>
        <dc:type
           rdf:resource="http://purl.org/dc/dcmitype/StillImage" />
        <dc:title></dc:title>
      </cc:Work>
    </rdf:RDF>
  </metadata>
  <g
     inkscape:label="Calque 1"
     inkscape:groupmode="layer"
     id="layer1"
     transform="translate(-395.31989,-258.93387)">
    <path
       id="Tracé_6255"
       class="st6"
       d="m 427.66283,277.26034 -1.79917,-2.30188 c -0.34396,-0.42333 -0.52917,-0.9525 -0.52917,-1.50812 v -5.10646 0 c -0.0529,-3.175 -2.32833,-5.87375 -5.45041,-6.45584 v -0.87312 0 c 0,-0.0265 0,-0.0265 0,-0.0529 0,-0.66146 -0.55563,-1.21708 -1.21709,-1.21708 -0.66146,0 -1.19062,0.52917 -1.21708,1.21708 0,0.0265 0,0.0265 0,0.0529 v 0 0.87312 c -3.12208,0.58209 -5.3975,3.28084 -5.45042,6.45584 v 0 5.10646 c 0,0.55562 -0.18521,1.08479 -0.52916,1.50812 l -1.79917,2.30188 c -0.15875,0.23812 -0.10583,0.52916 0.13229,0.68791 0.0794,0.0529 0.18521,0.0794 0.29104,0.0794 h 17.145 c 0.26459,0 0.50271,-0.23813 0.50271,-0.50271 0,-0.0794 -0.0265,-0.18521 -0.0794,-0.26458 z"
       inkscape:connector-curvature="0"
       style="fill:none;stroke:#3a3188;stroke-width:0.79374999;stroke-miterlimit:10" />
    <path
       id="Tracé_6256"
       class="st6"
       d="m 416.60324,279.11242 c 0,1.13771 0.92604,2.06375 2.06375,2.06375 1.13771,0 2.06375,-0.92604 2.06375,-2.06375"
       inkscape:connector-curvature="0"
       style="fill:none;stroke:#3a3188;stroke-width:0.79374999;stroke-miterlimit:10" />
    <path
       id="Tracé_6257"
       class="st2"
       d="m 408.45408,272.65659 c -0.1323,0 -0.26459,-0.0529 -0.37042,-0.15875 -2.59292,-2.59292 -2.59292,-6.7998 0,-9.39271 0.18521,-0.21167 0.52917,-0.21167 0.71437,0 0.18521,0.21166 0.21167,0.52916 0,0.71437 0,0 0,0 0,0 -2.19604,2.19604 -2.19604,5.74146 0,7.9375 0.21167,0.21167 0.21167,0.52917 0,0.71438 -0.0794,0.13229 -0.21166,0.18521 -0.34395,0.18521 z"
       inkscape:connector-curvature="0"
       style="fill:#59bbab;stroke-width:0.26458332" />
    <path
       id="Tracé_6258"
       class="st2"
       d="m 410.04158,271.04263 c -0.1323,0 -0.26459,-0.0529 -0.37042,-0.15875 -1.69333,-1.69334 -1.69333,-4.47146 0,-6.16479 0.21167,-0.18521 0.52917,-0.18521 0.71437,0 0.18521,0.1852 0.18521,0.5027 0,0.71437 -1.29645,1.29646 -1.29645,3.41313 0,4.70958 0,0 0,0 0,0 0.21167,0.21167 0.21167,0.52917 0,0.71438 -0.0794,0.13229 -0.1852,0.18521 -0.34395,0.18521 z"
       inkscape:connector-curvature="0"
       style="fill:#59bbab;stroke-width:0.26458332" />
    <path
       style="fill:#59bbab;stroke-width:0.26458332"
       inkscape:connector-curvature="0"
       d="m 428.85345,272.65659 c -0.29104,0 -0.50271,-0.23813 -0.50271,-0.50271 0,-0.13229 0.0529,-0.26459 0.15875,-0.37042 2.19604,-2.19604 2.19604,-5.74146 0,-7.9375 0,0 0,0 0,0 -0.21166,-0.18521 -0.21166,-0.52917 0,-0.71437 0.18521,-0.21167 0.52917,-0.21167 0.71438,0 0,0 0,0 0,0 2.59291,2.59291 2.59291,6.79979 0,9.3927 0,0 0,0 0,0 -0.0794,0.0794 -0.21167,0.1323 -0.37042,0.1323 z"
       class="st2"
       id="Tracé_6259" />
    <path
       style="fill:#59bbab;stroke-width:0.26458332"
       inkscape:connector-curvature="0"
       d="m 427.26595,271.04263 c -0.29104,0 -0.50271,-0.23813 -0.50271,-0.50271 0,-0.13229 0.0529,-0.26458 0.15875,-0.37042 1.29646,-1.29646 1.29646,-3.41312 0,-4.70958 0,0 0,0 0,0 -0.18521,-0.21167 -0.18521,-0.52917 0,-0.71438 0.18521,-0.1852 0.50271,-0.1852 0.71438,0 1.69333,1.69334 1.69333,4.47146 0,6.1648 -0.10584,0.0794 -0.21167,0.13229 -0.37042,0.13229 z"
       class="st2"
       id="Tracé_6260" />
    <path
       style="fill:none;stroke:#fcb40a;stroke-width:0.79374999;stroke-linecap:round;stroke-linejoin:round"
       inkscape:connector-curvature="0"
       d="m 439.38432,259.33308 1.8894,0.84564 -1.24386,1.64337"
       class="st7"
       id="Tracé_4082" />
    <path
       style="fill:none;stroke:#fcb40a;stroke-width:0.79374999;stroke-linecap:round;stroke-linejoin:round"
       inkscape:connector-curvature="0"
       d="m 441.17488,260.22489 c -2.68523,0.46805 -5.55951,1.3502 -7.6691,2.8384"
       class="st7"
       id="Tracé_577" />
    <path
       style="fill:none;stroke:#db1c83;stroke-width:0.79374999;stroke-linecap:round;stroke-linejoin:round"
       inkscape:connector-curvature="0"
       d="m 397.60615,259.34369 -1.88941,0.84565 1.24387,1.64337"
       class="st8"
       id="Tracé_4082-2" />
    <path
       style="fill:none;stroke:#db1c83;stroke-width:0.79374999;stroke-linecap:round;stroke-linejoin:round"
       inkscape:connector-curvature="0"
       d="m 395.82063,260.20953 c 2.68524,0.46805 5.55952,1.3502 7.66911,2.8384"
       class="st8"
       id="Tracé_577-2" />
    <path
       style="fill:none;stroke:#db1c83;stroke-width:0.79374999;stroke-linecap:round;stroke-linejoin:round"
       inkscape:connector-curvature="0"
       d="m 440.19715,273.33943 0.46171,2.01787 -2.06103,-0.004"
       class="st8"
       id="Tracé_4082-3" />
    <path
       style="fill:none;stroke:#db1c83;stroke-width:0.79374999;stroke-linecap:round;stroke-linejoin:round"
       inkscape:connector-curvature="0"
       d="m 440.5625,275.30614 c -1.98981,-1.86284 -4.42411,-3.62745 -6.88223,-4.41662"
       class="st8"
       id="Tracé_577-3" />
    <path
       style="fill:none;stroke:#fcb40a;stroke-width:0.79374999;stroke-linecap:round;stroke-linejoin:round"
       inkscape:connector-curvature="0"
       d="m 396.8146,273.35031 -0.46171,2.01787 2.06103,-0.004"
       class="st7"
       id="Tracé_4082-4" />
    <path
       style="fill:none;stroke:#fcb40a;stroke-width:0.79374999;stroke-linecap:round;stroke-linejoin:round"
       inkscape:connector-curvature="0"
       d="m 396.43154,275.29736 c 1.98982,-1.86284 4.42411,-3.62746 6.88223,-4.41662"
       class="st7"
       id="Tracé_577-4" />
  </g>
</svg>
