<?xml version="1.0" encoding="UTF-8"?>
<!-- Generator: Adobe Illustrator 22.1.0, SVG Export Plug-In . SVG Version: 6.00 Build 0)  -->
<svg version="1.1" xmlns="http://www.w3.org/2000/svg" xmlns:xlink="http://www.w3.org/1999/xlink" x="0px" y="0px" viewBox="0 0 311.6 186.5" style="enable-background:new 0 0 311.6 186.5;" xml:space="preserve">
<style type="text/css">
	.st0{fill:#FFFFFF;}
	.st1{fill:#000091;}
	.st2{fill:#E1000F;}
	.st3{fill:#9C9B9B;}
</style>
<g id="Fond">
	<rect x="0" class="st0" width="311.6" height="186.5"/>
</g>
<g id="Calque_1">
	<path id="Devise_Républicaine_1_" d="M100.5,150.8c0.6,0,1.1,0.4,0.8,1.5l-2.7,0.6C99.1,151.8,99.9,150.8,100.5,150.8 M102,155.2   h-0.5c-0.7,0.8-1.4,1.4-2.1,1.4c-0.7,0-1.1-0.4-1.1-1.4c0-0.4,0-0.8,0.1-1.2l4.3-1.4c0.8-2-0.2-2.9-1.4-2.9c-2,0-4.4,3.4-4.4,6.4   c0,1.3,0.6,2.1,1.6,2.1C99.8,158.2,101,157,102,155.2 M101.2,148.9l3-2.8v-0.3h-1.6l-1.9,3.2H101.2z M91.9,150.9h1.4l-2.3,6.2   c-0.2,0.5,0.1,1.1,0.6,1.1c1.3,0,3.4-1.3,4.1-3h-0.4c-0.6,0.6-1.7,1.4-2.6,1.6l2.1-5.8h2.1l0.3-0.9h-2.1l0.8-2.2h-0.8l-1.5,2.2   l-1.8,0.2V150.9z M89.9,150.6c0.2-0.6-0.2-0.9-0.5-0.9c-1.2,0-2.7,1.1-3.3,2.7h0.4c0.4-0.6,1.1-1.2,1.7-1.3l-2.4,6.2   c-0.2,0.6,0.2,0.9,0.5,0.9c1.2,0,2.6-1.1,3.2-2.7h-0.4c-0.4,0.6-1.1,1.2-1.7,1.3L89.9,150.6z M90.4,147.5c0.6,0,1-0.5,1-1   c0-0.6-0.5-1-1-1c-0.6,0-1,0.5-1,1C89.3,147,89.8,147.5,90.4,147.5 M76.6,157c-0.3,0.7,0,1.2,0.7,1.2c0.4,0,0.6-0.1,0.8-0.6   l1.7-4.4c0.8-0.9,2.3-1.9,3-1.9c0.5,0,0.4,0.4,0.1,0.9l-2.5,4.9c-0.2,0.5,0.1,1.1,0.6,1.1c1.2,0,2.7-1.1,3.3-2.7h-0.4   c-0.4,0.6-1.1,1.2-1.7,1.3l2.2-4.4c0.3-0.6,0.4-1.1,0.4-1.5c0-0.7-0.4-1.2-1.2-1.2c-1.1,0-2.2,1.2-3.5,2.7v-1.2   c0-0.8-0.3-1.6-1-1.6c-0.5,0-0.9,0.4-1.3,1v0.2c0.8,0,1.2,1.2,0.6,2.4L76.6,157z M76.6,151.6c0.3-1,0.1-1.9-0.6-1.9   c-0.9,0-1.2,0.7-2.1,2.7v-1.2c0-0.8-0.3-1.6-1-1.6c-0.9,0-1.7,1.4-2.3,2.7H71c0.4-0.6,0.8-1,1.1-1c0.4,0,0.6,0.6,0,1.9l-1.7,3.7   c-0.3,0.7,0,1.2,0.7,1.2c0.4,0,0.6-0.1,0.8-0.6l1.7-4.4c0.5-0.6,0.9-1.1,1.4-1.6H76.6z M67,150.8c0.6,0,1.1,0.4,0.8,1.5l-2.7,0.6   C65.6,151.8,66.4,150.8,67,150.8 M68.5,155.2H68c-0.7,0.8-1.4,1.4-2.1,1.4c-0.7,0-1.1-0.4-1.1-1.4c0-0.4,0-0.8,0.1-1.2l4.3-1.4   c0.8-2-0.2-2.9-1.4-2.9c-2,0-4.4,3.4-4.4,6.4c0,1.3,0.6,2.1,1.6,2.1C66.3,158.2,67.5,157,68.5,155.2 M58.3,150.9h1.4l-2.3,6.2   c-0.2,0.5,0.1,1.1,0.6,1.1c1.3,0,3.4-1.3,4.1-3h-0.4c-0.6,0.6-1.7,1.4-2.6,1.6l2.1-5.8h2.1l0.3-0.9h-2.1l0.8-2.2h-0.8l-1.5,2.2   l-1.8,0.2V150.9z M50.5,155.7c0-1.9,2.1-4.5,3.3-4.5c0.3,0,0.5,0,0.7,0.1l-1.2,3.3c-0.7,0.9-1.8,1.9-2.3,1.9   C50.7,156.6,50.5,156.3,50.5,155.7 M57,149.3l-0.7,0l-0.7,0.7h-0.2c-3.6,0-6.6,4-6.6,6.9c0,0.8,0.5,1.3,1.3,1.3   c0.9,0,1.8-1.3,2.8-2.7l0,0.5c-0.1,1.4,0.3,2.2,1.1,2.2c0.9,0,1.7-1.4,2.3-2.7h-0.4c-0.4,0.6-0.8,1-1.1,1c-0.3,0-0.6-0.6,0-1.9   L57,149.3z M49.5,151.6c0.3-1,0.1-1.9-0.6-1.9c-0.9,0-1.2,0.7-2.1,2.7v-1.2c0-0.8-0.3-1.6-1-1.6c-0.9,0-1.7,1.4-2.3,2.7h0.4   c0.4-0.6,0.8-1,1.1-1c0.4,0,0.6,0.6,0,1.9l-1.7,3.7c-0.3,0.7,0,1.2,0.7,1.2c0.4,0,0.6-0.1,0.8-0.6l1.7-4.4c0.5-0.6,0.9-1.1,1.4-1.6   H49.5z M37.5,157.9l0.2-0.5c-2.1-0.4-2.3-0.4-1.5-2.6l0.8-2.3h2.3c1,0,1,0.4,0.9,1.5h0.6l1.4-3.8h-0.6c-0.5,0.9-0.9,1.5-2,1.5h-2.3   l1.2-3.3c0.4-1,0.6-1.3,2-1.3h1c1.4,0,1.6,0.4,1.6,1.9h0.6l0.5-2.6h-8.6l-0.2,0.5c1.7,0.3,1.8,0.5,1,2.6l-1.9,5.1   c-0.8,2.1-1.1,2.3-3,2.6l-0.1,0.5H37.5z M79.7,131.4c0.6,0,1.1,0.4,0.8,1.5l-2.7,0.6C78.3,132.3,79.1,131.4,79.7,131.4 M81.2,135.7   h-0.5c-0.7,0.8-1.4,1.4-2.1,1.4c-0.7,0-1.1-0.4-1.1-1.4c0-0.4,0-0.8,0.1-1.2l4.3-1.4c0.8-2-0.2-2.9-1.4-2.9c-2,0-4.4,3.4-4.4,6.4   c0,1.3,0.6,2.1,1.6,2.1C79,138.7,80.2,137.6,81.2,135.7 M80.3,129.4l3-2.8v-0.3h-1.6l-1.9,3.2H80.3z M71,131.4h1.4l-2.3,6.2   c-0.2,0.5,0.1,1.1,0.6,1.1c1.3,0,3.4-1.3,4.1-3h-0.4c-0.6,0.6-1.7,1.4-2.6,1.6l2.1-5.8h2.1l0.3-0.9h-2.1l0.8-2.2h-0.8l-1.5,2.2   l-1.8,0.2V131.4z M69.1,131.1c0.2-0.6-0.2-0.9-0.5-0.9c-1.2,0-2.7,1.1-3.3,2.7h0.4c0.4-0.6,1.1-1.2,1.7-1.3l-2.4,6.2   c-0.2,0.6,0.2,0.9,0.5,0.9c1.2,0,2.6-1.1,3.2-2.7h-0.4c-0.4,0.6-1.1,1.2-1.7,1.3L69.1,131.1z M69.5,128c0.6,0,1-0.5,1-1   c0-0.6-0.5-1-1-1c-0.6,0-1,0.5-1,1C68.5,127.6,68.9,128,69.5,128 M61.2,137.3l4.3-11.4l-0.1-0.2l-2.7,0.3v0.3l0.5,0.4   c0.5,0.4,0.3,0.7-0.1,1.9l-3.4,8.9c-0.2,0.5,0.1,1.1,0.6,1.1c1.2,0,2.6-1.1,3.2-2.7h-0.4C62.7,136.6,61.8,137.2,61.2,137.3    M53,136.3c0-1.9,2.1-4.5,3.3-4.5c0.3,0,0.5,0,0.7,0.1l-1.2,3.3c-0.7,0.9-1.8,1.9-2.3,1.9C53.1,137.1,53,136.8,53,136.3    M59.5,129.9l-0.7,0l-0.7,0.7H58c-3.6,0-6.6,4-6.6,6.9c0,0.8,0.5,1.3,1.3,1.3c0.9,0,1.8-1.3,2.8-2.7l0,0.5   c-0.1,1.4,0.3,2.2,1.1,2.2c0.9,0,1.7-1.4,2.3-2.7h-0.4c-0.4,0.6-0.8,1-1.1,1c-0.3,0-0.6-0.6,0-1.9L59.5,129.9z M43.7,140.2   c0-0.8,0.8-1.3,1.9-1.8c0.4,0.2,0.9,0.4,1.7,0.6c1.2,0.4,1.6,0.5,1.6,0.9c0,0.8-1.3,1.3-3.1,1.3C44.4,141.3,43.7,141,43.7,140.2    M46.9,135.2c-0.5,0-0.7-0.4-0.7-0.9c0-1.4,0.7-3.4,1.9-3.4c0.5,0,0.7,0.4,0.7,0.9C48.8,133.1,48,135.2,46.9,135.2 M50.3,139.4   c0-1-0.9-1.4-2.3-1.8c-1.2-0.4-1.8-0.5-1.8-0.9c0-0.3,0.3-0.7,0.8-1c2-0.1,3.4-1.9,3.4-3.5c0-0.3-0.1-0.6-0.2-0.9h1.7l0.3-0.9h-2.7   c-0.3-0.2-0.7-0.3-1.1-0.3c-2.2,0-3.6,1.9-3.6,3.4c0,1.2,0.7,1.9,1.7,2.1c-1,0.5-1.6,1-1.6,1.6c0,0.4,0.1,0.6,0.4,0.8   c-2.3,0.7-3.3,1.5-3.3,2.6c0,1.1,1.4,1.5,3.1,1.5C47.9,142.3,50.3,140.7,50.3,139.4 M39.4,132.8c1,0,1,0.4,0.9,1.5h0.6l1.4-3.8   h-0.6c-0.5,0.9-0.9,1.5-2,1.5h-2.3l1.1-3.1c0.4-1,0.6-1.2,2-1.2h1c1.4,0,1.6,0.4,1.6,1.8h0.6l0.5-2.6h-8.6l-0.2,0.5   c1.7,0.3,1.8,0.5,1,2.6l-1.9,5.1c-0.8,2.1-1.1,2.3-3,2.6l-0.1,0.5H41l1.7-2.7H42c-1.1,1-2.5,2-4.4,2c-2.5,0-2.3-0.1-1.5-2.4   l0.9-2.5H39.4z M40.6,126.2l3-2.1v-0.3h-1.8l-1.7,2.4H40.6z M78.7,111.9c0.6,0,1.1,0.4,0.8,1.5l-2.7,0.6   C77.3,112.8,78,111.9,78.7,111.9 M80.2,116.2h-0.5c-0.7,0.8-1.4,1.4-2.1,1.4c-0.7,0-1.1-0.4-1.1-1.4c0-0.4,0-0.8,0.1-1.2l4.3-1.4   c0.8-2-0.2-2.9-1.4-2.9c-2,0-4.4,3.4-4.4,6.4c0,1.3,0.6,2.1,1.6,2.1C77.9,119.2,79.2,118.1,80.2,116.2 M79.3,110l3-2.8v-0.3h-1.6   l-1.9,3.2H79.3z M70.4,111.9h1.1l-2.3,6.2c-0.2,0.5,0.1,1.1,0.6,1.1c1.3,0,3.4-1.3,4.1-3h-0.4c-0.6,0.6-1.7,1.4-2.6,1.6l2.1-5.8   h2.1l0.3-0.9h-2.1l0.8-2.2h-0.8l-1.5,2.2l-1.5,0.2V111.9z M69.2,112.6c0.3-1,0.1-1.9-0.6-1.9c-0.9,0-1.2,0.7-2.1,2.7v-1.2   c0-0.8-0.3-1.6-1-1.6c-0.9,0-1.7,1.4-2.3,2.7h0.4c0.4-0.6,0.8-1,1.1-1c0.4,0,0.6,0.6,0,1.9l-1.7,3.7c-0.3,0.7,0,1.2,0.7,1.2   c0.4,0,0.6-0.1,0.8-0.6l1.7-4.4c0.5-0.6,0.9-1.1,1.4-1.6H69.2z M59.7,111.9c0.6,0,1.1,0.4,0.8,1.5l-2.7,0.6   C58.3,112.8,59.1,111.9,59.7,111.9 M61.2,116.2h-0.5c-0.7,0.8-1.4,1.4-2.1,1.4c-0.7,0-1.1-0.4-1.1-1.4c0-0.4,0-0.8,0.1-1.2l4.3-1.4   c0.8-2-0.2-2.9-1.4-2.9c-2,0-4.4,3.4-4.4,6.4c0,1.3,0.6,2.1,1.6,2.1C59,119.2,60.2,118.1,61.2,116.2 M50.6,118c-0.4,0-1-0.4-1-0.7   c0-0.1,0.2-0.6,0.4-1.2l0.7-1.9c0.7-0.9,1.9-1.8,2.5-1.8c0.4,0,0.7,0.2,0.7,0.8C53.9,114.9,52.3,118,50.6,118 M55.5,112.5   c0-1.3-0.5-1.7-1.3-1.7c-1.1,0-2.1,1.2-3.1,2.6l2.6-6.8l-0.1-0.2l-2.7,0.3v0.3l0.5,0.4c0.5,0.4,0.3,0.8-0.1,1.9l-2.8,7.2   c-0.2,0.5-0.5,1.2-0.5,1.3c0,0.7,1,1.4,1.9,1.4C52,119.2,55.5,115.4,55.5,112.5 M47,111.6c0.2-0.6-0.2-0.9-0.5-0.9   c-1.2,0-2.7,1.1-3.3,2.7h0.4c0.4-0.6,1.1-1.2,1.7-1.3l-2.4,6.2c-0.2,0.6,0.2,0.9,0.5,0.9c1.2,0,2.6-1.1,3.2-2.7h-0.4   c-0.4,0.6-1.1,1.2-1.7,1.3L47,111.6z M47.5,108.5c0.6,0,1-0.5,1-1c0-0.6-0.5-1-1-1c-0.6,0-1,0.5-1,1   C46.4,108.1,46.9,108.5,47.5,108.5 M41.2,107.5h-5.7l-0.2,0.5c1.7,0.3,1.8,0.5,1,2.6l-1.8,5.1c-0.8,2.1-1.1,2.3-3,2.6l-0.1,0.5H40   l1.9-3.3h-0.7c-1.1,1.2-2.3,2.6-4.2,2.6c-1.4,0-1.6-0.2-0.8-2.4l1.8-5.1c0.8-2.1,1.1-2.3,3-2.6L41.2,107.5z"/>
	<path d="M40.9,88.2c1,0,1.9-0.2,2.7-0.5c0.8-0.3,1.5-0.8,2.1-1.3v-3.5h-5.3v-3.8h9.4v8.8c-1,1.3-2.2,2.3-3.8,3.1s-3.3,1.2-5.2,1.2   c-1.7,0-3.2-0.3-4.6-0.9c-1.4-0.6-2.6-1.4-3.6-2.4c-1-1-1.8-2.1-2.3-3.5c-0.6-1.3-0.8-2.7-0.8-4.2c0-1.5,0.3-2.9,0.8-4.2   c0.5-1.3,1.3-2.5,2.2-3.5c1-1,2.1-1.8,3.5-2.4s2.8-0.9,4.5-0.9c1.9,0,3.5,0.4,5,1.2c1.5,0.8,2.7,1.8,3.7,3L46,77   c-0.6-0.8-1.3-1.5-2.3-2.1s-2-0.8-3.1-0.8c-1,0-1.9,0.2-2.7,0.5c-0.8,0.4-1.5,0.9-2.1,1.5c-0.6,0.6-1,1.4-1.4,2.2   c-0.3,0.9-0.5,1.8-0.5,2.8s0.2,1.9,0.5,2.8c0.3,0.9,0.8,1.6,1.4,2.2c0.6,0.6,1.4,1.1,2.2,1.5C39,88,39.9,88.2,40.9,88.2z M64,70.3   c1.6,0,3.1,0.3,4.4,0.9s2.5,1.4,3.5,2.4c1,1,1.7,2.1,2.2,3.5c0.5,1.3,0.8,2.7,0.8,4.2c0,1.5-0.3,2.9-0.8,4.2   c-0.5,1.3-1.3,2.5-2.2,3.5c-1,1-2.1,1.8-3.5,2.4s-2.8,0.9-4.4,0.9c-1.6,0-3.1-0.3-4.5-0.9s-2.5-1.4-3.5-2.4c-1-1-1.7-2.1-2.2-3.5   c-0.5-1.3-0.8-2.7-0.8-4.2c0-1.5,0.3-2.9,0.8-4.2c0.5-1.3,1.3-2.5,2.2-3.5c1-1,2.1-1.8,3.5-2.4S62.4,70.3,64,70.3z M64,88.2   c1,0,1.9-0.2,2.7-0.5c0.8-0.4,1.5-0.9,2.1-1.5c0.6-0.6,1-1.4,1.4-2.2s0.5-1.8,0.5-2.8s-0.2-1.9-0.5-2.8c-0.3-0.9-0.8-1.6-1.4-2.2   c-0.6-0.6-1.3-1.1-2.1-1.5c-0.8-0.4-1.7-0.5-2.7-0.5c-1,0-1.9,0.2-2.7,0.5c-0.8,0.4-1.5,0.9-2.1,1.5c-0.6,0.6-1,1.4-1.4,2.2   c-0.3,0.9-0.5,1.8-0.5,2.8s0.2,1.9,0.5,2.8c0.3,0.9,0.8,1.6,1.4,2.2c0.6,0.6,1.3,1.1,2.1,1.5C62.1,88,63,88.2,64,88.2z M91.1,83.8   V70.9h4.2v12.6c0,2.7-0.8,4.8-2.3,6.4c-1.5,1.5-3.5,2.3-6.1,2.3c-2.6,0-4.6-0.8-6.1-2.3s-2.2-3.7-2.2-6.4V70.9h4.2v12.9   c0,1.4,0.4,2.5,1.1,3.2c0.7,0.8,1.8,1.2,3.1,1.2c1.3,0,2.3-0.4,3-1.2C90.8,86.3,91.1,85.2,91.1,83.8z M97.9,70.9h4.5l6.1,16.1   l6.1-16.1h4.5l-7.8,20.7h-5.5L97.9,70.9z M122.2,91.5V70.9h12v3.6h-7.8v4.8h6.7v3.6h-6.7V88h7.8v3.6H122.2z M139.1,91.5V70.9h6.3   c2.3,0,4.1,0.6,5.4,1.7c1.3,1.1,2,2.6,2,4.5c0,1.2-0.3,2.3-0.9,3.2c-0.6,0.9-1.4,1.6-2.4,2.1l6.5,9.1h-5l-5.5-8.3h-2.2v8.3H139.1z    M145.7,74.4h-2.4v5.2h2.4c0.9,0,1.6-0.2,2.1-0.7c0.5-0.5,0.7-1.1,0.7-1.9c0-0.8-0.2-1.4-0.7-1.9C147.2,74.7,146.6,74.4,145.7,74.4   z M158.6,91.5V70.9h5.4l9.2,14.8V70.9h4.2v20.7H172l-9.2-14.8v14.8H158.6z M183.1,91.5V70.9h12v3.6h-7.8v4.8h6.7v3.6h-6.7V88h7.8   v3.6H183.1z M200,91.5V70.9h5.3l5,8.5l5-8.5h5.3v20.7h-4.2V76.8l-4.6,7.6h-3l-4.6-7.6v14.7H200z M226.3,91.5V70.9h12v3.6h-7.8v4.8   h6.7v3.6h-6.7V88h7.8v3.6H226.3z M243.2,91.5V70.9h5.4l9.2,14.8V70.9h4.2v20.7h-5.4l-9.2-14.8v14.8H243.2z M265.7,74.7v-3.8h16.9   v3.8h-6.4v16.8H272V74.7H265.7z"/>
	<g id="Marianne">
		<path id="Fond_2_" class="st0" d="M63.6,53.4c0.3-0.3,0.6-0.6,0.9-1h0c0.6-0.6,1.1-1.3,1.8-1.8c0.2-0.2,0.4-0.3,0.6-0.5    c0.1-0.1,0.1-0.2,0.1-0.2c-0.3,0.1-0.4,0.3-0.7,0.4c-0.1,0-0.1-0.1-0.1-0.1c0.2-0.1,0.4-0.3,0.6-0.4c0,0,0,0,0,0    c-0.1,0-0.1-0.1-0.1-0.1c-0.7-0.1-1.2,0.4-1.7,0.8c-0.1,0.1-0.2-0.1-0.3-0.1c-0.8,0.3-1.4,1-2.2,1.3v-0.1c-0.3,0.1-0.6,0.3-1,0.4    c-0.5,0.1-0.9,0.1-1.3,0.1c-0.6,0.1-1.3,0.2-1.9,0.3c0,0,0,0-0.1,0c-0.3,0.1-0.7,0.2-1,0.4c0,0,0,0,0,0c0,0-0.1,0.1-0.1,0.1    c-0.1,0.1-0.2,0.2-0.4,0.3c-0.3,0.2-0.6,0.5-0.9,0.7c0,0-0.1,0-0.1,0c-0.3,0.3-0.6,0.6-0.9,0.8c0,0-0.1,0-0.2,0c0,0,0,0,0,0    c0,0,0,0,0-0.1c0-0.1,0.1-0.2,0.1-0.2c0.1-0.1,0.1-0.2,0.2-0.2c0.1-0.1,0.1-0.2,0.2-0.3c0,0,0-0.1,0-0.1c0,0,0,0-0.1,0    c0.3-0.3,0.6-0.5,0.9-0.7v0c0,0-0.1,0-0.1-0.1c0,0,0.1-0.1,0.1-0.1c0,0,0,0,0,0c0,0,0,0,0,0c-0.1,0.1-0.2,0.1-0.3,0.2    c-0.1,0.1-0.2,0.4-0.4,0.3c0,0-0.1,0-0.1,0c0,0,0,0-0.1,0c0,0,0,0,0,0c0,0,0,0,0,0c0,0,0,0,0,0c0,0,0,0,0,0c0,0,0,0,0,0    c0,0,0,0,0,0c0,0,0,0,0-0.1c0,0,0,0,0,0c0,0,0-0.1,0.1-0.1c0,0,0,0,0-0.1c0,0,0-0.1,0.1-0.1c0,0,0-0.1,0-0.1    c0.1-0.1,0.2-0.2,0.4-0.3h0c0.2-0.1,0.4-0.2,0.6-0.3c0,0,0.1-0.1,0.1-0.1c-0.3,0.1-0.6,0.2-0.9,0.4c0,0-0.1,0-0.1,0    c0,0-0.1,0-0.1,0c0,0,0,0,0,0c0.1-0.1,0.2-0.2,0.3-0.3c0.1,0,0.1,0,0.1,0.1c1.7-1.3,4.1-1,6.1-1.7c0.2-0.1,0.3-0.2,0.5-0.3    c0.3-0.1,0.5-0.4,0.8-0.5c0.4-0.3,0.7-0.7,0.9-1.2c0-0.1-0.1-0.1-0.1-0.1c-0.7,0.8-1.5,1.3-2.4,1.8c-1.1,0.6-2.4,0.5-3.5,0.6    c0.1-0.1,0.2-0.1,0.3-0.1c0-0.2,0.1-0.2,0.2-0.3H59c0.1,0,0.1-0.1,0.1-0.1c0.1,0,0.3-0.1,0.2-0.1c-0.2-0.2-0.5,0.2-0.8,0    c0.1-0.1,0.1-0.3,0.2-0.3h0.2c0-0.1,0.1-0.2,0.1-0.2c0.8-0.5,1.6-0.9,2.3-1.3c-0.2,0-0.3,0.2-0.4,0.1c0.1,0,0-0.2,0.1-0.2    c0.6-0.2,1.1-0.5,1.7-0.7c-0.2,0-0.4,0.2-0.6,0c0.1-0.1,0.2-0.2,0.3-0.2v-0.2c0-0.1,0.1-0.1,0.1-0.1c-0.1,0-0.1-0.1-0.1-0.1    c0.1-0.1,0.2-0.1,0.3-0.2c-0.1,0-0.2,0-0.2-0.1c0.2-0.2,0.4-0.3,0.7-0.3c-0.1-0.1-0.2,0-0.2-0.1c0-0.1,0.1-0.1,0.1-0.1H63    c-0.1-0.1-0.1-0.2-0.1-0.2c0.3-0.4,0.3-0.9,0.5-1.3c-0.1,0-0.1,0-0.1-0.1c-0.5,0.6-1.4,0.8-2.2,1h-0.3c-0.3,0.1-0.6,0.1-0.9-0.1    c-0.2-0.1-0.3-0.3-0.5-0.4c-0.4-0.3-0.9-0.5-1.3-0.6c-1.3-0.4-2.7-0.6-4.1-0.6c0.6-0.3,1.2-0.3,1.9-0.5c0.9-0.3,1.8-0.6,2.7-0.5    c-0.2-0.1-0.4,0-0.5,0c-0.8-0.1-1.5,0.2-2.3,0.3c-0.5,0.1-1,0.3-1.6,0.4c-0.3,0.1-0.5,0.4-0.9,0.4v-0.2c0.5-0.6,1.2-1.3,2-1.3    c1-0.2,1.9,0,2.8,0.1c0.7,0.1,1.3,0.2,2,0.4c0.3,0,0.3,0.4,0.5,0.5c0.3,0.1,0.6,0,1,0.2c0-0.1-0.1-0.2,0-0.3    c0.2-0.2,0.5,0.1,0.7-0.1c0.4-0.3-0.4-0.7-0.6-1.1c0-0.1,0.1-0.1,0.1-0.1c0.4,0.4,0.7,0.8,1.3,1.1c0.3,0.1,0.9,0.3,0.8-0.1    c-0.3-0.6-0.8-1.1-1.2-1.6v-0.2c-0.1,0-0.1-0.1-0.2-0.1v-0.2c-0.2-0.1-0.2-0.3-0.3-0.5c-0.2-0.3-0.1-0.6-0.2-1    C62.1,39.3,62,39,62,38.7c-0.2-0.9-0.4-1.7-0.5-2.6c-0.1-1,0.6-1.8,1.1-2.7c0.4-0.6,0.8-1.3,1.5-1.7c0.2-0.6,0.6-1.2,1-1.7    c0.4-0.5,1.1-0.8,1.7-1.1c0.7-0.3,1.4-0.5,1.4-0.5l10.7,0c0,0,0.1,0,0.3,0.1c0.2,0.1,0.6,0.3,0.8,0.4c0.4,0.2,0.8,0.5,1,0.9    c0.1,0.2,0.3,0.5,0.2,0.7c-0.1,0.3-0.2,0.7-0.4,0.8c-0.3,0.2-0.7,0.2-1.1,0.1c-0.2,0-0.4-0.1-0.6-0.1c0.8,0.3,1.6,0.7,2.1,1.4    c0.1,0.1,0.3,0.2,0.5,0.2c0.1,0,0.1,0.1,0.1,0.2c-0.1,0.1-0.2,0.2-0.2,0.3h0.2c0.3-0.1,0.2-0.6,0.6-0.5c0.3,0.2,0.4,0.5,0.2,0.8    c-0.2,0.2-0.4,0.4-0.6,0.5c-0.1,0.1-0.1,0.3,0,0.4c0.2,0.2,0.2,0.4,0.3,0.6c0.2,0.4,0.2,0.8,0.4,1.2c0.2,0.8,0.4,1.6,0.4,2.4    c0,0.4-0.2,0.8-0.1,1.2c0.1,0.4,0.4,0.8,0.6,1.1c0.2,0.3,0.4,0.5,0.6,0.9c0.3,0.5,0.9,1.1,0.6,1.7c-0.2,0.4-0.8,0.3-1.1,0.5    c-0.3,0.3-0.1,0.7,0.1,1c0.3,0.5-0.3,0.8-0.7,1c0.1,0.2,0.3,0.1,0.4,0.2c0.1,0.3,0.3,0.4,0.2,0.7c-0.2,0.3-0.9,0.5-0.5,1    c0.2,0.4,0.1,0.8-0.1,1.2c-0.2,0.5-0.6,0.7-1,0.8c-0.3,0.1-0.7,0.1-1,0.1c-0.1-0.1-0.2-0.1-0.3-0.1c-0.9-0.1-1.8-0.4-2.7-0.4    c-0.3,0.1-0.5,0.1-0.7,0.2c-0.2,0.2-0.5,0.4-0.6,0.6c0,0,0,0,0,0c0,0-0.1,0.1-0.1,0.1c0,0,0,0.1-0.1,0.1c0,0,0,0,0,0.1    c-0.2,0.2-0.3,0.4-0.4,0.6c0,0,0,0,0,0c0,0,0,0.1,0,0.1c-0.2,0.3-0.3,0.7-0.4,1c-0.4,1.2-0.2,2.3,0.1,2.5c0.1,0.1,1.8,0.6,2.9,1.1    c0.6,0.2,0.9,0.4,1.3,0.6l-22,0c1-0.7,2-1.1,3.5-1.8C61.6,54.6,63.1,53.9,63.6,53.4 M55.4,49.5c-0.1,0-0.3,0.1-0.3-0.1    c0.1-0.3,0.4-0.3,0.6-0.4c0.1-0.1,0.3-0.2,0.4-0.1c0.1,0.2,0.3,0.1,0.4,0.2C56.2,49.5,55.8,49.4,55.4,49.5 M47.2,48.3    c0,0-0.1-0.1-0.1-0.1c0.7-0.9,1.2-1.8,1.7-2.7c0.7-0.4,1.3-0.9,1.8-1.5c0.9-1,1.9-1.8,3-2.4c0.4-0.2,1-0.1,1.4,0.1    c-0.2,0.2-0.4,0.2-0.6,0.3c-0.1,0-0.1,0-0.2-0.1c0.1-0.1,0.1-0.1,0.1-0.2c-0.5,0.6-1.3,0.9-1.7,1.6c-0.3,0.5-0.5,1.2-1.2,1.4    c-0.2,0.1,0.1-0.2-0.1-0.1C49.6,45.7,48.5,46.9,47.2,48.3 M51.6,44.8c-0.1,0.1-0.1,0.1-0.2,0.2c-0.1,0.1-0.1,0.2-0.2,0.2    c-0.1,0-0.1,0-0.1-0.1c0.1-0.2,0.2-0.4,0.4-0.5C51.6,44.7,51.6,44.8,51.6,44.8 M54.1,52.8c0,0.1-0.1,0.1-0.1,0.2    c0.1,0,0.1,0,0.1,0.1c-0.1,0.1-0.2,0.2-0.4,0.3c0,0,0,0-0.1,0c-0.1,0.1-0.1,0.1-0.2,0.2c-0.1,0.1-0.4,0-0.3-0.1    c0.1-0.1,0.3-0.3,0.4-0.4c0.1-0.1,0.2-0.1,0.2-0.2c0,0,0.1-0.1,0.1-0.1C53.9,52.8,54.2,52.7,54.1,52.8 M53.2,52.4    C53.2,52.4,53.1,52.4,53.2,52.4c-0.2,0.2-0.4,0.3-0.6,0.4c-0.2,0.1-0.5,0.2-0.7,0.3c0,0,0,0,0,0c0,0-0.1,0-0.1,0    c-0.2,0.1-0.4,0.3-0.5,0.4c0,0,0,0-0.1,0.1c0,0,0,0,0,0c0,0,0,0,0,0c0,0-0.1,0.1-0.1,0.1c0,0,0,0,0,0c0,0,0,0,0,0    c0,0-0.1,0.1-0.1,0.1c0,0,0,0.1-0.1,0.1c0,0-0.1,0-0.1,0c0,0,0,0,0,0c0,0-0.1,0-0.1,0c0,0-0.1,0-0.1,0c0,0,0,0,0,0c0,0,0,0,0,0    c-0.1,0.1-0.1,0.1-0.2,0.2c-0.1,0.1-0.2,0.2-0.3,0.3c0,0,0,0,0,0c0,0,0,0,0,0c0,0,0,0,0,0c0,0,0,0,0,0c0,0,0,0,0,0c0,0,0,0,0,0.1    l0,0c0,0,0,0,0,0c0,0,0,0,0,0c0,0,0,0,0,0c0,0,0-0.1,0-0.1l0,0c0,0,0,0,0,0c0.1-0.1,0.1-0.1,0.2-0.2c0,0,0,0,0,0c0,0,0,0,0.1-0.1    c0,0,0.1-0.1,0.1-0.1c0,0,0,0,0,0c0.1-0.1,0.1-0.2,0.2-0.2c0,0,0,0,0,0c0,0,0,0,0,0c0,0,0.1-0.1,0.1-0.1c0,0,0-0.1,0.1-0.1    c0,0,0,0,0,0c0,0,0,0,0,0c0,0,0,0,0,0c0,0,0-0.1,0.1-0.1c0,0,0,0,0,0c0,0,0,0,0,0c0,0,0,0,0-0.1c0,0,0,0,0,0c0,0,0-0.1,0-0.1    c0,0,0,0,0,0c0.1-0.1,0.1-0.2,0.2-0.3c0,0,0,0,0,0c-0.1,0-0.1,0.1-0.2,0.2c-0.1,0-0.2,0-0.1-0.1c0,0,0.1-0.1,0.1-0.1c0,0,0,0,0,0    c0.1-0.1,0.2-0.2,0.3-0.3c0.1,0,0.1-0.1,0.2-0.1c0,0,0,0,0,0c0,0,0.1-0.1,0.1-0.1c0,0,0,0,0,0c0.5-0.5,1.4-0.5,2.1-0.8    c0.3-0.1,0.6,0.1,0.9,0c0.2,0,0.3,0,0.5,0.1C54,51.8,53.6,52.1,53.2,52.4 M54.3,48.7c-0.1-0.1,0.2,0,0.2-0.1H54    c-0.1,0-0.1-0.1-0.1-0.1c-0.3,0.1-0.6,0.2-0.9,0.2c-0.4,0.1-0.7,0.4-1.1,0.5c-0.6,0.2-1.1,0.7-1.7,0.9c-0.1,0-0.1-0.1-0.1-0.1    c0.1-0.2,0.3-0.2,0.4-0.4c0-0.1,0-0.1-0.1-0.1c0.4-0.6,1-0.9,1.6-1.4v-0.2c0.2-0.2,0.4-0.3,0.5-0.6c0.1-0.2,0.3-0.4,0.5-0.5    c-0.1-0.1-0.2-0.1-0.2-0.2c-0.2,0-0.4,0.1-0.6-0.1c0.1-0.1,0.2-0.2,0.3-0.2c0,0-0.1,0-0.1-0.1c-0.1-0.1,0.1-0.2,0.3-0.3    c0.2-0.1,0.5-0.1,0.6-0.2c-0.4-0.1-0.8,0.1-1.2-0.1c0.3-0.7,0.7-1.3,1.3-1.6c0.1,0,0.2,0,0.2,0.1c0,0.3-0.2,0.5-0.4,0.5    c0.4,0.1,0.9,0.1,1.3,0.3c-0.1,0.1-0.2,0.1-0.2,0.1c0.3,0.2,0.6,0.1,0.9,0.3c-0.2,0.2-0.3,0-0.5,0c1.7,0.5,3.4,0.9,4.8,1.9    c-1.2,0.6-2.4,0.9-3.7,1.1c-0.2,0-0.3,0-0.4-0.1c0,0.1,0,0.2-0.1,0.2c-0.2,0-0.4,0-0.5,0.1C54.7,48.8,54.4,48.8,54.3,48.7"/>
		<path id="Rouge_1_" class="st1" d="M63.6,53.4c0.3-0.3,0.6-0.6,0.9-1h0c0.6-0.6,1.1-1.3,1.8-1.8c0.2-0.2,0.4-0.3,0.6-0.5    c0.1-0.1,0.1-0.2,0.1-0.2c-0.3,0.1-0.4,0.3-0.7,0.4c-0.1,0-0.1-0.1-0.1-0.1c0.2-0.1,0.4-0.3,0.6-0.4c0,0,0,0,0,0    c-0.1,0-0.1-0.1-0.1-0.1c-0.7-0.1-1.2,0.4-1.7,0.8c-0.1,0.1-0.2-0.1-0.3-0.1c-0.8,0.3-1.4,1-2.2,1.3v-0.1c-0.3,0.1-0.6,0.3-1,0.4    c-0.5,0.1-0.9,0.1-1.3,0.1c-0.6,0.1-1.3,0.2-1.9,0.3c0,0,0,0-0.1,0c-0.3,0.1-0.7,0.2-1,0.4c0,0,0,0,0,0c0,0-0.1,0.1-0.1,0.1    c-0.1,0.1-0.2,0.2-0.4,0.3c-0.3,0.2-0.6,0.5-0.9,0.7c0,0-0.1,0-0.1,0c-0.3,0.3-0.6,0.6-0.9,0.8c0,0-0.1,0-0.2,0c0,0,0,0,0,0    c0,0,0,0,0-0.1c0-0.1,0.1-0.2,0.1-0.2c0.1-0.1,0.1-0.2,0.2-0.2c0.1-0.1,0.1-0.2,0.2-0.3c0,0,0-0.1,0-0.1c0,0,0,0-0.1,0    c0.3-0.3,0.6-0.5,0.9-0.7v0c0,0-0.1,0-0.1-0.1c0,0,0.1-0.1,0.1-0.1c0,0,0,0,0,0c0,0,0,0,0,0c-0.1,0.1-0.2,0.1-0.3,0.2    c-0.1,0.1-0.2,0.4-0.4,0.3c0,0-0.1,0-0.1,0c0,0,0,0-0.1,0c0,0,0,0,0,0c0,0,0,0,0,0c0,0,0,0,0,0c0,0,0,0,0,0c0,0,0,0,0,0    c0,0,0,0,0,0c0,0,0,0,0-0.1c0,0,0,0,0,0c0,0,0-0.1,0.1-0.1c0,0,0,0,0-0.1c0,0,0-0.1,0.1-0.1c0,0,0-0.1,0-0.1    c0.1-0.1,0.2-0.2,0.4-0.3h0c0.2-0.1,0.4-0.2,0.6-0.3c0,0,0.1-0.1,0.1-0.1c-0.3,0.1-0.6,0.2-0.9,0.4c0,0-0.1,0-0.1,0    c0,0-0.1,0-0.1,0c0,0,0,0,0,0c0.1-0.1,0.2-0.2,0.3-0.3c0.1,0,0.1,0,0.1,0.1c1.7-1.3,4.1-1,6.1-1.7c0.2-0.1,0.3-0.2,0.5-0.3    c0.3-0.1,0.5-0.4,0.8-0.5c0.4-0.3,0.7-0.7,0.9-1.2c0-0.1-0.1-0.1-0.1-0.1c-0.7,0.8-1.5,1.3-2.4,1.8c-1.1,0.6-2.4,0.5-3.5,0.6    c0.1-0.1,0.2-0.1,0.3-0.1c0-0.2,0.1-0.2,0.2-0.3H59c0.1,0,0.1-0.1,0.1-0.1c0.1,0,0.3-0.1,0.2-0.1c-0.2-0.2-0.5,0.2-0.8,0    c0.1-0.1,0.1-0.3,0.2-0.3h0.2c0-0.1,0.1-0.2,0.1-0.2c0.8-0.5,1.6-0.9,2.3-1.3c-0.2,0-0.3,0.2-0.4,0.1c0.1,0,0-0.2,0.1-0.2    c0.6-0.2,1.1-0.5,1.7-0.7c-0.2,0-0.4,0.2-0.6,0c0.1-0.1,0.2-0.2,0.3-0.2v-0.2c0-0.1,0.1-0.1,0.1-0.1c-0.1,0-0.1-0.1-0.1-0.1    c0.1-0.1,0.2-0.1,0.3-0.2c-0.1,0-0.2,0-0.2-0.1c0.2-0.2,0.4-0.3,0.7-0.3c-0.1-0.1-0.2,0-0.2-0.1c0-0.1,0.1-0.1,0.1-0.1H63    c-0.1-0.1-0.1-0.2-0.1-0.2c0.3-0.4,0.3-0.9,0.5-1.3c-0.1,0-0.1,0-0.1-0.1c-0.5,0.6-1.4,0.8-2.2,1h-0.3c-0.3,0.1-0.6,0.1-0.9-0.1    c-0.2-0.1-0.3-0.3-0.5-0.4c-0.4-0.3-0.9-0.5-1.3-0.6c-1.3-0.4-2.7-0.6-4.1-0.6c0.6-0.3,1.2-0.3,1.9-0.5c0.9-0.3,1.8-0.6,2.7-0.5    c-0.2-0.1-0.4,0-0.5,0c-0.8-0.1-1.5,0.2-2.3,0.3c-0.5,0.1-1,0.3-1.6,0.4c-0.3,0.1-0.5,0.4-0.9,0.4V44c0.5-0.6,1.2-1.3,2-1.3    c1-0.2,1.9,0,2.8,0.1c0.7,0.1,1.3,0.2,2,0.4c0.3,0,0.3,0.4,0.5,0.5c0.3,0.1,0.6,0,1,0.2c0-0.1-0.1-0.2,0-0.3    c0.2-0.2,0.5,0.1,0.7-0.1c0.4-0.3-0.4-0.7-0.6-1.1c0-0.1,0.1-0.1,0.1-0.1c0.4,0.4,0.7,0.8,1.3,1.1c0.3,0.1,0.9,0.3,0.8-0.1    c-0.3-0.6-0.8-1.1-1.2-1.6v-0.2c-0.1,0-0.1-0.1-0.2-0.1v-0.2c-0.2-0.1-0.2-0.3-0.3-0.5c-0.2-0.3-0.1-0.6-0.2-1    C62.1,39.3,62,39,62,38.7c-0.2-0.9-0.4-1.7-0.5-2.6c-0.1-1,0.6-1.8,1.1-2.7c0.4-0.6,0.8-1.3,1.5-1.7c0.2-0.6,0.6-1.2,1-1.7    c0.4-0.5,1.1-0.8,1.7-1.1c0.7-0.3,1.4-0.5,1.4-0.5H31.4v28.3h26c1-0.7,2-1.1,3.5-1.8C61.6,54.6,63.1,53.9,63.6,53.4 M55.4,49.5    c-0.1,0-0.3,0.1-0.3-0.1c0.1-0.3,0.4-0.3,0.6-0.4c0.1-0.1,0.3-0.2,0.4-0.1c0.1,0.2,0.3,0.1,0.4,0.2C56.2,49.5,55.8,49.4,55.4,49.5     M47.2,48.3c0,0-0.1-0.1-0.1-0.1c0.7-0.9,1.2-1.8,1.7-2.7c0.7-0.4,1.3-0.9,1.8-1.5c0.9-1,1.9-1.8,3-2.4c0.4-0.2,1-0.1,1.4,0.1    c-0.2,0.2-0.4,0.2-0.6,0.3c-0.1,0-0.1,0-0.2-0.1c0.1-0.1,0.1-0.1,0.1-0.2c-0.5,0.6-1.3,0.9-1.7,1.6c-0.3,0.5-0.5,1.2-1.2,1.4    c-0.2,0.1,0.1-0.2-0.1-0.1C49.7,45.7,48.5,46.9,47.2,48.3 M51.6,44.8c-0.1,0.1-0.1,0.1-0.2,0.2c-0.1,0.1-0.1,0.2-0.2,0.2    c-0.1,0-0.1,0-0.1-0.1c0.1-0.2,0.2-0.4,0.4-0.5C51.6,44.7,51.6,44.8,51.6,44.8 M54.1,52.8c0,0.1-0.1,0.1-0.1,0.2    c0.1,0,0.1,0,0.1,0.1c-0.1,0.1-0.2,0.2-0.4,0.3c0,0,0,0-0.1,0c-0.1,0.1-0.1,0.1-0.2,0.2c-0.1,0.1-0.4,0-0.3-0.1    c0.1-0.1,0.3-0.3,0.4-0.4c0.1-0.1,0.2-0.1,0.2-0.2c0,0,0.1-0.1,0.1-0.1C53.9,52.8,54.2,52.7,54.1,52.8 M53.2,52.4    C53.2,52.4,53.2,52.4,53.2,52.4c-0.2,0.2-0.4,0.3-0.6,0.4c-0.2,0.1-0.5,0.2-0.7,0.3c0,0,0,0,0,0c0,0-0.1,0-0.1,0    c-0.2,0.1-0.4,0.3-0.5,0.4c0,0,0,0-0.1,0.1c0,0,0,0,0,0c0,0,0,0,0,0c0,0-0.1,0.1-0.1,0.1c0,0,0,0,0,0c0,0,0,0,0,0    c0,0-0.1,0.1-0.1,0.1c0,0,0,0.1-0.1,0.1c0,0-0.1,0-0.1,0c0,0,0,0,0,0c0,0-0.1,0-0.1,0c0,0-0.1,0-0.1,0c0,0,0,0,0,0c0,0,0,0,0,0    c-0.1,0.1-0.1,0.1-0.2,0.2c-0.1,0.1-0.2,0.2-0.3,0.3c0,0,0,0,0,0c0,0,0,0,0,0c0,0,0,0,0,0c0,0,0,0,0,0c0,0,0,0,0,0c0,0,0,0,0,0.1    l0,0c0,0,0,0,0,0c0,0,0,0,0,0c0,0,0,0,0,0c0,0,0-0.1,0-0.1l0,0c0,0,0,0,0,0c0.1-0.1,0.1-0.1,0.2-0.2c0,0,0,0,0,0c0,0,0,0,0.1-0.1    c0,0,0.1-0.1,0.1-0.1c0,0,0,0,0,0c0.1-0.1,0.1-0.2,0.2-0.2c0,0,0,0,0,0c0,0,0,0,0,0c0,0,0.1-0.1,0.1-0.1c0,0,0-0.1,0.1-0.1    c0,0,0,0,0,0c0,0,0,0,0,0c0,0,0,0,0,0c0,0,0-0.1,0.1-0.1c0,0,0,0,0,0c0,0,0,0,0,0c0,0,0,0,0-0.1c0,0,0,0,0,0c0,0,0-0.1,0-0.1    c0,0,0,0,0,0c0.1-0.1,0.1-0.2,0.2-0.3c0,0,0,0,0,0c-0.1,0-0.1,0.1-0.2,0.2c-0.1,0-0.2,0-0.1-0.1c0,0,0.1-0.1,0.1-0.1c0,0,0,0,0,0    c0.1-0.1,0.2-0.2,0.3-0.3c0.1,0,0.1-0.1,0.2-0.1c0,0,0,0,0,0c0,0,0.1-0.1,0.1-0.1c0,0,0,0,0,0c0.5-0.5,1.4-0.5,2.1-0.8    c0.3-0.1,0.6,0.1,0.9,0c0.2,0,0.3,0,0.5,0.1C54,51.8,53.6,52.1,53.2,52.4 M54.3,48.7c-0.1-0.1,0.2,0,0.2-0.1H54    c-0.1,0-0.1-0.1-0.1-0.1c-0.3,0.1-0.6,0.2-0.9,0.2c-0.4,0.1-0.7,0.4-1.1,0.5c-0.6,0.2-1.1,0.7-1.7,0.9c-0.1,0-0.1-0.1-0.1-0.1    c0.1-0.2,0.3-0.2,0.4-0.4c0-0.1,0-0.1-0.1-0.1c0.4-0.6,1-0.9,1.6-1.4v-0.2c0.2-0.2,0.4-0.3,0.5-0.6c0.1-0.2,0.3-0.4,0.5-0.5    c-0.1-0.1-0.2-0.1-0.2-0.2c-0.2,0-0.4,0.1-0.6-0.1c0.1-0.1,0.2-0.2,0.3-0.2c0,0-0.1,0-0.1-0.1c-0.1-0.1,0.1-0.2,0.3-0.3    c0.2-0.1,0.5-0.1,0.6-0.2c-0.4-0.1-0.8,0.1-1.2-0.1c0.3-0.7,0.7-1.3,1.3-1.6c0.1,0,0.2,0,0.2,0.1c0,0.3-0.2,0.5-0.4,0.5    c0.4,0.1,0.9,0.1,1.3,0.3c-0.1,0.1-0.2,0.1-0.2,0.1c0.3,0.2,0.6,0.1,0.9,0.3c-0.2,0.2-0.3,0-0.5,0c1.7,0.5,3.4,0.9,4.8,1.9    c-1.2,0.6-2.4,0.9-3.7,1.1c-0.2,0-0.3,0-0.4-0.1c0,0.1,0,0.2-0.1,0.2c-0.2,0-0.4,0-0.5,0.1C54.7,48.8,54.4,48.8,54.3,48.7"/>
		<path id="Bleu_1_" class="st2" d="M109.3,28.4H78.9c0,0,0.1,0,0.3,0.1c0.2,0.1,0.6,0.3,0.8,0.4c0.4,0.2,0.8,0.5,1,0.9    c0.1,0.2,0.3,0.5,0.2,0.7c-0.1,0.3-0.2,0.7-0.4,0.8c-0.3,0.2-0.7,0.2-1.1,0.1c-0.2,0-0.4-0.1-0.6-0.1c0.8,0.3,1.6,0.7,2.1,1.4    c0.1,0.1,0.3,0.2,0.5,0.2c0.1,0,0.1,0.1,0.1,0.2c-0.1,0.1-0.2,0.2-0.2,0.3h0.2c0.3-0.1,0.2-0.6,0.6-0.5c0.3,0.2,0.4,0.5,0.2,0.8    c-0.2,0.2-0.4,0.4-0.6,0.5c-0.1,0.1-0.1,0.3,0,0.4c0.2,0.2,0.2,0.4,0.3,0.6c0.2,0.4,0.2,0.8,0.4,1.2c0.2,0.8,0.4,1.6,0.4,2.4    c0,0.4-0.2,0.8-0.1,1.2c0.1,0.4,0.4,0.8,0.6,1.1c0.2,0.3,0.4,0.5,0.6,0.9c0.3,0.5,0.9,1.1,0.6,1.7c-0.2,0.4-0.8,0.3-1.1,0.5    c-0.3,0.3-0.1,0.7,0.1,1c0.3,0.5-0.3,0.8-0.7,1c0.1,0.2,0.3,0.1,0.4,0.2c0.1,0.3,0.3,0.4,0.2,0.7c-0.2,0.3-0.9,0.5-0.5,1    c0.2,0.4,0.1,0.8-0.1,1.2c-0.2,0.5-0.6,0.7-1,0.8c-0.3,0.1-0.7,0.1-1,0.1c-0.1-0.1-0.2-0.1-0.3-0.1c-0.9-0.1-1.8-0.4-2.7-0.4    c-0.3,0.1-0.5,0.1-0.7,0.2c-0.2,0.2-0.5,0.4-0.6,0.6c0,0,0,0,0,0c0,0-0.1,0.1-0.1,0.1c0,0,0,0.1-0.1,0.1c0,0,0,0,0,0.1    c-0.2,0.2-0.3,0.4-0.4,0.6c0,0,0,0,0,0c0,0,0,0.1,0,0.1c-0.2,0.3-0.3,0.7-0.4,1c-0.4,1.2-0.2,2.3,0.1,2.5c0.1,0.1,1.8,0.6,2.9,1.1    c0.6,0.2,0.9,0.4,1.3,0.6h29.9V28.4z"/>
		<path id="Yeux_1_" class="st3" d="M80.7,38.7c0.2,0.1,0.5,0.1,0.5,0.2c-0.1,0.4-0.7,0.5-1.1,1H80c-0.2,0.1-0.1,0.4-0.3,0.4    c-0.2-0.1-0.3,0-0.5,0.1c0.2,0.2,0.5,0.4,0.8,0.3c0.1,0,0.2,0.1,0.2,0.2c0,0,0.1,0,0.1-0.1c0.1,0,0.1,0,0.1,0.1V41    c-0.2,0.2-0.4,0.1-0.6,0.2c0.4,0.1,0.9,0.1,1.2,0c0.3-0.1,0-0.6,0.2-0.9c-0.1,0,0-0.2-0.1-0.2c0.1-0.1,0.2-0.3,0.3-0.3    c0.1,0,0.3-0.1,0.3-0.2c0-0.1-0.2-0.2-0.2-0.3c0.3-0.2,0.6-0.5,0.5-0.9c-0.1-0.2-0.5-0.2-0.8-0.3c-0.3-0.1-0.6,0-0.9,0.1    c-0.3,0-0.5,0.2-0.8,0.2c-0.4,0.1-0.7,0.3-1,0.5c0.4-0.2,0.8-0.2,1.2-0.3C80.1,38.7,80.3,38.6,80.7,38.7"/>
	</g>
</g>
</svg>