<?xml version="1.0" encoding="UTF-8" standalone="no"?>
<!-- Generator: Adobe Illustrator 24.0.2, SVG Export Plug-In . SVG Version: 6.00 Build 0)  -->

<svg
   xmlns:dc="http://purl.org/dc/elements/1.1/"
   xmlns:cc="http://creativecommons.org/ns#"
   xmlns:rdf="http://www.w3.org/1999/02/22-rdf-syntax-ns#"
   xmlns:svg="http://www.w3.org/2000/svg"
   xmlns="http://www.w3.org/2000/svg"
   xmlns:xlink="http://www.w3.org/1999/xlink"
   xmlns:sodipodi="http://sodipodi.sourceforge.net/DTD/sodipodi-0.dtd"
   xmlns:inkscape="http://www.inkscape.org/namespaces/inkscape"
   version="1.1"
   id="Calque_1"
   x="0px"
   y="0px"
   viewBox="0 0 624.40056 212.3"
   xml:space="preserve"
   sodipodi:docname="LOGO_AT_Titre.svg"
   inkscape:version="0.92.4 (5da689c313, 2019-01-14)"
   width="624.40057"
   height="212.3"><metadata
   id="metadata92"><rdf:RDF><cc:Work
       rdf:about=""><dc:format>image/svg+xml</dc:format><dc:type
         rdf:resource="http://purl.org/dc/dcmitype/StillImage" /><dc:title></dc:title></cc:Work></rdf:RDF></metadata><defs
   id="defs90">
	
	
	
	
	
	
	
	
	
	
	
	
	
	
	
	
	
	
	
	

	
	
	
	
	
	
	
	
</defs><sodipodi:namedview
   pagecolor="#ffffff"
   bordercolor="#666666"
   borderopacity="1"
   objecttolerance="10"
   gridtolerance="10"
   guidetolerance="10"
   inkscape:pageopacity="0"
   inkscape:pageshadow="2"
   inkscape:window-width="2560"
   inkscape:window-height="1376"
   id="namedview88"
   showgrid="false"
   inkscape:zoom="1.0533363"
   inkscape:cx="-30.649145"
   inkscape:cy="145.66295"
   inkscape:window-x="0"
   inkscape:window-y="27"
   inkscape:window-maximized="1"
   inkscape:current-layer="Calque_1" />
<style
   type="text/css"
   id="style2">
	.st0{fill:none;stroke:#3A3188;stroke-width:3.5;stroke-linecap:round;stroke-linejoin:round;stroke-miterlimit:10;}
	.st1{fill:none;stroke:#3A3188;stroke-width:2.5;stroke-linecap:round;stroke-linejoin:round;stroke-miterlimit:10;}
	.st2{fill:#3A3286;}
	.st3{fill:url(#SVGID_1_);}
	.st4{fill:none;stroke:#3A3188;stroke-width:2.213;stroke-miterlimit:10;}
	.st5{fill:none;stroke:#3A3188;stroke-width:5;stroke-linecap:round;stroke-linejoin:round;stroke-miterlimit:10;}
	.st6{fill:none;stroke:#3A3188;stroke-width:3;stroke-linecap:round;stroke-linejoin:round;stroke-miterlimit:10;}
	.st7{fill:#3A3188;}
	.st8{clip-path:url(#SVGID_3_);fill:url(#SVGID_4_);}
	.st9{clip-path:url(#SVGID_6_);fill:url(#SVGID_7_);}
	.st10{fill:#DB1C83;}
	.st11{fill:#59BBAB;}
	.st12{fill:#DA1F83;}
	.st13{fill:none;stroke:#3A3188;stroke-width:1.54;stroke-linecap:round;stroke-linejoin:round;stroke-miterlimit:10;}
	.st14{fill:none;stroke:#3A3188;stroke-width:2.2;stroke-linecap:round;stroke-linejoin:round;stroke-miterlimit:10;}
	.st15{fill:none;stroke:#3A3188;stroke-width:1.32;stroke-linecap:round;stroke-linejoin:round;stroke-miterlimit:10;}
	.st16{fill:none;stroke:#3A3188;stroke-width:1.1;stroke-linecap:round;stroke-linejoin:round;stroke-miterlimit:10;}
	.st17{clip-path:url(#SVGID_9_);fill:url(#SVGID_10_);}
	.st18{fill:none;stroke:#000000;stroke-width:1.54;stroke-linecap:round;stroke-linejoin:round;stroke-miterlimit:10;}
	.st19{fill:none;stroke:#000000;stroke-width:2.2;stroke-linecap:round;stroke-linejoin:round;stroke-miterlimit:10;}
	.st20{fill:none;stroke:#000000;stroke-width:1.32;stroke-linecap:round;stroke-linejoin:round;stroke-miterlimit:10;}
	.st21{fill:none;stroke:#000000;stroke-width:1.1;stroke-linecap:round;stroke-linejoin:round;stroke-miterlimit:10;}
	.st22{fill:#FFFFFF;}
	.st23{fill:none;stroke:#3A3188;stroke-width:0.9015;stroke-linecap:round;stroke-linejoin:round;stroke-miterlimit:10;}
	.st24{fill:none;stroke:#3A3188;stroke-width:1.2878;stroke-linecap:round;stroke-linejoin:round;stroke-miterlimit:10;}
	.st25{fill:none;stroke:#3A3188;stroke-width:0.7727;stroke-linecap:round;stroke-linejoin:round;stroke-miterlimit:10;}
	.st26{fill:none;stroke:#3A3188;stroke-width:0.6439;stroke-linecap:round;stroke-linejoin:round;stroke-miterlimit:10;}
	.st27{clip-path:url(#SVGID_12_);fill:url(#SVGID_13_);}
	.st28{fill:none;stroke:#FFFFFF;stroke-width:0.9015;stroke-linecap:round;stroke-linejoin:round;stroke-miterlimit:10;}
	.st29{fill:none;stroke:#FFFFFF;stroke-width:1.2878;stroke-linecap:round;stroke-linejoin:round;stroke-miterlimit:10;}
	.st30{fill:none;stroke:#FFFFFF;stroke-width:0.7727;stroke-linecap:round;stroke-linejoin:round;stroke-miterlimit:10;}
	.st31{fill:none;stroke:#FFFFFF;stroke-width:0.6439;stroke-linecap:round;stroke-linejoin:round;stroke-miterlimit:10;}
	.st32{clip-path:url(#SVGID_15_);fill:#FFFFFF;}
</style>


<g
   id="g975"
   transform="translate(-35.2,-211.3)"><path
     class="st7"
     d="m 65.2,214.4 -28.7,80.4 h 16.4 l 6.3,-17.9 h 28.4 l 6.2,17.9 h 16.6 L 82.6,214.4 Z m -1.3,48.9 9.5,-27 9.3,27 z"
     id="path14"
     inkscape:connector-curvature="0"
     style="fill:#3a3188" /><rect
     x="119.7"
     y="213.89999"
     class="st7"
     width="15.8"
     height="80.900002"
     id="rect16"
     style="fill:#3a3188" /><path
     class="st7"
     d="m 183.7,214.4 h -28.6 v 80.4 h 28.6 c 25.8,0 37.4,-12.4 37.4,-40.2 -0.1,-27.8 -11.6,-40.2 -37.4,-40.2 m -0.5,66.4 h -12.3 v -52.3 h 12.3 c 15.7,0 21.5,7.1 21.5,26.2 0.1,19 -5.8,26.1 -21.5,26.1"
     id="path18"
     inkscape:connector-curvature="0"
     style="fill:#3a3188" /><path
     class="st7"
     d="M 351.9,246.6 C 340.4,243.9 335,242 335,236.7 c 0,-7 2.3,-10.8 14.5,-10.8 11,0 14.9,3.4 14.9,12.9 v 3.3 h 15 v -3.3 c 0,-18.1 -9.5,-26.5 -29.9,-26.5 -20.4,0 -30,8.2 -30,25.8 0,16.6 15.1,20.1 27.3,23 11.3,2.7 18.2,4.8 18.2,11.5 0,7 -2.5,10.8 -15.5,10.8 -11.9,0 -15.9,-3.2 -15.9,-12.9 v -3.3 h -15.1 v 3.3 c 0,18.3 9.6,26.5 31,26.5 21.4,0 30.9,-7.9 30.9,-25.8 0.1,-17.9 -15.8,-21.6 -28.5,-24.6"
     id="path20"
     inkscape:connector-curvature="0"
     style="fill:#3a3188" /><path
     class="st7"
     d="m 268.8,211.3 c -25.7,0 -37.1,13.2 -37.1,42.8 0,29.6 11.4,42.8 37.1,42.8 16.2,0 26.1,-5.8 31.4,-18.1 l 2.3,-5.4 h -16.3 l -1.1,2 c -3.1,5.5 -7.8,7.8 -16.4,7.8 -13,0 -19.2,-5.5 -21,-18.9 h 58.1 v -7.9 c 0.1,-31.2 -11.3,-45.1 -37,-45.1 m -21.5,39.6 c 0.6,-18.4 6.7,-25.6 21.5,-25.6 h 0.3 l 0.7,-0.1 c 14,0.3 19.8,7.6 20.5,25.7 z"
     id="path22"
     inkscape:connector-curvature="0"
     style="fill:#3a3188" /><path
     class="st7"
     d="m 214.1,347.1 c 0,-14.1 -7.9,-21.3 -23.4,-21.3 H 162 v 66.8 h 10.1 v -24.7 h 18.4 l 13.4,24.6 h 11 l -14.4,-25.9 c 9.2,-2.4 13.6,-8.8 13.6,-19.5 m -23.8,12.6 h -18.2 v -25.3 h 18.2 c 9.5,0 13.6,3.8 13.6,12.7 0.1,8.7 -4.1,12.6 -13.6,12.6"
     id="path24"
     inkscape:connector-curvature="0"
     style="fill:#3a3188" /><path
     class="st7"
     d="m 279.5,347.1 c 0,-14.1 -7.9,-21.3 -23.4,-21.3 h -28.7 v 66.8 h 10.1 V 367.9 H 256 l 13.4,24.6 h 11 L 266,366.7 c 9.1,-2.5 13.5,-8.9 13.5,-19.6 m -23.7,12.6 h -18.2 v -25.3 h 18.2 c 9.5,0 13.6,3.8 13.6,12.7 0,8.7 -4.2,12.6 -13.6,12.6"
     id="path26"
     inkscape:connector-curvature="0"
     style="fill:#3a3188" /><rect
     x="292.89999"
     y="325.79999"
     class="st7"
     width="10.1"
     height="66.800003"
     id="rect28"
     style="fill:#3a3188" /><polygon
     class="st7"
     points="342.7,334.8 363,334.8 363,325.8 312.4,325.8 312.4,334.8 332.6,334.8 332.6,392.6 342.7,392.6 "
     id="polygon30"
     style="fill:#3a3188" /><polygon
     class="st7"
     points="65.5,334.8 85.8,334.8 85.8,325.8 35.2,325.8 35.2,334.8 55.4,334.8 55.4,392.6 65.5,392.6 "
     id="polygon32"
     style="fill:#3a3188" /><rect
     x="454.29999"
     y="325.79999"
     class="st7"
     width="10.1"
     height="66.800003"
     id="rect34"
     style="fill:#3a3188" /><path
     class="st7"
     d="m 530.1,347.1 c 0,-14.1 -7.9,-21.3 -23.4,-21.3 H 478 v 66.8 h 10.1 v -24.7 h 18.4 l 13.4,24.6 h 11 l -14.4,-25.9 c 9.2,-2.4 13.6,-8.8 13.6,-19.5 m -23.7,12.6 h -18.2 v -25.3 h 18.2 c 9.5,0 13.6,3.8 13.6,12.7 0,8.7 -4.2,12.6 -13.6,12.6"
     id="path36"
     inkscape:connector-curvature="0"
     style="fill:#3a3188" /><path
     class="st7"
     d="m 569.2,323.4 c -21.5,0 -30.7,10.7 -30.7,35.7 0,25 9.2,35.7 30.7,35.7 13.5,0 21.5,-4.5 25.8,-14.7 l 0.9,-2.1 h -10.3 l -0.4,0.8 c -3,5.4 -7.8,7.8 -16,7.8 -13.2,0 -19.2,-5.9 -20.5,-20.3 h 51.2 v -5.1 c 0,-26.5 -9.2,-37.8 -30.7,-37.8 m -20.8,34.7 c 0.2,-18.8 6.1,-26.2 20.8,-26.2 l 0.6,-0.1 c 13.9,0.2 19.8,7.9 20.1,26.3 z"
     id="path38"
     inkscape:connector-curvature="0"
     style="fill:#3a3188" /><path
     class="st7"
     d="m 119.4,323.4 c -21.5,0 -30.7,10.7 -30.7,35.7 0,25 9.2,35.7 30.7,35.7 13.5,0 21.5,-4.5 25.8,-14.7 l 0.9,-2.1 h -10.3 l -0.4,0.8 c -3,5.4 -7.8,7.8 -16,7.8 -13.2,0 -19.2,-5.9 -20.5,-20.3 h 51.2 v -5.1 c 0,-26.5 -9.2,-37.8 -30.7,-37.8 m -20.7,34.7 c 0.2,-18.8 6.1,-26.2 20.8,-26.2 l 0.6,-0.1 c 13.9,0.2 19.8,7.9 20.1,26.3 z"
     id="path40"
     inkscape:connector-curvature="0"
     style="fill:#3a3188" /><path
     class="st7"
     d="m 635.7,354 c -8.9,-2.1 -16.6,-3.9 -16.6,-10.7 0,-8.4 4,-11.5 14.9,-11.5 10.9,0 15.2,3.8 15.2,13.4 v 1 h 9.5 v -1 c 0,-15 -7.6,-21.7 -24.7,-21.7 -17.2,0 -24.8,6.5 -24.8,21 0,13.3 12.1,16.1 22.8,18.7 9.5,2.2 17.7,4.2 17.7,12.1 0,8.3 -4.4,11.5 -15.7,11.5 -11.6,0 -16.1,-3.8 -16.1,-13.4 v -1 h -9.6 v 1 c 0,15 7.9,21.7 25.7,21.7 17.7,0 25.6,-6.5 25.6,-21 0.1,-14.5 -12.7,-17.5 -23.9,-20.1"
     id="path42"
     inkscape:connector-curvature="0"
     style="fill:#3a3188" /><g
     id="g67">
	<defs
   id="defs47">
		<rect
   height="9"
   width="93.699997"
   y="414.60001"
   x="361.29999"
   id="SVGID_5_" />
	</defs>
	<clipPath
   id="SVGID_1_">
		<use
   id="use49"
   style="overflow:visible"
   xlink:href="#SVGID_5_"
   x="0"
   y="0"
   width="100%"
   height="100%" />
	</clipPath>
	
		<linearGradient
   gradientTransform="matrix(93.6592,0,0,-93.6592,-125051.64,100897.79)"
   y2="1072.8119"
   x2="1340.0353"
   y1="1072.8119"
   x1="1339.0353"
   gradientUnits="userSpaceOnUse"
   id="SVGID_3_">
		<stop
   id="stop52"
   style="stop-color:#4FB8A3"
   offset="0" />
		<stop
   id="stop54"
   style="stop-color:#4BB7A6"
   offset="0.244" />
		<stop
   id="stop56"
   style="stop-color:#40B6AD"
   offset="0.4691" />
		<stop
   id="stop58"
   style="stop-color:#2DB3BA"
   offset="0.6867" />
		<stop
   id="stop60"
   style="stop-color:#13AECC"
   offset="0.8985" />
		<stop
   id="stop62"
   style="stop-color:#04ACD7"
   offset="1" />
	</linearGradient>
	<rect
   id="rect65"
   clip-path="url(#SVGID_1_)"
   height="9"
   width="93.699997"
   style="fill:url(#SVGID_3_)"
   y="414.60001"
   x="361.29999" />
</g><path
     class="st10"
     d="m 407.4,299.7 c -22.1,0 -40,17.7 -40,39.4 0,4 0.6,7.9 1.7,11.5 0,0 0.5,1.6 0.8,2.3 0.9,2.3 2,4.6 3.3,6.7 14.3,27.6 34.3,49.1 34.3,49.1 11.6,-11 24.8,-30.9 32.1,-44.2 3.8,-7.5 7.7,-16.3 7.7,-25.3 0.1,-21.8 -17.8,-39.5 -39.9,-39.5 m 0.2,64.5 c -14.1,0 -25.5,-11.4 -25.5,-25.5 0,-14.1 11.4,-25.5 25.5,-25.5 14.1,0 25.5,11.4 25.5,25.5 0,14.1 -11.4,25.5 -25.5,25.5"
     id="path69"
     inkscape:connector-curvature="0"
     style="fill:#db1c83" /></g>
</svg>