<?xml version="1.0" encoding="UTF-8" standalone="no"?>
<svg
   xmlns:dc="http://purl.org/dc/elements/1.1/"
   xmlns:cc="http://creativecommons.org/ns#"
   xmlns:rdf="http://www.w3.org/1999/02/22-rdf-syntax-ns#"
   xmlns:svg="http://www.w3.org/2000/svg"
   xmlns="http://www.w3.org/2000/svg"
   xmlns:sodipodi="http://sodipodi.sourceforge.net/DTD/sodipodi-0.dtd"
   xmlns:inkscape="http://www.inkscape.org/namespaces/inkscape"
   width="188.3"
   height="120"
   viewBox="0 0 188.30001 120"
   version="1.1"
   id="svg55"
   sodipodi:docname="logo_AT_courbes.svg"
   inkscape:version="0.92.5 (2060ec1f9f, 2020-04-08)">
  <metadata
     id="metadata59">
    <rdf:RDF>
      <cc:Work
         rdf:about="">
        <dc:format>image/svg+xml</dc:format>
        <dc:type
           rdf:resource="http://purl.org/dc/dcmitype/StillImage" />
        <dc:title></dc:title>
      </cc:Work>
    </rdf:RDF>
  </metadata>
  <sodipodi:namedview
     pagecolor="#ffffff"
     bordercolor="#666666"
     borderopacity="1"
     objecttolerance="10"
     gridtolerance="10"
     guidetolerance="10"
     inkscape:pageopacity="0"
     inkscape:pageshadow="2"
     inkscape:window-width="2560"
     inkscape:window-height="1376"
     id="namedview57"
     showgrid="false"
     inkscape:zoom="3.7527926"
     inkscape:cx="84.671902"
     inkscape:cy="5.7859266"
     inkscape:window-x="0"
     inkscape:window-y="27"
     inkscape:window-maximized="1"
     inkscape:current-layer="svg55"
     showguides="true"
     inkscape:guide-bbox="true">
    <sodipodi:guide
       position="40.07,9.7960027"
       orientation="0,1"
       id="guide907"
       inkscape:locked="false" />
  </sodipodi:namedview>
  <defs
     id="defs19">
    <linearGradient
       id="prefix__linear-gradient"
       x1="10.435"
       x2="10.445"
       y1="73.134003"
       y2="73.134003"
       gradientUnits="objectBoundingBox">
      <stop
         offset="0"
         stop-color="#4fb8a3"
         id="stop2" />
      <stop
         offset=".244"
         stop-color="#4bb7a6"
         id="stop4" />
      <stop
         offset=".469"
         stop-color="#40b6ad"
         id="stop6" />
      <stop
         offset=".687"
         stop-color="#2db3ba"
         id="stop8" />
      <stop
         offset=".899"
         stop-color="#13aecc"
         id="stop10" />
      <stop
         offset="1"
         stop-color="#04acd7"
         id="stop12" />
    </linearGradient>
    <clipPath
       id="prefix__clip-path">
      <path
         id="prefix__Rectangle_1103"
         d="M 0,0 H 29.61 V 2.844 H 0 Z"
         data-name="Rectangle 1103"
         inkscape:connector-curvature="0" />
    </clipPath>
    <style
       id="style17">
            .prefix__cls-1{fill:none;stroke:#3a3188;stroke-linecap:round;stroke-linejoin:round;stroke-miterlimit:10;stroke-width:1.2px}.prefix__cls-5{fill:#3a3188}.prefix__cls-8{fill:#db1c83}.prefix__cls-9{fill:#59bbab}
        </style>
  </defs>
  <g
     id="g941"
     transform="matrix(0.95409985,0,0,0.95409985,0,-2.6245117e-6)">
    <g
       id="prefix__Groupe_1944"
       data-name="Groupe 1944"
       transform="translate(0,2.762)">
      <path
         id="prefix__Tracé_6866"
         d="m 436.231,213.375 c 0.221,-1.517 0.442,-3.034 0.727,-4.551 0.506,-2.844 1.138,-5.593 1.706,-7.9 0.79,-3.223 1.643,-6.478 2.465,-9.638 0.158,-0.6 0.316,-1.2 0.474,-1.77 a 36.778,36.778 0 0 0 1.359,-8.28 10.92,10.92 0 0 0 -0.79,-4.93 7.721,7.721 0 0 0 -3.381,-3.824 c -0.221,-0.126 -0.442,-0.221 -0.664,-0.348 a 13.885,13.885 0 0 0 -5.183,-1.232 32.816,32.816 0 0 0 -10.144,1.2 31.86,31.86 0 0 0 -4.835,1.58 20.7,20.7 0 0 0 -12.072,15.706 c 0,0 -2.749,10.428 -0.379,25.123"
         class="prefix__cls-1"
         data-name="Tracé 6866"
         transform="translate(-287.832,-127.716)"
         inkscape:connector-curvature="0"
         style="fill:none;stroke:#3a3188;stroke-width:1.20000005px;stroke-linecap:round;stroke-linejoin:round;stroke-miterlimit:10" />
      <path
         id="prefix__Tracé_6867"
         d="m 410.986,192.6 c 1.39,-8.058 8.28,-24.207 10.207,-35.3 a 14.923,14.923 0 0 0 -0.758,-8 12.573,12.573 0 0 0 -4.551,-6.067 c -0.348,-0.253 -0.727,-0.474 -1.074,-0.7 a 13.853,13.853 0 0 0 -3.95,-1.517 38.049,38.049 0 0 0 -10.713,-0.316 80.229,80.229 0 0 0 -11.661,2.212 c -4.013,1.043 -7.837,2.591 -12.261,3.476 -16.907,3.413 -19.53,8.564 -20.225,11.06"
         data-name="Tracé 6867"
         transform="translate(-254.623,-106.943)"
         style="fill:none;stroke:#3a3188;stroke-width:1.70000005px;stroke-linecap:round;stroke-linejoin:round;stroke-miterlimit:10"
         inkscape:connector-curvature="0" />
      <path
         id="prefix__Tracé_6868"
         d="m 382.314,165.777 c 3.034,-10.3 11.945,-27.367 12.957,-35.014 a 33.563,33.563 0 0 0 0.063,-10.808 21.877,21.877 0 0 0 -8.216,-13.589 25.719,25.719 0 0 0 -3.982,-2.5 28.75,28.75 0 0 0 -8.058,-2.37 c -9.006,-1.2 -20.794,2.655 -22.026,3 -1.8,0.506 -15.105,4.393 -20.256,5.657 -2.749,0.7 -5.562,1.3 -8.28,1.864 -1.928,0.411 -8.469,1.264 -11.534,2.338 -5.4,1.864 -9.259,5.277 -10.112,10.871 a 52.544,52.544 0 0 0 -0.569,5.372"
         data-name="Tracé 6868"
         transform="translate(-217.893,-80.119)"
         style="fill:none;stroke:#3a3188;stroke-linecap:round;stroke-linejoin:round;stroke-miterlimit:10"
         inkscape:connector-curvature="0" />
      <path
         id="prefix__Tracé_6869"
         d="m 357.789,139.686 c 3.065,-8.754 10.3,-26.229 12.135,-33.087 a 46.785,46.785 0 0 0 1.485,-8.469 35.555,35.555 0 0 0 -0.126,-7.616 28.654,28.654 0 0 0 -3.792,-11 37.084,37.084 0 0 0 -6.731,-7.774 C 358.2,69.31 354.5,67.446 351,65.9 a 32.577,32.577 0 0 0 -7.742,-2.307 34.153,34.153 0 0 0 -10.46,-0.126 c -8.5,1.074 -25.06,8.122 -29.263,9.386 a 61.8,61.8 0 0 1 -23.2,2.781 c -18.834,-1.264 -25.565,8.216 -24.27,17.633 0.411,2.971 0.948,6.921 1.738,11.345"
         data-name="Tracé 6869"
         transform="translate(-186.163,-54.028)"
         style="fill:none;stroke:#3a3188;stroke-width:0.80000001px;stroke-linecap:round;stroke-linejoin:round;stroke-miterlimit:10"
         inkscape:connector-curvature="0" />
      <path
         id="prefix__Tracé_6870"
         d="m 337.755,120 c 0.126,-0.379 10.3,-22.374 13.336,-31.759 a 41.3,41.3 0 0 0 1.77,-9.544 45.176,45.176 0 0 0 -0.063,-9.512 31.923,31.923 0 0 0 -4.2,-12.514 57.522,57.522 0 0 0 -9.954,-11 59.86,59.86 0 0 0 -11.945,-7.015 75.2,75.2 0 0 0 -7.774,-2.749 38.558,38.558 0 0 0 -12.425,-1.516 24.722,24.722 0 0 0 -8.785,2.086 c -3.445,1.58 -6.921,3.287 -10.27,4.961 l -0.095,0.063 a 92.7,92.7 0 0 1 -12.2,5.277 c -0.348,0.126 -4.93,1.643 -6.921,2.117 -1.675,0.411 -3.413,0.7 -5.088,0.948 -5.72,0.822 -13.431,0.916 -18.076,-0.126 -9.2,-2.086 -34.7,0.506 -25.407,30.653 0,0 0.506,1.8 1.327,4.487"
         class="prefix__cls-1"
         data-name="Tracé 6870"
         transform="translate(-159.998,-34.34)"
         inkscape:connector-curvature="0"
         style="fill:none;stroke:#3a3188;stroke-width:1.20000005px;stroke-linecap:round;stroke-linejoin:round;stroke-miterlimit:10" />
      <path
         id="prefix__Tracé_6871"
         d="m 45.57,214.4 -9.07,25.407 h 5.183 l 1.991,-5.657 h 8.975 l 1.959,5.657 h 5.246 L 51.068,214.4 Z m -0.411,15.453 3,-8.532 2.939,8.532 z"
         class="prefix__cls-5"
         data-name="Tracé 6871"
         transform="translate(-36.089,-157.499)"
         inkscape:connector-curvature="0"
         style="fill:#3a3188" />
      <path
         id="prefix__Rectangle_1099"
         d="M 0,0 H 4.993 V 25.565 H 0 Z"
         class="prefix__cls-5"
         data-name="Rectangle 1099"
         transform="translate(26.703,56.743)"
         inkscape:connector-curvature="0"
         style="fill:#3a3188" />
      <path
         id="prefix__Tracé_6872"
         d="M 164.138,214.4 H 155.1 v 25.407 h 9.038 c 8.153,0 11.819,-3.919 11.819,-12.7 -0.032,-8.785 -3.666,-12.7 -11.819,-12.7 m -0.158,20.983 h -3.887 v -16.534 h 3.887 c 4.961,0 6.794,2.244 6.794,8.28 0.032,6 -1.833,8.248 -6.794,8.248"
         class="prefix__cls-5"
         data-name="Tracé 6872"
         transform="translate(-117.21,-157.499)"
         inkscape:connector-curvature="0"
         style="fill:#3a3188" />
      <path
         id="prefix__Tracé_6873"
         d="m 329.055,223.139 c -3.634,-0.853 -5.341,-1.454 -5.341,-3.129 0,-2.212 0.727,-3.413 4.582,-3.413 3.476,0 4.709,1.074 4.709,4.077 v 1.043 h 4.74 v -1.043 c 0,-5.72 -3,-8.374 -9.449,-8.374 -6.449,0 -9.48,2.591 -9.48,8.153 0,5.246 4.772,6.352 8.627,7.268 3.571,0.853 5.751,1.517 5.751,3.634 0,2.212 -0.79,3.413 -4.9,3.413 -3.761,0 -5.025,-1.011 -5.025,-4.077 v -1.043 H 318.5 v 1.043 c 0,5.783 3.034,8.374 9.8,8.374 6.766,0 9.765,-2.5 9.765,-8.153 0.032,-5.657 -4.993,-6.826 -9.006,-7.774"
         class="prefix__cls-5"
         data-name="Tracé 6873"
         transform="translate(-228.974,-156.063)"
         inkscape:connector-curvature="0"
         style="fill:#3a3188" />
      <path
         id="prefix__Tracé_6874"
         d="m 243.424,211.3 c -8.122,0 -11.724,4.171 -11.724,13.525 0,9.354 3.6,13.525 11.724,13.525 5.119,0 8.248,-1.833 9.923,-5.72 l 0.727,-1.706 h -5.151 l -0.348,0.632 c -0.98,1.738 -2.465,2.465 -5.183,2.465 -4.108,0 -6.067,-1.738 -6.636,-5.973 h 18.36 v -2.5 c 0.032,-9.86 -3.571,-14.252 -11.692,-14.252 m -6.794,12.514 c 0.19,-5.815 2.117,-8.09 6.794,-8.09 h 0.095 l 0.221,-0.032 c 4.424,0.095 6.257,2.4 6.478,8.122 z"
         class="prefix__cls-5"
         data-name="Tracé 6874"
         transform="translate(-169.604,-155.379)"
         inkscape:connector-curvature="0"
         style="fill:#3a3188" />
      <path
         id="prefix__Tracé_6875"
         d="m 178.464,332.531 c 0,-4.456 -2.5,-6.731 -7.395,-6.731 H 162 v 21.11 h 3.192 v -7.81 h 5.815 l 4.235,7.774 h 3.476 l -4.551,-8.185 c 2.907,-0.758 4.3,-2.781 4.3,-6.162 m -7.521,3.982 h -5.751 v -8 h 5.751 c 3,0 4.3,1.2 4.3,4.013 0.032,2.749 -1.3,3.982 -4.3,3.982"
         class="prefix__cls-5"
         data-name="Tracé 6875"
         transform="translate(-121.93,-233.695)"
         inkscape:connector-curvature="0"
         style="fill:#3a3188" />
      <path
         id="prefix__Tracé_6876"
         d="m 243.864,332.531 c 0,-4.456 -2.5,-6.731 -7.395,-6.731 H 227.4 v 21.11 h 3.192 v -7.81 h 5.846 l 4.235,7.774 h 3.476 l -4.551,-8.153 c 2.876,-0.79 4.266,-2.812 4.266,-6.194 m -7.489,3.982 h -5.751 v -8 h 5.751 c 3,0 4.3,1.2 4.3,4.013 0,2.749 -1.327,3.982 -4.3,3.982"
         class="prefix__cls-5"
         data-name="Tracé 6876"
         transform="translate(-166.662,-233.695)"
         inkscape:connector-curvature="0"
         style="fill:#3a3188" />
      <path
         id="prefix__Rectangle_1100"
         d="M 0,0 H 3.192 V 21.11 H 0 Z"
         class="prefix__cls-5"
         data-name="Rectangle 1100"
         transform="translate(81.436,92.105)"
         inkscape:connector-curvature="0"
         style="fill:#3a3188" />
      <path
         id="prefix__Tracé_6877"
         d="m 312.4,328.644 h 6.383 v 18.266 h 3.192 v -18.266 h 6.415 V 325.8 H 312.4 Z"
         class="prefix__cls-5"
         data-name="Tracé 6877"
         transform="translate(-224.801,-233.695)"
         inkscape:connector-curvature="0"
         style="fill:#3a3188" />
      <path
         id="prefix__Tracé_6878"
         d="m 35.2,328.644 h 6.383 v 18.266 h 3.192 V 328.644 H 51.19 V 325.8 H 35.2 Z"
         class="prefix__cls-5"
         data-name="Tracé 6878"
         transform="translate(-35.2,-233.695)"
         inkscape:connector-curvature="0"
         style="fill:#3a3188" />
      <path
         id="prefix__Rectangle_1101"
         d="M 0,0 H 3.192 V 21.11 H 0 Z"
         class="prefix__cls-5"
         data-name="Rectangle 1101"
         transform="translate(132.441,92.105)"
         inkscape:connector-curvature="0"
         style="fill:#3a3188" />
      <path
         id="prefix__Tracé_6879"
         d="m 494.464,332.531 c 0,-4.456 -2.5,-6.731 -7.395,-6.731 H 478 v 21.11 h 3.192 v -7.81 h 5.815 l 4.235,7.774 h 3.476 l -4.551,-8.185 c 2.907,-0.758 4.3,-2.781 4.3,-6.162 m -7.49,3.982 h -5.751 v -8 h 5.751 c 3,0 4.3,1.2 4.3,4.013 0,2.749 -1.327,3.982 -4.3,3.982"
         class="prefix__cls-5"
         data-name="Tracé 6879"
         transform="translate(-338.07,-233.695)"
         inkscape:connector-curvature="0"
         style="fill:#3a3188" />
      <path
         id="prefix__Tracé_6880"
         d="m 548.2,323.4 c -6.794,0 -9.7,3.381 -9.7,11.282 0,7.901 2.907,11.282 9.7,11.282 4.266,0 6.794,-1.422 8.153,-4.645 l 0.284,-0.664 h -3.255 l -0.126,0.253 c -0.948,1.706 -2.465,2.465 -5.056,2.465 -4.171,0 -6.067,-1.865 -6.478,-6.415 H 557.9 v -1.612 c 0,-8.374 -2.907,-11.945 -9.7,-11.945 m -6.573,10.966 c 0.063,-5.941 1.928,-8.28 6.573,-8.28 l 0.19,-0.032 c 4.393,0.063 6.257,2.5 6.352,8.311 z"
         class="prefix__cls-5"
         data-name="Tracé 6880"
         transform="translate(-379.451,-232.054)"
         inkscape:connector-curvature="0"
         style="fill:#3a3188" />
      <path
         id="prefix__Tracé_6881"
         d="m 98.4,323.4 c -6.794,0 -9.7,3.381 -9.7,11.282 0,7.901 2.907,11.282 9.7,11.282 4.266,0 6.794,-1.422 8.153,-4.645 l 0.284,-0.664 h -3.255 l -0.126,0.253 c -0.948,1.706 -2.465,2.465 -5.056,2.465 -4.171,0 -6.067,-1.865 -6.478,-6.415 H 108.1 v -1.612 c 0,-8.374 -2.907,-11.945 -9.7,-11.945 m -6.54,10.965 c 0.063,-5.941 1.928,-8.28 6.573,-8.28 l 0.19,-0.032 c 4.393,0.063 6.257,2.5 6.352,8.311 z"
         class="prefix__cls-5"
         data-name="Tracé 6881"
         transform="translate(-71.793,-232.054)"
         inkscape:connector-curvature="0"
         style="fill:#3a3188" />
      <path
         id="prefix__Tracé_6882"
         d="m 616.959,333.138 c -2.812,-0.664 -5.246,-1.232 -5.246,-3.381 0,-2.655 1.264,-3.634 4.709,-3.634 3.445,0 4.8,1.2 4.8,4.235 v 0.316 h 3 v -0.316 c 0,-4.74 -2.4,-6.857 -7.806,-6.857 -5.435,0 -7.837,2.054 -7.837,6.636 0,4.2 3.824,5.088 7.205,5.909 3,0.7 5.593,1.327 5.593,3.824 0,2.623 -1.39,3.634 -4.961,3.634 -3.666,0 -5.088,-1.2 -5.088,-4.235 v -0.316 H 608.3 v 0.316 c 0,4.74 2.5,6.857 8.122,6.857 5.593,0 8.09,-2.054 8.09,-6.636 0.032,-4.582 -4.013,-5.53 -7.553,-6.352"
         class="prefix__cls-5"
         data-name="Tracé 6882"
         transform="translate(-427.193,-232.122)"
         inkscape:connector-curvature="0"
         style="fill:#3a3188" />
    </g>
    <g
       style="fill:#59bbab;fill-opacity:1"
       id="prefix__Groupe_1946"
       data-name="Groupe 1946"
       transform="translate(103.052,122.929)">
      <g
         style="fill:#59bbab;fill-opacity:1"
         id="prefix__Groupe_1945"
         data-name="Groupe 1945">
        <path
           style="fill:#59bbab;fill-opacity:1"
           id="prefix__Rectangle_1102"
           d="M 0,0 H 29.61 V 2.844 H 0 Z"
           data-name="Rectangle 1102"
           inkscape:connector-curvature="0" />
      </g>
    </g>
    <path
       style="fill:#db1c83"
       inkscape:connector-curvature="0"
       data-name="Tracé 6883"
       class="prefix__cls-8"
       d="m 117.619,86.619 a 12.466,12.466 0 0 0 -12.1,16.085 c 0,0 0.158,0.506 0.253,0.727 a 13.168,13.168 0 0 0 1.043,2.117 79.094,79.094 0 0 0 10.839,15.516 c 3.666,-3.476 7.837,-9.765 10.144,-13.968 1.2,-2.37 2.433,-5.151 2.433,-8 A 12.516,12.516 0 0 0 117.619,86.619 m 0.063,20.383 a 8.058,8.058 0 1 1 8.058,-8.058 8.052,8.052 0 0 1 -8.058,8.058"
       id="prefix__Tracé_6883" />
    <path
       style="fill:#3a3188"
       inkscape:connector-curvature="0"
       data-name="Tracé 6884"
       class="prefix__cls-5"
       d="m 189.386,48.003 a 2.876,2.876 0 1 1 2.876,2.876 2.886,2.886 0 0 1 -2.876,-2.876"
       id="prefix__Tracé_6884" />
    <path
       style="fill:#59bbab"
       inkscape:connector-curvature="0"
       data-name="Tracé 6885"
       class="prefix__cls-9"
       d="m 127.827,38.459 a 5.467,5.467 0 1 1 5.467,5.467 5.469,5.469 0 0 1 -5.467,-5.467"
       id="prefix__Tracé_6885" />
    <path
       style="fill:#3a3188"
       inkscape:connector-curvature="0"
       data-name="Tracé 6886"
       class="prefix__cls-5"
       d="m 157.722,74.042 a 2.876,2.876 0 1 1 2.876,2.876 2.886,2.886 0 0 1 -2.876,-2.876"
       id="prefix__Tracé_6886" />
    <path
       style="fill:#3a3188"
       inkscape:connector-curvature="0"
       data-name="Tracé 6887"
       class="prefix__cls-5"
       d="m 151.97,2.876 a 2.876,2.876 0 1 1 2.876,2.876 2.886,2.886 0 0 1 -2.876,-2.876"
       id="prefix__Tracé_6887" />
    <path
       style="fill:#3a3188"
       inkscape:connector-curvature="0"
       data-name="Tracé 6888"
       class="prefix__cls-5"
       d="m 145.903,46.739 a 2.876,2.876 0 1 1 2.876,2.876 2.886,2.886 0 0 1 -2.876,-2.876"
       id="prefix__Tracé_6888" />
    <path
       style="fill:#59bbab"
       inkscape:connector-curvature="0"
       data-name="Tracé 6889"
       class="prefix__cls-9"
       d="m 171.911,35.962 a 5.341,5.341 0 1 1 5.341,-5.341 5.354,5.354 0 0 1 -5.341,5.341"
       id="prefix__Tracé_6889" />
    <path
       style="fill:#db1c83"
       inkscape:connector-curvature="0"
       data-name="Tracé 6890"
       class="prefix__cls-8"
       d="m 143.059,24.078 a 4.2,4.2 0 1 0 4.2,-4.2 4.2,4.2 0 0 0 -4.2,4.2"
       id="prefix__Tracé_6890" />
  </g>
</svg>
