<svg class="img_header" data-name="Calque 2" xmlns="http://www.w3.org/2000/svg" viewBox="0 0 203.13 157.71" aria-label="Ministère de la Transition écologique et solidaire" width="215"><path d="M.05 30.12h3.86l3.65 6.23 3.66-6.23h3.87v15.13h-3.07V34.49l-3.37 5.57H6.49l-3.37-5.57v10.76H.05zM19.3 30.12h3.07v15.13H19.3zM26.61 30.12h3.93l6.76 10.83V30.12h3.07v15.13h-3.93l-6.76-10.87v10.87h-3.07zM44.61 30.12h3.07v15.13h-3.07zM52.78 41.12a4.33 4.33 0 003.34 1.86 1.71 1.71 0 002-1.75c0-2.7-6.92-2.1-6.92-7.13a4.53 4.53 0 014.84-4.39 6.71 6.71 0 015.3 2.55l-2.25 2a4 4 0 00-3-1.88 1.61 1.61 0 00-1.75 1.58c0 2.7 6.91 2.07 6.91 7.19 0 2.81-2.25 4.54-5 4.54a6.82 6.82 0 01-5.7-2.57zM62.74 30.12h12.4v2.79h-4.67v12.34H67.4V32.91h-4.66zM77.84 30.12h8.82v2.62h-5.75v3.5h4.88v2.61h-4.88v3.78h5.75v2.62h-8.82zm.26-4.21h3.16l2.44 2.92h-2.79zM90.22 30.12h4.63c3.33 0 5.38 1.71 5.38 4.52a4.12 4.12 0 01-2.42 3.91l4.75 6.7h-3.65l-4-6.13h-1.58v6.12h-3.07zm3.07 2.62v3.78h1.73a1.9 1.9 0 100-3.78zM104.46 30.12h8.82v2.62h-5.75v3.5h4.89v2.61h-4.89v3.78h5.75v2.62h-8.82zM.05 51.93h5.94c4.8 0 8 3.48 8 7.57s-3.24 7.56-8 7.56H.05zm3.07 2.79v9.55h2.92a4.78 4.78 0 100-9.55zM16.99 51.93h8.82v2.62h-5.75v3.5h4.85v2.61h-4.85v3.79h5.75v2.61h-8.82zM34.99 51.93h3.07v12.34h5.75v2.79h-8.82zM50.98 51.93h4l5.73 15.13h-3.25l-1.44-3.94h-6l-1.45 3.93h-3.31zm4.09 8.58l-2.08-5.68-2.08 5.68zM67.12 51.93h12.41v2.79h-4.62v12.34h-3.07V54.72h-4.67zM82.23 51.93h4.62c3.33 0 5.38 1.71 5.38 4.52a4.09 4.09 0 01-2.42 3.91l4.76 6.7h-3.66l-4-6.12h-1.57v6.12h-3.07zm3.07 2.62v3.78h1.73a1.9 1.9 0 100-3.78zM100.91 51.93h4l5.73 15.13h-3.27l-1.39-3.94h-6l-1.45 3.93h-3.32zm4.09 8.58l-2.09-5.68-2 5.68zM113.02 51.93h3.89l6.77 10.83V51.93h3.06v15.13h-3.93l-6.76-10.87v10.87h-3.07zM131.91 62.91a4.33 4.33 0 003.34 1.86 1.71 1.71 0 002-1.75c0-2.7-6.92-2.1-6.92-7.13a4.53 4.53 0 014.84-4.39 6.71 6.71 0 015.3 2.55l-2.25 2a4 4 0 00-3-1.88 1.61 1.61 0 00-1.75 1.58c0 2.7 6.91 2.07 6.91 7.19 0 2.81-2.25 4.54-5 4.54a6.82 6.82 0 01-5.62-2.53zM143.51 51.93h3.07v15.13h-3.07zM149.26 51.93h12.4v2.79h-4.67v12.34h-3.08V54.72h-4.67zM164.36 51.93h3.07v15.13h-3.07zM186.43 59.5a8 8 0 11-8-8 7.86 7.86 0 018 8zm-3.16 0a4.88 4.88 0 10-4.86 5.12 4.86 4.86 0 004.86-5.12zM189.36 51.93h3.94l6.76 10.83V51.93h3.07v15.13h-3.93l-6.77-10.87v10.87h-3.07zM.05 73.74h8.86v2.62H3.12v3.5H8v2.61H3.12v3.79h5.79v2.61H.05zm3-1.29l2.44-2.92h3.16l-2.81 2.92zM22.78 84.35l2.42 1.86a7.73 7.73 0 01-6.37 3.09 8 8 0 116.37-12.92l-2.42 1.88a4.71 4.71 0 00-3.95-2.07 5.13 5.13 0 000 10.24 4.7 4.7 0 003.95-2.08z"/><path d="M42.51 81.31a8 8 0 11-8-8 7.86 7.86 0 018 8zm-3.15 0a4.88 4.88 0 10-4.87 5.12 4.86 4.86 0 004.87-5.12zM45.45 73.74h3.07v12.38h5.75v2.79h-8.82zM71.19 81.31a8 8 0 11-8-8 7.86 7.86 0 018 8zm-3.16 0a4.88 4.88 0 10-4.86 5.12 4.86 4.86 0 004.86-5.12zM84.99 85.12v-2.56h-3.84v-2.79h6.91v6.44a8.06 8.06 0 01-6.59 3.09 8 8 0 01-8.25-8 8.07 8.07 0 0114.41-4.93l-2.42 1.88a4.71 4.71 0 00-4-2.07 4.87 4.87 0 00-4.89 5.12 5 5 0 005.1 5.12 5 5 0 003.57-1.3zM91.48 73.74h3.07v15.13h-3.07zM114.64 89.93a3.09 3.09 0 001.08-.17v2.59a4.05 4.05 0 01-1.6.28 7.12 7.12 0 01-4.73-2l-1.79-1.6a7.75 7.75 0 01-2.08.26 8 8 0 118-8 8 8 0 01-3 6.31l.91.86a4.67 4.67 0 003.21 1.47zm-4.25-8.62a4.88 4.88 0 10-4.87 5.12 4.87 4.87 0 004.87-5.12zM125.4 73.74h3.07v9.21c0 4-2.33 6.35-6.13 6.35s-6.12-2.37-6.12-6.35v-9.21h3.07v9.47a3.06 3.06 0 106.11 0zM132.27 73.74h8.82v2.62h-5.75v3.5h4.89v2.61h-4.89v3.79h5.75v2.61h-8.82zM.05 95.56h8.86v2.61H3.12v3.5H8v2.62H3.12v3.83h5.79v2.61H.05zM11.2 95.56h12.4v2.78h-4.69v12.34h-3V98.34H11.2zM32.79 106.53a4.33 4.33 0 003.35 1.86 1.7 1.7 0 001.94-1.75c0-2.7-6.91-2.1-6.91-7.13a4.52 4.52 0 014.84-4.39 6.68 6.68 0 015.29 2.55l-2.25 2a4 4 0 00-3-1.88 1.61 1.61 0 00-1.75 1.58c0 2.7 6.91 2.07 6.91 7.2 0 2.81-2.24 4.53-5 4.53a6.85 6.85 0 01-5.62-2.52zM58.98 103.12a8 8 0 11-8-8 7.86 7.86 0 018 8zm-3.16 0a4.88 4.88 0 10-4.86 5.12 4.86 4.86 0 004.86-5.12zM61.91 95.56h3.06v12.33h5.75v2.79h-8.81zM73.43 95.56h3.07v15.12h-3.07zM80.74 95.56h5.94c4.8 0 8 3.47 8 7.56s-3.24 7.56-8 7.56h-5.94zm3.07 2.78v9.55h2.91a4.78 4.78 0 100-9.55zM101.16 95.56h4l5.75 15.12h-3.26l-1.45-3.93h-6.05l-1.44 3.93h-3.27zm4.08 8.57l-2.07-5.68-2.08 5.67zM113.24 95.56h3.07v15.12h-3.07zM120.54 95.56h4.63c3.32 0 5.38 1.7 5.38 4.51a4.11 4.11 0 01-2.42 3.91l4.75 6.7h-3.67l-4-6.11h-1.6v6.11h-3.07zm3.07 2.61v3.78h1.73a1.9 1.9 0 100-3.78zM134.78 95.56h8.82v2.61h-5.75v3.5h4.88v2.62h-4.88v3.83h5.75v2.61h-8.82zM49.27 152.49c.41 0 .77.31.58 1.1l-1.91.44c.33-.88.89-1.54 1.33-1.54m1 3.08h-.36a2.31 2.31 0 01-1.5 1c-.52 0-.79-.31-.79-1a4.71 4.71 0 01.09-.85l3.07-1c.6-1.42-.12-2-1-2-1.45 0-3.11 2.43-3.11 4.56 0 .95.46 1.48 1.17 1.48s1.69-.81 2.4-2.14m-.53-4.5l2.2-2v-.23h-1.2l-1.33 2.23zm-6.63 1.42h1l-1.62 4.42a.52.52 0 00.45.76 3.78 3.78 0 003-2.17h-.29a4.05 4.05 0 01-1.88 1.14l1.49-4.16h1.52l.19-.64h-1.53l.57-1.59h-.59l-1 1.59-1.26.18zm-1.37-.21a.46.46 0 00-.37-.65 2.85 2.85 0 00-2.36 1.92h.29a2.25 2.25 0 011.23-.94l-1.7 4.41a.45.45 0 00.37.65 2.8 2.8 0 002.25-1.92h-.29a2.29 2.29 0 01-1.23.94zm.31-2.22a.73.73 0 00.73-.73.73.73 0 10-1.46 0 .72.72 0 00.73.73m-9.77 6.79c-.22.49 0 .82.5.82.3 0 .43-.08.55-.4l1.18-3.12a4.19 4.19 0 012.1-1.38c.33 0 .28.27.07.67l-1.81 3.47a.52.52 0 00.45.76 2.86 2.86 0 002.36-1.92h-.29a2.29 2.29 0 01-1.23.94l1.55-3.14a2.53 2.53 0 00.3-1.07.77.77 0 00-.82-.85c-.76 0-1.54.87-2.46 1.93v-.82c0-.59-.19-1.11-.72-1.11-.33 0-.66.29-1 .7v.11c.58 0 .84.83.43 1.74zm0-3.86c.21-.73.1-1.36-.46-1.36s-.82.5-1.48 1.93v-.82c0-.59-.19-1.11-.73-1.11s-1.18 1-1.61 1.92h.28c.3-.43.58-.69.8-.69s.41.41 0 1.32l-1.2 2.67c-.22.49 0 .82.5.82a.5.5 0 00.56-.4l1.17-3.12c.34-.41.64-.77 1-1.16zm-6.81-.54c.41 0 .76.31.57 1.1l-1.9.44c.33-.88.88-1.54 1.33-1.54m1.05 3.08h-.38a2.27 2.27 0 01-1.49 1c-.53 0-.79-.31-.79-1a4 4 0 01.09-.85l3.07-1c.6-1.42-.12-2-1-2-1.45 0-3.1 2.43-3.1 4.56 0 .95.45 1.48 1.16 1.48s1.7-.81 2.41-2.14m-7.24-3h1l-1.62 4.42a.52.52 0 00.44.76 3.76 3.76 0 002.93-2.16h-.26a4.07 4.07 0 01-1.87 1.14l1.48-4.16h1.52l.19-.64h-1.47l.56-1.59h-.58l-1.06 1.59-1.25.18zm-5.6 3.45c0-1.37 1.52-3.22 2.37-3.22a1.68 1.68 0 01.52.07l-.88 2.36c-.51.62-1.3 1.37-1.67 1.37-.21 0-.34-.17-.34-.58m4.67-4.56h-.47l-.52.51h-.11c-2.53 0-4.71 2.84-4.71 4.91a.84.84 0 00.9.91c.66 0 1.3-.94 2-1.93v.35c-.09 1 .22 1.58.75 1.58s1.19-1 1.62-1.92h-.28c-.3.43-.58.68-.8.68s-.4-.42 0-1.31zm-5.38 1.51c.21-.73.1-1.36-.46-1.36s-.82.5-1.48 1.93v-.82c0-.59-.19-1.11-.72-1.11s-1.19 1-1.62 1.92h.28c.3-.43.58-.69.8-.69s.41.41 0 1.32l-1.19 2.67c-.23.49 0 .82.49.82a.5.5 0 00.56-.4l1.17-3.12c.34-.41.64-.77 1-1.16zm-8.5 4.45l.11-.34c-1.47-.28-1.66-.28-1.07-1.89l.6-1.65h1.63c.73 0 .74.3.63 1.1h.42l1-2.67H7.3c-.36.63-.65 1.1-1.45 1.1H4.22l.86-2.34c.26-.75.42-.9 1.42-.9h.71c1 0 1.15.27 1.15 1.32h.41l.34-1.82H2.99l-.11.34c1.19.25 1.3.36.74 1.89l-1.33 3.63c-.55 1.52-.78 1.65-2.15 1.89l-.1.34zM34.42 138.63c.41 0 .77.31.58 1.1l-1.91.44c.33-.89.89-1.54 1.33-1.54m1.06 3.07h-.38a2.29 2.29 0 01-1.5 1c-.52 0-.79-.31-.79-1a4.6 4.6 0 01.09-.84l3.07-1c.6-1.42-.12-2-1-2-1.45 0-3.11 2.43-3.11 4.56 0 .95.46 1.47 1.17 1.47s1.7-.81 2.41-2.14m-.53-4.51l2.16-2V135h-1.16l-1.33 2.25zm-6.64 1.42h1l-1.64 4.46a.51.51 0 00.45.75 3.79 3.79 0 002.93-2.15h-.29a4 4 0 01-1.88 1.13l1.49-4.16h1.52l.19-.63h-1.48l.57-1.6h-.59l-1 1.6-1.26.18zm-1.36-.21a.45.45 0 00-.37-.64 2.86 2.86 0 00-2.36 1.92h.29a2.21 2.21 0 011.23-.94l-1.79 4.41a.44.44 0 00.37.64 2.8 2.8 0 002.25-1.92h-.29a2.27 2.27 0 01-1.23.95zm.31-2.21a.74.74 0 000-1.47.74.74 0 000 1.47m-5.9 6.63l3.09-8.11-.1-.12-1.94.22v.26l.38.29c.34.27.23.52-.08 1.34l-2.47 6.37a.51.51 0 00.45.75 2.72 2.72 0 002.26-1.95h-.3a2.55 2.55 0 01-1.34.95m-5.88-.75c0-1.36 1.52-3.21 2.37-3.21a2.2 2.2 0 01.53.06l-.89 2.37c-.51.62-1.3 1.37-1.66 1.37s-.35-.18-.35-.59m4.67-4.56h-.47l-.52.51h-.11c-2.53 0-4.71 2.84-4.71 4.9a.84.84 0 00.91.91c.65 0 1.3-.93 2-1.93v.36c-.09 1 .23 1.57.76 1.57s1.18-1 1.62-1.92h-.29c-.3.44-.58.69-.8.69s-.4-.42 0-1.32zm-11.29 7.36c0-.59.57-1 1.38-1.28a8.83 8.83 0 001.19.46c.85.28 1.17.39 1.17.64 0 .54-.92 1-2.18 1-1.05 0-1.56-.23-1.56-.78m2.3-3.58c-.37 0-.51-.31-.51-.67 0-1 .53-2.44 1.36-2.44.37 0 .51.31.51.67 0 1-.53 2.44-1.36 2.44m2.4 3c0-.71-.63-1-1.66-1.28s-1.29-.34-1.29-.63a.9.9 0 01.57-.71 2.59 2.59 0 002.39-2.49 1.48 1.48 0 00-.12-.61h1.23l.19-.63h-1.95a1.54 1.54 0 00-.79-.22 2.57 2.57 0 00-2.54 2.45 1.44 1.44 0 001.18 1.48c-.72.32-1.12.69-1.12 1.14a.71.71 0 00.3.6c-1.67.49-2.32 1-2.32 1.83s1 1.08 2.21 1.08c2 0 3.72-1.09 3.72-2m-7.75-4.75c.73 0 .74.3.63 1.1h.42l1-2.68h-.42c-.37.64-.66 1.1-1.45 1.1H4.27l.81-2.23c.26-.74.42-.88 1.42-.88h.71c1 0 1.15.27 1.15 1.3h.41l.34-1.81H2.99l-.11.34c1.19.24 1.3.35.74 1.88l-1.33 3.64c-.55 1.52-.78 1.64-2.15 1.89l-.1.34h6.81l1.22-1.93h-.46a4.5 4.5 0 01-3.12 1.42c-1.81 0-1.64-.08-1-1.73l.64-1.76zm.89-4.65l2.16-1.48v-.24H7.46l-1.2 1.72zM33.7 124.77c.41 0 .77.31.58 1.1l-1.91.44c.33-.89.89-1.54 1.33-1.54m1 3.07h-.37a2.29 2.29 0 01-1.5 1c-.52 0-.79-.31-.79-1a4.5 4.5 0 01.09-.84l3.07-1c.6-1.42-.12-2-1-2-1.45 0-3.11 2.43-3.11 4.56 0 1 .46 1.47 1.17 1.47s1.69-.81 2.4-2.14m-.61-4.46l2.17-2v-.31h-1.08l-1.33 2.25zm-6.35 1.42h.81l-1.62 4.43a.52.52 0 00.44.75 3.77 3.77 0 002.93-2.15h-.29a4 4 0 01-1.87 1.13l1.49-4.16h1.51l.19-.63h-1.38l.56-1.6h-.56l-1.06 1.6-1 .18zm-.8.5c.21-.72.1-1.35-.45-1.35s-.82.5-1.49 1.93v-.82c0-.59-.19-1.11-.72-1.11s-1.19 1-1.62 1.92h.29c.3-.44.58-.69.8-.69s.41.41 0 1.32l-1.11 2.57c-.22.5 0 .82.5.82.3 0 .43-.08.55-.4l1.18-3.12c.33-.41.63-.76 1-1.16zm-6.81-.53c.41 0 .77.31.58 1.1l-1.91.44c.33-.89.89-1.54 1.33-1.54m1.06 3.07h-.24a2.29 2.29 0 01-1.5 1c-.52 0-.79-.31-.79-1a4.5 4.5 0 01.09-.84l3.07-1c.6-1.42-.12-2-1-2-1.45 0-3.11 2.43-3.11 4.56 0 1 .46 1.47 1.17 1.47s1.7-.81 2.41-2.14m-7.54 1.18c-.3 0-.74-.28-.74-.52a7.08 7.08 0 01.3-.85l.5-1.32c.53-.63 1.34-1.31 1.8-1.31.28 0 .49.18.49.59 0 1.21-1.13 3.41-2.35 3.41m3.49-3.9c0-.9-.33-1.23-.95-1.23-.78 0-1.51.82-2.25 1.82l1.91-4.91-.1-.12-1.94.22v.23l.37.29c.35.26.24.54-.07 1.34l-2 5.15a6 6 0 00-.32.94c0 .53.72 1 1.37 1 1.51 0 4-2.72 4-4.8m-6-.59a.45.45 0 00-.37-.64 2.85 2.85 0 00-2.36 1.92h.29a2.24 2.24 0 011.23-.95l-1.7 4.42a.44.44 0 00.37.64 2.8 2.8 0 002.23-1.89h-.29a2.24 2.24 0 01-1.23.94zm.31-2.22a.73.73 0 000-1.46.73.73 0 100 1.46m-4.47-.71h-4l-.11.35c1.19.24 1.3.35.74 1.88l-1.31 3.64c-.55 1.52-.78 1.64-2.15 1.88l-.1.35h6.15l1.33-2.37h-.47c-.75.83-1.64 1.87-3 1.87-1 0-1.16-.18-.6-1.73l1.31-3.64c.54-1.52.78-1.64 2.15-1.88z"/><path d="M22.83 17.71c.22-.21.44-.44.65-.68a13.94 13.94 0 011.26-1.29 3.76 3.76 0 01.42-.33s0-.11.07-.15c-.19.08-.3.23-.49.3 0 0-.08 0 0-.07l.41-.31v-.07a1.51 1.51 0 00-1.21.57h-.19c-.57.19-1 .68-1.56.91v-.08a6.4 6.4 0 01-.68.27 3.86 3.86 0 01-1 0 13.29 13.29 0 00-1.38.24 3.12 3.12 0 00-.71.29l-.06.07a1 1 0 01-.26.23 4.11 4.11 0 00-.63.49h-.06l-.61.58h-.11a.86.86 0 01.1-.16 1.74 1.74 0 01.11-.18l.16-.23v-.05a3.56 3.56 0 01.63-.47s-.06 0 0 0 0-.07.07-.1a1.18 1.18 0 00-.18.13c-.09.08-.16.25-.3.25h-.27a.35.35 0 010-.08.43.43 0 010-.07v-.07a1 1 0 01.26-.23c.15-.07.29-.16.44-.24l.06-.05a2.56 2.56 0 00-.6.29h-.07-.09c-.09 0 0 0 0 0s.15-.12.23-.19.07 0 .07 0c1.22-.94 2.89-.72 4.29-1.21l.34-.23c.19-.07.34-.26.57-.38a1.67 1.67 0 00.65-.87.14.14 0 000-.08 5.75 5.75 0 01-1.67 1.26 7.23 7.23 0 01-2.51.45c0-.07.12-.07.19-.07s.08-.16.16-.23h.11s0-.08.08-.08h.15c-.04 0-.34.12-.53 0 .07-.07 0-.19.11-.22h.15a.28.28 0 01.08-.16c.57-.34 1.1-.6 1.63-.91-.11 0-.19.12-.3 0 .07 0 0-.11.07-.11.42-.12.76-.34 1.18-.5-.15 0-.27.12-.42 0 .08 0 .11-.11.23-.11v-.11h0s.15 0 .23-.11-.12 0-.12 0a.81.81 0 01.5-.23c0-.07-.16 0-.16-.07s0 0 .08 0h-.08c-.07 0 0-.12 0-.15a3 3 0 00.34-.92h-.08a3.14 3.14 0 01-1.55.72h-.12a.82.82 0 01-.65 0 3.32 3.32 0 01-.38-.3 4.17 4.17 0 00-.95-.46 8.79 8.79 0 00-2.92-1.03 7.5 7.5 0 011.33-.38 5.81 5.81 0 011.93-.38 1.61 1.61 0 00-.38 0 6.81 6.81 0 00-1.63.23c-.38.08-.72.23-1.1.31-.23.07-.34.3-.61.26v-.11a2.19 2.19 0 011.45-.93 7.14 7.14 0 012 .07 10.41 10.41 0 011.44.27c.19 0 .23.3.38.34s.46 0 .68.15a.54.54 0 010-.22c.16-.16.34 0 .5 0s-.27-.53-.42-.8a.14.14 0 010-.08 4.18 4.18 0 00.91.76c.19.08.64.19.57 0a5.81 5.81 0 00-.88-1.14v-.15c-.07 0-.07 0-.11-.08v-.15c-.15-.08-.11-.23-.19-.34s0-.46-.11-.69a2.84 2.84 0 01-.15-.64c-.12-.65-.27-1.22-.35-1.82s.42-1.29.76-1.94a3.25 3.25 0 011.07-1.21 3.07 3.07 0 011.89-2c.53-.23 1-.38 1-.38h-26v20.05h18.46a15.84 15.84 0 012.46-1.3 10.2 10.2 0 001.92-1.11zM17 14.99h-.19c.04 0 .3-.19.45-.27s.19-.11.27-.07.19.07.26.15c-.22.19-.53.08-.79.19zm-5.81-.87a.14.14 0 010-.08 11.75 11.75 0 001.18-1.92 5.45 5.45 0 001.29-1 7.11 7.11 0 012.12-1.67 1.46 1.46 0 011 0c-.11.16-.3.12-.46.23a.14.14 0 01-.11 0 .12.12 0 000-.11c-.38.42-.91.61-1.22 1.1s-.38.87-.87 1c-.15 0 0-.12 0-.08a12.76 12.76 0 00-2.93 2.53zm3.15-2.51c0 .08-.08.09-.11.16a.33.33 0 01-.16.15H14a.47.47 0 01.3-.34s.04.04.04.07zm1.76 5.69a.23.23 0 01-.09.11s.08 0 0 .06a.84.84 0 01-.29.2h-.01l-.14.13h-.19l.28-.27a1.14 1.14 0 00.16-.15l.08-.08s.23-.03.2.04zm-.68-.31a4 4 0 01-.43.29 4.66 4.66 0 01-.5.25h-.06a1.57 1.57 0 00-.38.3v.05l-.05.06-.09.08a.1.1 0 010 .06H13.7l-.14.12a2.39 2.39 0 00-.22.23v-.06l.12-.14v-.05l.07-.08.12-.16a.35.35 0 00.05-.08V17.69a1 1 0 01.15-.2 1.49 1.49 0 00-.14.12s-.12 0-.07-.06l.09-.08a1.8 1.8 0 01.19-.2l.12-.09a.39.39 0 01.08-.1c.36-.35 1-.34 1.45-.56.19-.08.42 0 .61 0a.54.54 0 01.34.08c-.47.02-.79.23-1.1.43zm.78-2.64s.11 0 .15-.08h-.3v-.07c-.19 0-.42.11-.61.15s-.49.26-.79.34-.76.49-1.22.64v-.07c0-.07.19-.15.27-.27s0-.07 0-.07a6.48 6.48 0 011.1-1v-.11c.12-.16.31-.23.38-.42a.65.65 0 01.38-.34s-.11 0-.11-.12c-.16 0-.31.08-.46 0a.49.49 0 01.24-.14.2.2 0 01-.09-.05c0-.08.08-.17.19-.19s.34 0 .46-.16c-.27 0-.57.08-.84-.07a2 2 0 01.95-1.14h.12a.38.38 0 01-.31.38 3.66 3.66 0 01.91.22c0 .08-.11 0-.15 0 .19.12.42 0 .61.19-.12.12-.23 0-.34 0a9.86 9.86 0 013.41 1.37 10.2 10.2 0 01-2.62.8.78.78 0 01-.3 0v.11a.61.61 0 00-.38.08c-.31.13-.54.17-.65.06z" fill="#000091"/><path d="M55.23 0h-21.6a.6.6 0 01.2.09l.55.29a1.77 1.77 0 01.72.61c.08.11.19.34.11.49s-.11.5-.3.57a1.35 1.35 0 01-.8.08 1.78 1.78 0 01-.45-.08 3.12 3.12 0 011.48 1c0 .07.19.11.34.11s0 .08 0 .11-.15.12-.12.23h.12c.19-.07.15-.45.42-.34a.43.43 0 01.15.57 3.85 3.85 0 01-.46.38.32.32 0 000 .27 1.09 1.09 0 01.19.45c.12.27.15.57.27.84a5.28 5.28 0 01.26 1.7c0 .31-.15.57 0 .88a3 3 0 00.41.79 5.55 5.55 0 01.42.61c.23.38.65.76.46 1.22-.12.26-.54.22-.8.38s0 .49.07.68-.22.57-.49.68c.08.12.23.08.27.15s.22.31.11.5-.61.34-.38.68a1 1 0 010 .83.88.88 0 01-.68.57 1.47 1.47 0 01-.72 0 .51.51 0 00-.23-.07 16 16 0 00-1.96-.15 2.84 2.84 0 00-.54.15 3.63 3.63 0 00-.46.41.39.39 0 00-.08.1v.05a4.27 4.27 0 00-.3.44 4.15 4.15 0 00-.29.7 2.3 2.3 0 000 1.79c0 .05 1.25.43 2.09.8a7.45 7.45 0 01.9.45h21.12z" fill="#e1000f"/><path d="M34.91 7.32c.15 0 .38 0 .38.12-.07.3-.53.38-.76.68h-.11c-.12.08-.08.27-.19.27a.5.5 0 00-.34 0 .64.64 0 00.57.22.18.18 0 01.11.15.15.15 0 00.08 0h.07v.16c-.11.15-.3.07-.45.11a1.61 1.61 0 00.87 0c.23-.08 0-.46.15-.64-.07 0 0-.12-.07-.12a1.63 1.63 0 01.22-.23.26.26 0 00.23-.11c0-.08-.15-.11-.11-.19.22-.15.41-.38.34-.61s-.34-.11-.53-.19a1.33 1.33 0 00-.65 0 3 3 0 00-.57.15 2.92 2.92 0 00-.72.38 6.4 6.4 0 01.84-.23 2.74 2.74 0 01.64.08z" fill="#9d9d9c"/></svg>