<svg id="f3f823b8-e283-49b0-a858-e54f84355ad0" data-name="Calque 1" xmlns="http://www.w3.org/2000/svg" xmlns:xlink="http://www.w3.org/1999/xlink" viewBox="0 0 779.03 551.73"><defs><style>.bbd6631f-dc1a-4b28-8a2e-48da0f28b59c{fill:#fff;}.b1ec771d-db59-4321-b629-e846646537aa,.b478f896-b3c1-40c1-8376-c9338d6bce74,.f4c879b1-f943-4362-a5d8-4a19b4b84035,.ff9bc3af-9a08-4c8d-81c3-b025913ca48a{fill:none;stroke:#fff;stroke-linecap:round;stroke-linejoin:round;}.b1ec771d-db59-4321-b629-e846646537aa{stroke-width:3.5px;}.b478f896-b3c1-40c1-8376-c9338d6bce74{stroke-width:5px;}.f4c879b1-f943-4362-a5d8-4a19b4b84035{stroke-width:3px;}.ff9bc3af-9a08-4c8d-81c3-b025913ca48a{stroke-width:2.5px;}.a7130597-84e1-4c26-8669-ae04f5802c1d{clip-path:url(#b744bf2e-6121-4d81-9ef6-13f4b0ef1a22);}</style><clipPath id="b744bf2e-6121-4d81-9ef6-13f4b0ef1a22"><rect class="bbd6631f-dc1a-4b28-8a2e-48da0f28b59c" x="406.02" y="462.24" width="93.66" height="8.96"/></clipPath></defs><path class="b1ec771d-db59-4321-b629-e846646537aa" d="M549.52,353c.71-4.79,1.45-9.61,2.28-14.37,1.57-9,3.61-17.67,5.39-25,2.49-10.18,5.19-20.49,7.8-30.46l1.48-5.62c1.85-7.07,4-16.44,4.27-26.16.17-6.5-.58-11.32-2.46-15.62a24.78,24.78,0,0,0-10.69-12.13c-.66-.38-1.35-.74-2.07-1.07a44.24,44.24,0,0,0-16.42-3.9c-9.6-.57-19.81.66-32.11,3.85a95.27,95.27,0,0,0-15.28,5c-27.08,12-35.51,35.28-38.2,49.71,0,0-8.75,33-1.17,79.51"/><path class="b478f896-b3c1-40c1-8376-c9338d6bce74" d="M574.74,353c4.35-25.46,26.18-76.63,32.34-111.69A47.41,47.41,0,0,0,604.72,216a39.28,39.28,0,0,0-14.44-19.18c-1.11-.78-2.25-1.51-3.43-2.18a44.69,44.69,0,0,0-12.48-4.79c-8.37-1.86-22.55-2.18-33.89-1a255.27,255.27,0,0,0-36.91,7c-12.72,3.28-24.76,8.2-38.76,11-53.5,10.76-61.83,27.08-64,35"/><path class="f4c879b1-f943-4362-a5d8-4a19b4b84035" d="M600.24,353c9.6-32.62,37.78-86.56,41-110.83,1.66-12.38,2.16-23.49.16-34.19a71.62,71.62,0,0,0-12.73-29.51A70.06,70.06,0,0,0,615.36,165a74.31,74.31,0,0,0-12.64-7.91,88.59,88.59,0,0,0-25.5-7.45c-28.52-3.78-65.77,8.44-69.73,9.53-5.69,1.57-47.77,13.89-64.06,17.94-8.7,2.17-17.57,4.1-26.17,5.88-6.06,1.25-26.78,4-36.54,7.39-17.12,5.9-29.31,16.71-32,34.37-.88,5.73-1.47,11.43-1.84,17"/><path class="ff9bc3af-9a08-4c8d-81c3-b025913ca48a" d="M623,353c9.68-27.66,32.62-83,38.43-104.74a150.33,150.33,0,0,0,4.73-26.76,112.78,112.78,0,0,0-.43-24.07,90.48,90.48,0,0,0-12-34.77C648.34,153.76,641,146.1,632.4,138c-8.13-7.66-19.84-13.59-30.88-18.55a104.7,104.7,0,0,0-24.46-7.31c-11-2-22.07-1.79-33.14-.39-26.93,3.39-79.29,25.68-92.63,29.72a197.62,197.62,0,0,1-73.35,8.84c-59.63-3.95-80.86,26-76.78,55.75,1.3,9.43,3,21.88,5.47,35.85"/><path class="b1ec771d-db59-4321-b629-e846646537aa" d="M642.41,353c.38-1.18,32.59-70.85,42.15-100.47,3.61-11.15,4.79-20.92,5.61-30.19a143.65,143.65,0,0,0-.22-30.11,101.5,101.5,0,0,0-13.27-39.56c-5.1-8.61-21.38-26.73-31.49-34.81-10.86-8.68-28.38-18.3-37.79-22.15A212.64,212.64,0,0,0,582.79,87c-14.32-3.9-27.16-5.47-39.26-4.79a76.73,76.73,0,0,0-27.78,6.62c-10.94,5-21.91,10.44-32.52,15.69l-.33.16c-12,6-24.95,12.17-38.65,16.73-1.12.37-15.62,5.25-21.87,6.73-5.31,1.27-10.8,2.21-16.13,3-18.06,2.57-42.53,2.95-57.25-.37-29.1-6.57-109.82,1.56-80.41,97,0,0,1.63,5.7,4.18,14.17"/><rect class="bbd6631f-dc1a-4b28-8a2e-48da0f28b59c" x="406.02" y="462.24" width="93.66" height="8.96"/><g class="a7130597-84e1-4c26-8669-ae04f5802c1d"><rect class="bbd6631f-dc1a-4b28-8a2e-48da0f28b59c" x="406.01" y="462.24" width="93.66" height="8.96"/></g><path class="bbd6631f-dc1a-4b28-8a2e-48da0f28b59c" d="M452.09,347.35c-22.09,0-40,17.65-40,39.42a39.09,39.09,0,0,0,1.74,11.5s.5,1.6.82,2.3a40.72,40.72,0,0,0,3.29,6.65c14.35,27.61,34.28,49.07,34.28,49.07,11.61-11,24.82-30.91,32.13-44.2,3.8-7.45,7.72-16.28,7.72-25.32,0-21.77-17.89-39.42-40-39.42m.22,64.46a25.46,25.46,0,1,1,25.46-25.46,25.46,25.46,0,0,1-25.46,25.46"/><path class="bbd6631f-dc1a-4b28-8a2e-48da0f28b59c" d="M679.16,225.08a9.14,9.14,0,1,1,9.14,9.14,9.14,9.14,0,0,1-9.14-9.14"/><path class="bbd6631f-dc1a-4b28-8a2e-48da0f28b59c" d="M484.44,194.87a17.33,17.33,0,1,1,17.32,17.33,17.33,17.33,0,0,1-17.32-17.33"/><path class="bbd6631f-dc1a-4b28-8a2e-48da0f28b59c" d="M579,307.5a9.14,9.14,0,1,1,9.14,9.13A9.14,9.14,0,0,1,579,307.5"/><path class="bbd6631f-dc1a-4b28-8a2e-48da0f28b59c" d="M560.77,82.32a9.14,9.14,0,1,1,9.14,9.14,9.14,9.14,0,0,1-9.14-9.14"/><path class="bbd6631f-dc1a-4b28-8a2e-48da0f28b59c" d="M541.64,221.06a9.14,9.14,0,1,1,9.14,9.14,9.14,9.14,0,0,1-9.14-9.14"/><path class="bbd6631f-dc1a-4b28-8a2e-48da0f28b59c" d="M532.59,149.4a13.34,13.34,0,1,0,13.33-13.34,13.33,13.33,0,0,0-13.33,13.34"/><path class="bbd6631f-dc1a-4b28-8a2e-48da0f28b59c" d="M112.21,260.1h22.08l31.46,83.1H147.82l-7.95-21.6H106.63l-7.95,21.6H80.75Zm22.44,47.13L123.25,276l-11.4,31.22Z"/><path class="bbd6631f-dc1a-4b28-8a2e-48da0f28b59c" d="M169.45,260.1H186.3v83.1H169.45Z"/><path class="bbd6631f-dc1a-4b28-8a2e-48da0f28b59c" d="M200.06,260.1H232.7c26.36,0,44.16,19.12,44.16,41.55s-17.8,41.55-44.16,41.55H200.06Zm16.85,15.32v52.47h16c15.43,0,26.59-11.52,26.59-26.24s-11.16-26.23-26.59-26.23Z"/><path class="bbd6631f-dc1a-4b28-8a2e-48da0f28b59c" d="M327.8,346.44c-28.19,0-44.88-20.25-44.88-44.06,0-24.47,15.56-44.07,41.48-44.07,22.51,0,37.09,15.23,37.09,36a41.83,41.83,0,0,1-1.13,10H300.1c.64,16.2,11.66,27.06,28,27.06A27.87,27.87,0,0,0,351,320.2l12.15,9.72C355.5,340.12,343,346.44,327.8,346.44Zm-26.41-55.08h43.26c-.49-10.2-7.78-18.79-20.09-18.79C312.73,272.57,304.31,278.73,301.39,291.36Z"/><path class="bbd6631f-dc1a-4b28-8a2e-48da0f28b59c" d="M380.25,320.41c5,6.41,11.63,10.21,18.4,10.21s10.68-3.56,10.68-9.62c0-14.84-38-11.51-38-39.17,0-13.18,10.8-24.1,26.59-24.1,12.46,0,22.08,5.58,29.08,14l-12.34,11c-4.87-6.29-10.33-10.33-16.62-10.33-5.82,0-9.62,3.8-9.62,8.66,0,14.84,38,11.4,38,39.54-.24,15.43-12.35,24.93-27.54,24.93-14,0-23.51-5.11-30.87-13.89Z"/><path class="bbd6631f-dc1a-4b28-8a2e-48da0f28b59c" d="M78.23,372.43h55.82V382.8H111.82v58.79H100.46V382.8H78.23Z"/><path class="bbd6631f-dc1a-4b28-8a2e-48da0f28b59c" d="M174.65,444.3c-23.05,0-37.29-16.95-37.29-36.88,0-20.75,13.29-36.89,34.44-36.89,18.58,0,30.65,12.61,30.65,29.7a36.22,36.22,0,0,1-.82,7.32H149.29v.27c0,15.06,10.31,26,25.63,26a25.12,25.12,0,0,0,20.48-10.17l8.54,6.64C197.57,438.88,187.39,444.3,174.65,444.3Zm-24.41-45.83h40.55c-.41-9.9-7.6-18-18.85-18S153,386.67,150.24,398.47Z"/><path class="bbd6631f-dc1a-4b28-8a2e-48da0f28b59c" d="M211.62,372.43h19.57c14.52,0,23.41,7.7,23.41,20,0,8.3-4.15,14.52-11.26,17.68l22,31.52H251.64l-19.27-29.25h-9.48v29.25H211.62Zm11.27,9.78v20.35h8.89c7,0,11.06-3.75,11.06-10.37,0-6.23-4.05-10-11.06-10Z"/><path class="bbd6631f-dc1a-4b28-8a2e-48da0f28b59c" d="M271.39,372.43H291c14.52,0,23.41,7.7,23.41,20,0,8.3-4.15,14.52-11.26,17.68l22,31.52H311.41l-19.27-29.25h-9.48v29.25H271.39Zm11.27,9.78v20.35h8.89c7,0,11.06-3.75,11.06-10.37,0-6.23-4.05-10-11.06-10Z"/><path class="bbd6631f-dc1a-4b28-8a2e-48da0f28b59c" d="M331.16,372.43h11.27v69.16H331.16Z"/><path class="bbd6631f-dc1a-4b28-8a2e-48da0f28b59c" d="M351.61,372.43h55.83V382.8H385.2v58.79H373.84V382.8H351.61Z"/><path class="bbd6631f-dc1a-4b28-8a2e-48da0f28b59c" d="M496.74,372.43H508v69.16H496.74Z"/><path class="bbd6631f-dc1a-4b28-8a2e-48da0f28b59c" d="M524.6,372.43h19.56c14.52,0,23.41,7.7,23.41,20,0,8.3-4.15,14.52-11.26,17.68l22,31.52H564.61l-19.27-29.25h-9.48v29.25H524.6Zm11.26,9.78v20.35h8.89c7,0,11.07-3.75,11.07-10.37,0-6.23-4.05-10-11.07-10Z"/><path class="bbd6631f-dc1a-4b28-8a2e-48da0f28b59c" d="M617.36,444.3c-23.05,0-37.29-16.95-37.29-36.88,0-20.75,13.29-36.89,34.44-36.89,18.58,0,30.65,12.61,30.65,29.7a37,37,0,0,1-.81,7.32H592v.27c0,15.06,10.31,26,25.63,26a25.12,25.12,0,0,0,20.48-10.17l8.54,6.64C640.28,438.88,630.11,444.3,617.36,444.3ZM593,398.47H633.5c-.41-9.9-7.6-18-18.85-18S595.66,386.67,593,398.47Z"/><path class="bbd6631f-dc1a-4b28-8a2e-48da0f28b59c" d="M659.21,424.4c4.45,5.83,10.08,9,16.2,9,6.72,0,10.67-3.95,10.67-9.68,0-13.84-32.31-11.56-32.31-34.09,0-10.37,8.6-19.17,21.05-19.17,10,0,17.49,4.55,22.92,11.46l-8.4,7.41c-4.05-5.53-8.79-8.79-14.42-8.79-5.83,0-9.59,3.75-9.59,8.79,0,13.84,32.31,11.46,32.31,34.19-.2,12.15-9.68,20.05-22,20.05-10.87,0-18.57-4.14-24.7-11.55Z"/></svg>