<svg id="Calque_6" data-name="Calque 6" xmlns="http://www.w3.org/2000/svg" viewBox="0 0 129.89 114.07"><path d="M35.14 38h4.63c3.33 0 5.38 1.71 5.38 4.52a4.12 4.12 0 01-2.42 3.91l4.75 6.7h-3.67l-4-6.12h-1.6v6.12h-3.07zm3.07 2.62v3.78h1.73a1.9 1.9 0 100-3.78zM49.39 38h8.81v2.62h-5.74v3.5h4.88v2.61h-4.88v3.79h5.74v2.61h-8.81zm3-1.3l2.44-2.91H58l-2.81 2.91zM61.77 38h5c3.33 0 5.36 1.71 5.36 4.52S70.09 47 66.76 47h-1.92v6.12h-3.07zm3.07 2.62v3.78h2a1.9 1.9 0 100-3.78zM83.58 38h3.07v9.21c0 4-2.33 6.35-6.14 6.35s-6.12-2.37-6.12-6.35V38h3.07v9.47a3.06 3.06 0 106.12 0zM90.45 38h4.3c3.16 0 5.06 1.56 5.06 4.11a3.52 3.52 0 01-1.6 3 3.85 3.85 0 012.49 3.59c0 2.77-2.14 4.45-5.62 4.45h-4.63zm3.07 2.62v3.3h1.3c1.17 0 1.84-.58 1.84-1.66s-.67-1.64-1.84-1.64zm0 5.94v4h1.73c1.43 0 2.29-.76 2.29-2s-.86-2-2.29-2zM103.83 38h3.07v12.35h5.75v2.79h-8.82zM115.35 38h3.07v15.14h-3.07zM138.52 54.2a3.18 3.18 0 001.09-.17v2.59a3.91 3.91 0 01-1.6.28 7.13 7.13 0 01-4.74-2l-1.79-1.6a7.75 7.75 0 01-2.08.26 8 8 0 118-8 8 8 0 01-3 6.31l.91.86a4.67 4.67 0 003.21 1.47zm-4.25-8.62a4.88 4.88 0 10-9.75 0 4.88 4.88 0 109.75 0zM149.29 38h3.07v9.21c0 4-2.34 6.35-6.14 6.35s-6.12-2.37-6.12-6.35V38h3.07v9.47a3.06 3.06 0 106.12 0zM156.16 38H165v2.62h-5.75v3.5h4.89v2.61h-4.89v3.79H165v2.61h-8.82zM35.14 59.83H44v2.61h-5.79v3.5h4.89v2.62h-4.89V75h-3.07zM46.66 59.83h4.63c3.33 0 5.38 1.71 5.38 4.52a4.13 4.13 0 01-2.42 3.91L59 75h-3.67l-4-6.12h-1.6V75h-3.07zm3.07 2.61v3.79h1.73a1.9 1.9 0 100-3.79zM65.38 59.83h4L75.13 75h-3.26l-1.45-4h-6.06l-1.44 4h-3.27zm4.09 8.58l-2.08-5.69-2.07 5.69zM77.46 59.83h3.94l6.76 10.83V59.83h3.07V75H87.3l-6.77-10.91V75h-3.07zM106.17 70.44l2.42 1.86a7.51 7.51 0 01-5.19 3l-1.88 3.14H98.8l1.9-3.18a8 8 0 117.89-12.79l-2.42 1.88a4.73 4.73 0 00-4-2.08 5.13 5.13 0 000 10.25 4.75 4.75 0 004-2.08zM115 59.83h4L124.71 75h-3.26L120 71h-6l-1.5 4h-3.26zm4.08 8.58L117 62.72l-2.08 5.69zM127.05 59.83h3.07V75h-3.07zM135.22 70.81a4.36 4.36 0 003.35 1.86 1.7 1.7 0 001.94-1.75c0-2.71-6.91-2.1-6.91-7.14a4.51 4.51 0 014.84-4.38 6.65 6.65 0 015.29 2.6l-2.24 2a4 4 0 00-3-1.88 1.6 1.6 0 00-1.75 1.57c0 2.71 6.92 2.08 6.92 7.2 0 2.81-2.25 4.54-5 4.54a6.82 6.82 0 01-5.66-2.57zM146.85 59.83h8.82v2.61h-5.75v3.5h4.88v2.62h-4.88v3.78h5.75V75h-8.82zM84.37 116.74c.41 0 .77.31.58 1.09l-1.91.45c.34-.89.89-1.54 1.33-1.54m1.06 3.07h-.38a2.33 2.33 0 01-1.5 1c-.52 0-.78-.31-.78-1a4.52 4.52 0 01.08-.84l3.08-1c.6-1.42-.12-2-1-2-1.45 0-3.1 2.43-3.1 4.56 0 1 .45 1.48 1.16 1.48s1.7-.81 2.41-2.14m-.61-4.46l2.16-2v-.23h-1.13l-1.33 2.25zm-6.64 1.42h1l-1.61 4.42a.51.51 0 00.46.75 3.77 3.77 0 003-2.2h-.29a4 4 0 01-1.88 1.13l1.49-4.16h1.48l.19-.63h-1.48l.57-1.6h-.59l-1 1.6-1.26.17zm-1.37-.21a.46.46 0 00-.37-.65 2.86 2.86 0 00-2.36 1.92h.29a2.29 2.29 0 011.23-.94l-1.7 4.42a.44.44 0 00.37.64 2.8 2.8 0 002.28-2.01h-.29a2.21 2.21 0 01-1.23 1zm.31-2.22a.73.73 0 00.73-.73.73.73 0 10-1.46 0 .72.72 0 00.73.73m-9.77 6.79c-.23.5 0 .82.5.82.3 0 .43-.08.55-.4l1.18-3.12a4.23 4.23 0 012.1-1.37c.33 0 .28.26.07.66l-1.81 3.47a.51.51 0 00.45.76 2.86 2.86 0 002.39-2.01h-.29a2.24 2.24 0 01-1.23.94l1.55-3.14a2.49 2.49 0 00.3-1.07.77.77 0 00-.82-.85c-.76 0-1.54.87-2.46 1.93V117c0-.58-.19-1.11-.72-1.11-.34 0-.66.29-1 .7v.11c.58 0 .84.84.42 1.75zm0-3.86c.22-.72.1-1.36-.45-1.36s-.82.5-1.49 1.93v-.9c0-.58-.19-1.11-.72-1.11s-1.18 1-1.62 1.92h.29c.3-.43.58-.68.8-.68s.41.41 0 1.32l-1.2 2.66c-.22.5 0 .82.5.82.3 0 .43-.08.56-.4l1.17-3.12c.33-.41.63-.76 1-1.16zm-6.81-.53c.41 0 .77.31.58 1.09l-1.91.45c.34-.89.89-1.54 1.33-1.54m1.06 3.07h-.38a2.33 2.33 0 01-1.5 1c-.52 0-.79-.31-.79-1a4.5 4.5 0 01.1-.87l3.08-1c.6-1.42-.13-2-1-2-1.45 0-3.1 2.43-3.1 4.56 0 1 .45 1.48 1.16 1.48s1.7-.81 2.41-2.14m-7.25-3h1l-1.62 4.42a.52.52 0 00.45.76 3.77 3.77 0 002.93-2.15h-.29a4 4 0 01-1.88 1.13l1.49-4.16h1.52l.19-.63h-1.44l.57-1.6h-.59l-1.05 1.6-1.26.17zm-5.6 3.45c0-1.37 1.52-3.22 2.38-3.22a1.77 1.77 0 01.52.07l-.89 2.36c-.51.62-1.3 1.38-1.66 1.38s-.35-.18-.35-.59m4.67-4.56h-.46l-.53.51h-.11c-2.53 0-4.71 2.84-4.71 4.9a.84.84 0 00.91.91c.65 0 1.3-.93 2-1.93v.35c-.08 1 .23 1.58.76 1.58s1.19-1 1.62-1.92h-.29c-.3.43-.58.69-.8.69s-.4-.42 0-1.32zM48 117.27c.21-.72.1-1.36-.45-1.36s-.83.5-1.49 1.93V117c0-.58-.19-1.11-.72-1.11s-1.19 1-1.62 1.92H44c.3-.43.57-.68.8-.68s.41.41 0 1.32l-1.2 2.66c-.22.5 0 .82.5.82.3 0 .43-.08.55-.4l1.18-3.12c.33-.41.63-.76 1-1.16zm-8.5 4.46l.11-.35c-1.47-.27-1.66-.27-1.07-1.88l.6-1.66h1.63c.73 0 .74.3.63 1.1h.42l1-2.67h-.42c-.37.63-.66 1.1-1.46 1.1h-1.63l.86-2.34c.27-.75.42-.9 1.42-.9h.71c1 0 1.15.28 1.15 1.32h.41l.35-1.82h-6.13L38 114c1.19.25 1.3.36.75 1.89l-1.34 3.64c-.55 1.52-.78 1.64-2.15 1.88l-.1.35zM69.52 102.87c.41 0 .77.31.58 1.1l-1.91.44c.33-.89.89-1.54 1.33-1.54m1 3.07h-.32a2.29 2.29 0 01-1.5 1c-.52 0-.79-.31-.79-1a4.5 4.5 0 01.09-.84l3.07-1c.6-1.42-.12-2-1-2-1.45 0-3.11 2.43-3.11 4.56 0 1 .46 1.47 1.17 1.47s1.69-.81 2.4-2.14m-.53-4.51l2.17-2v-.23H71l-1.33 2.25zm-6.63 1.42h1l-1.62 4.43a.51.51 0 00.45.75 3.76 3.76 0 002.92-2.15h-.28a4 4 0 01-1.88 1.13l1.49-4.16H67l.19-.63h-1.53l.57-1.6h-.59l-1.06 1.6-1.25.18zm-1.37-.21a.45.45 0 00-.37-.64 2.85 2.85 0 00-2.4 1.95h.29a2.24 2.24 0 011.23-1l-1.7 4.42a.44.44 0 00.37.64 2.8 2.8 0 002.25-1.92h-.29a2.31 2.31 0 01-1.23 1zm.31-2.22a.73.73 0 100-1.46.73.73 0 100 1.46m-5.91 6.64L59.46 99l-.1-.12-1.94.22v.23l.38.29c.34.26.23.52-.08 1.34l-2.42 6.37a.51.51 0 00.44.75 2.74 2.74 0 002.26-1.92h-.29a2.54 2.54 0 01-1.35 1m-5.87-.76c0-1.36 1.52-3.21 2.37-3.21a2.06 2.06 0 01.52.06l-.89 2.36c-.51.63-1.29 1.38-1.66 1.38-.21 0-.34-.18-.34-.59m4.67-4.56h-.47l-.52.51h-.11c-2.53 0-4.72 2.84-4.72 4.9a.84.84 0 00.91.91c.66 0 1.3-.93 2-1.93v.36c-.09 1 .22 1.57.75 1.57s1.19-1 1.62-1.92h-.29c-.3.44-.57.69-.79.69s-.4-.42 0-1.32zm-11.3 7.37c0-.59.57-1 1.38-1.28a8.54 8.54 0 001.2.46c.84.28 1.16.39 1.16.64 0 .54-.92 1-2.17 1-1.06 0-1.57-.23-1.57-.78m2.3-3.58c-.37 0-.51-.31-.51-.67 0-1 .53-2.44 1.36-2.44.37 0 .51.31.51.67 0 1-.53 2.44-1.36 2.44m2.41 3c0-.71-.64-1-1.67-1.28-.88-.27-1.28-.34-1.28-.63a.88.88 0 01.56-.71 2.6 2.6 0 002.4-2.49 1.66 1.66 0 00-.12-.61h1.23l.19-.63h-2a1.53 1.53 0 00-.78-.22 2.56 2.56 0 00-2.54 2.45 1.42 1.42 0 001.21 1.45c-.72.33-1.12.7-1.12 1.15a.71.71 0 00.3.6c-1.66.48-2.32 1-2.32 1.83s1 1.08 2.21 1.08c2 0 3.73-1.09 3.73-2m-7.76-4.75c.73 0 .75.3.63 1.1h.43l1-2.68h-.42c-.37.63-.65 1.1-1.45 1.1h-1.64l.81-2.23c.27-.74.42-.89 1.42-.89h.71c1 0 1.15.28 1.15 1.31h.41l.35-1.82h-6.13l-.11.35c1.19.24 1.3.35.75 1.88l-1.34 3.64c-.55 1.52-.78 1.64-2.15 1.89l-.1.34h6.81l1.22-1.93h-.46a4.48 4.48 0 01-3.12 1.43c-1.81 0-1.64-.08-1-1.73l.64-1.76zm.89-4.65l2.16-1.49v-.27h-1.31l-1.19 1.72zM68.8 89c.41 0 .77.31.58 1.1l-1.91.44c.33-.88.89-1.54 1.33-1.54m1 3.08h-.37a2.31 2.31 0 01-1.5 1c-.52 0-.79-.31-.79-1a4 4 0 01.09-.85l3.07-1c.6-1.42-.12-2-1-2-1.46 0-3.11 2.43-3.11 4.56 0 1 .46 1.48 1.17 1.48s1.69-.81 2.4-2.14m-.61-4.46l2.17-2v-.24h-1.08l-1.33 2.26zM62.89 89h.81l-1.62 4.42a.51.51 0 00.44.76 3.76 3.76 0 002.93-2.16h-.29a4.07 4.07 0 01-1.87 1.14L64.77 89h1.52l.19-.64H65l.56-1.59H65l-1.07 1.63-1 .18zm-.8.49c.21-.72.1-1.35-.46-1.35s-.82.5-1.48 1.93v-.82c0-.59-.19-1.11-.72-1.11s-1.19 1-1.62 1.92h.29c.29-.43.57-.69.79-.69s.41.41 0 1.32L57.7 93.4c-.23.49 0 .82.49.82a.5.5 0 00.56-.4l1.18-3.12c.33-.41.63-.77 1-1.17zM55.28 89c.41 0 .76.31.57 1.1l-1.9.44c.33-.88.88-1.54 1.33-1.54m1 3.08H56a2.27 2.27 0 01-1.49 1c-.52 0-.79-.31-.79-1a4 4 0 01.09-.85l3.07-1c.6-1.42-.12-2-1-2-1.46 0-3.11 2.43-3.11 4.56 0 1 .45 1.48 1.16 1.48s1.7-.81 2.41-2.14m-7.54 1.19c-.3 0-.73-.28-.73-.52a5.5 5.5 0 01.3-.86l.5-1.32c.53-.63 1.34-1.31 1.79-1.31.28 0 .49.18.49.59 0 1.21-1.13 3.42-2.35 3.42m3.49-3.91c0-.9-.33-1.23-.95-1.23-.78 0-1.51.82-2.24 1.82l1.9-4.87-.1-.12-1.94.22v.23l.38.29c.34.27.23.55-.08 1.34l-2 5.15a6.43 6.43 0 00-.32.94c0 .54.72 1 1.38 1 1.51 0 4-2.72 4-4.81m-6-.59a.45.45 0 00-.37-.64 2.86 2.86 0 00-2.36 1.92h.29a2.29 2.29 0 011.23-.94l-1.7 4.41a.45.45 0 00.37.65A2.8 2.8 0 0046 92.3h-.29a2.25 2.25 0 01-1.23.94zm.31-2.21a.74.74 0 000-1.47.74.74 0 000 1.47m-4.53-.67h-4l-.11.34c1.19.24 1.3.36.74 1.89l-1.31 3.63c-.55 1.52-.78 1.65-2.15 1.89l-.1.34h6.15l1.33-2.37h-.47c-.75.83-1.64 1.88-3 1.88-1 0-1.16-.18-.6-1.74l1.31-3.63c.54-1.52.78-1.65 2.15-1.89z" transform="translate(-35.09 -7.88)"/><path d="M57.93 25.6c.22-.22.43-.45.65-.68a12.89 12.89 0 011.27-1.29 3.71 3.71 0 01.41-.33s0-.12.08-.16c-.19.08-.3.23-.49.31s-.08 0 0-.08l.4-.3v-.08a1.61 1.61 0 00-1.22.57h-.18c-.57.19-1 .69-1.56.92v-.08a6.31 6.31 0 01-.68.26 3.88 3.88 0 01-1 0 13.34 13.34 0 00-1.38.25 3.62 3.62 0 00-.71.28v.06a.82.82 0 01-.26.23 3.79 3.79 0 00-.63.49.07.07 0 01-.06 0l-.61.59a.23.23 0 01-.12 0 .86.86 0 00.1-.16 1.63 1.63 0 00.11-.17c.06-.08.11-.16.17-.23s0 0 0-.05a3.69 3.69 0 01.64-.48s-.06 0 0 0l.06-.11-.18.12c-.09.09-.17.25-.3.25h-.08a.41.41 0 000-.09v-.07-.06a.72.72 0 01.26-.23 4.77 4.77 0 00.43-.25l.06-.05a2.41 2.41 0 00-.6.3h-.06a.1.1 0 01-.1 0s.16-.11.23-.19.08 0 .08 0c1.21-.95 2.88-.72 4.29-1.22l.34-.22c.19-.08.34-.27.57-.38a1.68 1.68 0 00.64-.88.15.15 0 000-.07 5.89 5.89 0 01-1.68 1.25 7.18 7.18 0 01-2.5.46c0-.08.11-.08.19-.08s.08-.15.15-.23h.11s0-.07.08-.07H55c-.11-.15-.34.11-.53 0 .08-.08 0-.19.12-.23h.15a.25.25 0 01.07-.15c.57-.34 1.1-.61 1.64-.91-.12 0-.19.11-.31 0 .08 0 0-.12.08-.12.42-.11.76-.34 1.17-.49-.15 0-.26.11-.41 0 .07 0 .11-.12.22-.12v-.11h.08a.14.14 0 01-.08 0c0-.07.16 0 .23-.11s-.11 0-.11 0a.76.76 0 01.49-.23c0-.07-.15 0-.15-.07s0 0 .08 0h-.08c-.08 0 0-.11 0-.15a2.58 2.58 0 00.34-.91h-.07a3.09 3.09 0 01-1.56.72H56a.72.72 0 01-.64 0c-.16-.07-.23-.19-.38-.3a4.9 4.9 0 00-.95-.46A8.59 8.59 0 0051.1 19a6.13 6.13 0 011.33-.38 5.67 5.67 0 011.94-.38 1.21 1.21 0 00-.38 0 6.32 6.32 0 00-1.63.22c-.38.08-.72.23-1.1.31-.23.07-.35.3-.61.26v-.11a2.17 2.17 0 011.44-.92 7.14 7.14 0 012 .08 10.51 10.51 0 011.45.26c.19 0 .22.31.38.34s.45 0 .68.16v-.23c0-.07.34 0 .49 0 .31-.19-.26-.53-.42-.8v-.07a4.77 4.77 0 00.91.76c.19.07.65.19.57 0a6.16 6.16 0 00-.87-1.14v-.15c-.08 0-.08 0-.11-.08v-.15c-.16-.08-.12-.23-.19-.34s0-.46-.12-.68a5.08 5.08 0 01-.15-.65c-.11-.65-.26-1.21-.34-1.82s.42-1.29.76-1.94a3.22 3.22 0 011.06-1.21A3.45 3.45 0 0159 9a3.36 3.36 0 011.17-.76c.53-.23 1-.38 1-.38h-26V28h18.37A17.27 17.27 0 0156 26.7a9.45 9.45 0 001.93-1.1zm-5.84-2.72h-.19c.04 0 .31-.19.46-.27s.19-.11.26-.07.19.07.27.15c-.23.19-.53.07-.8.19zM46.28 22a.1.1 0 010-.07A11.59 11.59 0 0047.46 20a5.21 5.21 0 001.29-1 7.32 7.32 0 012.13-1.67 1.38 1.38 0 011 0c-.11.15-.3.11-.45.22a.18.18 0 01-.12 0 .15.15 0 000-.12c-.38.42-.91.61-1.21 1.1s-.38.88-.88 1c-.15 0 0-.11 0-.08A13.07 13.07 0 0046.28 22zm3.15-2.5c0 .07-.08.08-.11.15a.31.31 0 01-.15.15h-.08a.46.46 0 01.31-.34s.03.04.03.08zm1.77 5.69a.5.5 0 01-.1.11s.08 0 0 .06a.8.8 0 01-.28.2h-.06l-.14.14h-.19c.07 0 .18-.18.28-.26l.15-.15a.26.26 0 01.09-.09s.28-.05.25.03zm-.68-.32l-.44.29c-.16.09-.33.16-.5.24a.08.08 0 00-.07 0 2.12 2.12 0 00-.38.29v.05h-.05l-.08.09-.05.05c-.05.05-.09 0-.09 0h-.26l-.13.11a1.65 1.65 0 00-.22.24v-.06l.12-.14.06-.09a.91.91 0 00.11-.16l.06-.09a.25.25 0 010-.07v-.15-.06a1 1 0 01.15-.21l-.14.12s-.11 0-.07-.06a.71.71 0 00.09-.07c.07-.06.13-.14.2-.19l.12-.09.09-.09c.36-.35 1-.33 1.45-.55.19-.08.42 0 .61 0a.58.58 0 01.34.07c-.3.17-.61.38-.92.57zm.77-2.64s.12 0 .16-.07h-.31v-.08l-.6.15c-.27.08-.5.27-.8.34s-.76.5-1.22.65v-.08c0-.08.19-.15.26-.26s0-.08 0-.08a7.48 7.48 0 011.11-1v-.11c.11-.15.3-.23.38-.42a.66.66 0 01.37-.34s-.11 0-.11-.11-.3.07-.45 0a.62.62 0 01.23-.14.1.1 0 01-.08-.05c0-.08.07-.16.19-.19s.34 0 .45-.15c-.26 0-.57.07-.83-.08a2 2 0 011-1.14h.11a.37.37 0 01-.3.38 4.5 4.5 0 01.91.23c0 .07-.12 0-.15 0 .19.11.41 0 .6.19-.11.11-.22 0-.34 0a9.89 9.89 0 013.42 1.36 10.45 10.45 0 01-2.62.8.78.78 0 01-.3 0v.12a.67.67 0 00-.38.07.45.45 0 01-.7.05z" transform="translate(-35.09 -7.88)" fill="#000091"/><path d="M90.34 7.88H68.73a.6.6 0 01.2.09l.55.29a1.84 1.84 0 01.72.61c.08.11.19.34.11.49s-.11.5-.3.57a1.35 1.35 0 01-.8.08 1.78 1.78 0 01-.45-.08 3.12 3.12 0 011.48 1c0 .07.19.11.34.11s0 .08 0 .12-.15.11-.12.22h.12c.19-.07.15-.45.42-.34a.43.43 0 01.15.57 3.85 3.85 0 01-.46.38.32.32 0 000 .27 1.09 1.09 0 01.19.45c.12.27.15.57.27.84a5.34 5.34 0 01.26 1.71c0 .3-.15.57 0 .87a3.19 3.19 0 00.41.8 5.46 5.46 0 01.42.6c.23.38.65.76.46 1.22-.12.26-.54.23-.8.38s0 .49.07.68-.22.57-.49.68c.08.12.23.08.27.16s.22.3.11.49-.61.34-.38.68a1 1 0 010 .84.92.92 0 01-.68.57 1.75 1.75 0 01-.72 0 .53.53 0 00-.23-.08 15.88 15.88 0 00-1.97-.15 2.06 2.06 0 00-.53.16 3.57 3.57 0 00-.46.4l-.08.09v.06a3 3 0 00-.29.43v.06a4.06 4.06 0 00-.29.69 2.28 2.28 0 000 1.8c.05.05 1.25.42 2.09.79a7.3 7.3 0 01.9.46h21.12z" transform="translate(-35.09 -7.88)" fill="#e1000f"/><path d="M70 15.21c.15 0 .38 0 .38.11-.07.3-.53.38-.76.68h-.11c-.12.08-.08.27-.19.27a.5.5 0 00-.34 0 .68.68 0 00.57.23.17.17 0 01.11.15.12.12 0 00.08 0h.07v.15c-.11.15-.3.07-.45.11a1.61 1.61 0 00.87 0c.23-.07 0-.45.15-.64-.07 0 0-.12-.07-.12s.15-.19.22-.22a.27.27 0 00.23-.12c0-.07-.15-.11-.11-.19.22-.15.41-.38.34-.61s-.34-.11-.53-.19a1.33 1.33 0 00-.65 0 4 4 0 00-.57.15 2.92 2.92 0 00-.72.38 5.15 5.15 0 01.84-.22 2.29 2.29 0 01.64.08z" transform="translate(-35.09 -7.88)" fill="#9d9d9c"/><script/></svg>