<svg xmlns="http://www.w3.org/2000/svg" xmlns:xlink="http://www.w3.org/1999/xlink" width="32" height="32"><g transform="translate(120.35 26.03)"><defs><path id="a" d="M-115.7 2.4H-93v2.4h-22.7z"/></defs><clipPath id="b"><use xlink:href="#a" width="100%" height="100%" overflow="visible"/></clipPath><g clip-path="url(#b)"><linearGradient id="c" gradientUnits="userSpaceOnUse" x1="4488.127" y1="5354.515" x2="4489.127" y2="5354.515" gradientTransform="matrix(22.667 0 0 -2.36 -101848.11 12640.205)"><stop offset="0" stop-color="#59bbab"/><stop offset=".623" stop-color="#3ab2bb"/><stop offset="1" stop-color="#00a1d9"/></linearGradient><path fill="url(#c)" d="M-115.7 2.4H-93v2.4h-22.7z"/></g></g><path d="M15.75 1.171c-5.2-.1-9.5 4.1-9.5 9.3 0 .9.1 1.8.4 2.7 0 0 .1.4.2.5.2.5.5 1.1.8 1.6 2.3 4.2 5 8.1 8.2 11.6 3-3.1 5.6-6.6 7.7-10.4 1.1-1.8 1.7-3.9 1.8-6-.1-5.2-4.4-9.4-9.6-9.3m0 15.2c-3.3 0-6-2.8-5.9-6.1.1-3.3 2.8-6 6.1-5.9 3.3 0 5.9 2.7 5.9 6s-2.7 6-6.1 6" fill="#db1c83"/></svg>