<svg xmlns="http://www.w3.org/2000/svg" viewBox="0 0 188.976 188.976"><defs><clipPath clipPathUnits="userSpaceOnUse" id="l"><path d="M64.892 121.814h56.516V76.046H64.892z"/></clipPath><clipPath clipPathUnits="userSpaceOnUse" id="a"><path d="M0 141.732h141.732V0H0z"/></clipPath><clipPath clipPathUnits="userSpaceOnUse" id="c"><path d="M20.039 20.159h101.656v101.655H20.039z"/></clipPath><clipPath clipPathUnits="userSpaceOnUse" id="d"><path d="M20.038 112.51h51.034V24.829H20.038z"/></clipPath><clipPath clipPathUnits="userSpaceOnUse" id="e"><path d="M20.039 24.829h51.034v87.681H20.039z"/></clipPath><clipPath clipPathUnits="userSpaceOnUse" id="f"><path d="M78.946 113.378h42.748V30.601H78.946z"/></clipPath><clipPath clipPathUnits="userSpaceOnUse" id="g"><path d="M78.945 30.602h42.749v82.776H78.945z"/></clipPath><clipPath clipPathUnits="userSpaceOnUse" id="h"><path d="M26.647 121.814h59.031V93.862h-59.03z"/></clipPath><clipPath clipPathUnits="userSpaceOnUse" id="i"><path d="M26.647 93.862h59.031v27.952H26.647z"/></clipPath><clipPath clipPathUnits="userSpaceOnUse" id="j"><path d="M29.547 70.988h87.512V20.16H29.547z"/></clipPath><clipPath clipPathUnits="userSpaceOnUse" id="k"><path d="M29.547 20.159h87.511v50.829H29.547z"/></clipPath><clipPath clipPathUnits="userSpaceOnUse" id="b"><path d="M20.038 121.814h101.656V20.159H20.038z"/></clipPath><clipPath clipPathUnits="userSpaceOnUse" id="m"><path d="M64.892 76.046h56.516v45.768H64.892z"/></clipPath><clipPath clipPathUnits="userSpaceOnUse" id="n"><path d="M26.646 121.814h82.434v-43.04H26.647z"/></clipPath><clipPath clipPathUnits="userSpaceOnUse" id="o"><path d="M26.646 78.774h82.433v43.04H26.646z"/></clipPath><clipPath clipPathUnits="userSpaceOnUse" id="p"><path d="M20.039 112.507h23.393V57.256H20.039z"/></clipPath><clipPath clipPathUnits="userSpaceOnUse" id="q"><path d="M20.039 57.256h23.393v55.251H20.039z"/></clipPath><clipPath clipPathUnits="userSpaceOnUse" id="r"><path d="M69.151 71.34h52.539V20.16H69.152z"/></clipPath><clipPath clipPathUnits="userSpaceOnUse" id="s"><path d="M69.152 20.161h52.539V71.34H69.152z"/></clipPath><clipPath clipPathUnits="userSpaceOnUse" id="t"><path d="M20.048 71.062h61.241V20.16H20.048z"/></clipPath><clipPath clipPathUnits="userSpaceOnUse" id="u"><path d="M20.048 20.16h61.241v50.902H20.048z"/></clipPath><clipPath clipPathUnits="userSpaceOnUse" id="v"><path d="M50.669 108.163h70.474V22.394H50.668z"/></clipPath><clipPath clipPathUnits="userSpaceOnUse" id="w"><path d="M50.668 22.395h70.474v85.769H50.668z"/></clipPath></defs><g clip-path="url(#a)" transform="matrix(1.33333 0 0 -1.33333 0 188.976)"><path d="M141.382 70.866c0-38.945-31.57-70.518-70.516-70.518C31.922.348.349 31.921.349 70.866s31.573 70.517 70.517 70.517c38.946 0 70.516-31.572 70.516-70.517" fill="#fff"/><path d="M70.866 141.033C32.176 141.033.7 109.556.7 70.866S32.176.7 70.866.7s70.167 31.477 70.167 70.166c0 38.69-31.477 70.167-70.167 70.167M70.866 0C31.79 0 0 31.79 0 70.866c0 39.077 31.79 70.867 70.866 70.867s70.866-31.79 70.866-70.867C141.732 31.79 109.942 0 70.866 0" fill="#556f7b"/><g clip-path="url(#b)"><g clip-path="url(#c)" opacity=".55"><path d="M20.123 73.89c1.604 28.024 25.621 49.442 53.646 47.84 28.024-1.604 49.443-25.62 47.84-53.646-1.603-28.026-25.621-49.445-53.646-47.84-28.025 1.603-49.443 25.62-47.84 53.645" fill="#159bd8" fill-rule="evenodd"/></g></g><g clip-path="url(#d)"><g clip-path="url(#e)" opacity=".55"><path d="M41.557 112.51c18.392-8.5 30.658-27.605 29.43-49.061-.92-16.085-9.226-29.991-21.433-38.621-18.393 8.499-30.659 27.607-29.43 49.06.92 16.087 9.225 29.994 21.433 38.622" fill="#16428f" fill-rule="evenodd"/></g></g><g clip-path="url(#f)"><g clip-path="url(#g)" opacity=".55"><path d="M79.03 75.897c.881 15.395 8.526 28.795 19.884 37.481 14.57-9.659 23.765-26.581 22.695-45.294-.88-15.396-8.527-28.795-19.886-37.482-14.568 9.66-23.763 26.584-22.693 45.295" fill="#048d42" fill-rule="evenodd"/></g></g><g clip-path="url(#h)"><g clip-path="url(#i)" opacity=".55"><path d="M85.678 119.615c-9.245-16.275-27.167-26.81-47.121-25.668-4.13.236-8.118.964-11.91 2.116 9.247 16.276 27.167 26.809 47.123 25.667a50.884 50.884 0 0011.908-2.115" fill="#83bc45" fill-rule="evenodd"/></g></g><g clip-path="url(#j)"><g clip-path="url(#k)" opacity=".55"><path d="M29.547 41.392c8.48 18.437 27.61 30.74 49.095 29.512 15.96-.912 29.774-9.096 38.417-21.15-8.48-18.435-27.61-30.74-49.096-29.51-15.959.913-29.774 9.097-38.416 21.148" fill="#0a67b1" fill-rule="evenodd"/></g></g><g clip-path="url(#l)"><g clip-path="url(#m)" opacity=".55"><path d="M121.408 76.393a51.226 51.226 0 00-8.877-.263c-25.207 1.443-45.067 21.021-47.639 45.337 2.897.34 5.865.435 8.877.263 25.207-1.443 45.067-21.02 47.64-45.337" fill="#d5da2c" fill-rule="evenodd"/></g></g><g clip-path="url(#n)"><g clip-path="url(#o)" opacity=".55"><path d="M109.08 104.493c-8.692-15.891-26.777-26.54-47.124-25.67-14.175.607-26.64 7.35-35.31 17.238 9.246 16.278 27.166 26.81 47.122 25.669 14.166-.81 26.641-7.35 35.312-17.237" fill="#03a14f" fill-rule="evenodd"/></g></g><g clip-path="url(#p)"><g clip-path="url(#q)" opacity=".55"><path d="M41.553 112.507a50.736 50.736 0 001.794-16.633c-.92-16.083-9.225-29.99-21.43-38.618a50.74 50.74 0 00-1.794 16.633c.92 16.083 9.225 29.989 21.43 38.618" fill="#3dac48" fill-rule="evenodd"/></g></g><g clip-path="url(#r)"><g clip-path="url(#s)" opacity=".55"><path d="M69.232 23.417c1.581 27.627 24.945 48.833 52.457 47.894a52.912 52.912 0 00-.08-3.227c-1.58-27.627-24.944-48.832-52.457-47.894a51.33 51.33 0 00.08 3.227" fill="#1173ba" fill-rule="evenodd"/></g></g><g clip-path="url(#t)"><g clip-path="url(#u)" opacity=".55"><path d="M20.048 69.99a50.89 50.89 0 0013.326.988C60.09 69.45 80.8 47.552 81.289 21.231a50.965 50.965 0 00-13.325-.988C41.249 21.771 20.536 43.67 20.048 69.99" fill="#088ccd" fill-rule="evenodd"/></g></g><g clip-path="url(#v)"><g clip-path="url(#w)" opacity=".35"><path d="M121.143 63.495c-2.884-19.52-16.865-35.427-35.33-41.102L50.67 45.751s15.09 9.39 16.03 11.98c.942 2.588-11.123 39.421-7.798 41.177 3.325 1.756 19.445 9.254 19.445 9.254z" fill="#121212" fill-rule="evenodd"/></g></g><path d="M70.832 19.918c15.856 0 30.017 7.263 39.337 18.641l-1.471 1.867s3.341.506-.522 2.656c-3.865 2.149-3.863 2.248-4.729 2.857-.866.609-3.109.958-3.299 1.254-.188.3 1.99 1.226-.342 1.968-2.332.741-4.757 1.683-4.757 1.683s1.221 1.928-.23 2.649c-1.451.721-2.917.855-3.215.666-.297-.188-.862.805-1.338 1.306-.478.501-1.746.726-2.334.642-.535-.074-4.114.084-4.923.411l.029-.289-.185.396c.017-.038.072-.073.156-.107-.114 1.129-.522 5.246-.5 6.088.023.978.423 1.262.423 1.262s5.567-.527 5.175 3.497c0 0-.55 1.482-.329 2.553 0 0 1.003.564.27 1.44 0 0 .644.496.302 1.876 0 0-.182.592.028 1.174 0 0 2.142.183 1.41 1.631-.479.947-.57.699-.752 1.291-.181.591-1.02 2.276-1.197 3.064-.177.788 1.033 2.227 1.05 2.912.016.685-.827 2.272-1.005 2.962-.179.69-1.017 2.472-1.184 3.651-.168 1.18-.702 3.347-1.084 3.748-.382.4-.944 1.394-1.124 2.084-.179.689-1.223 1.988-1.511 2.289-.286.3-2.494 2.116-4.729 2.758-2.236.642-2.816.95-4.185 1.081-1.368.132-2.155-.044-2.048.344.108.389 1.377.26 2.743.031.385-.065 1.724-.656 3.335.212 1.388.75 2.628 3.364-1.303 6.788-3.932 3.426-8.884 1.099-9.976.538-1.09-.561.003.098-2.673-1.208-2.674-1.306-6.582-4.931-7.454-8.532-.871-3.602-.088-3.621-.013-4.602.073-.981-.151-2.151-1.065-3.499-.914-1.348-2.406-2.291-1.275-4.081 1.132-1.79.331-2.456-.178-3.325-.512-.869-1.141-2.616.105-3.723 1.245-1.108 1.04-1.494 1.216-2.282.178-.788.724-2.465 1-3.158.277-.692.075-.981-.052-2.152-.126-1.172-.913-1.349-1.034-2.227-.12-.878-.014-.587.878-.12.893.468-.712-1.157-.733-1.941-.019-.782.781-.116.781-.116s.062-1.47-.531-1.75c-.596-.279.97-.316 1.109 1.344.139 1.662 1.037-1.689-1.058-3.205-2.092-1.516 1.383.456 1.383.456l-.517-1.065s1.871.346.375-.694c-1.494-1.041-2.074-.733-2.074-.733s-2.107-2.103.049-2.057c2.154.045.965-.515 1.439-1.21.472-.697 1.917-1.712 2.691-2.024.776-.313 5.019-.556 5.019-.556l-.416-.908s-6.302.036-8.563-.399c-2.264-.433-3.666-1.671-3.687-2.552-.02-.881.065-1.372-.82-1.547-.887-.175-4.014 0-5.025-1.248-1.009-1.248-1.313-1.633-2.196-1.709-.882-.076-2.076-.83-2.192-1.613-.118-.779-.245-1.951-1.246-2.906-1.002-.954-3.949-1.273-4.49-3.415-.448-1.77-.302-3.825-.885-6.017 9.213-9.323 22.004-15.1 36.146-15.1" fill="#fff"/><path d="M27.8 33.415l-1.437-.42-.098.116.646 1.356-1.259-1.066-.099.117 1.528 1.292.098-.117-.728-1.528 1.617.478.098-.117-1.528-1.292-.097.117zM28.933 32.684l.103-.111-1.475-1.353-.102.11zM29.738 31.434l-1.24-1.216-.107.108 1.427 1.399.107-.107-.43-2.038 1.238 1.214.105-.108-1.426-1.4-.107.108zM31.666 29.88l.11-.103-1.38-1.448-.109.105zM31.635 27.16c-.219.196-.305.383-.319.642l.151.006a.706.706 0 01.264-.554c.236-.213.484-.232.66-.037.08.088.12.183.105.282-.016.095-.035.144-.143.273l-.149.183a.68.68 0 00-.168.348.457.457 0 00.13.377c.225.251.542.25.828-.007a.793.793 0 00.284-.546l-.139-.008a.64.64 0 01-.237.464c-.218.195-.45.193-.62.003-.079-.085-.112-.173-.099-.264a.665.665 0 01.14-.29l.137-.17c.123-.145.163-.23.176-.338a.49.49 0 00-.129-.405c-.228-.253-.56-.24-.872.04M33.372 25.683l-.117.097 1.193 1.43-.457.382.086.104 1.032-.861-.086-.103-.46.382zM36.384 26.599l.149-.115-.038-.493-.13.099zm-.563-.328l.959-.743-.082-.107-.84.65-.483-.623.715-.554-.082-.107-.715.553-.494-.637.839-.65-.083-.106-.96.743zM38.104 24.4l-.48.34-.468-.658.48-.342c.211-.15.432-.153.593.074.161.227.085.436-.125.585m-.578-.746l-.448.318-.534-.75-.123.088 1.158 1.63.619-.44c.266-.19.358-.487.156-.77-.174-.245-.43-.297-.687-.173l-.141-1.032-.144.103zM39.53 23.585l1.017-.661-.074-.113-.889.579-.43-.661.757-.495-.073-.112-.758.493-.44-.676.89-.579-.074-.112-1.016.661zM43.253 20.986c-.041.162-.16.268-.3.346l-.42.237-.85-1.508.422-.237c.139-.079.29-.125.45-.076.218.067.382.375.492.57.11.196.262.446.206.668m-.658-1.384c-.164-.046-.342-.016-.525.087l-.585.33.982 1.741.585-.329c.184-.103.3-.24.347-.404.077-.275-.087-.548-.22-.783-.132-.237-.308-.565-.584-.642M44.583 20.598l1.082-.551-.061-.121-.947.483-.36-.705.807-.41-.062-.12-.806.41-.365-.717.945-.483-.06-.121-1.083.552zM47.703 19.08l.139-.063-.747-1.707.972-.424-.054-.123-1.111.486zM49.26 16.925l.78-.308.041 1.25zm.774-.45l-.869.342-.34-.39-.152.06 1.42 1.594.124-.05-.047-2.132-.152.059zM52.791 14.988l-.145.047.578 1.776-.567.185.041.128 1.281-.417-.042-.128-.569.184zM55.533 16.11l-.567.16-.222-.779.568-.16c.249-.073.459.001.535.268.076.268-.065.44-.314.51m-.295-.898l-.53.15-.251-.887-.146.042.545 1.924.733-.207c.313-.089.5-.337.405-.673-.082-.289-.307-.425-.59-.393l.212-1.02-.17.047zM56.944 14.451l.814-.194-.134 1.242zm.83-.337l-.908.217-.282-.432-.159.037 1.181 1.775.131-.03.251-2.118-.158.037zM59.407 15.043l-.333-1.708-.149.029.383 1.965.15-.029.801-1.924.333 1.702.148-.028-.383-1.966-.149.029zM62.044 12.796c-.292.044-.466.152-.62.359l.121.09a.708.708 0 01.527-.317c.314-.047.531.074.57.333.018.119-.002.219-.067.294-.067.069-.11.1-.27.148l-.225.07a.669.669 0 00-.332.198.455.455 0 00-.1.387c.05.334.313.507.694.45a.79.79 0 00.538-.3l-.112-.082a.635.635 0 01-.453.256c-.289.043-.482-.087-.52-.34-.017-.114.003-.205.064-.275a.7.7 0 01.276-.167l.21-.064c.181-.053.262-.103.333-.185a.49.49 0 00.115-.408c-.05-.336-.335-.51-.749-.447M64.009 14.563l.15-.02-.234-1.983-.151.018zM65.656 12.383l-.15.014.162 1.857-.594.052.013.135 1.34-.12-.012-.132-.596.05zM67.352 14.263l.15-.01-.12-1.998-.152.009zM69.623 13.894a.53.53 0 01-.375.164.535.535 0 01-.383-.143c-.147-.14-.162-.297-.174-.724-.011-.427-.005-.584.135-.732a.54.54 0 01.757-.02c.147.14.164.297.175.724.01.426.004.584-.135.73m.079-1.541a.7.7 0 00-.505-.191.7.7 0 00-.494.217c-.177.189-.176.369-.163.818.012.452.02.628.207.804.135.13.314.198.505.193a.704.704 0 00.495-.218c.177-.187.175-.364.163-.816-.013-.451-.02-.63-.208-.807M71.15 13.889l.028-1.737-.152-.003-.033 1.998.151.003 1.183-1.712-.029 1.73.151.004.034-2-.15-.001zM75.273 14.51l.24.434.186.014-.264-.434zm-.425-.225l1.21.096.01-.136-1.058-.081.061-.786.901.07.01-.134-.9-.072.062-.801 1.057.082.01-.134-1.209-.095zM77.872 12.55a.7.7 0 00-.52.146c-.205.159-.227.335-.28.783-.054.449-.072.625.087.828a.71.71 0 00.473.263c.356.042.635-.152.744-.5l-.153-.02c-.092.27-.307.417-.576.385a.527.527 0 01-.357-.198c-.125-.16-.118-.317-.068-.74.05-.426.08-.58.24-.704a.528.528 0 01.393-.11c.268.033.45.226.475.51l.147.017c-.025-.365-.253-.618-.605-.66M80.36 14.663a.53.53 0 01-.399.093.538.538 0 01-.35-.212c-.118-.164-.104-.32-.037-.742.068-.42.103-.576.267-.693a.524.524 0 01.4-.092.531.531 0 01.348.21c.12.165.105.323.038.744-.068.421-.104.574-.268.692m.362-1.498a.698.698 0 00-.46-.28.687.687 0 00-.526.122c-.209.151-.24.328-.31.771-.072.446-.097.62.054.828a.7.7 0 00.46.283.702.702 0 00.526-.123c.208-.152.24-.327.311-.77.071-.444.097-.622-.055-.83M81.67 15.178l.148.029.37-1.826 1.04.21.027-.131-1.19-.241zM84.706 15.572a.54.54 0 01-.737-.179c-.106-.174-.079-.328.021-.743s.148-.565.321-.67a.534.534 0 01.405-.062.535.535 0 01.333.24c.105.173.08.328-.02.743-.102.415-.15.566-.323.671m.48-1.468a.695.695 0 00-.438-.317.697.697 0 00-.534.082c-.22.134-.266.307-.372.745-.106.44-.145.612-.01.833a.705.705 0 00.437.316.69.69 0 00.535-.082c.22-.132.264-.304.372-.744.106-.437.145-.612.01-.833M87.54 14.775a.71.71 0 00-.979-.308c-.227.125-.28.298-.404.731-.125.433-.171.605-.046.832a.708.708 0 00.425.335.676.676 0 00.818-.374l-.145-.04c-.134.25-.376.358-.636.284a.526.526 0 01-.321-.253c-.099-.178-.066-.332.052-.743.118-.41.172-.559.348-.657a.534.534 0 01.409-.044.54.54 0 01.346.3c.054.13.055.25.007.416l-.05.172-.515-.147-.038.13.663.19.088-.314c.06-.203.06-.356-.022-.51M88.22 16.858l.146.046.612-1.904-.145-.047zM90.472 17.34a.535.535 0 01-.41.019.53.53 0 01-.304-.273c-.088-.183-.045-.336.099-.737.143-.404.207-.547.39-.634a.544.544 0 01.41-.02.543.543 0 01.279.227l-.358.17.06.13.356-.168c.042.149-.011.315-.132.653-.143.403-.207.547-.39.634m.594-1.48a.708.708 0 00-.365-.291.702.702 0 00-.54.025c-.233.11-.296.279-.447.702-.153.427-.21.594-.098.827a.695.695 0 00.4.362c.18.064.373.055.54-.025.235-.11.297-.276.449-.703.138-.386.199-.566.122-.77l.302-.14-.061-.13zM93.022 16.46c-.37-.151-.737-.004-.886.356l-.507 1.251.14.058.501-1.232c.126-.307.403-.43.702-.308.298.121.41.403.285.71l-.5 1.231.14.059.51-1.251c.146-.361-.013-.724-.385-.874M93.914 19.03l1.102.506.056-.123-.965-.444.33-.716.822.378.056-.123-.82-.377.335-.733.964.444.057-.125-1.103-.504zM97.03 20.533l1.07.571.063-.118-.936-.5.372-.696.798.426.063-.12-.797-.425.38-.71.936.5.063-.119-1.07-.573zM100.425 20.127l-.131-.077-.942 1.613-.515-.302-.068.119 1.163.678.069-.116-.518-.303zM103.323 21.914c-.245-.164-.447-.2-.7-.149l.028.148a.701.701 0 01.606.118c.263.177.343.412.2.63-.069.101-.15.162-.248.174-.097.007-.15.001-.302-.072l-.215-.099a.684.684 0 00-.378-.076.455.455 0 00-.336.22c-.186.281-.106.586.214.801a.792.792 0 00.602.14l-.029-.137a.63.63 0 01-.507-.115c-.245-.162-.3-.39-.159-.604.065-.094.141-.148.233-.159a.679.679 0 01.316.063l.2.092c.17.084.264.101.371.087a.49.49 0 00.361-.226c.188-.283.094-.605-.257-.836M104.546 24.892a.537.537 0 01-.398-.097.532.532 0 01-.217-.347c-.032-.202.05-.334.3-.681.25-.346.352-.467.552-.5a.527.527 0 01.397.098.534.534 0 01.218.346c.032.2-.051.335-.301.68-.25.348-.351.469-.551.5m.999-1.177a.698.698 0 00-.285-.46.704.704 0 00-.526-.126c-.255.04-.362.186-.625.55-.266.367-.366.512-.325.767.029.184.13.346.285.46a.702.702 0 00.525.126c.256-.041.36-.183.626-.55.263-.364.367-.512.325-.767M105.47 25.933l.12.094 1.154-1.468.836.657.084-.106-.956-.751zM107.14 27.273l.116.098 1.285-1.535-.115-.097zM109.118 28.605c-.167.013-.304-.064-.424-.171l-.36-.322 1.152-1.292.361.32c.12.108.212.236.218.403.007.229-.23.483-.38.65-.15.169-.338.39-.567.412m1.098-1.07c-.01-.171-.095-.33-.252-.47l-.5-.447-1.334 1.494.502.447c.157.14.324.206.494.196.286-.016.492-.258.671-.461.18-.201.435-.474.42-.76M110.942 28.813l.604.583-1.122.555zm.731.519l-.67-.65.212-.472-.117-.114-.864 1.953.098.094 1.923-.928-.118-.113zM111.481 31.284l.106.107 1.433-1.39-.104-.112zM112.978 32.683l-.396-.437.598-.543.397.435c.174.19.204.412-.001.6-.206.186-.423.135-.598-.055m.674-.664l-.371-.407.68-.62-.1-.113-1.482 1.346.513.562c.22.243.524.298.782.064.224-.202.243-.464.09-.703l1.01-.265-.12-.131zM113.957 33.992l.779.931.104-.087-.682-.815.605-.508.581.695.104-.086-.581-.694.618-.518.682.813.104-.085-.78-.93zM9.984 68.35l-1.386.564-.004.153 1.348.659-1.647-.05-.005.152 1.999.06.004-.152-1.52-.742 1.562-.633.004-.152-1.998-.06-.005.15zM10.407 67.064l.01-.151-1.999-.128-.01.15zM10.248 65.59l-1.731-.164-.014.15 1.992.19.014-.153-1.617-1.311 1.726.163.013-.151-1.992-.19-.014.153zM10.771 63.179l.02-.15-1.986-.256-.019.15zM9.03 61.081c-.045.292.006.491.158.7l.123-.09a.695.695 0 01-.146-.597c.049-.314.229-.485.488-.446.119.02.209.07.26.154.048.084.065.133.062.301v.237a.672.672 0 00.089.376.46.46 0 00.34.213c.333.05.578-.15.637-.53a.788.788 0 00-.124-.603l-.113.082a.634.634 0 01.108.51c-.045.29-.227.433-.48.394-.114-.018-.195-.064-.242-.143a.668.668 0 01-.077-.314v-.22c.005-.189-.018-.28-.075-.374a.488.488 0 00-.356-.23c-.337-.053-.587.166-.652.58M9.438 58.852l-.028.147 1.832.353-.112.585.132.024.254-1.321-.133-.025-.112.588zM12.358 57.636l.043-.186-.342-.357-.036.159zm-.644.102l.273-1.184-.131-.031-.24 1.037-.77-.18.204-.881-.131-.031-.205.883-.786-.182.24-1.036-.132-.03-.274 1.182zM12.29 54.845l-.154.57-.781-.213.154-.57c.068-.248.238-.391.506-.318.27.072.343.282.275.53m-.921-.208l-.145.53-.89-.24-.04.146 1.932.525.2-.735c.085-.315-.032-.603-.368-.695-.29-.078-.522.045-.642.304l-.766-.71-.046.172zM12.868 53.317l.363-1.16-.129-.04-.317 1.013-.754-.235.271-.864-.129-.04-.27.864-.772-.242.318-1.015-.129-.04-.363 1.16zM14.066 48.932c.072.149.05.308-.007.457l-.17.452-1.619-.611.171-.452c.056-.151.142-.283.295-.348.211-.088.534.043.744.122.211.079.486.175.586.38m-1.392-.641c-.155.072-.273.207-.347.405l-.237.628 1.871.707.237-.628c.074-.2.076-.377.006-.533-.118-.26-.418-.365-.67-.46-.253-.095-.599-.235-.86-.12M14.842 47.776l.474-1.118-.125-.053-.414.98-.728-.309.353-.834-.124-.053-.353.834-.744-.314.415-.98-.124-.052-.474 1.12zM16.255 44.612l.067-.137-1.676-.822.468-.953-.121-.06-.535 1.09zM16.055 41.95l.397-.739.84.926zm.301-.845l-.443.823-.51-.079-.078.145 2.112.3.064-.119-1.414-1.598-.077.143zM17.524 38.096a.7.7 0 00-.088.534c.06.25.211.348.593.584.386.236.537.327.79.268a.705.705 0 00.436-.318c.19-.306.13-.64-.14-.885l-.082.13c.206.198.25.455.107.684a.53.53 0 01-.33.242c-.197.047-.337-.026-.7-.251-.364-.223-.492-.315-.539-.512a.538.538 0 01.067-.405c.142-.23.394-.311.662-.217l.078-.125c-.34-.131-.668-.03-.854.27M20.482 36.726a.528.528 0 01-.082.4.528.528 0 01-.34.23c-.198.04-.335-.037-.69-.276-.354-.236-.48-.333-.518-.531a.528.528 0 01.082-.401.538.538 0 01.339-.231c.198-.04.335.039.69.277.355.237.479.334.519.532m-1.212-.955a.702.702 0 00-.448.302.701.701 0 00-.108.529c.05.254.199.354.572.604.376.25.525.348.778.296a.706.706 0 00.555-.829c-.05-.255-.196-.354-.572-.605-.373-.25-.524-.347-.777-.297M21.339 34.162l-.614.842-.76-.554-.09.122 1.616 1.178.09-.122-.747-.545.614-.84.746.543.089-.123-1.614-1.178-.09.123zM23.398 33.528l.493.042.116-.147-.509-.022zm-.423.228l.752-.953-.106-.082-.658.831-.619-.488.56-.709-.105-.083-.56.71-.633-.5.658-.832-.106-.084-.751.951zM23.144 30.36c-.192.224-.252.42-.231.677l.15-.012a.704.704 0 01.189-.585c.206-.24.449-.292.648-.122.092.078.142.166.142.266-.004.095-.016.148-.106.29l-.124.2a.678.678 0 00-.121.366.45.45 0 00.178.357c.256.22.57.178.819-.115a.788.788 0 00.21-.578l-.139.011a.634.634 0 01-.174.49c-.19.222-.421.25-.615.084-.088-.075-.132-.157-.131-.249 0-.092.041-.208.099-.308l.115-.185c.103-.159.132-.249.131-.358a.49.49 0 00-.182-.383c-.258-.22-.587-.165-.858.153M25.791 30.393l.102-.112-1.488-1.34-.1.113zM27.15 28.53a.54.54 0 01-.523.549c-.203.005-.324-.096-.633-.39-.31-.295-.415-.41-.42-.614a.53.53 0 01.15-.38.535.535 0 01.373-.169c.202-.005.324.096.634.391.308.295.414.411.419.613m-1.03-1.149a.692.692 0 00-.493.22.698.698 0 00-.197.503c.006.258.134.385.459.695.327.311.457.431.716.424a.699.699 0 00.492-.219.698.698 0 00.197-.503c-.006-.258-.132-.382-.46-.696-.325-.308-.456-.43-.714-.424M28.234 27.456l-1.205-1.253-.11.106 1.387 1.44.109-.106-.37-2.047 1.2 1.248.11-.106-1.386-1.44-.11.105zM31.76 24.214c-.008.167-.104.293-.226.396l-.367.315-1.123-1.316.367-.314c.12-.103.26-.18.427-.161.227.022.447.294.593.465.146.17.342.386.33.615m-.911-1.23c-.171-.014-.34.047-.5.185l-.51.436 1.299 1.52.51-.435c.16-.137.249-.293.262-.463.023-.286-.19-.522-.365-.727-.175-.205-.411-.494-.696-.516M32.997 23.582l.955-.752-.083-.106-.836.657-.49-.621.713-.56-.083-.106-.712.56-.5-.634.836-.659-.083-.105-.955.751zM33.968 20.297c-.238.174-.342.35-.382.604l.149.025a.706.706 0 01.319-.525c.257-.187.505-.18.659.03.07.097.1.195.076.292-.026.093-.05.139-.17.257l-.167.167a.676.676 0 00-.202.328.453.453 0 00.09.388c.198.274.513.305.823.078a.79.79 0 00.338-.514l-.137-.023a.634.634 0 01-.284.438c-.236.172-.466.144-.617-.062-.068-.092-.092-.182-.07-.271a.67.67 0 01.168-.275l.155-.155c.137-.132.186-.212.21-.316a.494.494 0 00-.087-.416c-.201-.276-.533-.296-.871-.05M36.9 18.297l-.127.083 1.017 1.563-.5.324.074.113 1.128-.733-.074-.115-.501.327zM39.283 19.16l1.041-.626-.069-.115-.91.547-.408-.678.776-.466-.069-.115-.776.466-.415-.693.911-.547-.07-.115-1.04.625zM41.764 17.564l-.516.284-.389-.708.516-.284c.226-.124.447-.103.58.142.134.243.035.442-.19.566m-.489-.808l-.482.266-.444-.806-.132.074.962 1.75.666-.368c.285-.155.411-.44.243-.744-.144-.262-.394-.343-.662-.25l-.022-1.041-.155.085zM43.876 16.467l-.528.265-.362-.725.528-.264c.231-.116.451-.084.575.164.125.248.018.445-.213.56m-.458-.827l-.493.247-.412-.825-.136.068.895 1.79.682-.341c.292-.145.428-.424.273-.737-.135-.27-.381-.36-.654-.276l.018-1.043-.158.079zM45.409 15.88l.138-.062L44.706 14l-.138.065zM46.29 13.297l-.139.06.734 1.712-.547.236.053.124 1.236-.53-.053-.123-.55.235zM49.25 13.964a.529.529 0 01-.297.28.519.519 0 01-.41-.01c-.184-.08-.251-.221-.405-.621-.154-.397-.2-.547-.118-.732a.529.529 0 01.297-.28.528.528 0 01.41.007c.185.082.252.224.406.622.153.398.2.547.117.734m-.441-1.48a.69.69 0 00-.54-.01.696.696 0 00-.392.372c-.105.235-.043.404.12.823.162.422.228.585.464.69.17.076.362.08.54.01a.702.702 0 00.393-.37c.104-.236.043-.402-.12-.823-.162-.42-.23-.586-.465-.691M50.642 13.742l.143-.05-.666-1.886-.143.052zM52.53 12.969l-.562.179-.245-.771.562-.18c.246-.078.458-.011.542.252.084.266-.05.442-.297.52m-.323-.887l-.525.167-.279-.88-.144.048.605 1.905.726-.231c.31-.1.488-.352.382-.684-.09-.288-.319-.415-.6-.375l.18-1.026-.17.054zM54.126 12.624l1.168-.323-.036-.13-1.022.283-.21-.76.871-.24-.036-.13-.87.239-.215-.775 1.022-.282-.036-.129-1.168.322zM56.29 9.976c-.287.067-.451.19-.586.41l.128.08a.698.698 0 01.498-.36c.308-.074.535.027.595.28.028.119.018.22-.041.3-.06.075-.101.11-.257.17l-.218.09a.678.678 0 00-.313.224.462.462 0 00-.067.396c.078.328.356.476.73.389a.797.797 0 00.51-.344l-.118-.073a.634.634 0 01-.43.292c-.284.069-.487-.044-.546-.293-.027-.112-.014-.206.04-.28a.68.68 0 01.26-.187l.203-.083c.177-.07.254-.124.317-.212a.49.49 0 00.079-.417c-.08-.33-.377-.48-.784-.382M59.617 11.33l1.197-.213-.024-.133-1.047.186-.138-.778.892-.159-.024-.133-.892.16-.14-.796 1.047-.186-.024-.134-1.197.213zM62.018 8.907l-.15.021.263 1.846-.59.084.02.133 1.33-.19-.018-.133-.591.085zM66.095 10.179c-.104.13-.256.177-.416.189l-.48.04-.146-1.721.48-.041c.16-.013.317.008.442.118.17.15.19.499.21.723.019.224.052.514-.09.692m-.022-1.53c-.131-.111-.304-.157-.514-.14l-.67.056.17 1.992.668-.057c.21-.017.373-.092.483-.223.184-.218.149-.535.126-.803-.022-.27-.045-.641-.263-.825M67.485 10.378l1.213-.06-.007-.132-1.06.048-.038-.787.904-.044-.006-.133-.904.042-.038-.805 1.061-.051-.006-.136-1.213.059zM70.161 8.273c-.294.005-.48.09-.66.274l.108.106a.701.701 0 01.564-.245c.316-.006.515.142.52.404.001.12-.03.217-.105.282-.074.06-.122.086-.287.112l-.233.041a.675.675 0 00-.354.151.46.46 0 00-.152.37c.008.337.245.544.63.537a.795.795 0 00.573-.225l-.1-.097a.64.64 0 01-.483.193c-.292.005-.465-.149-.47-.404-.003-.115.031-.203.1-.265a.707.707 0 01.294-.128l.216-.036c.19-.028.276-.066.355-.138a.49.49 0 00.168-.39c-.006-.34-.265-.549-.684-.542M73.876 10.227l-.59-.027.038-.81.589.027c.259.014.436.149.423.426-.014.279-.202.396-.46.384m.005-.945l-.551-.026.044-.922-.151-.006-.094 1.999.76.036c.326.014.582-.161.598-.51.014-.3-.157-.5-.434-.562l.525-.9-.177-.008zM75.491 10.457l1.208.103.011-.135-1.057-.089.067-.786.9.076.012-.135-.9-.076.067-.803 1.057.089.012-.134-1.209-.101zM77.686 10.664l.148.02.228-1.853 1.054.13.015-.135-1.204-.146zM80.128 9.595l.828.13-.596 1.099zm.896.004l-.921-.146-.098-.506-.16-.026.418 2.093.133.019 1.038-1.863-.161-.025zM82.713 9.407l-.15-.028-.35 1.832-.586-.113-.024.133 1.32.254.026-.133-.588-.112zM83.828 11.676l.148.032.431-1.951-.147-.033zM86.12 11.942a.532.532 0 01-.406.057.528.528 0 01-.33-.244c-.104-.173-.077-.33.03-.744.103-.413.152-.562.327-.667a.536.536 0 01.405-.055c.14.035.256.12.33.243.104.174.076.33-.029.742-.104.414-.154.564-.328.668m.495-1.462a.703.703 0 00-.434-.322.702.702 0 00-.536.076c-.22.132-.268.306-.379.741-.11.44-.152.611-.019.832a.707.707 0 00.97.245c.22-.13.266-.302.38-.74.108-.435.15-.61.018-.832M87.6 12.352l.49-1.667-.143-.043-.567 1.918.147.043 1.596-1.336-.49 1.662.147.043.564-1.918-.144-.043zM90.994 11.578c-.278-.096-.482-.079-.715.034l.068.136a.7.7 0 01.612-.04c.301.101.436.308.352.557-.039.114-.1.193-.194.23-.09.031-.144.04-.309.007l-.232-.04a.658.658 0 00-.384.022.456.456 0 00-.267.297c-.11.318.047.595.41.72a.79.79 0 00.614-.02l-.06-.125a.636.636 0 01-.52.02c-.276-.096-.389-.3-.306-.54.037-.112.098-.182.184-.215a.697.697 0 01.32-.022l.216.04c.187.037.28.031.381-.01a.485.485 0 00.288-.31c.11-.32-.062-.606-.458-.74M93.723 13.26l.777.315-.832.936zm.873.209l-.867-.353.022-.515-.151-.062-.07 2.135.125.05 1.437-1.58-.152-.061zM96.215 13.634l-1.416 1.562.146.066 1.22-1.357-.191 1.814.146.065.212-2.097zM96.902 16.146l1.09.53.057-.12-.954-.465.346-.71.814.398.058-.121-.812-.397.352-.723.954.463.06-.121-1.09-.53zM100.36 15.64a.703.703 0 00-.539-.055c-.247.075-.334.232-.545.628-.213.399-.294.556-.219.803a.704.704 0 00.344.417c.317.169.646.09.875-.195l-.137-.075c-.183.219-.437.278-.675.15a.534.534 0 01-.26-.316c-.06-.192.004-.336.205-.712.201-.376.285-.51.48-.57a.536.536 0 01.408.043c.236.127.333.374.254.647l.132.07c.11-.35-.012-.67-.324-.835M102.003 18.89l.129.08.974-1.594.907.554.07-.115-1.037-.633zM103.82 20.023l1.012.67.074-.113-.886-.586.435-.658.755.5.075-.114-.755-.499.445-.673.886.586.074-.112-1.012-.67zM107.224 19.906c-.24-.172-.44-.215-.694-.173l.023.15a.709.709 0 01.6.137c.258.186.33.423.177.636-.07.1-.152.156-.252.165-.095.004-.15-.004-.297-.082l-.211-.105a.673.673 0 00-.375-.089.452.452 0 00-.343.208c-.196.274-.128.584.186.807.202.144.37.181.595.158l-.022-.136a.634.634 0 01-.504-.132c-.237-.17-.285-.398-.137-.607.067-.092.146-.144.236-.15a.683.683 0 01.316.07l.194.1c.168.09.26.11.368.1a.49.49 0 00.368-.214c.198-.278.114-.6-.228-.843M110.127 22.112a.7.7 0 00-.519-.155c-.255.027-.372.165-.654.514-.284.352-.393.492-.366.746.018.188.11.356.26.476.279.226.617.211.895-.026l-.121-.098c-.221.18-.48.19-.689.02a.534.534 0 01-.2-.36c-.02-.2.071-.33.339-.662.269-.332.376-.447.577-.469a.543.543 0 01.394.118c.209.17.258.431.129.684l.115.094c.174-.32.114-.659-.16-.882M111.113 25.22a.528.528 0 01-.387-.132.528.528 0 01-.185-.365c-.013-.202.081-.328.361-.65.28-.322.392-.433.594-.447a.53.53 0 01.387.133.532.532 0 01.185.365c.013.2-.08.326-.362.65-.28.32-.39.432-.593.447m1.101-1.081a.696.696 0 00-.243-.482.697.697 0 00-.51-.174c-.259.017-.378.15-.674.49-.296.34-.41.476-.392.733a.697.697 0 00.242.483.706.706 0 00.512.174c.256-.02.375-.15.672-.491.295-.34.41-.476.393-.733M111.958 26.35l.111.105 1.274-1.363.775.726.092-.1-.886-.828zM113.497 27.821l.105.106 1.326-1.31.747.754.094-.095-.853-.862zM114.988 29.352l.824.89.1-.091-.722-.778.58-.54.614.665.1-.09-.616-.664.591-.548.722.779.1-.092-.826-.89zM118.39 30.124a.703.703 0 00-.482-.246c-.26-.021-.397.096-.74.389-.342.294-.475.413-.495.67a.703.703 0 00.17.515c.235.274.57.318.889.136l-.101-.118c-.25.135-.51.099-.685-.106a.533.533 0 01-.13-.389c.015-.204.128-.314.452-.592.325-.28.452-.373.654-.359a.526.526 0 01.364.189c.178.205.18.47.006.696l.097.112c.23-.284.23-.627 0-.897M119.823 31.883l-.095-.12-1.456 1.169-.373-.465-.104.084.841 1.05.106-.084-.374-.467zM119.202 34.342l.092.12 1.595-1.204-.09-.121zM121.821 34.53l-2.012.628.094.13 1.738-.55-1.085 1.465.094.131 1.246-1.7zM121.139 37.059l.084.125 1.662-1.116-.085-.127zM123.828 37.517l-.08-.13-1.576.999-.319-.503-.114.07.72 1.139.114-.072-.32-.506zM122.932 39.879l.61 1.05.119-.07-.537-.918.683-.397.457.782.116-.068-.457-.782.697-.408.538.918.115-.067-.612-1.05zm.058.479l-.22.443.095.163.207-.466zM126.047 41.286c-.141-.26-.302-.388-.55-.462l-.043.145a.706.706 0 01.478.388c.15.281.109.526-.12.65-.107.056-.206.072-.3.036-.088-.039-.133-.07-.232-.204l-.142-.189a.685.685 0 00-.298-.245.456.456 0 00-.4.036c-.296.16-.371.468-.188.807a.787.787 0 00.465.405l.039-.134a.633.633 0 01-.394-.339c-.138-.258-.082-.484.145-.605.102-.056.193-.066.278-.032a.66.66 0 01.25.204l.133.174c.11.154.186.214.286.252a.491.491 0 00.424-.032c.3-.16.366-.487.169-.855M127.627 44.477l-.065-.137-1.688.79-.253-.538-.122.057.57 1.218.122-.057-.252-.542zM126.439 46.712l.474 1.119.124-.054-.415-.978.729-.308.351.834.126-.052-.354-.834.744-.315.414.979.123-.053-.473-1.118zM127.673 49.395l-.21-.552.756-.289.21.553c.093.241.04.457-.22.557-.26.098-.443-.027-.536-.269m.869-.373l-.196-.515.862-.328-.055-.142-1.871.713.272.71c.116.307.38.47.706.347.282-.108.396-.346.34-.624l1.037.123-.063-.166zM128.468 51.627l-.188-.561.766-.257.19.559c.082.246.02.459-.244.548-.263.089-.441-.044-.524-.289m.883-.339l-.177-.522.874-.295-.048-.144-1.897.64.243.722c.103.309.36.484.692.373.285-.097.409-.33.365-.61l1.03.162-.056-.167zM128.833 53.224l.044.146 1.918-.58-.044-.144zM131.273 54.458l-.04-.146-1.802.489-.155-.574-.131.035.353 1.299.13-.037-.157-.577zM130.203 57.296a.524.524 0 01-.237-.334.519.519 0 01.064-.403c.106-.173.256-.22.672-.318.415-.097.57-.122.742-.015a.53.53 0 01.238.333.534.534 0 01-.064.404c-.106.172-.257.219-.672.315-.416.099-.57.123-.743.018m1.524-.235a.699.699 0 00.085-.535.701.701 0 00-.313-.437c-.22-.136-.395-.098-.832.005-.44.103-.61.146-.747.366a.695.695 0 00-.085.533.7.7 0 00.314.44c.22.134.391.097.831-.006.438-.103.612-.147.747-.366M130.498 59.402l-.111-.58.795-.152.111.58c.048.254-.041.457-.316.507-.272.054-.43-.1-.479-.355m.92-.217l-.105-.54.906-.176-.029-.147-1.964.377.143.748c.062.32.292.527.635.462.296-.057.449-.27.442-.555l1 .301-.032-.174zM130.653 61.033l.024.148 1.972-.315-.023-.149zM132.232 62.258l.11.83-1.223-.26zm.25.86l-.122-.924.46-.238-.022-.161-1.889.992.018.135 2.082.468-.022-.162zM131.118 64.523l.015.15 1.856-.175.101 1.057.133-.012-.114-1.209zM131.302 66.651l.073 1.213.135-.009-.064-1.06.789-.048.054.903.135-.008-.055-.904.806-.049.064 1.062.135-.009-.073-1.212zM133.442 69.31c-.007-.294-.092-.48-.279-.658l-.104.108a.704.704 0 01.25.561c.006.318-.14.518-.402.525-.12.002-.217-.03-.283-.104-.06-.074-.087-.12-.114-.285l-.042-.233a.681.681 0 00-.154-.354.458.458 0 00-.372-.148c-.336.008-.542.249-.532.634a.793.793 0 00.23.57l.095-.102a.639.639 0 01-.196-.48c-.007-.292.146-.468.402-.472.115-.003.202.028.263.097.06.069.108.183.131.295l.038.215c.03.187.07.273.14.353a.49.49 0 00.392.165c.34-.008.547-.268.537-.686M8.996 80.643l1.546-.26.547 3.267 1.93-.322-.546-3.267 3.402-.57-.362-2.164-8.81 1.474 1.002 5.988 1.93-.323zM12.903 90.544l2-1.523.498 1.473zm5.81-.124l-1.393.034-.88-2.602 1.12-.842-.736-2.174-7.418 5.937.542 1.604 9.5.217zM19.269 99.892l-.716-1.295 1.372-.758.716 1.294c.29.527.026.903-.303 1.085-.33.182-.778.2-1.07-.326m-3.05 1.558l-.661-1.196 1.273-.704.662 1.196c.29.526.053.873-.255 1.043-.306.17-.727.187-1.018-.34m6.248-3.082l-1.882-3.401-7.813 4.32 1.79 3.237c.899 1.624 2.289 1.987 3.639 1.24.889-.49 1.043-1.378 1.074-1.71.373.209 1.137.63 2.234.025 1.493-.826 1.728-2.317.958-3.711M22.423 110.544l-.783-.964 1.402-1.14.783.964c.38.468.26 1.017-.1 1.31-.36.292-.922.297-1.302-.17m6.083-3.554l-3.576.87-.467-.574 2.58-2.097-1.385-1.703-6.931 5.632 2.23 2.746c1.25 1.538 3.014 1.479 4.153.554.944-.768 1.063-1.834.893-2.601l4.109-.851zM32.311 111.014l-6.057 6.56 1.613 1.49 6.057-6.562zM36.209 122.664c-.256.083-.614.049-.944-.18-.33-.227-.488-.55-.501-.818-.016-.331.051-.65.978-1.991.927-1.342 1.195-1.508 1.509-1.611.255-.083.62-.06.95.169a.837.837 0 01.138.11l-.785.144.284 1.552.593-.108c-.15.262-.365.616-.706 1.112-.927 1.342-1.201 1.518-1.516 1.62m5.253-4.892l-.96.176c-.235-.498-.621-.932-1.19-1.325-.896-.62-1.715-.758-2.623-.592-1.308.239-1.99 1.293-2.752 2.398-.763 1.104-1.507 2.114-1.267 3.424.165.907.585 1.623 1.483 2.243.899.62 1.718.759 2.625.592 1.308-.24 1.99-1.293 2.753-2.397.634-.918 1.26-1.782 1.308-2.8l.908-.166z" fill="#556f7b"/><g><path d="M47.87 121.48c-1.69-.77-3.592-.257-4.403 1.523l-2.4 5.276 1.997.91 2.381-5.23c.342-.752.951-1 1.613-.698.663.302.898.933.556 1.687l-2.38 5.229 1.997.91 2.402-5.275c.81-1.783-.074-3.563-1.764-4.333" fill="#556f7b"/></g><g><path d="M54.136 124.041l-2.228 8.647 5.88 1.515.487-1.895-3.753-.967.372-1.445 3.207.826.488-1.894-3.207-.827.391-1.518 3.753.967.488-1.895z" fill="#556f7b"/></g><g><path d="M69.413 134.318l-.135-7.764-.677.012.155 8.93.677-.01 5.02-7.83.135 7.74.678-.013-.155-8.93-.678.012z" fill="#556f7b"/></g><g><path d="M82.37 125.252c-1.757.369-2.743 1.833-2.386 3.539l1.241 5.906.665-.139-1.224-5.82c-.305-1.449.415-2.6 1.827-2.897 1.411-.297 2.533.468 2.84 1.916l1.222 5.82.663-.139-1.242-5.906c-.359-1.707-1.85-2.649-3.607-2.28" fill="#556f7b"/></g><g><path d="M98.653 127.521l-4.907-4.533-.622.269-.112 6.7-2.918-6.758-.622.269 3.54 8.196.62-.268.127-7.553 5.516 5.116.621-.268-3.54-8.196-.62.268z" fill="#556f7b"/></g><g><path d="M107.31 125.223l2.043.839.694-.472-2.136-.776zm-2.108.403l4.478-3.05-.34-.498-3.918 2.669-1.984-2.913 3.34-2.273-.34-.498-3.34 2.273-2.025-2.975 3.92-2.67-.34-.497-4.48 3.05z" fill="#556f7b"/></g><g><path d="M115.78 116.432l-1.893 1.832-2.512-2.594 1.892-1.832c.828-.802 1.807-.964 2.67-.073.864.892.671 1.865-.158 2.667m-3.057-2.904l-1.766 1.71-2.86-2.954-.487.47 6.211 6.413 2.441-2.363c1.045-1.013 1.253-2.384.171-3.5-.933-.964-2.103-1.018-3.152-.299l-1.32-4.464-.568.55z" fill="#556f7b"/></g><g><path d="M121.57 110.872l.418-.534-7.039-5.498-.418.533z" fill="#556f7b"/></g><g><path d="M126.575 101.138a2.374 2.374 0 01-.253 1.81 2.37 2.37 0 01-1.447 1.12c-.874.232-1.508-.077-3.156-1.034-1.649-.957-2.232-1.353-2.464-2.227a2.366 2.366 0 01.253-1.811 2.374 2.374 0 011.217-1.048l.455 1.714.618-.164-.452-1.697c.69-.064 1.375.305 2.765 1.11 1.65.957 2.232 1.353 2.464 2.227m-6.014-3.808a3.177 3.177 0 00-1.574 1.364 3.13 3.13 0 00-.329 2.39c.296 1.116.985 1.529 2.721 2.536 1.747 1.014 2.436 1.399 3.551 1.103a3.127 3.127 0 001.913-1.472 3.132 3.132 0 00.328-2.39c-.296-1.115-.973-1.522-2.72-2.536-1.585-.92-2.329-1.336-3.272-1.16l-.383-1.44-.617.165z" fill="#556f7b"/></g><g><path d="M123.217 89.575c-.604 1.69.127 3.297 1.769 3.884l5.683 2.032.228-.638-5.6-2.002c-1.394-.5-1.998-1.714-1.513-3.073.486-1.36 1.724-1.915 3.119-1.417l5.6 2.003.228-.638-5.683-2.032c-1.642-.588-3.227.192-3.831 1.88" fill="#556f7b"/></g><g><path d="M134.165 83.956l.894-5.345-.593-.1-.783 4.677-3.476-.581.666-3.984-.595-.1-.666 3.984-3.551-.593.783-4.677-.594-.1-.895 5.345z" fill="#556f7b"/></g></g></svg>