<svg class="site-logo" id="Calque_3" data-name="Calque 3"
    xmlns="http://www.w3.org/2000/svg" viewBox="0 0 270.45 200.68">
    <defs>
        <style>.cls-1{fill:#000091;}.cls-2{fill:#e1000f;}.cls-3{fill:#9d9d9c;}</style>
    </defs>
    <title>Ministère de la Cohésion des Territoires et des Relations avec les collectivités territoriales</title>
    <desc>Ministère de la Cohésion des Territoires et des Relations avec les collectivités territoriales</desc>
    <path d="M37,37.9h3.86l3.64,6.2,3.64-6.2H52V53H48.91V42.25L45.55,47.8H43.4L40,42.25V53H37Z" transform="translate(-35.09 -7.88)"></path>
    <path d="M56.17,37.9h3.06V53H56.17Z" transform="translate(-35.09 -7.88)"></path>
    <path d="M63.45,37.9h3.92l6.74,10.79V37.9h3.06V53H73.25L66.51,42.14V53H63.45Z" transform="translate(-35.09 -7.88)"></path>
    <path d="M81.39,37.9h3V53h-3Z" transform="translate(-35.09 -7.88)"></path>
    <path d="M89.53,48.84a4.34,4.34,0,0,0,3.33,1.85A1.7,1.7,0,0,0,94.8,49c0-2.7-6.89-2.09-6.89-7.11a4.51,4.51,0,0,1,4.83-4.37A6.64,6.64,0,0,1,98,40l-2.24,2a4,4,0,0,0-3-1.87A1.6,1.6,0,0,0,91,41.71c0,2.69,6.89,2.07,6.89,7.17,0,2.8-2.24,4.52-5,4.52a6.78,6.78,0,0,1-5.6-2.52Z" transform="translate(-35.09 -7.88)"></path>
    <path d="M99.45,37.9h12.36v2.78h-4.65V53h-3V40.68H99.45Z" transform="translate(-35.09 -7.88)"></path>
    <path d="M114.51,37.9h8.78v2.6h-5.73V44h4.87V46.6h-4.87v3.77h5.73V53h-8.78Zm.26-4.2h3.14l2.43,2.91h-2.8Z" transform="translate(-35.09 -7.88)"></path>
    <path d="M126.85,37.9h4.6c3.32,0,5.37,1.7,5.37,4.5a4.12,4.12,0,0,1-2.42,3.9L139.14,53h-3.66l-4-6.09H129.9V53h-3.05Zm3.05,2.6v3.77h1.73a1.89,1.89,0,1,0,0-3.77Z" transform="translate(-35.09 -7.88)"></path>
    <path d="M141,37.9h8.78v2.6h-5.73V44H149V46.6h-4.87v3.77h5.73V53H141Z" transform="translate(-35.09 -7.88)"></path>
    <path d="M37,59.63h5.93c4.78,0,8,3.47,8,7.54s-3.23,7.54-8,7.54H37ZM40,62.41v9.52H43a4.76,4.76,0,1,0,0-9.52Z" transform="translate(-35.09 -7.88)"></path>
    <path d="M53.87,59.63h8.78v2.61H56.92v3.49h4.87v2.6H56.92V72.1h5.73v2.61H53.87Z" transform="translate(-35.09 -7.88)"></path>
    <path d="M71.8,59.63h3.06v12.3h5.73v2.78H71.8Z" transform="translate(-35.09 -7.88)"></path>
    <path d="M87.74,59.63h4l5.71,15.08H94.2l-1.44-3.92h-6l-1.45,3.92H82Zm4.07,8.55-2.07-5.66-2.06,5.66Z" transform="translate(-35.09 -7.88)"></path>
    <path d="M116,70.21l2.42,1.85a7.73,7.73,0,0,1-6.36,3.08,8,8,0,1,1,6.36-12.88L116,64.13a4.71,4.71,0,0,0-3.94-2.06,5.11,5.11,0,0,0,0,10.2A4.71,4.71,0,0,0,116,70.21Z" transform="translate(-35.09 -7.88)"></path>
    <path d="M135.7,67.17a8,8,0,1,1-8-8A7.84,7.84,0,0,1,135.7,67.17Zm-3.15,0a4.86,4.86,0,1,0-4.84,5.1A4.85,4.85,0,0,0,132.55,67.17Z" transform="translate(-35.09 -7.88)"></path>
    <path d="M138.62,59.63h3.06v6h7.6v-6h3.06V74.71h-3.06V68.42h-7.6v6.29h-3.06Z" transform="translate(-35.09 -7.88)"></path>
    <path d="M156.56,59.63h8.79v2.61h-5.73v3.49h4.87v2.6h-4.87V72.1h5.73v2.61h-8.79Zm3-1.29,2.44-2.9h3.14l-2.8,2.9Z" transform="translate(-35.09 -7.88)"></path>
    <path d="M169.76,70.57a4.33,4.33,0,0,0,3.34,1.85c1.21,0,1.94-.64,1.94-1.74,0-2.69-6.89-2.09-6.89-7.11A4.51,4.51,0,0,1,173,59.2a6.69,6.69,0,0,1,5.28,2.54l-2.24,2a4,4,0,0,0-3-1.88,1.6,1.6,0,0,0-1.74,1.58c0,2.69,6.89,2.06,6.89,7.17,0,2.8-2.24,4.52-5,4.52a6.82,6.82,0,0,1-5.6-2.52Z" transform="translate(-35.09 -7.88)"></path>
    <path d="M181.35,59.63h3.06V74.71h-3.06Z" transform="translate(-35.09 -7.88)"></path>
    <path d="M203.33,67.17a8,8,0,1,1-8-8A7.83,7.83,0,0,1,203.33,67.17Zm-3.14,0a4.86,4.86,0,1,0-4.84,5.1A4.85,4.85,0,0,0,200.19,67.17Z" transform="translate(-35.09 -7.88)"></path>
    <path d="M206.26,59.63h3.92l6.74,10.79V59.63H220V74.71h-3.92l-6.74-10.83V74.71h-3.06Z" transform="translate(-35.09 -7.88)"></path>
    <path d="M37,81.37h5.93c4.78,0,8,3.47,8,7.54s-3.23,7.53-8,7.53H37ZM40,84.15v9.51H43a4.76,4.76,0,1,0,0-9.51Z" transform="translate(-35.09 -7.88)"></path>
    <path d="M53.87,81.37h8.78V84H56.92v3.48h4.87v2.61H56.92v3.77h5.73v2.6H53.87Z" transform="translate(-35.09 -7.88)"></path>
    <path d="M67.07,92.31a4.34,4.34,0,0,0,3.33,1.85,1.7,1.7,0,0,0,1.94-1.74c0-2.7-6.89-2.09-6.89-7.11a4.51,4.51,0,0,1,4.83-4.37,6.64,6.64,0,0,1,5.27,2.54l-2.24,2a4,4,0,0,0-3-1.87,1.6,1.6,0,0,0-1.75,1.57c0,2.69,6.89,2.07,6.89,7.17,0,2.8-2.24,4.52-5,4.52a6.78,6.78,0,0,1-5.6-2.52Z" transform="translate(-35.09 -7.88)"></path>
    <path d="M82.7,81.37H95.06v2.78H90.41V96.44H87.35V84.15H82.7Z" transform="translate(-35.09 -7.88)"></path>
    <path d="M97.75,81.37h8.79V84h-5.73v3.48h4.87v2.61h-4.87v3.77h5.73v2.6H97.75Z" transform="translate(-35.09 -7.88)"></path>
    <path d="M110.09,81.37h4.61c3.32,0,5.36,1.7,5.36,4.5a4.1,4.1,0,0,1-2.41,3.9l4.74,6.67h-3.66l-4-6.09h-1.57v6.09h-3.06ZM113.15,84v3.76h1.72a1.89,1.89,0,1,0,0-3.76Z" transform="translate(-35.09 -7.88)"></path>
    <path d="M124.28,81.37h4.61c3.32,0,5.36,1.7,5.36,4.5a4.1,4.1,0,0,1-2.41,3.9l4.74,6.67h-3.66l-4-6.09h-1.57v6.09h-3.06ZM127.34,84v3.76h1.72a1.89,1.89,0,1,0,0-3.76Z" transform="translate(-35.09 -7.88)"></path>
    <path d="M138.47,81.37h3.06V96.44h-3.06Z" transform="translate(-35.09 -7.88)"></path>
    <path d="M144.2,81.37h12.36v2.78h-4.65V96.44h-3.06V84.15H144.2Z" transform="translate(-35.09 -7.88)"></path>
    <path d="M173.27,88.91a8,8,0,1,1-8-8A7.83,7.83,0,0,1,173.27,88.91Zm-3.14,0a4.86,4.86,0,1,0-4.85,5.1A4.86,4.86,0,0,0,170.13,88.91Z" transform="translate(-35.09 -7.88)"></path>
    <path d="M176.2,81.37h3.06V96.44H176.2Z" transform="translate(-35.09 -7.88)"></path>
    <path d="M183.48,81.37h4.61c3.31,0,5.36,1.7,5.36,4.5a4.1,4.1,0,0,1-2.41,3.9l4.74,6.67h-3.66l-4-6.09h-1.57v6.09h-3.06ZM186.54,84v3.76h1.72a1.89,1.89,0,1,0,0-3.76Z" transform="translate(-35.09 -7.88)"></path>
    <path d="M197.67,81.37h8.79V84h-5.73v3.48h4.87v2.61h-4.87v3.77h5.73v2.6h-8.79Z" transform="translate(-35.09 -7.88)"></path>
    <path d="M210.87,92.31a4.36,4.36,0,0,0,3.34,1.85,1.7,1.7,0,0,0,1.94-1.74c0-2.7-6.89-2.09-6.89-7.11a4.51,4.51,0,0,1,4.82-4.37,6.66,6.66,0,0,1,5.28,2.54l-2.24,2a4,4,0,0,0-3-1.87,1.6,1.6,0,0,0-1.74,1.57c0,2.69,6.89,2.07,6.89,7.17-.05,2.8-2.24,4.52-5,4.52a6.79,6.79,0,0,1-5.6-2.52Z" transform="translate(-35.09 -7.88)"></path>
    <path d="M37,103.1h8.79v2.61H40v3.49h4.87v2.6H40v3.77h5.73v2.61H37Z" transform="translate(-35.09 -7.88)"></path>
    <path d="M48.1,103.1H60.46v2.78H55.8v12.3h-3v-12.3H48.1Z" transform="translate(-35.09 -7.88)"></path>
    <path d="M68.75,103.1h5.92c4.78,0,8,3.47,8,7.54s-3.23,7.54-8,7.54H68.75Zm3,2.78v9.52h2.91a4.76,4.76,0,1,0,0-9.52Z" transform="translate(-35.09 -7.88)"></path>
    <path d="M85.63,103.1h8.79v2.61H88.69v3.49h4.86v2.6H88.69v3.77h5.73v2.61H85.63Z" transform="translate(-35.09 -7.88)"></path>
    <path d="M98.83,114a4.33,4.33,0,0,0,3.34,1.86,1.71,1.71,0,0,0,1.94-1.75c0-2.69-6.9-2.09-6.9-7.1a4.52,4.52,0,0,1,4.83-4.38,6.67,6.67,0,0,1,5.27,2.54l-2.24,2a4,4,0,0,0-3-1.88,1.6,1.6,0,0,0-1.74,1.58c0,2.69,6.89,2.06,6.89,7.17,0,2.8-2.24,4.52-5,4.52a6.82,6.82,0,0,1-5.6-2.52Z" transform="translate(-35.09 -7.88)"></path>
    <path d="M116,103.1h4.61c3.32,0,5.36,1.71,5.36,4.51a4.09,4.09,0,0,1-2.41,3.89l4.74,6.68h-3.66l-4-6.1h-1.57v6.1H116Zm3.06,2.61v3.77h1.72a1.89,1.89,0,1,0,0-3.77Z" transform="translate(-35.09 -7.88)"></path>
    <path d="M130.2,103.1H139v2.61h-5.73v3.49h4.87v2.6h-4.87v3.77H139v2.61H130.2Z" transform="translate(-35.09 -7.88)"></path>
    <path d="M142.54,103.1h3.06v12.3h5.73v2.78h-8.79Z" transform="translate(-35.09 -7.88)"></path>
    <path d="M158.48,103.1h4l5.71,15.08h-3.25l-1.44-3.92h-6L156,118.18h-3.25Zm4.07,8.55L160.48,106l-2.07,5.66Z" transform="translate(-35.09 -7.88)"></path>
    <path d="M167.46,103.1h12.36v2.78h-4.65v12.3h-3.06v-12.3h-4.65Z" transform="translate(-35.09 -7.88)"></path>
    <path d="M182.51,103.1h3.06v15.08h-3.06Z" transform="translate(-35.09 -7.88)"></path>
    <path d="M204.5,110.64a8,8,0,1,1-8-8A7.83,7.83,0,0,1,204.5,110.64Zm-3.15,0a4.86,4.86,0,1,0-4.84,5.1A4.85,4.85,0,0,0,201.35,110.64Z" transform="translate(-35.09 -7.88)"></path>
    <path d="M207.43,103.1h3.92l6.74,10.79V103.1h3v15.08h-3.92l-6.74-10.83v10.83h-3Z" transform="translate(-35.09 -7.88)"></path>
    <path d="M226.23,114a4.33,4.33,0,0,0,3.33,1.86,1.7,1.7,0,0,0,1.94-1.75c0-2.69-6.89-2.09-6.89-7.1a4.51,4.51,0,0,1,4.82-4.38,6.69,6.69,0,0,1,5.28,2.54l-2.24,2a4,4,0,0,0-3-1.88,1.61,1.61,0,0,0-1.75,1.58c0,2.69,6.89,2.06,6.89,7.17,0,2.8-2.24,4.52-5,4.52a6.79,6.79,0,0,1-5.6-2.52Z" transform="translate(-35.09 -7.88)"></path>
    <path d="M40.8,124.84h4l5.71,15.07H47.26L45.81,136h-6l-1.44,3.92H35.09Zm4.07,8.55-2.07-5.66-2.07,5.66Z" transform="translate(-35.09 -7.88)"></path>
    <path d="M52.85,124.84l4.46,11.78,4.46-11.78H65l-5.71,15.07h-4L49.6,124.84Z" transform="translate(-35.09 -7.88)"></path>
    <path d="M67.35,124.84h8.78v2.61H70.4v3.48h4.87v2.61H70.4v3.77h5.73v2.6H67.35Z" transform="translate(-35.09 -7.88)"></path>
    <path d="M90,135.41l2.41,1.85a7.7,7.7,0,0,1-6.35,3.08,8,8,0,1,1,6.35-12.87L90,129.34a4.71,4.71,0,0,0-3.94-2.07,5.11,5.11,0,0,0,0,10.21A4.71,4.71,0,0,0,90,135.41Z" transform="translate(-35.09 -7.88)"></path>
    <path d="M100.66,124.84h3.06v12.3h5.73v2.77h-8.79Z" transform="translate(-35.09 -7.88)"></path>
    <path d="M112.14,124.84h8.78v2.61H115.2v3.48h4.86v2.61H115.2v3.77h5.72v2.6h-8.78Z" transform="translate(-35.09 -7.88)"></path>
    <path d="M125.34,135.78a4.35,4.35,0,0,0,3.34,1.85,1.7,1.7,0,0,0,1.93-1.74c0-2.7-6.89-2.09-6.89-7.11a4.51,4.51,0,0,1,4.83-4.37,6.64,6.64,0,0,1,5.27,2.54l-2.24,2a4,4,0,0,0-3-1.87,1.6,1.6,0,0,0-1.75,1.57c0,2.69,6.89,2.07,6.89,7.17,0,2.8-2.23,4.52-5,4.52a6.79,6.79,0,0,1-5.6-2.52Z" transform="translate(-35.09 -7.88)"></path>
    <path d="M153.18,135.41l2.41,1.85a7.67,7.67,0,0,1-6.35,3.08,8,8,0,1,1,6.35-12.87l-2.41,1.87a4.71,4.71,0,0,0-3.94-2.07,5.11,5.11,0,0,0,0,10.21A4.71,4.71,0,0,0,153.18,135.41Z" transform="translate(-35.09 -7.88)"></path>
    <path d="M172.84,132.38a8,8,0,1,1-8-8A7.83,7.83,0,0,1,172.84,132.38Zm-3.14,0a4.86,4.86,0,1,0-4.85,5.1A4.86,4.86,0,0,0,169.7,132.38Z" transform="translate(-35.09 -7.88)"></path>
    <path d="M175.77,124.84h3.06v12.3h5.73v2.77h-8.79Z" transform="translate(-35.09 -7.88)"></path>
    <path d="M187.25,124.84h3.06v12.3H196v2.77h-8.78Z" transform="translate(-35.09 -7.88)"></path>
    <path d="M198.73,124.84h8.78v2.61h-5.73v3.48h4.87v2.61h-4.87v3.77h5.73v2.6h-8.78Z" transform="translate(-35.09 -7.88)"></path>
    <path d="M221.38,135.41l2.41,1.85a7.7,7.7,0,0,1-6.35,3.08,8,8,0,1,1,6.35-12.87l-2.41,1.87a4.71,4.71,0,0,0-3.94-2.07,5.11,5.11,0,0,0,0,10.21A4.71,4.71,0,0,0,221.38,135.41Z" transform="translate(-35.09 -7.88)"></path>
    <path d="M224.89,124.84h12.36v2.78H232.6v12.29h-3.06V127.62h-4.65Z" transform="translate(-35.09 -7.88)"></path>
    <path d="M239.94,124.84H243v15.07h-3.06Z" transform="translate(-35.09 -7.88)"></path>
    <path d="M248.58,124.84,253,136.62l4.45-11.78h3.25L255,139.91h-4l-5.7-15.07Z" transform="translate(-35.09 -7.88)"></path>
    <path d="M263.07,124.84h3.06v15.07h-3.06Z" transform="translate(-35.09 -7.88)"></path>
    <path d="M268.8,124.84h12.36v2.78h-4.65v12.29h-3.06V127.62H268.8Z" transform="translate(-35.09 -7.88)"></path>
    <path d="M283.85,124.84h8.79v2.61h-5.73v3.48h4.86v2.61h-4.86v3.77h5.73v2.6h-8.79Zm3-1.29,2.44-2.91h3.14l-2.8,2.91Z" transform="translate(-35.09 -7.88)"></path>
    <path d="M297.05,135.78a4.36,4.36,0,0,0,3.34,1.85,1.7,1.7,0,0,0,1.94-1.74c0-2.7-6.89-2.09-6.89-7.11a4.51,4.51,0,0,1,4.82-4.37,6.68,6.68,0,0,1,5.28,2.54l-2.24,2a4,4,0,0,0-3-1.87,1.6,1.6,0,0,0-1.74,1.57c0,2.69,6.89,2.07,6.89,7.17-.05,2.8-2.24,4.52-5,4.52a6.79,6.79,0,0,1-5.6-2.52Z" transform="translate(-35.09 -7.88)"></path>
    <path d="M35.43,146.58H47.79v2.77H43.14v12.3H40.08v-12.3H35.43Z" transform="translate(-35.09 -7.88)"></path>
    <path d="M50.49,146.58h8.78v2.6H53.54v3.49h4.87v2.6H53.54V159h5.73v2.61H50.49Z" transform="translate(-35.09 -7.88)"></path>
    <path d="M62.82,146.58h4.61c3.32,0,5.36,1.7,5.36,4.5A4.09,4.09,0,0,1,70.38,155l4.74,6.68H71.46l-4-6.1H65.88v6.1H62.82Zm3.06,2.6V153h1.73a1.89,1.89,0,1,0,0-3.77Z" transform="translate(-35.09 -7.88)"></path>
    <path d="M77,146.58h4.6c3.32,0,5.37,1.7,5.37,4.5A4.1,4.1,0,0,1,84.57,155l4.74,6.68H85.65l-4-6.1H80.07v6.1H77Zm3,2.6V153H81.8a1.89,1.89,0,1,0,0-3.77Z" transform="translate(-35.09 -7.88)"></path>
    <path d="M91.21,146.58h3.05v15.07H91.21Z" transform="translate(-35.09 -7.88)"></path>
    <path d="M96.93,146.58H109.3v2.77h-4.66v12.3h-3v-12.3H96.93Z" transform="translate(-35.09 -7.88)"></path>
    <path d="M126,154.11a8,8,0,1,1-8-8A7.84,7.84,0,0,1,126,154.11Zm-3.15,0a4.86,4.86,0,1,0-4.84,5.11A4.85,4.85,0,0,0,122.86,154.11Z" transform="translate(-35.09 -7.88)"></path>
    <path d="M128.93,146.58h4.61c3.32,0,5.36,1.7,5.36,4.5a4.09,4.09,0,0,1-2.41,3.89l4.74,6.68h-3.66l-4-6.1H132v6.1h-3.06Zm3.06,2.6V153h1.72a1.89,1.89,0,1,0,0-3.77Z" transform="translate(-35.09 -7.88)"></path>
    <path d="M143.13,146.58h3.05v15.07h-3.05Z" transform="translate(-35.09 -7.88)"></path>
    <path d="M154.22,146.58h4l5.71,15.07h-3.25l-1.45-3.92h-6l-1.44,3.92h-3.25Zm4.06,8.54-2.06-5.66-2.07,5.66Z" transform="translate(-35.09 -7.88)"></path>
    <path d="M166.25,146.58h3.06v12.29H175v2.78h-8.79Z" transform="translate(-35.09 -7.88)"></path>
    <path d="M177.73,146.58h8.79v2.6h-5.73v3.49h4.86v2.6h-4.86V159h5.73v2.61h-8.79Z" transform="translate(-35.09 -7.88)"></path>
    <path d="M190.93,157.51a4.34,4.34,0,0,0,3.34,1.86,1.71,1.71,0,0,0,1.94-1.75c0-2.69-6.89-2.09-6.89-7.1a4.51,4.51,0,0,1,4.82-4.38,6.65,6.65,0,0,1,5.27,2.55l-2.23,2a4,4,0,0,0-3-1.88,1.6,1.6,0,0,0-1.74,1.58c0,2.69,6.89,2.06,6.89,7.17-.05,2.8-2.24,4.52-5,4.52a6.82,6.82,0,0,1-5.6-2.52Z" transform="translate(-35.09 -7.88)"></path>
    <path d="M86,203.36c.41,0,.77.31.58,1.1l-1.9.44c.33-.89.88-1.54,1.32-1.54m1,3.06h-.37a2.29,2.29,0,0,1-1.49,1c-.52,0-.79-.31-.79-1a3.93,3.93,0,0,1,.09-.84l3.06-1c.6-1.42-.12-2-1-2-1.45,0-3.1,2.42-3.1,4.55,0,.95.46,1.47,1.17,1.47s1.69-.81,2.39-2.14m-.6-4.44,2.15-2v-.23H87.47L86.14,202Zm-6.61,1.41h1l-1.61,4.41a.52.52,0,0,0,.44.76,3.76,3.76,0,0,0,2.92-2.15h-.29a4,4,0,0,1-1.87,1.13L82,203.39h1.51l.19-.63H82.19l.56-1.59h-.58l-1,1.59-1.25.18Zm-1.37-.21a.46.46,0,0,0-.37-.64,2.85,2.85,0,0,0-2.35,1.92h.29a2.19,2.19,0,0,1,1.22-.94l-1.69,4.39a.45.45,0,0,0,.37.65,2.79,2.79,0,0,0,2.24-1.92h-.29a2.22,2.22,0,0,1-1.22.94Zm.31-2.21a.73.73,0,1,0,0-1.45.73.73,0,1,0,0,1.45m-9.74,6.77c-.22.5,0,.82.5.82.3,0,.43-.08.55-.4l1.17-3.11a4.23,4.23,0,0,1,2.1-1.37c.32,0,.28.27.07.66l-1.8,3.46a.51.51,0,0,0,.44.76,2.85,2.85,0,0,0,2.35-1.92h-.29a2.19,2.19,0,0,1-1.22.94l1.54-3.12a2.53,2.53,0,0,0,.3-1.08.76.76,0,0,0-.81-.84c-.77,0-1.54.87-2.46,1.93v-.82c0-.59-.19-1.11-.72-1.11-.33,0-.65.29-1,.7v.11c.58,0,.83.83.42,1.74Zm0-3.85c.21-.72.1-1.35-.46-1.35s-.81.5-1.48,1.93v-.82c0-.59-.18-1.11-.71-1.11s-1.19,1-1.62,1.92h.29c.3-.44.57-.69.79-.69s.41.41,0,1.32l-1.19,2.65c-.22.5,0,.82.5.82.3,0,.43-.08.55-.4l1.17-3.11c.33-.41.63-.76,1-1.16Zm-6.79-.53c.41,0,.76.31.58,1.1l-1.9.44c.33-.89.88-1.54,1.32-1.54m1.05,3.06h-.37a2.29,2.29,0,0,1-1.5,1c-.52,0-.78-.31-.78-1a3.93,3.93,0,0,1,.09-.84l3.06-1c.6-1.42-.12-2-1-2-1.45,0-3.1,2.42-3.1,4.55,0,.95.46,1.47,1.16,1.47s1.69-.81,2.4-2.14m-7.22-3h1L55.5,207.8a.51.51,0,0,0,.44.76,3.76,3.76,0,0,0,2.92-2.15h-.29a4,4,0,0,1-1.87,1.13l1.48-4.15H59.7l.19-.63H58.42l.56-1.59h-.59l-1,1.59-1.25.18Zm-5.58,3.44c0-1.36,1.52-3.2,2.37-3.2a2.12,2.12,0,0,1,.52.06l-.89,2.36c-.5.62-1.29,1.37-1.65,1.37s-.35-.18-.35-.59m4.66-4.54-.47,0-.52.5h-.11c-2.52,0-4.69,2.83-4.69,4.89a.84.84,0,0,0,.9.91c.65,0,1.29-.93,2-1.93l0,.36c-.09,1,.22,1.57.75,1.57s1.18-1,1.62-1.92h-.29c-.3.43-.58.69-.8.69s-.4-.42,0-1.32Zm-5.37,1.6c.21-.72.1-1.35-.46-1.35s-.82.5-1.48,1.93v-.82c0-.59-.19-1.11-.72-1.11s-1.18,1-1.61,1.92h.29c.3-.44.57-.69.79-.69s.41.41,0,1.32l-1.19,2.65c-.22.5,0,.82.5.82a.5.5,0,0,0,.55-.4l1.17-3.11c.33-.41.63-.76,1-1.16Zm-8.47,4.44.11-.34c-1.47-.27-1.66-.27-1.07-1.88l.6-1.64h1.62c.73,0,.74.29.63,1.09h.42l1-2.66h-.42c-.36.63-.65,1.09-1.45,1.09h-1.6l.85-2.33c.27-.74.42-.9,1.42-.9h.71c1,0,1.14.28,1.14,1.32h.41l.35-1.81h-6.1l-.11.34c1.18.24,1.29.35.74,1.88l-1.33,3.62c-.55,1.52-.79,1.64-2.14,1.88l-.1.34Z" transform="translate(-35.09 -7.88)"></path>
    <path d="M71.24,189.55c.4,0,.76.31.57,1.09l-1.9.44c.33-.88.88-1.53,1.33-1.53m1.05,3.06h-.38a2.29,2.29,0,0,1-1.49,1c-.52,0-.79-.31-.79-1a4.5,4.5,0,0,1,.09-.84l3.06-1c.6-1.41-.12-2-1-2-1.45,0-3.09,2.42-3.09,4.54,0,.95.45,1.47,1.16,1.47s1.69-.81,2.4-2.13m-.61-4.44,2.15-2v-.23H72.67l-1.32,2.25Zm-6.61,1.41h1L64.47,194a.51.51,0,0,0,.44.75,3.76,3.76,0,0,0,2.92-2.14h-.29a4,4,0,0,1-1.86,1.12l1.48-4.14h1.51l.19-.63H67.39l.56-1.59h-.58L66.32,189l-1.25.18Zm-1.37-.21a.45.45,0,0,0-.37-.64A2.84,2.84,0,0,0,61,190.64h.29a2.23,2.23,0,0,1,1.22-.94l-1.69,4.4a.44.44,0,0,0,.37.64,2.79,2.79,0,0,0,2.24-1.91h-.29a2.23,2.23,0,0,1-1.22.94Zm.31-2.21a.73.73,0,1,0-.73-.73.73.73,0,0,0,.73.73m-5.88,6.61,3.08-8.08-.1-.12-1.93.22V186l.37.29c.35.26.24.52-.07,1.34L57.07,194a.5.5,0,0,0,.44.75,2.71,2.71,0,0,0,2.24-1.91h-.28a2.53,2.53,0,0,1-1.34.94M52.27,193c0-1.36,1.52-3.21,2.37-3.21a1.77,1.77,0,0,1,.52.07l-.89,2.35c-.51.62-1.29,1.37-1.66,1.37-.21,0-.34-.17-.34-.58m4.65-4.55-.46,0-.52.51h-.11c-2.52,0-4.7,2.83-4.7,4.88a.84.84,0,0,0,.91.91c.65,0,1.29-.93,2-1.92l0,.35c-.09,1,.22,1.57.75,1.57s1.18-1,1.61-1.91H56.1c-.3.43-.58.68-.8.68s-.4-.42,0-1.31Zm-11.25,7.34c0-.58.57-.95,1.37-1.27a11.61,11.61,0,0,0,1.2.46c.84.27,1.16.38,1.16.64,0,.54-.92,1-2.17,1-1,0-1.56-.22-1.56-.78M48,192.24c-.36,0-.51-.31-.51-.66,0-1,.53-2.43,1.36-2.43.37,0,.51.31.51.66,0,1-.53,2.43-1.36,2.43m2.4,3c0-.71-.63-1-1.66-1.27s-1.28-.34-1.28-.63a.92.92,0,0,1,.56-.71,2.57,2.57,0,0,0,2.39-2.47,1.48,1.48,0,0,0-.12-.61h1.23l.18-.63H49.72a1.54,1.54,0,0,0-.79-.22,2.57,2.57,0,0,0-2.53,2.44,1.42,1.42,0,0,0,1.17,1.47c-.71.32-1.11.7-1.11,1.14a.71.71,0,0,0,.3.6c-1.66.48-2.31,1-2.31,1.82s1,1.08,2.2,1.08c2,0,3.71-1.09,3.71-2m-7.73-4.73c.73,0,.74.3.63,1.1h.42l1-2.67h-.42c-.37.63-.66,1.1-1.45,1.1h-1.6l.8-2.23c.27-.74.42-.88,1.42-.88h.71c1,0,1.14.28,1.14,1.3h.41l.35-1.81h-6.1l-.11.34c1.18.25,1.29.36.74,1.88l-1.33,3.63c-.55,1.51-.79,1.63-2.14,1.88l-.1.34h6.78L45,192.6h-.47a4.42,4.42,0,0,1-3.1,1.42c-1.8,0-1.64-.07-1-1.72l.64-1.76Zm.89-4.63,2.15-1.48v-.23h-1.3l-1.19,1.71Z" transform="translate(-35.09 -7.88)"></path>
    <path d="M70.52,175.73c.41,0,.76.31.57,1.1l-1.9.44c.33-.89.89-1.54,1.33-1.54m1,3.06h-.38a2.25,2.25,0,0,1-1.49,1c-.52,0-.79-.31-.79-1A4.69,4.69,0,0,1,69,178l3.06-1c.6-1.42-.12-2-1-2-1.44,0-3.09,2.42-3.09,4.55,0,.95.45,1.47,1.16,1.47s1.69-.81,2.4-2.14M71,174.35l2.15-2v-.23H72l-1.32,2.24Zm-6.33,1.42h.8l-1.61,4.4a.52.52,0,0,0,.44.76,3.76,3.76,0,0,0,2.92-2.15h-.29A4,4,0,0,1,65,179.91l1.49-4.14H68l.19-.63H66.74l.56-1.6h-.58l-1,1.6-1,.17Zm-.8.49c.21-.72.1-1.35-.45-1.35s-.82.5-1.48,1.93V176c0-.59-.19-1.11-.72-1.11s-1.18,1-1.61,1.92h.28c.3-.43.58-.69.8-.69s.41.41,0,1.32l-1.2,2.65c-.22.5,0,.82.5.82.3,0,.43-.08.55-.4l1.18-3.11c.33-.41.63-.76,1-1.16Zm-6.78-.53c.4,0,.76.31.57,1.1l-1.9.44c.33-.89.88-1.54,1.33-1.54m1.05,3.06h-.38a2.27,2.27,0,0,1-1.49,1c-.52,0-.79-.31-.79-1a4.69,4.69,0,0,1,.09-.84l3.06-1c.6-1.42-.12-2-1-2-1.45,0-3.09,2.42-3.09,4.55,0,.95.45,1.47,1.16,1.47s1.69-.81,2.4-2.14M50.59,180c-.3,0-.73-.28-.73-.52a5.55,5.55,0,0,1,.3-.85l.5-1.31c.53-.63,1.33-1.31,1.79-1.31.27,0,.48.18.48.59,0,1.2-1.12,3.4-2.34,3.4m3.48-3.89c0-.89-.33-1.23-1-1.23s-1.5.82-2.23,1.82l1.85-4.86-.1-.12L50.7,172v.24l.38.28c.34.27.23.55-.08,1.34L49,179a6,6,0,0,0-.32.94c0,.53.72,1,1.37,1,1.5,0,4-2.71,4-4.79m-6-.58a.46.46,0,0,0-.36-.65,2.85,2.85,0,0,0-2.36,1.92h.29a2.21,2.21,0,0,1,1.23-.94l-1.69,4.4a.44.44,0,0,0,.36.64A2.79,2.79,0,0,0,47.77,179h-.28a2.24,2.24,0,0,1-1.23.94Zm.31-2.22a.73.73,0,0,0,.73-.72.73.73,0,0,0-1.46,0,.72.72,0,0,0,.73.72m-4.45-.7h-4l-.11.34c1.19.24,1.3.35.74,1.88l-1.3,3.62c-.55,1.52-.79,1.64-2.14,1.88l-.1.35H43.1l1.32-2.37H44c-.75.83-1.64,1.87-3,1.87-1,0-1.15-.18-.6-1.73l1.3-3.62c.54-1.52.79-1.64,2.15-1.88Z" transform="translate(-35.09 -7.88)"></path>
    <path class="cls-1" d="M59.69,25.53c.21-.21.43-.44.64-.67h0a12.79,12.79,0,0,1,1.26-1.29,3.71,3.71,0,0,1,.41-.33s0-.11.08-.15c-.19.07-.3.22-.49.3s-.08,0,0-.08L62,23h0s0,0,0-.07a1.53,1.53,0,0,0-1.21.56c-.08,0-.15,0-.19,0-.57.18-1,.68-1.55.9V24.3c-.23.07-.45.21-.68.26a3.84,3.84,0,0,1-.95,0,13.15,13.15,0,0,0-1.37.25h0a2.69,2.69,0,0,0-.71.28h0l-.06.07a1,1,0,0,1-.26.23,3.18,3.18,0,0,0-.62.49l-.06,0-.61.58a.23.23,0,0,1-.12,0h0l0,0,.09-.16.12-.17a1.88,1.88,0,0,1,.16-.23s0,0,0-.05l0,0a3.63,3.63,0,0,1,.64-.47h0s-.06,0-.05,0a.61.61,0,0,0,.07-.1v0l0,0a1.09,1.09,0,0,0-.17.13c-.1.08-.17.25-.3.24h-.06l0,0h0v0l0,0,0,0,0-.05,0,0a.35.35,0,0,0,0-.08l0,0a.16.16,0,0,1,0-.07.06.06,0,0,0,0-.07.7.7,0,0,1,.26-.22h0l.44-.25.06-.05a2.41,2.41,0,0,0-.6.3l-.06,0a.1.1,0,0,1-.1,0s0,0,0,0,.15-.12.23-.19.07,0,.07,0c1.22-.95,2.88-.72,4.28-1.21l.34-.23c.19-.08.34-.27.57-.38a1.65,1.65,0,0,0,.64-.87.14.14,0,0,0,0-.08,5.8,5.8,0,0,1-1.66,1.25,7.22,7.22,0,0,1-2.5.46c0-.08.11-.08.19-.08s.08-.15.15-.23h.12s0-.07.07-.07.19,0,.15,0-.34.11-.53,0c.08-.07,0-.19.12-.23h.15a.29.29,0,0,1,.07-.15c.57-.34,1.1-.6,1.63-.91-.11,0-.19.12-.3,0,.07,0,0-.11.07-.11.42-.11.76-.34,1.18-.49-.16,0-.27.11-.42,0,.07,0,.11-.12.23-.12v-.11s0,0,.07,0a.1.1,0,0,1-.07,0c0-.07.15,0,.22-.11s-.11,0-.11,0a.7.7,0,0,1,.49-.22c0-.08-.15,0-.15-.08s0,0,.08,0h-.08c-.08,0,0-.11,0-.15a2.45,2.45,0,0,0,.34-.91s-.07,0-.07,0a3.27,3.27,0,0,1-1.55.72h-.19a.82.82,0,0,1-.65,0,2.53,2.53,0,0,1-.37-.31,4.85,4.85,0,0,0-1-.45A8.77,8.77,0,0,0,52.89,19a6.45,6.45,0,0,1,1.32-.37,5.57,5.57,0,0,1,1.93-.38,1.21,1.21,0,0,0-.38,0,5.81,5.81,0,0,0-1.62.23c-.38.07-.72.22-1.1.3-.23.07-.34.3-.61.26v-.11a2.23,2.23,0,0,1,1.44-.95,7.15,7.15,0,0,1,2,.08,10.24,10.24,0,0,1,1.43.26c.19,0,.23.31.38.34s.46,0,.68.16c0-.08,0-.16,0-.23s.34,0,.49,0c.31-.19-.26-.53-.41-.79a.14.14,0,0,1,0-.08,4.37,4.37,0,0,0,.9.76c.19.07.65.19.57,0a6.16,6.16,0,0,0-.87-1.14v-.15C59,17.07,59,17,59,17v-.15c-.15-.08-.12-.23-.19-.34s0-.46-.12-.68a5.08,5.08,0,0,1-.15-.65c-.11-.64-.26-1.21-.34-1.81a3.57,3.57,0,0,1,.76-1.93A3.15,3.15,0,0,1,60,10.23,3.14,3.14,0,0,1,60.72,9a3.11,3.11,0,0,1,1.16-.76c.53-.23,1-.38,1-.38h-26v20H55.31a16.77,16.77,0,0,1,2.45-1.26A9.64,9.64,0,0,0,59.69,25.53Zm-5.82-2.71c-.07,0-.23,0-.19,0s.3-.18.46-.26.18-.11.26-.08.19.08.27.16C54.44,22.82,54.14,22.71,53.87,22.82ZM48.08,22a.16.16,0,0,1,0-.08A11.61,11.61,0,0,0,49.26,20a5.21,5.21,0,0,0,1.28-1.06,7.59,7.59,0,0,1,2.12-1.67,1.5,1.5,0,0,1,1,0c-.11.15-.3.11-.45.23a.12.12,0,0,1-.11,0,.17.17,0,0,0,0-.11c-.37.41-.9.6-1.21,1.09s-.37.87-.87,1c-.15,0,0-.12,0-.08A12.74,12.74,0,0,0,48.08,22Zm3.14-2.5c0,.08-.08.09-.11.16a.36.36,0,0,1-.15.15s-.08,0-.08,0a.46.46,0,0,1,.31-.34S51.22,19.46,51.22,19.49ZM53,25.16a.48.48,0,0,1-.09.11s.08,0,0,.06a.84.84,0,0,1-.29.2h-.06l-.14.13s-.25,0-.19-.05a3.45,3.45,0,0,0,.28-.26c.05-.05.11-.09.16-.15a.3.3,0,0,1,.08-.08S53,25.09,53,25.16Zm-.68-.31h0c-.14.09-.28.2-.43.28a4.66,4.66,0,0,1-.5.25h0a.06.06,0,0,0-.07,0,2.12,2.12,0,0,0-.38.29l0,.05h0l-.05.05h0l-.08.09s0,0-.05.05-.09,0-.08,0h0l-.07,0-.06,0H50.4l-.14.12a2.39,2.39,0,0,0-.22.23h0v0h0l0,0h0l0,0v0l0-.06h0v0l.12-.14h0l0-.05.07-.08,0,0,.12-.16h0l0,0a.22.22,0,0,1,0-.08s0-.05,0-.08h0v0a.2.2,0,0,0,0-.08h0v-.07h0s0,0,0-.05a0,0,0,0,0,0,0,1.49,1.49,0,0,1,.15-.2h0a.81.81,0,0,0-.14.12s-.12,0-.07-.06l.08-.08h0a1.8,1.8,0,0,1,.19-.2l.12-.08v0l.09-.1h0c.36-.35,1-.33,1.45-.56.19-.07.42,0,.61,0a.55.55,0,0,1,.34.08C52.93,24.45,52.61,24.65,52.3,24.85Zm.78-2.63s.11,0,.15-.08h-.3s0,0,0-.07c-.19,0-.42.11-.61.15s-.49.26-.79.34-.76.49-1.21.64c0,0,0,0,0-.07s.19-.16.26-.27,0-.08,0-.08a7.26,7.26,0,0,1,1.09-1v-.11c.12-.15.31-.23.38-.42a.72.72,0,0,1,.38-.34s-.11,0-.11-.11-.31.07-.46,0a.47.47,0,0,1,.24-.13.24.24,0,0,1-.09-.06c0-.07.08-.16.19-.19a1,1,0,0,0,.46-.15c-.27,0-.57.08-.83-.07A2,2,0,0,1,52.66,19s.11,0,.11,0a.37.37,0,0,1-.3.38,3.77,3.77,0,0,1,.91.22c0,.08-.11,0-.15,0,.19.11.41,0,.6.19-.11.11-.22,0-.34,0a10,10,0,0,1,3.41,1.36,10.5,10.5,0,0,1-2.61.8A.83.83,0,0,1,54,22s0,.11,0,.11a.6.6,0,0,0-.38.08C53.42,22.29,53.19,22.33,53.08,22.22Z" transform="translate(-35.09 -7.88)"></path>
    <path class="cls-2" d="M92,7.88H70.44a.67.67,0,0,1,.21.09l.54.29a1.77,1.77,0,0,1,.72.61.58.58,0,0,1,.12.49c-.08.19-.12.49-.31.57a1.4,1.4,0,0,1-.79.07,2.34,2.34,0,0,1-.45-.07A3.05,3.05,0,0,1,72,11c0,.07.19.11.34.11s0,.08,0,.11-.15.12-.12.23h.12c.19-.08.15-.45.41-.34a.43.43,0,0,1,.16.57c-.16.15-.31.26-.46.38a.3.3,0,0,0,0,.26,1.09,1.09,0,0,1,.19.45c.11.27.15.57.27.84a5.24,5.24,0,0,1,.26,1.7c0,.3-.15.57,0,.87a3.33,3.33,0,0,0,.42.79,5.43,5.43,0,0,1,.41.61c.23.38.65.75.46,1.21-.11.26-.53.22-.8.38s0,.49.08.68-.23.56-.49.68c.07.11.23.07.26.15s.23.3.12.49-.61.34-.38.68a1,1,0,0,1,0,.83.92.92,0,0,1-.68.57,1.47,1.47,0,0,1-.72,0,.49.49,0,0,0-.23-.08,18.05,18.05,0,0,0-1.92-.26,2.05,2.05,0,0,0-.53.15,3.07,3.07,0,0,0-.46.4h0l-.08.09,0,.06,0,0a4.15,4.15,0,0,0-.3.43v0l0,.06a3.38,3.38,0,0,0-.29.69,2.26,2.26,0,0,0,0,1.79c0,.05,1.24.42,2.08.79a7.21,7.21,0,0,1,.89.45H92Z" transform="translate(-35.09 -7.88)"></path>
    <path class="cls-3" d="M71.72,15.18c.16,0,.38,0,.38.11-.07.31-.53.38-.75.68h-.12c-.11.08-.07.27-.19.27a.51.51,0,0,0-.34,0,.64.64,0,0,0,.57.22s.11.08.11.15a.15.15,0,0,0,.08,0s.08,0,.08,0v.16c-.12.15-.31.07-.46.11a1.83,1.83,0,0,0,.87,0c.23-.08,0-.46.15-.64-.07,0,0-.12-.07-.12s.15-.19.22-.22a.27.27,0,0,0,.23-.12c0-.07-.15-.11-.11-.19.22-.15.41-.38.34-.6s-.34-.12-.53-.19a1.18,1.18,0,0,0-.64,0A3,3,0,0,0,71,15a2.27,2.27,0,0,0-.72.38,4.21,4.21,0,0,1,.83-.23A2.29,2.29,0,0,1,71.72,15.18Z" transform="translate(-35.09 -7.88)"></path>
</svg>
