<?xml version="1.0" encoding="UTF-8" standalone="no"?>
<!-- Created with Inkscape (http://www.inkscape.org/) -->

<svg
   version="1.1"
   id="svg18"
   width="497.45999"
   height="182.24933"
   viewBox="0 0 497.45999 182.24933"
   sodipodi:docname="logo-anct.svg"
   inkscape:version="1.2.1 (8a69933317, 2022-10-28, custom)"
   xmlns:inkscape="http://www.inkscape.org/namespaces/inkscape"
   xmlns:sodipodi="http://sodipodi.sourceforge.net/DTD/sodipodi-0.dtd"
   xmlns="http://www.w3.org/2000/svg"
   xmlns:svg="http://www.w3.org/2000/svg">
  <defs
     id="defs22" />
  <sodipodi:namedview
     id="namedview20"
     pagecolor="#ffffff"
     bordercolor="#666666"
     borderopacity="1.0"
     inkscape:showpageshadow="2"
     inkscape:pageopacity="0.0"
     inkscape:pagecheckerboard="0"
     inkscape:deskcolor="#d1d1d1"
     showgrid="false"
     inkscape:zoom="0.85758665"
     inkscape:cx="99.69838"
     inkscape:cy="159.75062"
     inkscape:window-width="1854"
     inkscape:window-height="1043"
     inkscape:window-x="2322"
     inkscape:window-y="0"
     inkscape:window-maximized="1"
     inkscape:current-layer="g26">
    <inkscape:page
       x="0"
       y="0"
       id="page24"
       width="497.45999"
       height="182.24933" />
  </sodipodi:namedview>
  <g
     id="g26"
     inkscape:groupmode="layer"
     inkscape:label="Page 1"
     transform="matrix(1.3333333,0,0,-1.3333333,-261.24933,598.77865)">
    <path
       d="m 98.9227,0 c 0.0058,0.003125 0.0109,0.00703125 0.0168,0.00898438 C 99.0004,0.0371094 99.0535,0.075 99.1035,0.117188 99.0953,0.117969 99.0895,0.119922 99.0836,0.121875 99.0285,0.0851563 98.9766,0.0441406 98.9227,0"
       style="fill:#2a3373;fill-opacity:1;fill-rule:nonzero;stroke:none;stroke-width:0.1"
       id="path34" />
    <g
       id="g546">
      <path
         d="m 227.813,393.291 c 5.622,0 9.995,2.677 12.673,6.961 v 7.765 l -12.138,-2.053 c -5.623,-0.982 -7.943,-3.391 -7.943,-6.783 0,-3.481 2.767,-5.89 7.408,-5.89 z m -16.69,5.533 c 0,6.783 5.266,11.692 14.815,13.298 l 14.548,2.41 v 2.32 c 0,5.533 -4.106,8.925 -9.907,8.925 -4.909,0 -8.746,-2.231 -11.334,-5.891 l -6.872,5.266 c 4.016,5.355 10.442,8.746 18.474,8.746 12.137,0 18.831,-7.14 18.831,-17.046 v -29.719 h -9.192 v 5.087 c -3.213,-3.927 -8.836,-6.425 -14.369,-6.425 -8.925,0 -14.994,5.087 -14.994,13.029"
         style="fill:#2b3e88;fill-opacity:1;fill-rule:nonzero;stroke:none;stroke-width:0.1"
         id="path36" />
      <path
         d="m 254.676,432.113 h 9.192 v -4.373 c 3.391,3.57 7.854,6.158 14.28,6.158 9.906,0 17.492,-6.693 17.492,-19.723 v -27.042 h -9.282 v 26.685 c 0,7.139 -3.927,11.423 -10.352,11.423 -6.158,0 -9.817,-3.837 -12.138,-7.764 v -30.344 h -9.192 v 44.98"
         style="fill:#2b3e88;fill-opacity:1;fill-rule:nonzero;stroke:none;stroke-width:0.1"
         id="path38" />
      <path
         d="m 248.329,342.801 7.405,-5.668 c -4.205,-5.667 -10.97,-9.324 -19.471,-9.324 -15.449,0 -25.14,11.427 -25.14,24.865 0,13.438 9.691,24.865 25.14,24.865 8.41,0 15.266,-3.657 19.471,-9.325 l -7.405,-5.667 c -2.559,3.565 -6.764,6.124 -12.066,6.124 -8.868,0 -15.267,-6.947 -15.267,-15.997 0,-9.142 6.399,-15.998 15.358,-15.998 5.211,0 9.416,2.56 11.975,6.125"
         style="fill:#2b3e88;fill-opacity:1;fill-rule:nonzero;stroke:none;stroke-width:0.1"
         id="path40" />
      <path
         d="m 270.263,366.275 h -9.986 v 8.299 h 9.986 v 11.246 h 9.282 v -11.246 h 16.095 v -8.299 h -16.095 v -21.063 c 0,-6.068 3.213,-8.032 8.21,-8.032 3.035,0 6.279,0.357 7.885,0.982 v -8.122 c -2.142,-0.892 -5.832,-1.338 -9.312,-1.338 -10.532,0 -16.065,5.533 -16.065,16.51 v 21.063"
         style="fill:#2b3e88;fill-opacity:1;fill-rule:nonzero;stroke:none;stroke-width:0.1"
         id="path42" />
      <path
         d="m 301.883,440.076 v -6.178 h 8.943 v 8.667 c 0,3.128 -2.781,6.317 -5.902,6.519 h -9.284 v -8.625 l 6.243,-0.383"
         style="fill:#2b3e88;fill-opacity:1;fill-rule:nonzero;stroke:none;stroke-width:0.1"
         id="path44" />
      <path
         d="m 301.883,321.405 v 6.178 h 8.943 v -8.667 c 0,-3.128 -2.781,-6.317 -5.902,-6.519 h -9.284 v 8.625 l 6.243,0.383"
         style="fill:#fbc707;fill-opacity:1;fill-rule:nonzero;stroke:none;stroke-width:0.1"
         id="path46" />
      <path
         d="m 204.88,321.405 v 6.178 h -8.943 v -8.667 c 0,-3.128 2.781,-6.317 5.902,-6.519 h 9.284 v 8.625 l -6.243,0.383"
         style="fill:#5c6abc;fill-opacity:1;fill-rule:nonzero;stroke:none;stroke-width:0.1"
         id="path48" />
      <path
         d="m 204.88,440.076 v -6.178 h -8.943 v 8.667 c 0,3.128 2.781,6.317 5.902,6.519 h 9.284 v -8.625 l -6.243,-0.383"
         style="fill:#298472;fill-opacity:1;fill-rule:nonzero;stroke:none;stroke-width:0.1"
         id="path50" />
      <path
         d="m 345.277,405.725 c 1.409,0 2.565,0.673 3.259,1.809 v 2.081 l -3.133,-0.526 c -1.451,-0.252 -2.102,-0.904 -2.102,-1.808 0,-0.904 0.736,-1.556 1.976,-1.556 z m -3.785,1.493 c 0,1.598 1.22,2.733 3.469,3.112 l 3.575,0.589 v 0.735 c 0,1.473 -1.051,2.314 -2.565,2.314 -1.22,0 -2.208,-0.568 -2.86,-1.472 l -1.346,1.03 c 0.926,1.262 2.418,2.04 4.269,2.04 2.692,0 4.29,-1.578 4.29,-3.912 v -7.106 h -1.788 v 1.345 c -0.799,-1.03 -2.187,-1.64 -3.553,-1.64 -2.082,0 -3.491,1.156 -3.491,2.965"
         style="fill:#2b3e88;fill-opacity:1;fill-rule:nonzero;stroke:none;stroke-width:0.1"
         id="path52" />
      <path
         d="m 363.674,411.823 c 0,1.304 -0.883,2.355 -2.417,2.355 -1.578,0 -2.439,-1.051 -2.439,-2.355 0,-1.304 0.861,-2.334 2.439,-2.334 1.534,0 2.417,1.051 2.417,2.334 z m -2.018,-11.039 c 2.229,0 3.638,0.883 3.638,2.271 0,1.009 -0.568,1.808 -2.461,1.808 h -3.427 c -0.736,-0.547 -1.177,-1.177 -1.177,-2.019 0,-1.282 1.324,-2.06 3.427,-2.06 z m -3.596,4.52 c -0.483,0.379 -0.735,0.947 -0.735,1.514 0,0.841 0.441,1.535 1.261,2.061 -0.925,0.694 -1.472,1.766 -1.472,2.944 0,2.04 1.598,3.763 4.121,3.763 0.779,0 1.472,-0.168 2.04,-0.441 h 3.932 v -1.556 h -2.292 c 0.295,-0.526 0.442,-1.135 0.442,-1.766 0,-2.019 -1.577,-3.743 -4.122,-3.743 -0.525,0 -1.03,0.084 -1.471,0.21 -0.442,-0.315 -0.694,-0.694 -0.694,-1.093 0,-0.442 0.231,-0.757 0.883,-0.757 h 3.028 c 2.796,0 4.1,-1.367 4.1,-3.26 0,-2.228 -2.229,-3.889 -5.404,-3.889 -3.133,0 -5.194,1.22 -5.194,3.343 0,1.073 0.526,1.934 1.577,2.67"
         style="fill:#2b3e88;fill-opacity:1;fill-rule:nonzero;stroke:none;stroke-width:0.1"
         id="path54" />
      <path
         d="m 373.767,411.192 h 6.35 c -0.063,1.556 -1.136,2.86 -3.007,2.86 -1.745,0 -2.965,-1.031 -3.343,-2.86 z m 3.827,-7.065 c -3.575,0 -5.782,2.628 -5.782,5.719 0,3.217 2.06,5.72 5.34,5.72 2.881,0 4.752,-2.019 4.752,-4.626 0,-0.421 -0.063,-0.82 -0.126,-1.115 h -8.137 c 0.063,-2.544 1.682,-4.079 3.953,-4.079 1.367,0 2.523,0.631 3.217,1.577 l 1.325,-1.03 c -0.989,-1.325 -2.566,-2.166 -4.542,-2.166"
         style="fill:#2b3e88;fill-opacity:1;fill-rule:nonzero;stroke:none;stroke-width:0.1"
         id="path56" />
      <path
         d="m 388.716,415.145 h 1.787 v -1.199 c 0.862,0.947 1.956,1.62 3.533,1.62 2.376,0 4.142,-1.598 4.142,-4.605 v -6.413 h -1.787 v 6.35 c 0,1.892 -1.072,2.985 -2.712,2.985 -1.536,0 -2.503,-0.883 -3.176,-1.997 v -7.338 h -1.787 v 10.597"
         style="fill:#2b3e88;fill-opacity:1;fill-rule:nonzero;stroke:none;stroke-width:0.1"
         id="path58" />
      <path
         d="m 413.464,407.365 1.408,-1.072 c -0.988,-1.325 -2.523,-2.166 -4.457,-2.166 -3.512,0 -5.762,2.628 -5.762,5.719 0,3.091 2.25,5.72 5.762,5.72 1.913,0 3.469,-0.862 4.457,-2.166 l -1.408,-1.072 c -0.652,0.925 -1.725,1.555 -3.049,1.555 -2.271,0 -3.89,-1.787 -3.89,-4.037 0,-2.271 1.619,-4.037 3.911,-4.037 1.303,0 2.376,0.631 3.028,1.556"
         style="fill:#2b3e88;fill-opacity:1;fill-rule:nonzero;stroke:none;stroke-width:0.1"
         id="path60" />
      <path
         d="m 421.747,411.192 h 6.35 c -0.063,1.556 -1.135,2.86 -3.006,2.86 -1.746,0 -2.965,-1.031 -3.344,-2.86 z m 3.827,-7.065 c -3.574,0 -5.782,2.628 -5.782,5.719 0,3.217 2.061,5.72 5.341,5.72 2.881,0 4.752,-2.019 4.752,-4.626 0,-0.421 -0.063,-0.82 -0.126,-1.115 h -8.138 c 0.064,-2.544 1.682,-4.079 3.953,-4.079 1.367,0 2.523,0.631 3.217,1.577 l 1.325,-1.03 c -0.988,-1.325 -2.565,-2.166 -4.542,-2.166"
         style="fill:#2b3e88;fill-opacity:1;fill-rule:nonzero;stroke:none;stroke-width:0.1"
         id="path62" />
      <path
         d="m 446.158,415.145 h 1.787 v -1.199 c 0.862,0.947 1.956,1.62 3.532,1.62 2.376,0 4.143,-1.598 4.143,-4.605 v -6.413 h -1.787 v 6.35 c 0,1.892 -1.073,2.985 -2.713,2.985 -1.535,0 -2.502,-0.883 -3.175,-1.997 v -7.338 h -1.787 v 10.597"
         style="fill:#2b3e88;fill-opacity:1;fill-rule:nonzero;stroke:none;stroke-width:0.1"
         id="path64" />
      <path
         d="m 466.174,405.725 c 1.409,0 2.565,0.673 3.259,1.809 v 2.081 l -3.133,-0.526 c -1.45,-0.252 -2.102,-0.904 -2.102,-1.808 0,-0.904 0.736,-1.556 1.976,-1.556 z m -3.785,1.493 c 0,1.598 1.22,2.733 3.47,3.112 l 3.574,0.589 v 0.735 c 0,1.473 -1.051,2.314 -2.565,2.314 -1.22,0 -2.208,-0.568 -2.86,-1.472 l -1.345,1.03 c 0.925,1.262 2.417,2.04 4.268,2.04 2.692,0 4.29,-1.578 4.29,-3.912 v -7.106 h -1.788 v 1.345 c -0.799,-1.03 -2.186,-1.64 -3.553,-1.64 -2.082,0 -3.491,1.156 -3.491,2.965"
         style="fill:#2b3e88;fill-opacity:1;fill-rule:nonzero;stroke:none;stroke-width:0.1"
         id="path66" />
      <path
         d="m 479.21,413.526 h -1.998 v 1.619 h 1.998 v 2.65 h 1.808 v -2.65 h 3.68 v -1.619 h -3.68 v -5.425 c 0,-1.661 0.841,-2.124 2.124,-2.124 0.694,0 1.177,0.084 1.577,0.253 v -1.598 c -0.505,-0.211 -1.073,-0.295 -1.83,-0.295 -2.355,0 -3.679,1.177 -3.679,3.764 v 5.425"
         style="fill:#2b3e88;fill-opacity:1;fill-rule:nonzero;stroke:none;stroke-width:0.1"
         id="path68" />
      <path
         d="m 491.215,415.145 h 1.788 v -10.597 h -1.788 z m -0.357,4.016 c 0,0.673 0.567,1.241 1.261,1.241 0.694,0 1.241,-0.568 1.241,-1.241 0,-0.694 -0.547,-1.261 -1.241,-1.261 -0.694,0 -1.261,0.567 -1.261,1.261"
         style="fill:#2b3e88;fill-opacity:1;fill-rule:nonzero;stroke:none;stroke-width:0.1"
         id="path70" />
      <path
         d="m 509.256,409.846 c 0,2.208 -1.619,4.037 -3.827,4.037 -2.271,0 -3.89,-1.829 -3.89,-4.037 0,-2.207 1.619,-4.037 3.89,-4.037 2.208,0 3.827,1.85 3.827,4.037 z m 1.892,0 c 0,-3.091 -2.333,-5.719 -5.74,-5.719 -3.428,0 -5.74,2.628 -5.74,5.719 0,3.091 2.312,5.72 5.74,5.72 3.407,0 5.74,-2.629 5.74,-5.72"
         style="fill:#2b3e88;fill-opacity:1;fill-rule:nonzero;stroke:none;stroke-width:0.1"
         id="path72" />
      <path
         d="m 517.813,415.145 h 1.788 v -1.199 c 0.862,0.947 1.955,1.62 3.532,1.62 2.376,0 4.142,-1.598 4.142,-4.605 v -6.413 h -1.787 v 6.35 c 0,1.892 -1.073,2.985 -2.713,2.985 -1.535,0 -2.502,-0.883 -3.174,-1.997 v -7.338 h -1.788 v 10.597"
         style="fill:#2b3e88;fill-opacity:1;fill-rule:nonzero;stroke:none;stroke-width:0.1"
         id="path74" />
      <path
         d="m 537.829,405.725 c 1.409,0 2.566,0.673 3.26,1.809 v 2.081 l -3.133,-0.526 c -1.451,-0.252 -2.103,-0.904 -2.103,-1.808 0,-0.904 0.736,-1.556 1.976,-1.556 z m -3.785,1.493 c 0,1.598 1.22,2.733 3.47,3.112 l 3.575,0.589 v 0.735 c 0,1.473 -1.052,2.314 -2.566,2.314 -1.219,0 -2.208,-0.568 -2.859,-1.472 l -1.346,1.03 c 0.925,1.262 2.418,2.04 4.269,2.04 2.691,0 4.289,-1.578 4.289,-3.912 v -7.106 h -1.787 v 1.345 c -0.799,-1.03 -2.187,-1.64 -3.554,-1.64 -2.081,0 -3.491,1.156 -3.491,2.965"
         style="fill:#2b3e88;fill-opacity:1;fill-rule:nonzero;stroke:none;stroke-width:0.1"
         id="path76" />
      <path
         d="m 550.255,420.318 h 1.788 v -15.77 h -1.788 v 15.77"
         style="fill:#2b3e88;fill-opacity:1;fill-rule:nonzero;stroke:none;stroke-width:0.1"
         id="path78" />
      <path
         d="m 560.663,411.192 h 6.351 c -0.064,1.556 -1.136,2.86 -3.008,2.86 -1.745,0 -2.964,-1.031 -3.343,-2.86 z m 3.827,-7.065 c -3.575,0 -5.782,2.628 -5.782,5.719 0,3.217 2.06,5.72 5.34,5.72 2.881,0 4.753,-2.019 4.753,-4.626 0,-0.421 -0.064,-0.82 -0.127,-1.115 h -8.137 c 0.063,-2.544 1.683,-4.079 3.953,-4.079 1.367,0 2.524,0.631 3.217,1.577 l 1.325,-1.03 c -0.989,-1.325 -2.565,-2.166 -4.542,-2.166"
         style="fill:#2b3e88;fill-opacity:1;fill-rule:nonzero;stroke:none;stroke-width:0.1"
         id="path80" />
      <path
         d="m 346.854,379.527 c 1.472,0 2.776,0.715 3.553,1.955 v 4.164 c -0.82,1.261 -2.102,1.955 -3.553,1.955 -2.25,0 -3.764,-1.787 -3.764,-4.037 0,-2.25 1.514,-4.037 3.764,-4.037 z m -0.21,9.757 c 1.576,0 2.817,-0.61 3.763,-1.683 v 6.435 h 1.788 v -15.77 h -1.788 v 1.261 c -0.946,-1.073 -2.187,-1.682 -3.763,-1.682 -3.323,0 -5.446,2.628 -5.446,5.719 0,3.091 2.123,5.72 5.446,5.72"
         style="fill:#2b3e88;fill-opacity:1;fill-rule:nonzero;stroke:none;stroke-width:0.1"
         id="path82" />
      <path
         d="m 360.794,384.91 h 6.35 c -0.063,1.556 -1.135,2.86 -3.007,2.86 -1.745,0 -2.965,-1.031 -3.343,-2.86 z m 3.827,-7.065 c -3.575,0 -5.783,2.628 -5.783,5.719 0,3.217 2.061,5.72 5.341,5.72 2.881,0 4.753,-2.02 4.753,-4.627 0,-0.42 -0.064,-0.819 -0.127,-1.114 h -8.137 c 0.063,-2.544 1.682,-4.079 3.953,-4.079 1.367,0 2.523,0.631 3.217,1.577 l 1.324,-1.03 c -0.988,-1.325 -2.565,-2.166 -4.541,-2.166"
         style="fill:#2b3e88;fill-opacity:1;fill-rule:nonzero;stroke:none;stroke-width:0.1"
         id="path84" />
      <path
         d="m 385.204,394.036 h 1.787 v -15.77 h -1.787 v 15.77"
         style="fill:#2b3e88;fill-opacity:1;fill-rule:nonzero;stroke:none;stroke-width:0.1"
         id="path86" />
      <path
         d="m 397.736,379.443 c 1.409,0 2.565,0.673 3.259,1.808 v 2.082 l -3.133,-0.526 c -1.451,-0.252 -2.103,-0.904 -2.103,-1.808 0,-0.904 0.736,-1.556 1.977,-1.556 z m -3.785,1.493 c 0,1.598 1.219,2.733 3.47,3.112 l 3.574,0.588 v 0.736 c 0,1.473 -1.051,2.314 -2.565,2.314 -1.22,0 -2.208,-0.568 -2.86,-1.473 l -1.346,1.031 c 0.925,1.261 2.418,2.04 4.269,2.04 2.691,0 4.289,-1.578 4.289,-3.912 v -7.106 h -1.787 v 1.345 c -0.799,-1.03 -2.187,-1.64 -3.554,-1.64 -2.081,0 -3.49,1.156 -3.49,2.965"
         style="fill:#2b3e88;fill-opacity:1;fill-rule:nonzero;stroke:none;stroke-width:0.1"
         id="path88" />
      <path
         d="m 427.529,381.083 1.409,-1.072 c -0.989,-1.325 -2.524,-2.166 -4.458,-2.166 -3.511,0 -5.761,2.628 -5.761,5.719 0,3.091 2.25,5.72 5.761,5.72 1.914,0 3.469,-0.863 4.458,-2.166 l -1.409,-1.073 c -0.652,0.926 -1.724,1.556 -3.049,1.556 -2.271,0 -3.89,-1.787 -3.89,-4.037 0,-2.271 1.619,-4.037 3.911,-4.037 1.304,0 2.376,0.631 3.028,1.556"
         style="fill:#2b3e88;fill-opacity:1;fill-rule:nonzero;stroke:none;stroke-width:0.1"
         id="path90" />
      <path
         d="m 443.446,383.564 c 0,2.208 -1.62,4.037 -3.827,4.037 -2.271,0 -3.89,-1.829 -3.89,-4.037 0,-2.207 1.619,-4.037 3.89,-4.037 2.207,0 3.827,1.85 3.827,4.037 z m 1.892,0 c 0,-3.091 -2.334,-5.719 -5.74,-5.719 -3.428,0 -5.74,2.628 -5.74,5.719 0,3.091 2.312,5.72 5.74,5.72 3.406,0 5.74,-2.629 5.74,-5.72"
         style="fill:#2b3e88;fill-opacity:1;fill-rule:nonzero;stroke:none;stroke-width:0.1"
         id="path92" />
      <path
         d="m 452.003,394.036 h 1.787 v -6.372 c 0.862,0.946 1.955,1.62 3.533,1.62 2.376,0 4.142,-1.598 4.142,-4.605 v -6.413 h -1.788 v 6.349 c 0,1.893 -1.051,2.986 -2.712,2.986 -1.556,0 -2.502,-0.904 -3.175,-1.997 v -7.338 h -1.787 v 15.77"
         style="fill:#2b3e88;fill-opacity:1;fill-rule:nonzero;stroke:none;stroke-width:0.1"
         id="path94" />
      <path
         d="m 472.482,390.545 2.186,3.491 h 2.019 l -2.46,-3.491 z m -2.587,-5.635 h 6.351 c -0.064,1.556 -1.136,2.86 -3.008,2.86 -1.745,0 -2.964,-1.031 -3.343,-2.86 z m 3.827,-7.065 c -3.575,0 -5.782,2.628 -5.782,5.719 0,3.217 2.06,5.72 5.341,5.72 2.88,0 4.752,-2.02 4.752,-4.627 0,-0.42 -0.063,-0.819 -0.126,-1.114 h -8.138 c 0.063,-2.544 1.683,-4.079 3.953,-4.079 1.367,0 2.524,0.631 3.218,1.577 l 1.324,-1.03 c -0.988,-1.325 -2.565,-2.166 -4.542,-2.166"
         style="fill:#2b3e88;fill-opacity:1;fill-rule:nonzero;stroke:none;stroke-width:0.1"
         id="path96" />
      <path
         d="m 484.887,380.789 c 0.736,-0.925 1.619,-1.451 2.691,-1.451 1.177,0 1.851,0.715 1.851,1.64 0,2.376 -5.299,1.535 -5.299,5.277 0,1.662 1.409,3.029 3.448,3.029 1.514,0 2.818,-0.716 3.554,-1.746 l -1.241,-1.051 c -0.567,0.799 -1.366,1.304 -2.292,1.304 -1.136,0 -1.745,-0.673 -1.745,-1.493 0,-2.377 5.32,-1.619 5.32,-5.236 -0.022,-1.977 -1.598,-3.217 -3.575,-3.217 -1.682,0 -3.007,0.673 -3.974,1.871 l 1.262,1.073"
         style="fill:#2b3e88;fill-opacity:1;fill-rule:nonzero;stroke:none;stroke-width:0.1"
         id="path98" />
      <path
         d="m 497.86,388.863 h 1.787 v -10.597 h -1.787 z m -0.358,4.016 c 0,0.673 0.568,1.241 1.262,1.241 0.694,0 1.24,-0.568 1.24,-1.241 0,-0.694 -0.546,-1.261 -1.24,-1.261 -0.694,0 -1.262,0.567 -1.262,1.261"
         style="fill:#2b3e88;fill-opacity:1;fill-rule:nonzero;stroke:none;stroke-width:0.1"
         id="path100" />
      <path
         d="m 515.9,383.564 c 0,2.208 -1.619,4.037 -3.827,4.037 -2.271,0 -3.89,-1.829 -3.89,-4.037 0,-2.207 1.619,-4.037 3.89,-4.037 2.208,0 3.827,1.85 3.827,4.037 z m 1.893,0 c 0,-3.091 -2.335,-5.719 -5.741,-5.719 -3.427,0 -5.74,2.628 -5.74,5.719 0,3.091 2.313,5.72 5.74,5.72 3.406,0 5.741,-2.629 5.741,-5.72"
         style="fill:#2b3e88;fill-opacity:1;fill-rule:nonzero;stroke:none;stroke-width:0.1"
         id="path102" />
      <path
         d="m 524.457,388.863 h 1.787 v -1.199 c 0.862,0.946 1.956,1.62 3.532,1.62 2.377,0 4.143,-1.598 4.143,-4.605 v -6.413 h -1.787 v 6.349 c 0,1.893 -1.073,2.986 -2.713,2.986 -1.535,0 -2.502,-0.883 -3.175,-1.997 v -7.338 h -1.787 v 10.597"
         style="fill:#2b3e88;fill-opacity:1;fill-rule:nonzero;stroke:none;stroke-width:0.1"
         id="path104" />
      <path
         d="m 346.854,353.245 c 1.472,0 2.776,0.714 3.553,1.955 v 4.164 c -0.82,1.261 -2.102,1.955 -3.553,1.955 -2.25,0 -3.764,-1.787 -3.764,-4.037 0,-2.25 1.514,-4.037 3.764,-4.037 z m -0.21,9.757 c 1.576,0 2.817,-0.611 3.763,-1.683 v 6.434 h 1.788 v -15.77 h -1.788 v 1.262 c -0.946,-1.073 -2.187,-1.682 -3.763,-1.682 -3.323,0 -5.446,2.628 -5.446,5.719 0,3.091 2.123,5.72 5.446,5.72"
         style="fill:#2b3e88;fill-opacity:1;fill-rule:nonzero;stroke:none;stroke-width:0.1"
         id="path106" />
      <path
         d="m 360.794,358.628 h 6.35 c -0.063,1.556 -1.135,2.859 -3.007,2.859 -1.745,0 -2.965,-1.03 -3.343,-2.859 z m 3.827,-7.065 c -3.575,0 -5.783,2.628 -5.783,5.719 0,3.217 2.061,5.72 5.341,5.72 2.881,0 4.753,-2.02 4.753,-4.627 0,-0.42 -0.064,-0.82 -0.127,-1.114 h -8.137 c 0.063,-2.545 1.682,-4.079 3.953,-4.079 1.367,0 2.523,0.63 3.217,1.577 l 1.324,-1.031 c -0.988,-1.324 -2.565,-2.165 -4.541,-2.165"
         style="fill:#2b3e88;fill-opacity:1;fill-rule:nonzero;stroke:none;stroke-width:0.1"
         id="path108" />
      <path
         d="m 375.785,354.506 c 0.736,-0.925 1.619,-1.451 2.691,-1.451 1.178,0 1.85,0.715 1.85,1.641 0,2.375 -5.298,1.534 -5.298,5.277 0,1.661 1.408,3.029 3.448,3.029 1.514,0 2.818,-0.716 3.554,-1.746 l -1.241,-1.052 c -0.568,0.799 -1.367,1.304 -2.291,1.304 -1.136,0 -1.746,-0.673 -1.746,-1.492 0,-2.377 5.32,-1.62 5.32,-5.236 -0.021,-1.977 -1.598,-3.217 -3.574,-3.217 -1.683,0 -3.008,0.673 -3.975,1.871 l 1.262,1.072"
         style="fill:#2b3e88;fill-opacity:1;fill-rule:nonzero;stroke:none;stroke-width:0.1"
         id="path110" />
      <path
         d="m 398.829,360.962 h -1.998 v 1.618 h 1.998 v 2.65 h 1.808 v -2.65 h 3.68 v -1.618 h -3.68 v -5.425 c 0,-1.662 0.841,-2.124 2.124,-2.124 0.694,0 1.177,0.084 1.576,0.252 v -1.598 c -0.504,-0.21 -1.072,-0.294 -1.829,-0.294 -2.354,0 -3.679,1.177 -3.679,3.764 v 5.425"
         style="fill:#2b3e88;fill-opacity:1;fill-rule:nonzero;stroke:none;stroke-width:0.1"
         id="path112" />
      <path
         d="m 411.676,358.628 h 6.349 c -0.062,1.556 -1.135,2.859 -3.006,2.859 -1.745,0 -2.965,-1.03 -3.343,-2.859 z m 3.827,-7.065 c -3.575,0 -5.783,2.628 -5.783,5.719 0,3.217 2.061,5.72 5.341,5.72 2.881,0 4.752,-2.02 4.752,-4.627 0,-0.42 -0.063,-0.82 -0.126,-1.114 h -8.138 c 0.064,-2.545 1.682,-4.079 3.954,-4.079 1.366,0 2.522,0.63 3.216,1.577 l 1.325,-1.031 c -0.988,-1.324 -2.565,-2.165 -4.541,-2.165"
         style="fill:#2b3e88;fill-opacity:1;fill-rule:nonzero;stroke:none;stroke-width:0.1"
         id="path114" />
      <path
         d="m 426.625,362.58 h 1.787 v -1.324 c 0.778,0.925 1.745,1.535 3.091,1.535 0.336,0 0.652,-0.043 0.904,-0.126 v -1.745 c -0.315,0.083 -0.631,0.125 -1.051,0.125 -1.388,0 -2.292,-0.714 -2.944,-1.787 v -7.275 h -1.787 v 10.597"
         style="fill:#2b3e88;fill-opacity:1;fill-rule:nonzero;stroke:none;stroke-width:0.1"
         id="path116" />
      <path
         d="m 438.756,362.58 h 1.787 v -1.324 c 0.779,0.925 1.746,1.535 3.091,1.535 0.337,0 0.652,-0.043 0.905,-0.126 v -1.745 c -0.316,0.083 -0.631,0.125 -1.052,0.125 -1.388,0 -2.292,-0.714 -2.944,-1.787 v -7.275 h -1.787 v 10.597"
         style="fill:#2b3e88;fill-opacity:1;fill-rule:nonzero;stroke:none;stroke-width:0.1"
         id="path118" />
      <path
         d="m 450.888,362.58 h 1.787 v -10.597 h -1.787 z m -0.358,4.017 c 0,0.673 0.568,1.24 1.262,1.24 0.694,0 1.24,-0.567 1.24,-1.24 0,-0.694 -0.546,-1.261 -1.24,-1.261 -0.694,0 -1.262,0.567 -1.262,1.261"
         style="fill:#2b3e88;fill-opacity:1;fill-rule:nonzero;stroke:none;stroke-width:0.1"
         id="path120" />
      <path
         d="m 460.854,360.962 h -1.998 v 1.618 h 1.998 v 2.65 h 1.809 v -2.65 h 3.679 v -1.618 h -3.679 v -5.425 c 0,-1.662 0.841,-2.124 2.123,-2.124 0.694,0 1.178,0.084 1.577,0.252 v -1.598 c -0.504,-0.21 -1.072,-0.294 -1.829,-0.294 -2.355,0 -3.68,1.177 -3.68,3.764 v 5.425"
         style="fill:#2b3e88;fill-opacity:1;fill-rule:nonzero;stroke:none;stroke-width:0.1"
         id="path122" />
      <path
         d="m 481.333,357.282 c 0,2.207 -1.618,4.037 -3.826,4.037 -2.271,0 -3.89,-1.83 -3.89,-4.037 0,-2.208 1.619,-4.037 3.89,-4.037 2.208,0 3.826,1.85 3.826,4.037 z m 1.893,0 c 0,-3.091 -2.334,-5.719 -5.74,-5.719 -3.428,0 -5.741,2.628 -5.741,5.719 0,3.091 2.313,5.72 5.741,5.72 3.406,0 5.74,-2.629 5.74,-5.72"
         style="fill:#2b3e88;fill-opacity:1;fill-rule:nonzero;stroke:none;stroke-width:0.1"
         id="path124" />
      <path
         d="m 489.89,362.58 h 1.788 v -10.597 h -1.788 z m -0.357,4.017 c 0,0.673 0.567,1.24 1.261,1.24 0.694,0 1.241,-0.567 1.241,-1.24 0,-0.694 -0.547,-1.261 -1.241,-1.261 -0.694,0 -1.261,0.567 -1.261,1.261"
         style="fill:#2b3e88;fill-opacity:1;fill-rule:nonzero;stroke:none;stroke-width:0.1"
         id="path126" />
      <path
         d="m 499.247,362.58 h 1.787 v -1.324 c 0.778,0.925 1.745,1.535 3.091,1.535 0.337,0 0.652,-0.043 0.904,-0.126 v -1.745 c -0.315,0.083 -0.63,0.125 -1.051,0.125 -1.388,0 -2.292,-0.714 -2.944,-1.787 v -7.275 h -1.787 v 10.597"
         style="fill:#2b3e88;fill-opacity:1;fill-rule:nonzero;stroke:none;stroke-width:0.1"
         id="path128" />
      <path
         d="m 511.799,358.628 h 6.35 c -0.063,1.556 -1.135,2.859 -3.006,2.859 -1.746,0 -2.966,-1.03 -3.344,-2.859 z m 3.827,-7.065 c -3.574,0 -5.782,2.628 -5.782,5.719 0,3.217 2.06,5.72 5.341,5.72 2.881,0 4.752,-2.02 4.752,-4.627 0,-0.42 -0.063,-0.82 -0.126,-1.114 h -8.138 c 0.063,-2.545 1.682,-4.079 3.953,-4.079 1.367,0 2.523,0.63 3.217,1.577 l 1.325,-1.031 c -0.988,-1.324 -2.565,-2.165 -4.542,-2.165"
         style="fill:#2b3e88;fill-opacity:1;fill-rule:nonzero;stroke:none;stroke-width:0.1"
         id="path130" />
      <path
         d="m 526.79,354.506 c 0.736,-0.925 1.62,-1.451 2.692,-1.451 1.178,0 1.85,0.715 1.85,1.641 0,2.375 -5.298,1.534 -5.298,5.277 0,1.661 1.408,3.029 3.448,3.029 1.514,0 2.818,-0.716 3.554,-1.746 l -1.241,-1.052 c -0.568,0.799 -1.367,1.304 -2.292,1.304 -1.135,0 -1.745,-0.673 -1.745,-1.492 0,-2.377 5.319,-1.62 5.319,-5.236 -0.02,-1.977 -1.598,-3.217 -3.574,-3.217 -1.682,0 -3.007,0.673 -3.974,1.871 l 1.261,1.072"
         style="fill:#2b3e88;fill-opacity:1;fill-rule:nonzero;stroke:none;stroke-width:0.1"
         id="path132" />
    </g>
  </g>
</svg>
