<?xml version="1.0" encoding="UTF-8" standalone="no"?>
<!-- Generator: Adobe Illustrator 24.0.2, SVG Export Plug-In . SVG Version: 6.00 Build 0)  -->

<svg
   xmlns:dc="http://purl.org/dc/elements/1.1/"
   xmlns:cc="http://creativecommons.org/ns#"
   xmlns:rdf="http://www.w3.org/1999/02/22-rdf-syntax-ns#"
   xmlns:svg="http://www.w3.org/2000/svg"
   xmlns="http://www.w3.org/2000/svg"
   xmlns:xlink="http://www.w3.org/1999/xlink"
   xmlns:sodipodi="http://sodipodi.sourceforge.net/DTD/sodipodi-0.dtd"
   xmlns:inkscape="http://www.inkscape.org/namespaces/inkscape"
   version="1.1"
   id="Calque_1"
   x="0px"
   y="0px"
   viewBox="0 0 352.99999 120"
   xml:space="preserve"
   sodipodi:docname="logo_AT_titre.svg"
   inkscape:version="0.92.5 (2060ec1f9f, 2020-04-08)"
   width="353"
   height="120"><metadata
   id="metadata92"><rdf:RDF><cc:Work
       rdf:about=""><dc:format>image/svg+xml</dc:format><dc:type
         rdf:resource="http://purl.org/dc/dcmitype/StillImage" /><dc:title></dc:title></cc:Work></rdf:RDF></metadata><defs
   id="defs90">
	
	
	
	
	
	
	
	
	
	
	
	
	
	
	
	
	
	
	
	

	
	
	
	
	
	
	
	
</defs><sodipodi:namedview
   pagecolor="#ffffff"
   bordercolor="#666666"
   borderopacity="1"
   objecttolerance="10"
   gridtolerance="10"
   guidetolerance="10"
   inkscape:pageopacity="0"
   inkscape:pageshadow="2"
   inkscape:window-width="2560"
   inkscape:window-height="1376"
   id="namedview88"
   showgrid="false"
   inkscape:zoom="1.4896425"
   inkscape:cx="111.59199"
   inkscape:cy="-82.505515"
   inkscape:window-x="0"
   inkscape:window-y="27"
   inkscape:window-maximized="1"
   inkscape:current-layer="Calque_1"
   showguides="true"
   inkscape:guide-bbox="true"><sodipodi:guide
     position="214.08167,72.863718"
     orientation="0,1"
     id="guide842"
     inkscape:locked="false" /><sodipodi:guide
     position="164.30117,17.621678"
     orientation="0,1"
     id="guide873"
     inkscape:locked="false" /></sodipodi:namedview>
<style
   type="text/css"
   id="style2">
	.st0{fill:none;stroke:#3A3188;stroke-width:3.5;stroke-linecap:round;stroke-linejoin:round;stroke-miterlimit:10;}
	.st1{fill:none;stroke:#3A3188;stroke-width:2.5;stroke-linecap:round;stroke-linejoin:round;stroke-miterlimit:10;}
	.st2{fill:#3A3286;}
	.st3{fill:url(#SVGID_1_);}
	.st4{fill:none;stroke:#3A3188;stroke-width:2.213;stroke-miterlimit:10;}
	.st5{fill:none;stroke:#3A3188;stroke-width:5;stroke-linecap:round;stroke-linejoin:round;stroke-miterlimit:10;}
	.st6{fill:none;stroke:#3A3188;stroke-width:3;stroke-linecap:round;stroke-linejoin:round;stroke-miterlimit:10;}
	.st7{fill:#3A3188;}
	.st8{clip-path:url(#SVGID_3_);fill:url(#SVGID_4_);}
	.st9{clip-path:url(#SVGID_6_);fill:url(#SVGID_7_);}
	.st10{fill:#DB1C83;}
	.st11{fill:#59BBAB;}
	.st12{fill:#DA1F83;}
	.st13{fill:none;stroke:#3A3188;stroke-width:1.54;stroke-linecap:round;stroke-linejoin:round;stroke-miterlimit:10;}
	.st14{fill:none;stroke:#3A3188;stroke-width:2.2;stroke-linecap:round;stroke-linejoin:round;stroke-miterlimit:10;}
	.st15{fill:none;stroke:#3A3188;stroke-width:1.32;stroke-linecap:round;stroke-linejoin:round;stroke-miterlimit:10;}
	.st16{fill:none;stroke:#3A3188;stroke-width:1.1;stroke-linecap:round;stroke-linejoin:round;stroke-miterlimit:10;}
	.st17{clip-path:url(#SVGID_9_);fill:url(#SVGID_10_);}
	.st18{fill:none;stroke:#000000;stroke-width:1.54;stroke-linecap:round;stroke-linejoin:round;stroke-miterlimit:10;}
	.st19{fill:none;stroke:#000000;stroke-width:2.2;stroke-linecap:round;stroke-linejoin:round;stroke-miterlimit:10;}
	.st20{fill:none;stroke:#000000;stroke-width:1.32;stroke-linecap:round;stroke-linejoin:round;stroke-miterlimit:10;}
	.st21{fill:none;stroke:#000000;stroke-width:1.1;stroke-linecap:round;stroke-linejoin:round;stroke-miterlimit:10;}
	.st22{fill:#FFFFFF;}
	.st23{fill:none;stroke:#3A3188;stroke-width:0.9015;stroke-linecap:round;stroke-linejoin:round;stroke-miterlimit:10;}
	.st24{fill:none;stroke:#3A3188;stroke-width:1.2878;stroke-linecap:round;stroke-linejoin:round;stroke-miterlimit:10;}
	.st25{fill:none;stroke:#3A3188;stroke-width:0.7727;stroke-linecap:round;stroke-linejoin:round;stroke-miterlimit:10;}
	.st26{fill:none;stroke:#3A3188;stroke-width:0.6439;stroke-linecap:round;stroke-linejoin:round;stroke-miterlimit:10;}
	.st27{clip-path:url(#SVGID_12_);fill:url(#SVGID_13_);}
	.st28{fill:none;stroke:#FFFFFF;stroke-width:0.9015;stroke-linecap:round;stroke-linejoin:round;stroke-miterlimit:10;}
	.st29{fill:none;stroke:#FFFFFF;stroke-width:1.2878;stroke-linecap:round;stroke-linejoin:round;stroke-miterlimit:10;}
	.st30{fill:none;stroke:#FFFFFF;stroke-width:0.7727;stroke-linecap:round;stroke-linejoin:round;stroke-miterlimit:10;}
	.st31{fill:none;stroke:#FFFFFF;stroke-width:0.6439;stroke-linecap:round;stroke-linejoin:round;stroke-miterlimit:10;}
	.st32{clip-path:url(#SVGID_15_);fill:#FFFFFF;}
</style>


<g
   id="g904"
   transform="translate(0,-92.300003)"><path
     class="st7"
     d="M 16.957136,94.052242 0.73480915,139.49737 H 10.00471 l 3.560999,-10.11776 h 16.052755 l 3.504475,10.11776 h 9.382948 L 26.792275,94.052242 Z m -0.734809,27.640128 5.369759,-15.26142 5.256713,15.26142 z"
     id="path14"
     inkscape:connector-curvature="0"
     style="fill:#3a3188;stroke-width:0.56523788" /><rect
     x="47.7626"
     y="93.769623"
     class="st7"
     width="8.9307585"
     height="45.727745"
     id="rect16"
     style="fill:#3a3188;stroke-width:0.56523788" /><path
     class="st7"
     d="M 83.937824,94.052242 H 67.772019 v 45.445128 h 16.165805 c 14.583137,0 21.139896,-7.00895 21.139896,-22.72257 -0.0565,-15.71361 -6.556759,-22.722558 -21.139896,-22.722558 M 83.655202,131.58404 H 76.702779 V 102.0221 h 6.952423 c 8.874235,0 12.152613,4.01318 12.152613,14.80923 0.05653,10.73952 -3.278378,14.75271 -12.152613,14.75271"
     id="path18"
     inkscape:connector-curvature="0"
     style="fill:#3a3188;stroke-width:0.56523788" /><path
     class="st7"
     d="m 179.01083,112.2529 c -6.50024,-1.52614 -9.55252,-2.60009 -9.55252,-5.59585 0,-3.95667 1.30005,-6.10457 8.19595,-6.10457 6.21762,0 8.42205,1.92181 8.42205,7.29157 v 1.86528 h 8.47856 v -1.86528 c 0,-10.23081 -5.36976,-14.978808 -16.90061,-14.978808 -11.53085,0 -16.95714,4.63495 -16.95714,14.583138 0,9.38295 8.5351,11.36128 15.431,13.00047 6.38719,1.52614 10.28733,2.71314 10.28733,6.50023 0,3.95667 -1.4131,6.10457 -8.76119,6.10457 -6.72633,0 -8.98728,-1.80876 -8.98728,-7.29156 v -1.86529 h -8.5351 v 1.86529 c 0,10.34385 5.42629,14.9788 17.52238,14.9788 12.09609,0 17.46585,-4.46538 17.46585,-14.58314 0.0565,-10.11776 -8.93076,-12.20914 -16.10928,-13.90485"
     id="path20"
     inkscape:connector-curvature="0"
     style="fill:#3a3188;stroke-width:0.56523788" /><path
     class="st7"
     d="m 132.03956,92.300004 c -14.52661,0 -20.97032,7.46114 -20.97032,24.192176 0,16.73105 6.44371,24.19219 20.97032,24.19219 9.15686,0 14.75271,-3.27838 17.74847,-10.23081 l 1.30005,-3.05228 h -9.21338 l -0.62176,1.13047 c -1.75224,3.10881 -4.40886,4.40886 -9.2699,4.40886 -7.34809,0 -10.85257,-3.10881 -11.86999,-10.683 h 32.84031 v -4.46538 c 0.0565,-17.63542 -6.38718,-25.492226 -20.9138,-25.492226 m -12.15261,22.383416 c 0.33914,-10.40037 3.78709,-14.47009 12.15261,-14.47009 h 0.16957 l 0.39567,-0.0565 c 7.91333,0.16957 11.19171,4.29581 11.58738,14.52661 z"
     id="path22"
     inkscape:connector-curvature="0"
     style="fill:#3a3188;stroke-width:0.56523788" /><path
     class="st7"
     d="m 101.12106,169.05931 c 0,-7.96986 -4.465385,-12.03957 -13.226574,-12.03957 H 71.672161 v 37.75789 h 5.708901 v -13.96138 h 10.400379 l 7.574187,13.90485 h 6.217612 l -8.139423,-14.63966 c 5.200189,-1.35657 7.687243,-4.97409 7.687243,-11.02213 m -13.45267,7.122 H 77.381062 V 161.88079 H 87.66839 c 5.36976,0 7.687238,2.1479 7.687238,7.17852 0.05652,4.91756 -2.317478,7.122 -7.687238,7.122"
     id="path24"
     inkscape:connector-curvature="0"
     style="fill:#3a3188;stroke-width:0.56523788" /><path
     class="st7"
     d="m 138.08761,169.05931 c 0,-7.96986 -4.46538,-12.03957 -13.22657,-12.03957 h -16.22232 v 37.75789 h 5.7089 v -13.96138 h 10.4569 l 7.57418,13.90485 h 6.21762 l -8.13942,-14.58313 c 5.14366,-1.4131 7.63071,-5.03062 7.63071,-11.07866 m -13.39614,7.122 h -10.28733 v -14.30052 h 10.28733 c 5.36976,0 7.68723,2.1479 7.68723,7.17852 0,4.91756 -2.37399,7.122 -7.68723,7.122"
     id="path26"
     inkscape:connector-curvature="0"
     style="fill:#3a3188;stroke-width:0.56523788" /><rect
     x="145.66179"
     y="157.01973"
     class="st7"
     width="5.7089024"
     height="37.757893"
     id="rect28"
     style="fill:#3a3188;stroke-width:0.56523788" /><polygon
     transform="matrix(0.56523786,0,0,0.56523786,-19.896373,-27.134757)"
     class="st7"
     points="342.7,334.8 363,334.8 363,325.8 312.4,325.8 312.4,334.8 332.6,334.8 332.6,392.6 342.7,392.6 "
     id="polygon30"
     style="fill:#3a3188" /><polygon
     transform="matrix(0.56523786,0,0,0.56523786,-19.896373,-27.134757)"
     class="st7"
     points="65.5,334.8 85.8,334.8 85.8,325.8 35.2,325.8 35.2,334.8 55.4,334.8 55.4,392.6 65.5,392.6 "
     id="polygon32"
     style="fill:#3a3188" /><rect
     x="236.89117"
     y="157.01973"
     class="st7"
     width="5.7089024"
     height="37.757893"
     id="rect34"
     style="fill:#3a3188;stroke-width:0.56523788" /><path
     class="st7"
     d="m 279.73622,169.05931 c 0,-7.96986 -4.46538,-12.03957 -13.22657,-12.03957 h -16.22233 v 37.75789 h 5.70891 v -13.96138 h 10.40037 l 7.57419,13.90485 h 6.21762 l -8.13943,-14.63966 c 5.20019,-1.35657 7.68724,-4.97409 7.68724,-11.02213 m -13.39614,7.122 h -10.28733 v -14.30052 h 10.28733 c 5.36976,0 7.68724,2.1479 7.68724,7.17852 0,4.91756 -2.37401,7.122 -7.68724,7.122"
     id="path36"
     inkscape:connector-curvature="0"
     style="fill:#3a3188;stroke-width:0.56523788" /><path
     class="st7"
     d="m 301.83702,155.66317 c -12.15262,0 -17.3528,6.04804 -17.3528,20.17899 0,14.13095 5.20018,20.17899 17.3528,20.17899 7.63071,0 12.15261,-2.54357 14.58313,-8.309 l 0.50872,-1.18699 h -5.82195 l -0.2261,0.45219 c -1.69571,3.05228 -4.40885,4.40885 -9.0438,4.40885 -7.46114,0 -10.85257,-3.3349 -11.58738,-11.47433 h 28.94018 v -2.88271 c 0,-14.9788 -5.20019,-21.36599 -17.3528,-21.36599 m -11.75695,19.61375 c 0.11305,-10.62647 3.44795,-14.80923 11.75695,-14.80923 l 0.33914,-0.0565 c 7.85681,0.11304 11.19171,4.46538 11.36128,14.86575 z"
     id="path38"
     inkscape:connector-curvature="0"
     style="fill:#3a3188;stroke-width:0.56523788" /><path
     class="st7"
     d="m 47.593028,155.66317 c -12.152614,0 -17.352803,6.04804 -17.352803,20.17899 0,14.13095 5.200189,20.17899 17.352803,20.17899 7.630711,0 12.152616,-2.54357 14.583134,-8.309 l 0.508718,-1.18699 h -5.821952 l -0.226097,0.45219 c -1.695709,3.05228 -4.408853,4.40885 -9.043803,4.40885 -7.46114,0 -10.852567,-3.3349 -11.587376,-11.47433 h 28.940176 v -2.88271 c 0,-14.9788 -5.200184,-21.36599 -17.3528,-21.36599 m -11.700424,19.61375 c 0.113048,-10.62647 3.447951,-14.80923 11.756947,-14.80923 l 0.339143,-0.0565 c 7.856808,0.11304 11.191712,4.46538 11.361283,14.86575 z"
     id="path40"
     inkscape:connector-curvature="0"
     style="fill:#3a3188;stroke-width:0.56523788" /><path
     class="st7"
     d="m 339.42533,172.95945 c -5.03061,-1.187 -9.38295,-2.20443 -9.38295,-6.04805 0,-4.748 2.26096,-6.50023 8.42205,-6.50023 6.16109,0 8.59161,2.1479 8.59161,7.57418 v 0.56524 h 5.36976 v -0.56524 c 0,-8.47856 -4.2958,-12.26566 -13.96137,-12.26566 -9.72209,0 -14.0179,3.67405 -14.0179,11.87 0,7.51766 6.83938,9.10033 12.88743,10.56995 5.36976,1.24352 10.00471,2.37399 10.00471,6.83937 0,4.69148 -2.48705,6.50024 -8.87424,6.50024 -6.55676,0 -9.10033,-2.14791 -9.10033,-7.57419 v -0.56523 h -5.42628 v 0.56523 c 0,8.47857 4.46538,12.26566 14.52661,12.26566 10.00471,0 14.47009,-3.67404 14.47009,-11.86999 0.0565,-8.19595 -7.17852,-9.89166 -13.50919,-11.36128"
     id="path42"
     inkscape:connector-curvature="0"
     style="fill:#3a3188;stroke-width:0.56523788" /><g
     transform="matrix(0.56523786,0,0,0.56523786,-19.896373,-27.134757)"
     id="g67">
	<defs
   id="defs47">
		<rect
   height="9"
   width="93.699997"
   y="414.60001"
   x="361.29999"
   id="SVGID_5_" />
	</defs>
	<clipPath
   id="SVGID_1_">
		<use
   id="use49"
   style="overflow:visible"
   xlink:href="#SVGID_5_"
   x="0"
   y="0"
   width="100%"
   height="100%" />
	</clipPath>
	
		<linearGradient
   gradientTransform="matrix(93.6592,0,0,-93.6592,-125051.64,100897.79)"
   y2="1072.8119"
   x2="1340.0353"
   y1="1072.8119"
   x1="1339.0353"
   gradientUnits="userSpaceOnUse"
   id="SVGID_3_">
		<stop
   id="stop52"
   style="stop-color:#4FB8A3"
   offset="0" />
		<stop
   id="stop54"
   style="stop-color:#4BB7A6"
   offset="0.244" />
		<stop
   id="stop56"
   style="stop-color:#40B6AD"
   offset="0.4691" />
		<stop
   id="stop58"
   style="stop-color:#2DB3BA"
   offset="0.6867" />
		<stop
   id="stop60"
   style="stop-color:#13AECC"
   offset="0.8985" />
		<stop
   id="stop62"
   style="stop-color:#04ACD7"
   offset="1" />
	</linearGradient>
	<rect
   id="rect65"
   clip-path="url(#SVGID_1_)"
   height="9"
   width="93.699997"
   style="fill:url(#SVGID_3_)"
   y="414.60001"
   x="361.29999" />
</g><path
     class="st10"
     d="m 210.38153,142.26703 c -12.49175,0 -22.60952,10.00471 -22.60952,22.27038 0,2.26094 0.33915,4.46537 0.96091,6.50023 0,0 0.28262,0.90438 0.45219,1.30004 0.50872,1.30005 1.13048,2.6001 1.86529,3.7871 8.0829,15.60056 19.38766,27.75318 19.38766,27.75318 6.55675,-6.21762 14.01789,-17.46585 18.14413,-24.98351 2.1479,-4.23929 4.35233,-9.21338 4.35233,-14.30052 0.0565,-12.32219 -10.06123,-22.3269 -22.55299,-22.3269 m 0.11305,36.45784 c -7.96985,0 -14.41357,-6.44371 -14.41357,-14.41356 0,-7.96986 6.44372,-14.41357 14.41357,-14.41357 7.96985,0 14.41356,6.44371 14.41356,14.41357 0,7.96985 -6.44371,14.41356 -14.41356,14.41356"
     id="path69"
     inkscape:connector-curvature="0"
     style="fill:#db1c83;stroke-width:0.56523788" /></g>
</svg>