<svg xmlns="http://www.w3.org/2000/svg" xmlns:xlink="http://www.w3.org/1999/xlink" version="1.1" id="Calque_1" x="0" y="0" xml:space="preserve" width="353" height="120"><style type="text/css" id="style2">.st7{fill:#3a3188}</style><g id="g904" transform="translate(0 -92.3)"><path class="st7" d="M16.957 94.052L.735 139.497h9.27l3.56-10.117h16.053l3.505 10.117h9.383L26.792 94.052zm-.735 27.64l5.37-15.261 5.257 15.261z" id="path14" fill="#3a3188" stroke-width=".565"/><path class="st7" id="rect16" fill="#3a3188" stroke-width=".565" d="M47.763 93.77h8.931v45.728h-8.931z"/><path class="st7" d="M83.938 94.052H67.772v45.445h16.166c14.583 0 21.14-7.009 21.14-22.722-.057-15.714-6.557-22.723-21.14-22.723m-.283 37.532h-6.952v-29.562h6.952c8.874 0 12.153 4.013 12.153 14.81.056 10.739-3.279 14.752-12.153 14.752" id="path18" fill="#3a3188" stroke-width=".565"/><path class="st7" d="M179.01 112.253c-6.5-1.526-9.552-2.6-9.552-5.596 0-3.957 1.3-6.105 8.196-6.105 6.218 0 8.422 1.922 8.422 7.292v1.865h8.479v-1.865c0-10.23-5.37-14.979-16.9-14.979-11.532 0-16.958 4.635-16.958 14.583 0 9.383 8.535 11.362 15.431 13 6.387 1.527 10.287 2.714 10.287 6.501 0 3.957-1.413 6.105-8.76 6.105-6.727 0-8.988-1.81-8.988-7.292v-1.865h-8.535v1.865c0 10.344 5.426 14.979 17.522 14.979 12.096 0 17.466-4.465 17.466-14.583.057-10.118-8.93-12.21-16.11-13.905" id="path20" fill="#3a3188" stroke-width=".565"/><path class="st7" d="M132.04 92.3c-14.527 0-20.97 7.461-20.97 24.192s6.443 24.192 20.97 24.192c9.156 0 14.752-3.278 17.748-10.23l1.3-3.053h-9.213l-.622 1.13c-1.752 3.11-4.409 4.41-9.27 4.41-7.348 0-10.853-3.11-11.87-10.683h32.84v-4.466c.057-17.635-6.387-25.492-20.913-25.492m-12.153 22.383c.34-10.4 3.787-14.47 12.153-14.47h.17l.395-.056c7.913.17 11.192 4.296 11.587 14.526z" id="path22" fill="#3a3188" stroke-width=".565"/><path class="st7" d="M101.121 169.06c0-7.97-4.465-12.04-13.227-12.04H71.672v37.758h5.71v-13.962h10.4l7.574 13.905h6.217l-8.14-14.64c5.201-1.356 7.688-4.974 7.688-11.022m-13.453 7.122H77.381v-14.3h10.287c5.37 0 7.688 2.148 7.688 7.178.056 4.918-2.318 7.122-7.688 7.122" id="path24" fill="#3a3188" stroke-width=".565"/><path class="st7" d="M138.088 169.06c0-7.97-4.466-12.04-13.227-12.04h-16.222v37.758h5.709v-13.962h10.457l7.574 13.905h6.217l-8.14-14.583c5.145-1.413 7.632-5.03 7.632-11.079m-13.397 7.122h-10.287v-14.3h10.287c5.37 0 7.688 2.148 7.688 7.178 0 4.918-2.374 7.122-7.688 7.122" id="path26" fill="#3a3188" stroke-width=".565"/><path class="st7" id="rect28" fill="#3a3188" stroke-width=".565" d="M145.662 157.02h5.709v37.758h-5.709z"/><path transform="matrix(.56524 0 0 .56524 -19.896 -27.135)" class="st7" id="polygon30" fill="#3a3188" d="M342.7 334.8H363v-9h-50.6v9h20.2v57.8h10.1z"/><path transform="matrix(.56524 0 0 .56524 -19.896 -27.135)" class="st7" id="polygon32" fill="#3a3188" d="M65.5 334.8h20.3v-9H35.2v9h20.2v57.8h10.1z"/><path class="st7" id="rect34" fill="#3a3188" stroke-width=".565" d="M236.891 157.02h5.709v37.758h-5.709z"/><path class="st7" d="M279.736 169.06c0-7.97-4.465-12.04-13.226-12.04h-16.223v37.758h5.71v-13.962h10.4l7.574 13.905h6.217l-8.139-14.64c5.2-1.356 7.687-4.974 7.687-11.022m-13.396 7.122h-10.287v-14.3h10.287c5.37 0 7.687 2.148 7.687 7.178 0 4.918-2.374 7.122-7.687 7.122" id="path36" fill="#3a3188" stroke-width=".565"/><path class="st7" d="M301.837 155.663c-12.153 0-17.353 6.048-17.353 20.18 0 14.13 5.2 20.178 17.353 20.178 7.63 0 12.153-2.543 14.583-8.309l.509-1.187h-5.822l-.226.452c-1.696 3.053-4.409 4.41-9.044 4.41-7.461 0-10.853-3.336-11.587-11.475h28.94v-2.883c0-14.979-5.2-21.366-17.353-21.366m-11.757 19.614c.113-10.627 3.448-14.81 11.757-14.81l.34-.056c7.856.113 11.19 4.466 11.36 14.866z" id="path38" fill="#3a3188" stroke-width=".565"/><path class="st7" d="M47.593 155.663c-12.153 0-17.353 6.048-17.353 20.18 0 14.13 5.2 20.178 17.353 20.178 7.63 0 12.153-2.543 14.583-8.309l.509-1.187h-5.822l-.226.452c-1.696 3.053-4.409 4.41-9.044 4.41-7.461 0-10.853-3.336-11.587-11.475h28.94v-2.883c0-14.979-5.2-21.366-17.353-21.366m-11.7 19.614c.113-10.627 3.448-14.81 11.757-14.81l.339-.056c7.857.113 11.191 4.466 11.361 14.866z" id="path40" fill="#3a3188" stroke-width=".565"/><path class="st7" d="M339.425 172.96c-5.03-1.188-9.383-2.205-9.383-6.049 0-4.748 2.261-6.5 8.422-6.5 6.162 0 8.592 2.148 8.592 7.574v.566h5.37v-.566c0-8.478-4.296-12.265-13.962-12.265-9.722 0-14.017 3.674-14.017 11.87 0 7.517 6.839 9.1 12.887 10.57 5.37 1.243 10.005 2.374 10.005 6.839 0 4.691-2.487 6.5-8.875 6.5-6.556 0-9.1-2.148-9.1-7.574v-.565h-5.426v.565c0 8.479 4.465 12.266 14.526 12.266 10.005 0 14.47-3.674 14.47-11.87.057-8.196-7.178-9.892-13.509-11.362" id="path42" fill="#3a3188" stroke-width=".565"/><g transform="matrix(.56524 0 0 .56524 -19.896 -27.135)" id="g67"><defs id="defs47"><path id="SVGID_5_" d="M361.3 414.6H455v9h-93.7z"/></defs><clipPath id="SVGID_1_"><use id="use49" xlink:href="#SVGID_5_" x="0" y="0" width="100%" height="100%" overflow="visible"/></clipPath><linearGradient gradientTransform="matrix(93.6592 0 0 -93.6592 -125051.64 100897.79)" y2="1072.812" x2="1340.035" y1="1072.812" x1="1339.035" gradientUnits="userSpaceOnUse" id="SVGID_3_"><stop id="stop52" offset="0" stop-color="#4fb8a3"/><stop id="stop54" offset=".244" stop-color="#4bb7a6"/><stop id="stop56" offset=".469" stop-color="#40b6ad"/><stop id="stop58" offset=".687" stop-color="#2db3ba"/><stop id="stop60" offset=".898" stop-color="#13aecc"/><stop id="stop62" offset="1" stop-color="#04acd7"/></linearGradient><path id="rect65" clip-path="url(#SVGID_1_)" fill="url(#SVGID_3_)" d="M361.3 414.6H455v9h-93.7z"/></g><path d="M210.382 142.267c-12.492 0-22.61 10.005-22.61 22.27 0 2.261.34 4.466.96 6.5 0 0 .284.905.453 1.3.509 1.3 1.13 2.6 1.865 3.788 8.083 15.6 19.388 27.753 19.388 27.753 6.557-6.218 14.018-17.466 18.144-24.984 2.148-4.239 4.353-9.213 4.353-14.3.056-12.322-10.062-22.327-22.553-22.327m.113 36.458c-7.97 0-14.414-6.444-14.414-14.414s6.444-14.413 14.414-14.413 14.413 6.443 14.413 14.413c0 7.97-6.444 14.414-14.413 14.414" id="path69" fill="#db1c83" stroke-width=".565"/></g></svg>