<svg id="Calque_2" class="img_header" data-name="Calque 2"
    xmlns="http://www.w3.org/2000/svg" viewBox="0 0 203.13 157.71" role="img" aria-label="Ministère de la Transition écologique et solidaire" width="215px">
    <defs>
        <style>.cls-1{fill:#000091;}.cls-2{fill:#e1000f;}.cls-3{fill:#9d9d9c;}</style>
    </defs>
    <title>Ministère de la Transition écologique et solidaire</title>
    <desc>Ministère de la Transition écologique et solidaire</desc>
    <path d="M35.14,38H39l3.65,6.23L46.31,38h3.87V53.13H47.11V42.37l-3.37,5.57H41.58l-3.37-5.57V53.13H35.14Z" transform="translate(-35.09 -7.88)"></path>
    <path d="M54.39,38h3.07V53.13H54.39Z" transform="translate(-35.09 -7.88)"></path>
    <path d="M61.7,38h3.93l6.76,10.83V38h3.07V53.13H71.53L64.77,42.26V53.13H61.7Z" transform="translate(-35.09 -7.88)"></path>
    <path d="M79.7,38h3.07V53.13H79.7Z" transform="translate(-35.09 -7.88)"></path>
    <path d="M87.87,49a4.33,4.33,0,0,0,3.34,1.86,1.71,1.71,0,0,0,2-1.75c0-2.7-6.92-2.1-6.92-7.13a4.53,4.53,0,0,1,4.84-4.39,6.71,6.71,0,0,1,5.3,2.55l-2.25,2a4,4,0,0,0-3-1.88,1.61,1.61,0,0,0-1.75,1.58c0,2.7,6.91,2.07,6.91,7.19,0,2.81-2.25,4.54-5,4.54A6.82,6.82,0,0,1,85.64,51Z" transform="translate(-35.09 -7.88)"></path>
    <path d="M97.83,38h12.4v2.79h-4.67V53.13h-3.07V40.79H97.83Z" transform="translate(-35.09 -7.88)"></path>
    <path d="M112.93,38h8.82v2.62H116v3.5h4.88v2.61H116v3.78h5.75v2.62h-8.82Zm.26-4.21h3.16l2.44,2.92H116Z" transform="translate(-35.09 -7.88)"></path>
    <path d="M125.31,38h4.63c3.33,0,5.38,1.71,5.38,4.52a4.12,4.12,0,0,1-2.42,3.91l4.75,6.7H134L130,47h-1.58v6.12h-3.07Zm3.07,2.62V44.4h1.73a1.9,1.9,0,1,0,0-3.78Z" transform="translate(-35.09 -7.88)"></path>
    <path d="M139.55,38h8.82v2.62h-5.75v3.5h4.89v2.61h-4.89v3.78h5.75v2.62h-8.82Z" transform="translate(-35.09 -7.88)"></path>
    <path d="M35.14,59.81h5.94c4.8,0,8,3.48,8,7.57s-3.24,7.56-8,7.56H35.14Zm3.07,2.79v9.55h2.92a4.78,4.78,0,1,0,0-9.55Z" transform="translate(-35.09 -7.88)"></path>
    <path d="M52.08,59.81H60.9v2.62H55.15v3.5H60v2.61H55.15v3.79H60.9v2.61H52.08Z" transform="translate(-35.09 -7.88)"></path>
    <path d="M70.08,59.81h3.07V72.15H78.9v2.79H70.08Z" transform="translate(-35.09 -7.88)"></path>
    <path d="M86.07,59.81h4l5.73,15.13H92.55L91.11,71h-6l-1.45,3.93H80.35Zm4.09,8.58-2.08-5.68L86,68.39Z" transform="translate(-35.09 -7.88)"></path>
    <path d="M102.21,59.81h12.41V62.6H110V74.94h-3.07V62.6h-4.67Z" transform="translate(-35.09 -7.88)"></path>
    <path d="M117.32,59.81h4.62c3.33,0,5.38,1.71,5.38,4.52a4.09,4.09,0,0,1-2.42,3.91l4.76,6.7H126l-4-6.12h-1.57v6.12h-3.07Zm3.07,2.62v3.78h1.73a1.9,1.9,0,1,0,0-3.78Z" transform="translate(-35.09 -7.88)"></path>
    <path d="M136,59.81h4l5.73,15.13h-3.27L141.07,71h-6l-1.45,3.93H130.3Zm4.09,8.58L138,62.71,136,68.39Z" transform="translate(-35.09 -7.88)"></path>
    <path d="M148.11,59.81H152l6.77,10.83V59.81h3.06V74.94h-3.93l-6.76-10.87V74.94h-3.07Z" transform="translate(-35.09 -7.88)"></path>
    <path d="M167,70.79a4.33,4.33,0,0,0,3.34,1.86,1.71,1.71,0,0,0,2-1.75c0-2.7-6.92-2.1-6.92-7.13a4.53,4.53,0,0,1,4.84-4.39,6.71,6.71,0,0,1,5.3,2.55l-2.25,2a4,4,0,0,0-3-1.88,1.61,1.61,0,0,0-1.75,1.58c0,2.7,6.91,2.07,6.91,7.19,0,2.81-2.25,4.54-5,4.54a6.82,6.82,0,0,1-5.62-2.53Z" transform="translate(-35.09 -7.88)"></path>
    <path d="M178.6,59.81h3.07V74.94H178.6Z" transform="translate(-35.09 -7.88)"></path>
    <path d="M184.35,59.81h12.4V62.6h-4.67V74.94H189V62.6h-4.67Z" transform="translate(-35.09 -7.88)"></path>
    <path d="M199.45,59.81h3.07V74.94h-3.07Z" transform="translate(-35.09 -7.88)"></path>
    <path d="M221.52,67.38a8,8,0,1,1-8-8A7.86,7.86,0,0,1,221.52,67.38Zm-3.16,0a4.88,4.88,0,1,0-4.86,5.12A4.86,4.86,0,0,0,218.36,67.38Z" transform="translate(-35.09 -7.88)"></path>
    <path d="M224.45,59.81h3.94l6.76,10.83V59.81h3.07V74.94h-3.93l-6.77-10.87V74.94h-3.07Z" transform="translate(-35.09 -7.88)"></path>
    <path d="M35.14,81.62H44v2.62H38.21v3.5h4.88v2.61H38.21v3.79H44v2.61H35.14Zm3-1.29,2.44-2.92h3.16l-2.81,2.92Z" transform="translate(-35.09 -7.88)"></path>
    <path d="M57.87,92.23l2.42,1.86a7.73,7.73,0,0,1-6.37,3.09,8,8,0,1,1,6.37-12.92l-2.42,1.88a4.71,4.71,0,0,0-3.95-2.07,5.13,5.13,0,0,0,0,10.24A4.7,4.7,0,0,0,57.87,92.23Z" transform="translate(-35.09 -7.88)"></path>
    <path d="M77.6,89.19a8,8,0,1,1-8-8A7.86,7.86,0,0,1,77.6,89.19Zm-3.15,0a4.88,4.88,0,1,0-4.87,5.12A4.86,4.86,0,0,0,74.45,89.19Z" transform="translate(-35.09 -7.88)"></path>
    <path d="M80.54,81.62h3.07V94h5.75v2.79H80.54Z" transform="translate(-35.09 -7.88)"></path>
    <path d="M106.28,89.19a8,8,0,1,1-8-8A7.86,7.86,0,0,1,106.28,89.19Zm-3.16,0a4.88,4.88,0,1,0-4.86,5.12A4.86,4.86,0,0,0,103.12,89.19Z" transform="translate(-35.09 -7.88)"></path>
    <path d="M120.08,93V90.44h-3.84V87.65h6.91v6.44a8.06,8.06,0,0,1-6.59,3.09,8,8,0,0,1-8.25-8,8.07,8.07,0,0,1,14.41-4.93l-2.42,1.88a4.71,4.71,0,0,0-4-2.07,4.87,4.87,0,0,0-4.89,5.12,5,5,0,0,0,5.1,5.12A5,5,0,0,0,120.08,93Z" transform="translate(-35.09 -7.88)"></path>
    <path d="M126.57,81.62h3.07V96.75h-3.07Z" transform="translate(-35.09 -7.88)"></path>
    <path d="M149.73,97.81a3.09,3.09,0,0,0,1.08-.17v2.59a4.05,4.05,0,0,1-1.6.28,7.12,7.12,0,0,1-4.73-2l-1.79-1.6a7.75,7.75,0,0,1-2.08.26,8,8,0,1,1,8-8,8,8,0,0,1-3,6.31l.91.86A4.67,4.67,0,0,0,149.73,97.81Zm-4.25-8.62a4.88,4.88,0,1,0-4.87,5.12A4.87,4.87,0,0,0,145.48,89.19Z" transform="translate(-35.09 -7.88)"></path>
    <path d="M160.49,81.62h3.07v9.21c0,4-2.33,6.35-6.13,6.35s-6.12-2.37-6.12-6.35V81.62h3.07v9.47a3.06,3.06,0,1,0,6.11,0Z" transform="translate(-35.09 -7.88)"></path>
    <path d="M167.36,81.62h8.82v2.62h-5.75v3.5h4.89v2.61h-4.89v3.79h5.75v2.61h-8.82Z" transform="translate(-35.09 -7.88)"></path>
    <path d="M35.14,103.44H44v2.61H38.21v3.5h4.88v2.62H38.21V116H44v2.61H35.14Z" transform="translate(-35.09 -7.88)"></path>
    <path d="M46.29,103.44h12.4v2.78H54v12.34H51V106.22H46.29Z" transform="translate(-35.09 -7.88)"></path>
    <path d="M67.88,114.41a4.33,4.33,0,0,0,3.35,1.86,1.7,1.7,0,0,0,1.94-1.75c0-2.7-6.91-2.1-6.91-7.13A4.52,4.52,0,0,1,71.1,103a6.68,6.68,0,0,1,5.29,2.55l-2.25,2a4,4,0,0,0-3-1.88,1.61,1.61,0,0,0-1.75,1.58c0,2.7,6.91,2.07,6.91,7.2,0,2.81-2.24,4.53-5,4.53a6.85,6.85,0,0,1-5.62-2.52Z" transform="translate(-35.09 -7.88)"></path>
    <path d="M94.07,111a8,8,0,1,1-8-8A7.86,7.86,0,0,1,94.07,111Zm-3.16,0a4.88,4.88,0,1,0-4.86,5.12A4.86,4.86,0,0,0,90.91,111Z" transform="translate(-35.09 -7.88)"></path>
    <path d="M97,103.44h3.06v12.33h5.75v2.79H97Z" transform="translate(-35.09 -7.88)"></path>
    <path d="M108.52,103.44h3.07v15.12h-3.07Z" transform="translate(-35.09 -7.88)"></path>
    <path d="M115.83,103.44h5.94c4.8,0,8,3.47,8,7.56s-3.24,7.56-8,7.56h-5.94Zm3.07,2.78v9.55h2.91a4.78,4.78,0,1,0,0-9.55Z" transform="translate(-35.09 -7.88)"></path>
    <path d="M136.25,103.44h4L146,118.56h-3.26l-1.45-3.93h-6.05l-1.44,3.93h-3.27Zm4.08,8.57-2.07-5.68L136.18,112Z" transform="translate(-35.09 -7.88)"></path>
    <path d="M148.33,103.44h3.07v15.12h-3.07Z" transform="translate(-35.09 -7.88)"></path>
    <path d="M155.63,103.44h4.63c3.32,0,5.38,1.7,5.38,4.51a4.11,4.11,0,0,1-2.42,3.91l4.75,6.7H164.3l-4-6.11H158.7v6.11h-3.07Zm3.07,2.61v3.78h1.73a1.9,1.9,0,1,0,0-3.78Z" transform="translate(-35.09 -7.88)"></path>
    <path d="M169.87,103.44h8.82v2.61h-5.75v3.5h4.88v2.62h-4.88V116h5.75v2.61h-8.82Z" transform="translate(-35.09 -7.88)"></path>
    <path d="M84.36,160.37c.41,0,.77.31.58,1.1l-1.91.44c.33-.88.89-1.54,1.33-1.54m1,3.08H85a2.31,2.31,0,0,1-1.5,1c-.52,0-.79-.31-.79-1a4.71,4.71,0,0,1,.09-.85l3.07-1c.6-1.42-.12-2-1-2-1.45,0-3.11,2.43-3.11,4.56,0,.95.46,1.48,1.17,1.48s1.69-.81,2.4-2.14M84.8,159,87,157v-.23H85.8L84.47,159Zm-6.63,1.42h1l-1.62,4.42a.52.52,0,0,0,.45.76A3.78,3.78,0,0,0,81,163.43h-.29a4.05,4.05,0,0,1-1.88,1.14l1.49-4.16h1.52l.19-.64H80.5l.57-1.59h-.59l-1,1.59-1.26.18Zm-1.37-.21a.46.46,0,0,0-.37-.65,2.85,2.85,0,0,0-2.36,1.92h.29a2.25,2.25,0,0,1,1.23-.94l-1.7,4.41a.45.45,0,0,0,.37.65,2.8,2.8,0,0,0,2.25-1.92h-.29a2.29,2.29,0,0,1-1.23.94Zm.31-2.22a.73.73,0,0,0,.73-.73.73.73,0,1,0-1.46,0,.72.72,0,0,0,.73.73m-9.77,6.79c-.22.49,0,.82.5.82.3,0,.43-.08.55-.4l1.18-3.12a4.19,4.19,0,0,1,2.1-1.38c.33,0,.28.27.07.67l-1.81,3.47a.52.52,0,0,0,.45.76,2.86,2.86,0,0,0,2.36-1.92h-.29a2.29,2.29,0,0,1-1.23.94l1.55-3.14a2.53,2.53,0,0,0,.3-1.07.77.77,0,0,0-.82-.85c-.76,0-1.54.87-2.46,1.93v-.82c0-.59-.19-1.11-.72-1.11-.33,0-.66.29-1,.7v.11c.58,0,.84.83.43,1.74Zm0-3.86c.21-.73.1-1.36-.46-1.36s-.82.5-1.48,1.93v-.82c0-.59-.19-1.11-.73-1.11s-1.18,1-1.61,1.92h.28c.3-.43.58-.69.8-.69s.41.41,0,1.32l-1.2,2.67c-.22.49,0,.82.5.82a.5.5,0,0,0,.56-.4l1.17-3.12c.34-.41.64-.77,1-1.16Zm-6.81-.54c.41,0,.76.31.57,1.1l-1.9.44c.33-.88.88-1.54,1.33-1.54m1.05,3.08h-.38a2.27,2.27,0,0,1-1.49,1c-.53,0-.79-.31-.79-1a4,4,0,0,1,.09-.85l3.07-1c.6-1.42-.12-2-1-2-1.45,0-3.1,2.43-3.1,4.56,0,.95.45,1.48,1.16,1.48s1.7-.81,2.41-2.14m-7.24-3h1l-1.62,4.42a.52.52,0,0,0,.44.76,3.76,3.76,0,0,0,2.93-2.16H56.8a4.07,4.07,0,0,1-1.87,1.14l1.48-4.16h1.52l.19-.64H56.65l.56-1.59h-.58l-1.06,1.59-1.25.18Zm-5.6,3.45c0-1.37,1.52-3.22,2.37-3.22a1.68,1.68,0,0,1,.52.07l-.88,2.36c-.51.62-1.3,1.37-1.67,1.37-.21,0-.34-.17-.34-.58m4.67-4.56-.47,0-.52.51h-.11c-2.53,0-4.71,2.84-4.71,4.91a.84.84,0,0,0,.9.91c.66,0,1.3-.94,2-1.93l0,.35c-.09,1,.22,1.58.75,1.58s1.19-1,1.62-1.92h-.28c-.3.43-.58.68-.8.68s-.4-.42,0-1.31ZM48,160.91c.21-.73.1-1.36-.46-1.36s-.82.5-1.48,1.93v-.82c0-.59-.19-1.11-.72-1.11s-1.19,1-1.62,1.92H44c.3-.43.58-.69.8-.69s.41.41,0,1.32l-1.19,2.67c-.23.49,0,.82.49.82a.5.5,0,0,0,.56-.4l1.17-3.12c.34-.41.64-.77,1-1.16Zm-8.5,4.45.11-.34c-1.47-.28-1.66-.28-1.07-1.89l.6-1.65h1.63c.73,0,.74.3.63,1.1h.42l1-2.67h-.43c-.36.63-.65,1.1-1.45,1.1H39.31l.86-2.34c.26-.75.42-.9,1.42-.9h.71c1,0,1.15.27,1.15,1.32h.41l.34-1.82H38.08l-.11.34c1.19.25,1.3.36.74,1.89l-1.33,3.63c-.55,1.52-.78,1.65-2.15,1.89l-.1.34Z" transform="translate(-35.09 -7.88)"></path>
    <path d="M69.51,146.51c.41,0,.77.31.58,1.1l-1.91.44c.33-.89.89-1.54,1.33-1.54m1.06,3.07h-.38a2.29,2.29,0,0,1-1.5,1c-.52,0-.79-.31-.79-1a4.6,4.6,0,0,1,.09-.84l3.07-1c.6-1.42-.12-2-1-2-1.45,0-3.11,2.43-3.11,4.56,0,.95.46,1.47,1.17,1.47s1.7-.81,2.41-2.14M70,145.12l2.16-2v-.24H71l-1.33,2.25Zm-6.64,1.42h1L62.72,151a.51.51,0,0,0,.45.75,3.79,3.79,0,0,0,2.93-2.15h-.29a4,4,0,0,1-1.88,1.13l1.49-4.16h1.52l.19-.63H65.65l.57-1.6h-.59l-1,1.6-1.26.18ZM62,146.33a.45.45,0,0,0-.37-.64,2.86,2.86,0,0,0-2.36,1.92h.29a2.21,2.21,0,0,1,1.23-.94L59,151.08a.44.44,0,0,0,.37.64,2.8,2.8,0,0,0,2.25-1.92h-.29a2.27,2.27,0,0,1-1.23.95Zm.31-2.21a.74.74,0,0,0,0-1.47.74.74,0,0,0,0,1.47m-5.9,6.63,3.09-8.11-.1-.12-1.94.22V143l.38.29c.34.27.23.52-.08,1.34L55.29,151a.51.51,0,0,0,.45.75A2.72,2.72,0,0,0,58,149.8H57.7a2.55,2.55,0,0,1-1.34.95M50.48,150c0-1.36,1.52-3.21,2.37-3.21a2.2,2.2,0,0,1,.53.06l-.89,2.37c-.51.62-1.3,1.37-1.66,1.37s-.35-.18-.35-.59m4.67-4.56-.47,0-.52.51h-.11c-2.53,0-4.71,2.84-4.71,4.9a.84.84,0,0,0,.91.91c.65,0,1.3-.93,2-1.93l0,.36c-.09,1,.23,1.57.76,1.57s1.18-1,1.62-1.92h-.29c-.3.44-.58.69-.8.69s-.4-.42,0-1.32ZM43.86,152.8c0-.59.57-1,1.38-1.28a8.83,8.83,0,0,0,1.19.46c.85.28,1.17.39,1.17.64,0,.54-.92,1-2.18,1-1.05,0-1.56-.23-1.56-.78m2.3-3.58c-.37,0-.51-.31-.51-.67,0-1,.53-2.44,1.36-2.44.37,0,.51.31.51.67,0,1-.53,2.44-1.36,2.44m2.4,3c0-.71-.63-1-1.66-1.28s-1.29-.34-1.29-.63a.9.9,0,0,1,.57-.71,2.59,2.59,0,0,0,2.39-2.49,1.48,1.48,0,0,0-.12-.61h1.23l.19-.63H47.92a1.54,1.54,0,0,0-.79-.22,2.57,2.57,0,0,0-2.54,2.45,1.44,1.44,0,0,0,1.18,1.48c-.72.32-1.12.69-1.12,1.14a.71.71,0,0,0,.3.6c-1.67.49-2.32,1-2.32,1.83s1,1.08,2.21,1.08c2,0,3.72-1.09,3.72-2m-7.75-4.75c.73,0,.74.3.63,1.1h.42l1-2.68h-.42c-.37.64-.66,1.1-1.45,1.1H39.36l.81-2.23c.26-.74.42-.88,1.42-.88h.71c1,0,1.15.27,1.15,1.3h.41l.34-1.81H38.08l-.11.34c1.19.24,1.3.35.74,1.88l-1.33,3.64c-.55,1.52-.78,1.64-2.15,1.89l-.1.34h6.81l1.22-1.93H42.7A4.5,4.5,0,0,1,39.58,151c-1.81,0-1.64-.08-1-1.73l.64-1.76Zm.89-4.65,2.16-1.48v-.24H42.55l-1.2,1.72Z" transform="translate(-35.09 -7.88)"></path>
    <path d="M68.79,132.65c.41,0,.77.31.58,1.1l-1.91.44c.33-.89.89-1.54,1.33-1.54m1,3.07h-.37a2.29,2.29,0,0,1-1.5,1c-.52,0-.79-.31-.79-1a4.5,4.5,0,0,1,.09-.84l3.07-1c.6-1.42-.12-2-1-2-1.45,0-3.11,2.43-3.11,4.56,0,1,.46,1.47,1.17,1.47s1.69-.81,2.4-2.14m-.61-4.46,2.17-2V129H70.23l-1.33,2.25Zm-6.35,1.42h.81l-1.62,4.43a.52.52,0,0,0,.44.75,3.77,3.77,0,0,0,2.93-2.15h-.29a4,4,0,0,1-1.87,1.13l1.49-4.16h1.51l.19-.63H65l.56-1.6H65l-1.06,1.6-1,.18Zm-.8.5c.21-.72.1-1.35-.45-1.35s-.82.5-1.49,1.93v-.82c0-.59-.19-1.11-.72-1.11s-1.19,1-1.62,1.92h.29c.3-.44.58-.69.8-.69s.41.41,0,1.32L57.69,137c-.22.5,0,.82.5.82.3,0,.43-.08.55-.4l1.18-3.12c.33-.41.63-.76,1-1.16Zm-6.81-.53c.41,0,.77.31.58,1.1l-1.91.44c.33-.89.89-1.54,1.33-1.54m1.06,3.07H56a2.29,2.29,0,0,1-1.5,1c-.52,0-.79-.31-.79-1a4.5,4.5,0,0,1,.09-.84l3.07-1c.6-1.42-.12-2-1-2-1.45,0-3.11,2.43-3.11,4.56,0,1,.46,1.47,1.17,1.47s1.7-.81,2.41-2.14M48.8,137c-.3,0-.74-.28-.74-.52a7.08,7.08,0,0,1,.3-.85l.5-1.32c.53-.63,1.34-1.31,1.8-1.31.28,0,.49.18.49.59,0,1.21-1.13,3.41-2.35,3.41m3.49-3.9c0-.9-.33-1.23-.95-1.23-.78,0-1.51.82-2.25,1.82L51,128.78l-.1-.12-1.94.22v.23l.37.29c.35.26.24.54-.07,1.34l-2,5.15a6,6,0,0,0-.32.94c0,.53.72,1,1.37,1,1.51,0,4-2.72,4-4.8m-6-.59a.45.45,0,0,0-.37-.64,2.85,2.85,0,0,0-2.36,1.92h.29a2.24,2.24,0,0,1,1.23-.95l-1.7,4.42a.44.44,0,0,0,.37.64A2.8,2.8,0,0,0,46,135.94h-.29a2.24,2.24,0,0,1-1.23.94Zm.31-2.22a.73.73,0,0,0,0-1.46.73.73,0,1,0,0,1.46m-4.47-.71h-4l-.11.35c1.19.24,1.3.35.74,1.88l-1.31,3.64c-.55,1.52-.78,1.64-2.15,1.88l-.1.35h6.15l1.33-2.37h-.47c-.75.83-1.64,1.87-3,1.87-1,0-1.16-.18-.6-1.73l1.31-3.64c.54-1.52.78-1.64,2.15-1.88Z" transform="translate(-35.09 -7.88)"></path>
    <path class="cls-1" d="M57.92,25.59c.22-.21.44-.44.65-.68h0a13.94,13.94,0,0,1,1.26-1.29,3.76,3.76,0,0,1,.42-.33s0-.11.07-.15c-.19.08-.3.23-.49.3,0,0-.08,0,0-.07l.41-.31h0s0,0,0-.07a1.51,1.51,0,0,0-1.21.57c-.08,0-.15,0-.19,0-.57.19-1,.68-1.56.91v-.08a6.4,6.4,0,0,1-.68.27,3.86,3.86,0,0,1-1,0,13.29,13.29,0,0,0-1.38.24h0a3.12,3.12,0,0,0-.71.29h0l-.06.07a1,1,0,0,1-.26.23,4.11,4.11,0,0,0-.63.49l-.06,0-.61.58s-.07,0-.11,0h0l0,0a.86.86,0,0,1,.1-.16,1.74,1.74,0,0,1,.11-.18l.16-.23a0,0,0,0,0,0-.05l0,0a3.56,3.56,0,0,1,.63-.47h0s-.06,0,0,0,0-.07.07-.1v0l0,0a1.18,1.18,0,0,0-.18.13c-.09.08-.16.25-.3.25H52.1l0,0h0l0,0,0,0v0l0,0,0,0a.35.35,0,0,1,0-.08l0,0a.43.43,0,0,1,0-.07,0,0,0,0,0,0-.07,1,1,0,0,1,.26-.23h0c.15-.07.29-.16.44-.24l.06-.05a2.56,2.56,0,0,0-.6.29l-.07,0s0,0-.09,0,0,0,0,0,.15-.12.23-.19.07,0,.07,0c1.22-.94,2.89-.72,4.29-1.21l.34-.23c.19-.07.34-.26.57-.38a1.67,1.67,0,0,0,.65-.87.14.14,0,0,0,0-.08,5.75,5.75,0,0,1-1.67,1.26,7.23,7.23,0,0,1-2.51.45c0-.07.12-.07.19-.07s.08-.16.16-.23h.11s0-.08.08-.08.19,0,.15,0-.34.12-.53,0c.07-.07,0-.19.11-.22h.15a.28.28,0,0,1,.08-.16c.57-.34,1.1-.6,1.63-.91-.11,0-.19.12-.3,0,.07,0,0-.11.07-.11.42-.12.76-.34,1.18-.5-.15,0-.27.12-.42,0,.08,0,.11-.11.23-.11v-.11s0,0,.07,0-.07,0-.07,0,.15,0,.23-.11-.12,0-.12,0a.81.81,0,0,1,.5-.23c0-.07-.16,0-.16-.07s0,0,.08,0h-.08c-.07,0,0-.12,0-.15a3,3,0,0,0,.34-.92s-.08,0-.08,0a3.14,3.14,0,0,1-1.55.72H56a.82.82,0,0,1-.65,0,3.32,3.32,0,0,1-.38-.3,4.17,4.17,0,0,0-.95-.46A8.79,8.79,0,0,0,51.1,19a7.5,7.5,0,0,1,1.33-.38,5.81,5.81,0,0,1,1.93-.38,1.61,1.61,0,0,0-.38,0,6.81,6.81,0,0,0-1.63.23c-.38.08-.72.23-1.1.31-.23.07-.34.3-.61.26v-.11A2.19,2.19,0,0,1,52.09,18a7.14,7.14,0,0,1,2,.07,10.41,10.41,0,0,1,1.44.27c.19,0,.23.3.38.34s.46,0,.68.15a.54.54,0,0,1,0-.22c.16-.16.34,0,.5,0s-.27-.53-.42-.8a.14.14,0,0,1,0-.08,4.18,4.18,0,0,0,.91.76c.19.08.64.19.57,0a5.81,5.81,0,0,0-.88-1.14v-.15c-.07,0-.07,0-.11-.08v-.15c-.15-.08-.11-.23-.19-.34s0-.46-.11-.69a2.84,2.84,0,0,1-.15-.64c-.12-.65-.27-1.22-.35-1.82s.42-1.29.76-1.94a3.25,3.25,0,0,1,1.07-1.21,3.07,3.07,0,0,1,1.89-2c.53-.23,1-.38,1-.38h-26V28H53.54A15.84,15.84,0,0,1,56,26.7,10.2,10.2,0,0,0,57.92,25.59Zm-5.83-2.72c-.08,0-.23,0-.19,0s.3-.19.45-.27.19-.11.27-.07.19.07.26.15C52.66,22.87,52.35,22.76,52.09,22.87ZM46.28,22a.14.14,0,0,1,0-.08A11.75,11.75,0,0,0,47.46,20,5.45,5.45,0,0,0,48.75,19a7.11,7.11,0,0,1,2.12-1.67,1.46,1.46,0,0,1,1,0c-.11.16-.3.12-.46.23a.14.14,0,0,1-.11,0,.12.12,0,0,0,0-.11c-.38.42-.91.61-1.22,1.1s-.38.87-.87,1c-.15,0,0-.12,0-.08A12.76,12.76,0,0,0,46.28,22Zm3.15-2.51c0,.08-.08.09-.11.16a.33.33,0,0,1-.16.15s-.07,0-.07,0a.47.47,0,0,1,.3-.34S49.43,19.5,49.43,19.53Zm1.76,5.69a.23.23,0,0,1-.09.11s.08,0,0,.06a.84.84,0,0,1-.29.2H50.8l-.14.13s-.25,0-.19,0l.28-.27a1.14,1.14,0,0,0,.16-.15l.08-.08S51.22,25.15,51.19,25.22Zm-.68-.31h0a4,4,0,0,1-.43.29,4.66,4.66,0,0,1-.5.25h0a0,0,0,0,0-.06,0,1.57,1.57,0,0,0-.38.3l0,.05h0l-.05.06h0l-.09.08a.1.1,0,0,1,0,.06s-.09,0-.08,0h0l-.07,0-.06,0h0l-.14.12a2.39,2.39,0,0,0-.22.23h0v0h0l0,0h0l0,0,0,0v0l0-.06h0l.12-.14h0l0-.05.07-.08,0,0,.12-.16h0l0,0a.35.35,0,0,0,.05-.08l0-.08h0l0-.09h0v0l0,0h0s0,0,0,0v0a1,1,0,0,1,.15-.2h0a1.49,1.49,0,0,0-.14.12s-.12,0-.07-.06l.09-.08h0a1.8,1.8,0,0,1,.19-.2l.12-.09h0a.39.39,0,0,1,.08-.1h0c.36-.35,1-.34,1.45-.56.19-.08.42,0,.61,0a.54.54,0,0,1,.34.08C51.14,24.5,50.82,24.71,50.51,24.91Zm.78-2.64s.11,0,.15-.08h-.3s0,0,0-.07c-.19,0-.42.11-.61.15s-.49.26-.79.34-.76.49-1.22.64c0,0,0,0,0-.07s.19-.15.27-.27,0-.07,0-.07a6.48,6.48,0,0,1,1.1-1v-.11c.12-.16.31-.23.38-.42a.65.65,0,0,1,.38-.34s-.11,0-.11-.12c-.16,0-.31.08-.46,0a.49.49,0,0,1,.24-.14.2.2,0,0,1-.09-.05c0-.08.08-.17.19-.19s.34,0,.46-.16c-.27,0-.57.08-.84-.07a2,2,0,0,1,.95-1.14s.12,0,.12,0a.38.38,0,0,1-.31.38,3.66,3.66,0,0,1,.91.22c0,.08-.11,0-.15,0,.19.12.42,0,.61.19-.12.12-.23,0-.34,0a9.86,9.86,0,0,1,3.41,1.37,10.2,10.2,0,0,1-2.62.8.78.78,0,0,1-.3,0s0,.11,0,.11a.61.61,0,0,0-.38.08C51.63,22.34,51.4,22.38,51.29,22.27Z" transform="translate(-35.09 -7.88)"></path>
    <path class="cls-2" d="M90.32,7.88H68.72a.6.6,0,0,1,.2.09l.55.29a1.77,1.77,0,0,1,.72.61c.08.11.19.34.11.49s-.11.5-.3.57a1.35,1.35,0,0,1-.8.08,1.78,1.78,0,0,1-.45-.08,3.12,3.12,0,0,1,1.48,1c0,.07.19.11.34.11s0,.08,0,.11-.15.12-.12.23h.12c.19-.07.15-.45.42-.34a.43.43,0,0,1,.15.57,3.85,3.85,0,0,1-.46.38.32.32,0,0,0,0,.27,1.09,1.09,0,0,1,.19.45c.12.27.15.57.27.84a5.28,5.28,0,0,1,.26,1.7c0,.31-.15.57,0,.88a3,3,0,0,0,.41.79,5.55,5.55,0,0,1,.42.61c.23.38.65.76.46,1.22-.12.26-.54.22-.8.38s0,.49.07.68-.22.57-.49.68c.08.12.23.08.27.15s.22.31.11.5-.61.34-.38.68a1,1,0,0,1,0,.83.88.88,0,0,1-.68.57,1.47,1.47,0,0,1-.72,0,.51.51,0,0,0-.23-.07A16,16,0,0,0,67.88,23a2.84,2.84,0,0,0-.54.15,3.63,3.63,0,0,0-.46.41h0a.39.39,0,0,0-.08.1l0,.05,0,0a4.27,4.27,0,0,0-.3.44l0,0,0,0a4.15,4.15,0,0,0-.29.7,2.3,2.3,0,0,0,0,1.79c0,.05,1.25.43,2.09.8a7.45,7.45,0,0,1,.9.45H90.32Z" transform="translate(-35.09 -7.88)"></path>
    <path class="cls-3" d="M70,15.2c.15,0,.38,0,.38.12-.07.3-.53.38-.76.68h-.11c-.12.08-.08.27-.19.27a.5.5,0,0,0-.34,0,.64.64,0,0,0,.57.22.18.18,0,0,1,.11.15.15.15,0,0,0,.08,0s.07,0,.07,0v.16c-.11.15-.3.07-.45.11a1.61,1.61,0,0,0,.87,0c.23-.08,0-.46.15-.64-.07,0,0-.12-.07-.12a1.63,1.63,0,0,1,.22-.23.26.26,0,0,0,.23-.11c0-.08-.15-.11-.11-.19.22-.15.41-.38.34-.61s-.34-.11-.53-.19a1.33,1.33,0,0,0-.65,0,3,3,0,0,0-.57.15,2.92,2.92,0,0,0-.72.38,6.4,6.4,0,0,1,.84-.23A2.74,2.74,0,0,1,70,15.2Z" transform="translate(-35.09 -7.88)"></path>
</svg>
