<svg id="b0d79e4a-ef39-4d8b-8af2-fec3db680866" data-name="Calque 1" xmlns="http://www.w3.org/2000/svg" xmlns:xlink="http://www.w3.org/1999/xlink" viewBox="0 0 836.22 499.65"><defs><style>.a692055e-dcdd-4bcf-a2a3-74198b745ff2,.b506f0df-24d6-4335-91ee-8649f75052db,.bfe918b4-02a9-4a8b-876e-8ff946b9b6e8,.e8bc5d3b-6f71-48f9-a379-21b5f5d63ca6,.e9c13604-9b4e-4dac-9a1d-33aeca409049{fill:none;}.a692055e-dcdd-4bcf-a2a3-74198b745ff2,.b506f0df-24d6-4335-91ee-8649f75052db,.bfe918b4-02a9-4a8b-876e-8ff946b9b6e8,.e8bc5d3b-6f71-48f9-a379-21b5f5d63ca6{stroke:#000091;stroke-linecap:round;stroke-linejoin:round;}.e8bc5d3b-6f71-48f9-a379-21b5f5d63ca6{stroke-width:3.5px;}.a692055e-dcdd-4bcf-a2a3-74198b745ff2{stroke-width:5px;}.b506f0df-24d6-4335-91ee-8649f75052db{stroke-width:3px;}.bfe918b4-02a9-4a8b-876e-8ff946b9b6e8{stroke-width:2.5px;}.a58f30eb-1563-43bc-bbd6-1489de8a43c8{clip-path:url(#a1a8e11e-9797-40ed-bf10-c1537bd3e1b8);}.b7118889-1455-449f-825f-f1c3c01900cb{fill:url(#eaede11a-7ff9-4bac-96f3-22a3105d654d);}.ed659d4b-e189-439f-b4d4-4b1c3b8595d6{fill:#ff8d7e;}.be7ac743-fe26-4ea2-947a-cec7cc1f6c26{fill:#000091;}.b95d4214-836d-4367-bff1-99b92f3fa207{fill:#66cdba;}</style><clipPath id="a1a8e11e-9797-40ed-bf10-c1537bd3e1b8"><rect class="e9c13604-9b4e-4dac-9a1d-33aeca409049" x="423.38" y="445.9" width="93.66" height="8.96"/></clipPath><linearGradient id="eaede11a-7ff9-4bac-96f3-22a3105d654d" x1="288.06" y1="914.55" x2="289.06" y2="914.55" gradientTransform="matrix(93.66, 0, 0, -93.66, -26555.66, 86106.79)" gradientUnits="userSpaceOnUse"><stop offset="0" stop-color="#66cdba"/><stop offset="0.27" stop-color="#66cabc"/><stop offset="0.46" stop-color="#66c1c1"/><stop offset="0.62" stop-color="#67b2ca"/><stop offset="0.77" stop-color="#689cd7"/><stop offset="0.91" stop-color="#6980e7"/><stop offset="0.99" stop-color="#6a6af4"/></linearGradient></defs><path class="e8bc5d3b-6f71-48f9-a379-21b5f5d63ca6" d="M566.88,336.64c.71-4.79,1.45-9.61,2.28-14.37,1.57-9,3.61-17.67,5.4-25,2.48-10.18,5.18-20.49,7.79-30.46.5-1.87,1-3.75,1.48-5.62,1.85-7.07,4-16.44,4.27-26.16.18-6.5-.58-11.32-2.45-15.62A24.88,24.88,0,0,0,575,207.28c-.67-.38-1.36-.74-2.07-1.07a44.29,44.29,0,0,0-16.43-3.9c-9.6-.57-19.81.66-32.11,3.85a95.27,95.27,0,0,0-15.28,5c-27.08,12-35.5,35.28-38.2,49.71,0,0-8.75,33-1.17,79.51"/><path class="a692055e-dcdd-4bcf-a2a3-74198b745ff2" d="M592.1,336.64C596.45,311.18,618.28,260,624.44,225a47.41,47.41,0,0,0-2.36-25.25,39.28,39.28,0,0,0-14.44-19.18c-1.11-.78-2.25-1.51-3.43-2.18a44.69,44.69,0,0,0-12.48-4.79c-8.37-1.86-22.55-2.18-33.89-1a255.52,255.52,0,0,0-36.91,7c-12.72,3.28-24.76,8.2-38.76,11-53.5,10.76-61.83,27.08-64,35"/><path class="b506f0df-24d6-4335-91ee-8649f75052db" d="M617.61,336.64c9.59-32.62,37.78-86.56,41-110.83,1.66-12.38,2.16-23.49.16-34.19a71.49,71.49,0,0,0-12.73-29.51,70.06,70.06,0,0,0-13.34-13.49,74.31,74.31,0,0,0-12.64-7.91,88.61,88.61,0,0,0-25.49-7.45c-28.53-3.78-65.78,8.44-69.74,9.53-5.69,1.57-47.77,13.89-64.05,17.94-8.71,2.17-17.58,4.1-26.18,5.88-6.06,1.25-26.78,4-36.54,7.39-17.12,5.9-29.31,16.71-32,34.37-.89,5.73-1.48,11.43-1.85,17"/><path class="bfe918b4-02a9-4a8b-876e-8ff946b9b6e8" d="M640.34,336.64C650,309,673,253.66,678.77,231.9a148.55,148.55,0,0,0,4.73-26.76,112.78,112.78,0,0,0-.43-24.07,90.48,90.48,0,0,0-12-34.77c-5.33-8.88-12.65-16.54-21.27-24.64-8.13-7.66-19.84-13.59-30.88-18.55a104.56,104.56,0,0,0-24.46-7.31c-11-2-22.07-1.79-33.14-.39-26.92,3.39-79.29,25.68-92.63,29.72A197.62,197.62,0,0,1,395.3,134c-59.63-3.95-80.86,26-76.77,55.75,1.29,9.43,3,21.88,5.46,35.85"/><path class="e8bc5d3b-6f71-48f9-a379-21b5f5d63ca6" d="M659.77,336.64c.38-1.18,32.59-70.85,42.16-100.47,3.6-11.15,4.79-20.92,5.6-30.19a143.65,143.65,0,0,0-.22-30.11A101.5,101.5,0,0,0,694,136.31c-5.1-8.61-21.38-26.73-31.48-34.81-10.87-8.68-28.38-18.3-37.8-22.15a212.64,212.64,0,0,0-24.61-8.67c-14.32-3.9-27.16-5.47-39.26-4.79a76.78,76.78,0,0,0-27.78,6.62c-10.94,5-21.91,10.44-32.52,15.69l-.33.16c-12,6-24.95,12.17-38.64,16.73-1.13.37-15.63,5.25-21.88,6.73-5.31,1.27-10.8,2.21-16.13,3-18.06,2.57-42.53,3-57.25-.37-29.1-6.57-109.82,1.56-80.41,97,0,0,1.64,5.7,4.18,14.17"/><g class="a58f30eb-1563-43bc-bbd6-1489de8a43c8"><rect class="b7118889-1455-449f-825f-f1c3c01900cb" x="423.38" y="445.9" width="93.66" height="8.96"/></g><path class="ed659d4b-e189-439f-b4d4-4b1c3b8595d6" d="M469.45,331c-22.09,0-40,17.65-40,39.42a39.09,39.09,0,0,0,1.74,11.5s.51,1.6.83,2.3a39.17,39.17,0,0,0,3.29,6.65C449.65,418.49,469.58,440,469.58,440c11.62-11,24.82-30.91,32.13-44.2,3.81-7.45,7.72-16.28,7.72-25.32,0-21.77-17.89-39.42-40-39.42m.22,64.46A25.46,25.46,0,1,1,495.13,370a25.46,25.46,0,0,1-25.46,25.46"/><path class="be7ac743-fe26-4ea2-947a-cec7cc1f6c26" d="M696.53,208.74a9.14,9.14,0,1,1,9.14,9.14,9.14,9.14,0,0,1-9.14-9.14"/><path class="b95d4214-836d-4367-bff1-99b92f3fa207" d="M501.8,178.53a17.33,17.33,0,1,1,17.32,17.33,17.33,17.33,0,0,1-17.32-17.33"/><path class="be7ac743-fe26-4ea2-947a-cec7cc1f6c26" d="M596.33,291.16a9.14,9.14,0,1,1,9.14,9.13,9.14,9.14,0,0,1-9.14-9.13"/><path class="be7ac743-fe26-4ea2-947a-cec7cc1f6c26" d="M578.13,66a9.14,9.14,0,1,1,9.14,9.14A9.14,9.14,0,0,1,578.13,66"/><path class="be7ac743-fe26-4ea2-947a-cec7cc1f6c26" d="M559,204.72a9.14,9.14,0,1,1,9.14,9.14,9.14,9.14,0,0,1-9.14-9.14"/><path class="b95d4214-836d-4367-bff1-99b92f3fa207" d="M641.26,170.68a16.92,16.92,0,1,1,16.91-16.91,16.91,16.91,0,0,1-16.91,16.91"/><path class="ed659d4b-e189-439f-b4d4-4b1c3b8595d6" d="M550,133.06a13.34,13.34,0,1,0,13.33-13.34A13.33,13.33,0,0,0,550,133.06"/><path class="be7ac743-fe26-4ea2-947a-cec7cc1f6c26" d="M129.57,243.76h22.08l31.46,83.1H165.18l-8-21.6H124L116,326.86H98.11ZM152,290.89l-11.4-31.22-11.4,31.22Z"/><path class="be7ac743-fe26-4ea2-947a-cec7cc1f6c26" d="M186.81,243.76h16.86v83.1H186.81Z"/><path class="be7ac743-fe26-4ea2-947a-cec7cc1f6c26" d="M217.42,243.76h32.64c26.36,0,44.16,19.12,44.16,41.55s-17.8,41.55-44.16,41.55H217.42Zm16.85,15.32v52.47h16c15.43,0,26.59-11.52,26.59-26.24s-11.16-26.23-26.59-26.23Z"/><path class="be7ac743-fe26-4ea2-947a-cec7cc1f6c26" d="M345.16,330.1c-28.19,0-44.88-20.25-44.88-44.06,0-24.47,15.56-44.07,41.48-44.07,22.52,0,37.1,15.23,37.1,36a41.77,41.77,0,0,1-1.14,10H317.46c.65,16.2,11.66,27.06,28,27.06a27.91,27.91,0,0,0,22.85-11.18l12.15,9.72C372.86,323.78,360.39,330.1,345.16,330.1ZM318.75,275H362c-.49-10.21-7.78-18.79-20.09-18.79C330.09,256.23,321.67,262.38,318.75,275Z"/><path class="be7ac743-fe26-4ea2-947a-cec7cc1f6c26" d="M397.61,304.07c5,6.41,11.63,10.21,18.4,10.21s10.69-3.56,10.69-9.62c0-14.84-38-11.51-38-39.17,0-13.18,10.8-24.1,26.59-24.1,12.46,0,22.08,5.58,29.08,14l-12.34,11c-4.87-6.3-10.33-10.33-16.62-10.33-5.82,0-9.62,3.8-9.62,8.66,0,14.84,38,11.4,38,39.54-.24,15.43-12.35,24.93-27.54,24.93-14,0-23.51-5.11-30.87-13.89Z"/><path class="be7ac743-fe26-4ea2-947a-cec7cc1f6c26" d="M95.59,356.09h55.82v10.37H129.18v58.79H117.82V366.46H95.59Z"/><path class="be7ac743-fe26-4ea2-947a-cec7cc1f6c26" d="M192,428c-23,0-37.29-16.95-37.29-36.88,0-20.75,13.29-36.89,34.44-36.89,18.58,0,30.65,12.61,30.65,29.7a36.22,36.22,0,0,1-.82,7.32H166.65v.27c0,15.06,10.31,26,25.63,26a25.12,25.12,0,0,0,20.48-10.17L221.3,414C214.93,422.54,204.76,428,192,428ZM167.6,382.13h40.55c-.41-9.9-7.6-18-18.85-18S170.31,370.33,167.6,382.13Z"/><path class="be7ac743-fe26-4ea2-947a-cec7cc1f6c26" d="M229,356.09h19.57c14.52,0,23.41,7.7,23.41,20,0,8.3-4.15,14.52-11.26,17.68l22,31.52H269L249.73,396h-9.48v29.25H229Zm11.27,9.78v20.35h8.89c7,0,11.07-3.75,11.07-10.37,0-6.23-4.06-10-11.07-10Z"/><path class="be7ac743-fe26-4ea2-947a-cec7cc1f6c26" d="M288.75,356.09h19.57c14.52,0,23.41,7.7,23.41,20,0,8.3-4.15,14.52-11.26,17.68l22,31.52H328.77L309.5,396H300v29.25H288.75ZM300,365.87v20.35h8.89c7,0,11.07-3.75,11.07-10.37,0-6.23-4.05-10-11.07-10Z"/><path class="be7ac743-fe26-4ea2-947a-cec7cc1f6c26" d="M348.53,356.09h11.26v69.16H348.53Z"/><path class="be7ac743-fe26-4ea2-947a-cec7cc1f6c26" d="M369,356.09H424.8v10.37H402.57v58.79H391.2V366.46H369Z"/><path class="be7ac743-fe26-4ea2-947a-cec7cc1f6c26" d="M514.1,356.09h11.26v69.16H514.1Z"/><path class="be7ac743-fe26-4ea2-947a-cec7cc1f6c26" d="M542,356.09h19.56c14.52,0,23.42,7.7,23.42,20,0,8.3-4.15,14.52-11.27,17.68l22,31.52H582L562.71,396h-9.49v29.25H542Zm11.26,9.78v20.35h8.89c7,0,11.07-3.75,11.07-10.37,0-6.23-4-10-11.07-10Z"/><path class="be7ac743-fe26-4ea2-947a-cec7cc1f6c26" d="M634.72,428c-23.05,0-37.29-16.95-37.29-36.88,0-20.75,13.29-36.89,34.44-36.89,18.58,0,30.65,12.61,30.65,29.7a37,37,0,0,1-.81,7.32H609.36v.27c0,15.06,10.31,26,25.63,26a25.12,25.12,0,0,0,20.48-10.17L664,414C657.64,422.54,647.47,428,634.72,428Zm-24.41-45.83h40.55c-.41-9.9-7.59-18-18.85-18S613,370.33,610.31,382.13Z"/><path class="be7ac743-fe26-4ea2-947a-cec7cc1f6c26" d="M676.57,408.06c4.45,5.83,10.08,9,16.2,9,6.72,0,10.67-3.95,10.67-9.68,0-13.84-32.3-11.56-32.3-34.09,0-10.37,8.59-19.17,21-19.17,10,0,17.49,4.55,22.92,11.46L706.7,373c-4.05-5.53-8.79-8.79-14.42-8.79-5.83,0-9.58,3.75-9.58,8.79,0,13.84,32.3,11.46,32.3,34.19-.19,12.15-9.68,20.05-22,20.05-10.87,0-18.57-4.15-24.7-11.55Z"/></svg>