<?xml version="1.0" encoding="UTF-8" standalone="no"?>
<!-- Created with Inkscape (http://www.inkscape.org/) -->
<svg xmlns:dc="http://purl.org/dc/elements/1.1/" xmlns:cc="http://creativecommons.org/ns#" xmlns:rdf="http://www.w3.org/1999/02/22-rdf-syntax-ns#" xmlns:svg="http://www.w3.org/2000/svg" xmlns="http://www.w3.org/2000/svg" xmlns:sodipodi="http://sodipodi.sourceforge.net/DTD/sodipodi-0.dtd" xmlns:inkscape="http://www.inkscape.org/namespaces/inkscape" version="1.1" id="svg2" xml:space="preserve" width="800" height="800" viewBox="0 0 799.99999 799.99999" sodipodi:docname="logo-france-mobilite.svg" inkscape:version="0.92.5 (2060ec1f9f, 2020-04-08)"><metadata id="metadata8"><rdf:RDF><cc:Work rdf:about=""><dc:format>image/svg+xml</dc:format><dc:type rdf:resource="http://purl.org/dc/dcmitype/StillImage"/><dc:title/></cc:Work></rdf:RDF></metadata><defs id="defs6"><clipPath clipPathUnits="userSpaceOnUse" id="clipPath18"><path d="M 0,595.276 H 595.276 V 0 H 0 Z" id="path16" inkscape:connector-curvature="0"/></clipPath><clipPath clipPathUnits="userSpaceOnUse" id="clipPath94"><path d="m 238.984,354.046 h 39.993 v -74.19 h -39.993 z" id="path92" inkscape:connector-curvature="0"/></clipPath><clipPath clipPathUnits="userSpaceOnUse" id="clipPath98"><path d="m 247.577,310.322 c -6.558,14.82 -6.628,30.672 -1.427,43.724 -8.046,-13.599 -9.708,-30.462 -2.977,-45.674 6.731,-15.211 20.327,-25.324 35.804,-28.516 -13.159,4.93 -24.844,15.644 -31.4,30.466" id="path96" inkscape:connector-curvature="0"/></clipPath><linearGradient x1="0" y1="0" x2="1" y2="0" gradientUnits="userSpaceOnUse" gradientTransform="matrix(28.848637,-57.513527,-57.513527,-28.848637,239.22998,341.97275)" spreadMethod="pad" id="linearGradient108"><stop style="stop-opacity:1;stop-color:#b20f0b" offset="0" id="stop100"/><stop style="stop-opacity:1;stop-color:#e30613" offset="0.3681523" id="stop102"/><stop style="stop-opacity:1;stop-color:#e30613" offset="0.490909" id="stop104"/><stop style="stop-opacity:1;stop-color:#e30613" offset="1" id="stop106"/></linearGradient><clipPath clipPathUnits="userSpaceOnUse" id="clipPath130"><path d="m 249.378,274.933 c 14.308,-12.49 33.261,-16.389 50.815,-12.219 v 0 c -15.995,-1.251 -33.259,4.193 -47.201,16.362 v 0 c -13.939,12.167 -21.667,28.537 -22.588,44.554 v 0 c -1.761,-17.958 4.665,-36.208 18.974,-48.697" id="path128" inkscape:connector-curvature="0"/></clipPath><linearGradient x1="0" y1="0" x2="1" y2="0" gradientUnits="userSpaceOnUse" gradientTransform="matrix(0,62.523537,62.523537,0,265.15665,261.10663)" spreadMethod="pad" id="linearGradient142"><stop style="stop-opacity:1;stop-color:#f8f8f8" offset="0" id="stop136"/><stop style="stop-opacity:1;stop-color:#d4d4d4" offset="0.490909" id="stop138"/><stop style="stop-opacity:1;stop-color:#b0b0b0" offset="1" id="stop140"/></linearGradient><clipPath clipPathUnits="userSpaceOnUse" id="clipPath152"><path d="M 0,595.276 H 595.276 V 0 H 0 Z" id="path150" inkscape:connector-curvature="0"/></clipPath><clipPath clipPathUnits="userSpaceOnUse" id="clipPath160"><path d="m 230.12,323.63 h 70.073 V 261.107 H 230.12 Z" id="path158" inkscape:connector-curvature="0"/></clipPath><clipPath clipPathUnits="userSpaceOnUse" id="clipPath176"><path d="M 234.425,280.09 H 338.248 V 243.52 H 234.425 Z" id="path174" inkscape:connector-curvature="0"/></clipPath><clipPath clipPathUnits="userSpaceOnUse" id="clipPath180"><path d="m 282.87,250.539 c -20.739,3.427 -37.986,14.627 -48.445,29.551 9.029,-18.399 26.139,-32.195 47.426,-35.714 21.287,-3.518 41.928,4.037 56.397,18.554 -14.706,-10.766 -34.64,-15.821 -55.378,-12.391" id="path178" inkscape:connector-curvature="0"/></clipPath><linearGradient x1="0" y1="0" x2="1" y2="0" gradientUnits="userSpaceOnUse" gradientTransform="matrix(103.8233,0,0,-103.8233,234.42513,261.80545)" spreadMethod="pad" id="linearGradient190"><stop style="stop-opacity:1;stop-color:#004e80" offset="0" id="stop182"/><stop style="stop-opacity:1;stop-color:#0075bf" offset="0.3681523" id="stop184"/><stop style="stop-opacity:1;stop-color:#0075bf" offset="0.490909" id="stop186"/><stop style="stop-opacity:1;stop-color:#0075bf" offset="1" id="stop188"/></linearGradient><clipPath clipPathUnits="userSpaceOnUse" id="clipPath264"><path d="M 0,595.276 H 595.276 V 0 H 0 Z" id="path262" inkscape:connector-curvature="0"/></clipPath><clipPath clipPathUnits="userSpaceOnUse" id="clipPath284"><path d="m 238.984,354.046 h 39.993 v -74.19 h -39.993 z" id="path282" inkscape:connector-curvature="0"/></clipPath><clipPath clipPathUnits="userSpaceOnUse" id="clipPath288"><path d="m 247.577,310.322 c -6.558,14.82 -6.628,30.672 -1.427,43.724 -8.046,-13.599 -9.708,-30.462 -2.977,-45.674 6.731,-15.211 20.327,-25.324 35.804,-28.516 -13.159,4.93 -24.844,15.644 -31.4,30.466" id="path286" inkscape:connector-curvature="0"/></clipPath><linearGradient x1="0" y1="0" x2="1" y2="0" gradientUnits="userSpaceOnUse" gradientTransform="matrix(28.848637,-57.513527,-57.513527,-28.848637,239.22998,341.97275)" spreadMethod="pad" id="linearGradient298"><stop style="stop-opacity:1;stop-color:#b20f0b" offset="0" id="stop290"/><stop style="stop-opacity:1;stop-color:#e30613" offset="0.3681523" id="stop292"/><stop style="stop-opacity:1;stop-color:#e30613" offset="0.490909" id="stop294"/><stop style="stop-opacity:1;stop-color:#e30613" offset="1" id="stop296"/></linearGradient><clipPath clipPathUnits="userSpaceOnUse" id="clipPath320"><path d="m 249.378,274.933 c 14.308,-12.49 33.261,-16.389 50.815,-12.219 v 0 c -15.995,-1.251 -33.259,4.193 -47.201,16.362 v 0 c -13.939,12.167 -21.667,28.537 -22.588,44.554 v 0 c -1.761,-17.958 4.665,-36.208 18.974,-48.697" id="path318" inkscape:connector-curvature="0"/></clipPath><linearGradient x1="0" y1="0" x2="1" y2="0" gradientUnits="userSpaceOnUse" gradientTransform="matrix(0,62.523537,62.523537,0,265.15665,261.10663)" spreadMethod="pad" id="linearGradient332"><stop style="stop-opacity:1;stop-color:#f8f8f8" offset="0" id="stop326"/><stop style="stop-opacity:1;stop-color:#d4d4d4" offset="0.490909" id="stop328"/><stop style="stop-opacity:1;stop-color:#b0b0b0" offset="1" id="stop330"/></linearGradient><clipPath clipPathUnits="userSpaceOnUse" id="clipPath342"><path d="M 0,595.276 H 595.276 V 0 H 0 Z" id="path340" inkscape:connector-curvature="0"/></clipPath><clipPath clipPathUnits="userSpaceOnUse" id="clipPath350"><path d="m 230.12,323.63 h 70.073 V 261.107 H 230.12 Z" id="path348" inkscape:connector-curvature="0"/></clipPath><clipPath clipPathUnits="userSpaceOnUse" id="clipPath366"><path d="M 234.425,280.09 H 338.248 V 243.52 H 234.425 Z" id="path364" inkscape:connector-curvature="0"/></clipPath><clipPath clipPathUnits="userSpaceOnUse" id="clipPath370"><path d="m 282.87,250.539 c -20.739,3.427 -37.986,14.627 -48.445,29.551 9.029,-18.399 26.139,-32.195 47.426,-35.714 21.287,-3.518 41.928,4.037 56.397,18.554 -14.706,-10.766 -34.64,-15.821 -55.378,-12.391" id="path368" inkscape:connector-curvature="0"/></clipPath><linearGradient x1="0" y1="0" x2="1" y2="0" gradientUnits="userSpaceOnUse" gradientTransform="matrix(103.8233,0,0,-103.8233,234.42513,261.80545)" spreadMethod="pad" id="linearGradient380"><stop style="stop-opacity:1;stop-color:#004e80" offset="0" id="stop372"/><stop style="stop-opacity:1;stop-color:#0075bf" offset="0.3681523" id="stop374"/><stop style="stop-opacity:1;stop-color:#0075bf" offset="0.490909" id="stop376"/><stop style="stop-opacity:1;stop-color:#0075bf" offset="1" id="stop378"/></linearGradient><clipPath clipPathUnits="userSpaceOnUse" id="clipPath514"><path d="M 0,595.276 H 595.276 V 0 H 0 Z" id="path512" inkscape:connector-curvature="0"/></clipPath><clipPath clipPathUnits="userSpaceOnUse" id="clipPath534"><path d="m 260.3,111.501 h 29.63 V 56.5347 H 260.3 Z" id="path532" inkscape:connector-curvature="0"/></clipPath><clipPath clipPathUnits="userSpaceOnUse" id="clipPath538"><path d="m 266.666,79.107 c -4.858,10.979 -4.911,22.724 -1.057,32.394 -5.961,-10.076 -7.192,-22.569 -2.205,-33.839 4.986,-11.27 15.06,-18.763 26.526,-21.127 -9.749,3.652 -18.406,11.59 -23.264,22.572" id="path536" inkscape:connector-curvature="0"/></clipPath><linearGradient x1="0" y1="0" x2="1" y2="0" gradientUnits="userSpaceOnUse" gradientTransform="matrix(21.373457,-42.610783,-42.610783,-21.373457,260.48224,102.55595)" spreadMethod="pad" id="linearGradient548"><stop style="stop-opacity:1;stop-color:#b20f0b" offset="0" id="stop540"/><stop style="stop-opacity:1;stop-color:#e30613" offset="0.3681523" id="stop542"/><stop style="stop-opacity:1;stop-color:#e30613" offset="0.490909" id="stop544"/><stop style="stop-opacity:1;stop-color:#e30613" offset="1" id="stop546"/></linearGradient><clipPath clipPathUnits="userSpaceOnUse" id="clipPath570"><path d="m 268,52.888 c 10.601,-9.254 24.643,-12.143 37.649,-9.053 v 0 c -11.85,-0.928 -24.642,3.106 -34.97,12.122 v 0 c -10.328,9.013 -16.054,21.142 -16.736,33.01 v 0 C 252.639,75.662 257.4,62.141 268,52.888" id="path568" inkscape:connector-curvature="0"/></clipPath><linearGradient x1="0" y1="0" x2="1" y2="0" gradientUnits="userSpaceOnUse" gradientTransform="matrix(0,46.322609,46.322609,0,279.69086,42.643627)" spreadMethod="pad" id="linearGradient582"><stop style="stop-opacity:1;stop-color:#f8f8f8" offset="0" id="stop576"/><stop style="stop-opacity:1;stop-color:#d4d4d4" offset="0.490909" id="stop578"/><stop style="stop-opacity:1;stop-color:#b0b0b0" offset="1" id="stop580"/></linearGradient><clipPath clipPathUnits="userSpaceOnUse" id="clipPath592"><path d="M 0,595.276 H 595.276 V 0 H 0 Z" id="path590" inkscape:connector-curvature="0"/></clipPath><clipPath clipPathUnits="userSpaceOnUse" id="clipPath600"><path d="m 253.733,88.9662 h 51.916 V 42.6436 h -51.916 z" id="path598" inkscape:connector-curvature="0"/></clipPath><clipPath clipPathUnits="userSpaceOnUse" id="clipPath616"><path d="m 256.922,56.7085 h 76.921 V 29.6143 h -76.921 z" id="path614" inkscape:connector-curvature="0"/></clipPath><clipPath clipPathUnits="userSpaceOnUse" id="clipPath620"><path d="m 292.814,34.814 c -15.365,2.539 -28.143,10.837 -35.892,21.895 6.689,-13.633 19.366,-23.854 35.138,-26.461 15.771,-2.606 31.064,2.991 41.784,13.747 -10.896,-7.977 -25.664,-11.722 -41.03,-9.181" id="path618" inkscape:connector-curvature="0"/></clipPath><linearGradient x1="0" y1="0" x2="1" y2="0" gradientUnits="userSpaceOnUse" gradientTransform="matrix(76.920891,0,0,-76.920891,256.92239,43.161381)" spreadMethod="pad" id="linearGradient630"><stop style="stop-opacity:1;stop-color:#004e80" offset="0" id="stop622"/><stop style="stop-opacity:1;stop-color:#0075bf" offset="0.3681523" id="stop624"/><stop style="stop-opacity:1;stop-color:#0075bf" offset="0.490909" id="stop626"/><stop style="stop-opacity:1;stop-color:#0075bf" offset="1" id="stop628"/></linearGradient><clipPath clipPathUnits="userSpaceOnUse" id="clipPath748"><path d="M 0,595.276 H 595.276 V 0 H 0 Z" id="path746" inkscape:connector-curvature="0"/></clipPath><clipPath clipPathUnits="userSpaceOnUse" id="clipPath824"><path d="m 260.3,537.105 h 29.63 V 482.139 H 260.3 Z" id="path822" inkscape:connector-curvature="0"/></clipPath><clipPath clipPathUnits="userSpaceOnUse" id="clipPath828"><path d="m 266.666,504.711 c -4.858,10.98 -4.911,22.725 -1.057,32.395 -5.961,-10.076 -7.192,-22.569 -2.205,-33.84 4.986,-11.269 15.06,-18.762 26.526,-21.127 -9.749,3.653 -18.406,11.591 -23.264,22.572" id="path826" inkscape:connector-curvature="0"/></clipPath><linearGradient x1="0" y1="0" x2="1" y2="0" gradientUnits="userSpaceOnUse" gradientTransform="matrix(21.373457,-42.610783,-42.610783,-21.373457,260.48224,528.16071)" spreadMethod="pad" id="linearGradient838"><stop style="stop-opacity:1;stop-color:#b20f0b" offset="0" id="stop830"/><stop style="stop-opacity:1;stop-color:#e30613" offset="0.3681523" id="stop832"/><stop style="stop-opacity:1;stop-color:#e30613" offset="0.490909" id="stop834"/><stop style="stop-opacity:1;stop-color:#e30613" offset="1" id="stop836"/></linearGradient><clipPath clipPathUnits="userSpaceOnUse" id="clipPath860"><path d="m 268,478.492 c 10.601,-9.254 24.643,-12.143 37.649,-9.053 v 0 c -11.85,-0.927 -24.642,3.107 -34.97,12.122 v 0 c -10.328,9.015 -16.054,21.143 -16.736,33.01 v 0 C 252.639,501.267 257.4,487.745 268,478.492" id="path858" inkscape:connector-curvature="0"/></clipPath><linearGradient x1="0" y1="0" x2="1" y2="0" gradientUnits="userSpaceOnUse" gradientTransform="matrix(0,46.322609,46.322609,0,279.69086,468.24835)" spreadMethod="pad" id="linearGradient872"><stop style="stop-opacity:1;stop-color:#f8f8f8" offset="0" id="stop866"/><stop style="stop-opacity:1;stop-color:#d4d4d4" offset="0.490909" id="stop868"/><stop style="stop-opacity:1;stop-color:#b0b0b0" offset="1" id="stop870"/></linearGradient><clipPath clipPathUnits="userSpaceOnUse" id="clipPath882"><path d="M 0,595.276 H 595.276 V 0 H 0 Z" id="path880" inkscape:connector-curvature="0"/></clipPath><clipPath clipPathUnits="userSpaceOnUse" id="clipPath890"><path d="m 253.733,514.571 h 51.916 v -46.323 h -51.916 z" id="path888" inkscape:connector-curvature="0"/></clipPath><clipPath clipPathUnits="userSpaceOnUse" id="clipPath906"><path d="m 256.922,482.313 h 76.921 v -27.094 h -76.921 z" id="path904" inkscape:connector-curvature="0"/></clipPath><clipPath clipPathUnits="userSpaceOnUse" id="clipPath910"><path d="m 292.814,460.419 c -15.365,2.539 -28.143,10.837 -35.892,21.894 6.689,-13.632 19.366,-23.853 35.138,-26.46 15.771,-2.606 31.064,2.991 41.784,13.747 -10.896,-7.977 -25.664,-11.722 -41.03,-9.181" id="path908" inkscape:connector-curvature="0"/></clipPath><linearGradient x1="0" y1="0" x2="1" y2="0" gradientUnits="userSpaceOnUse" gradientTransform="matrix(76.920891,0,0,-76.920891,256.92239,468.76611)" spreadMethod="pad" id="linearGradient920"><stop style="stop-opacity:1;stop-color:#004e80" offset="0" id="stop912"/><stop style="stop-opacity:1;stop-color:#0075bf" offset="0.3681523" id="stop914"/><stop style="stop-opacity:1;stop-color:#0075bf" offset="0.490909" id="stop916"/><stop style="stop-opacity:1;stop-color:#0075bf" offset="1" id="stop918"/></linearGradient><clipPath clipPathUnits="userSpaceOnUse" id="clipPath962"><path d="M 0,595.276 H 595.276 V 0 H 0 Z" id="path960" inkscape:connector-curvature="0"/></clipPath><clipPath clipPathUnits="userSpaceOnUse" id="clipPath1042"><path d="M 236.647,403.244 H 376.603 V 332.57 H 236.647 Z" id="path1040" inkscape:connector-curvature="0"/></clipPath><clipPath clipPathUnits="userSpaceOnUse" id="clipPath1046"><path d="m 295.435,388.551 c 27.956,11.071 57.351,10.039 81.168,-0.562 -24.622,15.915 -55.765,20.233 -84.461,8.869 -28.695,-11.363 -48.442,-35.829 -55.496,-64.289 10.106,24.036 30.827,44.914 58.789,55.982" id="path1044" inkscape:connector-curvature="0"/></clipPath><linearGradient x1="0" y1="0" x2="1" y2="0" gradientUnits="userSpaceOnUse" gradientTransform="matrix(-108.74627,-49.266895,-49.266895,108.74627,354.72678,401.70428)" spreadMethod="pad" id="linearGradient1056"><stop style="stop-opacity:1;stop-color:#b20f0b" offset="0" id="stop1048"/><stop style="stop-opacity:1;stop-color:#e30613" offset="0.3681523" id="stop1050"/><stop style="stop-opacity:1;stop-color:#e30613" offset="0.490909" id="stop1052"/><stop style="stop-opacity:1;stop-color:#e30613" offset="1" id="stop1054"/></linearGradient><clipPath clipPathUnits="userSpaceOnUse" id="clipPath1078"><path d="M 229.692,387.807 C 205.485,362.195 196.865,327.344 203.31,294.492 v 0 c -1.148,29.746 10.212,61.355 33.796,86.311 v 0 c 23.58,24.95 54.497,38.077 84.261,38.61 v 0 c -5.014,0.692 -10.059,1.039 -15.087,1.039 v 0 c -28.226,10e-4 -56.044,-10.905 -76.588,-32.645" id="path1076" inkscape:connector-curvature="0"/></clipPath><linearGradient x1="0" y1="0" x2="1" y2="0" gradientUnits="userSpaceOnUse" gradientTransform="matrix(115.91883,-4.5860457,-4.5860457,-115.91883,202.899,359.56763)" spreadMethod="pad" id="linearGradient1090"><stop style="stop-opacity:1;stop-color:#f8f8f8" offset="0" id="stop1084"/><stop style="stop-opacity:1;stop-color:#d4d4d4" offset="0.490909" id="stop1086"/><stop style="stop-opacity:1;stop-color:#b0b0b0" offset="1" id="stop1088"/></linearGradient><clipPath clipPathUnits="userSpaceOnUse" id="clipPath1100"><path d="M 0,595.276 H 595.276 V 0 H 0 Z" id="path1098" inkscape:connector-curvature="0"/></clipPath><clipPath clipPathUnits="userSpaceOnUse" id="clipPath1108"><path d="m 201.247,420.452 h 120.12 V 294.491 h -120.12 z" id="path1106" inkscape:connector-curvature="0"/></clipPath><clipPath clipPathUnits="userSpaceOnUse" id="clipPath1124"><path d="m 168.216,415.151 h 72.133 v -191.23 h -72.133 z" id="path1122" inkscape:connector-curvature="0"/></clipPath><clipPath clipPathUnits="userSpaceOnUse" id="clipPath1128"><path d="m 182.007,327.503 c 7.876,38.197 29.905,69.352 58.342,87.649 -34.775,-15.39 -61.608,-46.1 -69.694,-85.309 -8.082,-39.208 4.41,-78.032 30.265,-105.921 -18.883,28.054 -26.792,65.382 -18.913,103.581" id="path1126" inkscape:connector-curvature="0"/></clipPath><linearGradient x1="0" y1="0" x2="1" y2="0" gradientUnits="userSpaceOnUse" gradientTransform="matrix(-7.615346,-192.48872,-192.48872,7.615346,206.44878,416.49271)" spreadMethod="pad" id="linearGradient1138"><stop style="stop-opacity:1;stop-color:#004e80" offset="0" id="stop1130"/><stop style="stop-opacity:1;stop-color:#0075bf" offset="0.3681523" id="stop1132"/><stop style="stop-opacity:1;stop-color:#0075bf" offset="0.490909" id="stop1134"/><stop style="stop-opacity:1;stop-color:#0075bf" offset="1" id="stop1136"/></linearGradient></defs><sodipodi:namedview pagecolor="#ffffff" bordercolor="#666666" borderopacity="1" objecttolerance="10" gridtolerance="10" guidetolerance="10" inkscape:pageopacity="0" inkscape:pageshadow="2" inkscape:window-width="2560" inkscape:window-height="1376" id="namedview4" showgrid="false" inkscape:zoom="0.84100751" inkscape:cx="474.98739" inkscape:cy="270.71486" inkscape:window-x="0" inkscape:window-y="27" inkscape:window-maximized="1" inkscape:current-layer="g10"/><g id="g10" inkscape:groupmode="layer" inkscape:label="18001-1_france-french-mob_RVB" transform="matrix(1.3333333,0,0,-1.3333333,0,799.99998)">






















<g id="g1638" transform="matrix(1.0576434,0,0,1.0576439,-14.794845,-14.795188)"><g id="g12"><g clip-path="url(#clipPath18)" id="g14"><g transform="translate(445.1445,304.9577)" id="g20"><path inkscape:connector-curvature="0" id="path22" style="fill:#ffffff;fill-opacity:1;fill-rule:nonzero;stroke:none" d="m 0,0 c 0,-84.534 -68.528,-153.062 -153.063,-153.062 -84.534,0 -153.062,68.528 -153.062,153.062 0,84.534 68.528,153.062 153.062,153.062 C -68.528,153.062 0,84.534 0,0"/></g><g transform="translate(445.1445,304.9577)" id="g24"><path inkscape:connector-curvature="0" id="path26" style="fill:none;stroke:#b2b2b2;stroke-width:0.5;stroke-linecap:butt;stroke-linejoin:miter;stroke-miterlimit:10;stroke-dasharray:none;stroke-opacity:1" d="m 0,0 c 0,-84.534 -68.528,-153.062 -153.063,-153.062 -84.534,0 -153.062,68.528 -153.062,153.062 0,84.534 68.528,153.062 153.062,153.062 C -68.528,153.062 0,84.534 0,0 Z"/></g><g transform="translate(386.9053,399.2423)" id="g28"><path inkscape:connector-curvature="0" id="path30" style="fill:#4f7383;fill-opacity:1;fill-rule:nonzero;stroke:none" d="m 0,0 -2.107,2.11 c 0,0 -10.936,9.072 -13.18,10.647 -2.234,1.583 -4.636,3.44 -7.382,5.26 -2.845,1.667 -5.921,3.469 -9.208,5.394 -3.349,1.802 -7.097,3.369 -10.944,5.204 -3.914,1.685 -8.215,3.001 -12.598,4.614 -4.52,1.165 -9.206,2.531 -14.144,3.465 -4.98,0.725 -10.079,1.834 -15.434,1.986 -10.644,1.055 -21.964,0.197 -33.425,-1.585 -11.483,-1.934 -22.943,-5.784 -34.03,-10.803 -10.973,-5.293 -21.369,-12.414 -30.596,-20.399 -9.01,-8.451 -17.01,-17.916 -23.421,-28.214 -6.121,-10.445 -11.101,-21.337 -14.219,-32.427 -2.948,-11.092 -4.987,-22.095 -5.062,-32.629 -0.42,-5.252 0.147,-10.36 0.325,-15.292 0.405,-4.919 1.242,-9.636 1.909,-14.156 1.124,-4.438 1.946,-8.758 3.187,-12.735 1.393,-3.93 2.515,-7.73 3.925,-11.16 1.529,-3.383 2.959,-6.549 4.282,-9.476 1.487,-2.844 3.041,-5.36 4.343,-7.68 1.291,-2.332 2.511,-4.367 3.784,-5.999 1.202,-1.679 2.224,-3.108 3.053,-4.266 1.658,-2.316 2.542,-3.551 2.542,-3.551 0,0 -0.859,1.253 -2.469,3.603 -0.804,1.174 -1.797,2.623 -2.964,4.326 -1.241,1.659 -2.418,3.718 -3.656,6.068 -1.25,2.34 -2.744,4.873 -4.166,7.73 -1.256,2.939 -2.615,6.117 -4.067,9.513 -1.331,3.44 -2.368,7.241 -3.671,11.163 -1.151,3.971 -1.877,8.276 -2.901,12.689 -0.568,4.494 -1.301,9.173 -1.602,14.041 -0.075,4.884 -0.535,9.929 -0.011,15.104 0.281,10.381 2.521,21.172 5.629,31.988 3.279,10.815 8.38,21.368 14.549,31.426 6.457,9.912 14.426,18.944 23.311,26.954 9.333,7.715 19.25,14.185 29.954,19.102 10.788,4.61 21.87,8.09 32.926,9.718 11.035,1.476 21.878,2.09 32.025,0.862 5.108,-0.237 9.951,-1.414 14.677,-2.19 4.686,-0.987 9.114,-2.386 13.385,-3.568 4.13,-1.63 8.184,-2.949 11.858,-4.623 3.607,-1.823 7.122,-3.365 10.252,-5.133 3.065,-1.88 5.933,-3.64 8.585,-5.267 2.553,-1.771 4.777,-3.573 6.849,-5.102 2.084,-1.521 3.895,-2.935 5.309,-4.361 1.469,-1.36 2.718,-2.515 3.732,-3.452 1.502,-1.386 2.477,-2.286 2.886,-2.663 l -2.24,-2.238 c -0.409,0.362 -1.378,1.222 -2.868,2.544 -1.009,0.894 -2.256,1.995 -3.719,3.291 -1.415,1.353 -3.202,2.71 -5.27,4.147 -2.051,1.456 -4.27,3.14 -6.779,4.828 -2.616,1.522 -5.445,3.169 -8.467,4.928 -3.062,1.68 -6.52,3.079 -10.054,4.759 -3.579,1.581 -7.546,2.737 -11.569,4.211 -4.133,1.123 -8.463,2.264 -12.982,3.18 -4.577,0.604 -9.251,1.682 -14.167,1.781 -9.77,0.98 -20.147,0.081 -30.663,-1.513 -10.512,-1.9 -21.03,-5.349 -31.198,-9.989 -9.91,-4.983 -19.729,-11.439 -27.896,-18.798 -8.349,-7.87 -15.688,-16.418 -21.443,-25.981 -5.574,-9.581 -10.197,-19.559 -12.914,-29.763 -2.721,-10.162 -4.455,-20.27 -4.507,-29.915 -0.446,-9.64 0.786,-18.712 2.174,-26.968 1.051,-4.062 1.87,-8.002 2.988,-11.649 1.294,-3.593 2.375,-7.054 3.654,-10.202 1.422,-3.087 2.753,-5.976 3.983,-8.648 1.357,-2.607 2.813,-4.894 4.015,-7.013 2.3,-4.313 4.876,-7.187 6.315,-9.361 1.531,-2.111 2.348,-3.237 2.348,-3.237 0,0 -0.791,1.145 -2.275,3.288 -1.388,2.204 -3.905,5.143 -6.1,9.493 -1.15,2.139 -2.545,4.442 -3.836,7.062 -1.165,2.685 -2.424,5.588 -3.768,8.689 -1.201,3.155 -2.197,6.619 -3.401,10.206 -1.027,3.64 -1.752,7.566 -2.703,11.601 -0.472,4.122 -1.262,8.387 -1.486,12.849 -0.133,4.469 -0.502,9.081 -0.067,13.82 0.262,9.492 2.196,19.388 5.079,29.275 2.879,9.93 7.624,19.568 13.246,28.762 5.744,9.128 13.237,17.397 21.209,24.611 8.578,7.347 17.638,12.916 27.383,17.607 9.868,4.229 20.009,7.307 30.092,8.9 10.091,1.286 19.991,1.942 29.265,0.789 4.667,-0.186 9.086,-1.332 13.41,-1.987 4.262,-0.968 8.337,-2.142 12.218,-3.283 3.771,-1.491 7.492,-2.651 10.829,-4.22 3.291,-1.667 6.519,-3.043 9.36,-4.688 2.8,-1.714 5.42,-3.318 7.843,-4.801 2.315,-1.639 4.356,-3.269 6.246,-4.669 1.906,-1.382 3.55,-2.684 4.841,-3.987 1.34,-1.241 2.48,-2.297 3.404,-3.153 1.353,-1.25 2.233,-2.062 2.613,-2.414 l -2.178,-2.177 c -0.38,0.336 -1.246,1.103 -2.579,2.284 -1.901,1.533 -4.343,4.203 -8.149,6.733 -1.858,1.317 -3.87,2.841 -6.144,4.369 -2.369,1.379 -4.931,2.87 -7.67,4.464 -2.771,1.522 -5.904,2.79 -9.103,4.312 -3.24,1.434 -6.833,2.483 -10.475,3.82 -3.741,1.024 -7.662,2.053 -11.75,2.893 -4.144,0.549 -8.374,1.535 -12.823,1.631 -8.842,0.906 -18.236,0.106 -27.758,-1.305 -9.513,-1.705 -19.049,-4.775 -28.259,-8.95 -8.974,-4.468 -17.921,-10.278 -25.309,-16.89 -7.598,-7.085 -14.279,-14.768 -19.53,-23.389 -5.096,-8.631 -9.343,-17.619 -11.86,-26.827 -2.534,-9.166 -4.163,-18.289 -4.288,-27.004 -0.477,-8.706 0.567,-16.912 1.748,-24.384 0.915,-3.677 1.626,-7.243 2.6,-10.547 1.137,-3.258 2.087,-6.392 3.209,-9.247 1.257,-2.802 2.432,-5.424 3.519,-7.848 1.199,-2.368 2.493,-4.447 3.558,-6.372 2.038,-3.917 4.332,-6.539 5.61,-8.515 1.362,-1.921 2.087,-2.945 2.087,-2.945 0,0 -0.7,1.042 -2.013,2.996 -1.228,2.004 -3.462,4.691 -5.393,8.643 -1.013,1.945 -2.246,4.039 -3.379,6.42 -1.021,2.436 -2.125,5.07 -3.304,7.885 -1.045,2.862 -1.909,5.998 -2.956,9.249 -0.884,3.298 -1.5,6.848 -2.315,10.499 -0.982,7.418 -1.813,15.527 -1.129,24.079 0.33,8.56 2.16,17.47 4.853,26.36 2.677,8.934 7.043,17.583 12.184,25.827 5.241,8.189 12.07,15.589 19.295,22.027 7.797,6.595 15.976,11.521 24.788,15.699 8.911,3.769 18.069,6.47 27.156,7.87 9.096,1.106 18.014,1.663 26.361,0.586 4.203,-0.182 8.178,-1.235 12.069,-1.835 3.834,-0.892 7.5,-1.954 10.99,-2.997 3.39,-1.354 6.736,-2.404 9.736,-3.828 2.959,-1.509 5.861,-2.753 8.412,-4.241 2.516,-1.548 4.872,-2.997 7.049,-4.336 2.081,-1.48 3.914,-2.95 5.612,-4.213 3.486,-2.421 5.677,-4.982 7.408,-6.436 1.197,-1.109 1.976,-1.829 2.326,-2.154 l -2.887,-2.887 c -0.347,0.307 -1.103,0.975 -2.266,2.002 -1.689,1.359 -3.859,3.722 -7.237,5.966 -1.648,1.167 -3.435,2.516 -5.452,3.872 -2.101,1.221 -4.376,2.544 -6.804,3.955 -2.457,1.353 -5.236,2.477 -8.073,3.826 -2.871,1.276 -6.056,2.206 -9.286,3.392 -3.312,0.918 -6.791,1.825 -10.412,2.58 -3.673,0.489 -7.418,1.373 -11.362,1.465 -7.835,0.82 -16.16,0.128 -24.6,-1.09 -8.429,-1.496 -16.893,-4.16 -25.06,-7.836 -7.954,-3.912 -15.949,-9.027 -22.485,-14.829 -6.776,-6.237 -12.737,-12.985 -17.433,-20.587 -4.568,-7.602 -8.397,-15.519 -10.69,-23.646 -2.319,-8.084 -3.829,-16.139 -4.021,-23.842 -0.501,-7.693 0.348,-14.956 1.314,-21.57 0.77,-3.261 1.368,-6.417 2.19,-9.349 0.97,-2.89 1.781,-5.669 2.737,-8.205 1.081,-2.488 2.091,-4.817 3.025,-6.97 1.029,-2.107 2.152,-3.958 3.07,-5.671 1.756,-3.483 3.747,-5.827 4.854,-7.586 1.179,-1.712 1.809,-2.626 1.809,-2.626 0,0 -0.604,0.93 -1.735,2.675 -1.055,1.789 -2.986,4.196 -4.635,7.712 -0.867,1.732 -1.927,3.596 -2.891,5.716 -0.867,2.164 -1.806,4.505 -2.809,7.006 -0.878,2.542 -1.604,5.32 -2.484,8.203 -0.731,2.924 -1.234,6.064 -1.906,9.296 -0.767,6.56 -1.404,13.723 -0.698,21.26 0.397,7.547 2.103,15.387 4.579,23.196 2.449,7.851 6.395,15.429 11.006,22.645 4.685,7.172 10.786,13.633 17.193,19.233 6.944,5.783 14.161,10.018 21.958,13.644 7.869,3.271 15.955,5.569 23.958,6.763 8.016,0.914 15.866,1.367 23.207,0.377 3.697,-0.177 7.19,-1.129 10.611,-1.668 3.368,-0.805 6.592,-1.746 9.657,-2.681 2.976,-1.203 5.917,-2.135 8.549,-3.4 2.598,-1.337 5.147,-2.437 7.384,-3.755 2.209,-1.367 4.276,-2.647 6.187,-3.83 1.824,-1.307 3.434,-2.602 4.923,-3.716 3.058,-2.135 4.979,-4.391 6.499,-5.671 1.027,-0.955 1.696,-1.577 2.013,-1.872 l -3.242,-3.242 c -0.312,0.275 -0.953,0.84 -1.937,1.707 -1.466,1.176 -3.354,3.22 -6.284,5.163 -1.43,1.013 -2.982,2.179 -4.729,3.354 -1.824,1.059 -3.795,2.203 -5.901,3.427 -2.129,1.174 -4.537,2.148 -6.995,3.317 -2.486,1.111 -5.247,1.918 -8.043,2.947 -2.868,0.806 -5.881,1.587 -9.015,2.254 -3.181,0.427 -6.423,1.205 -9.837,1.294 -6.782,0.732 -13.99,0.153 -21.301,-0.861 -7.298,-1.276 -14.641,-3.513 -21.722,-6.665 -6.89,-3.328 -13.893,-7.714 -19.541,-12.67 -5.918,-5.347 -11.131,-11.116 -15.25,-17.651 -4.02,-6.523 -7.417,-13.321 -9.477,-20.316 -2.1,-6.954 -3.487,-13.891 -3.754,-20.536 -0.53,-6.633 0.109,-12.911 0.849,-18.63 0.616,-2.825 1.096,-5.553 1.755,-8.096 0.794,-2.507 1.457,-4.913 2.241,-7.116 0.893,-2.161 1.729,-4.185 2.502,-6.056 0.852,-1.834 1.792,-3.447 2.556,-4.939 1.46,-3.028 3.133,-5.083 4.059,-6.617 0.988,-1.495 1.514,-2.293 1.514,-2.293 0,0 -0.5,0.814 -1.439,2.341 -0.874,1.56 -2.485,3.677 -3.837,6.738 -0.712,1.51 -1.591,3.135 -2.376,4.981 -0.707,1.88 -1.471,3.914 -2.287,6.087 -0.704,2.208 -1.283,4.612 -1.986,7.111 -0.571,2.532 -0.956,5.242 -1.472,8.038 -0.544,5.661 -0.973,11.837 -0.24,18.311 0.469,6.487 2.049,13.207 4.303,19.885 2.213,6.719 5.723,13.176 9.781,19.316 4.107,6.109 9.448,11.585 15.005,16.309 6.054,4.933 12.267,8.442 19.004,11.491 6.781,2.751 13.749,4.627 20.622,5.603 6.888,0.714 13.622,1.056 19.914,0.156 3.169,-0.173 6.158,-1.017 9.089,-1.494 2.882,-0.717 5.643,-1.529 8.263,-2.353 2.547,-1.046 5.064,-1.855 7.313,-2.954 2.219,-1.157 4.4,-2.108 6.31,-3.248 1.888,-1.179 3.653,-2.282 5.286,-3.301 1.53,-1.165 2.935,-2.233 4.204,-3.199 2.613,-1.837 4.251,-3.774 5.55,-4.873 1.244,-1.163 1.908,-1.783 1.908,-1.783 l 2.038,-1.749 c 30.539,-30.598 30.463,-80.453 -0.171,-111.141 -14.91,-14.963 -34.756,-23.201 -55.881,-23.201 -20.93,0 -40.584,8.111 -55.391,22.893 l -2.108,2.111 -36.653,-36.653 -2,-2.225 2.116,-2.107 c 25.1,-25.017 58.512,-38.793 94.081,-38.793 35.803,0 69.42,13.929 94.655,39.221 C 51.857,-136.567 51.895,-51.952 0,0"/></g><g transform="translate(234.2153,236.2379)" id="g32"><path inkscape:connector-curvature="0" id="path34" style="fill:#ffffff;fill-opacity:1;fill-rule:nonzero;stroke:none" d="m 0,0 12.589,-9.05 -2.858,-3.975 -8.365,6.013 -6.43,-8.945 7.288,-5.239 -2.858,-3.976 -7.288,5.239 -9.05,-12.589 -4.224,3.037 z"/></g><g transform="translate(247.1509,209.1012)" id="g36"><path inkscape:connector-curvature="0" id="path38" style="fill:#ffffff;fill-opacity:1;fill-rule:nonzero;stroke:none" d="m 0,0 2.714,-1.176 c 3.323,-1.438 4.648,0.211 6.087,3.533 1.459,3.37 1.688,5.438 -1.822,6.958 l -2.48,1.074 z M 1.67,16.948 9.345,13.625 C 15.008,11.174 16.33,6.655 13.534,0.197 11.872,-3.641 9.58,-5.982 5.809,-6.35 l -1.438,-17.438 -5.055,2.187 1.715,16.153 -2.855,1.236 -6.16,-14.226 -4.773,2.066 z"/></g><g transform="translate(267.1465,218.6061)" id="g40"><path inkscape:connector-curvature="0" id="path42" style="fill:#ffffff;fill-opacity:1;fill-rule:nonzero;stroke:none" d="M 0,0 15.188,-3.108 14.206,-7.904 4.114,-5.839 1.978,-16.28 l 8.792,-1.799 -0.981,-4.796 -8.793,1.799 -2.137,-10.441 10.092,-2.065 -1.043,-5.096 -15.187,3.108 z"/></g><g transform="translate(284.5312,215.2536)" id="g44"><path inkscape:connector-curvature="0" id="path46" style="fill:#ffffff;fill-opacity:1;fill-rule:nonzero;stroke:none" d="m 0,0 4.998,0.084 8.219,-21.745 0.102,0.002 -0.366,21.877 5.201,0.087 0.609,-36.309 -4.896,-0.082 -8.321,21.692 -0.102,-0.002 0.366,-21.825 -5.202,-0.087 z"/></g><g transform="translate(328.7607,192.6754)" id="g48"><path inkscape:connector-curvature="0" id="path50" style="fill:#ffffff;fill-opacity:1;fill-rule:nonzero;stroke:none" d="m 0,0 c 1.076,-4.357 -1.499,-9.038 -6.005,-10.15 -3.861,-0.954 -8.782,-0.172 -10.371,6.265 l -4.791,19.409 c -1.137,4.606 1.313,8.94 6.215,10.15 4.654,1.149 8.988,-1.511 10.198,-6.413 l 0.488,-1.981 -5.049,-1.247 -0.416,1.684 c -0.49,1.98 -2.093,3.371 -4.024,2.894 -2.525,-0.623 -2.692,-2.503 -2.105,-4.88 l 4.449,-18.023 c 0.501,-2.03 1.684,-3.419 3.962,-2.856 1.387,0.341 2.973,1.574 2.289,4.346 l -0.428,1.734 5.051,1.247 z"/></g><g transform="translate(324.8232,221.1237)" id="g52"><path inkscape:connector-curvature="0" id="path54" style="fill:#ffffff;fill-opacity:1;fill-rule:nonzero;stroke:none" d="m 0,0 4.645,2.342 7.003,-13.887 5.738,2.894 -7.004,13.886 4.643,2.343 16.351,-32.419 -4.644,-2.343 -7.28,14.434 -5.736,-2.894 7.279,-14.433 -4.644,-2.342 z"/></g><g transform="translate(350.6895,236.2272)" id="g56"><path inkscape:connector-curvature="0" id="path58" style="fill:#ffffff;fill-opacity:1;fill-rule:nonzero;stroke:none" d="m 0,0 3.352,3.709 18.745,-7.935 0.068,0.076 -9.82,17.811 3.384,3.746 26.944,-24.346 -3.487,-3.86 L 22.8,4.007 22.731,3.932 l 8.126,-14.286 -1.744,-1.93 -14.999,6.68 -0.068,-0.077 16.386,-14.805 -3.489,-3.861 z"/></g><g transform="translate(394.8203,248.1725)" id="g60"><path inkscape:connector-curvature="0" id="path62" style="fill:#ffffff;fill-opacity:1;fill-rule:nonzero;stroke:none" d="M 0,0 C 2.222,-1.146 4.012,-0.231 4.876,1.445 5.74,3.123 5.445,5.111 3.224,6.256 l -17.045,8.783 c -2.222,1.146 -4.012,0.232 -4.876,-1.445 -0.865,-1.678 -0.57,-3.666 1.651,-4.811 z m -19.429,4.159 c -5.258,2.71 -5.832,8.055 -3.892,11.818 1.938,3.762 6.624,6.396 11.883,3.687 L 5.606,10.88 C 10.865,8.17 11.439,2.825 9.5,-0.937 7.562,-4.7 2.876,-7.334 -2.383,-4.624 Z"/></g><g transform="translate(408.3418,272.3366)" id="g64"><path inkscape:connector-curvature="0" id="path66" style="fill:#ffffff;fill-opacity:1;fill-rule:nonzero;stroke:none" d="M 0,0 0.547,2.177 C 1.565,6.232 -0.834,7.15 -4.297,8.021 -7.809,8.902 -9.801,8.719 -10.72,5.058 l -0.559,-2.226 z m -15.731,3.949 0.571,2.276 c 0.845,3.364 -0.663,4.689 -3.878,5.497 -3.117,0.782 -5.035,0.054 -5.867,-3.26 l -0.522,-2.078 z m -15.712,-1.419 1.851,7.371 c 1.639,6.531 6.552,7.873 11.153,6.718 l 1.286,-0.322 c 3.759,-0.944 4.834,-2.528 5.66,-5.103 1.734,2.089 4.135,2.643 7.795,1.724 l 1.979,-0.496 C 4.415,10.881 7.146,7.093 5.506,0.563 L 3.779,-6.312 Z"/></g><g transform="translate(381.2207,295.7731)" id="g68"><path inkscape:connector-curvature="0" id="path70" style="fill:#ffffff;fill-opacity:1;fill-rule:nonzero;stroke:none" d="M 0,0 0.375,5.188 36.596,2.57 36.221,-2.618 Z"/></g><g transform="translate(381.916,305.7438)" id="g72"><path inkscape:connector-curvature="0" id="path74" style="fill:#ffffff;fill-opacity:1;fill-rule:nonzero;stroke:none" d="M 0,0 -0.441,5.183 30.554,7.826 29.679,18.09 34.861,18.532 36.179,3.085 Z"/></g><g transform="translate(379.9141,322.8424)" id="g76"><path inkscape:connector-curvature="0" id="path78" style="fill:#ffffff;fill-opacity:1;fill-rule:nonzero;stroke:none" d="M 0,0 -1.178,5.066 34.186,13.29 35.363,8.225 Z"/></g><g transform="translate(380.7979,337.6051)" id="g80"><path inkscape:connector-curvature="0" id="path82" style="fill:#ffffff;fill-opacity:1;fill-rule:nonzero;stroke:none" d="m 0,0 2.236,-5.587 -4.545,-1.819 -6.406,16.004 4.546,1.819 2.236,-5.587 29.166,11.674 1.934,-4.829 z"/></g><g transform="translate(385.3242,364.3991)" id="g84"><path inkscape:connector-curvature="0" id="path86" style="fill:#ffffff;fill-opacity:1;fill-rule:nonzero;stroke:none" d="m 0,0 -13.406,-17.62 -3.073,4.569 9.64,11.524 -0.057,0.085 -14.307,-4.584 -3.074,4.569 21.375,5.772 12.736,8.566 2.902,-4.316 z"/></g><g id="g88"><g id="g90"/><g id="g122"><g id="g120" clip-path="url(#clipPath94)"><g id="g118"><g id="g116" clip-path="url(#clipPath98)"><g id="g114"><g id="g112"><path inkscape:connector-curvature="0" id="path110" style="fill:url(#linearGradient108);stroke:none" d="m 247.577,310.322 c -6.558,14.82 -6.628,30.672 -1.427,43.724 -8.046,-13.599 -9.708,-30.462 -2.977,-45.674 6.731,-15.211 20.327,-25.324 35.804,-28.516 -13.159,4.93 -24.844,15.644 -31.4,30.466"/></g></g></g></g></g></g></g></g></g><g id="g124"><g clip-path="url(#clipPath130)" id="g126"><g id="g132"><g id="g134"><path inkscape:connector-curvature="0" id="path144" style="fill:url(#linearGradient142);stroke:none" d="m 249.378,274.933 c 14.308,-12.49 33.261,-16.389 50.815,-12.219 v 0 c -15.995,-1.251 -33.259,4.193 -47.201,16.362 v 0 c -13.939,12.167 -21.667,28.537 -22.588,44.554 v 0 c -1.761,-17.958 4.665,-36.208 18.974,-48.697"/></g></g></g></g><g id="g146"><g clip-path="url(#clipPath152)" id="g148"><g id="g154"><g id="g156"/><g id="g168"><g id="g166" clip-path="url(#clipPath160)"><g id="g164" transform="translate(252.9922,279.0758)"><path inkscape:connector-curvature="0" id="path162" style="fill:#ffffff;fill-opacity:1;fill-rule:nonzero;stroke:none" d="M 0,0 C -13.939,12.167 -21.667,28.537 -22.588,44.554 -24.349,26.596 -17.923,8.347 -3.614,-4.143 10.694,-16.633 29.646,-20.532 47.201,-16.361 31.206,-17.613 13.941,-12.169 0,0"/></g></g></g></g><g id="g170"><g id="g172"/><g id="g204"><g id="g202" clip-path="url(#clipPath176)"><g id="g200"><g id="g198" clip-path="url(#clipPath180)"><g id="g196"><g id="g194"><path inkscape:connector-curvature="0" id="path192" style="fill:url(#linearGradient190);stroke:none" d="m 282.87,250.539 c -20.739,3.427 -37.986,14.627 -48.445,29.551 9.029,-18.399 26.139,-32.195 47.426,-35.714 21.287,-3.518 41.928,4.037 56.397,18.554 -14.706,-10.766 -34.64,-15.821 -55.378,-12.391"/></g></g></g></g></g></g></g><g transform="translate(195.0869,520.2028)" id="g206"><path inkscape:connector-curvature="0" id="path208" style="fill:#4f7383;fill-opacity:1;fill-rule:nonzero;stroke:none" d="m 0,0 -7.482,-6.612 v 3.538 L 0,3.364 H 2.958 V -37.931 H 0 Z"/></g><g transform="translate(216.749,516.5651)" id="g210"><path inkscape:connector-curvature="0" id="path212" style="fill:#4f7383;fill-opacity:1;fill-rule:nonzero;stroke:none" d="M 0,0 C -2.806,0 -4.362,-2.333 -4.362,-4.937 V -14.98 H -6.086 V 1.319 h 1.724 v -2.164 c 0.947,1.521 2.841,2.366 4.768,2.366 1.589,0 2.739,-0.372 3.922,-1.555 L 3.077,-1.285 C 2.097,-0.304 1.353,0 0,0"/></g><g transform="translate(232.9458,513.8264)" id="g214"><path inkscape:connector-curvature="0" id="path216" style="fill:#4f7383;fill-opacity:1;fill-rule:nonzero;stroke:none" d="M 0,0 C -0.71,1.724 -2.333,2.739 -4.227,2.739 -6.12,2.739 -7.743,1.724 -8.454,0 -8.825,-1.048 -8.927,-1.488 -9.028,-3.077 H 0.575 C 0.473,-1.522 0.439,-0.981 0,0 m -3.72,-10.888 c 1.928,0 3.111,0.574 4.497,1.961 l 1.286,-1.014 c -1.657,-1.657 -3.179,-2.502 -5.884,-2.502 -4.497,0 -6.932,2.907 -6.932,8.351 0,5.275 2.435,8.352 6.526,8.352 4.092,0 6.526,-2.942 6.526,-7.946 V -4.464 H -9.028 c 0,-4.159 1.826,-6.424 5.308,-6.424"/></g><g transform="translate(261.2471,516.4909)" id="g218"><path inkscape:connector-curvature="0" id="path220" style="fill:#4f7383;fill-opacity:1;fill-rule:nonzero;stroke:none" d="M 0,0 5.625,8.526 H 9.512 L 3.364,0 Z m 9.859,-13.224 c -1.217,2.958 -4.002,4.698 -7.249,4.698 -3.248,0 -6.032,-1.74 -7.25,-4.698 -0.638,-1.798 -0.812,-2.552 -0.986,-5.277 h 16.472 c -0.175,2.667 -0.232,3.595 -0.987,5.277 m -6.38,-18.675 c 3.307,0 5.336,0.986 7.714,3.364 l 2.204,-1.74 c -2.841,-2.842 -5.451,-4.292 -10.091,-4.292 -7.714,0 -11.89,4.987 -11.89,14.325 0,9.048 4.176,14.326 11.194,14.326 7.017,0 11.193,-5.046 11.193,-13.629 v -1.334 H -5.626 c 0,-7.134 3.132,-11.02 9.105,-11.02"/></g><g transform="translate(291.5225,507.965)" id="g222"><path inkscape:connector-curvature="0" id="path224" style="fill:#4f7383;fill-opacity:1;fill-rule:nonzero;stroke:none" d="m 0,0 c -6.844,0 -7.888,-5.916 -7.888,-11.716 0,-5.8 1.044,-11.716 7.888,-11.716 6.844,0 7.888,5.916 7.888,11.716 C 7.888,-5.916 6.844,0 0,0 m 7.888,-22.098 c -2.494,-3.247 -5.104,-3.944 -8.294,-3.944 -2.958,0 -5.394,0.987 -6.844,2.437 -2.842,2.841 -3.596,7.481 -3.596,11.889 0,4.408 0.754,9.048 3.596,11.89 1.45,1.45 3.886,2.436 6.844,2.436 3.19,0 5.8,-0.696 8.294,-3.944 v 16.936 h 2.958 V -25.693 H 7.888 Z"/></g><path inkscape:connector-curvature="0" id="path226" style="fill:#4f7383;fill-opacity:1;fill-rule:nonzero;stroke:none" d="m 311.301,510.227 h 2.958 v -27.956 h -2.958 z m -0.348,13.34 h 3.653 v -3.654 h -3.653 z"/><g transform="translate(323.8867,489.5793)" id="g228"><path inkscape:connector-curvature="0" id="path230" style="fill:#4f7383;fill-opacity:1;fill-rule:nonzero;stroke:none" d="m 0,0 v 18.444 h -3.828 v 2.204 H 0 V 29.58 H 2.957 V 20.648 H 9.279 V 18.444 H 2.957 V -0.058 c 0,-2.958 1.334,-4.64 4.293,-4.64 h 2.029 v -2.61 H 6.728 C 2.319,-7.308 0,-4.234 0,0"/></g><path inkscape:connector-curvature="0" id="path232" style="fill:#4f7383;fill-opacity:1;fill-rule:nonzero;stroke:none" d="m 339.721,510.227 h 2.957 v -27.956 h -2.957 z m -0.349,13.34 h 3.653 v -3.654 h -3.653 z"/><g transform="translate(367.0371,505.5871)" id="g234"><path inkscape:connector-curvature="0" id="path236" style="fill:#4f7383;fill-opacity:1;fill-rule:nonzero;stroke:none" d="m 0,0 c -1.566,1.566 -3.537,2.378 -5.8,2.378 -2.262,0 -4.233,-0.812 -5.8,-2.378 -2.32,-2.32 -2.494,-6.09 -2.494,-9.338 0,-3.247 0.174,-7.017 2.494,-9.338 1.567,-1.566 3.538,-2.378 5.8,-2.378 2.263,0 4.234,0.812 5.8,2.378 2.32,2.321 2.494,6.091 2.494,9.338 C 2.494,-6.09 2.32,-2.32 0,0 m 1.973,-20.589 c -2.031,-2.031 -4.582,-3.075 -7.773,-3.075 -3.132,0 -5.741,1.044 -7.771,3.075 -2.958,2.958 -3.48,7.249 -3.48,11.251 0,4.002 0.522,8.294 3.48,11.252 2.03,2.03 4.639,3.074 7.771,3.074 3.191,0 5.742,-1.044 7.773,-3.074 2.957,-2.958 3.479,-7.25 3.479,-11.252 0,-4.002 -0.522,-8.293 -3.479,-11.251"/></g><g transform="translate(398.3555,499.6134)" id="g238"><path inkscape:connector-curvature="0" id="path240" style="fill:#4f7383;fill-opacity:1;fill-rule:nonzero;stroke:none" d="m 0,0 c 0,5.394 -2.668,8.352 -7.713,8.352 -5.047,0 -7.889,-3.017 -7.889,-8.352 v -17.342 h -2.957 v 27.956 h 2.957 V 7.308 c 2.088,2.436 4.815,3.653 8.237,3.653 3.074,0 5.568,-0.869 7.424,-2.668 1.914,-1.856 2.9,-4.465 2.9,-7.771 V -17.342 H 0 Z"/></g><g transform="translate(220.9155,82.9382)" id="g242"><path inkscape:connector-curvature="0" id="path244" style="fill:#4f7383;fill-opacity:1;fill-rule:nonzero;stroke:none" d="m 0,0 v 6.785 l 15.428,17.922 c 1.508,1.799 2.146,3.074 2.146,4.988 0,3.075 -1.798,5.162 -4.988,5.162 -2.494,0 -5.046,-1.276 -5.046,-5.278 H 0 c 0,7.54 5.51,12.064 12.586,12.064 7.308,0 12.527,-4.582 12.527,-12.006 0,-4.002 -1.566,-6.148 -4.407,-9.453 L 9.164,6.785 H 25.113 V 0 Z"/></g><g transform="translate(275.5513,112.1696)" id="g246"><path inkscape:connector-curvature="0" id="path248" style="fill:#4f7383;fill-opacity:1;fill-rule:nonzero;stroke:none" d="m 0,0 c 0,3.479 -2.03,5.626 -4.988,5.626 -2.958,0 -5.046,-2.147 -5.046,-5.626 v -17.226 c 0,-3.48 2.088,-5.568 5.046,-5.568 2.958,0 4.988,2.088 4.988,5.568 z m -4.988,-29.579 c -6.728,0 -12.586,4.408 -12.586,12.295 v 17.4 c 0,7.888 5.858,12.295 12.586,12.295 C 1.74,12.411 7.54,8.004 7.54,0.116 v -17.4 c 0,-7.887 -5.8,-12.295 -12.528,-12.295"/></g><g transform="translate(306.4648,82.9382)" id="g250"><path inkscape:connector-curvature="0" id="path252" style="fill:#4f7383;fill-opacity:1;fill-rule:nonzero;stroke:none" d="m 0,0 v 33.176 l -8.41,-7.309 v 8.12 L 0,41.295 H 7.54 V 0 Z"/></g><g transform="translate(345.1514,117.7956)" id="g254"><path inkscape:connector-curvature="0" id="path256" style="fill:#4f7383;fill-opacity:1;fill-rule:nonzero;stroke:none" d="m 0,0 c -2.958,0 -5.162,-2.262 -5.162,-5.221 0,-3.015 2.204,-5.218 5.162,-5.218 2.958,0 5.104,2.203 5.104,5.218 C 5.104,-2.262 2.958,0 0,0 m 0,-16.994 c -3.19,0 -5.685,-2.552 -5.685,-5.742 0,-3.19 2.495,-5.684 5.685,-5.684 3.189,0 5.684,2.494 5.684,5.684 0,3.19 -2.495,5.742 -5.684,5.742 m 0,-18.211 c -7.308,0 -13.224,4.35 -13.224,12.353 0,5.046 2.9,7.772 5.162,9.28 -2.087,1.45 -4.64,4.176 -4.64,8.584 0,7.308 5.801,11.773 12.702,11.773 6.901,0 12.644,-4.465 12.644,-11.773 0,-4.408 -2.553,-7.134 -4.641,-8.584 2.263,-1.508 5.221,-4.234 5.221,-9.28 0,-8.003 -5.916,-12.353 -13.224,-12.353"/></g></g></g><g id="g258"><g clip-path="url(#clipPath264)" id="g260"><g transform="translate(445.1445,304.9577)" id="g266"><path inkscape:connector-curvature="0" id="path268" style="fill:#ffffff;fill-opacity:1;fill-rule:nonzero;stroke:none" d="m 0,0 c 0,-84.534 -68.528,-153.062 -153.063,-153.062 -84.534,0 -153.062,68.528 -153.062,153.062 0,84.534 68.528,153.062 153.062,153.062 C -68.528,153.062 0,84.534 0,0"/></g><g transform="translate(445.1445,304.9577)" id="g270"><path inkscape:connector-curvature="0" id="path272" style="fill:none;stroke:#b2b2b2;stroke-width:0.5;stroke-linecap:butt;stroke-linejoin:miter;stroke-miterlimit:10;stroke-dasharray:none;stroke-opacity:1" d="m 0,0 c 0,-84.534 -68.528,-153.062 -153.063,-153.062 -84.534,0 -153.062,68.528 -153.062,153.062 0,84.534 68.528,153.062 153.062,153.062 C -68.528,153.062 0,84.534 0,0 Z"/></g><g transform="translate(386.9053,399.2423)" id="g274"><path inkscape:connector-curvature="0" id="path276" style="fill:#4f7383;fill-opacity:1;fill-rule:nonzero;stroke:none" d="m 0,0 -2.107,2.11 c 0,0 -10.936,9.072 -13.18,10.647 -2.234,1.583 -4.636,3.44 -7.382,5.26 -2.845,1.667 -5.921,3.469 -9.208,5.394 -3.349,1.802 -7.097,3.369 -10.944,5.204 -3.914,1.685 -8.215,3.001 -12.598,4.614 -4.52,1.165 -9.206,2.531 -14.144,3.465 -4.98,0.725 -10.079,1.834 -15.434,1.986 -10.644,1.055 -21.964,0.197 -33.425,-1.585 -11.483,-1.934 -22.943,-5.784 -34.03,-10.803 -10.973,-5.293 -21.369,-12.414 -30.596,-20.399 -9.01,-8.451 -17.01,-17.916 -23.421,-28.214 -6.121,-10.445 -11.101,-21.337 -14.219,-32.427 -2.948,-11.092 -4.987,-22.095 -5.062,-32.629 -0.42,-5.252 0.147,-10.36 0.325,-15.292 0.405,-4.919 1.242,-9.636 1.909,-14.156 1.124,-4.438 1.946,-8.758 3.187,-12.735 1.393,-3.93 2.515,-7.73 3.925,-11.16 1.529,-3.383 2.959,-6.549 4.282,-9.476 1.487,-2.844 3.041,-5.36 4.343,-7.68 1.291,-2.332 2.511,-4.367 3.784,-5.999 1.202,-1.679 2.224,-3.108 3.053,-4.266 1.658,-2.316 2.542,-3.551 2.542,-3.551 0,0 -0.859,1.253 -2.469,3.603 -0.804,1.174 -1.797,2.623 -2.964,4.326 -1.241,1.659 -2.418,3.718 -3.656,6.068 -1.25,2.34 -2.744,4.873 -4.166,7.73 -1.256,2.939 -2.615,6.117 -4.067,9.513 -1.331,3.44 -2.368,7.241 -3.671,11.163 -1.151,3.971 -1.877,8.276 -2.901,12.689 -0.568,4.494 -1.301,9.173 -1.602,14.041 -0.075,4.884 -0.535,9.929 -0.011,15.104 0.281,10.381 2.521,21.172 5.629,31.988 3.279,10.815 8.38,21.368 14.549,31.426 6.457,9.912 14.426,18.944 23.311,26.954 9.333,7.715 19.25,14.185 29.954,19.102 10.788,4.61 21.87,8.09 32.926,9.718 11.035,1.476 21.878,2.09 32.025,0.862 5.108,-0.237 9.951,-1.414 14.677,-2.19 4.686,-0.987 9.114,-2.386 13.385,-3.568 4.13,-1.63 8.184,-2.949 11.858,-4.623 3.607,-1.823 7.122,-3.365 10.252,-5.133 3.065,-1.88 5.933,-3.64 8.585,-5.267 2.553,-1.771 4.777,-3.573 6.849,-5.102 2.084,-1.521 3.895,-2.935 5.309,-4.361 1.469,-1.36 2.718,-2.515 3.732,-3.452 1.502,-1.386 2.477,-2.286 2.886,-2.663 l -2.24,-2.238 c -0.409,0.362 -1.378,1.222 -2.868,2.544 -1.009,0.894 -2.256,1.995 -3.719,3.291 -1.415,1.353 -3.202,2.71 -5.27,4.147 -2.051,1.456 -4.27,3.14 -6.779,4.828 -2.616,1.522 -5.445,3.169 -8.467,4.928 -3.062,1.68 -6.52,3.079 -10.054,4.759 -3.579,1.581 -7.546,2.737 -11.569,4.211 -4.133,1.123 -8.463,2.264 -12.982,3.18 -4.577,0.604 -9.251,1.682 -14.167,1.781 -9.77,0.98 -20.147,0.081 -30.663,-1.513 -10.512,-1.9 -21.03,-5.349 -31.198,-9.989 -9.91,-4.983 -19.729,-11.439 -27.896,-18.798 -8.349,-7.87 -15.688,-16.418 -21.443,-25.981 -5.574,-9.581 -10.197,-19.559 -12.914,-29.763 -2.721,-10.162 -4.455,-20.27 -4.507,-29.915 -0.446,-9.64 0.786,-18.712 2.174,-26.968 1.051,-4.062 1.87,-8.002 2.988,-11.649 1.294,-3.593 2.375,-7.054 3.654,-10.202 1.422,-3.087 2.753,-5.976 3.983,-8.648 1.357,-2.607 2.813,-4.894 4.015,-7.013 2.3,-4.313 4.876,-7.187 6.315,-9.361 1.531,-2.111 2.348,-3.237 2.348,-3.237 0,0 -0.791,1.145 -2.275,3.288 -1.388,2.204 -3.905,5.143 -6.1,9.493 -1.15,2.139 -2.545,4.442 -3.836,7.062 -1.165,2.685 -2.424,5.588 -3.768,8.689 -1.201,3.155 -2.197,6.619 -3.401,10.206 -1.027,3.64 -1.752,7.566 -2.703,11.601 -0.472,4.122 -1.262,8.387 -1.486,12.849 -0.133,4.469 -0.502,9.081 -0.067,13.82 0.262,9.492 2.196,19.388 5.079,29.275 2.879,9.93 7.624,19.568 13.246,28.762 5.744,9.128 13.237,17.397 21.209,24.611 8.578,7.347 17.638,12.916 27.383,17.607 9.868,4.229 20.009,7.307 30.092,8.9 10.091,1.286 19.991,1.942 29.265,0.789 4.667,-0.186 9.086,-1.332 13.41,-1.987 4.262,-0.968 8.337,-2.142 12.218,-3.283 3.771,-1.491 7.492,-2.651 10.829,-4.22 3.291,-1.667 6.519,-3.043 9.36,-4.688 2.8,-1.714 5.42,-3.318 7.843,-4.801 2.315,-1.639 4.356,-3.269 6.246,-4.669 1.906,-1.382 3.55,-2.684 4.841,-3.987 1.34,-1.241 2.48,-2.297 3.404,-3.153 1.353,-1.25 2.233,-2.062 2.613,-2.414 l -2.178,-2.177 c -0.38,0.336 -1.246,1.103 -2.579,2.284 -1.901,1.533 -4.343,4.203 -8.149,6.733 -1.858,1.317 -3.87,2.841 -6.144,4.369 -2.369,1.379 -4.931,2.87 -7.67,4.464 -2.771,1.522 -5.904,2.79 -9.103,4.312 -3.24,1.434 -6.833,2.483 -10.475,3.82 -3.741,1.024 -7.662,2.053 -11.75,2.893 -4.144,0.549 -8.374,1.535 -12.823,1.631 -8.842,0.906 -18.236,0.106 -27.758,-1.305 -9.513,-1.705 -19.049,-4.775 -28.259,-8.95 -8.974,-4.468 -17.921,-10.278 -25.309,-16.89 -7.598,-7.085 -14.279,-14.768 -19.53,-23.389 -5.096,-8.631 -9.343,-17.619 -11.86,-26.827 -2.534,-9.166 -4.163,-18.289 -4.288,-27.004 -0.477,-8.706 0.567,-16.912 1.748,-24.384 0.915,-3.677 1.626,-7.243 2.6,-10.547 1.137,-3.258 2.087,-6.392 3.209,-9.247 1.257,-2.802 2.432,-5.424 3.519,-7.848 1.199,-2.368 2.493,-4.447 3.558,-6.372 2.038,-3.917 4.332,-6.539 5.61,-8.515 1.362,-1.921 2.087,-2.945 2.087,-2.945 0,0 -0.7,1.042 -2.013,2.996 -1.228,2.004 -3.462,4.691 -5.393,8.643 -1.013,1.945 -2.246,4.039 -3.379,6.42 -1.021,2.436 -2.125,5.07 -3.304,7.885 -1.045,2.862 -1.909,5.998 -2.956,9.249 -0.884,3.298 -1.5,6.848 -2.315,10.499 -0.982,7.418 -1.813,15.527 -1.129,24.079 0.33,8.56 2.16,17.47 4.853,26.36 2.677,8.934 7.043,17.583 12.184,25.827 5.241,8.189 12.07,15.589 19.295,22.027 7.797,6.595 15.976,11.521 24.788,15.699 8.911,3.769 18.069,6.47 27.156,7.87 9.096,1.106 18.014,1.663 26.361,0.586 4.203,-0.182 8.178,-1.235 12.069,-1.835 3.834,-0.892 7.5,-1.954 10.99,-2.997 3.39,-1.354 6.736,-2.404 9.736,-3.828 2.959,-1.509 5.861,-2.753 8.412,-4.241 2.516,-1.548 4.872,-2.997 7.049,-4.336 2.081,-1.48 3.914,-2.95 5.612,-4.213 3.486,-2.421 5.677,-4.982 7.408,-6.436 1.197,-1.109 1.976,-1.829 2.326,-2.154 l -2.887,-2.887 c -0.347,0.307 -1.103,0.975 -2.266,2.002 -1.689,1.359 -3.859,3.722 -7.237,5.966 -1.648,1.167 -3.435,2.516 -5.452,3.872 -2.101,1.221 -4.376,2.544 -6.804,3.955 -2.457,1.353 -5.236,2.477 -8.073,3.826 -2.871,1.276 -6.056,2.206 -9.286,3.392 -3.312,0.918 -6.791,1.825 -10.412,2.58 -3.673,0.489 -7.418,1.373 -11.362,1.465 -7.835,0.82 -16.16,0.128 -24.6,-1.09 -8.429,-1.496 -16.893,-4.16 -25.06,-7.836 -7.954,-3.912 -15.949,-9.027 -22.485,-14.829 -6.776,-6.237 -12.737,-12.985 -17.433,-20.587 -4.568,-7.602 -8.397,-15.519 -10.69,-23.646 -2.319,-8.084 -3.829,-16.139 -4.021,-23.842 -0.501,-7.693 0.348,-14.956 1.314,-21.57 0.77,-3.261 1.368,-6.417 2.19,-9.349 0.97,-2.89 1.781,-5.669 2.737,-8.205 1.081,-2.488 2.091,-4.817 3.025,-6.97 1.029,-2.107 2.152,-3.958 3.07,-5.671 1.756,-3.483 3.747,-5.827 4.854,-7.586 1.179,-1.712 1.809,-2.626 1.809,-2.626 0,0 -0.604,0.93 -1.735,2.675 -1.055,1.789 -2.986,4.196 -4.635,7.712 -0.867,1.732 -1.927,3.596 -2.891,5.716 -0.867,2.164 -1.806,4.505 -2.809,7.006 -0.878,2.542 -1.604,5.32 -2.484,8.203 -0.731,2.924 -1.234,6.064 -1.906,9.296 -0.767,6.56 -1.404,13.723 -0.698,21.26 0.397,7.547 2.103,15.387 4.579,23.196 2.449,7.851 6.395,15.429 11.006,22.645 4.685,7.172 10.786,13.633 17.193,19.233 6.944,5.783 14.161,10.018 21.958,13.644 7.869,3.271 15.955,5.569 23.958,6.763 8.016,0.914 15.866,1.367 23.207,0.377 3.697,-0.177 7.19,-1.129 10.611,-1.668 3.368,-0.805 6.592,-1.746 9.657,-2.681 2.976,-1.203 5.917,-2.135 8.549,-3.4 2.598,-1.337 5.147,-2.437 7.384,-3.755 2.209,-1.367 4.276,-2.647 6.187,-3.83 1.824,-1.307 3.434,-2.602 4.923,-3.716 3.058,-2.135 4.979,-4.391 6.499,-5.671 1.027,-0.955 1.696,-1.577 2.013,-1.872 l -3.242,-3.242 c -0.312,0.275 -0.953,0.84 -1.937,1.707 -1.466,1.176 -3.354,3.22 -6.284,5.163 -1.43,1.013 -2.982,2.179 -4.729,3.354 -1.824,1.059 -3.795,2.203 -5.901,3.427 -2.129,1.174 -4.537,2.148 -6.995,3.317 -2.486,1.111 -5.247,1.918 -8.043,2.947 -2.868,0.806 -5.881,1.587 -9.015,2.254 -3.181,0.427 -6.423,1.205 -9.837,1.294 -6.782,0.732 -13.99,0.153 -21.301,-0.861 -7.298,-1.276 -14.641,-3.513 -21.722,-6.665 -6.89,-3.328 -13.893,-7.714 -19.541,-12.67 -5.918,-5.347 -11.131,-11.116 -15.25,-17.651 -4.02,-6.523 -7.417,-13.321 -9.477,-20.316 -2.1,-6.954 -3.487,-13.891 -3.754,-20.536 -0.53,-6.633 0.109,-12.911 0.849,-18.63 0.616,-2.825 1.096,-5.553 1.755,-8.096 0.794,-2.507 1.457,-4.913 2.241,-7.116 0.893,-2.161 1.729,-4.185 2.502,-6.056 0.852,-1.834 1.792,-3.447 2.556,-4.939 1.46,-3.028 3.133,-5.083 4.059,-6.617 0.988,-1.495 1.514,-2.293 1.514,-2.293 0,0 -0.5,0.814 -1.439,2.341 -0.874,1.56 -2.485,3.677 -3.837,6.738 -0.712,1.51 -1.591,3.135 -2.376,4.981 -0.707,1.88 -1.471,3.914 -2.287,6.087 -0.704,2.208 -1.283,4.612 -1.986,7.111 -0.571,2.532 -0.956,5.242 -1.472,8.038 -0.544,5.661 -0.973,11.837 -0.24,18.311 0.469,6.487 2.049,13.207 4.303,19.885 2.213,6.719 5.723,13.176 9.781,19.316 4.107,6.109 9.448,11.585 15.005,16.309 6.054,4.933 12.267,8.442 19.004,11.491 6.781,2.751 13.749,4.627 20.622,5.603 6.888,0.714 13.622,1.056 19.914,0.156 3.169,-0.173 6.158,-1.017 9.089,-1.494 2.882,-0.717 5.643,-1.529 8.263,-2.353 2.547,-1.046 5.064,-1.855 7.313,-2.954 2.219,-1.157 4.4,-2.108 6.31,-3.248 1.888,-1.179 3.653,-2.282 5.286,-3.301 1.53,-1.165 2.935,-2.233 4.204,-3.199 2.613,-1.837 4.251,-3.774 5.55,-4.873 1.244,-1.163 1.908,-1.783 1.908,-1.783 l 2.038,-1.749 c 30.539,-30.598 30.463,-80.453 -0.171,-111.141 -14.91,-14.963 -34.756,-23.201 -55.881,-23.201 -20.93,0 -40.584,8.111 -55.391,22.893 l -2.108,2.111 -36.653,-36.653 -2,-2.225 2.116,-2.107 c 25.1,-25.017 58.512,-38.793 94.081,-38.793 35.803,0 69.42,13.929 94.655,39.221 C 51.857,-136.567 51.895,-51.952 0,0"/></g><g id="g278"><g id="g280"/><g id="g312"><g id="g310" clip-path="url(#clipPath284)"><g id="g308"><g id="g306" clip-path="url(#clipPath288)"><g id="g304"><g id="g302"><path inkscape:connector-curvature="0" id="path300" style="fill:url(#linearGradient298);stroke:none" d="m 247.577,310.322 c -6.558,14.82 -6.628,30.672 -1.427,43.724 -8.046,-13.599 -9.708,-30.462 -2.977,-45.674 6.731,-15.211 20.327,-25.324 35.804,-28.516 -13.159,4.93 -24.844,15.644 -31.4,30.466"/></g></g></g></g></g></g></g></g></g><g id="g314"><g clip-path="url(#clipPath320)" id="g316"><g id="g322"><g id="g324"><path inkscape:connector-curvature="0" id="path334" style="fill:url(#linearGradient332);stroke:none" d="m 249.378,274.933 c 14.308,-12.49 33.261,-16.389 50.815,-12.219 v 0 c -15.995,-1.251 -33.259,4.193 -47.201,16.362 v 0 c -13.939,12.167 -21.667,28.537 -22.588,44.554 v 0 c -1.761,-17.958 4.665,-36.208 18.974,-48.697"/></g></g></g></g><g id="g336"><g clip-path="url(#clipPath342)" id="g338"><g id="g344"><g id="g346"/><g id="g358"><g id="g356" clip-path="url(#clipPath350)"><g id="g354" transform="translate(252.9922,279.0758)"><path inkscape:connector-curvature="0" id="path352" style="fill:#ffffff;fill-opacity:1;fill-rule:nonzero;stroke:none" d="M 0,0 C -13.939,12.167 -21.667,28.537 -22.588,44.554 -24.349,26.596 -17.923,8.347 -3.614,-4.143 10.694,-16.633 29.646,-20.532 47.201,-16.361 31.206,-17.613 13.941,-12.169 0,0"/></g></g></g></g><g id="g360"><g id="g362"/><g id="g394"><g id="g392" clip-path="url(#clipPath366)"><g id="g390"><g id="g388" clip-path="url(#clipPath370)"><g id="g386"><g id="g384"><path inkscape:connector-curvature="0" id="path382" style="fill:url(#linearGradient380);stroke:none" d="m 282.87,250.539 c -20.739,3.427 -37.986,14.627 -48.445,29.551 9.029,-18.399 26.139,-32.195 47.426,-35.714 21.287,-3.518 41.928,4.037 56.397,18.554 -14.706,-10.766 -34.64,-15.821 -55.378,-12.391"/></g></g></g></g></g></g></g><g transform="translate(195.0869,520.2028)" id="g396"><path inkscape:connector-curvature="0" id="path398" style="fill:#4f7383;fill-opacity:1;fill-rule:nonzero;stroke:none" d="m 0,0 -7.482,-6.612 v 3.538 L 0,3.364 H 2.958 V -37.931 H 0 Z"/></g><g transform="translate(216.749,516.5651)" id="g400"><path inkscape:connector-curvature="0" id="path402" style="fill:#4f7383;fill-opacity:1;fill-rule:nonzero;stroke:none" d="M 0,0 C -2.806,0 -4.362,-2.333 -4.362,-4.937 V -14.98 H -6.086 V 1.319 h 1.724 v -2.164 c 0.947,1.521 2.841,2.366 4.768,2.366 1.589,0 2.739,-0.372 3.922,-1.555 L 3.077,-1.285 C 2.097,-0.304 1.353,0 0,0"/></g><g transform="translate(232.9458,513.8264)" id="g404"><path inkscape:connector-curvature="0" id="path406" style="fill:#4f7383;fill-opacity:1;fill-rule:nonzero;stroke:none" d="M 0,0 C -0.71,1.724 -2.333,2.739 -4.227,2.739 -6.12,2.739 -7.743,1.724 -8.454,0 -8.825,-1.048 -8.927,-1.488 -9.028,-3.077 H 0.575 C 0.473,-1.522 0.439,-0.981 0,0 m -3.72,-10.888 c 1.928,0 3.111,0.574 4.497,1.961 l 1.286,-1.014 c -1.657,-1.657 -3.179,-2.502 -5.884,-2.502 -4.497,0 -6.932,2.907 -6.932,8.351 0,5.275 2.435,8.352 6.526,8.352 4.092,0 6.526,-2.942 6.526,-7.946 V -4.464 H -9.028 c 0,-4.159 1.826,-6.424 5.308,-6.424"/></g><g transform="translate(261.2471,516.4909)" id="g408"><path inkscape:connector-curvature="0" id="path410" style="fill:#4f7383;fill-opacity:1;fill-rule:nonzero;stroke:none" d="M 0,0 5.625,8.526 H 9.512 L 3.364,0 Z m 9.859,-13.224 c -1.217,2.958 -4.002,4.698 -7.249,4.698 -3.248,0 -6.032,-1.74 -7.25,-4.698 -0.638,-1.798 -0.812,-2.552 -0.986,-5.277 h 16.472 c -0.175,2.667 -0.232,3.595 -0.987,5.277 m -6.38,-18.675 c 3.307,0 5.336,0.986 7.714,3.364 l 2.204,-1.74 c -2.841,-2.842 -5.451,-4.292 -10.091,-4.292 -7.714,0 -11.89,4.987 -11.89,14.325 0,9.048 4.176,14.326 11.194,14.326 7.017,0 11.193,-5.046 11.193,-13.629 v -1.334 H -5.626 c 0,-7.134 3.132,-11.02 9.105,-11.02"/></g><g transform="translate(291.5225,507.965)" id="g412"><path inkscape:connector-curvature="0" id="path414" style="fill:#4f7383;fill-opacity:1;fill-rule:nonzero;stroke:none" d="m 0,0 c -6.844,0 -7.888,-5.916 -7.888,-11.716 0,-5.8 1.044,-11.716 7.888,-11.716 6.844,0 7.888,5.916 7.888,11.716 C 7.888,-5.916 6.844,0 0,0 m 7.888,-22.098 c -2.494,-3.247 -5.104,-3.944 -8.294,-3.944 -2.958,0 -5.394,0.987 -6.844,2.437 -2.842,2.841 -3.596,7.481 -3.596,11.889 0,4.408 0.754,9.048 3.596,11.89 1.45,1.45 3.886,2.436 6.844,2.436 3.19,0 5.8,-0.696 8.294,-3.944 v 16.936 h 2.958 V -25.693 H 7.888 Z"/></g><path inkscape:connector-curvature="0" id="path416" style="fill:#4f7383;fill-opacity:1;fill-rule:nonzero;stroke:none" d="m 311.301,510.227 h 2.958 v -27.956 h -2.958 z m -0.348,13.34 h 3.653 v -3.654 h -3.653 z"/><g transform="translate(323.8867,489.5793)" id="g418"><path inkscape:connector-curvature="0" id="path420" style="fill:#4f7383;fill-opacity:1;fill-rule:nonzero;stroke:none" d="m 0,0 v 18.444 h -3.828 v 2.204 H 0 V 29.58 H 2.957 V 20.648 H 9.279 V 18.444 H 2.957 V -0.058 c 0,-2.958 1.334,-4.64 4.293,-4.64 h 2.029 v -2.61 H 6.728 C 2.319,-7.308 0,-4.234 0,0"/></g><path inkscape:connector-curvature="0" id="path422" style="fill:#4f7383;fill-opacity:1;fill-rule:nonzero;stroke:none" d="m 339.721,510.227 h 2.957 v -27.956 h -2.957 z m -0.349,13.34 h 3.653 v -3.654 h -3.653 z"/><g transform="translate(367.0371,505.5871)" id="g424"><path inkscape:connector-curvature="0" id="path426" style="fill:#4f7383;fill-opacity:1;fill-rule:nonzero;stroke:none" d="m 0,0 c -1.566,1.566 -3.537,2.378 -5.8,2.378 -2.262,0 -4.233,-0.812 -5.8,-2.378 -2.32,-2.32 -2.494,-6.09 -2.494,-9.338 0,-3.247 0.174,-7.017 2.494,-9.338 1.567,-1.566 3.538,-2.378 5.8,-2.378 2.263,0 4.234,0.812 5.8,2.378 2.32,2.321 2.494,6.091 2.494,9.338 C 2.494,-6.09 2.32,-2.32 0,0 m 1.973,-20.589 c -2.031,-2.031 -4.582,-3.075 -7.773,-3.075 -3.132,0 -5.741,1.044 -7.771,3.075 -2.958,2.958 -3.48,7.249 -3.48,11.251 0,4.002 0.522,8.294 3.48,11.252 2.03,2.03 4.639,3.074 7.771,3.074 3.191,0 5.742,-1.044 7.773,-3.074 2.957,-2.958 3.479,-7.25 3.479,-11.252 0,-4.002 -0.522,-8.293 -3.479,-11.251"/></g><g transform="translate(398.3555,499.6134)" id="g428"><path inkscape:connector-curvature="0" id="path430" style="fill:#4f7383;fill-opacity:1;fill-rule:nonzero;stroke:none" d="m 0,0 c 0,5.394 -2.668,8.352 -7.713,8.352 -5.047,0 -7.889,-3.017 -7.889,-8.352 v -17.342 h -2.957 v 27.956 h 2.957 V 7.308 c 2.088,2.436 4.815,3.653 8.237,3.653 3.074,0 5.568,-0.869 7.424,-2.668 1.914,-1.856 2.9,-4.465 2.9,-7.771 V -17.342 H 0 Z"/></g><g transform="translate(220.9155,82.9382)" id="g432"><path inkscape:connector-curvature="0" id="path434" style="fill:#4f7383;fill-opacity:1;fill-rule:nonzero;stroke:none" d="m 0,0 v 6.785 l 15.428,17.922 c 1.508,1.799 2.146,3.074 2.146,4.988 0,3.075 -1.798,5.162 -4.988,5.162 -2.494,0 -5.046,-1.276 -5.046,-5.278 H 0 c 0,7.54 5.51,12.064 12.586,12.064 7.308,0 12.527,-4.582 12.527,-12.006 0,-4.002 -1.566,-6.148 -4.407,-9.453 L 9.164,6.785 H 25.113 V 0 Z"/></g><g transform="translate(275.5513,112.1696)" id="g436"><path inkscape:connector-curvature="0" id="path438" style="fill:#4f7383;fill-opacity:1;fill-rule:nonzero;stroke:none" d="m 0,0 c 0,3.479 -2.03,5.626 -4.988,5.626 -2.958,0 -5.046,-2.147 -5.046,-5.626 v -17.226 c 0,-3.48 2.088,-5.568 5.046,-5.568 2.958,0 4.988,2.088 4.988,5.568 z m -4.988,-29.579 c -6.728,0 -12.586,4.408 -12.586,12.295 v 17.4 c 0,7.888 5.858,12.295 12.586,12.295 C 1.74,12.411 7.54,8.004 7.54,0.116 v -17.4 c 0,-7.887 -5.8,-12.295 -12.528,-12.295"/></g><g transform="translate(306.4648,82.9382)" id="g440"><path inkscape:connector-curvature="0" id="path442" style="fill:#4f7383;fill-opacity:1;fill-rule:nonzero;stroke:none" d="m 0,0 v 33.176 l -8.41,-7.309 v 8.12 L 0,41.295 H 7.54 V 0 Z"/></g><g transform="translate(345.1514,117.7956)" id="g444"><path inkscape:connector-curvature="0" id="path446" style="fill:#4f7383;fill-opacity:1;fill-rule:nonzero;stroke:none" d="m 0,0 c -2.958,0 -5.162,-2.262 -5.162,-5.221 0,-3.015 2.204,-5.218 5.162,-5.218 2.958,0 5.104,2.203 5.104,5.218 C 5.104,-2.262 2.958,0 0,0 m 0,-16.994 c -3.19,0 -5.685,-2.552 -5.685,-5.742 0,-3.19 2.495,-5.684 5.685,-5.684 3.189,0 5.684,2.494 5.684,5.684 0,3.19 -2.495,5.742 -5.684,5.742 m 0,-18.211 c -7.308,0 -13.224,4.35 -13.224,12.353 0,5.046 2.9,7.772 5.162,9.28 -2.087,1.45 -4.64,4.176 -4.64,8.584 0,7.308 5.801,11.773 12.702,11.773 6.901,0 12.644,-4.465 12.644,-11.773 0,-4.408 -2.553,-7.134 -4.641,-8.584 2.263,-1.508 5.221,-4.234 5.221,-9.28 0,-8.003 -5.916,-12.353 -13.224,-12.353"/></g></g></g><text id="text450" style="font-variant:normal;font-weight:normal;font-stretch:normal;font-size:51.00006104px;font-family:'DIN Engschrift Std';-inkscape-font-specification:DINEngschriftStd;writing-mode:lr-tb;fill:#ffffff;fill-opacity:1;fill-rule:nonzero;stroke:none" transform="matrix(0.79291474,-0.6093326,-0.6093326,-0.79291474,208.9668,208.1289)"><tspan id="tspan448" y="0" x="0">F</tspan></text>
<text id="text454" style="font-variant:normal;font-weight:normal;font-stretch:normal;font-size:50.9999733px;font-family:'DIN Engschrift Std';-inkscape-font-specification:DINEngschriftStd;writing-mode:lr-tb;fill:#ffffff;fill-opacity:1;fill-rule:nonzero;stroke:none" transform="matrix(0.90012599,-0.43562966,-0.43562966,-0.90012599,228.5371,193.6133)"><tspan id="tspan452" y="0" x="0">R</tspan></text>
<text id="text458" style="font-variant:normal;font-weight:normal;font-stretch:normal;font-size:51.00000763px;font-family:'DIN Engschrift Std';-inkscape-font-specification:DINEngschriftStd;writing-mode:lr-tb;fill:#ffffff;fill-opacity:1;fill-rule:nonzero;stroke:none" transform="matrix(0.97240576,-0.23329605,-0.23329605,-0.97240576,253.5166,182.2646)"><tspan id="tspan456" y="0" x="0">A</tspan></text>
<text id="text462" style="font-variant:normal;font-weight:normal;font-stretch:normal;font-size:51.00004959px;font-family:'DIN Engschrift Std';-inkscape-font-specification:DINEngschriftStd;writing-mode:lr-tb;fill:#ffffff;fill-opacity:1;fill-rule:nonzero;stroke:none" transform="matrix(0.99986179,-0.01662547,-0.01662547,-0.99986179,279.627,176.5801)"><tspan id="tspan460" y="0" x="0">N</tspan></text>
<text id="text466" style="font-variant:normal;font-weight:normal;font-stretch:normal;font-size:51.00004578px;font-family:'DIN Engschrift Std';-inkscape-font-specification:DINEngschriftStd;writing-mode:lr-tb;fill:#ffffff;fill-opacity:1;fill-rule:nonzero;stroke:none" transform="matrix(0.98047752,0.19663119,0.19663119,-0.98047752,307.7944,176.793)"><tspan id="tspan464" y="0" x="0">C</tspan></text>
<text id="text470" style="font-variant:normal;font-weight:normal;font-stretch:normal;font-size:51.00000763px;font-family:'DIN Engschrift Std';-inkscape-font-specification:DINEngschriftStd;writing-mode:lr-tb;fill:#ffffff;fill-opacity:1;fill-rule:nonzero;stroke:none" transform="matrix(0.92129986,0.38885288,0.38885288,-0.92129986,333.2988,182.5605)"><tspan id="tspan468" y="0" x="0">E</tspan></text>
<text id="text474" style="font-variant:normal;font-weight:normal;font-stretch:normal;font-size:50.99999619px;font-family:'DIN Engschrift Std';-inkscape-font-specification:DINEngschriftStd;writing-mode:lr-tb;fill:#ffffff;fill-opacity:1;fill-rule:nonzero;stroke:none" transform="matrix(0.74100985,0.67149416,0.67149416,-0.74100985,367.0737,199.4277)"><tspan id="tspan472" y="0" x="0">M</tspan></text>
<text id="text478" style="font-variant:normal;font-weight:normal;font-stretch:normal;font-size:50.99998856px;font-family:'DIN Engschrift Std';-inkscape-font-specification:DINEngschriftStd;writing-mode:lr-tb;fill:#ffffff;fill-opacity:1;fill-rule:nonzero;stroke:none" transform="matrix(0.55324913,0.83301585,0.83301585,-0.55324913,392.0063,223.6514)"><tspan id="tspan476" y="0" x="0">O</tspan></text>
<text id="text482" style="font-variant:normal;font-weight:normal;font-stretch:normal;font-size:51.00003815px;font-family:'DIN Engschrift Std';-inkscape-font-specification:DINEngschriftStd;writing-mode:lr-tb;fill:#ffffff;fill-opacity:1;fill-rule:nonzero;stroke:none" transform="matrix(0.35913504,0.93328561,0.93328561,-0.35913504,406.7031,246.9219)"><tspan id="tspan480" y="0" x="0">B</tspan></text>
<text id="text486" style="font-variant:normal;font-weight:normal;font-stretch:normal;font-size:50.99998093px;font-family:'DIN Engschrift Std';-inkscape-font-specification:DINEngschriftStd;writing-mode:lr-tb;fill:#ffffff;fill-opacity:1;fill-rule:nonzero;stroke:none" transform="matrix(0.2006687,0.97965916,0.97965916,-0.2006687,415.354,271.7656)"><tspan id="tspan484" y="0" x="0">I</tspan></text>
<text id="text490" style="font-variant:normal;font-weight:normal;font-stretch:normal;font-size:51.00005341px;font-family:'DIN Engschrift Std';-inkscape-font-specification:DINEngschriftStd;writing-mode:lr-tb;fill:#ffffff;fill-opacity:1;fill-rule:nonzero;stroke:none" transform="matrix(0.05220779,0.99863624,0.99863624,-0.05220779,418.2939,286.1533)"><tspan id="tspan488" y="0" x="0">L</tspan></text>
<text id="text494" style="font-variant:normal;font-weight:normal;font-stretch:normal;font-size:51.00002289px;font-family:'DIN Engschrift Std';-inkscape-font-specification:DINEngschriftStd;writing-mode:lr-tb;fill:#ffffff;fill-opacity:1;fill-rule:nonzero;stroke:none" transform="matrix(-0.09534113,0.99544466,0.99544466,0.09534113,418.8779,309.2266)"><tspan id="tspan492" y="0" x="0">I</tspan></text>
<text id="text498" style="font-variant:normal;font-weight:normal;font-stretch:normal;font-size:51.0000267px;font-family:'DIN Engschrift Std';-inkscape-font-specification:DINEngschriftStd;writing-mode:lr-tb;fill:#ffffff;fill-opacity:1;fill-rule:nonzero;stroke:none" transform="matrix(-0.23460967,0.97208966,0.97208966,0.23460967,417.4375,323.665)"><tspan id="tspan496" y="0" x="0">T</tspan></text>
<text id="text502" style="font-variant:normal;font-weight:normal;font-stretch:normal;font-size:51.00003052px;font-family:'DIN Engschrift Std';-inkscape-font-specification:DINEngschriftStd;writing-mode:lr-tb;fill:#ffffff;fill-opacity:1;fill-rule:nonzero;stroke:none" transform="matrix(-0.40760956,0.91315631,0.91315631,0.40760956,411.9312,344.8965)"><tspan id="tspan500" y="0" x="0"></tspan></text>
<text id="text506" style="font-variant:normal;font-weight:normal;font-stretch:normal;font-size:51px;font-family:'DIN Engschrift Std';-inkscape-font-specification:DINEngschriftStd;writing-mode:lr-tb;fill:#ffffff;fill-opacity:1;fill-rule:nonzero;stroke:none" transform="matrix(-0.58075492,0.81407845,0.81407845,0.58075492,401.6387,366.8506)"><tspan id="tspan504" y="0" x="0">S</tspan></text>
<g id="g564"><g clip-path="url(#clipPath570)" id="g566"><g id="g572"><g id="g574"><path inkscape:connector-curvature="0" id="path584" style="fill:url(#linearGradient582);stroke:none" d="m 268,52.888 c 10.601,-9.254 24.643,-12.143 37.649,-9.053 v 0 c -11.85,-0.928 -24.642,3.106 -34.97,12.122 v 0 c -10.328,9.013 -16.054,21.142 -16.736,33.01 v 0 C 252.639,75.662 257.4,62.141 268,52.888"/></g></g></g></g><text id="text712" style="font-variant:normal;font-weight:normal;font-stretch:normal;font-size:37.78504181px;font-family:'DIN Engschrift Std';-inkscape-font-specification:DINEngschriftStd;writing-mode:lr-tb;fill:#ffffff;fill-opacity:1;fill-rule:nonzero;stroke:none" transform="matrix(0.55325067,0.83301482,0.83301482,-0.55325067,373.6714,14.8926)"><tspan id="tspan710" y="0" x="0">O</tspan></text>
<text id="text716" style="font-variant:normal;font-weight:normal;font-stretch:normal;font-size:37.78504944px;font-family:'DIN Engschrift Std';-inkscape-font-specification:DINEngschriftStd;writing-mode:lr-tb;fill:#ffffff;fill-opacity:1;fill-rule:nonzero;stroke:none" transform="matrix(0.35931672,0.93321567,0.93321567,-0.35931672,384.5532,32.1172)"><tspan id="tspan714" y="0" x="0">B</tspan></text>
<text id="text720" style="font-variant:normal;font-weight:normal;font-stretch:normal;font-size:37.78498077px;font-family:'DIN Engschrift Std';-inkscape-font-specification:DINEngschriftStd;writing-mode:lr-tb;fill:#ffffff;fill-opacity:1;fill-rule:nonzero;stroke:none" transform="matrix(0.20126251,0.97953734,0.97953734,-0.20126251,390.9575,50.4873)"><tspan id="tspan718" y="0" x="0">I</tspan></text>
<text id="text724" style="font-variant:normal;font-weight:normal;font-stretch:normal;font-size:37.78500366px;font-family:'DIN Engschrift Std';-inkscape-font-specification:DINEngschriftStd;writing-mode:lr-tb;fill:#ffffff;fill-opacity:1;fill-rule:nonzero;stroke:none" transform="matrix(0.05259759,0.99861579,0.99861579,-0.05259759,393.144,61.1631)"><tspan id="tspan722" y="0" x="0">L</tspan></text>
<text id="text728" style="font-variant:normal;font-weight:normal;font-stretch:normal;font-size:37.78499603px;font-family:'DIN Engschrift Std';-inkscape-font-specification:DINEngschriftStd;writing-mode:lr-tb;fill:#ffffff;fill-opacity:1;fill-rule:nonzero;stroke:none" transform="matrix(-0.09475189,0.99550092,0.99550092,0.09475189,393.5835,78.2393)"><tspan id="tspan726" y="0" x="0">I</tspan></text>
<text id="text732" style="font-variant:normal;font-weight:normal;font-stretch:normal;font-size:37.78503418px;font-family:'DIN Engschrift Std';-inkscape-font-specification:DINEngschriftStd;writing-mode:lr-tb;fill:#ffffff;fill-opacity:1;fill-rule:nonzero;stroke:none" transform="matrix(-0.23366923,0.97231615,0.97231615,0.23366923,392.5298,88.9014)"><tspan id="tspan730" y="0" x="0">T</tspan></text>
<text id="text736" style="font-variant:normal;font-weight:normal;font-stretch:normal;font-size:37.78498077px;font-family:'DIN Engschrift Std';-inkscape-font-specification:DINEngschriftStd;writing-mode:lr-tb;fill:#ffffff;fill-opacity:1;fill-rule:nonzero;stroke:none" transform="matrix(-0.40675423,0.91353763,0.91353763,0.40675423,388.4653,104.6377)"><tspan id="tspan734" y="0" x="0"></tspan></text>
<text id="text740" style="font-variant:normal;font-weight:normal;font-stretch:normal;font-size:37.78501511px;font-family:'DIN Engschrift Std';-inkscape-font-specification:DINEngschriftStd;writing-mode:lr-tb;fill:#ffffff;fill-opacity:1;fill-rule:nonzero;stroke:none" transform="matrix(-0.57984365,0.81472777,0.81472777,0.57984365,380.8628,120.895)"><tspan id="tspan738" y="0" x="0">S</tspan></text>
<g id="g854"><g clip-path="url(#clipPath860)" id="g856"><g id="g862"><g id="g864"><path inkscape:connector-curvature="0" id="path874" style="fill:url(#linearGradient872);stroke:none" d="m 268,478.492 c 10.601,-9.254 24.643,-12.143 37.649,-9.053 v 0 c -11.85,-0.927 -24.642,3.107 -34.97,12.122 v 0 c -10.328,9.015 -16.054,21.143 -16.736,33.01 v 0 C 252.639,501.267 257.4,487.745 268,478.492"/></g></g></g></g><g id="g876"><g clip-path="url(#clipPath882)" id="g878"><g id="g884"><g id="g886"/><g id="g898"><g id="g896" clip-path="url(#clipPath890)"><g id="g894" transform="translate(270.6782,481.5612)"><path inkscape:connector-curvature="0" id="path892" style="fill:#ffffff;fill-opacity:1;fill-rule:nonzero;stroke:none" d="M 0,0 C -10.327,9.014 -16.053,21.143 -16.735,33.01 -18.039,19.705 -13.278,6.184 -2.678,-3.069 7.923,-12.323 21.965,-15.211 34.971,-12.122 23.12,-13.049 10.329,-9.016 0,0"/></g></g></g></g><g id="g900"><g id="g902"/><g id="g934"><g id="g932" clip-path="url(#clipPath906)"><g id="g930"><g id="g928" clip-path="url(#clipPath910)"><g id="g926"><g id="g924"><path inkscape:connector-curvature="0" id="path922" style="fill:url(#linearGradient920);stroke:none" d="m 292.814,460.419 c -15.365,2.539 -28.143,10.837 -35.892,21.894 6.689,-13.632 19.366,-23.853 35.138,-26.46 15.771,-2.606 31.064,2.991 41.784,13.747 -10.896,-7.977 -25.664,-11.722 -41.03,-9.181"/></g></g></g></g></g></g></g><g transform="translate(246.9136,336.2462)" id="g936"><path inkscape:connector-curvature="0" id="path938" style="fill:#4f7383;fill-opacity:1;fill-rule:nonzero;stroke:none" d="m 0,0 v 5.027 l 11.43,13.278 c 1.117,1.333 1.59,2.278 1.59,3.696 0,2.277 -1.332,3.824 -3.695,3.824 -1.848,0 -3.739,-0.945 -3.739,-3.91 H 0 c 0,5.586 4.082,8.938 9.325,8.938 5.414,0 9.281,-3.395 9.281,-8.895 0,-2.965 -1.16,-4.555 -3.266,-7.004 L 6.789,5.027 H 18.606 V 0 Z"/></g><g transform="translate(287.3921,357.9035)" id="g940"><path inkscape:connector-curvature="0" id="path942" style="fill:#4f7383;fill-opacity:1;fill-rule:nonzero;stroke:none" d="M 0,0 C 0,2.578 -1.504,4.168 -3.695,4.168 -5.887,4.168 -7.434,2.578 -7.434,0 v -12.762 c 0,-2.579 1.547,-4.126 3.739,-4.126 2.191,0 3.695,1.547 3.695,4.126 z m -3.695,-21.915 c -4.985,0 -9.325,3.266 -9.325,9.109 V 0.086 c 0,5.844 4.34,9.109 9.325,9.109 4.984,0 9.281,-3.265 9.281,-9.109 v -12.892 c 0,-5.843 -4.297,-9.109 -9.281,-9.109"/></g><g transform="translate(310.2949,336.2462)" id="g944"><path inkscape:connector-curvature="0" id="path946" style="fill:#4f7383;fill-opacity:1;fill-rule:nonzero;stroke:none" d="m 0,0 v 24.58 l -6.23,-5.415 v 6.016 L 0,30.595 H 5.587 V 0 Z"/></g><g transform="translate(338.958,362.0714)" id="g948"><path inkscape:connector-curvature="0" id="path950" style="fill:#4f7383;fill-opacity:1;fill-rule:nonzero;stroke:none" d="m 0,0 c -2.192,0 -3.825,-1.675 -3.825,-3.868 0,-2.234 1.633,-3.866 3.825,-3.866 2.191,0 3.78,1.632 3.78,3.866 C 3.78,-1.675 2.191,0 0,0 m 0,-12.59 c -2.364,0 -4.212,-1.891 -4.212,-4.255 0,-2.363 1.848,-4.211 4.212,-4.211 2.362,0 4.21,1.848 4.21,4.211 0,2.364 -1.848,4.255 -4.21,4.255 m 0,-13.493 c -5.414,0 -9.798,3.223 -9.798,9.153 0,3.738 2.149,5.758 3.825,6.875 -1.547,1.074 -3.438,3.094 -3.438,6.36 0,5.414 4.298,8.722 9.411,8.722 5.112,0 9.367,-3.308 9.367,-8.722 0,-3.266 -1.891,-5.286 -3.438,-6.36 1.676,-1.117 3.868,-3.137 3.868,-6.875 0,-5.93 -4.383,-9.153 -9.797,-9.153"/></g><g transform="translate(40.9023,287.0797)" id="g952"><path inkscape:connector-curvature="0" id="path954" style="fill:none;stroke:#1d1d1b;stroke-width:1;stroke-linecap:butt;stroke-linejoin:miter;stroke-miterlimit:10;stroke-dasharray:none;stroke-opacity:1" d="M 0,0 H 517.474"/></g></g></g><g id="g956"><g clip-path="url(#clipPath962)" id="g958"><g transform="translate(581.1025,297.6378)" id="g964"><path inkscape:connector-curvature="0" id="path966" style="fill:#ffffff;fill-opacity:1;fill-rule:nonzero;stroke:none" d="m 0,0 c 0,-156.553 -126.911,-283.464 -283.465,-283.464 -156.553,0 -283.464,126.911 -283.464,283.464 0,156.553 126.911,283.464 283.464,283.464 C -126.911,283.464 0,156.553 0,0"/></g><g transform="translate(581.1025,297.6378)" id="g968"><path inkscape:connector-curvature="0" id="path970" style="fill:none;stroke:#b2b2b2;stroke-width:0.37;stroke-linecap:butt;stroke-linejoin:miter;stroke-miterlimit:10;stroke-dasharray:none;stroke-opacity:1" d="m 0,0 c 0,-156.553 -126.911,-283.464 -283.465,-283.464 -156.553,0 -283.464,126.911 -283.464,283.464 0,156.553 126.911,283.464 283.464,283.464 C -126.911,283.464 0,156.553 0,0 Z"/></g><g transform="translate(473.2471,472.2487)" id="g972"><path inkscape:connector-curvature="0" id="path974" style="fill:#4f7383;fill-opacity:1;fill-rule:nonzero;stroke:none" d="m 0,0 -3.903,3.907 c 0,0 -20.252,16.801 -24.409,19.718 -4.136,2.933 -8.584,6.371 -13.67,9.742 -5.269,3.086 -10.965,6.424 -17.053,9.989 -6.201,3.337 -13.143,6.239 -20.269,9.637 -7.248,3.122 -15.214,5.559 -23.33,8.546 -8.372,2.156 -17.05,4.687 -26.196,6.417 -9.222,1.343 -18.664,3.396 -28.581,3.676 -19.712,1.955 -40.676,0.367 -61.901,-2.934 -21.267,-3.581 -42.491,-10.712 -63.021,-20.008 -20.324,-9.802 -39.577,-22.989 -56.665,-37.777 -16.684,-15.649 -31.5,-33.18 -43.373,-52.251 -11.336,-19.344 -20.559,-39.515 -26.334,-60.053 -5.458,-20.541 -9.236,-40.919 -9.374,-60.428 -0.778,-9.726 0.273,-19.186 0.602,-28.321 0.751,-9.109 2.3,-17.843 3.535,-26.214 2.083,-8.22 3.603,-16.221 5.903,-23.585 2.58,-7.279 4.658,-14.315 7.268,-20.668 2.831,-6.265 5.48,-12.128 7.93,-17.548 2.755,-5.267 5.633,-9.929 8.044,-14.225 2.39,-4.318 4.65,-8.086 7.007,-11.11 2.226,-3.109 4.12,-5.754 5.655,-7.899 3.07,-4.289 4.707,-6.576 4.707,-6.576 0,0 -1.591,2.319 -4.572,6.671 -1.491,2.175 -3.329,4.858 -5.491,8.013 -2.297,3.072 -4.477,6.885 -6.77,11.238 -2.315,4.333 -5.081,9.023 -7.714,14.314 -2.327,5.443 -4.843,11.33 -7.532,17.619 -2.466,6.369 -4.387,13.409 -6.799,20.674 -2.131,7.353 -3.476,15.326 -5.373,23.498 -1.051,8.323 -2.409,16.988 -2.967,26.004 -0.138,9.044 -0.991,18.388 -0.021,27.971 0.521,19.225 4.67,39.21 10.426,59.241 6.073,20.029 15.519,39.573 26.944,58.2 11.957,18.356 26.716,35.083 43.171,49.917 17.284,14.288 35.649,26.27 55.473,35.375 19.98,8.539 40.502,14.983 60.978,17.998 20.436,2.733 40.516,3.87 59.309,1.597 9.458,-0.439 18.429,-2.62 27.179,-4.057 8.678,-1.826 16.88,-4.418 24.791,-6.607 7.646,-3.02 15.155,-5.461 21.959,-8.562 6.679,-3.376 13.19,-6.232 18.986,-9.506 5.676,-3.482 10.988,-6.74 15.9,-9.754 4.727,-3.279 8.845,-6.617 12.683,-9.449 3.859,-2.817 7.214,-5.436 9.833,-8.077 2.722,-2.517 5.034,-4.657 6.91,-6.392 2.782,-2.566 4.589,-4.234 5.345,-4.932 l -4.148,-4.145 c -0.757,0.671 -2.551,2.263 -5.311,4.712 -1.869,1.655 -4.177,3.695 -6.887,6.094 -2.62,2.507 -5.931,5.02 -9.761,7.681 -3.797,2.695 -7.907,5.814 -12.554,8.94 -4.844,2.82 -10.082,5.869 -15.68,9.127 -5.67,3.11 -12.075,5.703 -18.619,8.813 -6.628,2.928 -13.975,5.071 -21.426,7.8 -7.654,2.078 -15.674,4.192 -24.042,5.889 -8.476,1.118 -17.131,3.114 -26.235,3.297 -18.095,1.817 -37.313,0.15 -56.789,-2.802 -19.466,-3.518 -38.946,-9.906 -57.775,-18.498 -18.353,-9.229 -36.537,-21.185 -51.663,-34.814 -15.461,-14.574 -29.054,-30.405 -39.711,-48.116 -10.324,-17.743 -18.885,-36.22 -23.917,-55.119 -5.038,-18.819 -8.25,-37.538 -8.347,-55.401 -0.825,-17.852 1.456,-34.654 4.025,-49.944 1.948,-7.521 3.464,-14.818 5.535,-21.572 2.397,-6.655 4.399,-13.065 6.768,-18.893 2.633,-5.718 5.097,-11.069 7.375,-16.017 2.515,-4.828 5.211,-9.064 7.436,-12.988 4.261,-7.988 9.031,-13.31 11.694,-17.336 2.836,-3.909 4.35,-5.994 4.35,-5.994 0,0 -1.466,2.119 -4.213,6.09 -2.571,4.079 -7.232,9.522 -11.297,17.579 -2.13,3.962 -4.713,8.226 -7.105,13.079 -2.157,4.972 -4.487,10.348 -6.979,16.091 -2.223,5.843 -4.067,12.258 -6.297,18.9 -1.903,6.743 -3.244,14.014 -5.005,21.486 -0.875,7.635 -2.339,15.533 -2.752,23.796 -0.248,8.275 -0.931,16.818 -0.124,25.593 0.484,17.58 4.066,35.906 9.405,54.216 5.332,18.391 14.119,36.239 24.53,53.266 10.639,16.904 24.514,32.219 39.278,45.578 15.888,13.607 32.665,23.92 50.712,32.607 18.276,7.832 37.058,13.534 55.73,16.483 18.688,2.383 37.023,3.598 54.197,1.461 8.645,-0.343 16.828,-2.466 24.834,-3.68 7.896,-1.792 15.44,-3.967 22.629,-6.08 6.982,-2.761 13.873,-4.908 20.056,-7.814 6.093,-3.087 12.072,-5.636 17.332,-8.682 5.184,-3.174 10.038,-6.145 14.525,-8.892 4.288,-3.034 8.068,-6.052 11.567,-8.646 3.53,-2.559 6.576,-4.971 8.966,-7.384 2.482,-2.298 4.592,-4.253 6.304,-5.838 2.506,-2.316 4.136,-3.82 4.839,-4.471 l -4.033,-4.033 c -0.702,0.622 -2.308,2.043 -4.778,4.23 -3.52,2.839 -8.042,7.783 -15.09,12.469 -3.44,2.44 -7.167,5.261 -11.378,8.093 -4.388,2.552 -9.134,5.315 -14.204,8.265 -5.132,2.82 -10.934,5.168 -16.86,7.986 -6.001,2.657 -12.654,4.599 -19.399,7.074 -6.928,1.898 -14.189,3.804 -21.76,5.359 -7.675,1.017 -15.507,2.843 -23.747,3.021 -16.377,1.677 -33.774,0.196 -51.408,-2.418 -17.618,-3.157 -35.278,-8.842 -52.333,-16.576 -16.621,-8.273 -33.189,-19.034 -46.872,-31.278 -14.07,-13.121 -26.444,-27.349 -36.168,-43.316 -9.438,-15.982 -17.303,-32.629 -21.965,-49.682 -4.692,-16.974 -7.709,-33.87 -7.941,-50.009 -0.883,-16.125 1.051,-31.322 3.238,-45.157 1.693,-6.812 3.011,-13.414 4.815,-19.535 2.106,-6.034 3.864,-11.837 5.943,-17.125 2.326,-5.189 4.504,-10.044 6.517,-14.534 2.219,-4.385 4.617,-8.236 6.588,-11.801 3.775,-7.254 8.024,-12.109 10.391,-15.769 2.521,-3.557 3.865,-5.455 3.865,-5.455 0,0 -1.297,1.931 -3.729,5.549 -2.274,3.713 -6.411,8.688 -9.987,16.008 -1.876,3.601 -4.161,7.479 -6.258,11.889 -1.891,4.511 -3.934,9.39 -6.119,14.602 -1.934,5.301 -3.536,11.109 -5.475,17.129 -1.636,6.107 -2.777,12.681 -4.287,19.443 -1.818,13.738 -3.357,28.755 -2.091,44.594 0.612,15.853 4,32.354 8.988,48.818 4.958,16.544 13.044,32.562 22.565,47.829 9.705,15.166 22.352,28.871 35.733,40.793 14.439,12.216 29.586,21.338 45.906,29.076 16.502,6.979 33.463,11.981 50.291,14.573 16.846,2.049 33.363,3.08 48.82,1.086 7.784,-0.338 15.146,-2.288 22.351,-3.4 7.1,-1.651 13.89,-3.617 20.353,-5.549 6.278,-2.506 12.477,-4.452 18.032,-7.089 5.478,-2.794 10.853,-5.098 15.578,-7.855 4.66,-2.867 9.021,-5.549 13.055,-8.03 3.852,-2.741 7.248,-5.462 10.391,-7.801 6.456,-4.485 10.514,-9.227 13.721,-11.92 2.217,-2.053 3.658,-3.388 4.307,-3.989 L -49.11,-41.3 c -0.644,0.568 -2.043,1.804 -4.197,3.707 -3.127,2.516 -7.145,6.893 -13.402,11.048 -3.054,2.163 -6.361,4.66 -10.097,7.17 -3.892,2.264 -8.103,4.712 -12.602,7.327 -4.55,2.504 -9.696,4.587 -14.948,7.084 -5.319,2.364 -11.219,4.087 -17.199,6.283 -6.135,1.7 -12.577,3.379 -19.282,4.778 -6.803,0.906 -13.739,2.542 -21.043,2.713 -14.51,1.519 -29.928,0.236 -45.558,-2.019 -15.611,-2.77 -31.284,-7.704 -46.41,-14.512 -14.732,-7.244 -29.537,-16.717 -41.641,-27.463 -12.548,-11.55 -23.589,-24.047 -32.286,-38.126 -8.459,-14.077 -15.551,-28.74 -19.796,-43.791 -4.295,-14.972 -7.092,-29.889 -7.448,-44.154 -0.927,-14.247 0.645,-27.698 2.434,-39.948 1.427,-6.037 2.534,-11.883 4.056,-17.313 1.797,-5.353 3.298,-10.498 5.07,-15.194 2,-4.608 3.872,-8.922 5.601,-12.91 1.906,-3.901 3.986,-7.329 5.686,-10.501 3.251,-6.449 6.939,-10.791 8.989,-14.05 2.183,-3.171 3.35,-4.862 3.35,-4.862 0,0 -1.118,1.722 -3.213,4.954 -1.954,3.31 -5.53,7.769 -8.584,14.281 -1.605,3.208 -3.569,6.66 -5.354,10.586 -1.606,4.009 -3.344,8.343 -5.201,12.975 -1.628,4.708 -2.971,9.853 -4.601,15.191 -1.355,5.415 -2.285,11.23 -3.529,17.216 -1.422,12.148 -2.601,25.415 -1.294,39.373 0.735,13.977 3.895,28.495 8.481,42.957 4.536,14.54 11.843,28.575 20.382,41.937 8.675,13.284 19.975,25.25 31.842,35.619 12.859,10.712 26.225,18.553 40.663,25.269 14.574,6.058 29.548,10.315 44.37,12.524 14.845,1.694 29.383,2.531 42.978,0.699 6.848,-0.328 13.317,-2.09 19.652,-3.089 6.238,-1.492 12.208,-3.233 17.883,-4.965 5.513,-2.228 10.958,-3.955 15.835,-6.297 4.808,-2.475 9.53,-4.513 13.673,-6.954 4.091,-2.532 7.918,-4.902 11.456,-7.093 3.379,-2.421 6.361,-4.818 9.118,-6.881 5.665,-3.955 9.221,-8.132 12.036,-10.503 1.903,-1.768 3.141,-2.92 3.729,-3.467 l -6.005,-6.004 c -0.576,0.509 -1.764,1.555 -3.587,3.161 -2.715,2.179 -6.21,5.964 -11.637,9.563 -2.649,1.874 -5.523,4.033 -8.759,6.21 -3.378,1.96 -7.027,4.081 -10.928,6.346 -3.942,2.174 -8.401,3.979 -12.954,6.144 -4.604,2.057 -9.718,3.552 -14.895,5.458 -5.311,1.493 -10.893,2.938 -16.697,4.174 -5.89,0.791 -11.893,2.231 -18.216,2.396 -12.561,1.356 -25.91,0.283 -39.449,-1.594 -13.515,-2.363 -27.114,-6.507 -40.227,-12.343 -12.76,-6.164 -25.729,-14.285 -36.191,-23.465 -10.959,-9.903 -20.612,-20.586 -28.241,-32.688 -7.444,-12.082 -13.736,-24.67 -17.55,-37.624 -3.891,-12.88 -6.458,-25.726 -6.953,-38.033 -0.981,-12.283 0.202,-23.91 1.572,-34.502 1.14,-5.23 2.029,-10.283 3.251,-14.992 1.47,-4.644 2.698,-9.1 4.148,-13.178 1.656,-4.004 3.204,-7.752 4.635,-11.217 1.577,-3.397 3.318,-6.383 4.733,-9.145 2.704,-5.61 5.803,-9.415 7.517,-12.257 1.83,-2.769 2.806,-4.246 2.806,-4.246 0,0 -0.928,1.508 -2.667,4.336 -1.618,2.89 -4.601,6.811 -7.106,12.479 -1.318,2.795 -2.946,5.805 -4.4,9.224 -1.308,3.482 -2.723,7.248 -4.234,11.272 -1.305,4.09 -2.376,8.542 -3.679,13.168 -1.057,4.691 -1.771,9.71 -2.727,14.887 -1.006,10.485 -1.8,21.923 -0.444,33.913 0.868,12.012 3.794,24.458 7.969,36.825 4.1,12.443 10.598,24.402 18.114,35.773 7.606,11.313 17.499,21.455 27.789,30.203 11.211,9.135 22.717,15.634 35.195,21.282 12.557,5.093 25.461,8.568 38.191,10.376 12.755,1.321 25.227,1.955 36.879,0.288 5.869,-0.32 11.405,-1.884 16.832,-2.766 5.338,-1.328 10.451,-2.832 15.304,-4.358 4.716,-1.938 9.378,-3.436 13.542,-5.471 4.11,-2.143 8.148,-3.903 11.687,-6.015 3.497,-2.183 6.765,-4.226 9.789,-6.115 2.833,-2.155 5.435,-4.135 7.786,-5.923 4.839,-3.402 7.874,-6.988 10.279,-9.024 2.304,-2.154 3.533,-3.302 3.533,-3.302 l 3.772,-3.239 c 56.558,-56.666 56.419,-148.996 -0.316,-205.828 -27.612,-27.71 -64.366,-42.968 -103.488,-42.968 -38.762,0 -75.159,15.022 -102.581,42.397 l -3.904,3.91 -67.881,-67.881 -3.702,-4.119 3.918,-3.903 c 46.483,-46.329 108.361,-71.842 174.233,-71.842 66.307,0 128.562,25.797 175.298,72.637 C 96.036,-252.915 96.104,-96.212 0,0"/></g><g transform="translate(188.436,168.7165)" id="g976"><path inkscape:connector-curvature="0" id="path978" style="fill:#ffffff;fill-opacity:1;fill-rule:nonzero;stroke:none" d="m 0,0 22.785,-17.461 -5.514,-7.196 -15.141,11.602 -12.407,-16.186 13.191,-10.112 -5.515,-7.193 -13.19,10.108 -17.462,-22.785 -7.644,5.859 z"/></g><g transform="translate(209.0874,118.6647)" id="g980"><path inkscape:connector-curvature="0" id="path982" style="fill:#ffffff;fill-opacity:1;fill-rule:nonzero;stroke:none" d="m 0,0 4.934,-2.382 c 6.038,-2.917 8.617,0.034 11.534,6.073 2.957,6.124 3.538,9.935 -2.841,13.016 l -4.508,2.178 z m 4.387,31.238 13.949,-6.737 c 10.292,-4.97 12.393,-13.433 6.726,-25.17 -3.369,-6.974 -7.79,-11.134 -14.798,-11.526 l -3.994,-32.161 -9.187,4.437 4.409,29.76 -5.189,2.504 -12.489,-25.856 -8.675,4.189 z"/></g><g transform="translate(256.2627,112.4401)" id="g984"><path inkscape:connector-curvature="0" id="path986" style="fill:#ffffff;fill-opacity:1;fill-rule:nonzero;stroke:none" d="m 0,0 -0.185,0.044 -10.259,-22.597 9.368,-2.241 z m 0.554,19.772 7.808,-1.867 -1.04,-68.886 -9.368,2.241 0.606,14.712 -12.766,3.053 -6.117,-13.394 -9.369,2.241 z"/></g><g transform="translate(279.7749,127.0651)" id="g988"><path inkscape:connector-curvature="0" id="path990" style="fill:#ffffff;fill-opacity:1;fill-rule:nonzero;stroke:none" d="m 0,0 9.255,-0.159 13.857,-40.761 0.188,-0.003 0.689,40.515 9.632,-0.163 -1.14,-67.242 -9.066,0.156 -14.049,40.668 -0.189,0.003 -0.684,-40.419 -9.634,0.163 z"/></g><g transform="translate(358.3184,81.9411)" id="g992"><path inkscape:connector-curvature="0" id="path994" style="fill:#ffffff;fill-opacity:1;fill-rule:nonzero;stroke:none" d="m 0,0 c 1.639,-8.15 -3.505,-16.602 -11.932,-18.295 -7.222,-1.453 -16.264,0.391 -18.686,12.43 l -7.296,36.303 c -1.731,8.613 3.153,16.433 12.322,18.277 8.705,1.75 16.509,-3.523 18.352,-12.692 l 0.745,-3.703 -9.447,-1.899 -0.632,3.149 c -0.745,3.703 -3.601,6.406 -7.214,5.68 -4.721,-0.949 -5.182,-4.413 -4.289,-8.858 l 6.776,-33.711 c 0.762,-3.796 2.84,-6.462 7.099,-5.605 2.596,0.52 5.63,2.673 4.587,7.858 l -0.65,3.242 9.446,1.898 z"/></g><g transform="translate(352.0498,134.6979)" id="g996"><path inkscape:connector-curvature="0" id="path998" style="fill:#ffffff;fill-opacity:1;fill-rule:nonzero;stroke:none" d="m 0,0 26.449,11.178 3.53,-8.351 -17.576,-7.429 7.685,-18.183 15.312,6.472 3.531,-8.351 -15.313,-6.472 7.684,-18.183 17.576,7.425 3.749,-8.873 -26.446,-11.177 z"/></g><g transform="translate(394.7178,155.0788)" id="g1000"><path inkscape:connector-curvature="0" id="path1002" style="fill:#ffffff;fill-opacity:1;fill-rule:nonzero;stroke:none" d="m 0,0 6.859,6.215 33.081,-18.076 0.14,0.127 -14.812,34.63 6.927,6.28 45.162,-49.832 -7.137,-6.469 -27.467,30.306 -0.14,-0.127 12.34,-27.824 -3.568,-3.237 -26.408,15.076 -0.142,-0.127 27.467,-30.305 -7.14,-6.472 z"/></g><g transform="translate(476.999,167.1667)" id="g1004"><path inkscape:connector-curvature="0" id="path1006" style="fill:#ffffff;fill-opacity:1;fill-rule:nonzero;stroke:none" d="m 0,0 c 3.854,-2.561 7.338,-1.245 9.271,1.667 1.933,2.912 1.794,6.63 -2.06,9.19 l -29.586,19.649 c -3.857,2.56 -7.338,1.245 -9.271,-1.667 -1.934,-2.91 -1.797,-6.63 2.06,-9.191 z m -34.917,11.622 c -9.128,6.062 -9.094,16.016 -4.756,22.548 4.338,6.53 13.499,10.424 22.627,4.362 L 12.54,18.884 C 21.669,12.823 21.635,2.868 17.297,-3.664 12.959,-10.194 3.798,-14.088 -5.331,-8.026 Z"/></g><g transform="translate(505.9961,206.7975)" id="g1008"><path inkscape:connector-curvature="0" id="path1010" style="fill:#ffffff;fill-opacity:1;fill-rule:nonzero;stroke:none" d="m 0,0 1.494,3.879 c 2.783,7.227 -1.421,9.454 -7.592,11.829 -6.256,2.409 -9.962,2.52 -12.473,-4.003 l -1.526,-3.967 z m -28.03,10.794 1.559,4.055 c 2.31,5.996 -0.164,8.768 -5.895,10.975 -5.551,2.139 -9.241,1.233 -11.517,-4.675 l -1.426,-3.701 z m -29.203,0.921 5.058,13.135 c 4.482,11.634 13.814,13.002 22.011,9.842 l 2.292,-0.88 c 6.698,-2.581 8.319,-5.735 9.259,-10.651 3.657,3.449 8.195,3.928 14.717,1.415 L -0.371,23.22 C 10.561,19.011 14.728,11.434 10.245,-0.203 L 5.526,-12.454 Z"/></g><g transform="translate(460.9883,254.2741)" id="g1012"><path inkscape:connector-curvature="0" id="path1014" style="fill:#ffffff;fill-opacity:1;fill-rule:nonzero;stroke:none" d="M 0,0 1.937,9.439 67.822,-4.084 65.884,-13.523 Z"/></g><g transform="translate(464.4473,270.7751)" id="g1016"><path inkscape:connector-curvature="0" id="path1018" style="fill:#ffffff;fill-opacity:1;fill-rule:nonzero;stroke:none" d="m 0,0 0.505,9.621 57.538,-3.024 1.004,19.054 9.62,-0.507 -1.506,-28.673 z"/></g><g transform="translate(465.0664,303.8156)" id="g1020"><path inkscape:connector-curvature="0" id="path1022" style="fill:#ffffff;fill-opacity:1;fill-rule:nonzero;stroke:none" d="m 0,0 -0.912,9.591 66.941,6.381 0.915,-9.591 z"/></g><g transform="translate(470.7158,329.0124)" id="g1024"><path inkscape:connector-curvature="0" id="path1026" style="fill:#ffffff;fill-opacity:1;fill-rule:nonzero;stroke:none" d="m 0,0 2.606,-10.838 -8.816,-2.12 -7.465,31.043 8.817,2.12 2.607,-10.836 56.577,13.604 2.253,-9.369 z"/></g><g transform="translate(456.4014,348.1842)" id="g1028"><path inkscape:connector-curvature="0" id="path1030" style="fill:#ffffff;fill-opacity:1;fill-rule:nonzero;stroke:none" d="m 0,0 -11.676,26.227 8.282,3.689 7.758,-17.43 18.032,8.029 -6.761,15.183 8.282,3.689 6.762,-15.186 18.032,8.028 -7.76,17.427 8.8,3.918 11.679,-26.227 z m -21.533,8.195 -4.148,9.317 17.235,-5.973 2.536,-5.695 z"/></g><g transform="translate(440.9609,413.339)" id="g1032"><path inkscape:connector-curvature="0" id="path1034" style="fill:#ffffff;fill-opacity:1;fill-rule:nonzero;stroke:none" d="m 0,0 5.588,-7.848 -1.77,-1.26 c -3.618,-2.573 -5.521,-6.249 -2.672,-10.25 3.065,-4.306 7.24,-2.841 10.857,-0.268 4.23,3.012 5.417,4.438 4.131,9.667 l -1.888,7.696 c -2.313,8.788 1.141,13.216 9.143,18.913 9.231,6.572 18.488,8.063 25.715,-2.091 5.425,-7.619 3.917,-17.386 -3.47,-22.644 l -2.922,-2.082 -5.588,7.848 2.463,1.753 C 42.434,1.459 44.108,4.97 41.26,8.971 37.48,14.278 34.051,12.417 29.052,8.858 23.205,4.694 22.773,3.347 23.974,-1.597 l 1.689,-7.259 c 2.051,-8.742 -1.149,-13.687 -7.997,-18.562 -8.309,-5.917 -18.179,-6.22 -24.586,2.783 -5.588,7.845 -3.005,17.568 3.073,21.896 z"/></g><g id="g1036"><g id="g1038"/><g id="g1070"><g id="g1068" clip-path="url(#clipPath1042)"><g id="g1066"><g id="g1064" clip-path="url(#clipPath1046)"><g id="g1062"><g id="g1060"><path inkscape:connector-curvature="0" id="path1058" style="fill:url(#linearGradient1056);stroke:none" d="m 295.435,388.551 c 27.956,11.071 57.351,10.039 81.168,-0.562 -24.622,15.915 -55.765,20.233 -84.461,8.869 -28.695,-11.363 -48.442,-35.829 -55.496,-64.289 10.106,24.036 30.827,44.914 58.789,55.982"/></g></g></g></g></g></g></g></g></g><g id="g1072"><g clip-path="url(#clipPath1078)" id="g1074"><g id="g1080"><g id="g1082"><path inkscape:connector-curvature="0" id="path1092" style="fill:url(#linearGradient1090);stroke:none" d="M 229.692,387.807 C 205.485,362.195 196.865,327.344 203.31,294.492 v 0 c -1.148,29.746 10.212,61.355 33.796,86.311 v 0 c 23.58,24.95 54.497,38.077 84.261,38.61 v 0 c -5.014,0.692 -10.059,1.039 -15.087,1.039 v 0 c -28.226,10e-4 -56.044,-10.905 -76.588,-32.645"/></g></g></g></g><g id="g1094"><g clip-path="url(#clipPath1100)" id="g1096"><g id="g1102"><g id="g1104"/><g id="g1116"><g id="g1114" clip-path="url(#clipPath1108)"><g id="g1112" transform="translate(237.1055,380.8024)"><path inkscape:connector-curvature="0" id="path1110" style="fill:#ffffff;fill-opacity:1;fill-rule:nonzero;stroke:none" d="M 0,0 C 23.58,24.951 54.498,38.078 84.262,38.61 51.096,43.192 16.79,32.617 -7.414,7.005 -31.621,-18.607 -40.24,-53.458 -33.796,-86.311 -34.944,-56.564 -23.583,-24.955 0,0"/></g></g></g></g><g id="g1118"><g id="g1120"/><g id="g1152"><g id="g1150" clip-path="url(#clipPath1124)"><g id="g1148"><g id="g1146" clip-path="url(#clipPath1128)"><g id="g1144"><g id="g1142"><path inkscape:connector-curvature="0" id="path1140" style="fill:url(#linearGradient1138);stroke:none" d="m 182.007,327.503 c 7.876,38.197 29.905,69.352 58.342,87.649 -34.775,-15.39 -61.608,-46.1 -69.694,-85.309 -8.082,-39.208 4.41,-78.032 30.265,-105.921 -18.883,28.054 -26.792,65.382 -18.913,103.581"/></g></g></g></g></g></g></g><g transform="translate(240.2002,223.2116)" id="g1154"><path inkscape:connector-curvature="0" id="path1156" style="fill:#4f7383;fill-opacity:1;fill-rule:nonzero;stroke:none" d="m 0,0 13.531,-8.674 -2.739,-4.274 -8.992,5.763 -6.162,-9.612 7.835,-5.021 -2.74,-4.275 -7.834,5.022 -8.673,-13.532 -4.54,2.911 z"/></g><g transform="translate(254.2256,196.1784)" id="g1158"><path inkscape:connector-curvature="0" id="path1160" style="fill:#4f7383;fill-opacity:1;fill-rule:nonzero;stroke:none" d="m 0,0 2.864,-1.088 c 3.508,-1.331 4.802,0.437 6.134,3.944 1.351,3.557 1.49,5.707 -2.214,7.117 l -2.618,0.993 z m 0.929,17.622 8.1,-3.078 C 15.006,12.274 16.588,7.66 13.998,0.843 12.46,-3.207 10.197,-5.738 6.311,-6.298 l -0.665,-18.117 -5.335,2.028 1.013,16.797 -3.013,1.146 -5.705,-15.016 -5.037,1.914 z"/></g><g transform="translate(274.606,206.9362)" id="g1162"><path inkscape:connector-curvature="0" id="path1164" style="fill:#4f7383;fill-opacity:1;fill-rule:nonzero;stroke:none" d="m 0,0 15.874,-2.492 -0.787,-5.014 -10.548,1.657 -1.713,-10.914 9.189,-1.442 -0.787,-5.014 -9.19,1.445 -1.715,-10.914 10.548,-1.658 -0.836,-5.326 -15.873,2.495 z"/></g><g transform="translate(291.8633,204.3346)" id="g1166"><path inkscape:connector-curvature="0" id="path1168" style="fill:#4f7383;fill-opacity:1;fill-rule:nonzero;stroke:none" d="m 0,0 5.172,0.269 9.308,-22.224 0.105,0.005 -1.177,22.645 5.386,0.282 1.952,-37.586 -5.067,-0.264 -9.408,22.165 -0.107,-0.005 1.176,-22.594 -5.385,-0.281 z"/></g><g transform="translate(337.7529,182.3278)" id="g1170"><path inkscape:connector-curvature="0" id="path1172" style="fill:#4f7383;fill-opacity:1;fill-rule:nonzero;stroke:none" d="m 0,0 c 1.25,-4.481 -1.271,-9.41 -5.907,-10.701 -3.972,-1.106 -9.094,-0.447 -10.939,6.171 l -5.561,19.961 c -1.321,4.735 1.084,9.302 6.125,10.706 4.787,1.333 9.359,-1.289 10.762,-6.329 l 0.57,-2.037 -5.196,-1.447 -0.48,1.731 c -0.569,2.038 -2.272,3.426 -4.26,2.875 -2.594,-0.725 -2.71,-2.678 -2.028,-5.121 l 5.162,-18.536 c 0.584,-2.086 1.851,-3.49 4.194,-2.835 1.426,0.397 3.032,1.722 2.239,4.574 l -0.498,1.782 5.194,1.447 z"/></g><g transform="translate(332.082,211.3942)" id="g1174"><path inkscape:connector-curvature="0" id="path1176" style="fill:#4f7383;fill-opacity:1;fill-rule:nonzero;stroke:none" d="m 0,0 4.763,2.526 7.559,-14.239 5.884,3.125 -7.562,14.239 4.761,2.529 17.652,-33.241 -4.762,-2.528 -7.858,14.8 -5.883,-3.124 7.86,-14.801 -4.763,-2.529 z"/></g><g transform="translate(357.3447,226.5553)" id="g1178"><path inkscape:connector-curvature="0" id="path1180" style="fill:#4f7383;fill-opacity:1;fill-rule:nonzero;stroke:none" d="m 0,0 3.457,3.857 19.462,-8.146 0.071,0.081 -10.255,18.418 3.494,3.895 28.025,-25.118 -3.598,-4.015 -17.044,15.276 -0.07,-0.078 8.48,-14.774 -1.799,-2.006 -15.572,6.859 -0.07,-0.078 17.043,-15.276 -3.598,-4.016 z"/></g><g transform="translate(402.5586,238.2799)" id="g1182"><path inkscape:connector-curvature="0" id="path1184" style="fill:#4f7383;fill-opacity:1;fill-rule:nonzero;stroke:none" d="m 0,0 c 2.297,-1.196 4.154,-0.256 5.056,1.479 0.902,1.734 0.602,3.793 -1.695,4.99 l -17.625,9.164 c -2.297,1.193 -4.154,0.254 -5.055,-1.48 -0.903,-1.735 -0.605,-3.796 1.692,-4.989 z m -20.112,4.382 c -5.439,2.827 -6.013,8.365 -3.989,12.257 2.024,3.89 6.886,6.602 12.325,3.773 L 5.849,11.248 C 11.285,8.422 11.861,2.883 9.837,-1.008 7.813,-4.896 2.951,-7.608 -2.487,-4.782 Z"/></g><g transform="translate(416.377,262.2878)" id="g1186"><path inkscape:connector-curvature="0" id="path1188" style="fill:#4f7383;fill-opacity:1;fill-rule:nonzero;stroke:none" d="m 0,0 0.594,2.248 c 1.108,4.191 -1.367,5.173 -4.944,6.117 -3.629,0.96 -5.695,0.796 -6.696,-2.987 l -0.607,-2.3 z m -16.252,4.294 0.619,2.351 c 0.921,3.476 -0.627,4.868 -3.949,5.746 -3.22,0.849 -5.217,0.12 -6.12,-3.305 L -26.271,6.94 Z m -16.302,-1.272 2.012,7.617 c 1.781,6.747 6.891,8.075 11.644,6.82 l 1.328,-0.352 c 3.885,-1.025 4.979,-2.682 5.801,-5.361 1.825,2.144 4.319,2.689 8.1,1.69 l 2.046,-0.542 C 4.714,11.222 7.494,7.26 5.712,0.513 L 3.835,-6.591 Z"/></g><g transform="translate(388.459,286.1032)" id="g1190"><path inkscape:connector-curvature="0" id="path1192" style="fill:#4f7383;fill-opacity:1;fill-rule:nonzero;stroke:none" d="M 0,0 0.498,5.368 37.976,1.892 37.478,-3.477 Z"/></g><g transform="translate(389.3623,295.6061)" id="g1194"><path inkscape:connector-curvature="0" id="path1196" style="fill:#4f7383;fill-opacity:1;fill-rule:nonzero;stroke:none" d="m 0,0 -0.306,5.385 32.201,1.814 -0.601,10.665 5.385,0.303 0.903,-16.048 z"/></g><g transform="translate(387.6846,314.1217)" id="g1198"><path inkscape:connector-curvature="0" id="path1200" style="fill:#4f7383;fill-opacity:1;fill-rule:nonzero;stroke:none" d="m 0,0 -1.108,5.275 36.826,7.741 1.108,-5.275 z"/></g><g transform="translate(389.2031,328.5827)" id="g1202"><path inkscape:connector-curvature="0" id="path1204" style="fill:#4f7383;fill-opacity:1;fill-rule:nonzero;stroke:none" d="m 0,0 2.139,-5.861 -4.768,-1.738 -6.125,16.785 4.768,1.738 2.138,-5.859 30.589,11.161 1.848,-5.065 z"/></g><g transform="translate(396.0898,353.8405)" id="g1206"><path inkscape:connector-curvature="0" id="path1208" style="fill:#4f7383;fill-opacity:1;fill-rule:nonzero;stroke:none" d="m 0,0 -14.859,-17.5 -2.929,4.901 10.621,11.398 -0.054,0.09 -15.069,-3.952 -2.929,4.902 22.45,4.791 13.664,8.161 2.765,-4.628 z"/></g></g></g></g></g><script xmlns=""/></svg>