<svg xmlns="http://www.w3.org/2000/svg" width="197.318" height="125.773" viewBox="0 0 197.318 125.773">
    <defs>
        <linearGradient id="prefix__linear-gradient" x1="10.435" x2="10.445" y1="73.134" y2="73.134" gradientUnits="objectBoundingBox">
            <stop offset="0" stop-color="#4fb8a3"/>
            <stop offset=".244" stop-color="#4bb7a6"/>
            <stop offset=".469" stop-color="#40b6ad"/>
            <stop offset=".687" stop-color="#2db3ba"/>
            <stop offset=".899" stop-color="#13aecc"/>
            <stop offset="1" stop-color="#04acd7"/>
        </linearGradient>
        <clipPath id="prefix__clip-path">
            <path id="prefix__Rectangle_1103" d="M0 0H29.61V2.844H0z" data-name="Rectangle 1103"/>
        </clipPath>
        <style>
            .prefix__cls-1{fill:none;stroke:#3a3188;stroke-linecap:round;stroke-linejoin:round;stroke-miterlimit:10;stroke-width:1.2px}.prefix__cls-5{fill:#3a3188}.prefix__cls-8{fill:#db1c83}.prefix__cls-9{fill:#59bbab}
        </style>
    </defs>
    <g id="prefix__LOGO_AT_Fond_Transparent" data-name="LOGO_AT_Fond Transparent" transform="translate(-35.2 -25.6)">
        <g id="prefix__Groupe_1944" data-name="Groupe 1944" transform="translate(35.2 28.362)">
            <path id="prefix__Tracé_6866" d="M436.231 213.375c.221-1.517.442-3.034.727-4.551.506-2.844 1.138-5.593 1.706-7.9.79-3.223 1.643-6.478 2.465-9.638.158-.6.316-1.2.474-1.77a36.778 36.778 0 0 0 1.359-8.28 10.92 10.92 0 0 0-.79-4.93 7.721 7.721 0 0 0-3.381-3.824c-.221-.126-.442-.221-.664-.348a13.885 13.885 0 0 0-5.183-1.232 32.816 32.816 0 0 0-10.144 1.2 31.86 31.86 0 0 0-4.835 1.58 20.7 20.7 0 0 0-12.072 15.706s-2.749 10.428-.379 25.123" class="prefix__cls-1" data-name="Tracé 6866" transform="translate(-287.832 -127.716)"/>
            <path id="prefix__Tracé_6867" d="M410.986 192.6c1.39-8.058 8.28-24.207 10.207-35.3a14.923 14.923 0 0 0-.758-8 12.573 12.573 0 0 0-4.551-6.067c-.348-.253-.727-.474-1.074-.7a13.853 13.853 0 0 0-3.95-1.517 38.049 38.049 0 0 0-10.713-.316 80.229 80.229 0 0 0-11.661 2.212c-4.013 1.043-7.837 2.591-12.261 3.476-16.907 3.413-19.53 8.564-20.225 11.06" data-name="Tracé 6867" transform="translate(-254.623 -106.943)" style="stroke-width:1.7px;fill:none;stroke:#3a3188;stroke-linecap:round;stroke-linejoin:round;stroke-miterlimit:10"/>
            <path id="prefix__Tracé_6868" d="M382.314 165.777c3.034-10.3 11.945-27.367 12.957-35.014a33.563 33.563 0 0 0 .063-10.808 21.877 21.877 0 0 0-8.216-13.589 25.719 25.719 0 0 0-3.982-2.5 28.75 28.75 0 0 0-8.058-2.37c-9.006-1.2-20.794 2.655-22.026 3-1.8.506-15.105 4.393-20.256 5.657-2.749.7-5.562 1.3-8.28 1.864-1.928.411-8.469 1.264-11.534 2.338-5.4 1.864-9.259 5.277-10.112 10.871a52.544 52.544 0 0 0-.569 5.372" data-name="Tracé 6868" transform="translate(-217.893 -80.119)" style="fill:none;stroke:#3a3188;stroke-linecap:round;stroke-linejoin:round;stroke-miterlimit:10"/>
            <path id="prefix__Tracé_6869" d="M357.789 139.686c3.065-8.754 10.3-26.229 12.135-33.087a46.785 46.785 0 0 0 1.485-8.469 35.555 35.555 0 0 0-.126-7.616 28.654 28.654 0 0 0-3.792-11 37.084 37.084 0 0 0-6.731-7.774c-2.56-2.43-6.26-4.294-9.76-5.84a32.577 32.577 0 0 0-7.742-2.307 34.153 34.153 0 0 0-10.46-.126c-8.5 1.074-25.06 8.122-29.263 9.386a61.8 61.8 0 0 1-23.2 2.781c-18.834-1.264-25.565 8.216-24.27 17.633.411 2.971.948 6.921 1.738 11.345" data-name="Tracé 6869" transform="translate(-186.163 -54.028)" style="stroke-width:.8px;fill:none;stroke:#3a3188;stroke-linecap:round;stroke-linejoin:round;stroke-miterlimit:10"/>
            <path id="prefix__Tracé_6870" d="M337.755 120c.126-.379 10.3-22.374 13.336-31.759a41.3 41.3 0 0 0 1.77-9.544 45.176 45.176 0 0 0-.063-9.512 31.923 31.923 0 0 0-4.2-12.514 57.522 57.522 0 0 0-9.954-11 59.86 59.86 0 0 0-11.945-7.015 75.2 75.2 0 0 0-7.774-2.749 38.558 38.558 0 0 0-12.425-1.516 24.722 24.722 0 0 0-8.785 2.086c-3.445 1.58-6.921 3.287-10.27 4.961l-.095.063a92.7 92.7 0 0 1-12.2 5.277c-.348.126-4.93 1.643-6.921 2.117-1.675.411-3.413.7-5.088.948-5.72.822-13.431.916-18.076-.126-9.2-2.086-34.7.506-25.407 30.653 0 0 .506 1.8 1.327 4.487" class="prefix__cls-1" data-name="Tracé 6870" transform="translate(-159.998 -34.34)"/>
            <path id="prefix__Tracé_6871" d="M45.57 214.4l-9.07 25.407h5.183l1.991-5.657h8.975l1.959 5.657h5.246L51.068 214.4zm-.411 15.453l3-8.532 2.939 8.532z" class="prefix__cls-5" data-name="Tracé 6871" transform="translate(-36.089 -157.499)"/>
            <path id="prefix__Rectangle_1099" d="M0 0H4.993V25.565H0z" class="prefix__cls-5" data-name="Rectangle 1099" transform="translate(26.703 56.743)"/>
            <path id="prefix__Tracé_6872" d="M164.138 214.4H155.1v25.407h9.038c8.153 0 11.819-3.919 11.819-12.7-.032-8.785-3.666-12.7-11.819-12.7m-.158 20.983h-3.887v-16.534h3.887c4.961 0 6.794 2.244 6.794 8.28.032 6-1.833 8.248-6.794 8.248" class="prefix__cls-5" data-name="Tracé 6872" transform="translate(-117.21 -157.499)"/>
            <path id="prefix__Tracé_6873" d="M329.055 223.139c-3.634-.853-5.341-1.454-5.341-3.129 0-2.212.727-3.413 4.582-3.413 3.476 0 4.709 1.074 4.709 4.077v1.043h4.74v-1.043c0-5.72-3-8.374-9.449-8.374s-9.48 2.591-9.48 8.153c0 5.246 4.772 6.352 8.627 7.268 3.571.853 5.751 1.517 5.751 3.634 0 2.212-.79 3.413-4.9 3.413-3.761 0-5.025-1.011-5.025-4.077v-1.043H318.5v1.043c0 5.783 3.034 8.374 9.8 8.374s9.765-2.5 9.765-8.153c.032-5.657-4.993-6.826-9.006-7.774" class="prefix__cls-5" data-name="Tracé 6873" transform="translate(-228.974 -156.063)"/>
            <path id="prefix__Tracé_6874" d="M243.424 211.3c-8.122 0-11.724 4.171-11.724 13.525s3.6 13.525 11.724 13.525c5.119 0 8.248-1.833 9.923-5.72l.727-1.706h-5.151l-.348.632c-.98 1.738-2.465 2.465-5.183 2.465-4.108 0-6.067-1.738-6.636-5.973h18.36v-2.5c.032-9.86-3.571-14.252-11.692-14.252m-6.794 12.514c.19-5.815 2.117-8.09 6.794-8.09h.095l.221-.032c4.424.095 6.257 2.4 6.478 8.122z" class="prefix__cls-5" data-name="Tracé 6874" transform="translate(-169.604 -155.379)"/>
            <path id="prefix__Tracé_6875" d="M178.464 332.531c0-4.456-2.5-6.731-7.395-6.731H162v21.11h3.192v-7.81h5.815l4.235 7.774h3.476l-4.551-8.185c2.907-.758 4.3-2.781 4.3-6.162m-7.521 3.982h-5.751v-8h5.751c3 0 4.3 1.2 4.3 4.013.032 2.749-1.3 3.982-4.3 3.982" class="prefix__cls-5" data-name="Tracé 6875" transform="translate(-121.93 -233.695)"/>
            <path id="prefix__Tracé_6876" d="M243.864 332.531c0-4.456-2.5-6.731-7.395-6.731H227.4v21.11h3.192v-7.81h5.846l4.235 7.774h3.476l-4.551-8.153c2.876-.79 4.266-2.812 4.266-6.194m-7.489 3.982h-5.751v-8h5.751c3 0 4.3 1.2 4.3 4.013 0 2.749-1.327 3.982-4.3 3.982" class="prefix__cls-5" data-name="Tracé 6876" transform="translate(-166.662 -233.695)"/>
            <path id="prefix__Rectangle_1100" d="M0 0H3.192V21.11H0z" class="prefix__cls-5" data-name="Rectangle 1100" transform="translate(81.436 92.105)"/>
            <path id="prefix__Tracé_6877" d="M312.4 328.644h6.383v18.266h3.192v-18.266h6.415V325.8H312.4z" class="prefix__cls-5" data-name="Tracé 6877" transform="translate(-224.801 -233.695)"/>
            <path id="prefix__Tracé_6878" d="M35.2 328.644h6.383v18.266h3.192v-18.266h6.415V325.8H35.2z" class="prefix__cls-5" data-name="Tracé 6878" transform="translate(-35.2 -233.695)"/>
            <path id="prefix__Rectangle_1101" d="M0 0H3.192V21.11H0z" class="prefix__cls-5" data-name="Rectangle 1101" transform="translate(132.441 92.105)"/>
            <path id="prefix__Tracé_6879" d="M494.464 332.531c0-4.456-2.5-6.731-7.395-6.731H478v21.11h3.192v-7.81h5.815l4.235 7.774h3.476l-4.551-8.185c2.907-.758 4.3-2.781 4.3-6.162m-7.49 3.982h-5.751v-8h5.751c3 0 4.3 1.2 4.3 4.013 0 2.749-1.327 3.982-4.3 3.982" class="prefix__cls-5" data-name="Tracé 6879" transform="translate(-338.07 -233.695)"/>
            <path id="prefix__Tracé_6880" d="M548.2 323.4c-6.794 0-9.7 3.381-9.7 11.282s2.907 11.282 9.7 11.282c4.266 0 6.794-1.422 8.153-4.645l.284-.664h-3.255l-.126.253c-.948 1.706-2.465 2.465-5.056 2.465-4.171 0-6.067-1.865-6.478-6.415H557.9v-1.612c0-8.374-2.907-11.945-9.7-11.945m-6.573 10.966c.063-5.941 1.928-8.28 6.573-8.28l.19-.032c4.393.063 6.257 2.5 6.352 8.311z" class="prefix__cls-5" data-name="Tracé 6880" transform="translate(-379.451 -232.054)"/>
            <path id="prefix__Tracé_6881" d="M98.4 323.4c-6.794 0-9.7 3.381-9.7 11.282s2.907 11.282 9.7 11.282c4.266 0 6.794-1.422 8.153-4.645l.284-.664h-3.255l-.126.253c-.948 1.706-2.465 2.465-5.056 2.465-4.171 0-6.067-1.865-6.478-6.415H108.1v-1.612c0-8.374-2.907-11.945-9.7-11.945m-6.54 10.965c.063-5.941 1.928-8.28 6.573-8.28l.19-.032c4.393.063 6.257 2.5 6.352 8.311z" class="prefix__cls-5" data-name="Tracé 6881" transform="translate(-71.793 -232.054)"/>
            <path id="prefix__Tracé_6882" d="M616.959 333.138c-2.812-.664-5.246-1.232-5.246-3.381 0-2.655 1.264-3.634 4.709-3.634s4.8 1.2 4.8 4.235v.316h3v-.316c0-4.74-2.4-6.857-7.806-6.857-5.435 0-7.837 2.054-7.837 6.636 0 4.2 3.824 5.088 7.205 5.909 3 .7 5.593 1.327 5.593 3.824 0 2.623-1.39 3.634-4.961 3.634-3.666 0-5.088-1.2-5.088-4.235v-.316H608.3v.316c0 4.74 2.5 6.857 8.122 6.857 5.593 0 8.09-2.054 8.09-6.636.032-4.582-4.013-5.53-7.553-6.352" class="prefix__cls-5" data-name="Tracé 6882" transform="translate(-427.193 -232.122)"/>
        </g>
        <g id="prefix__Groupe_1946" data-name="Groupe 1946" transform="translate(138.252 148.529)">
            <g id="prefix__Groupe_1945" data-name="Groupe 1945">
                <path id="prefix__Rectangle_1102" d="M0 0H29.61V2.844H0z" data-name="Rectangle 1102"/>
            </g>
        </g>
        <g id="prefix__Groupe_1947" data-name="Groupe 1947" transform="translate(140.179 25.6)">
            <path id="prefix__Tracé_6883" d="M380.04 299.7a12.466 12.466 0 0 0-12.1 16.085s.158.506.253.727a13.168 13.168 0 0 0 1.043 2.117 79.094 79.094 0 0 0 10.839 15.516c3.666-3.476 7.837-9.765 10.144-13.968 1.2-2.37 2.433-5.151 2.433-8A12.516 12.516 0 0 0 380.04 299.7m.063 20.383a8.058 8.058 0 1 1 8.058-8.058 8.052 8.052 0 0 1-8.058 8.058" class="prefix__cls-8" data-name="Tracé 6883" transform="translate(-367.4 -213.081)"/>
            <path id="prefix__Tracé_6884" d="M634.5 171.276a2.876 2.876 0 1 1 2.876 2.876 2.886 2.886 0 0 1-2.876-2.876" class="prefix__cls-5" data-name="Tracé 6884" transform="translate(-550.093 -123.273)"/>
            <path id="prefix__Tracé_6885" d="M439.7 135.467a5.467 5.467 0 1 1 5.467 5.467 5.469 5.469 0 0 1-5.467-5.467" class="prefix__cls-9" data-name="Tracé 6885" transform="translate(-416.852 -97.008)"/>
            <path id="prefix__Tracé_6886" d="M534.3 253.676a2.876 2.876 0 1 1 2.876 2.876 2.886 2.886 0 0 1-2.876-2.876" class="prefix__cls-5" data-name="Tracé 6886" transform="translate(-481.557 -179.634)"/>
            <path id="prefix__Tracé_6887" d="M516.1 28.476a2.876 2.876 0 1 1 2.876 2.876 2.886 2.886 0 0 1-2.876-2.876" class="prefix__cls-5" data-name="Tracé 6887" transform="translate(-469.109 -25.6)"/>
            <path id="prefix__Tracé_6888" d="M496.9 167.276a2.876 2.876 0 1 1 2.876 2.876 2.886 2.886 0 0 1-2.876-2.876" class="prefix__cls-5" data-name="Tracé 6888" transform="translate(-455.976 -120.537)"/>
            <path id="prefix__Tracé_6889" d="M567.641 116.281a5.341 5.341 0 1 1 5.341-5.341 5.354 5.354 0 0 1-5.341 5.341" class="prefix__cls-9" data-name="Tracé 6889" transform="translate(-500.709 -80.319)"/>
            <path id="prefix__Tracé_6890" d="M487.9 92.7a4.2 4.2 0 1 0 4.2-4.2 4.2 4.2 0 0 0-4.2 4.2" class="prefix__cls-8" data-name="Tracé 6890" transform="translate(-449.82 -68.622)"/>
        </g>
    </g>
</svg>
