<svg xmlns="http://www.w3.org/2000/svg" xmlns:xlink="http://www.w3.org/1999/xlink" viewBox="325.8 237.7 173.5 110.3"><path fill="#FFF" stroke="#000" stroke-width=".373" stroke-miterlimit="10" d="M328.6 240.6H497v104.5H328.6z"/><path fill="#1A171B" d="M410.4 322.3c-.1.1-.1.3-.2.7v3c0 .7-.1 1.1-.4 1.5-.4.7-1.2 1-2.2 1-.6 0-1.1-.1-1.5-.4-.7-.4-1-1-1-2.1v-1.9-1.5c0-.3-.2-.5-.6-.5v-.3H407.1v.3c-.3 0-.4.1-.5.3-.1.1-.1.3-.1.8v1.9c0 1.7 0 2 .3 2.4.2.3.6.4 1.1.4.7 0 1.3-.3 1.5-1 .1-.4.1-.7.1-1.9v-1c0-1.1 0-1.5-.1-1.6-.1-.2-.2-.3-.5-.3v-.3h2v.3c-.2 0-.4 0-.5.2zM416.5 328.3c-.1.1-.2.2-.7.2H412v-.3c.4 0 .6-.3.7-.7v-3.9c0-.5 0-.7-.1-1-.1-.2-.2-.4-.6-.4v-.3h4.7v1.6h-.3c0-.8-.4-1-1.6-1h-.7v2.2h.4c1 0 1.3-.1 1.4-.7h.3v2h-.3c0-.5-.3-.7-1.3-.7h-.5v1.9c0 .4 0 .5.3.6h.7c1.1 0 1.4-.2 1.7-1l.4.1c-.4.6-.6 1.2-.7 1.4zM425.8 322.3c0-.9-.5-1.2-1.9-1.2h-.8v2.7h.6c1.1 0 1.4-.2 1.5-.8h.4v2.3h-.4c-.1-.7-.3-.9-1.6-.9h-.5v2.2c0 .6 0 1.2.8 1.3v.3h-3.2v-.3c.5 0 .8-.3.8-.9v-4.8c0-.6 0-.9-.1-1.2-.1-.3-.3-.4-.7-.5v-.3h5.6V322.1l-.5.2zM432.5 328.5c-.3 0-.6 0-.8-.2-.3-.2-.7-.8-.9-1.1-.3-.6-.7-1.2-1.1-1.7h-.4v1.3c0 .5 0 .7.1 1 .1.2.3.4.6.4v.3H427.4v-.3c.2 0 .3 0 .5-.2.1-.1.2-.3.2-.5v-3.2c0-1.2 0-1.5-.1-1.8 0-.2-.3-.4-.6-.4v-.3h3c.7 0 1.1.1 1.4.3.4.2.6.8.6 1.3 0 .8-.5 1.5-1.4 1.8.4.5.7.9 1 1.5.3.5.6.9.9 1.2.1.1.2.2.4.2v.3c-.3.1-.5.1-.8.1zm-2.6-6.3c-.2 0-.4 0-.6.1v2.5h.4c.8 0 1.4-.5 1.4-1.3 0-.7-.5-1.3-1.2-1.3zM439.7 328.4H437.4v-.3c.3 0 .5-.2.5-.4 0-.1 0-.2-.1-.5l-.3-.9h-1.9l-.2.6c-.1.4-.2.8-.2.9 0 .3.1.4.4.4v.3h-2v-.3c.1 0 .2 0 .3-.1.2-.1.4-.5.7-1.3l.9-2.4c.2-.6.6-1.7.9-2.5h.7c.1.3.3.8.4 1.1l1.4 3.6c.2.6.4 1 .5 1.2.1.2.3.3.5.4v.3h-.2v-.1zm-3.2-4.9c-.2.7-.6 1.5-.7 2h1.5l-.8-2zM446.8 322.3c-.1.2-.1.3-.1.8v5.2h-.7c-.6-.8-2-2.5-2-2.5-.1-.2-1.4-1.7-2-2.5v3.5c0 .4 0 .6.1.8.1.2.2.3.5.3v.3h-2.1v-.3c.6 0 .7-.5.7-1.1v-3.5c0-.8 0-1-.2-1.2-.1-.1-.2-.2-.5-.2v-.3H442.2c.1.2.3.4 1 1.2 1 1.2 1.8 2.2 2.7 3.2v-2-1.5c0-.3-.2-.5-.6-.5v-.3h2v.3c-.2 0-.3.1-.5.3zM453.8 328.2c-.6.2-1.2.3-2 .3l-.1.4h.2c.4 0 .6.2.6.6 0 .5-.4.9-1.1.9-.2 0-.4 0-.6-.1l.1-.4c.1 0 .2.1.3.1.3 0 .5-.1.5-.4 0-.2-.1-.3-.2-.3s-.1 0-.2.1h-.2l.2-.8c-.9-.1-1.5-.3-2-.9-.6-.6-.9-1.5-.9-2.5 0-2.1 1.4-3.5 3.7-3.5.7 0 1.3.1 1.9.3v1.4h-.5c-.1-.7-.7-1.1-1.6-1.1-1.4 0-2.3.9-2.3 2.5 0 1.8 1 3.1 2.4 3.1.8 0 1.4-.4 1.6-1.2l.4.1c-.1.3-.1.8-.2 1.4zM460.8 328.4H458.4v-.3c.3 0 .5-.2.5-.4 0-.1 0-.2-.1-.5l-.3-.9h-1.9l-.2.6c-.1.4-.2.8-.2.9 0 .3.1.4.4.4v.3h-2v-.3c.1 0 .2 0 .3-.1.2-.1.4-.5.7-1.3l.9-2.4c.2-.6.6-1.7.9-2.5h.7c.1.3.3.8.4 1.1l1.4 3.6c.2.6.4 1 .5 1.2.1.2.3.3.5.4v.3h-.1v-.1zm-3.3-4.9c-.2.7-.6 1.5-.8 2h1.5l-.7-2zM464 328.4H461.6v-.3c.5 0 .6-.3.7-.7v-3.2-.8c0-.5 0-.7-.1-1-.1-.2-.3-.4-.6-.4v-.3H464.2v.3c-.4 0-.6.3-.7.7v3.2c0 1.3 0 1.5.1 1.8.1.2.3.4.6.4v.3h-.2zM467.1 328.5c-.6 0-1-.1-1.7-.3 0-.4-.1-.9-.2-1.4h.4c.2.8.8 1.2 1.5 1.2s1.2-.4 1.2-.9c0-.4-.3-.7-.7-1l-1-.7c-.7-.4-1.1-.9-1.1-1.8 0-1.1.8-1.8 2.2-1.8.6 0 1.2.1 1.6.3V323.4h-.4c-.1-.7-.6-1.1-1.3-1.1-.6 0-1 .4-1 .9s.3.8.8 1.1l.8.5c.8.5 1.3 1 1.3 1.8 0 1.2-1 1.9-2.4 1.9zM475.2 328.3c-.1.1-.2.2-.7.2h-3.8v-.3c.4 0 .6-.3.7-.7v-3.9c0-.5 0-.7-.1-1-.1-.2-.2-.4-.6-.4v-.3h4.7v1.6h-.4c0-.8-.4-1-1.6-1h-.7v2.2h.4c1 0 1.3-.1 1.4-.7h.3v2h-.3c0-.5-.3-.7-1.3-.7h-.5v1.9c0 .4 0 .5.3.6h.7c1.1 0 1.4-.2 1.7-1l.4.1c-.4.6-.5 1.2-.6 1.4zM407 311.5c-.2 0-.2-.1-.3-.6-.7.4-1.2.6-1.8.6-.6 0-.9-.3-.9-.8s.2-1.2.6-1.8c.5-.8 1.2-1.3 2.2-1.3.4 0 .8.1 1.2.2v.1c-.3 1.1-.6 2.3-.6 2.8 0 .2 0 .4.2.4.1 0 .3 0 .5-.1v.3c-.4.1-.9.2-1.1.2zm-.4-3.6c-.4 0-.8.3-1.1.8-.4.6-.6 1.4-.6 1.9 0 .3.1.4.4.4.3 0 1-.3 1.2-.5.1-.1.2-.3.3-.7.1-.6.3-1.1.4-1.8-.3 0-.5-.1-.6-.1zM411.4 305.8c-.3 1.3-.6 2.7-.9 4.1-.1.4-.1.7-.1.9 0 .1 0 .2.2.2.1 0 .2 0 .5-.1v.2c-.5.2-1.1.3-1.3.3-.2 0-.3-.1-.3-.3 0-.1 0-.3.2-.9.3-1.3.6-2.7.9-3.9.1-.5.1-.8.1-.9 0-.1 0-.1-.1-.1s-.3 0-.4.1v-.3c.5-.2 1-.3 1.3-.3.1 0 .2 0 .2.1-.2.2-.2.4-.3.9zM413.8 306.6c-.3 0-.5-.2-.5-.4 0-.3.2-.6.6-.6.3 0 .5.2.5.4 0 .3-.3.6-.6.6zm-1.1 4.9c-.2 0-.3-.1-.3-.3 0-.1 0-.2.1-.4.1-.5.3-1.2.4-1.6.1-.5.2-.8.2-1 0-.1 0-.2-.1-.2s-.2 0-.4.1v-.2c.5-.2 1-.3 1.3-.3.1 0 .2 0 .2.1s0 .4-.2 1.1l-.1.6c-.2.9-.3 1.3-.3 1.4s.1.2.2.2.2 0 .5-.1v.2c-.6.3-1.2.4-1.5.4zM417.6 308.1h-.8l-.4 2c-.1.5-.1.6-.1.7 0 .1 0 .2.2.2 0 0 .2 0 .4-.1h.1v.3c-.5.2-1 .3-1.3.3-.2 0-.3-.1-.3-.3 0-.1 0-.4.1-.7.1-.3.1-.6.2-1l.3-1.4h-.5v-.3c.6-.1.9-.6 1.1-1.2l.5-.1-.2 1.1h.8l-.1.5zM420.6 306.9l-.3-.2 1.2-1.3.9.2-1.8 1.3zm-1.1 2.9h-.3v.4c0 .5.2.7.5.7s.7-.1 1.3-.5l.1.3c-.7.4-1.3.6-1.7.6-.6 0-.9-.3-.9-1 0-1.6 1.1-3 2.3-3 .6 0 1 .3 1 .7-.1 1.2-1 1.8-2.3 1.8zm1-1.9c-.4 0-.9.6-1.2 1.6h.1c.9 0 1.6-.5 1.6-1.1 0-.3-.2-.5-.5-.5zM439.1 306.3h-.3v-.2c0-.2 0-.3-.2-.4-.2-.2-.5-.2-1.2-.2h-.7c-.2.8-.3 1.6-.5 2.4h.5c1.1 0 1.3-.1 1.5-.7h.2c-.1.6-.3 1.2-.3 1.9h-.2v-.1c0-.1 0-.3-.2-.4-.1-.1-.3-.1-.9-.1h-.6l-.1.6c-.2.9-.2 1.4-.2 1.6 0 .4.2.6.5.6v.2h-.4-2.1v-.2c.3 0 .4-.1.6-.3s.2-.4.4-1c.1-.5.2-.8.4-1.8l.1-.7c.1-.8.2-1.2.2-1.5 0-.4-.1-.6-.5-.6v-.2h4.3c-.1.2-.2.7-.3 1.1zM442.4 308.7h-.3v-.4c0-.2-.1-.3-.4-.3-.1 0-.3.1-.4.2-.3.4-.5 1.1-.7 2.2l-.2.9c-.3 0-.5 0-.8.1.1-.3.1-.6.2-1l.2-.9c.1-.6.2-1 .2-1.2 0-.2 0-.3-.2-.3h-.2l-.2.1v-.3c.5-.2 1-.3 1.2-.3.1 0 .1 0 .2.1v.4c.4-.3.8-.5 1.1-.5.2 0 .4.1.6.2-.1.4-.2.7-.3 1zM446.2 311.5c-.1 0-.2-.1-.3-.6-.7.4-1.2.6-1.8.6-.6 0-.9-.3-.9-.8s.2-1.2.6-1.8c.5-.8 1.2-1.3 2.2-1.3.4 0 .8.1 1.2.2v.1c-.3 1.1-.6 2.3-.6 2.8 0 .2 0 .4.2.4.1 0 .3 0 .5-.1v.3c-.4.1-.9.2-1.1.2zm-.4-3.6c-.4 0-.8.3-1.1.8-.3.6-.6 1.4-.6 1.9 0 .3.1.4.4.4.3 0 1-.3 1.2-.5.1-.1.2-.3.3-.7.1-.6.3-1.1.4-1.8-.2 0-.4-.1-.6-.1zM450.9 308.1h-.8l-.4 2c-.1.5-.1.6-.1.7 0 .1 0 .2.2.2 0 0 .2 0 .4-.1h.1v.3c-.5.2-1 .3-1.3.3-.2 0-.3-.1-.3-.3 0-.1 0-.4.1-.7.1-.3.1-.6.2-1l.3-1.4h-.5v-.3c.6-.1.9-.6 1.1-1.2l.4-.1-.2 1.1h.8v.5zM452.8 309.8h-.3v.4c0 .5.2.7.5.7s.7-.1 1.3-.5l.1.3c-.7.4-1.2.6-1.8.6-.6 0-.9-.3-.9-1 0-1.6 1.1-3 2.3-3 .6 0 1 .3 1 .7 0 1.2-.9 1.8-2.2 1.8zm1-1.9c-.4 0-1 .6-1.2 1.6h.1c.9 0 1.6-.5 1.6-1.1 0-.3-.2-.5-.5-.5zM458.9 308.7h-.3v-.4c0-.2-.1-.3-.4-.3-.1 0-.3.1-.4.2-.3.4-.5 1.1-.7 2.2l-.2.9c-.3 0-.4 0-.8.1.1-.3.1-.6.2-1l.2-.9c.1-.6.2-1 .2-1.2 0-.2 0-.3-.1-.3h-.2l-.2.1v-.3c.5-.2 1-.3 1.2-.3.1 0 .1 0 .2.1v.4c.4-.3.8-.5 1.1-.5.2 0 .4.1.6.2-.2.4-.3.7-.4 1zM462.8 311.5c-.2 0-.3-.1-.3-.3 0-.1 0-.3.1-.8l.1-.4c.3-1.2.3-1.6.3-1.8s0-.2-.2-.2c-.1 0-.4.1-.7.2-.3.2-.5.4-.6.5-.1.1-.1.4-.3.9-.1.7-.2 1.2-.3 1.6-.4 0-.5 0-.8.1.2-.7.3-1.3.5-2s.2-1 .2-1.1c0-.2 0-.3-.2-.3-.1 0-.2 0-.5.1v-.2c.4-.2 1-.3 1.2-.3.2 0 .3.1.3.6v.1c.7-.4 1.5-.6 2-.6.3 0 .4.1.4.2 0 .2 0 .5-.2 1.3-.1.4-.2.9-.2 1.1 0 .3-.1.4-.1.5 0 .1.1.2.2.2s.2 0 .5-.1v.3c-.6.3-1.2.4-1.4.4zM466.9 306.6c-.3 0-.5-.2-.5-.4 0-.3.2-.6.6-.6.3 0 .5.2.5.4 0 .3-.3.6-.6.6zm-1.1 4.9c-.2 0-.3-.1-.3-.3 0-.1 0-.2.1-.4.1-.5.3-1.2.4-1.6.1-.5.2-.8.2-1 0-.1 0-.2-.1-.2s-.2 0-.4.1v-.2c.5-.2 1-.3 1.3-.3.1 0 .2 0 .2.1s0 .4-.2 1.1l-.1.6c-.2.9-.3 1.3-.3 1.4s.1.2.2.2.2 0 .5-.1v.2c-.7.3-1.2.4-1.5.4zM470.7 308.1h-.8l-.4 2c-.1.5-.1.6-.1.7 0 .1 0 .2.2.2 0 0 .2 0 .4-.1h.1v.3c-.5.2-1 .3-1.3.3-.2 0-.3-.1-.3-.3 0-.1 0-.4.1-.7.1-.3.1-.6.2-1l.3-1.4h-.5v-.3c.6-.1.9-.6 1.1-1.2l.4-.1-.2 1.1h.8v.5zM473.7 306.9l-.3-.2 1.2-1.3.9.2-1.8 1.3zm-1 2.9h-.3v.4c0 .5.2.7.5.7s.7-.1 1.3-.5l.1.3c-.7.4-1.2.6-1.8.6-.6 0-.9-.3-.9-1 0-1.6 1.1-3 2.3-3 .6 0 1 .3 1 .7-.1 1.2-1 1.8-2.2 1.8zm1-1.9c-.4 0-.9.6-1.2 1.6h.1c.9 0 1.6-.5 1.6-1.1 0-.3-.3-.5-.5-.5zM428 309.7c.6 0 1.2-.5 1.2-1.2 0-.6-.5-1.2-1.2-1.2-.6 0-1.2.5-1.2 1.2s.6 1.2 1.2 1.2z"/><path fill="#FFF" d="M352.7 258.4h121.7v40.9H352.7z"/><path fill="#1A171B" d="M358.9 328.5c-.4 0-.7 0-.9-.2-.4-.2-.8-1-1-1.4-.4-.7-.9-1.5-1.3-2.1h-.5v1.6c0 .6 0 .9.1 1.2.1.3.3.5.7.5v.3h-3.2v-.3c.3 0 .4-.1.6-.2.1-.1.2-.4.2-.6v-3.8c0-1.5 0-1.8-.1-2.2-.1-.3-.3-.4-.7-.5v-.3H356.4c.8 0 1.3.1 1.7.4.4.3.7.9.7 1.6 0 1-.6 1.8-1.8 2.2.4.6.8 1.1 1.2 1.8.4.6.8 1.1 1.1 1.4.1.2.3.2.5.3v.3h-.9zm-3-7.6c-.2 0-.4 0-.7.1v3h.5c1 0 1.6-.6 1.6-1.5s-.6-1.6-1.4-1.6zM363 321.1l-.4-.3 1-1.4 1.1.2-1.7 1.5zm2.1 7.2c-.1.1-.2.2-.7.2h-3.8v-.3c.4 0 .6-.3.7-.7v-3.9c0-.5 0-.7-.1-1-.1-.2-.2-.4-.6-.4v-.3h4.7v1.6h-.3c0-.8-.4-1-1.6-1h-.7v2.2h.4c1 0 1.3-.1 1.4-.7h.3v2h-.3c0-.5-.3-.7-1.3-.7h-.5v1.9c0 .4 0 .5.3.6h.7c1.1 0 1.4-.2 1.7-1l.4.1c-.4.6-.5 1.2-.7 1.4zM369.3 325.4h-.3l-.2-.5c.9 0 1.4-.5 1.4-1.3s-.5-1.4-1.3-1.4h-.4v3.5c0 1.3 0 1.5.1 1.8.1.2.2.4.6.4v.3H366.6v-.3c.4 0 .6-.3.7-.7v-4c0-.5 0-.7-.1-1-.1-.2-.2-.4-.6-.4v-.3h2.6c1.4 0 2.3.7 2.3 1.8.2 1.4-.8 2.1-2.2 2.1zM378.4 322.3c-.1.1-.1.3-.2.7v3c0 .7-.1 1.1-.4 1.5-.4.7-1.2 1-2.2 1-.6 0-1.1-.1-1.5-.4-.7-.4-1-1-1-2.1v-1.9-1.5c0-.3-.2-.5-.7-.5v-.3H375v.3c-.3 0-.4.1-.5.3-.1.1-.1.3-.1.8v1.9c0 1.7 0 2 .3 2.4.2.3.6.4 1.1.4.7 0 1.3-.3 1.5-1 .1-.4.1-.7.1-1.9v-1c0-1.1 0-1.5-.1-1.6-.1-.2-.2-.3-.5-.3v-.3h2v.3c-.1 0-.2 0-.4.2zM384.6 327.9c-.4.3-1 .5-2 .5H380v-.3c.4 0 .6-.3.7-.7V324c0-.9 0-1.3-.1-1.6-.1-.2-.3-.4-.6-.4v-.3h3.4c.9 0 1.8.4 1.8 1.5 0 .7-.5 1.3-1.4 1.5 1 .2 1.6.8 1.6 1.8-.1.6-.4 1.1-.8 1.4zm-2.2-5.6h-.5v2.2h.4c1 0 1.5-.4 1.5-1.1 0-.7-.5-1.1-1.4-1.1zm0 2.8h-.6v1.4c0 .5 0 .8.1 1 .1.2.3.3.7.3.8 0 1.3-.4 1.3-1.3.1-.9-.5-1.4-1.5-1.4zM390.9 328.3c-.1.1-.2.1-.7.1h-3.8v-.3c.2 0 .4 0 .5-.2.2-.2.2-.4.2-1.2v-2.5c0-1.3 0-1.5-.1-1.8-.1-.2-.3-.4-.6-.4v-.3H389v.3c-.5 0-.7.2-.8.7v3.2c0 1.4 0 1.5.1 1.7.1.1.3.1.7.1.5 0 .8 0 1.1-.2.3-.1.5-.4.6-.9l.4.1c.1.7-.1 1.4-.2 1.6zM394.4 328.4H392v-.3c.5 0 .6-.3.7-.7v-3.2-.8c0-.5 0-.7-.1-1-.1-.2-.3-.4-.6-.4v-.3H394.6v.3c-.4 0-.6.3-.7.7v3.2c0 1.3 0 1.5.1 1.8.1.2.2.4.6.4v.3h-.2zM403.8 330.2c-.8 0-1.6-.2-2.4-.7-.4-.2-1.1-.7-1.5-1h-.8c-2 0-3.4-1.3-3.4-3.3 0-2.1 1.4-3.6 3.6-3.6 2 0 3.4 1.3 3.4 3.3 0 1.4-.7 2.7-1.8 3.2.3.2.7.4 1 .6 1 .6 1.7.9 2.4.9.4 0 .7-.1 1.1-.3l.1.3c-.4.5-1 .6-1.7.6zm-4.8-7.9c-1.2 0-2.1 1-2.1 2.4 0 1.7 1 3.1 2.3 3.1 1.2 0 2.1-1 2.1-2.5.1-1.6-1-3-2.3-3zM356.2 311.3c-.1.1-.2.1-.6.1H352v-.2c.3 0 .4-.1.6-.3s.2-.4.4-1c.1-.5.2-.8.4-1.8l.1-.7c.1-.8.2-1.2.2-1.5 0-.4-.1-.6-.6-.6v-.2H355.5v.2c-.3 0-.4.1-.6.3-.2.3-.4.7-.7 2.6l-.1.6c-.1.8-.2 1.1-.2 1.4v.3c0 .4.2.5.8.5 1.1 0 1.5-.2 1.9-1l.2.1c-.3.5-.5 1-.6 1.2zM359.1 306.6c-.3 0-.5-.2-.5-.4 0-.3.2-.6.6-.6.3 0 .5.2.5.4 0 .3-.3.6-.6.6zm-1.1 4.9c-.2 0-.3-.1-.3-.3 0-.1 0-.2.1-.4.1-.5.3-1.2.4-1.6.1-.5.2-.8.2-1 0-.1 0-.2-.1-.2s-.2 0-.4.1v-.2c.5-.2 1-.3 1.3-.3.1 0 .2 0 .2.1s0 .4-.2 1.1l-.1.6c-.2.9-.3 1.3-.3 1.4s.1.2.2.2.2 0 .5-.1v.2c-.6.3-1.2.4-1.5.4zM363.4 311.1c-.4.3-.8.4-1.5.4s-1.2-.1-1.2-.3c0-.1 0-.2.1-.6l.5-2.2c.1-.7.3-1.3.4-2.1.1-.4.1-.7.1-.8 0-.1 0-.2-.1-.2 0 0-.3 0-.4.1v-.4h.1c.5-.2.9-.3 1.2-.3.1 0 .2 0 .2.1s0 .3-.2 1.1l-.3 1.3c-.1.4-.1.6-.1.7.6-.3 1.1-.5 1.6-.5.6 0 .9.3.9.9-.1 1-.6 2.1-1.3 2.8zm0-3.1c-.2 0-.4 0-.6.2-.3.1-.5.3-.6.4-.1.2-.2.5-.4 1.1-.1.6-.2 1-.2 1.1 0 .2.2.3.6.3s.7-.2 1-.5c.4-.5.7-1.4.7-2.1-.1-.3-.2-.5-.5-.5zM366.7 309.8h-.3v.4c0 .5.2.7.5.7s.7-.1 1.3-.5l.1.3c-.7.4-1.2.6-1.7.6-.6 0-.9-.3-.9-1 0-1.6 1.1-3 2.3-3 .6 0 1 .3 1 .7 0 1.2-1 1.8-2.3 1.8zm1.1-1.9c-.4 0-.9.6-1.2 1.6h.1c.9 0 1.6-.5 1.6-1.1-.1-.3-.3-.5-.5-.5zM372.9 308.7h-.3v-.4c0-.2-.1-.3-.4-.3-.1 0-.3.1-.4.2-.3.4-.5 1.1-.7 2.2l-.2.9c-.3 0-.4 0-.8.1.1-.3.1-.6.2-1l.2-.9c.1-.6.2-1 .2-1.2 0-.2 0-.3-.2-.3h-.2l-.2.1v-.3c.5-.2 1-.3 1.2-.3.1 0 .1 0 .2.1v.4c.4-.3.8-.5 1.1-.5.2 0 .4.1.6.2-.2.4-.2.7-.3 1zM376.2 308.1h-.8l-.4 2c-.1.5-.1.6-.1.7 0 .1 0 .2.2.2 0 0 .2 0 .4-.1h.1v.3c-.5.2-1 .3-1.3.3-.2 0-.3-.1-.3-.3 0-.1 0-.4.1-.7.1-.3.1-.6.2-1l.3-1.4h-.5v-.3c.6-.1.9-.6 1.1-1.2l.4-.1-.2 1.1h.8v.5zM379.2 306.9l-.3-.2 1.2-1.3.9.2-1.8 1.3zm-1.1 2.9h-.3v.4c0 .5.1.7.5.7.3 0 .7-.1 1.3-.5l.1.3c-.7.4-1.2.6-1.8.6-.6 0-.9-.3-.9-1 0-1.6 1.1-3 2.3-3 .6 0 1 .3 1 .7 0 1.2-1 1.8-2.2 1.8zm1-1.9c-.4 0-.9.6-1.2 1.6h.1c.9 0 1.6-.5 1.6-1.1 0-.3-.2-.5-.5-.5zM395.9 304.3l-.3-.2 1.2-1.3.9.2-1.8 1.3zm1.9 2h-.3v-.2c0-.5-.3-.7-1.3-.7h-.9c-.2.8-.3 1.5-.5 2.4H396.2c.3 0 .6-.3.7-.7h.2c-.1.6-.3 1.4-.3 1.9h-.2v-.1c0-.4-.2-.5-1-.5h-.8c0 .2 0 0-.2 1.1-.1.5-.1.9-.1 1 0 .3.2.4.8.4 1.2 0 1.6-.2 2-1l.2.1c-.2.6-.4 1.1-.6 1.3-.1.1-.2.1-.6.1H392.7v-.2c.3 0 .4-.1.6-.3s.2-.4.4-1c.1-.5.1-.7.4-1.8l.1-.7c.1-.7.2-1.2.2-1.5 0-.4-.1-.6-.6-.6v-.2h4.4c-.3.3-.4.8-.4 1.2zM402.6 308.1h-.6c.1.2.1.3.1.6 0 .9-.7 1.6-1.7 1.6-.2 0-.3 0-.5-.1-.2.1-.3.2-.3.3 0 .1.1.1.5.3l.8.2c.8.2 1.1.5 1.1 1 0 1-1 1.8-2.3 1.8-1.1 0-1.7-.5-1.7-1.3 0-.7.5-1.1 1.3-1.3-.5-.2-.6-.2-.6-.4s.3-.5.8-.8c-.3-.2-.4-.5-.4-.9 0-.9.7-1.6 1.7-1.6.2 0 .4 0 .6.1h1.3l-.1.5zm-1.9-.2c-.5 0-.9.5-.9 1.2 0 .4.2.7.6.7.5 0 .9-.5.9-1.2 0-.4-.2-.7-.6-.7zm.1 3.9c-.3-.1-.7-.2-1.1-.4-.6.1-1.1.6-1.1 1.2 0 .5.4.9 1.1.9.8 0 1.6-.6 1.6-1.2 0-.2-.1-.3-.5-.5zM386.6 309.7c.6 0 1.2-.5 1.2-1.2 0-.6-.5-1.2-1.2-1.2-.6 0-1.2.5-1.2 1.2s.6 1.2 1.2 1.2z"/><path fill="none" d="M352.6 315.8h121.5"/><path fill="#1A171B" d="M352.6 315.6h121.6v.4H352.6z"/><defs><path id="a" d="M352.7 258.4h121.7v40.8H352.7z"/></defs><clipPath id="b"><use xlink:href="#a" overflow="visible"/></clipPath><path clip-path="url(#b)" fill="#004493" d="M352.4 299.5c.2-10.1 0-20.2.3-30.3.1-3.6-.1-7.3-.1-10.9 2.5-.4 5-.2 7.5-.1 16.1 0 32.1-.1 48.2 0-1.1.5-2.4 1-3.2 2-.7.9-1.5 1.8-1.8 3-1.2.7-1.9 1.8-2.6 3-.8 1.6-2 3-1.8 4.7.2 1.5.5 2.9.8 4.5.1.5.2 1 .3 1.6.2.5 0 1.2.3 1.7.2.3.1.6.4.8v.4c.1.1.1.2.3.2v.4c.7.9 1.7 1.8 2.1 2.8.2.5-.9.3-1.4.1-.9-.4-1.5-1.2-2.2-1.8 0 0-.1.1-.1.2.3.6 1.7 1.5 1 1.9-.4.2-.8-.3-1.2.1-.1.2 0 .3 0 .5-.5-.3-1.1-.2-1.7-.3-.3-.1-.4-.8-.9-.8-1.2-.3-2.3-.5-3.5-.6-1.7-.2-3.2-.4-4.9-.2-1.5.1-2.6 1.2-3.5 2.3v.3c.6.1.9-.4 1.5-.6.9-.2 1.7-.5 2.7-.7 1.4-.3 2.7-.6 4-.5.3 0 .6-.1.9 0-1.7-.1-3.2.4-4.7.9-1.1.3-2.2.3-3.2.9 2.4-.1 4.8.3 7.2 1 .8.3 1.6.6 2.3 1.1.4.3.5.5.9.7.4.3 1.1.3 1.6.1h.4c1.4-.4 2.9-.7 3.8-1.8 0 .1.1.1.2.1-.3.7-.3 1.6-.8 2.2 0 .1-.1.3.1.4h.2c-.1 0-.2 0-.2.1 0 .2.3 0 .4.2-.4.1-.9.2-1.2.5 0 .1.2.1.3.1-.2.2-.4.1-.5.3 0 0 .1.1.2.1-.1 0-.2 0-.2.1v.3c-.3 0-.4.2-.5.3.4.3.6 0 1 0-1 .3-1.8.9-2.9 1.2-.2 0 0 .3-.2.3.3.2.4-.1.7-.1-1.3.7-2.6 1.4-4 2.2 0 0-.2.2-.2.3h-.4c-.2.1-.1.4-.3.5.4.3 1-.3 1.3 0 .1 0-.2.1-.4.1-.1 0-.1.2-.2.2h-.3c-.2.2-.4.3-.4.5-.2 0-.3 0-.4.2 2-.3 4.2-.1 6.1-1.1 1.5-.7 2.9-1.7 4.1-3.1 0 0 .1.1.1.2-.3.9-.8 1.6-1.6 2.1-.5.3-.9.7-1.4.9-.3.2-.5.4-.8.5-3.4 1.2-7.5.6-10.5 3 0-.1-.1-.1-.2-.1-.2.2-.4.3-.5.4 0 .2.3.1.3.1.5-.3 1.1-.6 1.8-.8-.7.3-1.5.9-2.2 1.1-1.6.3-3.1.2-4.6 0 .9-.5 1.8-1.2 2.9-1.7-.3-.2-.5-.2-.8-.2-.4.1-1-.2-1.5 0-1.4.6-3.2.4-4 1.9"/><defs><path id="c" d="M352.7 258.4h121.7v40.8H352.7z"/></defs><clipPath id="d"><use xlink:href="#c" overflow="visible"/></clipPath><path clip-path="url(#d)" fill="#FFF" d="M383.8 288.3c-.3 0-.5.3-.4.4.3.4.8-.1 1.3-.1-.5.2-1.2.1-1.7.5.4.3.7.1 1.1.1 0 .2.2.2.3.3-.4.2-.8.5-.9.8-.2.4-.6.6-.9 1v.3c-.9.8-1.9 1.4-2.7 2.4.1 0 .1.1.1.2-.2.3-.5.3-.6.6 0 .1 0 .2.1.2 1.1-.3 1.9-1.2 3-1.6.7-.2 1.3-.6 1.9-.8.4-.1 1-.3 1.5-.4 0 .1 0 .2.1.2h.7c-.1.2-.4.1-.3.2.3.3.8.2 1.2 0 .3-.2.5-.2.9-.2.1 0 .1-.2.1-.3.3.1.4.1.7.1 2.2-.4 4.4-.9 6.4-1.9-2.4-1.8-5.5-2.5-8.4-3.3.3 0 .5.3.8 0-.4-.3-1-.2-1.5-.4.1 0 .3.1.4-.1-.7-.3-1.5-.3-2.2-.5.4-.1.7-.4.7-.9 0-.1-.2-.1-.3-.1-1.1.5-1.8 1.6-2.3 2.8.6.3 1.4.1 2 .2-.3.2-.7.2-1.1.3z"/><defs><path id="e" d="M352.7 258.4h121.7v40.8H352.7z"/></defs><clipPath id="f"><use xlink:href="#e" overflow="visible"/></clipPath><path clip-path="url(#f)" fill="#FFF" d="M380 284.6c-.9 1-1.9 1.9-3.2 2.6-.8 1.7-1.8 3.2-3 4.7 0 .1.1.2.1.2 2.2-2.5 4.3-4.6 7.2-6.4.2-.1-.3.3.1.2 1.2-.3 1.6-1.5 2.1-2.4.7-1.2 2-1.7 3-2.7 0 .1 0 .2-.1.3.1.1.2.1.3.1.3-.3.8-.2 1.1-.5-.7-.3-1.7-.3-2.4-.1-2 .9-3.6 2.3-5.2 4z"/><g><defs><path id="g" d="M352.7 258.4h121.7v40.8H352.7z"/></defs><clipPath id="h"><use xlink:href="#g" overflow="visible"/></clipPath><path clip-path="url(#h)" fill="#FFF" d="M381.4 286.4c.1-.1.2-.2.3-.4 0-.1 0-.2-.1-.2-.3.1-.6.4-.7.8 0 .1.1.1.2.1s.2-.1.3-.3z"/></g><g><defs><path id="i" d="M352.7 258.4h121.7v40.8H352.7z"/></defs><clipPath id="j"><use xlink:href="#i" overflow="visible"/></clipPath><path clip-path="url(#j)" fill="#FFF" d="M388.9 293.5c-.4.2-1 .2-1.1.6-.1.2.3.1.4.1.6-.3 1.4 0 1.9-.5-.2-.2-.4-.1-.6-.3-.2-.2-.5 0-.6.1z"/></g><g><defs><path id="k" d="M352.7 258.4h121.7v40.8H352.7z"/></defs><clipPath id="l"><use xlink:href="#k" overflow="visible"/></clipPath><path clip-path="url(#l)" fill="#004C98" d="M398.9 298.5c.6-.1 1.1-.4 1.7-.6v.2c1.4-.5 2.4-1.8 3.8-2.2.1 0 .3.2.4.1.8-.7 1.7-1.6 3-1.4 0 .1 0 .2.1.2s.2 0 .2-.1c-.3.3-.7.5-1.1.8-.1.1 0 .2.1.2.4-.2.7-.5 1.2-.7-.1.1-.1.3-.2.3-1.7 1.3-3.1 2.8-4.5 4.4h-2.9c0-.1 0-.2-.1-.2-3.2.3-6.4.2-9.6.2 1.8-.3 3.7-.8 5.6-1 .8-.1 1.6 0 2.3-.2z"/></g><g><defs><path id="m" d="M352.7 258.4h121.7v40.8H352.7z"/></defs><clipPath id="n"><use xlink:href="#m" overflow="visible"/></clipPath><path clip-path="url(#n)" fill="#E1001A" d="M435.6 293.7c.2-.7.4-1.4.1-2-.5-.8.5-1.1.9-1.7.3-.4-.2-.7-.3-1.2-.1-.2-.4-.1-.6-.4.6-.3 1.7-.8 1.2-1.7-.3-.4-.7-1.2-.2-1.7.6-.3 1.7-.3 1.9-.9.4-1.1-.5-2-1.1-3-.3-.5-.6-.9-1-1.5-.3-.6-.8-1.2-1-1.9-.3-.7.1-1.4.1-2.1.1-1.4-.3-2.8-.6-4.2-.3-.6-.4-1.4-.6-2-.1-.4-.2-.7-.4-1.1-.1-.2-.1-.4 0-.6.3-.3.7-.5 1.1-.9.3-.4.1-1.1-.4-1.4-.6-.3-.5.6-1 .8h-.3c-.1-.3.1-.3.3-.5 0-.1 0-.3-.1-.3-.3 0-.7-.1-.8-.3-.9-1.3-2.2-1.9-3.6-2.5.4.1.7.2 1.1.2.6.1 1.4.1 1.9-.2.4-.2.5-.9.7-1.4.2-.3-.1-.9-.3-1.2-.4-.7-1.2-1.2-1.9-1.6h44c.1 13.8-.1 27.5-.2 41.3-17.4.3-34.7 0-52.1 0 .5-1.8 1.6-3.6 3.2-4.8.3-.2.8-.3 1.3-.4 1.6 0 3.2.4 4.7.6.2 0 .3.1.5.2.5.1 1.2.1 1.7-.1.8-.2 1.5-.6 1.8-1.5z"/></g><g><defs><path id="o" d="M352.7 258.4h121.7v40.8H352.7z"/></defs><clipPath id="p"><use xlink:href="#o" overflow="visible"/></clipPath><path clip-path="url(#p)" fill="#9B9C9E" d="M432 275.4c-.5-.1-1 0-1.6 0-.7.2-1.4.3-2 .5.5-.3 1.1-.7 1.8-.9.4-.1.9-.4 1.4-.4.5-.1 1.1-.3 1.6-.1.4.2 1.2.2 1.3.4.2.5-.3 1.1-.8 1.5-.1.2.3.3.3.4-.1.2-.3.3-.5.3-.2.1-.3.3-.5.5.2 0 0 .3.2.3-.3.4.2 1.4-.3 1.6-.6.2-1.4.2-2.1 0 .4-.1.8.1 1.1-.3v-.4c0-.1-.1-.1-.2-.1-.1.1-.2.1-.2.1 0-.2-.2-.3-.3-.3-.5.1-1-.2-1.4-.5.3-.1.5-.2.8-.1.3 0 .2-.4.4-.6h.3c.5-.7 1.7-.9 1.8-1.7-.1-.1-.7-.1-1.1-.2z"/></g></svg>