<svg id="f987056c-df2b-40e9-9813-c2ab8302b500" data-name="Calque 1" xmlns="http://www.w3.org/2000/svg" viewBox="0 0 124.43 49.17"><defs><style>.ab7eec1d-f6e1-4c20-a0d9-5ca3f9dd9579{fill:#fff;}.e479aeba-8dcb-45d6-84a7-03299fab5a9a{fill:#000091;}.e5cc489e-5852-4cda-ad78-8406bbcd7e78{fill:#e1000f;}.b862e123-f300-4163-9472-71235c7b8f5e{fill:#9d9d9c;}</style></defs><title>LOGO_Marianne</title><rect id="e32bba3e-7e24-45dc-a724-289d01a8ddc4" data-name="Rectangle 1005" class="ab7eec1d-f6e1-4c20-a0d9-5ca3f9dd9579" width="124.43" height="49.17"/><g id="ad30d34e-8e49-45dc-b2b4-9e2cb3566aae" data-name="Groupe 1616"><g id="f238f735-8ba0-4447-962a-18132127bec2" data-name="Groupe 1615"><path id="a82ef0ff-ae65-4ab9-a571-658b1eddbefb" data-name="Tracé 6274" class="e479aeba-8dcb-45d6-84a7-03299fab5a9a" d="M54,40.74c.45-.45.92-.93,1.37-1.4h0A27.12,27.12,0,0,1,58,36.67,8.16,8.16,0,0,1,58.9,36c.07-.07.07-.24.16-.33-.4.16-.64.47-1,.63-.07,0-.17-.07-.07-.16l.85-.63h0c-.07,0-.07-.07-.07-.16a3.24,3.24,0,0,0-2.56,1.18c-.17.07-.33-.07-.4-.07-1.21.4-2.09,1.42-3.28,1.88v-.16a14,14,0,0,1-1.45.56,8.8,8.8,0,0,1-2,.07,24.1,24.1,0,0,0-2.92.51l-.09,0a7.17,7.17,0,0,0-1.5.58s0,0-.05,0-.07.09-.12.13a1.91,1.91,0,0,1-.55.47,8.16,8.16,0,0,0-1.32,1,.21.21,0,0,1-.12,0c-.43.39-.86.81-1.29,1.21a.36.36,0,0,1-.23,0h0s0-.05,0-.07l.22-.33.24-.37.33-.49s0-.07,0-.09a.31.31,0,0,0-.12,0,8.11,8.11,0,0,1,1.35-1v0s-.14,0-.09-.07l.14-.21s0,0,0-.07L42.87,40c-.12.09-.26.16-.38.25s-.33.51-.64.51a.25.25,0,0,1-.12,0l-.09,0v0l0,0h0v0s0,0,.05-.07,0,0,0-.07l0,0a.26.26,0,0,0,0-.09s0,0,0-.07l.1-.16a.51.51,0,0,0,0-.1.47.47,0,0,1,.11-.13c0-.07,0-.12-.07-.14a1.75,1.75,0,0,1,.54-.47h0c.31-.16.62-.32.92-.51l.15-.12a5.15,5.15,0,0,0-1.29.63l-.14.07a.2.2,0,0,1-.19-.07s0,0,0,0,.33-.24.47-.4c.07,0,.17,0,.17.07,2.56-1.95,6.1-1.49,9-2.51l.71-.46c.4-.17.72-.56,1.21-.79A3.37,3.37,0,0,0,55,33.4a.51.51,0,0,0-.07-.17,12.49,12.49,0,0,1-3.54,2.58c-1.69.86-3.54.7-5.29.95.07-.16.23-.16.4-.16,0-.23.16-.33.33-.47H47c.07,0,.07-.16.16-.16s.4-.07.33-.07c-.23-.32-.71.23-1.11,0,.17-.16.07-.39.24-.46H47a.57.57,0,0,1,.16-.33c1.21-.7,2.33-1.25,3.45-1.88-.24,0-.4.23-.65.07.17,0,0-.23.17-.23.88-.23,1.61-.7,2.49-1-.33,0-.57.23-.88,0,.17-.07.24-.24.48-.24v-.23c0-.07.07-.07.17-.07a.36.36,0,0,1-.17-.07c.07-.16.33-.07.47-.23-.07,0-.23,0-.23-.07a1.47,1.47,0,0,1,1-.46c-.07-.17-.33,0-.33-.17s.07-.07.17-.07h-.17c-.17-.07-.07-.23-.07-.32a5.58,5.58,0,0,0,.71-1.88c-.07,0-.17,0-.17-.07a6.52,6.52,0,0,1-3.27,1.48H50a1.6,1.6,0,0,1-1.35-.07,5.43,5.43,0,0,1-.81-.62,10.72,10.72,0,0,0-2-1,18.21,18.21,0,0,0-6.17-.86,14.92,14.92,0,0,1,2.8-.79,12.32,12.32,0,0,1,4.08-.79,3.66,3.66,0,0,0-.81,0,14.26,14.26,0,0,0-3.44.47c-.81.16-1.52.46-2.33.63-.47.16-.71.62-1.28.55V27a4.54,4.54,0,0,1,3-1.95,15.51,15.51,0,0,1,4.25.16,21.1,21.1,0,0,1,3,.56c.4,0,.47.63.8.7s1,0,1.45.33c0-.17-.07-.33,0-.47.33-.32.71.07,1-.07.65-.39-.57-1.09-.87-1.65a.33.33,0,0,1,.07-.16A9.14,9.14,0,0,0,53.39,26c.4.16,1.35.39,1.21-.07a12.36,12.36,0,0,0-1.85-2.35v-.32c-.17,0-.17-.07-.24-.17v-.32c-.33-.16-.24-.47-.4-.7-.24-.4-.07-.95-.24-1.42a9.8,9.8,0,0,1-.33-1.32c-.24-1.32-.57-2.51-.71-3.76-.17-1.49.87-2.67,1.61-4a6.87,6.87,0,0,1,2.25-2.51,6.73,6.73,0,0,1,1.53-2.5A7,7,0,0,1,58.68,5a20.32,20.32,0,0,1,2.14-.79H5.76V45.64H44.7A34.36,34.36,0,0,1,49.88,43,20.75,20.75,0,0,0,54,40.74ZM41.64,35.11c-.16,0-.47.07-.4-.07.07-.39.64-.39,1-.55.17-.07.4-.23.57-.17.17.24.4.17.57.33C42.85,35.11,42.21,34.88,41.64,35.11ZM29.4,33.4a.3.3,0,0,1-.08-.17,22.62,22.62,0,0,0,2.57-4A11.18,11.18,0,0,0,34.62,27a15.56,15.56,0,0,1,4.48-3.46,3.25,3.25,0,0,1,2.09.07c-.24.33-.64.23-1,.47A.34.34,0,0,1,40,24a.3.3,0,0,0,.07-.24c-.81.86-1.92,1.26-2.56,2.28-.48.79-.81,1.81-1.85,2-.33.07.07-.23-.07-.16A27.13,27.13,0,0,0,29.4,33.4ZM36,28.22c-.07.16-.17.16-.24.32a.63.63,0,0,1-.33.33c-.07,0-.16,0-.16-.07a.88.88,0,0,1,.64-.7C36,28.08,36,28.15,36,28.22ZM39.77,40a1.06,1.06,0,0,1-.19.23c.09,0,.16.07.09.12a1.64,1.64,0,0,1-.62.41l-.11,0-.31.28c-.1.09-.55,0-.4-.1s.4-.37.59-.55l.33-.3a.55.55,0,0,1,.17-.17C39.41,39.85,39.82,39.81,39.77,40Zm-1.45-.65h0c-.3.21-.61.42-.93.6s-.71.35-1.07.51v0a.09.09,0,0,0-.12,0s0,0,0,0a3.35,3.35,0,0,0-.8.6c-.05,0-.08.07-.12.11h0l-.12.12,0,0h0a1.45,1.45,0,0,0-.17.18.68.68,0,0,1-.12.12s-.19,0-.16-.07v0l-.15.07a.26.26,0,0,0-.11.07h0s0,0,0,0l-.28.23a3.17,3.17,0,0,0-.48.49h0l0,0h0l0,0,0,0h0s0,0,0,.07h0a.08.08,0,0,1-.07,0s0,0,0,0,0,0,0,0a.37.37,0,0,0-.07-.12h0s0,0,0,0a3.45,3.45,0,0,1,.26-.28s0,0,0,0h0s0-.07.1-.09.09-.11.14-.16,0,0,0-.07l.26-.33h0s0,0,0,0,.07-.12.12-.17a.86.86,0,0,0,.1-.16h0v0l0,0h0c0-.07,0-.12.07-.19v0s0,0,0-.05a.64.64,0,0,0,0-.09h0v0s0-.07,0-.11v0l.31-.42s0,0,0,0a1.89,1.89,0,0,0-.31.25c-.1.07-.24-.05-.15-.12s.12-.11.19-.16v0c.15-.12.27-.3.4-.4a1.08,1.08,0,0,0,.24-.18l0,0a1,1,0,0,1,.19-.21h0c.76-.72,2.06-.7,3.06-1.16.4-.17.88.07,1.28,0a1.1,1.1,0,0,1,.71.16c-.71.39-1.38.83-2,1.23ZM40,33.86c-.07-.07.23,0,.33-.16h-.64c-.07,0-.07-.07-.07-.17-.4.07-.88.24-1.29.33-.57.16-1,.56-1.68.7-.88.3-1.61,1-2.56,1.32-.07,0-.07-.07-.07-.16s.4-.3.57-.56c0-.07,0-.16-.08-.16a15.56,15.56,0,0,1,2.33-2v-.24c.24-.3.64-.46.81-.85a1.32,1.32,0,0,1,.8-.7c-.07-.07-.23-.07-.23-.24-.33,0-.64.17-1-.07a1.46,1.46,0,0,1,.5-.28.31.31,0,0,1-.19-.11c-.07-.16.17-.33.4-.4a1.82,1.82,0,0,0,1-.32c-.57-.07-1.21.16-1.76-.16a4.22,4.22,0,0,1,2-2.35c.07,0,.23,0,.23.07a.78.78,0,0,1-.64.79,9.62,9.62,0,0,1,1.92.47c-.07.16-.23.07-.33.07.4.23.88.07,1.28.39-.23.23-.47,0-.71,0,2.49.7,5.13,1.25,7.22,2.83a22.42,22.42,0,0,1-5.53,1.65,1.71,1.71,0,0,1-.64-.07c0,.07,0,.24-.08.24a1.25,1.25,0,0,0-.8.16A1,1,0,0,1,40,33.86Z" transform="translate(-1.87 -0.34)"/><g id="f244dc9f-0893-4311-a414-dadc600a327e" data-name="Groupe 1614"><path id="b4499e87-0336-43b4-b0a5-f5c0ca69d309" data-name="Tracé 6275" class="e5cc489e-5852-4cda-ad78-8406bbcd7e78" d="M122.36,4.13H76.74a2.35,2.35,0,0,1,.43.19c.38.18.85.44,1.14.6a3.63,3.63,0,0,1,1.52,1.25c.16.23.4.7.23,1s-.23,1-.64,1.19a3.11,3.11,0,0,1-1.68.16,3.65,3.65,0,0,1-1-.16,6.56,6.56,0,0,1,3.14,2.11c.07.16.4.23.71.23.07,0,.07.17.07.24-.17.16-.33.23-.24.46h.24c.4-.16.31-.95.88-.7a.89.89,0,0,1,.33,1.19,8.16,8.16,0,0,1-1,.79.77.77,0,0,0,0,.56,2.35,2.35,0,0,1,.4,1c.24.56.33,1.19.57,1.72a10.88,10.88,0,0,1,.57,3.53c0,.63-.33,1.18-.07,1.81a7.26,7.26,0,0,0,.88,1.65,13.3,13.3,0,0,1,.87,1.25c.48.79,1.36,1.58,1,2.51-.24.56-1.12.47-1.69.79s-.07,1,.17,1.42c.4.7-.48,1.18-1,1.42.17.23.48.16.57.32.08.4.48.63.24,1s-1.28.7-.81,1.42a2.2,2.2,0,0,1-1.27,2.83L81,36a3,3,0,0,1-1.52.07,1.36,1.36,0,0,0-.48-.16A35.09,35.09,0,0,0,75,35.32a3.7,3.7,0,0,0-1.12.33,6.36,6.36,0,0,0-1,.83h0a1,1,0,0,0-.16.19s-.08.07-.1.11l-.07.07a7.1,7.1,0,0,0-.64.91s0,.05,0,.07a.75.75,0,0,1-.07.12,9.15,9.15,0,0,0-.61,1.44c-.55,1.78-.31,3.34.07,3.71.09.09,2.63.86,4.41,1.65.83.37,1.4.65,1.9.93h44.79Z" transform="translate(-1.87 -0.34)"/></g><path id="b9d1bc0c-787a-46e4-b37f-eae1744c2591" data-name="Tracé 6276" class="b862e123-f300-4163-9472-71235c7b8f5e" d="M79.47,19.27c.33.07.81.07.81.24-.17.62-1.12.79-1.62,1.41h-.23c-.24.17-.17.56-.4.56a1.23,1.23,0,0,0-.71.07,1.32,1.32,0,0,0,1.21.47.37.37,0,0,1,.23.32.36.36,0,0,0,.17-.07c.07,0,.16,0,.16.07v.3c-.23.3-.64.16-1,.23a3.42,3.42,0,0,0,1.85,0c.48-.16,0-.95.33-1.32-.16,0,0-.23-.16-.23.16-.17.31-.4.47-.47a.54.54,0,0,0,.48-.23c0-.16-.31-.23-.24-.4.48-.3.88-.79.71-1.25-.07-.23-.71-.23-1.11-.39a2.58,2.58,0,0,0-1.35.07,5.53,5.53,0,0,0-1.21.32,5.37,5.37,0,0,0-1.52.79,9.59,9.59,0,0,1,1.75-.46A4.37,4.37,0,0,1,79.47,19.27Z" transform="translate(-1.87 -0.34)"/></g></g></svg>