<?xml version="1.0" encoding="UTF-8" standalone="no"?>
<svg
   xmlns:dc="http://purl.org/dc/elements/1.1/"
   xmlns:cc="http://creativecommons.org/ns#"
   xmlns:rdf="http://www.w3.org/1999/02/22-rdf-syntax-ns#"
   xmlns:svg="http://www.w3.org/2000/svg"
   xmlns="http://www.w3.org/2000/svg"
   xmlns:sodipodi="http://sodipodi.sourceforge.net/DTD/sodipodi-0.dtd"
   xmlns:inkscape="http://www.inkscape.org/namespaces/inkscape"
   id="f987056c-df2b-40e9-9813-c2ab8302b500"
   data-name="Calque 1"
   viewBox="0 0 140 50.000002"
   version="1.1"
   sodipodi:docname="marianne.svg"
   width="140"
   height="50"
   inkscape:version="0.92.5 (2060ec1f9f, 2020-04-08)">
  <metadata
     id="metadata18">
    <rdf:RDF>
      <cc:Work
         rdf:about="">
        <dc:format>image/svg+xml</dc:format>
        <dc:type
           rdf:resource="http://purl.org/dc/dcmitype/StillImage" />
        <dc:title>LOGO_Marianne</dc:title>
      </cc:Work>
    </rdf:RDF>
  </metadata>
  <sodipodi:namedview
     pagecolor="#ffffff"
     bordercolor="#666666"
     borderopacity="1"
     objecttolerance="10"
     gridtolerance="10"
     guidetolerance="10"
     inkscape:pageopacity="0"
     inkscape:pageshadow="2"
     inkscape:window-width="2560"
     inkscape:window-height="1376"
     id="namedview16"
     showgrid="false"
     inkscape:zoom="7.5865949"
     inkscape:cx="76.53249"
     inkscape:cy="-3.9774406"
     inkscape:window-x="0"
     inkscape:window-y="27"
     inkscape:window-maximized="1"
     inkscape:current-layer="f987056c-df2b-40e9-9813-c2ab8302b500" />
  <defs
     id="defs4">
    <style
       id="style2">.ab7eec1d-f6e1-4c20-a0d9-5ca3f9dd9579{fill:#fff;}.e479aeba-8dcb-45d6-84a7-03299fab5a9a{fill:#000091;}.e5cc489e-5852-4cda-ad78-8406bbcd7e78{fill:#e1000f;}.b862e123-f300-4163-9472-71235c7b8f5e{fill:#9d9d9c;}</style>
  </defs>
  <title
     id="title6">LOGO_Marianne</title>
  <g
     id="ad30d34e-8e49-45dc-b2b4-9e2cb3566aae"
     data-name="Groupe 1616"
     transform="matrix(1.2033693,0,0,1.2033694,-4.6811067,-4.5607668)">
    <g
       id="f238f735-8ba0-4447-962a-18132127bec2"
       data-name="Groupe 1615">
      <path
         id="a82ef0ff-ae65-4ab9-a571-658b1eddbefb"
         data-name="Tracé 6274"
         class="e479aeba-8dcb-45d6-84a7-03299fab5a9a"
         d="m 54,40.74 c 0.45,-0.45 0.92,-0.93 1.37,-1.4 v 0 A 27.12,27.12 0 0 1 58,36.67 8.16,8.16 0 0 1 58.9,36 c 0.07,-0.07 0.07,-0.24 0.16,-0.33 -0.4,0.16 -0.64,0.47 -1,0.63 -0.07,0 -0.17,-0.07 -0.07,-0.16 l 0.85,-0.63 v 0 c -0.07,0 -0.07,-0.07 -0.07,-0.16 a 3.24,3.24 0 0 0 -2.56,1.18 c -0.17,0.07 -0.33,-0.07 -0.4,-0.07 -1.21,0.4 -2.09,1.42 -3.28,1.88 v -0.16 a 14,14 0 0 1 -1.45,0.56 8.8,8.8 0 0 1 -2,0.07 24.1,24.1 0 0 0 -2.92,0.51 h -0.09 a 7.17,7.17 0 0 0 -1.5,0.58 c 0,0 0,0 -0.05,0 -0.05,0 -0.07,0.09 -0.12,0.13 a 1.91,1.91 0 0 1 -0.55,0.47 8.16,8.16 0 0 0 -1.32,1 0.21,0.21 0 0 1 -0.12,0 c -0.43,0.39 -0.86,0.81 -1.29,1.21 a 0.36,0.36 0 0 1 -0.23,0 v 0 c 0,0 0,-0.05 0,-0.07 l 0.22,-0.33 0.24,-0.37 0.33,-0.49 c 0,0 0,-0.07 0,-0.09 a 0.31,0.31 0 0 0 -0.12,0 8.11,8.11 0 0 1 1.35,-1 v 0 c 0,0 -0.14,0 -0.09,-0.07 l 0.14,-0.21 c 0,0 0,0 0,-0.07 L 42.87,40 c -0.12,0.09 -0.26,0.16 -0.38,0.25 -0.12,0.09 -0.33,0.51 -0.64,0.51 a 0.25,0.25 0 0 1 -0.12,0 h -0.09 v 0 0 0 0 c 0,0 0,0 0.05,-0.07 0.05,-0.07 0,0 0,-0.07 v 0 a 0.26,0.26 0 0 0 0,-0.09 c 0,0 0,0 0,-0.07 l 0.1,-0.16 a 0.51,0.51 0 0 0 0,-0.1 0.47,0.47 0 0 1 0.11,-0.13 c 0,-0.07 0,-0.12 -0.07,-0.14 a 1.75,1.75 0 0 1 0.54,-0.47 v 0 c 0.31,-0.16 0.62,-0.32 0.92,-0.51 l 0.15,-0.12 a 5.15,5.15 0 0 0 -1.29,0.63 l -0.14,0.07 a 0.2,0.2 0 0 1 -0.19,-0.07 c 0,0 0,0 0,0 0,0 0.33,-0.24 0.47,-0.4 0.07,0 0.17,0 0.17,0.07 2.56,-1.95 6.1,-1.49 9,-2.51 l 0.71,-0.46 c 0.4,-0.17 0.72,-0.56 1.21,-0.79 A 3.37,3.37 0 0 0 55,33.4 0.51,0.51 0 0 0 54.93,33.23 12.49,12.49 0 0 1 51.39,35.81 c -1.69,0.86 -3.54,0.7 -5.29,0.95 0.07,-0.16 0.23,-0.16 0.4,-0.16 0,-0.23 0.16,-0.33 0.33,-0.47 H 47 c 0.07,0 0.07,-0.16 0.16,-0.16 0.09,0 0.4,-0.07 0.33,-0.07 -0.23,-0.32 -0.71,0.23 -1.11,0 0.17,-0.16 0.07,-0.39 0.24,-0.46 H 47 a 0.57,0.57 0 0 1 0.16,-0.33 c 1.21,-0.7 2.33,-1.25 3.45,-1.88 -0.24,0 -0.4,0.23 -0.65,0.07 0.17,0 0,-0.23 0.17,-0.23 0.88,-0.23 1.61,-0.7 2.49,-1 -0.33,0 -0.57,0.23 -0.88,0 0.17,-0.07 0.24,-0.24 0.48,-0.24 V 31.6 c 0,-0.07 0.07,-0.07 0.17,-0.07 a 0.36,0.36 0 0 1 -0.17,-0.07 c 0.07,-0.16 0.33,-0.07 0.47,-0.23 -0.07,0 -0.23,0 -0.23,-0.07 a 1.47,1.47 0 0 1 1,-0.46 c -0.07,-0.17 -0.33,0 -0.33,-0.17 0,-0.17 0.07,-0.07 0.17,-0.07 h -0.17 c -0.17,-0.07 -0.07,-0.23 -0.07,-0.32 a 5.58,5.58 0 0 0 0.71,-1.88 c -0.07,0 -0.17,0 -0.17,-0.07 a 6.52,6.52 0 0 1 -3.27,1.48 H 50 a 1.6,1.6 0 0 1 -1.35,-0.07 5.43,5.43 0 0 1 -0.81,-0.62 10.72,10.72 0 0 0 -2,-1 18.21,18.21 0 0 0 -6.17,-0.86 14.92,14.92 0 0 1 2.8,-0.79 12.32,12.32 0 0 1 4.08,-0.79 3.66,3.66 0 0 0 -0.81,0 14.26,14.26 0 0 0 -3.44,0.47 c -0.81,0.16 -1.52,0.46 -2.33,0.63 -0.47,0.16 -0.71,0.62 -1.28,0.55 V 27 a 4.54,4.54 0 0 1 3,-1.95 15.51,15.51 0 0 1 4.25,0.16 21.1,21.1 0 0 1 3,0.56 c 0.4,0 0.47,0.63 0.8,0.7 0.33,0.07 1,0 1.45,0.33 0,-0.17 -0.07,-0.33 0,-0.47 0.33,-0.32 0.71,0.07 1,-0.07 0.65,-0.39 -0.57,-1.09 -0.87,-1.65 a 0.33,0.33 0 0 1 0.07,-0.16 9.14,9.14 0 0 0 2,1.55 c 0.4,0.16 1.35,0.39 1.21,-0.07 a 12.36,12.36 0 0 0 -1.85,-2.35 v -0.32 c -0.17,0 -0.17,-0.07 -0.24,-0.17 v -0.32 c -0.33,-0.16 -0.24,-0.47 -0.4,-0.7 -0.24,-0.4 -0.07,-0.95 -0.24,-1.42 a 9.8,9.8 0 0 1 -0.33,-1.32 c -0.24,-1.32 -0.57,-2.51 -0.71,-3.76 -0.17,-1.49 0.87,-2.67 1.61,-4 A 6.87,6.87 0 0 1 54.69,9.06 6.73,6.73 0 0 1 56.22,6.56 7,7 0 0 1 58.68,5 20.32,20.32 0 0 1 60.82,4.21 H 5.76 V 45.64 H 44.7 A 34.36,34.36 0 0 1 49.88,43 20.75,20.75 0 0 0 54,40.74 Z M 41.64,35.11 c -0.16,0 -0.47,0.07 -0.4,-0.07 0.07,-0.39 0.64,-0.39 1,-0.55 0.17,-0.07 0.4,-0.23 0.57,-0.17 0.17,0.24 0.4,0.17 0.57,0.33 -0.53,0.46 -1.17,0.23 -1.74,0.46 z M 29.4,33.4 a 0.3,0.3 0 0 1 -0.08,-0.17 22.62,22.62 0 0 0 2.57,-4 11.18,11.18 0 0 0 2.73,-2.23 15.56,15.56 0 0 1 4.48,-3.46 3.25,3.25 0 0 1 2.09,0.07 c -0.24,0.33 -0.64,0.23 -1,0.47 A 0.34,0.34 0 0 1 40,24 0.3,0.3 0 0 0 40.07,23.76 c -0.81,0.86 -1.92,1.26 -2.56,2.28 -0.48,0.79 -0.81,1.81 -1.85,2 -0.33,0.07 0.07,-0.23 -0.07,-0.16 A 27.13,27.13 0 0 0 29.4,33.4 Z M 36,28.22 c -0.07,0.16 -0.17,0.16 -0.24,0.32 a 0.63,0.63 0 0 1 -0.33,0.33 c -0.07,0 -0.16,0 -0.16,-0.07 a 0.88,0.88 0 0 1 0.64,-0.7 C 36,28.08 36,28.15 36,28.22 Z M 39.77,40 a 1.06,1.06 0 0 1 -0.19,0.23 c 0.09,0 0.16,0.07 0.09,0.12 a 1.64,1.64 0 0 1 -0.62,0.41 h -0.11 l -0.31,0.28 c -0.1,0.09 -0.55,0 -0.4,-0.1 0.15,-0.1 0.4,-0.37 0.59,-0.55 l 0.33,-0.3 a 0.55,0.55 0 0 1 0.17,-0.17 c 0.09,-0.07 0.5,-0.11 0.45,0.08 z m -1.45,-0.65 v 0 c -0.3,0.21 -0.61,0.42 -0.93,0.6 -0.32,0.18 -0.71,0.35 -1.07,0.51 v 0 a 0.09,0.09 0 0 0 -0.12,0 c 0,0 0,0 0,0 a 3.35,3.35 0 0 0 -0.8,0.6 c -0.05,0 -0.08,0.07 -0.12,0.11 v 0 l -0.12,0.12 v 0 0 a 1.45,1.45 0 0 0 -0.17,0.18 0.68,0.68 0 0 1 -0.12,0.12 c 0,0 -0.19,0 -0.16,-0.07 v 0 l -0.15,0.07 a 0.26,0.26 0 0 0 -0.11,0.07 v 0 c 0,0 0,0 0,0 l -0.28,0.23 a 3.17,3.17 0 0 0 -0.48,0.49 v 0 0 0 0 0 0 c 0,0 0,0 0,0.07 v 0 a 0.08,0.08 0 0 1 -0.07,0 c 0,0 0,0 0,0 0,0 0,0 0,0 a 0.37,0.37 0 0 0 -0.07,-0.12 v 0 c 0,0 0,0 0,0 a 3.45,3.45 0 0 1 0.26,-0.28 c 0,0 0,0 0,0 v 0 c 0,0 0,-0.07 0.1,-0.09 0.1,-0.02 0.09,-0.11 0.14,-0.16 0.05,-0.05 0,0 0,-0.07 l 0.26,-0.33 v 0 c 0,0 0,0 0,0 0,0 0.07,-0.12 0.12,-0.17 a 0.86,0.86 0 0 0 0.1,-0.16 v 0 0 0 0 c 0,-0.07 0,-0.12 0.07,-0.19 v 0 c 0,0 0,0 0,-0.05 a 0.64,0.64 0 0 0 0,-0.09 v 0 0 c 0,0 0,-0.07 0,-0.11 v 0 l 0.31,-0.42 c 0,0 0,0 0,0 a 1.89,1.89 0 0 0 -0.31,0.25 c -0.1,0.07 -0.24,-0.05 -0.15,-0.12 0.09,-0.07 0.12,-0.11 0.19,-0.16 v 0 c 0.15,-0.12 0.27,-0.3 0.4,-0.4 a 1.08,1.08 0 0 0 0.24,-0.18 v 0 a 1,1 0 0 1 0.19,-0.21 v 0 c 0.76,-0.72 2.06,-0.7 3.06,-1.16 0.4,-0.17 0.88,0.07 1.28,0 a 1.1,1.1 0 0 1 0.71,0.16 c -0.71,0.39 -1.38,0.83 -2,1.23 z M 40,33.86 c -0.07,-0.07 0.23,0 0.33,-0.16 h -0.64 c -0.07,0 -0.07,-0.07 -0.07,-0.17 -0.4,0.07 -0.88,0.24 -1.29,0.33 -0.57,0.16 -1,0.56 -1.68,0.7 -0.88,0.3 -1.61,1 -2.56,1.32 -0.07,0 -0.07,-0.07 -0.07,-0.16 0,-0.09 0.4,-0.3 0.57,-0.56 0,-0.07 0,-0.16 -0.08,-0.16 a 15.56,15.56 0 0 1 2.33,-2 v -0.24 c 0.24,-0.3 0.64,-0.46 0.81,-0.85 a 1.32,1.32 0 0 1 0.8,-0.7 c -0.07,-0.07 -0.23,-0.07 -0.23,-0.24 -0.33,0 -0.64,0.17 -1,-0.07 a 1.46,1.46 0 0 1 0.5,-0.28 0.31,0.31 0 0 1 -0.19,-0.11 c -0.07,-0.16 0.17,-0.33 0.4,-0.4 a 1.82,1.82 0 0 0 1,-0.32 c -0.57,-0.07 -1.21,0.16 -1.76,-0.16 a 4.22,4.22 0 0 1 2,-2.35 c 0.07,0 0.23,0 0.23,0.07 a 0.78,0.78 0 0 1 -0.64,0.79 9.62,9.62 0 0 1 1.92,0.47 c -0.07,0.16 -0.23,0.07 -0.33,0.07 0.4,0.23 0.88,0.07 1.28,0.39 -0.23,0.23 -0.47,0 -0.71,0 2.49,0.7 5.13,1.25 7.22,2.83 a 22.42,22.42 0 0 1 -5.53,1.65 1.71,1.71 0 0 1 -0.64,-0.07 c 0,0.07 0,0.24 -0.08,0.24 A 1.25,1.25 0 0 0 41.09,33.88 1,1 0 0 1 40,33.86 Z"
         transform="translate(-1.87,-0.34)"
         inkscape:connector-curvature="0"
         style="fill:#000091" />
      <g
         id="f244dc9f-0893-4311-a414-dadc600a327e"
         data-name="Groupe 1614">
        <path
           id="b4499e87-0336-43b4-b0a5-f5c0ca69d309"
           data-name="Tracé 6275"
           class="e5cc489e-5852-4cda-ad78-8406bbcd7e78"
           d="M 122.36,4.13 H 76.74 a 2.35,2.35 0 0 1 0.43,0.19 c 0.38,0.18 0.85,0.44 1.14,0.6 a 3.63,3.63 0 0 1 1.52,1.25 c 0.16,0.23 0.4,0.7 0.23,1 -0.17,0.3 -0.23,1 -0.64,1.19 a 3.11,3.11 0 0 1 -1.68,0.16 3.65,3.65 0 0 1 -1,-0.16 6.56,6.56 0 0 1 3.14,2.11 c 0.07,0.16 0.4,0.23 0.71,0.23 0.07,0 0.07,0.17 0.07,0.24 -0.17,0.16 -0.33,0.23 -0.24,0.46 h 0.24 c 0.4,-0.16 0.31,-0.95 0.88,-0.7 a 0.89,0.89 0 0 1 0.33,1.19 8.16,8.16 0 0 1 -1,0.79 0.77,0.77 0 0 0 0,0.56 2.35,2.35 0 0 1 0.4,1 c 0.24,0.56 0.33,1.19 0.57,1.72 a 10.88,10.88 0 0 1 0.57,3.53 c 0,0.63 -0.33,1.18 -0.07,1.81 a 7.26,7.26 0 0 0 0.88,1.65 13.3,13.3 0 0 1 0.87,1.25 c 0.48,0.79 1.36,1.58 1,2.51 -0.24,0.56 -1.12,0.47 -1.69,0.79 -0.57,0.32 -0.07,1 0.17,1.42 0.4,0.7 -0.48,1.18 -1,1.42 0.17,0.23 0.48,0.16 0.57,0.32 0.08,0.4 0.48,0.63 0.24,1 -0.24,0.37 -1.28,0.7 -0.81,1.42 A 2.2,2.2 0 0 1 81.3,35.91 L 81,36 a 3,3 0 0 1 -1.52,0.07 1.36,1.36 0 0 0 -0.48,-0.16 35.09,35.09 0 0 0 -4,-0.59 3.7,3.7 0 0 0 -1.12,0.33 6.36,6.36 0 0 0 -1,0.83 v 0 a 1,1 0 0 0 -0.16,0.19 c 0,0 -0.08,0.07 -0.1,0.11 l -0.07,0.07 a 7.1,7.1 0 0 0 -0.64,0.91 c 0,0 0,0.05 0,0.07 a 0.75,0.75 0 0 1 -0.07,0.12 9.15,9.15 0 0 0 -0.61,1.44 c -0.55,1.78 -0.31,3.34 0.07,3.71 0.09,0.09 2.63,0.86 4.41,1.65 0.83,0.37 1.4,0.65 1.9,0.93 h 44.79 z"
           transform="translate(-1.87,-0.34)"
           inkscape:connector-curvature="0"
           style="fill:#e1000f" />
      </g>
      <path
         id="b9d1bc0c-787a-46e4-b37f-eae1744c2591"
         data-name="Tracé 6276"
         class="b862e123-f300-4163-9472-71235c7b8f5e"
         d="m 79.47,19.27 c 0.33,0.07 0.81,0.07 0.81,0.24 -0.17,0.62 -1.12,0.79 -1.62,1.41 h -0.23 c -0.24,0.17 -0.17,0.56 -0.4,0.56 a 1.23,1.23 0 0 0 -0.71,0.07 1.32,1.32 0 0 0 1.21,0.47 0.37,0.37 0 0 1 0.23,0.32 0.36,0.36 0 0 0 0.17,-0.07 c 0.07,0 0.16,0 0.16,0.07 v 0.3 c -0.23,0.3 -0.64,0.16 -1,0.23 a 3.42,3.42 0 0 0 1.85,0 c 0.48,-0.16 0,-0.95 0.33,-1.32 -0.16,0 0,-0.23 -0.16,-0.23 0.16,-0.17 0.31,-0.4 0.47,-0.47 a 0.54,0.54 0 0 0 0.48,-0.23 c 0,-0.16 -0.31,-0.23 -0.24,-0.4 0.48,-0.3 0.88,-0.79 0.71,-1.25 -0.07,-0.23 -0.71,-0.23 -1.11,-0.39 a 2.58,2.58 0 0 0 -1.35,0.07 5.53,5.53 0 0 0 -1.21,0.32 5.37,5.37 0 0 0 -1.52,0.79 9.59,9.59 0 0 1 1.75,-0.46 4.37,4.37 0 0 1 1.38,-0.03 z"
         transform="translate(-1.87,-0.34)"
         inkscape:connector-curvature="0"
         style="fill:#9d9d9c" />
    </g>
  </g>
</svg>
