<svg xmlns="http://www.w3.org/2000/svg" viewBox="0 0 159.98 357.525"><defs><clipPath clipPathUnits="userSpaceOnUse" id="a"><path d="M0 268.144h119.985V0H0z"/></clipPath><clipPath clipPathUnits="userSpaceOnUse" id="b"><path d="M17.336 223.294h85.035v28.542H17.336z"/></clipPath><clipPath clipPathUnits="userSpaceOnUse" id="c"><path d="M0 268.144h119.985V0H0z"/></clipPath></defs><path d="M.665 356.619h158.742v-356H.665z" fill="#fff"/><g clip-path="url(#a)" transform="matrix(1.33333 0 0 -1.33333 0 357.525)"><path d="M119.555.68H.499v267h119.056z" fill="none" stroke="#1d1d1b" stroke-width="1.03"/><path d="M57.654 207.238c-.076-.104-.11-.244-.124-.524-.018-.3-.022-.532-.022-.967 0-.159.004-.642.004-1.126 0-.488-.074-.783-.277-1.077-.323-.469-.854-.707-1.554-.707-.44 0-.775.086-1.09.294-.49.316-.679.73-.679 1.471 0 .754.013 1.083.013 1.331 0 .354.022.724-.04 1.077-.045.25-.177.354-.469.384v.194l.162-.006c.18-.008.44-.008.774-.008.337 0 .597 0 .778.008l.16.006v-.194c-.215-.03-.322-.086-.392-.205-.06-.103-.092-.245-.098-.552a44.374 44.374 0 01-.019-1.316c0-1.202.025-1.432.243-1.686.168-.196.456-.328.79-.328.471 0 .925.237 1.063.71.091.297.105.515.105 1.304v.693c0 .8-.02 1.043-.096 1.162-.078.126-.182.196-.365.218v.194c.28-.014.38-.014.728-.014.356 0 .456 0 .735.014v-.194c-.156-.022-.254-.065-.33-.156M61.92 203.026c-.062-.104-.13-.125-.515-.125-.237 0-.47.014-.707.021-.336.006-.675.02-1.01.02-.333 0-.673-.006-1.005-.02v.196c.313.027.453.21.481.517.02.211.02.435.02.797v1.982c0 .37-.02.538-.075.685-.065.182-.19.265-.426.295v.194h3.273c0-.202-.006-.413-.006-.615 0-.168-.008-.328.006-.497h-.253c-.045.54-.278.686-1.112.686-.15 0-.354-.006-.523-.014-.016-.273-.022-.365-.022-.769v-.81c.104-.01.191-.01.316-.01.728 0 .952.105.993.485h.252c-.014-.11-.014-.345-.014-.694 0-.358.008-.567.014-.678h-.252c-.02.397-.208.497-.93.497-.127 0-.256-.008-.379-.008 0-.44.006-.883.006-1.323 0-.294.051-.39.221-.434.107-.027.263-.035.48-.035.758 0 1.02.17 1.182.742l.273-.054c-.096-.49-.21-.897-.289-1.03M68.396 207.207c-.01.611-.365.848-1.32.848-.198 0-.386-.008-.596-.026-.018-.585-.018-.989-.018-1.913.203-.01.308-.017.452-.017.787 0 1.022.136 1.069.593h.299c0-.237-.014-.485-.014-.72 0-.314.014-.635.014-.951h-.3c-.062.51-.256.612-1.146.612-.154 0-.211 0-.374-.01v-.949c0-.185 0-.389.01-.609.018-.466.049-.871.604-.906v-.236l-.203.008c-.214.007-.527.007-.925.007-.406 0-.711 0-.932-.007l-.2-.008v.236c.38.035.547.253.582.627.023.253.023.407.023 1.245v2.117c0 .451-.023.653-.09.83-.077.22-.23.324-.515.354v.238h3.893c-.017-.161-.017-.43-.017-.785 0-.341 0-.391.017-.578zM71.277 207.248c-.137 0-.263-.023-.416-.059 0-.413-.006-1.16-.006-1.741a2.07 2.07 0 01.307-.022c.57 0 .956.357.956.904 0 .532-.356.918-.841.918m1.803-4.382c-.26 0-.407.035-.555.133-.231.154-.476.575-.617.812-.235.412-.505.852-.752 1.224-.044-.008-.08-.008-.107-.008-.07 0-.126.008-.194.008v-.372c0-.187.006-.376.006-.565.008-.378.014-.538.067-.686.073-.181.198-.273.43-.294v-.195l-.161.006c-.183.007-.436 0-.764 0-.321 0-.575.007-.756 0l-.167-.006v.195c.173.013.259.048.34.138a.641.641 0 01.142.38c.02.21.028.335.028 1.027v1.178c0 .853-.028 1.062-.077 1.259-.047.189-.193.265-.433.294v.194c.138-.013.28-.006.42-.006.365 0 .476 0 .91.02.376.014.592.022.76.022.475 0 .764-.071 1.003-.238.264-.189.442-.553.442-.917 0-.574-.38-1.043-1.024-1.281.267-.333.475-.671.72-1.055.224-.357.447-.665.627-.84a.495.495 0 01.29-.175v-.195a2.457 2.457 0 00-.578-.057M75.857 206.357c-.178-.476-.43-1.092-.536-1.434h1.034zm2.267-3.429c-.173.008-.425.008-.746.008-.327 0-.581 0-.757-.008l-.162-.006v.196c.226.013.358.134.358.33 0 .07-.02.166-.09.376-.085.26-.14.435-.224.673H75.16l-.141-.407c-.102-.314-.16-.546-.16-.665 0-.202.093-.294.316-.307v-.196c-.268.006-.364.014-.7.014-.33 0-.428-.008-.693-.014v.196a.325.325 0 01.219.097c.129.12.262.364.474.896l.665 1.695c.18.454.454 1.188.643 1.782h.475c.064-.216.21-.559.308-.813l.985-2.522c.167-.429.289-.68.378-.84.098-.169.195-.253.366-.295v-.196zM83.105 207.181c-.08-.124-.091-.243-.104-.605a73.05 73.05 0 01-.03-2.079v-1.07c0-.163.02-.409.02-.504h-.475c-.453.594-1.4 1.75-1.4 1.75-.108.137-.983 1.215-1.425 1.755 0-.147-.008-.055-.008-.51v-.457c0-.524.008-1.042.03-1.566.014-.295.04-.442.11-.572.072-.14.177-.197.38-.205v-.195c-.248.013-.495.013-.742.013-.253 0-.497 0-.75-.013v.195c.46.013.475.4.49.761.007.297.014.54.014.988v1.475c0 .583-.03.723-.132.877-.07.11-.16.153-.372.175v.194c.234-.013.313-.013.612-.013.284 0 .368 0 .596.013.086-.154.22-.294.703-.882.685-.832 1.299-1.537 1.882-2.266v1.526c0 .7-.014.875-.05 1.056-.051.226-.183.337-.442.372v.194c.288-.013.383-.013.74-.013.359 0 .457 0 .744.013v-.194c-.188-.008-.293-.043-.391-.213M87.986 203.09c-.452-.183-.854-.253-1.406-.253l-.063-.278c.037.008.106 0 .133 0 .266 0 .44-.19.44-.421 0-.376-.3-.643-.777-.643-.14 0-.264.03-.418.09l.096.273a.701.701 0 01.252-.055c.198 0 .33.097.33.273 0 .14-.071.222-.173.222a.254.254 0 01-.157-.055l-.152.043.138.567c-.612.054-1.062.258-1.44.65-.433.44-.664 1.043-.664 1.75 0 1.509.97 2.42 2.575 2.42.48 0 .95-.07 1.355-.203-.015-.162-.015-.321-.015-.475 0-.12.009-.373.015-.532h-.274c-.11.497-.51.762-1.143.762-.986 0-1.588-.657-1.588-1.748 0-1.26.706-2.176 1.679-2.176.589 0 .986.292 1.143.852l.269-.055a6.067 6.067 0 01-.155-1.007M90.575 206.357c-.182-.476-.437-1.092-.54-1.434h1.033zm2.265-3.429c-.175.008-.426.008-.748.008-.328 0-.58 0-.757-.008l-.158-.006v.196c.22.013.353.134.353.33 0 .07-.018.166-.09.376-.082.26-.138.435-.222.673h-1.346l-.137-.407c-.106-.314-.162-.546-.162-.665 0-.202.09-.294.315-.307v-.196c-.265.006-.367.014-.702.014-.326 0-.424-.008-.69-.014v.196c.106.013.14.027.215.097.134.12.265.364.475.896l.666 1.695c.182.454.451 1.188.644 1.782h.474c.065-.216.211-.559.307-.813l.987-2.522c.168-.429.29-.68.378-.84.1-.169.198-.253.365-.295v-.196zM95.125 202.929c-.174.008-.433.008-.76.008-.34 0-.589 0-.769-.008l-.173-.006v.195c.33.027.456.195.485.518.02.21.026.335.026 1.027v1.178c0 .182-.006.37-.006.573 0 .37-.014.538-.068.686-.064.182-.197.265-.437.294v.195l.173-.006c.18-.008.43-.008.77-.008.326 0 .585 0 .76.008l.168.006v-.195c-.302-.021-.454-.213-.483-.526-.022-.203-.022-.4-.022-1.027v-1.178c0-.916.006-1.07.076-1.251.067-.181.192-.273.43-.294v-.195zM97.298 202.837c-.402 0-.697.057-1.173.238-.02.267-.069.672-.126 1.01l.265.043c.17-.568.54-.864 1.077-.864.495 0 .833.26.833.65 0 .317-.216.535-.53.729l-.735.47c-.505.32-.798.658-.798 1.272 0 .785.594 1.287 1.52 1.287.446 0 .817-.084 1.146-.253-.009-.165-.009-.222-.009-.44 0-.251 0-.322.01-.516h-.269c-.098.504-.412.785-.897.785-.432 0-.746-.275-.746-.66 0-.335.23-.56.603-.797l.593-.384c.567-.372.888-.73.888-1.287 0-.764-.67-1.283-1.652-1.283M102.925 203.026c-.064-.104-.133-.125-.516-.125-.238 0-.47.014-.71.021-.336.006-.67.02-1.004.02-.337 0-.673-.006-1.008-.02v.196c.315.027.45.21.481.517.021.211.021.435.021.797v1.982c0 .37-.02.538-.077.685-.06.182-.187.265-.425.295v.194h3.273c0-.202-.01-.413-.01-.615 0-.168-.005-.328.01-.497h-.252c-.05.54-.278.686-1.112.686-.153 0-.357-.006-.527-.014-.012-.273-.02-.365-.02-.769v-.81c.106-.01.19-.01.314-.01.727 0 .955.105.996.485h.253c-.016-.11-.016-.345-.016-.694 0-.358.006-.567.016-.678h-.253c-.022.397-.21.497-.932.497-.126 0-.252-.008-.378-.008 0-.44.008-.883.008-1.323 0-.294.046-.39.216-.434.105-.027.266-.035.484-.035.753 0 1.022.17 1.184.742l.272-.054c-.1-.49-.212-.897-.288-1.03M54.987 217.25c-.272 0-.543-.206-.775-.586-.26-.417-.445-.969-.445-1.329 0-.21.102-.327.274-.327.251 0 .693.226.863.395.097.094.151.232.22.492.108.414.21.802.272 1.252a1.048 1.048 0 01-.409.103m.313-2.523c-.124 0-.165.076-.225.412-.503-.287-.87-.418-1.234-.418-.408 0-.646.213-.646.585 0 .36.176.873.45 1.295.366.573.824.933 1.52.933.305 0 .585-.054.878-.128l-.035-.109c-.245-.783-.422-1.649-.422-1.943 0-.183.041-.286.123-.286.054 0 .198.041.367.103l.021-.212c-.347-.128-.683-.232-.797-.232M58.32 218.734c-.228-.905-.45-1.915-.672-2.877-.068-.312-.1-.517-.1-.618 0-.1.047-.15.151-.15.068 0 .187.028.372.082l.016-.19c-.35-.137-.77-.254-.955-.254-.13 0-.205.076-.205.207 0 .093.022.216.123.644.21.9.443 1.863.63 2.72.077.395.118.592.118.654 0 .08-.04.121-.113.121-.068 0-.192-.027-.3-.066l-.015.205c.346.122.728.216.917.216.097 0 .144-.042.144-.115 0-.069-.025-.226-.112-.579M59.261 214.735c-.137 0-.225.076-.225.199 0 .06.02.17.055.32.09.36.213.85.28 1.11.095.354.136.598.136.696 0 .087-.04.128-.114.128-.062 0-.124-.02-.269-.062l-.047-.014-.02.19c.378.145.743.232.93.232.102 0 .14-.032.14-.114s-.032-.3-.157-.778l-.103-.403c-.168-.66-.21-.892-.21-1 0-.1.054-.163.158-.163.06 0 .182.028.371.096l.015-.191c-.36-.144-.747-.246-.94-.246m.744 3.48c-.21 0-.348.13-.348.329 0 .243.179.415.423.415.205 0 .336-.123.336-.32 0-.245-.17-.423-.41-.423M62.687 217.12l-.562.012-.29-1.396c-.074-.36-.082-.461-.082-.517 0-.094.052-.15.139-.15.045 0 .15.027.31.076l.073.019.02-.2c-.358-.14-.723-.237-.922-.237-.141 0-.23.069-.23.2 0 .116.027.286.079.496.06.238.113.435.166.703l.21 1.006-.36-.006.045.218c.465.082.62.45.75.845l.33.069-.173-.805.565.008zM64.726 217.262c-.326 0-.675-.45-.846-1.11h.068c.633 0 1.112.335 1.112.769a.338.338 0 01-.334.34m-.702-1.36c-.05 0-.11 0-.196.007a1.81 1.81 0 01-.03-.33c0-.344.123-.53.36-.53.22 0 .49.116.893.369l.077-.232c-.506-.313-.888-.458-1.232-.458-.425 0-.654.254-.654.709 0 1.124.762 2.098 1.639 2.098.429 0 .68-.196.68-.537 0-.627-.666-1.096-1.537-1.096m.755 2.057l-.217.177.83.939.613-.148zM77.683 218.366h-.196c.006.068.01.123.01.156a.447.447 0 01-.126.327c-.131.125-.37.172-.885.172-.145 0-.336-.006-.505-.014-.124-.559-.232-1.097-.354-1.678.128 0 .256-.007.389-.007.754 0 .904.07 1.049.513h.18a13.22 13.22 0 01-.257-1.327h-.191a.78.78 0 01.014.112.362.362 0 01-.128.29c-.117.086-.252.108-.661.108-.216 0-.278-.008-.46-.016l-.085-.454c-.131-.654-.176-.962-.176-1.153 0-.278.123-.409.4-.442l-.026-.142-.112.006c-.051 0-.352.006-.608.006-.274 0-.78 0-.868-.006l-.118-.006.03.142c.204.02.326.082.42.211.112.136.186.327.274.71.098.387.132.593.273 1.3l.108.537c.109.54.149.865.149 1.035 0 .3-.106.423-.398.458l.027.15h3.023c-.066-.308-.136-.66-.192-.988M80.001 216.656l-.222.02c.012.08.02.177.02.267 0 .123-.109.21-.278.21-.1 0-.205-.062-.292-.162-.259-.294-.363-.758-.512-1.513l-.129-.66a6.414 6.414 0 01-.593-.056c.067.26.113.464.17.696l.15.633c.1.429.15.696.15.838 0 .169-.044.246-.124.246a.637.637 0 01-.17-.036l-.17-.054-.02.204c.333.137.716.245.885.245.07 0 .11-.026.125-.093.02-.082.031-.18.038-.294.307.253.581.395.77.395.13 0 .292-.07.45-.183a4.301 4.301 0 01-.248-.703M82.376 217.25c-.27 0-.545-.206-.777-.586-.257-.417-.44-.969-.44-1.329 0-.21.1-.327.27-.327.253 0 .696.226.865.395.096.094.15.232.218.492.11.414.214.802.274 1.252a1.04 1.04 0 01-.41.103m.314-2.523c-.12 0-.163.076-.224.412-.505-.287-.873-.418-1.235-.418-.406 0-.644.213-.644.585 0 .36.177.873.45 1.295.365.573.823.933 1.516.933.308 0 .587-.054.882-.128l-.036-.109c-.248-.783-.422-1.649-.422-1.943 0-.183.04-.286.122-.286.052 0 .197.041.367.103l.021-.212c-.347-.128-.68-.232-.797-.232M85.94 217.12l-.565.012-.288-1.396c-.072-.36-.082-.461-.082-.517 0-.094.049-.15.138-.15.047 0 .15.027.314.076l.068.019.019-.2c-.354-.14-.72-.237-.916-.237-.145 0-.233.069-.233.2 0 .116.024.286.082.496.059.238.108.435.162.703l.21 1.006-.36-.006.047.218c.464.082.623.45.752.845l.325.069-.17-.805.562.008zM87.978 217.262c-.328 0-.678-.45-.85-1.11h.07c.634 0 1.112.335 1.112.769a.335.335 0 01-.332.34m-.703-1.36c-.047 0-.11 0-.197.007a2.008 2.008 0 01-.03-.33c0-.344.125-.53.36-.53.22 0 .49.116.894.369l.074-.232c-.504-.313-.883-.458-1.233-.458-.42 0-.653.254-.653.709 0 1.124.763 2.098 1.64 2.098.43 0 .684-.196.684-.537 0-.627-.667-1.096-1.54-1.096M91.546 216.656l-.226.02c.014.08.02.177.02.267 0 .123-.109.21-.279.21-.104 0-.204-.062-.294-.162-.257-.294-.36-.758-.51-1.513l-.13-.66a6.637 6.637 0 01-.594-.056c.073.26.12.464.172.696l.15.633c.101.429.148.696.148.838 0 .169-.04.246-.119.246a.59.59 0 01-.169-.036l-.17-.054-.023.204c.333.137.714.245.885.245.067 0 .11-.026.124-.093a1.52 1.52 0 00.04-.294c.305.253.58.395.77.395.13 0 .292-.07.448-.183a3.845 3.845 0 01-.243-.703M94.26 214.727c-.138 0-.217.084-.217.207 0 .08.028.23.11.571l.067.285c.206.852.255 1.139.255 1.254 0 .103-.049.157-.146.157-.115 0-.305-.07-.509-.191-.218-.122-.385-.264-.464-.389-.065-.102-.112-.279-.193-.639a26.134 26.134 0 01-.23-1.159 9.525 9.525 0 01-.6-.061c.137.513.238.933.34 1.405.103.461.144.68.144.803 0 .155-.047.231-.15.231-.055 0-.17-.027-.335-.081l-.01.19c.325.131.68.224.841.224.15 0 .201-.087.201-.409v-.054c.515.294 1.046.463 1.414.463.225 0 .316-.054.316-.191 0-.142-.043-.366-.188-.919a11.146 11.146 0 01-.18-.797 2.435 2.435 0 01-.063-.393c0-.103.053-.158.15-.158.062 0 .19.027.353.088l.02-.199c-.362-.129-.77-.238-.926-.238M96.387 214.735c-.139 0-.227.076-.227.199 0 .06.02.17.057.32.087.36.209.85.277 1.11.095.354.137.598.137.696 0 .087-.042.128-.113.128-.065 0-.125-.02-.27-.062l-.047-.014-.021.19c.377.145.745.232.926.232.103 0 .143-.032.143-.114s-.032-.3-.155-.778l-.101-.403c-.173-.66-.211-.892-.211-1 0-.1.055-.163.155-.163.062 0 .182.028.375.096l.013-.191c-.361-.144-.751-.246-.938-.246m.738 3.48c-.21 0-.343.13-.343.329 0 .243.174.415.421.415.204 0 .335-.123.335-.32 0-.245-.172-.423-.413-.423M99.81 217.12l-.566.012-.286-1.396c-.078-.36-.084-.461-.084-.517 0-.094.049-.15.138-.15.05 0 .15.027.313.076l.068.019.02-.2c-.351-.14-.721-.237-.917-.237-.144 0-.233.069-.233.2 0 .116.03.286.083.496.06.238.109.435.163.703l.212 1.006-.361-.006.046.218c.463.082.62.45.75.845l.329.069-.172-.805.565.008zM101.847 217.262c-.328 0-.676-.45-.845-1.11h.067c.634 0 1.11.335 1.11.769a.336.336 0 01-.332.34m-.701-1.36c-.051 0-.112 0-.2.007a1.796 1.796 0 01-.028-.33c0-.344.125-.53.365-.53.216 0 .488.116.89.369l.074-.232c-.503-.313-.884-.458-1.233-.458-.42 0-.65.254-.65.709 0 1.124.762 2.098 1.638 2.098.43 0 .681-.196.681-.537 0-.627-.667-1.096-1.537-1.096m.754 2.057l-.218.177.832.939.613-.148zM69.966 215.996a.828.828 0 110 1.655.828.828 0 010-1.655" fill="#1d1d1b"/><path d="M102.37 223.294H17.335v28.542h85.035z" fill="#fff"/><path d="M19.514 208.158a2.27 2.27 0 01-.506-.068c0-.501-.008-1.407-.008-2.11.09-.018.26-.024.37-.024.694 0 1.163.43 1.163 1.092 0 .642-.434 1.11-1.02 1.11m2.178-5.303c-.313 0-.49.04-.667.16-.281.187-.577.695-.746.982-.29.5-.611 1.035-.916 1.484-.051-.01-.092-.01-.127-.01-.083 0-.152.01-.235.01v-.45c0-.23.008-.456.008-.686.008-.456.016-.652.083-.83.086-.22.237-.331.519-.356v-.236l-.196.008c-.222.008-.526 0-.924 0-.39 0-.694.008-.915 0l-.203-.008v.236c.212.018.313.06.416.17a.809.809 0 01.168.457c.026.253.034.408.034 1.246v1.423c0 1.033-.034 1.287-.092 1.523-.06.228-.239.324-.526.355v.238c.17-.016.338-.008.508-.008.441 0 .576 0 1.102.025.457.018.72.026.923.026.576 0 .922-.084 1.212-.29.321-.227.531-.667.531-1.107 0-.696-.455-1.261-1.235-1.551.321-.406.575-.81.872-1.278.27-.432.541-.805.752-1.017a.637.637 0 01.357-.212v-.236a3.034 3.034 0 00-.703-.068M26.038 203.026c-.065-.104-.135-.125-.521-.125-.236 0-.467.014-.705.021-.335.006-.671.02-1.006.02-.337 0-.673-.006-1.008-.02v.196c.313.027.454.21.48.517.023.211.023.435.023.797v1.982c0 .37-.022.538-.076.685-.065.182-.19.265-.427.295v.194h3.272c0-.202-.006-.413-.006-.615 0-.168-.006-.328.006-.497h-.25c-.05.54-.281.686-1.113.686-.154 0-.356-.006-.523-.014-.014-.273-.022-.365-.022-.769v-.81c.105-.01.189-.01.315-.01.726 0 .95.105.992.485h.253c-.015-.11-.015-.345-.015-.694 0-.358.01-.567.015-.678h-.253c-.02.397-.208.497-.93.497-.127 0-.251-.008-.377-.008 0-.44.008-.883.008-1.323 0-.294.049-.39.215-.434.105-.027.265-.035.482-.035.756 0 1.023.17 1.185.742l.27-.054c-.096-.49-.21-.897-.284-1.03m-1.561 5.018l-.33.194.693 1.023.804-.149zM28.954 205.002c-.07 0-.104 0-.196.006l-.155.356c.659.043 1.023.364 1.023.896 0 .559-.386.959-.917.959-.084 0-.154-.006-.266-.03 0-.433-.013-.867-.013-1.301v-1.225c0-.916.005-1.07.076-1.251.064-.181.188-.273.427-.294v-.195l-.168.006c-.181.008-.435.008-.77.008-.33 0-.588 0-.763-.008l-.166-.006v.195c.314.027.453.21.48.518.022.21.022.335.022 1.027v1.75c0 .37-.021.539-.078.687-.062.18-.186.265-.424.294v.194c.084-.005.02-.005.322-.005.118 0 .286 0 .51.005.356.015.713.036 1.07.036.993 0 1.587-.49 1.587-1.302 0-.763-.678-1.32-1.601-1.32M35.31 207.238c-.076-.104-.11-.244-.125-.524a16.3 16.3 0 01-.02-.967c0-.159.004-.642.004-1.126 0-.488-.076-.783-.278-1.077-.32-.469-.854-.707-1.553-.707-.44 0-.777.086-1.09.294-.49.316-.68.73-.68 1.471 0 .754.015 1.083.015 1.331 0 .354.022.724-.043 1.077-.043.25-.175.354-.469.384v.194l.16-.006c.183-.008.442-.008.777-.008.337 0 .593 0 .778.008l.161.006v-.194c-.218-.03-.325-.086-.392-.205-.064-.103-.09-.245-.099-.552a44.374 44.374 0 01-.019-1.316c0-1.202.027-1.432.243-1.686.17-.196.454-.328.788-.328.471 0 .926.237 1.067.71.091.297.105.515.105 1.304v.693c0 .8-.022 1.043-.1 1.162-.076.126-.18.196-.363.218v.194c.28-.014.377-.014.728-.014.356 0 .454 0 .734.014v-.194c-.153-.022-.25-.065-.329-.156M38.11 205.272c-.122 0-.245-.007-.429-.019-.006-.19-.006-.226-.006-.548v-.41c0-.395.014-.603.063-.743.056-.176.224-.259.517-.259.594 0 .93.33.93.916 0 .65-.419 1.063-1.076 1.063m-.02 1.952c-.127 0-.253-.012-.378-.012-.008-.456-.022-1.239-.03-1.533a2.9 2.9 0 01.307-.015c.686 0 1.08.288 1.08.791 0 .483-.366.77-.98.77m1.523-3.974c-.327-.252-.697-.336-1.412-.336-.377 0-.764.027-1.139.027-.154 0-.44 0-.638-.014l-.084-.006v.196c.33.027.455.195.484.517.021.211.027.336.027 1.027v1.325c0 .65-.006.931-.078 1.112-.068.182-.195.265-.433.295v.194c.322-.014.511-.014.96-.014.405 0 1.012.022 1.417.022.646 0 1.234-.307 1.234-1.036 0-.538-.338-.902-1.002-1.07.742-.148 1.134-.574 1.134-1.268 0-.419-.154-.733-.47-.97M44.031 203.018c-.06-.096-.146-.117-.496-.117a13.2 13.2 0 00-.529.013c-.435.015-.829.029-1.304.029-.357 0-.593-.007-.818-.02v.195c.174.013.266.048.342.137.127.15.162.33.162.843 0 .35.006.63.006.993v.75c0 .942-.006 1.067-.076 1.258-.062.182-.195.265-.434.294v.195l.174-.006c.19-.008.45-.008.797-.008.344 0 .61 0 .791.008l.176.006v-.195c-.357 0-.51-.188-.554-.526-.012-.119-.018-.23-.018-1.027v-1.168c0-.972.006-1.093.096-1.19.076-.078.225-.113.527-.113.383 0 .592.043.77.14.195.105.34.315.41.61l.267-.07c-.078-.408-.21-.91-.289-1.03M46.465 202.929c-.176.008-.435.008-.762.008-.337 0-.588 0-.77-.008l-.167-.006v.195c.33.027.456.195.483.518.022.21.028.335.028 1.027v1.178c0 .182-.006.37-.006.573 0 .37-.016.538-.073.686-.063.182-.194.265-.432.294v.195l.168-.006c.18-.008.432-.008.769-.008.327 0 .586 0 .762.008l.168.006v-.195c-.3-.021-.452-.213-.481-.526-.022-.203-.022-.4-.022-1.027v-1.178c0-.916.006-1.07.077-1.251.06-.181.188-.273.426-.294v-.195zM49.705 207.197c-.855 0-1.464-.712-1.464-1.714 0-1.218.72-2.176 1.637-2.176.86 0 1.469.728 1.469 1.744 0 1.202-.721 2.146-1.642 2.146m3.299-5.534c-.543 0-1.123.167-1.677.475a8.016 8.016 0 00-1.077.743 2.955 2.955 0 00-.553-.044c-1.415 0-2.351.926-2.351 2.317 0 1.492 1.01 2.519 2.497 2.519 1.439 0 2.399-.924 2.399-2.31 0-.985-.504-1.86-1.3-2.266.25-.125.502-.266.747-.412.715-.434 1.204-.617 1.666-.617.287 0 .524.065.805.205l.09-.248c-.344-.238-.768-.362-1.246-.362M19.77 214.899c-.062-.082-.163-.11-.409-.11-.334 0-.66.022-.995.028-.286.006-.503.014-.654.014-.204 0-.7-.008-.844-.014l-.096-.006.027.142c.207.02.327.082.423.21.11.137.178.328.274.71.086.374.127.6.27 1.3l.11.539c.11.545.151.864.151 1.034 0 .3-.11.423-.404.458l.027.15c.041-.006.076-.006.096-.006.253 0 .498-.008.75-.008.394 0 .653.008.77.008.02 0 .06 0 .108.006l-.027-.15c-.21-.013-.326-.068-.428-.204-.17-.217-.267-.511-.518-1.826l-.09-.456c-.108-.56-.149-.75-.183-1.001a1.606 1.606 0 01-.019-.212c0-.265.135-.35.57-.35.77 0 1.057.16 1.307.718l.185-.068c-.164-.45-.318-.797-.4-.906M21.05 214.735c-.138 0-.226.076-.226.199 0 .06.022.17.055.32.09.36.21.85.28 1.11.094.354.138.598.138.696 0 .087-.044.128-.117.128-.061 0-.123-.02-.268-.062l-.047-.014-.02.19c.375.145.74.232.927.232.1 0 .144-.032.144-.114s-.035-.3-.158-.778l-.102-.403c-.171-.66-.21-.892-.21-1 0-.1.052-.163.156-.163.06 0 .183.028.375.096l.013-.191c-.361-.144-.751-.246-.94-.246m.743 3.48c-.213 0-.347.13-.347.329 0 .243.177.415.42.415.206 0 .334-.123.334-.32 0-.245-.17-.423-.407-.423M24.795 217.242c-.123 0-.273-.048-.464-.152-.196-.099-.341-.208-.415-.312-.09-.122-.164-.333-.267-.783-.101-.422-.148-.69-.148-.783 0-.128.148-.204.42-.204.282 0 .519.13.696.38.274.39.478 1.011.478 1.453 0 .257-.103.401-.3.401m.008-2.188c-.268-.23-.58-.327-1.065-.327-.531 0-.85.09-.85.226 0 .055.007.123.074.41l.354 1.546c.116.497.205.89.327 1.45.068.326.095.504.095.593 0 .081-.041.13-.117.13a1.72 1.72 0 01-.3-.067l-.005.197.083.025c.368.122.673.191.818.191.087 0 .14-.04.14-.115 0-.076-.032-.245-.148-.75l-.203-.9c-.07-.293-.09-.4-.11-.495.429.251.803.366 1.143.366.416 0 .62-.212.62-.64 0-.633-.36-1.409-.856-1.84M27.846 217.262c-.328 0-.674-.45-.844-1.11h.069c.631 0 1.107.335 1.107.769a.334.334 0 01-.333.34m-.7-1.36c-.047 0-.11 0-.197.007a1.796 1.796 0 01-.028-.33c0-.344.123-.53.362-.53.216 0 .49.116.89.369l.073-.232c-.504-.313-.883-.458-1.23-.458-.423 0-.654.254-.654.709 0 1.124.761 2.098 1.64 2.098.43 0 .681-.196.681-.537 0-.627-.664-1.096-1.537-1.096M31.414 216.656l-.224.02c.014.08.02.177.02.267 0 .123-.11.21-.278.21-.102 0-.205-.062-.293-.162-.26-.294-.363-.758-.512-1.513l-.13-.66a6.393 6.393 0 01-.591-.056c.068.26.116.464.169.696l.15.633c.1.429.152.696.152.838 0 .169-.043.246-.124.246a.639.639 0 01-.17-.036l-.171-.054-.02.204c.334.137.715.245.884.245.07 0 .11-.026.123-.093.022-.082.036-.18.04-.294.307.253.579.395.77.395.13 0 .295-.07.45-.183a4.023 4.023 0 01-.245-.703M33.722 217.12l-.564.012-.286-1.396c-.075-.36-.08-.461-.08-.517 0-.094.045-.15.133-.15.05 0 .151.027.315.076l.067.019.021-.2c-.354-.14-.723-.237-.918-.237-.145 0-.233.069-.233.2 0 .116.025.286.082.496.061.238.108.435.164.703l.21 1.006-.36-.006.047.218c.464.082.62.45.75.845l.326.069-.17-.805.564.008zM35.76 217.262c-.327 0-.674-.45-.843-1.11h.066c.634 0 1.11.335 1.11.769 0 .19-.15.34-.333.34m-.703-1.36c-.047 0-.108 0-.196.007a1.968 1.968 0 01-.025-.33c0-.344.119-.53.358-.53.217 0 .49.116.892.369l.076-.232c-.505-.313-.884-.458-1.233-.458-.423 0-.655.254-.655.709 0 1.124.763 2.098 1.642 2.098.43 0 .682-.196.682-.537 0-.627-.668-1.096-1.541-1.096m.758 2.057l-.218.177.829.939.615-.148zM48.81 218.358h-.197c.006.076.013.103.013.15 0 .376-.246.507-.924.507-.224 0-.445 0-.667-.022a25.32 25.32 0 01-.356-1.664h.253c.435 0 .62.008.775.035.251.047.402.197.478.471h.182a18.724 18.724 0 01-.258-1.322h-.184a.796.796 0 01.014.115c0 .293-.185.39-.744.39-.33 0-.453-.008-.578-.016-.034-.169 0-.019-.155-.805-.076-.379-.103-.619-.103-.74 0-.239.123-.3.58-.3.857 0 1.123.137 1.388.722l.171-.069c-.153-.448-.313-.808-.409-.925-.068-.074-.156-.096-.44-.096-.24 0-.485.006-.725.014-.313.008-.634.014-.946.014-.32 0-.636-.006-.955-.006l.027.142c.204.02.33.082.422.211.11.135.18.327.274.71.087.38.117.536.272 1.3l.11.537c.108.532.15.865.15 1.035 0 .3-.11.423-.402.458l.028.15h3.097a11.741 11.741 0 01-.19-.996m-1.294 1.452l-.219.177.832.94.62-.149zM50.978 214.517c-.234.088-.51.186-.799.267-.469-.117-.797-.463-.797-.86 0-.367.317-.613.805-.613.594 0 1.136.403 1.136.838 0 .164-.1.275-.345.368m-.104 2.759c-.367 0-.666-.388-.666-.852 0-.32.181-.537.45-.537.361 0 .653.374.653.838 0 .34-.17.55-.437.55m1.3-.15l-.462.007c.08-.141.11-.25.11-.407 0-.628-.525-1.111-1.204-1.111-.13 0-.229.013-.369.052-.17-.1-.225-.148-.225-.208 0-.076.073-.111.375-.204l.544-.17c.546-.171.81-.335.81-.73 0-.723-.714-1.288-1.629-1.288-.748 0-1.205.354-1.205.933 0 .532.34.785.9.928-.34.122-.415.177-.415.292 0 .15.197.335.606.558a.706.706 0 00-.31.622c0 .645.514 1.136 1.194 1.136.176 0 .31-.021.458-.074h.9zM41.018 215.996c.458 0 .825.37.825.828a.822.822 0 01-.825.825.827.827 0 010-1.653M17.217 211.725h84.95M17.217 211.564h84.951v.321H17.217z" fill="#1d1d1b"/></g><g clip-path="url(#b)" transform="matrix(1.33333 0 0 -1.33333 0 357.525)"><path d="M17.117 223.125c.131 7.08 0 14.094.197 21.175.065 2.534-.066 5.068-.066 7.6 1.754.325 3.508.13 5.262.066 11.234 0 22.406.064 33.64 0-.777-.39-1.688-.715-2.271-1.43-.52-.649-1.039-1.3-1.235-2.078-.845-.52-1.364-1.3-1.82-2.08-.584-1.104-1.428-2.078-1.297-3.31.129-1.04.39-2.015.584-3.12.065-.389.129-.715.258-1.104.133-.39 0-.844.197-1.169.13-.196.066-.456.322-.584v-.26c.067-.065.067-.13.2-.13v-.26c.518-.65 1.166-1.234 1.492-1.949.131-.39-.65-.195-.974-.065-.651.324-1.04.844-1.559 1.298 0 0-.065-.064-.065-.128.258-.454 1.233-1.04.714-1.365-.261-.13-.585.195-.846-.065-.063-.13 0-.26 0-.39-.387.26-.777.13-1.169.26-.257.065-.326.586-.648.586-.846.192-1.623.39-2.469.453-1.168.131-2.273.325-3.441.131-1.041-.064-1.819-.846-2.469-1.624v-.196c.454-.064.65.326 1.041.456.649.13 1.233.39 1.884.518.972.195 1.881.454 2.791.39.194 0 .456.064.648 0-1.169.064-2.206-.324-3.311-.649-.77-.226-1.559-.259-2.274-.65 1.69.065 3.379-.195 5-.714a7.461 7.461 0 001.625-.78c.262-.195.39-.39.65-.519.325-.194.781-.194 1.104-.066h.325c.974.261 2.013.52 2.662 1.235 0-.065.064-.065.131-.065-.194-.519-.194-1.104-.585-1.558 0-.066-.065-.196.064-.26h.13c-.064 0-.13 0-.13-.065 0-.13.197 0 .261-.13-.325-.065-.651-.132-.846-.39 0-.066.131-.066.195-.066-.131-.129-.323-.065-.387-.195 0 0 .064-.065.128-.065-.064 0-.128 0-.128-.064v-.195c-.197 0-.263-.13-.392-.197.262-.192.456 0 .715 0-.715-.256-1.299-.648-2.012-.843-.131 0 0-.195-.131-.195.196-.13.325.066.518.066-.906-.52-1.817-.973-2.791-1.56 0 0-.129-.128-.129-.259h-.261c-.131-.064-.065-.26-.194-.389.324-.196.713.258.91 0 .064 0-.131-.065-.262-.065-.064 0-.064-.13-.131-.13h-.193c-.13-.13-.261-.197-.261-.39-.128 0-.256 0-.323-.129 1.428.193 2.922.064 4.287.778a10.005 10.005 0 012.858 2.144s.063-.066.063-.13c-.192-.649-.585-1.105-1.104-1.494-.39-.195-.649-.52-.975-.649-.192-.13-.389-.26-.584-.39-2.402-.845-5.26-.455-7.338-2.08 0 .065-.066.065-.131.065-.129-.129-.324-.194-.388-.324 0-.129.196-.065.259-.065.391.26.778.455 1.234.583-.521-.259-1.04-.647-1.559-.777-1.104-.194-2.142-.13-3.247 0 .651.39 1.299.843 2.012 1.233-.193.13-.387.13-.582.13-.325-.066-.715.13-1.041 0-.974-.453-2.273-.324-2.791-1.363" fill="#164193"/><path d="M39.07 230.986c-.199-.051-.39-.197-.323-.325.192-.262.582.064.907.064-.39-.131-.844-.064-1.169-.39.262-.195.521-.064.78-.064 0-.131.13-.131.194-.197-.323-.13-.582-.387-.649-.585-.13-.323-.455-.453-.65-.714v-.193c-.649-.586-1.363-.974-1.883-1.69.065 0 .065-.065.065-.13-.13-.194-.389-.258-.454-.455 0-.065 0-.13.065-.13.78.26 1.363.847 2.078 1.104.518.132.908.456 1.364.584.325.066.713.197 1.038.26 0-.063 0-.13.067-.13h.518c-.065-.13-.323-.064-.259-.13.194-.192.584-.128.843 0 .196.13.39.13.652.13.063 0 .063.13.063.196.194-.065.325-.065.52-.065 1.56.325 3.053.649 4.483 1.363-1.689 1.3-3.834 1.756-5.846 2.34.195 0 .387-.194.584 0-.324.26-.715.129-1.04.324.064 0 .195-.064.261.066-.52.259-1.04.259-1.559.39.324.064.52.325.52.648 0 .066-.132.066-.196.066-.78-.39-1.297-1.104-1.622-1.95.455-.26.973-.064 1.427-.128-.195-.195-.52-.195-.779-.26M36.407 233.518c-.663-.702-1.364-1.365-2.208-1.818a20.1 20.1 0 00-2.078-3.313c0-.066.064-.13.064-.13 1.559 1.753 2.989 3.247 5.001 4.482.13.065-.193-.195.066-.13.843.195 1.103 1.038 1.495 1.689.517.845 1.428 1.168 2.076 1.884 0-.065 0-.131-.063-.195.063-.066.129-.066.193-.066.26.196.586.13.781.39-.521.193-1.17.26-1.69.064-1.364-.65-2.533-1.689-3.637-2.858" fill="#fff"/><path d="M37.383 232.283c.057.117.129.13.193.26 0 .066 0 .13-.064.13-.26-.064-.453-.326-.52-.584 0-.064.067-.064.13-.064.13.064.195.128.26.258M42.579 227.347c-.262-.131-.718-.131-.781-.454-.064-.13.194-.066.325-.066.456.197.976 0 1.363.389-.131.13-.323.065-.453.259-.131.067-.326-.062-.454-.128" fill="#fff"/><path d="M49.656 223.838c.4.09.78.326 1.168.456v-.13c.975.39 1.687 1.235 2.664 1.558.064 0 .194-.129.326-.065.584.521 1.232 1.105 2.076.974 0-.064 0-.128.066-.128.065 0 .13 0 .13.064l-.78-.584c-.064-.066 0-.13.067-.13.324.13.517.39.842.52-.065-.067-.065-.195-.129-.26-1.233-.912-2.143-1.949-3.119-3.054h-2.012c0 .066 0 .13-.067.13-2.27-.194-4.478-.13-6.752-.13 1.297.196 2.598.584 3.897.715.52 0 1.04-.066 1.623.064" fill="#004f93"/><path d="M75.246 227.152c.155.469.326.974.062 1.43-.388.584.392.777.65 1.169.197.323-.127.52-.193.843-.065.13-.326.067-.457.262.457.194 1.171.584.847 1.169-.198.322-.518.843-.13 1.168.454.259 1.17.195 1.363.65.326.78-.39 1.429-.776 2.078-.199.39-.457.65-.72 1.04-.255.455-.584.845-.709 1.363-.196.52.063.974.063 1.494.062.975-.194 1.948-.455 2.925-.192.453-.26.973-.457 1.428-.064.26-.128.52-.322.778a.574.574 0 000 .456c.258.195.518.39.78.649.195.325.065.78-.262.976-.453.193-.388-.456-.713-.584h-.196c-.063.193.064.259.196.389 0 .065 0 .195-.065.195-.259 0-.52.064-.584.193-.65.91-1.56 1.366-2.535 1.755.264-.064.52-.131.781-.131.456-.064.975-.064 1.362.13.326.13.392.65.521.975.13.259-.065.65-.195.846-.326.518-.845.843-1.364 1.102h30.783c.065-9.611-.064-19.227-.129-28.841-12.146-.195-24.29 0-36.434 0 .39 1.3 1.105 2.534 2.274 3.378.258.13.584.195.91.26 1.103 0 2.207-.324 3.311-.455.13 0 .26-.064.392-.128.387-.066.84-.066 1.232.064.453.129.975.39 1.17.974" fill="#e20613"/><path d="M72.777 239.949c-.382.095-.714 0-1.104 0-.52-.131-.974-.195-1.427-.39.387.259.778.518 1.234.649.325.066.648.26.974.26.39.065.779.196 1.104.065.322-.13.843-.13.909-.325.132-.39-.196-.78-.587-1.038-.062-.131.198-.195.198-.325-.066-.13-.26-.195-.392-.195-.128-.065-.26-.26-.388-.39.129 0 0-.195.129-.195-.258-.325.13-.973-.258-1.104a2.894 2.894 0 00-1.496 0c.262.064.584-.065.78.195v.26c0 .064-.064.064-.126.064-.07-.064-.133-.064-.133-.064 0 .13-.131.26-.196.26-.39-.066-.711.13-.974.389.194.065.39.13.584.065.197 0 .13.325.327.455h.193c.39.52 1.17.649 1.299 1.169 0 .13-.388.13-.65.195" fill="#9c9b9b"/></g><g clip-path="url(#c)" transform="matrix(1.33333 0 0 -1.33333 0 357.525)"><path d="M.465 188.054H119.52M.5 112.757h119.055" fill="none" stroke="#1d1d1b"/><path d="M35.487 166.017l-2.814 6.128v-4.866c0-.448.048-.727.145-.838.132-.15.341-.225.628-.225h.258v-.2H31.17v.2h.257c.31 0 .527.093.656.279.078.115.118.376.118.784v4.759c0 .322-.036.555-.108.698a.59.59 0 01-.276.26c-.135.07-.35.105-.647.105v.199h2.062l2.643-5.7 2.6 5.7h2.062v-.2h-.253c-.31 0-.53-.092-.66-.278-.079-.115-.118-.376-.118-.784v-4.76c0-.447.05-.726.15-.837.132-.15.342-.225.628-.225h.253v-.2h-3.094v.2h.258c.311 0 .53.093.655.279.08.115.118.376.118.784v4.866l-2.809-6.128zM44.106 166.215v-.199h-3.12v.2h.257c.301 0 .52.087.655.262.086.115.13.39.13.827v4.705c0 .37-.024.613-.07.731a.492.492 0 01-.22.231 1.015 1.015 0 01-.495.13h-.258v.197h3.121v-.198h-.263c-.298 0-.514-.088-.65-.263-.089-.115-.134-.39-.134-.828v-4.705c0-.368.023-.612.07-.73a.481.481 0 01.225-.23.988.988 0 01.49-.13zM44.175 173.3h1.977l4.452-5.462v4.2c0 .448-.05.727-.15.838-.133.15-.342.225-.629.225h-.252v.199h2.535v-.2h-.258c-.308 0-.526-.092-.655-.278-.079-.115-.118-.376-.118-.784v-6.14h-.194l-4.8 5.866v-4.485c0-.448.047-.727.144-.838.136-.15.345-.225.628-.225h.258v-.2h-2.535v.2h.252c.312 0 .532.093.661.279.08.115.118.376.118.784v5.065c-.21.247-.372.41-.48.489-.11.078-.27.152-.48.22a1.729 1.729 0 01-.474.048zM55.603 166.215v-.199h-3.12v.2h.257c.301 0 .52.087.655.262.086.115.13.39.13.827v4.705c0 .37-.024.613-.07.731a.492.492 0 01-.22.231 1.015 1.015 0 01-.495.13h-.258v.197h3.121v-.198h-.263c-.298 0-.514-.088-.65-.263-.089-.115-.134-.39-.134-.828v-4.705c0-.368.023-.612.07-.73a.481.481 0 01.225-.23.988.988 0 01.49-.13zM60.86 173.466v-2.519h-.198c-.065.483-.18.868-.347 1.155a1.804 1.804 0 01-.711.682 1.973 1.973 0 01-.956.252c-.373 0-.681-.113-.924-.34-.244-.228-.365-.487-.365-.777a.92.92 0 01.23-.607c.223-.268.75-.626 1.585-1.074.68-.365 1.145-.646 1.394-.84a2.04 2.04 0 00.574-.69c.135-.266.202-.543.202-.833 0-.552-.213-1.027-.642-1.426-.428-.4-.978-.599-1.652-.599-.211 0-.41.016-.596.048a6.052 6.052 0 00-.69.196c-.35.113-.57.17-.663.17a.283.283 0 01-.213-.08c-.051-.055-.09-.166-.115-.334h-.2v2.497h.2c.093-.523.218-.914.376-1.173.158-.26.399-.476.723-.647a2.234 2.234 0 011.066-.258c.447 0 .8.118 1.06.354.26.237.39.516.39.838 0 .18-.05.36-.148.543a1.629 1.629 0 01-.46.51c-.14.107-.52.335-1.143.685-.623.35-1.066.627-1.33.835a2.263 2.263 0 00-.598.687 1.699 1.699 0 00-.204.828c0 .522.2.973.6 1.35.402.378.912.567 1.532.567.387 0 .797-.095 1.23-.285.2-.089.342-.134.425-.134.092 0 .169.028.227.084.06.055.108.167.143.335zM68.244 173.3l.081-1.708h-.204c-.04.3-.094.516-.16.645-.113.207-.26.36-.445.459-.184.098-.426.147-.727.147h-1.026v-5.564c0-.448.048-.727.145-.838.136-.15.346-.225.628-.225h.253v-.2H63.7v.2h.258c.308 0 .526.093.655.279.08.115.118.376.118.784v5.564h-.875c-.34 0-.582-.024-.725-.075a.99.99 0 01-.478-.392c-.133-.193-.212-.454-.236-.784h-.204l.086 1.708zM70.725 175.668h1.197l.57-1.853h-.188zm.118-2.766v-2.879h1.6c.416 0 .693.062.833.188.186.165.29.455.31.87h.2v-2.535h-.2c-.048.354-.098.582-.15.682a.67.67 0 01-.315.295c-.148.072-.374.108-.677.108h-1.601v-2.4c0-.323.014-.52.043-.589a.333.333 0 01.15-.167c.072-.04.208-.06.409-.06h1.235c.41 0 .71.027.897.085.186.057.365.17.537.338.222.222.449.557.682 1.004h.215l-.63-1.826H68.77v.2h.258c.172 0 .335.04.488.122a.455.455 0 01.234.258c.04.115.062.35.062.704v4.732c0 .462-.047.746-.14.854-.13.143-.343.215-.644.215h-.258v.198h5.612l.08-1.595h-.21c-.074.383-.157.647-.248.79a.852.852 0 01-.406.327c-.143.054-.395.081-.757.081zM77.47 169.76a8.717 8.717 0 00.301-.005c.694 0 1.218.15 1.57.451.354.301.529.684.529 1.15 0 .454-.142.823-.426 1.11-.286.283-.662.425-1.131.425-.207 0-.489-.034-.843-.102zm5.172-3.744h-1.944l-2.465 3.406a10.364 10.364 0 00-.597-.008 3.228 3.228 0 00-.166.008v-2.117c0-.458.05-.743.15-.854.136-.157.34-.236.613-.236h.284v-.199h-3.12v.2h.273c.309 0 .529.1.661.3.076.111.113.374.113.79v4.704c0 .46-.05.744-.151.854-.139.158-.346.237-.623.237h-.273v.2h2.653c.774 0 1.344-.058 1.71-.17.367-.114.679-.32.935-.623s.384-.664.384-1.083c0-.448-.146-.836-.438-1.165-.291-.33-.743-.562-1.356-.699l1.504-2.089c.344-.48.639-.798.886-.956.247-.158.569-.258.967-.3zM84.79 172.902v-2.879h1.6c.415 0 .692.063.832.188.186.165.29.455.311.87h.2v-2.535h-.2c-.05.355-.099.582-.15.682a.674.674 0 01-.317.296c-.147.071-.373.107-.676.107h-1.6v-2.4c0-.323.013-.519.042-.589a.336.336 0 01.15-.167c.072-.04.207-.06.41-.06h1.234c.411 0 .711.028.896.085.187.057.366.17.538.338.222.222.45.557.682 1.004h.215l-.629-1.826h-5.612v.2h.258c.171 0 .335.04.488.123a.453.453 0 01.234.257c.041.115.062.35.062.704v4.732c0 .462-.047.746-.14.854-.129.143-.344.215-.644.215h-.258v.198h5.612l.081-1.595h-.21c-.075.384-.158.647-.249.79a.857.857 0 01-.406.327c-.143.054-.396.081-.757.081zM12.769 153.943a5.5 5.5 0 011.144-.15c.83 0 1.52.292 2.068.875.548.584.822 1.375.822 2.374 0 1.006-.274 1.799-.822 2.38-.548.58-1.252.87-2.111.87-.322 0-.69-.052-1.101-.156zm-2.08-.526v.198h.275c.308 0 .527.099.656.296.078.118.118.383.118.795v4.705c0 .454-.051.739-.151.854-.14.157-.347.236-.623.236h-.274v.199h2.965c1.089 0 1.917-.124 2.484-.371.568-.247 1.025-.658 1.37-1.235.345-.577.518-1.243.518-1.998 0-1.013-.308-1.861-.924-2.541-.69-.76-1.743-1.138-3.158-1.138zM20.69 160.302v-2.879h1.6c.416 0 .693.063.833.188.186.165.29.455.312.87h.198v-2.535h-.198c-.051.355-.1.582-.151.682a.67.67 0 01-.317.296c-.147.071-.372.107-.676.107H20.69v-2.4c0-.323.014-.519.043-.589a.345.345 0 01.15-.167c.072-.04.208-.06.409-.06h1.235c.412 0 .71.028.897.085.186.057.365.17.537.338.222.222.449.557.682 1.004h.215l-.628-1.826h-5.613v.2h.258c.17 0 .335.04.488.123a.45.45 0 01.234.257c.04.115.062.35.062.704v4.732c0 .462-.047.746-.14.854-.13.143-.344.215-.644.215h-.258v.198h5.613l.08-1.595h-.21c-.075.384-.158.647-.25.79a.857.857 0 01-.405.327c-.143.054-.395.081-.757.081zM34.056 155.43l.177-.037-.623-1.976h-5.639v.199h.273c.309 0 .529.1.661.3.075.115.113.38.113.795v4.7c0 .455-.05.739-.15.854-.14.158-.348.236-.624.236h-.273v.199h3.297v-.2c-.386.005-.657-.031-.814-.106a.655.655 0 01-.319-.285c-.057-.115-.086-.388-.086-.822v-4.576c0-.297.029-.501.086-.612a.385.385 0 01.199-.167c.089-.035.368-.053.838-.053h.531c.559 0 .951.04 1.177.123.225.083.431.228.617.438.186.209.373.54.559.99M39.297 156.252l-1.235 2.943-1.268-2.943zm.15-.397h-2.82l-.494-1.15c-.121-.283-.182-.494-.182-.634 0-.11.053-.208.158-.293.106-.084.334-.138.685-.163v-.199H34.5v.2c.304.053.5.122.59.208.183.172.385.521.607 1.048l2.562 5.994h.188l2.536-6.059c.204-.487.389-.803.556-.948.166-.145.398-.226.695-.244v-.199H39.36v.2c.29.013.486.061.589.144a.376.376 0 01.153.301c0 .157-.072.406-.215.746zM50.557 160.7l.081-1.708h-.205c-.039.3-.093.516-.16.645a1.08 1.08 0 01-.444.459c-.184.098-.427.147-.728.147h-1.025v-5.564c0-.448.048-.727.145-.838.136-.15.345-.225.628-.225h.252v-.2h-3.088v.2h.258c.308 0 .526.093.655.279.08.115.118.376.118.784v5.564h-.875c-.34 0-.582-.024-.725-.075a.99.99 0 01-.478-.392c-.133-.193-.212-.454-.237-.784h-.204l.086 1.708zM53.118 157.16a8.63 8.63 0 00.301-.005c.696 0 1.219.15 1.572.451.352.301.528.684.528 1.15 0 .454-.142.823-.426 1.11-.286.283-.663.425-1.132.425-.206 0-.488-.034-.842-.102zm5.172-3.744h-1.944l-2.465 3.406a10.36 10.36 0 00-.596-.008c-.054.001-.11.004-.167.008v-2.117c0-.458.05-.743.15-.854.137-.157.341-.236.613-.236h.284v-.199h-3.12v.2h.274c.308 0 .528.1.66.3.076.111.113.374.113.79v4.704c0 .46-.05.744-.15.854-.14.158-.347.237-.623.237h-.274v.2h2.653c.774 0 1.344-.058 1.711-.17.367-.114.678-.32.934-.623s.384-.664.384-1.083c0-.448-.146-.836-.438-1.165-.29-.33-.743-.562-1.356-.699l1.504-2.089c.344-.48.64-.798.887-.956.247-.158.57-.258.966-.3z" fill="#1d1d1b"/><path d="M63.022 156.252l-1.235 2.943-1.268-2.943zm.15-.397h-2.82l-.494-1.15c-.122-.283-.183-.494-.183-.634 0-.11.053-.208.159-.293.105-.084.334-.138.685-.163v-.199h-2.294v.2c.304.053.502.122.59.208.184.172.386.521.608 1.048l2.562 5.994h.188l2.536-6.059c.204-.487.388-.803.555-.948.166-.145.399-.226.696-.244v-.199h-2.874v.2c.29.013.486.061.588.144a.374.374 0 01.154.301c0 .157-.073.406-.215.746zM65.883 160.7h1.977l4.452-5.462v4.2c0 .448-.05.727-.15.838-.133.15-.342.225-.629.225h-.253v.199h2.536v-.2h-.258c-.308 0-.527-.092-.655-.278-.079-.115-.119-.376-.119-.784v-6.14h-.193l-4.802 5.866v-4.485c0-.448.05-.727.146-.838.136-.15.345-.225.628-.225h.258v-.2h-2.536v.2h.253c.312 0 .532.093.66.279.08.115.12.376.12.784v5.065c-.212.247-.373.41-.482.489a1.783 1.783 0 01-.48.22 1.734 1.734 0 01-.473.048zM78.96 160.866v-2.519h-.198c-.065.483-.18.868-.347 1.155a1.8 1.8 0 01-.712.682 1.967 1.967 0 01-.956.252c-.372 0-.68-.113-.924-.34-.243-.228-.365-.487-.365-.777a.92.92 0 01.231-.607c.222-.268.75-.626 1.584-1.074.681-.365 1.146-.646 1.395-.84.248-.196.44-.426.574-.69.135-.266.201-.543.201-.833 0-.552-.213-1.027-.64-1.426-.429-.4-.98-.599-1.653-.599-.21 0-.41.016-.596.048a6.052 6.052 0 00-.69.196c-.349.113-.57.17-.664.17a.28.28 0 01-.212-.08c-.05-.055-.09-.166-.115-.334h-.199v2.497h.2c.092-.523.217-.914.375-1.173.157-.26.398-.476.723-.647a2.23 2.23 0 011.065-.258c.448 0 .802.118 1.062.354.258.237.388.516.388.838 0 .18-.048.36-.147.543a1.641 1.641 0 01-.459.51c-.14.107-.522.335-1.145.685-.623.35-1.065.627-1.329.835a2.249 2.249 0 00-.598.687 1.699 1.699 0 00-.204.828c0 .522.2.973.601 1.35.4.378.911.567 1.53.567.387 0 .797-.095 1.231-.285.2-.089.342-.134.424-.134.093 0 .17.028.228.084.06.055.107.167.143.335zM83.374 153.615v-.199h-3.12v.2h.257c.3 0 .52.087.655.262.086.115.13.39.13.827v4.705c0 .37-.025.613-.07.731a.496.496 0 01-.22.231 1.015 1.015 0 01-.495.13h-.258v.197h3.121v-.198h-.264c-.297 0-.513-.088-.649-.263-.09-.115-.135-.39-.135-.828v-4.705c0-.368.024-.612.07-.73a.481.481 0 01.226-.23.982.982 0 01.488-.13zM89.953 160.7l.08-1.708h-.205c-.038.3-.092.516-.16.645-.112.207-.26.36-.445.459-.182.098-.425.147-.726.147H87.47v-5.564c0-.448.047-.727.144-.838.138-.15.347-.225.63-.225h.251v-.2H85.41v.2h.257c.308 0 .527.093.656.279.077.115.117.376.117.784v5.564h-.875c-.34 0-.583-.024-.725-.075a.992.992 0 01-.479-.392c-.132-.193-.21-.454-.236-.784h-.204l.086 1.708zM93.647 153.615v-.199h-3.121v.2h.258c.3 0 .519.087.655.262.086.115.129.39.129.827v4.705c0 .37-.024.613-.07.731a.496.496 0 01-.22.231 1.015 1.015 0 01-.494.13h-.258v.197h3.12v-.198h-.263c-.297 0-.513-.088-.65-.263-.09-.115-.134-.39-.134-.828v-4.705c0-.368.024-.612.07-.73a.481.481 0 01.226-.23.982.982 0 01.488-.13zM97.78 160.474c-.65 0-1.174-.242-1.567-.725-.491-.602-.736-1.483-.736-2.643 0-1.189.254-2.103.762-2.744.39-.487.906-.73 1.547-.73.684 0 1.249.266 1.695.8.446.533.668 1.375.668 2.524 0 1.246-.245 2.175-.735 2.788-.394.486-.94.73-1.633.73m.103.392c.945 0 1.763-.359 2.457-1.077.692-.718 1.039-1.614 1.039-2.688 0-1.106-.35-2.025-1.047-2.755-.7-.73-1.544-1.096-2.535-1.096-1.003 0-1.846.356-2.528 1.07-.682.711-1.023 1.633-1.023 2.765 0 1.157.394 2.1 1.18 2.83.685.634 1.503.951 2.457.951M101.604 160.7h1.977l4.452-5.462v4.2c0 .448-.05.727-.151.838-.132.15-.341.225-.628.225H107v.199h2.536v-.2h-.258c-.308 0-.527-.092-.655-.278-.08-.115-.12-.376-.12-.784v-6.14h-.192l-4.802 5.866v-4.485c0-.448.049-.727.145-.838.137-.15.345-.225.629-.225h.258v-.2h-2.536v.2h.252c.313 0 .533.093.66.279.08.115.12.376.12.784v5.065c-.211.247-.372.41-.481.489a1.783 1.783 0 01-.48.22 1.734 1.734 0 01-.473.048zM29.488 150.468l-1.584-1.853h-.183l.564 1.853zm-2.283-2.766v-2.879h1.601c.415 0 .693.062.832.188.186.165.29.455.312.87h.2v-2.535h-.2c-.05.355-.1.582-.15.682a.674.674 0 01-.317.296c-.147.071-.373.107-.677.107h-1.6v-2.4c0-.323.013-.52.042-.589a.343.343 0 01.151-.167c.071-.04.207-.06.408-.06h1.235c.412 0 .711.028.897.085.186.057.365.17.537.338.222.222.45.557.682 1.004h.215l-.628-1.826h-5.613v.2h.258c.172 0 .335.04.49.122a.462.462 0 01.233.258c.041.115.061.35.061.704v4.732c0 .462-.046.746-.14.854-.129.143-.343.215-.644.215h-.258v.198h5.613l.08-1.595h-.209c-.075.383-.159.647-.25.79a.854.854 0 01-.405.327c-.143.054-.396.081-.758.081zM38.193 148.266l.167-2.476h-.167c-.222.741-.539 1.275-.95 1.601-.412.325-.906.488-1.483.488-.484 0-.92-.122-1.31-.367-.39-.246-.698-.637-.922-1.174-.224-.537-.335-1.205-.335-2.003 0-.659.105-1.23.316-1.714.212-.483.53-.854.954-1.11a2.738 2.738 0 011.453-.388c.472 0 .89.101 1.251.303.362.203.76.604 1.193 1.206l.166-.108c-.365-.647-.79-1.122-1.278-1.423-.487-.3-1.066-.45-1.735-.45-1.207 0-2.14.447-2.804 1.342-.494.666-.74 1.45-.74 2.353 0 .726.162 1.394.488 2.003.325.608.774 1.08 1.345 1.415a3.633 3.633 0 001.872.502c.526 0 1.045-.129 1.558-.387.15-.078.257-.118.322-.118.097 0 .181.034.252.102a.836.836 0 01.2.403zM42.774 147.874c-.652 0-1.174-.242-1.568-.725-.491-.602-.736-1.482-.736-2.642 0-1.19.254-2.104.762-2.745.39-.487.906-.731 1.547-.731.684 0 1.249.267 1.695.801.446.533.669 1.375.669 2.524 0 1.247-.245 2.175-.736 2.788-.394.486-.938.73-1.633.73m.102.392c.945 0 1.764-.359 2.458-1.077.692-.718 1.039-1.614 1.039-2.688 0-1.106-.35-2.024-1.048-2.755-.698-.73-1.543-1.096-2.535-1.096-1.002 0-1.845.357-2.527 1.069-.682.713-1.023 1.634-1.023 2.766 0 1.157.394 2.1 1.18 2.83.686.634 1.503.951 2.456.951M53.047 142.831l.177-.038-.623-1.977h-5.639v.2h.273c.31 0 .53.099.661.3.075.115.113.379.113.795v4.699c0 .455-.05.74-.15.854-.14.158-.348.237-.624.237h-.273v.199h3.297v-.199c-.386.003-.657-.032-.814-.108a.658.658 0 01-.319-.284c-.057-.115-.086-.389-.086-.822v-4.576c0-.298.03-.502.086-.612a.385.385 0 01.2-.167c.088-.035.367-.054.837-.054h.531c.56 0 .951.041 1.177.124.225.082.431.228.617.438.186.209.373.54.56.991M57.327 147.874c-.652 0-1.174-.242-1.568-.725-.491-.602-.736-1.482-.736-2.642 0-1.19.254-2.104.762-2.745.39-.487.906-.731 1.547-.731.684 0 1.249.267 1.695.801.446.533.669 1.375.669 2.524 0 1.247-.245 2.175-.736 2.788-.394.486-.938.73-1.633.73m.102.392c.944 0 1.763-.359 2.457-1.077.692-.718 1.04-1.614 1.04-2.688 0-1.106-.35-2.024-1.049-2.755-.698-.73-1.543-1.096-2.535-1.096-1.001 0-1.844.357-2.526 1.069-.683.713-1.024 1.634-1.024 2.766 0 1.157.394 2.1 1.181 2.83.685.634 1.502.951 2.455.951M68.046 148.266l.188-2.299h-.188c-.189.573-.435 1.005-.735 1.295-.434.42-.99.628-1.67.628-.928 0-1.634-.367-2.117-1.1-.405-.62-.607-1.357-.607-2.214 0-.694.134-1.328.402-1.9.27-.574.622-.993 1.056-1.26a2.532 2.532 0 011.34-.4c.268 0 .528.034.78.101.25.068.491.17.724.301v2.105c0 .366-.027.605-.083.717a.566.566 0 01-.258.258c-.116.06-.32.09-.615.09v.203h2.82v-.204h-.135c-.279 0-.47-.093-.574-.279-.072-.132-.107-.394-.107-.785v-2.228a5.429 5.429 0 00-1.22-.489 5.322 5.322 0 00-1.337-.156c-1.407 0-2.476.451-3.207 1.354a3.613 3.613 0 00-.82 2.342 3.9 3.9 0 00.461 1.841c.365.7.866 1.236 1.504 1.612.533.311 1.163.467 1.89.467.265 0 .506-.02.723-.064.216-.043.523-.138.921-.285.2-.075.335-.113.402-.113.068 0 .127.031.175.094.05.063.078.185.09.368zM72.578 141.016v-.2h-3.12v.2h.257c.3 0 .52.088.655.263.086.115.13.39.13.827v4.705c0 .369-.025.612-.07.73a.488.488 0 01-.22.23 1.015 1.015 0 01-.495.13h-.258v.199h3.121v-.2h-.264c-.297 0-.513-.087-.649-.262-.09-.115-.135-.39-.135-.827v-4.705c0-.368.024-.612.07-.731a.484.484 0 01.226-.23.982.982 0 01.488-.13zM76.735 147.852c-.652 0-1.177-.233-1.574-.698-.501-.584-.752-1.477-.752-2.68 0-1.179.255-2.086.763-2.724.394-.49.915-.735 1.563-.735.673 0 1.216.245 1.627.735.483.581.726 1.437.726 2.568 0 .87-.133 1.602-.398 2.197-.204.459-.476.796-.813 1.013-.34.217-.72.325-1.142.325m.902-7.117c.366-.63.76-1.094 1.185-1.392a2.87 2.87 0 011.447-.51v-.17a5.892 5.892 0 00-1.585.297 6.912 6.912 0 00-1.597.751 7.75 7.75 0 00-1.303 1.025c-.516.207-.924.428-1.225.66a3.603 3.603 0 00-1.017 1.28c-.242.508-.363 1.107-.363 1.798 0 1.088.353 1.992 1.058 2.712.706.72 1.56 1.08 2.562 1.08.953 0 1.777-.361 2.474-1.083.696-.721 1.044-1.632 1.044-2.73 0-.892-.248-1.674-.743-2.348a3.657 3.657 0 00-1.937-1.37M85.928 147.9v.2h2.578v-.2h-.273a.74.74 0 01-.661-.36c-.076-.11-.113-.368-.113-.772v-2.954c0-.731-.072-1.297-.218-1.701-.144-.402-.429-.748-.853-1.036-.425-.288-1.002-.432-1.732-.432-.795 0-1.399.137-1.811.414a2.24 2.24 0 00-.875 1.11c-.115.32-.172.918-.172 1.795v2.847c0 .447-.061.74-.185.88-.123.14-.324.21-.599.21h-.274v.199h3.147v-.2h-.279c-.301 0-.516-.094-.645-.284-.089-.13-.134-.397-.134-.805v-3.174c0-.283.026-.608.078-.973.052-.365.146-.65.282-.853.136-.204.332-.373.589-.505.255-.133.569-.2.942-.2.476 0 .902.105 1.278.312.376.208.633.474.771.798.138.324.207.873.207 1.646v2.949c0 .454-.051.739-.151.854-.139.157-.347.236-.623.236zM90.868 147.702v-2.879h1.602c.414 0 .691.063.831.19.186.163.29.453.311.868h.2v-2.534h-.2c-.05.354-.098.582-.15.681a.674.674 0 01-.317.296c-.146.071-.372.107-.675.107h-1.602v-2.4c0-.323.015-.519.044-.589a.336.336 0 01.15-.167c.072-.04.207-.06.409-.06h1.235c.41 0 .71.028.896.085.187.057.366.17.538.34.222.22.449.555.68 1.002h.216l-.628-1.826h-5.612v.2h.258c.17 0 .335.04.488.123a.453.453 0 01.234.257c.04.116.062.35.062.704v4.732c0 .462-.047.746-.14.854-.13.143-.344.215-.644.215h-.259v.198h5.613l.08-1.595h-.21c-.074.384-.157.647-.248.79a.857.857 0 01-.406.327c-.143.054-.396.081-.757.081zM25.678 135.102v-2.879h1.601c.415 0 .692.063.832.19.186.163.29.453.312.87h.199v-2.535h-.198c-.051.354-.1.582-.151.68a.67.67 0 01-.317.297c-.147.07-.372.107-.676.107h-1.602v-2.401c0-.323.014-.519.043-.589a.345.345 0 01.15-.167c.072-.04.208-.06.41-.06h1.234c.412 0 .711.028.897.085.186.058.365.17.537.34.222.22.45.556.682 1.003h.215l-.628-1.827h-5.613v.2h.258c.171 0 .335.04.488.124a.45.45 0 01.234.257c.041.116.062.35.062.704v4.732c0 .462-.047.747-.14.854-.129.143-.344.215-.644.215h-.258v.198h5.613l.08-1.594h-.209c-.076.383-.159.646-.25.789a.858.858 0 01-.406.328c-.143.054-.395.08-.757.08zM36.408 135.5l.081-1.708h-.204c-.04.301-.093.516-.161.645a1.07 1.07 0 01-.444.459c-.183.098-.426.148-.727.148h-1.026v-5.565c0-.448.049-.727.146-.837.136-.151.345-.226.628-.226h.252v-.199h-3.088v.199h.258c.308 0 .526.093.655.279.079.115.118.376.118.784v5.565h-.875c-.341 0-.582-.025-.725-.075a.998.998 0 01-.478-.393c-.133-.193-.212-.454-.237-.784h-.204l.086 1.708zM44.248 135.667v-2.52h-.2c-.063.484-.178.869-.345 1.156a1.798 1.798 0 01-.712.681 1.96 1.96 0 01-.956.253c-.372 0-.68-.114-.924-.341-.243-.227-.365-.486-.365-.776 0-.223.077-.425.23-.607.223-.269.75-.626 1.585-1.075.68-.365 1.145-.645 1.395-.84.248-.195.44-.425.574-.69.135-.265.2-.543.2-.833 0-.551-.212-1.026-.641-1.426-.427-.399-.978-.598-1.651-.598-.211 0-.41.015-.596.048a5.993 5.993 0 00-.69.196c-.35.112-.571.169-.664.169a.28.28 0 01-.212-.08c-.052-.054-.09-.165-.115-.333h-.2v2.497h.2c.093-.523.218-.914.376-1.174.157-.259.398-.475.722-.646a2.237 2.237 0 011.066-.258c.448 0 .8.118 1.06.354.26.237.39.516.39.838 0 .179-.05.359-.148.542a1.609 1.609 0 01-.46.511c-.138.107-.52.335-1.143.684-.623.349-1.066.628-1.33.835a2.268 2.268 0 00-.598.688 1.706 1.706 0 00-.204.827c0 .523.2.974.602 1.351.4.378.91.567 1.53.567.387 0 .797-.095 1.23-.285.2-.089.342-.134.425-.134.093 0 .169.027.228.083.059.056.107.167.142.336zM49.188 135.274c-.652 0-1.174-.24-1.568-.725-.491-.6-.736-1.482-.736-2.642 0-1.19.254-2.104.762-2.745.39-.487.906-.73 1.547-.73.684 0 1.249.266 1.695.8.446.533.669 1.375.669 2.524 0 1.247-.245 2.175-.736 2.788-.394.487-.938.73-1.633.73m.102.393c.945 0 1.764-.36 2.458-1.078.692-.717 1.039-1.614 1.039-2.688 0-1.106-.35-2.024-1.048-2.755-.698-.73-1.543-1.096-2.535-1.096-1.002 0-1.845.357-2.527 1.07-.682.712-1.023 1.633-1.023 2.765 0 1.157.394 2.1 1.18 2.83.686.634 1.503.952 2.456.952M59.462 130.231l.177-.038-.623-1.977h-5.64v.2h.274c.309 0 .529.1.66.3.076.115.114.38.114.795v4.7c0 .455-.05.74-.15.854-.14.157-.348.236-.624.236h-.273v.2h3.297v-.2c-.386.003-.657-.032-.814-.107a.655.655 0 01-.32-.285c-.056-.115-.085-.389-.085-.822v-4.576c0-.298.029-.502.086-.612a.385.385 0 01.199-.167c.089-.035.368-.054.838-.054h.53c.56 0 .952.041 1.178.124.225.082.43.228.617.438.186.21.373.54.559.991M63.215 128.416v-.199h-3.12v.199h.257c.3 0 .52.088.655.263.086.115.13.39.13.827v4.705c0 .369-.025.612-.07.73a.494.494 0 01-.22.232 1.015 1.015 0 01-.495.129h-.258v.198h3.121v-.198h-.264c-.297 0-.513-.088-.649-.264-.09-.114-.135-.39-.135-.827v-4.705c0-.368.024-.612.07-.731a.484.484 0 01.226-.23.982.982 0 01.488-.129zM65.696 128.743c.454-.1.836-.15 1.144-.15.83 0 1.52.292 2.068.876.548.583.82 1.375.82 2.374 0 1.005-.272 1.798-.82 2.38-.548.58-1.252.87-2.111.87-.323 0-.69-.053-1.101-.157zm-2.08-.526v.2h.275c.308 0 .527.097.656.294.078.118.118.384.118.795v4.705c0 .455-.051.74-.151.854-.14.157-.347.237-.623.237h-.274v.198h2.965c1.089 0 1.917-.123 2.484-.37.568-.247 1.025-.659 1.37-1.236.345-.577.518-1.243.518-1.998 0-1.013-.308-1.86-.924-2.54-.69-.759-1.743-1.139-3.158-1.139zM76.2 131.053l-1.236 2.943-1.267-2.943zm.15-.397h-2.82l-.493-1.15c-.123-.282-.184-.494-.184-.634 0-.11.054-.208.159-.293.105-.084.333-.138.684-.163v-.2h-2.292v.2c.303.054.5.123.59.209.183.172.385.522.606 1.048l2.563 5.994h.187l2.536-6.058c.204-.488.39-.804.556-.95.166-.144.398-.225.695-.243v-.2h-2.874v.2c.29.014.487.063.59.145a.374.374 0 01.152.3c0 .159-.071.407-.214.748zM82.6 128.416v-.199h-3.12v.199h.258c.3 0 .519.088.655.263.086.115.129.39.129.827v4.705c0 .369-.024.612-.07.73a.494.494 0 01-.22.232 1.015 1.015 0 01-.494.129h-.258v.198h3.12v-.198h-.263c-.297 0-.513-.088-.65-.264-.09-.114-.134-.39-.134-.827v-4.705c0-.368.024-.612.07-.731a.484.484 0 01.226-.23.982.982 0 01.488-.129zM85.076 131.96c.068 0 .127 0 .178-.002l.122-.003c.696 0 1.22.15 1.572.45.353.302.529.686.529 1.15 0 .456-.143.825-.427 1.11-.285.284-.662.427-1.13.427a4.74 4.74 0 01-.845-.102zm5.173-3.743h-1.944l-2.467 3.405a12.305 12.305 0 00-.445-.011c-.046 0-.096 0-.15.003l-.167.008v-2.116c0-.458.05-.743.15-.854.137-.158.34-.236.613-.236h.285v-.2h-3.121v.2h.274c.308 0 .528.1.66.3.076.11.114.375.114.79v4.705c0 .459-.051.743-.151.854-.14.158-.347.237-.623.237h-.274v.198h2.653c.774 0 1.344-.057 1.71-.17.368-.112.68-.32.936-.622.255-.303.383-.663.383-1.082a1.7 1.7 0 00-.437-1.166c-.292-.33-.744-.561-1.357-.698l1.504-2.09c.344-.48.64-.798.887-.955.247-.158.569-.258.967-.301zM92.395 135.102v-2.879h1.6c.417 0 .694.063.834.19.185.163.289.453.31.87h.199v-2.535h-.2c-.05.354-.098.582-.15.68a.674.674 0 01-.316.297c-.146.07-.372.107-.676.107h-1.601v-2.401c0-.323.015-.519.043-.589a.345.345 0 01.15-.167c.073-.04.208-.06.409-.06h1.235c.412 0 .71.028.897.085.186.058.366.17.537.34.222.22.45.556.682 1.003h.215l-.63-1.827h-5.611v.2h.258c.17 0 .335.04.489.124a.452.452 0 01.233.257c.04.116.062.35.062.704v4.732c0 .462-.046.747-.14.854-.13.143-.344.215-.644.215h-.258v.198h5.612l.08-1.594h-.21c-.073.383-.157.646-.248.789a.86.86 0 01-.405.328c-.144.054-.396.08-.758.08z" fill="#1d1d1b"/><path d="M35.84 90.617l-2.814 6.13V91.88c0-.449.047-.728.145-.838.132-.15.342-.226.628-.226h.258v-.199h-2.535v.2h.257c.308 0 .527.092.656.28.079.113.118.374.118.783v4.758c0 .323-.036.555-.108.7a.588.588 0 01-.276.258c-.135.071-.35.106-.647.106v.198h2.062l2.643-5.698 2.599 5.698h2.063v-.198h-.253c-.311 0-.531-.094-.66-.279-.08-.116-.118-.376-.118-.785V91.88c0-.449.049-.728.15-.838.133-.15.342-.226.628-.226h.253v-.199h-3.094v.2h.258c.31 0 .53.092.655.28.079.113.118.374.118.783v4.866l-2.81-6.129zM44.459 90.816v-.199h-3.121v.2h.258c.3 0 .519.087.656.262.086.115.129.39.129.827v4.705c0 .37-.024.612-.07.73a.494.494 0 01-.221.232 1.015 1.015 0 01-.494.13h-.258v.197h3.12v-.198h-.263c-.297 0-.513-.088-.65-.264-.09-.114-.133-.39-.133-.827v-4.705c0-.368.023-.612.069-.73a.493.493 0 01.226-.23.984.984 0 01.488-.13zM44.528 97.9h1.977l4.452-5.462v4.2c0 .448-.05.727-.15.838-.133.151-.342.226-.629.226h-.253v.198h2.536v-.198h-.258c-.308 0-.527-.094-.655-.28-.08-.115-.119-.376-.119-.784V90.5h-.193l-4.802 5.865V91.88c0-.448.05-.727.145-.837.137-.15.345-.226.63-.226h.257v-.199H44.93v.2h.252c.313 0 .533.092.661.278.08.115.12.376.12.784v5.065c-.212.247-.373.41-.482.49a1.753 1.753 0 01-.48.22 1.726 1.726 0 01-.473.048zM55.956 90.816v-.199h-3.121v.2h.258c.3 0 .519.087.656.262.086.115.129.39.129.827v4.705c0 .37-.024.612-.07.73a.494.494 0 01-.221.232 1.015 1.015 0 01-.494.13h-.258v.197h3.12v-.198h-.263c-.297 0-.513-.088-.65-.264-.09-.114-.133-.39-.133-.827v-4.705c0-.368.023-.612.069-.73a.493.493 0 01.226-.23.984.984 0 01.488-.13zM61.212 98.067v-2.52h-.198c-.065.484-.18.87-.347 1.156a1.8 1.8 0 01-.71.681 1.967 1.967 0 01-.957.253c-.372 0-.68-.114-.924-.34-.243-.228-.365-.487-.365-.777 0-.223.077-.425.231-.607.222-.269.75-.626 1.585-1.075.68-.365 1.144-.645 1.393-.84a2.04 2.04 0 00.574-.69c.135-.265.202-.543.202-.833 0-.55-.214-1.026-.642-1.426-.428-.399-.978-.598-1.65-.598-.212 0-.41.015-.598.048-.11.018-.34.083-.689.196-.35.112-.57.17-.664.17a.28.28 0 01-.212-.08c-.052-.055-.09-.166-.115-.334h-.199v2.497h.2c.091-.523.217-.914.375-1.174.157-.259.398-.475.722-.646a2.24 2.24 0 011.067-.258c.447 0 .8.118 1.06.354.26.237.388.516.388.838 0 .18-.048.36-.147.542a1.62 1.62 0 01-.459.511c-.139.107-.52.335-1.143.684-.623.35-1.067.628-1.33.835a2.268 2.268 0 00-.599.688 1.706 1.706 0 00-.204.827c0 .523.2.974.602 1.351.401.378.911.567 1.531.567.387 0 .796-.095 1.23-.285.2-.089.341-.134.424-.134.092 0 .17.027.227.083.06.056.107.167.143.336zM68.597 97.9l.08-1.708h-.204c-.039.301-.093.516-.161.645a1.072 1.072 0 01-.444.46c-.184.097-.426.147-.727.147h-1.026V91.88c0-.448.048-.727.145-.837.136-.15.346-.226.628-.226h.253v-.199h-3.089v.2h.258c.308 0 .527.092.656.278.078.115.117.376.117.784v5.565h-.875c-.34 0-.582-.025-.724-.075a1 1 0 01-.479-.393c-.133-.193-.211-.454-.236-.784h-.204l.086 1.708zM71.076 100.27h1.199l.568-1.855h-.188zm.119-2.768v-2.878h1.6c.415 0 .692.062.833.188.185.164.29.454.31.87h.2v-2.535h-.2c-.049.354-.099.582-.15.682a.674.674 0 01-.316.296c-.147.071-.373.107-.677.107h-1.6v-2.4c0-.323.014-.52.042-.588a.334.334 0 01.151-.167c.071-.041.208-.062.408-.062h1.235c.412 0 .711.029.898.086.185.058.365.17.537.339.221.222.45.557.681 1.004h.215l-.629-1.826h-5.612v.199h.258c.172 0 .335.04.49.123a.453.453 0 01.232.258c.041.115.062.349.062.704v4.73c0 .463-.047.748-.14.856-.129.142-.343.215-.644.215h-.258v.198h5.612l.081-1.595h-.21c-.074.383-.158.647-.249.789a.85.85 0 01-.405.328c-.144.054-.396.08-.758.08zM77.822 94.361c.067 0 .127 0 .177-.003l.124-.003c.694 0 1.218.151 1.57.451.353.301.529.685.529 1.15 0 .455-.142.824-.426 1.11-.286.283-.662.426-1.131.426-.208 0-.49-.034-.843-.102zm5.172-3.744H81.05l-2.466 3.405a12.253 12.253 0 00-.446-.01c-.046 0-.096 0-.15.002l-.166.008v-2.116c0-.458.05-.743.15-.854.136-.158.34-.236.612-.236h.285v-.199h-3.121v.2h.274c.308 0 .529.1.66.3.076.11.114.374.114.79v4.704c0 .46-.05.743-.151.854-.14.158-.347.237-.623.237h-.274v.198h2.654c.774 0 1.343-.057 1.71-.169.367-.113.679-.32.935-.623.255-.303.384-.663.384-1.082 0-.448-.146-.836-.438-1.166-.292-.329-.743-.56-1.357-.698l1.504-2.089c.344-.48.64-.799.887-.956.247-.158.569-.258.967-.3zM85.14 97.503v-2.88h1.602c.415 0 .692.064.833.19.185.164.289.454.31.87h.199v-2.535h-.2c-.05.354-.098.582-.15.68a.674.674 0 01-.316.297c-.146.07-.372.107-.676.107H85.14V91.83c0-.322.015-.518.043-.588a.34.34 0 01.15-.167c.072-.041.208-.061.409-.061h1.235c.412 0 .71.029.897.086.186.057.366.17.537.339.222.22.45.556.682 1.003h.215l-.63-1.826h-5.611v.199h.258c.17 0 .335.04.489.124a.452.452 0 01.233.257c.04.116.062.35.062.704v4.732c0 .462-.047.747-.14.854-.13.143-.344.215-.644.215h-.258v.198h5.612l.08-1.594h-.21c-.073.383-.157.646-.248.789a.86.86 0 01-.405.328c-.144.054-.397.08-.758.08zM18.158 78.544c.455-.101.836-.15 1.144-.15.831 0 1.52.292 2.068.875.548.584.822 1.375.822 2.374 0 1.006-.274 1.799-.822 2.38-.548.58-1.252.87-2.111.87-.323 0-.689-.052-1.101-.157zm-2.079-.526v.198h.274c.308 0 .527.099.656.296.079.118.118.383.118.795v4.705c0 .454-.05.739-.151.853-.139.158-.347.237-.623.237h-.274v.199h2.965c1.089 0 1.917-.124 2.484-.371.568-.247 1.025-.658 1.37-1.236.346-.576.519-1.242.519-1.998 0-1.012-.309-1.86-.924-2.54-.691-.76-1.744-1.138-3.158-1.138zM26.079 84.903v-2.879h1.6c.416 0 .693.063.834.188.185.165.289.455.31.87h.199v-2.535h-.2c-.05.354-.098.582-.15.682a.672.672 0 01-.316.295c-.146.072-.372.108-.676.108h-1.601v-2.4c0-.323.015-.519.043-.589a.336.336 0 01.15-.167c.072-.04.208-.06.409-.06h1.235c.412 0 .71.027.897.085.186.056.366.17.537.338.222.222.45.556.682 1.004h.215l-.63-1.826h-5.611v.2h.258c.17 0 .335.04.489.123a.446.446 0 01.233.257c.04.115.062.35.062.703v4.733c0 .462-.047.746-.14.853-.13.144-.344.215-.644.215h-.258v.2h5.612l.08-1.596h-.21c-.073.384-.157.646-.248.79a.865.865 0 01-.405.327c-.144.054-.397.081-.758.081zM39.445 80.031l.177-.037L39 78.017H33.36v.2h.273c.308 0 .53.1.661.3.076.115.113.38.113.794v4.7c0 .455-.05.74-.15.854-.14.158-.348.236-.624.236h-.273v.2h3.297v-.2c-.387.004-.657-.032-.814-.107a.663.663 0 01-.319-.284c-.058-.116-.086-.389-.086-.823v-4.576c0-.297.028-.5.086-.612a.38.38 0 01.2-.166c.088-.036.367-.054.837-.054h.531c.56 0 .952.041 1.176.123.227.083.432.23.618.44.187.208.372.538.56.99M44.686 80.853l-1.236 2.944-1.268-2.944zm.15-.396h-2.82l-.494-1.15c-.122-.284-.183-.495-.183-.635 0-.11.053-.209.16-.293.104-.084.333-.138.683-.164v-.198H39.89v.198c.305.054.501.124.591.21.183.172.385.521.606 1.047l2.563 5.994h.187l2.536-6.058c.205-.487.39-.803.556-.948.166-.145.4-.226.696-.245v-.198H44.75v.198c.29.015.486.063.588.146a.373.373 0 01.153.301c0 .157-.072.406-.215.746zM56.404 85.467l.166-2.476h-.166c-.223.742-.539 1.275-.95 1.6-.413.326-.907.489-1.484.489-.483 0-.92-.122-1.31-.367-.39-.246-.697-.637-.92-1.174-.225-.537-.337-1.205-.337-2.004 0-.658.105-1.23.317-1.713.211-.483.53-.854.954-1.112a2.736 2.736 0 011.453-.387c.472 0 .89.102 1.251.304.361.202.758.605 1.192 1.206l.166-.107c-.365-.65-.79-1.123-1.277-1.424-.488-.301-1.066-.451-1.736-.451-1.207 0-2.14.448-2.803 1.343-.495.666-.742 1.45-.742 2.352 0 .728.164 1.395.49 2.004.325.608.773 1.08 1.344 1.415a3.638 3.638 0 001.872.502c.527 0 1.046-.13 1.558-.387.15-.078.258-.118.322-.118.097 0 .181.034.253.103.093.096.16.23.2.402zM60.983 85.075c-.651 0-1.174-.242-1.568-.726-.49-.6-.735-1.482-.735-2.642 0-1.189.254-2.104.76-2.744.392-.488.907-.73 1.548-.73.684 0 1.249.266 1.695.8.446.533.668 1.374.668 2.523 0 1.247-.245 2.176-.735 2.79-.394.485-.94.73-1.633.73m.103.391c.945 0 1.763-.359 2.457-1.077.692-.718 1.039-1.614 1.039-2.688 0-1.106-.35-2.025-1.047-2.756-.7-.73-1.544-1.096-2.535-1.096-1.003 0-1.846.357-2.527 1.07-.683.712-1.024 1.634-1.024 2.765 0 1.158.394 2.101 1.182 2.831.684.634 1.502.951 2.455.951M67.212 81.922h3.383v2.084c0 .373-.023.618-.07.736a.488.488 0 01-.225.23.987.987 0 01-.488.13h-.258v.199h3.115v-.2h-.258c-.172 0-.335-.04-.489-.122a.456.456 0 01-.233-.261c-.04-.116-.063-.354-.063-.712v-4.7c0-.368.023-.612.07-.73a.488.488 0 01.221-.231c.157-.086.322-.13.494-.13h.258v-.197h-3.115v.198h.258c.296 0 .513.088.65.264.09.114.133.389.133.827v2.218h-3.383v-2.218c0-.37.022-.613.07-.731a.482.482 0 01.225-.231.984.984 0 01.488-.13h.264v-.197h-3.12v.198h.257c.3 0 .52.088.656.264.086.114.13.389.13.827v4.699c0 .373-.025.618-.072.736a.489.489 0 01-.22.23 1.018 1.018 0 01-.494.13h-.258v.199h3.121v-.2h-.264c-.172 0-.334-.04-.488-.122a.47.47 0 01-.23-.261c-.044-.116-.065-.354-.065-.712zM77.422 87.669l-1.585-1.853h-.183l.565 1.853zm-2.283-2.766v-2.88h1.6c.415 0 .693.064.833.189.186.165.29.455.311.87h.2v-2.535h-.2c-.05.354-.1.582-.15.683a.67.67 0 01-.317.294c-.146.073-.372.108-.677.108h-1.6V79.23c0-.322.014-.518.043-.587a.332.332 0 01.15-.167c.071-.041.208-.062.408-.062h1.236c.412 0 .711.028.897.086.186.057.365.17.537.338.222.223.45.557.682 1.005h.215l-.629-1.826h-5.612v.198h.257c.172 0 .335.04.49.124a.447.447 0 01.233.258c.041.114.062.348.062.703v4.732c0 .462-.047.746-.14.854-.129.143-.344.215-.645.215h-.257v.199h5.612l.081-1.596h-.21c-.074.384-.158.647-.249.79a.864.864 0 01-.405.327c-.144.054-.397.08-.758.08zM84.547 85.467v-2.52h-.198c-.065.485-.18.87-.347 1.156a1.798 1.798 0 01-.71.682 1.973 1.973 0 01-.958.252c-.372 0-.68-.113-.924-.341-.243-.227-.365-.486-.365-.776 0-.222.077-.424.231-.606.222-.27.75-.627 1.585-1.075.68-.365 1.145-.645 1.394-.84.25-.196.44-.425.574-.691.135-.264.202-.542.202-.832 0-.552-.214-1.027-.642-1.426-.428-.4-.979-.6-1.652-.6-.21 0-.41.017-.596.05a5.838 5.838 0 00-.69.196c-.349.112-.57.169-.664.169a.281.281 0 01-.212-.081c-.05-.054-.09-.164-.115-.333h-.198v2.498h.198c.093-.524.22-.914.376-1.174.157-.26.398-.476.723-.647a2.237 2.237 0 011.066-.258c.447 0 .801.118 1.061.354.26.237.388.516.388.838 0 .18-.048.36-.147.543a1.608 1.608 0 01-.459.51c-.14.107-.52.336-1.144.685-.623.349-1.066.627-1.33.835a2.24 2.24 0 00-.598.688c-.136.25-.204.526-.204.827 0 .522.2.973.601 1.35.401.379.911.567 1.531.567.387 0 .796-.095 1.23-.284.2-.09.342-.135.425-.135.092 0 .17.028.227.084.06.055.107.167.143.335zM88.961 78.216v-.198h-3.12v.198h.257c.3 0 .52.088.656.264.086.114.13.389.13.827v4.705c0 .368-.025.612-.07.73a.496.496 0 01-.222.23 1.015 1.015 0 01-.494.13h-.258v.199h3.121v-.2h-.264c-.297 0-.513-.087-.649-.262-.09-.115-.134-.391-.134-.827v-4.705c0-.37.023-.612.07-.731a.49.49 0 01.225-.231.984.984 0 01.488-.13zM93.096 85.075c-.651 0-1.175-.242-1.568-.726-.491-.6-.736-1.482-.736-2.642 0-1.189.254-2.104.762-2.744.391-.488.906-.73 1.547-.73.684 0 1.249.266 1.695.8.446.533.668 1.374.668 2.523 0 1.247-.245 2.176-.735 2.79-.394.485-.939.73-1.633.73m.103.391c.945 0 1.763-.359 2.457-1.077.692-.718 1.039-1.614 1.039-2.688 0-1.106-.35-2.025-1.047-2.756-.699-.73-1.544-1.096-2.535-1.096-1.003 0-1.846.357-2.528 1.07-.682.712-1.023 1.634-1.023 2.765 0 1.158.393 2.101 1.181 2.831.684.634 1.502.951 2.456.951M96.92 85.3h1.976l4.452-5.462v4.2c0 .449-.05.728-.15.838-.133.15-.342.226-.629.226h-.253v.199h2.536v-.2h-.258c-.308 0-.527-.092-.655-.28-.08-.113-.119-.374-.119-.783V77.9h-.193l-4.802 5.865V79.28c0-.448.05-.727.145-.838.137-.151.345-.226.63-.226h.257v-.198h-2.536v.198h.252c.313 0 .533.094.661.279.08.116.12.376.12.785v5.065c-.212.247-.373.41-.482.488a1.75 1.75 0 01-.48.22 1.734 1.734 0 01-.473.049zM16.397 65.943a5.5 5.5 0 011.144-.15c.831 0 1.52.292 2.068.876.548.583.822 1.375.822 2.374 0 1.005-.274 1.798-.822 2.38-.548.58-1.252.87-2.11.87a4.55 4.55 0 01-1.102-.157zm-2.079-.526v.2h.274c.308 0 .527.097.656.294.08.118.118.384.118.795v4.705c0 .455-.05.74-.15.854-.14.157-.348.237-.624.237h-.274v.198h2.965c1.09 0 1.917-.123 2.484-.37.568-.247 1.025-.659 1.37-1.236.346-.577.52-1.243.52-1.998 0-1.013-.31-1.86-.925-2.54-.69-.759-1.744-1.139-3.158-1.139zM24.318 72.303v-2.88h1.601c.415 0 .692.064.833.19.185.164.29.454.31.87h.2v-2.535h-.2c-.05.354-.099.582-.15.68a.674.674 0 01-.317.297c-.146.07-.372.107-.676.107h-1.6V66.63c0-.322.014-.518.042-.588a.34.34 0 01.15-.167c.072-.041.208-.061.41-.061h1.234c.412 0 .711.029.897.086.186.057.366.17.537.339.222.22.45.556.682 1.003h.215l-.629-1.826h-5.612v.199h.258c.171 0 .335.04.49.124a.452.452 0 01.232.257c.041.116.062.35.062.704v4.732c0 .462-.047.747-.14.854-.129.143-.344.215-.644.215h-.258v.198h5.612l.081-1.594h-.21c-.074.383-.158.646-.249.789a.86.86 0 01-.405.328c-.144.054-.397.08-.758.08zM33.726 72.867v-2.52h-.198c-.065.484-.18.87-.347 1.156a1.795 1.795 0 01-.71.681 1.964 1.964 0 01-.958.253c-.372 0-.68-.114-.924-.34-.243-.228-.365-.487-.365-.777 0-.223.077-.425.231-.607.222-.269.75-.626 1.585-1.075.68-.365 1.145-.645 1.394-.84a2.04 2.04 0 00.574-.69c.135-.265.202-.543.202-.833 0-.55-.214-1.026-.642-1.426-.428-.399-.979-.598-1.652-.598-.21 0-.41.015-.596.048a6.052 6.052 0 00-.69.196c-.349.112-.57.17-.664.17a.28.28 0 01-.212-.08c-.05-.055-.09-.166-.115-.334h-.198v2.497h.198c.093-.523.22-.914.376-1.174.157-.259.398-.475.723-.646a2.237 2.237 0 011.066-.258c.447 0 .801.118 1.061.354.26.237.388.516.388.838 0 .18-.048.36-.147.542a1.62 1.62 0 01-.459.511c-.14.107-.52.335-1.144.684-.623.35-1.066.628-1.33.835a2.264 2.264 0 00-.598.688 1.706 1.706 0 00-.204.827c0 .523.2.974.601 1.351.401.378.911.567 1.531.567.387 0 .796-.095 1.23-.285.2-.089.342-.134.425-.134.092 0 .17.027.227.083.06.056.107.167.143.336zM43.608 72.7l.08-1.708h-.204c-.039.301-.093.516-.16.645a1.072 1.072 0 01-.445.46c-.184.097-.426.147-.727.147h-1.026V66.68c0-.448.048-.727.145-.837.136-.15.346-.226.628-.226h.253v-.199h-3.089v.2h.258c.308 0 .527.092.656.278.078.115.117.376.117.784v5.565h-.875c-.34 0-.582-.025-.724-.075a1 1 0 01-.479-.393c-.133-.193-.21-.454-.236-.784h-.204l.086 1.708zM46.206 72.303v-2.88h1.6c.416 0 .693.064.834.19.185.164.289.454.31.87h.199v-2.535h-.2c-.05.354-.098.582-.15.68a.674.674 0 01-.316.297c-.146.07-.372.107-.676.107h-1.601V66.63c0-.322.015-.518.043-.588a.34.34 0 01.15-.167c.072-.041.208-.061.409-.061h1.235c.412 0 .71.029.897.086.186.057.366.17.537.339.222.22.45.556.682 1.003h.215l-.63-1.826h-5.611v.199h.258c.17 0 .335.04.489.124a.452.452 0 01.233.257c.04.116.062.35.062.704v4.732c0 .462-.047.747-.14.854-.13.143-.344.215-.644.215h-.258v.198h5.612l.08-1.594h-.21c-.073.383-.157.646-.248.789a.86.86 0 01-.405.328c-.144.054-.397.08-.758.08zM52.833 69.161c.067 0 .127 0 .177-.003l.124-.003c.694 0 1.218.151 1.57.451.353.301.529.685.529 1.15 0 .455-.142.824-.426 1.11-.286.283-.662.426-1.131.426-.208 0-.49-.034-.843-.102zm5.172-3.744H56.06l-2.466 3.405a12.253 12.253 0 00-.446-.01c-.046 0-.096 0-.15.002l-.166.008v-2.116c0-.458.05-.743.15-.854.136-.158.34-.236.612-.236h.285v-.199h-3.121v.2h.274c.308 0 .529.1.66.3.076.11.114.374.114.79v4.704c0 .46-.05.743-.151.854-.14.158-.347.237-.623.237h-.274v.198h2.654c.774 0 1.343-.057 1.71-.169.367-.113.679-.32.935-.623.255-.303.384-.663.384-1.082 0-.448-.146-.836-.438-1.166-.292-.329-.743-.56-1.357-.698l1.504-2.089c.344-.48.64-.799.887-.956.247-.158.569-.258.967-.3zM60.115 69.161c.067 0 .127 0 .176-.003l.124-.003c.695 0 1.218.151 1.571.451.352.301.53.685.53 1.15 0 .455-.144.824-.428 1.11-.285.283-.662.426-1.13.426-.209 0-.49-.034-.843-.102zm5.171-3.744h-1.944l-2.466 3.405a12.206 12.206 0 00-.445-.01c-.047 0-.097 0-.15.002l-.166.008v-2.116c0-.458.05-.743.15-.854.136-.158.34-.236.611-.236h.285v-.199h-3.12v.2h.274c.308 0 .53.1.661.3.075.11.113.374.113.79v4.704c0 .46-.05.743-.15.854-.14.158-.348.237-.624.237h-.274v.198h2.654c.773 0 1.342-.057 1.71-.169.367-.113.678-.32.934-.623s.385-.663.385-1.082c0-.448-.147-.836-.439-1.166-.292-.329-.743-.56-1.356-.698l1.504-2.089c.344-.48.64-.799.887-.956.247-.158.57-.258.966-.3zM68.529 65.616v-.199h-3.121v.2h.258c.3 0 .519.087.656.262.086.115.129.39.129.827v4.705c0 .37-.024.612-.07.73a.494.494 0 01-.221.232 1.015 1.015 0 01-.494.13h-.258v.197h3.12v-.198h-.263c-.297 0-.513-.088-.65-.264-.09-.114-.133-.39-.133-.827v-4.705c0-.368.023-.612.069-.73a.493.493 0 01.226-.23.984.984 0 01.488-.13zM75.108 72.7l.08-1.708h-.204c-.04.301-.093.516-.161.645a1.072 1.072 0 01-.444.46c-.184.097-.426.147-.727.147h-1.026V66.68c0-.448.048-.727.145-.837.136-.15.346-.226.628-.226h.253v-.199h-3.09v.2h.259c.308 0 .527.092.656.278.078.115.117.376.117.784v5.565h-.875c-.34 0-.582-.025-.724-.075a1 1 0 01-.48-.393c-.132-.193-.21-.454-.235-.784h-.204l.086 1.708zM79.13 72.475c-.652 0-1.176-.241-1.569-.725-.49-.601-.736-1.482-.736-2.642 0-1.19.254-2.104.762-2.745.391-.487.906-.731 1.547-.731.684 0 1.25.267 1.695.8.446.534.668 1.376.668 2.525 0 1.247-.245 2.175-.735 2.788-.394.487-.939.73-1.633.73m.103.393c.945 0 1.763-.36 2.457-1.078.692-.717 1.04-1.614 1.04-2.688 0-1.106-.35-2.024-1.048-2.755-.699-.73-1.544-1.096-2.535-1.096-1.003 0-1.846.357-2.528 1.069-.682.713-1.023 1.634-1.023 2.766 0 1.157.393 2.1 1.181 2.83.684.634 1.502.952 2.456.952M86.492 65.616v-.199H83.37v.2h.259c.3 0 .518.087.655.262.087.115.13.39.13.827v4.705c0 .37-.024.612-.07.73a.494.494 0 01-.221.232 1.015 1.015 0 01-.494.13h-.258v.197h3.12v-.198h-.263c-.297 0-.513-.088-.65-.264-.09-.114-.133-.39-.133-.827v-4.705c0-.368.023-.612.069-.73a.493.493 0 01.226-.23.984.984 0 01.488-.13zM88.967 69.161c.067 0 .127 0 .177-.003l.124-.003c.694 0 1.218.151 1.57.451.353.301.53.685.53 1.15 0 .455-.143.824-.427 1.11-.286.283-.662.426-1.13.426-.209 0-.49-.034-.844-.102zm5.172-3.744h-1.944l-2.466 3.405a12.253 12.253 0 00-.446-.01c-.046 0-.096 0-.15.002l-.166.008v-2.116c0-.458.05-.743.15-.854.136-.158.34-.236.612-.236h.285v-.199h-3.12v.2h.273c.308 0 .53.1.661.3.075.11.113.374.113.79v4.704c0 .46-.05.743-.15.854-.14.158-.348.237-.624.237h-.274v.198h2.654c.774 0 1.343-.057 1.71-.169.367-.113.68-.32.935-.623s.384-.663.384-1.082c0-.448-.146-.836-.438-1.166-.292-.329-.743-.56-1.357-.698l1.504-2.089c.344-.48.64-.799.887-.956.247-.158.57-.258.967-.3zM96.285 72.303v-2.88h1.602c.414 0 .691.064.832.19.186.164.29.454.31.87h.2v-2.535h-.2c-.05.354-.098.582-.15.68a.674.674 0 01-.317.297c-.145.07-.371.107-.675.107h-1.602V66.63c0-.322.016-.518.044-.588a.34.34 0 01.15-.167c.072-.041.208-.061.409-.061h1.235c.412 0 .71.029.897.086.186.057.366.17.537.339.222.22.45.556.682 1.003h.215l-.63-1.826h-5.611v.199h.258c.17 0 .335.04.489.124a.452.452 0 01.233.257c.04.116.062.35.062.704v4.732c0 .462-.047.747-.14.854-.13.143-.344.215-.644.215h-.258v.198h5.612l.08-1.594h-.21c-.073.383-.157.646-.248.789a.86.86 0 01-.405.328c-.144.054-.397.08-.758.08zM105.695 72.867v-2.52h-.198c-.065.484-.18.87-.347 1.156a1.795 1.795 0 01-.711.681 1.964 1.964 0 01-.957.253c-.372 0-.68-.114-.924-.34-.243-.228-.365-.487-.365-.777 0-.223.077-.425.23-.607.223-.269.75-.626 1.586-1.075.68-.365 1.145-.645 1.394-.84a2.04 2.04 0 00.574-.69c.135-.265.202-.543.202-.833 0-.55-.214-1.026-.642-1.426-.428-.399-.98-.598-1.652-.598-.211 0-.41.015-.596.048a6.052 6.052 0 00-.69.196c-.35.112-.57.17-.664.17a.28.28 0 01-.212-.08c-.051-.055-.09-.166-.115-.334h-.198v2.497h.198c.093-.523.219-.914.376-1.174.157-.259.398-.475.723-.646a2.237 2.237 0 011.066-.258c.447 0 .8.118 1.06.354.26.237.389.516.389.838 0 .18-.048.36-.147.542a1.62 1.62 0 01-.46.511c-.14.107-.52.335-1.143.684-.623.35-1.066.628-1.33.835a2.264 2.264 0 00-.598.688 1.706 1.706 0 00-.204.827c0 .523.2.974.6 1.351.402.378.912.567 1.532.567.387 0 .796-.095 1.23-.285.2-.089.342-.134.425-.134.092 0 .169.027.227.083.06.056.107.167.143.336zM13.457 59.703v-2.879h1.6c.416 0 .693.063.834.19.185.163.289.453.31.868h.199v-2.535h-.2c-.05.355-.098.582-.15.682a.679.679 0 01-.316.296c-.146.071-.372.107-.676.107h-1.601v-2.4c0-.323.015-.519.043-.589a.336.336 0 01.15-.167c.072-.04.208-.06.409-.06h1.235c.412 0 .71.027.897.085.186.057.366.17.537.34.222.22.45.555.682 1.002h.215l-.63-1.826h-5.611v.2h.258c.17 0 .335.04.489.123a.452.452 0 01.233.257c.04.115.062.35.062.703v4.733c0 .462-.047.746-.14.853-.13.144-.344.215-.644.215h-.258v.2h5.612l.08-1.596h-.21c-.073.384-.157.646-.248.79a.853.853 0 01-.405.327c-.144.055-.397.081-.758.081zM24.187 60.1l.08-1.707h-.204c-.039.3-.093.516-.16.645-.112.208-.26.36-.445.459-.184.098-.426.147-.727.147h-1.026V54.08c0-.448.048-.727.145-.838.136-.151.346-.225.628-.225h.253v-.2h-3.089v.2h.258c.308 0 .527.093.656.279.078.115.117.375.117.784v5.564h-.875c-.34 0-.582-.024-.724-.074a1 1 0 01-.479-.393c-.133-.193-.21-.455-.236-.784h-.204l.086 1.708zM29.25 53.344c.455-.101.836-.15 1.144-.15.83 0 1.52.292 2.068.876.548.583.822 1.375.822 2.373 0 1.006-.274 1.799-.822 2.38-.548.58-1.252.87-2.111.87-.323 0-.69-.052-1.101-.157zm-2.08-.526v.199h.275c.308 0 .527.098.656.295.079.118.118.383.118.795v4.705c0 .455-.05.739-.151.853-.14.158-.347.237-.623.237h-.274v.199h2.965c1.089 0 1.917-.123 2.484-.371.568-.246 1.025-.658 1.37-1.235.346-.577.519-1.243.519-1.998 0-1.013-.31-1.86-.924-2.541-.691-.758-1.744-1.138-3.158-1.138zM37.17 59.703v-2.879h1.602c.415 0 .692.063.833.19.185.163.289.453.31.868h.199v-2.535h-.2c-.05.355-.098.582-.15.682a.679.679 0 01-.316.296c-.146.071-.372.107-.676.107H37.17v-2.4c0-.323.015-.519.043-.589a.336.336 0 01.15-.167c.072-.04.208-.06.409-.06h1.235c.412 0 .71.027.897.085.186.057.366.17.537.34.222.22.45.555.682 1.002h.215l-.63-1.826h-5.611v.2h.258c.17 0 .335.04.489.123a.452.452 0 01.233.257c.04.115.062.35.062.703v4.733c0 .462-.047.746-.14.853-.13.144-.344.215-.644.215h-.258v.2h5.612l.08-1.596h-.21c-.073.384-.157.646-.248.79a.853.853 0 01-.405.327c-.144.055-.397.081-.758.081zM46.579 60.267v-2.52h-.198c-.065.485-.18.87-.347 1.157a1.795 1.795 0 01-.711.68 1.973 1.973 0 01-.957.253c-.372 0-.68-.113-.924-.341-.243-.227-.365-.485-.365-.776 0-.222.077-.424.23-.606.223-.27.75-.627 1.586-1.075.68-.365 1.145-.645 1.394-.84a2.05 2.05 0 00.574-.69c.135-.265.202-.543.202-.833 0-.552-.214-1.026-.642-1.426-.428-.4-.98-.598-1.652-.598-.211 0-.41.015-.596.048a5.838 5.838 0 00-.69.196c-.35.112-.57.169-.664.169a.281.281 0 01-.212-.081c-.051-.053-.09-.164-.115-.332h-.198v2.497h.198c.093-.523.219-.914.376-1.174.157-.26.398-.476.723-.647a2.237 2.237 0 011.066-.258c.447 0 .8.119 1.06.355.26.237.389.516.389.838 0 .179-.048.359-.147.542a1.62 1.62 0 01-.46.51c-.14.108-.52.336-1.143.685-.623.349-1.066.627-1.33.835a2.252 2.252 0 00-.598.688 1.706 1.706 0 00-.204.827c0 .522.2.973.6 1.35.402.379.912.567 1.532.567.387 0 .796-.095 1.23-.284.2-.09.342-.134.425-.134.092 0 .169.027.227.083.06.056.107.167.143.335zM52.556 56.562c.067 0 .127-.001.177-.003l.124-.003c.694 0 1.218.15 1.57.45.353.302.529.685.529 1.15 0 .456-.143.825-.427 1.11-.286.284-.662.427-1.13.427-.209 0-.49-.034-.844-.102zm5.172-3.744h-1.945l-2.466 3.405a12.253 12.253 0 00-.446-.011c-.046 0-.096 0-.15.002l-.165.009v-2.116c0-.458.05-.743.15-.854.135-.158.34-.236.611-.236h.286v-.2H50.48v.2h.274c.308 0 .53.1.661.3.076.11.114.375.114.79v4.705c0 .458-.05.743-.152.854-.139.158-.347.236-.623.236h-.274v.199h2.654c.774 0 1.343-.057 1.71-.17.367-.112.68-.32.935-.622.255-.303.384-.663.384-1.083 0-.447-.146-.836-.438-1.165-.292-.33-.743-.562-1.357-.698l1.504-2.09c.344-.48.64-.798.887-.955.247-.158.57-.258.967-.301zM59.874 59.703v-2.879h1.6c.415 0 .692.063.833.19.186.163.289.453.31.868h.2v-2.535h-.2c-.05.355-.1.582-.15.682a.676.676 0 01-.316.296c-.147.071-.372.107-.677.107h-1.6v-2.4c0-.323.015-.519.043-.589a.336.336 0 01.15-.167c.072-.04.208-.06.408-.06h1.235c.413 0 .71.027.898.085.185.057.365.17.537.34.222.22.449.555.682 1.002h.214l-.628-1.826H57.8v.2h.258c.17 0 .335.04.489.123a.452.452 0 01.233.257c.04.115.062.35.062.703v4.733c0 .462-.047.746-.14.853-.13.144-.344.215-.644.215H57.8v.2h5.612l.08-1.596h-.21c-.074.384-.158.646-.248.79a.856.856 0 01-.406.327c-.143.055-.396.081-.757.081zM70.545 54.831l.177-.037-.623-1.977H64.46v.2h.273c.308 0 .53.099.661.3.076.115.113.379.113.795v4.699c0 .456-.05.74-.15.854-.14.158-.348.236-.624.236h-.273v.2h3.297v-.2c-.387.004-.657-.031-.814-.107a.658.658 0 01-.319-.284c-.058-.115-.086-.389-.086-.822v-4.576c0-.298.028-.502.086-.613a.388.388 0 01.2-.166c.088-.036.367-.054.837-.054h.531c.56 0 .952.041 1.176.124.227.082.432.228.618.438.187.209.372.539.56.99M75.786 55.653l-1.236 2.943-1.268-2.943zm.15-.397h-2.82l-.494-1.15c-.122-.283-.183-.494-.183-.634 0-.11.053-.209.16-.293.104-.084.333-.138.683-.163v-.199H70.99v.2c.305.052.501.122.591.208.183.172.385.522.606 1.047l2.563 5.994h.187l2.536-6.058c.205-.487.39-.803.556-.948.166-.145.4-.226.696-.244v-.199H75.85v.2c.29.013.486.062.588.144a.373.373 0 01.153.301c0 .157-.072.406-.215.746zM83.938 60.1l.08-1.707h-.204c-.04.3-.093.516-.161.645-.111.208-.26.36-.444.459-.184.098-.426.147-.727.147h-1.026V54.08c0-.448.048-.727.145-.838.136-.151.346-.225.628-.225h.253v-.2h-3.09v.2h.259c.308 0 .527.093.656.279.078.115.117.375.117.784v5.564h-.875c-.34 0-.582-.024-.724-.074a1 1 0 01-.48-.393c-.132-.193-.21-.455-.235-.784h-.204l.086 1.708zM87.632 53.017v-.2h-3.12v.2h.257c.3 0 .52.087.656.263.086.114.13.39.13.827v4.705c0 .369-.025.612-.07.73a.492.492 0 01-.222.23 1.015 1.015 0 01-.494.13h-.258v.199h3.121v-.2h-.264c-.297 0-.513-.086-.649-.262-.09-.114-.134-.391-.134-.827v-4.705c0-.37.023-.612.07-.731a.489.489 0 01.225-.23.984.984 0 01.488-.13zM91.766 59.875c-.651 0-1.175-.241-1.568-.726-.491-.601-.736-1.482-.736-2.642 0-1.189.254-2.104.762-2.744.39-.488.906-.731 1.547-.731.684 0 1.249.267 1.695.801.446.533.668 1.375.668 2.523 0 1.247-.245 2.176-.735 2.789-.394.487-.94.73-1.633.73m.103.392c.945 0 1.763-.359 2.457-1.077.692-.717 1.039-1.614 1.039-2.688 0-1.106-.35-2.024-1.047-2.755-.7-.73-1.544-1.096-2.535-1.096-1.003 0-1.846.356-2.528 1.069-.682.713-1.023 1.634-1.023 2.765 0 1.158.393 2.101 1.18 2.831.685.634 1.503.951 2.457.951M95.59 60.1h1.977l4.452-5.462v4.2c0 .449-.05.728-.15.839-.133.15-.342.225-.629.225h-.253v.199h2.536v-.2h-.258c-.308 0-.527-.092-.655-.28-.08-.113-.119-.374-.119-.782v-6.14h-.193l-4.802 5.866V54.08c0-.448.05-.727.145-.838.137-.151.345-.225.63-.225h.257v-.2h-2.536v.2h.252c.313 0 .533.093.661.279.08.115.12.375.12.784v5.065c-.212.247-.373.41-.482.489a1.783 1.783 0 01-.48.22 1.734 1.734 0 01-.473.048zM108.666 60.267v-2.52h-.198c-.065.485-.18.87-.347 1.157a1.795 1.795 0 01-.71.68 1.973 1.973 0 01-.958.253c-.372 0-.68-.113-.924-.341-.243-.227-.365-.485-.365-.776 0-.222.077-.424.231-.606.222-.27.75-.627 1.585-1.075.68-.365 1.145-.645 1.394-.84a2.05 2.05 0 00.574-.69c.135-.265.202-.543.202-.833 0-.552-.214-1.026-.642-1.426-.428-.4-.979-.598-1.652-.598-.21 0-.41.015-.596.048a5.838 5.838 0 00-.69.196c-.349.112-.57.169-.664.169a.281.281 0 01-.212-.081c-.05-.053-.09-.164-.115-.332h-.198v2.497h.198c.093-.523.22-.914.376-1.174.157-.26.398-.476.723-.647a2.237 2.237 0 011.066-.258c.447 0 .801.119 1.061.355.26.237.388.516.388.838 0 .179-.048.359-.147.542a1.62 1.62 0 01-.459.51c-.14.108-.52.336-1.144.685-.623.349-1.066.627-1.33.835a2.252 2.252 0 00-.598.688 1.706 1.706 0 00-.204.827c0 .522.2.973.601 1.35.401.379.911.567 1.531.567.387 0 .796-.095 1.23-.284.2-.09.342-.134.425-.134.092 0 .17.027.227.083.06.056.107.167.143.335zM40.11 43.053l-1.237 2.943-1.268-2.943zm.15-.397h-2.82l-.495-1.15c-.122-.283-.183-.494-.183-.634 0-.111.053-.21.16-.293.104-.084.333-.138.683-.163v-.2h-2.293v.2c.305.053.501.123.591.209.183.172.385.522.606 1.047l2.563 5.994h.187l2.536-6.058c.205-.487.39-.803.556-.948.166-.145.4-.226.696-.244v-.2h-2.874v.2c.29.014.486.063.588.145a.373.373 0 01.153.3c0 .158-.072.407-.215.747zM49.507 47.5v-.199c-.258-.046-.453-.129-.585-.246-.19-.176-.358-.445-.506-.807l-2.54-6.197h-.198l-2.73 6.278c-.14.322-.237.52-.295.591a.938.938 0 01-.33.261c-.13.062-.307.102-.53.12v.199h2.977v-.199c-.337-.031-.555-.089-.656-.172a.391.391 0 01-.15-.316c0-.179.082-.459.247-.838l1.854-4.27 1.718 4.216c.168.415.252.704.252.864 0 .105-.051.204-.156.299-.103.095-.28.162-.525.201a2.419 2.419 0 01-.092.016v.199zM51.885 47.102v-2.878h1.6c.416 0 .693.063.834.189.185.164.289.454.31.869h.199v-2.535h-.2c-.05.354-.098.581-.15.681a.679.679 0 01-.316.297c-.146.07-.372.106-.676.106h-1.601v-2.4c0-.323.015-.519.043-.589a.336.336 0 01.15-.167c.072-.04.208-.06.409-.06h1.235c.412 0 .71.027.897.085.186.057.366.17.537.34.222.22.45.555.682 1.002h.215l-.63-1.826h-5.611v.2h.258c.17 0 .335.04.489.123a.452.452 0 01.233.257c.04.115.062.35.062.703v4.733c0 .462-.047.746-.14.853-.13.144-.344.215-.644.215h-.258v.2h5.612l.08-1.596h-.21c-.073.384-.157.646-.248.79a.853.853 0 01-.405.327c-.144.055-.397.081-.758.081zM62.873 47.666l.166-2.476h-.166c-.223.742-.539 1.275-.95 1.601-.413.326-.907.488-1.484.488-.483 0-.919-.122-1.31-.367-.39-.245-.697-.637-.92-1.174-.224-.537-.336-1.205-.336-2.004 0-.658.105-1.229.317-1.713a2.37 2.37 0 01.953-1.111 2.738 2.738 0 011.453-.387c.472 0 .89.101 1.251.303.361.202.758.605 1.192 1.206l.166-.107c-.365-.649-.79-1.122-1.277-1.423-.488-.301-1.066-.451-1.735-.451-1.207 0-2.142.447-2.804 1.342-.494.666-.74 1.451-.74 2.353 0 .727.162 1.395.488 2.003.325.608.774 1.08 1.345 1.415a3.632 3.632 0 001.871.502c.527 0 1.046-.129 1.558-.387.15-.078.258-.117.322-.117.097 0 .181.033.253.102.093.096.16.23.2.402zM72.532 42.23l.178-.037-.623-1.977h-5.64v.2h.274c.307 0 .528.1.66.3.077.115.114.38.114.795v4.7c0 .455-.05.74-.15.853-.14.158-.349.236-.625.236h-.272v.2h3.297v-.2c-.388.004-.658-.03-.815-.107a.658.658 0 01-.319-.284c-.058-.115-.086-.389-.086-.822v-4.576c0-.298.028-.502.086-.613a.388.388 0 01.2-.166c.088-.036.367-.054.837-.054h.531c.56 0 .952.041 1.176.124.227.082.432.228.618.438.187.21.372.54.56.99M75.19 47.102v-2.878h1.6c.416 0 .693.063.834.189.185.164.289.454.31.869h.199v-2.535h-.2c-.05.354-.098.581-.15.681a.679.679 0 01-.316.297c-.146.07-.372.106-.676.106H75.19v-2.4c0-.323.015-.519.043-.589a.336.336 0 01.15-.167c.072-.04.208-.06.409-.06h1.235c.412 0 .71.027.897.085.186.057.366.17.537.34.222.22.45.555.682 1.002h.215l-.63-1.826h-5.611v.2h.258c.17 0 .335.04.489.123a.452.452 0 01.233.257c.04.115.062.35.062.703v4.733c0 .462-.047.746-.14.853-.13.144-.344.215-.644.215h-.258v.2h5.612l.08-1.596h-.21c-.073.384-.157.646-.248.79a.853.853 0 01-.405.327c-.144.055-.397.081-.758.081zM84.598 47.666v-2.519H84.4c-.065.484-.18.869-.347 1.156a1.795 1.795 0 01-.711.681 1.973 1.973 0 01-.957.252c-.372 0-.68-.113-.924-.341-.243-.227-.365-.485-.365-.776 0-.222.077-.424.231-.606.222-.269.75-.627 1.585-1.075.68-.365 1.145-.645 1.394-.84a2.05 2.05 0 00.574-.69c.135-.265.202-.543.202-.833 0-.552-.214-1.026-.642-1.426-.428-.399-.979-.598-1.652-.598-.211 0-.41.015-.596.048a5.838 5.838 0 00-.69.196c-.349.112-.57.169-.664.169a.281.281 0 01-.212-.081c-.051-.053-.09-.164-.115-.332h-.198v2.497h.198c.093-.523.219-.914.376-1.174.157-.26.398-.476.723-.647a2.237 2.237 0 011.066-.258c.447 0 .801.119 1.061.355.259.237.388.516.388.838 0 .179-.048.359-.147.542a1.62 1.62 0 01-.459.511c-.14.107-.521.335-1.144.684-.623.349-1.066.627-1.33.835a2.252 2.252 0 00-.598.688 1.706 1.706 0 00-.204.827c0 .522.2.973.601 1.351.401.378.911.566 1.531.566.387 0 .796-.095 1.23-.284.2-.09.342-.134.425-.134.092 0 .169.027.227.083.06.056.107.167.143.335zM25.243 35.066l.166-2.476h-.166c-.223.742-.539 1.275-.951 1.601-.412.326-.906.488-1.483.488-.483 0-.92-.122-1.31-.367-.391-.245-.697-.637-.921-1.174-.224-.537-.336-1.205-.336-2.004 0-.658.105-1.229.317-1.713.211-.483.529-.853.954-1.11a2.736 2.736 0 011.453-.388c.472 0 .889.101 1.251.303.361.202.758.605 1.192 1.206l.166-.107c-.365-.649-.791-1.122-1.277-1.423-.488-.3-1.066-.45-1.736-.45-1.207 0-2.141.446-2.803 1.341-.495.666-.742 1.451-.742 2.353 0 .727.164 1.395.49 2.003.325.608.773 1.08 1.344 1.415a3.638 3.638 0 001.872.502c.527 0 1.046-.129 1.558-.387.15-.078.258-.117.322-.117.097 0 .181.033.253.102.093.096.159.23.199.402zM29.823 34.675c-.65 0-1.175-.241-1.568-.726-.49-.601-.736-1.482-.736-2.642 0-1.19.254-2.104.762-2.744.391-.488.906-.731 1.547-.731.684 0 1.25.267 1.695.8.446.534.668 1.376.668 2.524 0 1.247-.245 2.176-.735 2.789-.394.487-.939.73-1.633.73m.103.392c.945 0 1.763-.36 2.457-1.077.692-.717 1.04-1.614 1.04-2.688 0-1.106-.35-2.024-1.048-2.755-.699-.73-1.544-1.096-2.535-1.096-1.003 0-1.846.356-2.528 1.069-.682.713-1.023 1.634-1.023 2.765 0 1.158.393 2.1 1.181 2.83.684.635 1.502.952 2.456.952M40.096 29.63l.178-.036-.624-1.977h-5.638v.2h.272c.309 0 .53.099.662.3.076.115.113.379.113.795v4.699c0 .456-.05.74-.15.854-.14.158-.348.236-.624.236h-.273v.2h3.296v-.2c-.387.004-.657-.031-.814-.107a.658.658 0 01-.319-.284c-.058-.115-.086-.39-.086-.822v-4.576c0-.298.028-.502.086-.613a.388.388 0 01.2-.166c.088-.036.367-.054.837-.054h.531c.56 0 .952.04 1.176.124.227.082.432.228.618.438.187.209.372.539.56.99M46.76 29.63l.178-.036-.623-1.977h-5.64v.2h.274c.308 0 .529.099.66.3.077.115.114.379.114.795v4.699c0 .456-.05.74-.15.854-.14.158-.348.236-.624.236h-.273v.2h3.297v-.2c-.387.004-.657-.031-.814-.107a.658.658 0 01-.32-.284c-.057-.115-.085-.39-.085-.822v-4.576c0-.298.028-.502.086-.613a.388.388 0 01.199-.166c.089-.036.368-.054.838-.054h.53c.56 0 .953.04 1.177.124.227.082.432.228.618.438.187.209.372.539.559.99M49.418 34.503v-2.88h1.6c.416 0 .693.064.834.19.185.164.289.454.31.869h.199v-2.535h-.2c-.05.355-.098.582-.15.682a.679.679 0 01-.316.296c-.146.07-.372.107-.676.107h-1.601V28.83c0-.322.015-.518.043-.588a.336.336 0 01.15-.167c.072-.041.208-.061.409-.061h1.235c.412 0 .71.028.897.086.186.057.366.17.537.339.222.22.45.556.682 1.003h.215l-.63-1.826h-5.611v.199h.258c.17 0 .335.04.489.124a.452.452 0 01.233.257c.04.115.062.35.062.703v4.733c0 .462-.047.746-.14.853-.13.144-.344.215-.644.215h-.258v.199h5.612l.08-1.595h-.21c-.073.384-.157.646-.248.79a.853.853 0 01-.405.327c-.144.055-.397.08-.758.08zM60.406 35.066l.166-2.476h-.166c-.222.742-.54 1.275-.951 1.601-.412.326-.906.488-1.482.488-.484 0-.92-.122-1.311-.367-.39-.245-.697-.637-.921-1.174-.223-.537-.335-1.205-.335-2.004 0-.658.105-1.229.317-1.713a2.37 2.37 0 01.953-1.11 2.738 2.738 0 011.453-.388c.473 0 .89.101 1.25.303.362.202.76.605 1.193 1.206l.166-.107c-.365-.649-.79-1.122-1.277-1.423-.487-.3-1.065-.45-1.735-.45-1.207 0-2.142.446-2.804 1.341-.494.666-.741 1.451-.741 2.353 0 .727.163 1.395.489 2.003.325.608.774 1.08 1.345 1.415a3.633 3.633 0 001.872.502c.526 0 1.046-.129 1.558-.387.15-.078.257-.117.322-.117.097 0 .18.033.253.102.093.096.159.23.198.402zM67.43 34.9l.08-1.708h-.204c-.039.301-.093.516-.161.645-.111.208-.259.36-.444.46-.184.097-.426.146-.727.146h-1.026V28.88c0-.448.048-.727.145-.838.136-.15.346-.225.628-.225h.253v-.199h-3.089v.2h.258c.308 0 .527.092.656.278.078.115.117.375.117.784v5.564h-.875c-.34 0-.582-.024-.724-.074a1 1 0 01-.479-.393c-.133-.193-.211-.455-.236-.784h-.204l.086 1.708zM71.123 27.816v-.199h-3.12v.2h.257c.3 0 .52.086.656.262.086.114.13.39.13.827v4.705c0 .37-.025.612-.07.73a.492.492 0 01-.222.231 1.015 1.015 0 01-.494.13h-.258v.198h3.121v-.199h-.264c-.297 0-.513-.087-.649-.263-.09-.114-.134-.39-.134-.827v-4.705c0-.369.023-.612.07-.73a.489.489 0 01.225-.23.984.984 0 01.488-.13zM79.147 34.9v-.199c-.258-.046-.453-.129-.585-.246-.19-.176-.358-.445-.506-.807l-2.54-6.197h-.198l-2.73 6.278c-.14.322-.237.52-.295.591a.938.938 0 01-.33.261c-.13.062-.307.102-.53.12v.2h2.977v-.2c-.337-.03-.555-.089-.656-.172a.391.391 0 01-.15-.316c0-.179.082-.459.247-.838l1.854-4.27 1.718 4.216c.168.415.252.704.252.864 0 .105-.051.204-.156.3-.103.094-.28.161-.525.2a2.419 2.419 0 01-.092.016v.2zM82.62 27.816v-.199H79.5v.2h.257c.3 0 .52.086.656.262.086.114.13.39.13.827v4.705c0 .37-.025.612-.07.73a.492.492 0 01-.222.231 1.015 1.015 0 01-.494.13H79.5v.198h3.121v-.199h-.264c-.297 0-.513-.087-.649-.263-.09-.114-.134-.39-.134-.827v-4.705c0-.369.023-.612.07-.73a.489.489 0 01.225-.23.984.984 0 01.488-.13zM89.2 34.9l.08-1.708h-.205c-.038.301-.092.516-.16.645-.112.208-.26.36-.445.46-.183.097-.425.146-.726.146h-1.027V28.88c0-.448.049-.727.146-.838.135-.15.345-.225.627-.225h.254v-.199h-3.09v.2h.259c.307 0 .526.092.655.278.079.115.118.375.118.784v5.564h-.876c-.34 0-.581-.024-.723-.074a1 1 0 01-.48-.393c-.132-.193-.21-.455-.235-.784h-.205l.087 1.708zM94.08 37.27l-1.585-1.855h-.183l.565 1.855zm-2.283-2.768v-2.879h1.6c.415 0 .693.063.833.19.186.163.29.453.311.868h.2v-2.534h-.2c-.05.355-.1.582-.15.683a.677.677 0 01-.317.295c-.146.072-.372.108-.677.108h-1.6v-2.401c0-.323.014-.52.043-.588a.332.332 0 01.15-.167c.071-.042.208-.063.408-.063h1.236c.412 0 .711.028.897.086.186.058.365.17.537.34.222.221.45.556.682 1.003h.215l-.629-1.826h-5.612v.2h.257c.172 0 .335.04.49.122a.453.453 0 01.233.258c.041.114.062.35.062.703v4.732c0 .463-.047.747-.14.855-.129.142-.344.214-.645.214h-.257v.2h5.612l.081-1.597h-.21c-.074.385-.158.648-.249.79a.852.852 0 01-.405.328c-.144.055-.397.08-.758.08zM101.205 35.066v-2.519h-.198c-.065.484-.18.87-.347 1.156a1.795 1.795 0 01-.71.681 1.973 1.973 0 01-.958.252c-.372 0-.68-.113-.924-.34-.243-.228-.365-.486-.365-.777 0-.222.077-.424.231-.606.222-.269.75-.627 1.585-1.075.68-.365 1.145-.645 1.394-.84a2.05 2.05 0 00.574-.69c.135-.265.202-.543.202-.833 0-.552-.214-1.026-.642-1.426-.428-.399-.979-.598-1.652-.598-.21 0-.41.015-.596.048a5.838 5.838 0 00-.69.196c-.349.112-.57.17-.664.17a.281.281 0 01-.212-.082c-.05-.053-.09-.164-.115-.332h-.198v2.497h.198c.093-.523.22-.914.376-1.174.157-.26.398-.476.723-.647a2.237 2.237 0 011.066-.258c.447 0 .801.12 1.061.355.26.237.388.516.388.838 0 .18-.048.36-.147.542a1.62 1.62 0 01-.459.511c-.14.107-.52.335-1.144.684-.623.35-1.066.627-1.33.835a2.252 2.252 0 00-.598.688 1.706 1.706 0 00-.204.827c0 .522.2.973.601 1.351.401.378.911.566 1.531.566.387 0 .796-.095 1.23-.284.2-.09.342-.134.425-.134.092 0 .17.027.227.083.06.056.107.167.143.335zM24.775 22.3l.08-1.707h-.204c-.039.3-.093.516-.16.645-.112.208-.26.36-.445.459-.184.098-.426.147-.727.147h-1.026V16.28c0-.448.048-.727.145-.838.136-.151.346-.225.628-.225h.253v-.2H20.23v.2h.258c.308 0 .527.093.656.279.078.115.117.375.117.784v5.564h-.875c-.34 0-.582-.024-.724-.074a1 1 0 01-.479-.393c-.133-.193-.21-.455-.236-.784h-.204l.086 1.708zM27.373 21.903v-2.879h1.6c.416 0 .693.063.834.19.185.163.289.453.31.868h.199v-2.535h-.2c-.05.355-.098.582-.15.682a.679.679 0 01-.316.296c-.146.071-.372.107-.676.107h-1.601v-2.4c0-.323.015-.519.043-.589a.336.336 0 01.15-.167c.072-.04.208-.06.409-.06h1.235c.412 0 .71.027.897.085.186.057.366.17.537.34.222.22.45.555.682 1.002h.215l-.63-1.826H25.3v.2h.258c.17 0 .335.04.489.123a.452.452 0 01.233.257c.04.115.062.35.062.703v4.733c0 .462-.047.746-.14.853-.13.144-.344.215-.644.215H25.3v.2h5.612l.08-1.596h-.21c-.073.384-.157.646-.248.79a.853.853 0 01-.405.327c-.144.055-.397.081-.758.081zM34 18.762c.067 0 .127-.001.177-.003l.124-.003c.694 0 1.218.15 1.57.45.353.302.529.685.529 1.15 0 .456-.142.825-.426 1.11-.286.284-.662.427-1.131.427-.208 0-.49-.034-.843-.102zm5.172-3.744h-1.944l-2.466 3.405a12.253 12.253 0 00-.446-.011c-.046 0-.096 0-.15.003-.054.002-.11.004-.166.008v-2.116c0-.458.05-.743.15-.854.136-.158.34-.236.612-.236h.285v-.2h-3.121v.2h.274c.308 0 .529.1.66.3.076.11.114.375.114.79v4.705c0 .458-.05.743-.151.854-.14.158-.347.236-.623.236h-.274v.199h2.654c.774 0 1.343-.057 1.71-.17.367-.112.679-.32.935-.622.255-.303.384-.663.384-1.083 0-.447-.146-.836-.438-1.165-.292-.33-.743-.562-1.357-.698l1.504-2.09c.344-.48.64-.798.887-.955.247-.158.569-.258.967-.301zM41.282 18.762c.067 0 .127-.001.177-.003l.124-.003c.694 0 1.218.15 1.57.45.353.302.529.685.529 1.15 0 .456-.142.825-.426 1.11-.286.284-.662.427-1.131.427-.208 0-.489-.034-.843-.102zm5.172-3.744H44.51l-2.466 3.405a12.253 12.253 0 00-.446-.011c-.046 0-.096 0-.15.003-.054.002-.109.004-.166.008v-2.116c0-.458.05-.743.15-.854.136-.158.34-.236.612-.236h.285v-.2h-3.121v.2h.274c.308 0 .529.1.661.3.075.11.113.375.113.79v4.705c0 .458-.05.743-.151.854-.139.158-.347.236-.623.236h-.274v.199h2.654c.774 0 1.343-.057 1.71-.17.367-.112.679-.32.935-.622.255-.303.384-.663.384-1.083 0-.447-.146-.836-.438-1.165-.292-.33-.743-.562-1.357-.698l1.504-2.09c.344-.48.64-.798.887-.955.247-.158.569-.258.967-.301zM49.697 15.217v-.2h-3.12v.2h.257c.3 0 .52.087.656.263.086.114.13.39.13.827v4.705c0 .369-.025.612-.07.73a.492.492 0 01-.222.23 1.015 1.015 0 01-.494.13h-.258v.199h3.121v-.2h-.264c-.297 0-.513-.086-.649-.262-.09-.114-.134-.391-.134-.827v-4.705c0-.37.023-.612.07-.731a.489.489 0 01.225-.23.984.984 0 01.488-.13zM56.275 22.3l.08-1.707h-.204c-.039.3-.093.516-.16.645-.112.208-.26.36-.445.459-.184.098-.426.147-.727.147h-1.026V16.28c0-.448.048-.727.145-.838.136-.151.346-.225.628-.225h.253v-.2H51.73v.2h.258c.308 0 .527.093.656.279.078.115.117.375.117.784v5.564h-.875c-.34 0-.582-.024-.724-.074a1 1 0 01-.479-.393c-.133-.193-.21-.455-.236-.784h-.204l.086 1.708zM60.296 22.075c-.65 0-1.174-.24-1.568-.726-.49-.6-.735-1.482-.735-2.642 0-1.189.254-2.104.761-2.744.391-.488.907-.73 1.547-.73.684 0 1.25.266 1.695.8.446.533.668 1.375.668 2.523 0 1.247-.245 2.176-.735 2.79-.394.486-.939.73-1.633.73m.103.391c.945 0 1.763-.359 2.457-1.077.692-.717 1.04-1.614 1.04-2.688 0-1.106-.35-2.024-1.048-2.755-.699-.73-1.544-1.096-2.535-1.096-1.003 0-1.846.356-2.527 1.07-.683.712-1.024 1.633-1.024 2.764 0 1.158.394 2.101 1.182 2.831.684.634 1.502.951 2.455.951M66.526 18.762c.067 0 .127-.001.177-.003l.124-.003c.694 0 1.218.15 1.57.45.353.302.529.685.529 1.15 0 .456-.142.825-.426 1.11-.286.284-.662.427-1.131.427-.208 0-.49-.034-.843-.102zm5.172-3.744h-1.944l-2.466 3.405a12.253 12.253 0 00-.446-.011c-.046 0-.096 0-.15.003-.054.002-.11.004-.166.008v-2.116c0-.458.05-.743.15-.854.136-.158.34-.236.612-.236h.285v-.2h-3.121v.2h.274c.308 0 .529.1.66.3.076.11.114.375.114.79v4.705c0 .458-.05.743-.151.854-.14.158-.347.236-.623.236h-.274v.199h2.654c.774 0 1.343-.057 1.71-.17.367-.112.679-.32.935-.622.255-.303.384-.663.384-1.083 0-.447-.146-.836-.438-1.165-.292-.33-.743-.562-1.357-.698l1.504-2.09c.344-.48.64-.798.887-.955.247-.158.569-.258.967-.301zM74.94 15.217v-.2h-3.12v.2h.258c.3 0 .519.087.656.263.086.114.129.39.129.827v4.705c0 .369-.024.612-.07.73a.492.492 0 01-.221.23 1.015 1.015 0 01-.494.13h-.258v.199h3.12v-.2h-.263c-.297 0-.513-.086-.65-.262-.09-.114-.133-.391-.133-.827v-4.705c0-.37.023-.612.069-.731a.489.489 0 01.226-.23.984.984 0 01.488-.13zM80.037 17.854l-1.236 2.943-1.268-2.943zm.15-.397h-2.82l-.494-1.15c-.122-.283-.183-.494-.183-.634 0-.111.053-.21.16-.293.104-.084.333-.138.683-.163v-.2H75.24v.2c.305.053.501.123.591.209.183.172.385.522.606 1.047L79 22.467h.187l2.536-6.058c.205-.487.39-.803.556-.948.166-.145.4-.226.696-.244v-.2h-2.874v.2c.29.014.486.063.588.145a.373.373 0 01.153.3c0 .158-.072.407-.215.747zM89.349 17.031l.177-.037-.623-1.977h-5.64v.2h.274c.308 0 .529.1.66.3.077.115.114.38.114.795v4.7c0 .455-.05.74-.15.853-.14.158-.348.236-.624.236h-.273v.2h3.297v-.2c-.387.004-.657-.03-.814-.107a.658.658 0 01-.32-.284c-.057-.115-.085-.389-.085-.822v-4.576c0-.298.028-.502.086-.613a.388.388 0 01.199-.166c.089-.036.368-.054.838-.054h.53c.56 0 .953.041 1.177.124.227.082.432.228.618.438.187.21.372.54.559.99M92.006 21.903v-2.879h1.601c.415 0 .692.063.833.19.185.163.29.453.31.868h.2v-2.535h-.2c-.05.355-.099.582-.15.682a.679.679 0 01-.317.296c-.146.071-.372.107-.676.107h-1.6v-2.4c0-.323.014-.519.042-.589a.336.336 0 01.15-.167c.072-.04.208-.06.41-.06h1.234c.412 0 .711.027.897.085.186.057.366.17.537.34.222.22.45.555.682 1.002h.215l-.629-1.826h-5.612v.2h.258c.171 0 .335.04.49.123a.452.452 0 01.232.257c.041.115.062.35.062.703v4.733c0 .462-.047.746-.14.853-.129.144-.344.215-.644.215h-.258v.2h5.612l.081-1.596h-.21c-.074.384-.158.646-.249.79a.853.853 0 01-.405.327c-.144.055-.397.081-.758.081zM101.414 22.467v-2.52h-.198c-.065.485-.18.87-.347 1.157a1.795 1.795 0 01-.71.68 1.973 1.973 0 01-.958.253c-.372 0-.68-.113-.924-.341-.243-.227-.365-.485-.365-.776 0-.222.077-.424.231-.606.222-.27.75-.627 1.585-1.075.68-.365 1.145-.645 1.394-.84a2.05 2.05 0 00.574-.69c.135-.265.202-.543.202-.833 0-.552-.214-1.026-.642-1.426-.428-.4-.979-.598-1.652-.598-.21 0-.41.015-.596.048a5.838 5.838 0 00-.69.196c-.349.112-.57.169-.664.169a.281.281 0 01-.212-.081c-.05-.053-.09-.164-.115-.332h-.198v2.497h.198c.093-.523.22-.914.376-1.174.157-.26.398-.476.723-.647a2.237 2.237 0 011.066-.258c.447 0 .801.119 1.061.355.26.237.388.516.388.838 0 .179-.048.359-.147.542a1.62 1.62 0 01-.459.51c-.14.108-.52.336-1.144.685-.623.349-1.066.627-1.33.835a2.252 2.252 0 00-.598.688 1.706 1.706 0 00-.204.827c0 .522.2.973.601 1.35.401.379.911.567 1.531.567.387 0 .796-.095 1.23-.284.2-.09.342-.134.425-.134.092 0 .17.027.227.083.06.056.107.167.143.335z" fill="#1a171b"/></g></svg>