<svg xmlns="http://www.w3.org/2000/svg" xmlns:xlink="http://www.w3.org/1999/xlink" xml:space="preserve" version="1.1" style="shape-rendering:geometricPrecision;text-rendering:geometricPrecision;image-rendering:optimizeQuality;" viewBox="0 0 847 1058.75" x="0px" y="0px" fill-rule="evenodd" clip-rule="evenodd"><defs><style type="text/css">
   
    .fil0 {fill:black}
   
  </style></defs><g><path class="fil0" d="M443 90l0 112c0,26 -39,26 -39,0l0 -112c0,-26 39,-26 39,0zm-20 185c-138,0 -251,112 -251,250 0,139 113,251 251,251 139,0 251,-112 251,-251 0,-138 -112,-250 -251,-250zm0 444c-106,0 -193,-87 -193,-194 0,-106 87,-193 193,-193 107,0 194,87 194,193 0,107 -87,194 -194,194zm0 -352c-87,0 -158,71 -158,158 0,88 71,159 158,159 87,0 158,-71 158,-159 0,-87 -71,-158 -158,-158zm136 158c0,34 -28,62 -62,62 -32,0 -61,-29 -61,-62 0,-33 27,-60 60,-61 34,0 63,27 63,61zm32 -402l-39 105c-8,24 -45,11 -36,-13l38 -106c9,-24 46,-11 37,14zm127 81l-72 86c-16,20 -46,-5 -30,-25l72 -86c17,-20 47,5 30,25zm92 121l-97 56c-22,13 -42,-21 -19,-34l97 -56c22,-13 42,21 19,34zm-754 -34l97 56c22,13 3,47 -20,34l-97 -56c-22,-13 -3,-47 20,-34zm102 -112l72 86c17,20 -13,45 -30,25l-72 -86c-16,-20 14,-45 30,-25zm135 -70l38 106c9,24 -28,37 -37,13l-38 -105c-9,-25 28,-38 37,-14z"/></g><text x="0" y="862" fill="#000000" font-size="5px" font-weight="bold" font-family="'Helvetica Neue', Helvetica, Arial-Unicode, Arial, Sans-serif">Created by suib icon</text><text x="0" y="867" fill="#000000" font-size="5px" font-weight="bold" font-family="'Helvetica Neue', Helvetica, Arial-Unicode, Arial, Sans-serif">from the Noun Project</text></svg>