<?xml version="1.0" encoding="utf-8"?>
<!-- Generator: Adobe Illustrator 19.2.1, SVG Export Plug-In . SVG Version: 6.00 Build 0)  -->
<svg version="1.1" id="Calque_1" xmlns="http://www.w3.org/2000/svg" xmlns:xlink="http://www.w3.org/1999/xlink" x="0px" y="0px"
	 viewBox="0 0 124 124" style="enable-background:new 0 0 124 124;" xml:space="preserve">
<style type="text/css">
	.st0{fill:#E7362A;}
	.st1{fill:#5A91CC;}
	.st2{fill:#0D55A3;}
</style>
<g>
	<rect x="29.4" y="24" class="st0" width="65.4" height="65.4"/>
	<path class="st1" d="M49.5,64.3C52.2,68.4,56.8,71,62,71c8.3,0,15-6.7,15-15c0-0.8-0.1-1.6-0.2-2.4c-0.7-4.4-3.3-8.2-7-10.4
		c-2.3-1.4-5-2.2-7.9-2.2c-2.6,0-5,0.6-7.1,1.8c-1.8,0.9-3.3,2.2-4.6,3.8c-1.8,2.2-2.9,4.8-3.3,7.7c0.2,0.5,0.1,1.1,0.1,1.7
		C47,59.1,48,61.9,49.5,64.3"/>
	<polyline class="st2" points="58,51.2 57.7,51.8 57.1,51.4 57.2,51.1 58,51.2 	"/>
	<polyline class="st2" points="62.1,48.3 62.9,48.6 63,49.2 60.8,50.6 59.8,50.3 59.8,49.9 60.4,49.4 62.1,48.3 	"/>
	<polyline class="st2" points="60.9,48.4 60.2,49.1 59.3,49.7 59,49.4 59.6,48.5 60.2,48.4 60.6,47.8 60.8,47.8 60.9,48.4 	"/>
	<polyline class="st2" points="62.2,46.2 61.1,47.3 60.6,47 62,45.9 62.2,46.2 	"/>
	<polyline class="st2" points="52.1,50.9 52,52 51.5,52 51.8,50.2 52,50.2 52.1,50.6 52.1,50.9 	"/>
	<polyline class="st2" points="52.3,52.4 52.2,53 51.9,52.9 51.7,52.7 51.8,52.3 52.3,52.4 	"/>
	<polyline class="st2" points="52.3,53.2 52.4,53.6 52.1,53.6 52,53.3 52.3,53.2 	"/>
	<polyline class="st2" points="52.4,53.8 52.5,54 52.3,54.1 52.2,53.9 52.4,53.8 	"/>
	<path class="st2" d="M52.3,54.5L52.3,54.5l0.1-0.2l0.1,0.2C52.5,54.4,52.3,54.5,52.3,54.5"/>
	<polyline class="st2" points="62.3,53.5 62.4,53.3 62.7,53.5 62.6,53.8 62.7,53.8 62.5,54.6 61.9,54.5 62.3,53.6 62.3,53.5 	"/>
	<polyline class="st2" points="61.6,54 61.9,54 61.8,54.3 61.4,54.2 61.6,54 	"/>
	<path class="st2" d="M68.8,66.2c-0.2,0.3-0.3,0.5-0.6,0.8c-0.3,0.3-0.9,0.7-1.1,0.8l-0.8,0.3h-0.2L66,67.8l1.3-1.3l0.6-0.1l0.5-0.3
		L68.8,66.2"/>
	<polyline class="st2" points="68.2,67.9 67.9,68.1 67.7,67.9 68,67.7 68.2,67.9 	"/>
	<polyline class="st2" points="63.2,56.5 63.1,56.9 62.9,56.9 62.9,56.6 63.1,56.6 63.2,56.5 	"/>
	<polyline class="st2" points="52.2,54.8 51.9,54.9 51.9,54.6 52.1,54.5 52.2,54.8 	"/>
	<path class="st2" d="M49.5,64.3C47.9,61.9,47,59.1,47,56c0-0.6,0-1.2,0.1-1.8l1.2-1.3l1.2-0.2L49.3,52l0.7-2.6l0.3-0.9l0.1-2
		c1.3-1.5,2.8-2.8,4.6-3.8l0.7,0.1l2.1,0.3c0,0,2.1,0.5,3.1,0.4c1.5-0.1,2.3-0.7,2.7-0.9l0.1,0.1l-0.5,0.4l0.4,0.2l0.2,0.5v0.7
		l-0.2,0.1l-0.9,0.6l-1.2,0.6L60.2,47l0.3,0.3L60,48.1L59.5,48v-0.2l-0.8-0.5l-0.9,0.9l1.1,0.2l0.1,0.3l-0.7,0.9l0.7,0.3L58.2,51
		l-1.1-0.1l-0.4,0.4l-1.3-0.7l-2.1-0.7l-0.5,0.9l-0.4-0.3l0.3-0.6l0.5-0.4c0,0-0.6-1.4-0.7-1.5c-0.2-0.1-0.4-0.3-0.7-0.4
		c-0.1,0-0.2,0-0.3,0c-0.3,0-0.8,0.3-0.8,0.6v0.4v0.1l0.5,0.5v0.3h-0.7l-0.9,2.3l1.4,2.1l0.2,0.4c0,0,0.4,1.6,0.5,2.1
		c0.3,1,0.4,2.4,0.4,2.4l1.5,2.2l-0.1,0.9l-2.3,1.7l-0.9-0.2L49.5,64.3"/>
	<path class="st2" d="M70,43.2l-1.9,0.2l-0.3-0.1l-1.2,0.1l-0.3-0.1l-2,0.5l-0.1,0.7l2.4,2.7l-0.1,0.6h-0.4L66,48.4l0.5,2.3
		l-0.8,0.7l0.1,0.7h-0.3l-0.2-0.5l-0.9-0.3l-0.7,0.9L63.1,53l0.3,0.5H64l0.1,0.3h0.2l0.4-1.1l0.2,0.2l-0.3,0.6l0.1,0.1l-0.2,0.6
		l-0.6,0.2c-0.1-0.2-0.2-0.4-0.2-0.4h-0.2l-0.1,0.5L63,54.6l-0.2,0.3c-0.1,0.1-0.3,0.2-0.5,0.1c-0.2,0-0.5-0.1-0.5-0.1
		s-0.1,0.2-0.1,0.1l0.1,0.1c0,0,0.1,0.1,0.1,0.3c0,0.2-0.2,0.3-0.5,0.3c-0.1,0-0.2,0-0.3,0H61l-0.3,0.8l0.9,0.7c0,0,0.4-0.3,0.9-0.7
		c0.1-0.1,0.4-0.2,0.6-0.2c0.1,0,0.2,0.1,0.3,0.1c0.3,0.2,0.5,0.7,0.5,0.7h-0.1v0.1l0.4-0.1l-0.4-0.9h0.1l0.8,0.8l2.1,0.6l-0.4,1.1
		l-1.7-0.4h-0.4l-0.8-0.6l-2.8-0.4L59.3,58c-0.2,0.1-0.4,0.3-0.6,0.8c-0.4,0.8-0.6,1.3-0.7,1.5l-0.1,0.4l0.9,1.7l2.1,2.1
		c0.1,0.1,0,0.6-0.4,1.1c-0.1,0.1-0.2,0.6-0.5,1.2c-0.1,0.5-0.4,0.8-0.6,1.1c-0.6,0.6-0.9,1-0.9,1l-0.4,1c0,0,0,0.1,0.1,0.1
		c0.5,0.2,1.1,0.3,1.6,0.3c0.8,0,1.7-0.2,2.5-0.6c0.4-0.2,0.9-0.5,1.3-0.8c0.5-0.3,0.8-0.6,1.2-0.9c0,0,0.3-0.2,0.7-0.6
		c0.3-0.3,0.6-0.5,0.8-0.6c0.1-0.1,0.2-0.1,0.2-0.2l0.7-1.9l1.6-1.6l0.8-1.4l-0.2-0.4l-0.8,0.2l-2.1-2.4L67,59l1.9,2l1-0.8l0.7-1
		l0.3-0.5l0.1-0.3l-0.8-0.6L69.3,58l-0.5-0.4l1.1-0.3l0.9,0.2l1.4-0.3l1.8,1.5h0.6C75,58,75,57.9,75,57.3c0-0.6-0.1-1.2-0.2-1.8
		c-0.1-0.3-0.1-0.5-0.1-0.6v-0.2l0.4-0.3l0.7,0.2l1.2-1C76.2,49.2,73.6,45.5,70,43.2 M70.4,44l-0.7,0.4L69.1,45l-1.6-0.9l2.4-0.5
		L70.4,44z"/>
	<path class="st2" d="M38.3,11.1L37,7.3l-1.3,3.8H38.3 M35.4,4.8h3.1l3.9,9.6h-3l-0.6-1.6h-3.9l-0.6,1.6h-3L35.4,4.8z"/>
	<path class="st2" d="M49.9,12.1c1.5,0,2.2-0.8,2.2-2.5c0-1.3-0.5-2.5-2.1-2.5h-0.8v5H49.9 M46.1,4.8h4.3c3.3,0,4.7,2.7,4.7,4.9
		c0,2.2-1.2,4.6-4.1,4.6h-4.8V4.8H46.1z"/>
	<polyline class="st2" points="59.5,4.8 65.9,4.8 65.9,6.8 62.5,6.8 62.5,8.5 65.6,8.5 65.6,10.5 62.5,10.5 62.5,12.3 66,12.3 
		66,14.3 59.5,14.3 59.5,4.8 	"/>
	<polyline class="st2" points="73.6,14.3 70.6,14.3 70.6,4.8 73.3,4.8 75.8,8.7 78.4,4.8 81.1,4.8 81.1,14.3 78.1,14.3 78.2,9.2 
		78.1,9.2 75.8,12.7 73.5,9.2 73.6,14.3 	"/>
	<polyline class="st2" points="86,4.8 92.4,4.8 92.4,6.8 89,6.8 89,8.5 92.1,8.5 92.1,10.5 89,10.5 89,12.3 92.5,12.3 92.5,14.3 
		86,14.3 86,4.8 	"/>
	<path class="st2" d="M11.6,102.2h1.7l-0.9-2.2L11.6,102.2 M15.2,104.8h-0.8l-0.7-1.8h-2.4l-0.7,1.8H9.8l2.4-6.2h0.6L15.2,104.8z"/>
	<path class="st2" d="M17.4,105c-0.5,0-0.8,0.3-0.8,0.6c0,0.4,0.4,0.6,1,0.6s1-0.2,1-0.6C18.6,105.1,17.8,105,17.4,105 M17.6,101.4
		c-0.4,0-0.7,0.3-0.7,0.7c0,0.4,0.3,0.7,0.7,0.7c0.4,0,0.7-0.3,0.7-0.8C18.3,101.7,17.9,101.4,17.6,101.4z M19.3,101.3h-0.8
		c0.3,0.3,0.4,0.5,0.4,0.9c0,0.3-0.2,0.7-0.3,0.9c-0.5,0.6-1.5,0.3-1.5,0.8c0,0.2,0.4,0.4,1.1,0.5c0.8,0.2,1.1,0.6,1.1,1.1
		c0,0.8-0.6,1.3-1.7,1.3c-1,0-1.7-0.5-1.7-1.2c0-0.6,0.3-1,0.9-1.1c-0.3-0.2-0.4-0.3-0.4-0.5c0-0.3,0.2-0.5,0.6-0.6
		c-0.3-0.1-0.5-0.3-0.6-0.5s-0.2-0.5-0.2-0.8c0-0.9,0.6-1.4,1.6-1.4h1.5L19.3,101.3z"/>
	<path class="st2" d="M22.9,102.3c0-0.6-0.3-1-0.9-1s-0.9,0.4-1,1H22.9 M23.5,104.4c-0.4,0.3-0.8,0.5-1.5,0.5c-1.1,0-1.8-1-1.8-2.2
		s0.7-2.1,1.7-2.1s1.6,0.7,1.6,2.2H21c0.1,0.8,0.5,1.2,1.2,1.2c0.4,0,0.9-0.2,1.3-0.5C23.5,103.6,23.5,104.4,23.5,104.4z"/>
	<path class="st2" d="M25.7,101.2L25.7,101.2c0.3-0.4,0.7-0.6,1.1-0.6c0.7,0,1.2,0.5,1.2,1.6v2.5h-0.7v-2.5c0-0.6-0.3-1-0.7-1
		c-0.3,0-0.6,0.2-0.9,0.6v2.9H25v-4.1h0.7V101.2"/>
	<path class="st2" d="M32.4,101.8c-0.4-0.3-0.7-0.4-1-0.4c-0.7,0-1.1,0.6-1.1,1.4s0.5,1.4,1.2,1.4c0.3,0,0.6-0.1,1-0.3v0.8
		c-0.2,0.1-0.7,0.2-1.1,0.2c-1.1,0-1.9-0.8-1.9-2c0-1.3,0.7-2.2,1.8-2.2c0.4,0,0.7,0.1,1.1,0.3L32.4,101.8"/>
	<path class="st2" d="M36.3,102.3c0-0.6-0.3-1-0.9-1c-0.6,0-0.9,0.4-1,1H36.3 M36.9,104.4c-0.4,0.3-0.8,0.5-1.5,0.5
		c-1.1,0-1.8-1-1.8-2.2s0.7-2.1,1.7-2.1s1.6,0.7,1.6,2.2h-2.6c0.1,0.8,0.5,1.2,1.2,1.2c0.4,0,0.9-0.2,1.3-0.5L36.9,104.4z"/>
	<path class="st2" d="M43.5,101.5c-0.2-0.1-0.4-0.2-0.7-0.2c-0.7,0-1.2,0.6-1.2,1.4s0.3,1.3,1.1,1.3h0.7L43.5,101.5 M44.2,104.8
		h-1.5c-1.1,0-1.8-0.8-1.8-2.1c0-1.2,0.8-2,1.8-2c0.2,0,0.5,0,0.8,0.2v-2.2h0.7V104.8z"/>
	<path class="st2" d="M48.2,102.3c0-0.6-0.3-1-0.9-1c-0.6,0-0.9,0.4-1,1H48.2 M48.8,104.4c-0.4,0.3-0.8,0.5-1.5,0.5
		c-1.1,0-1.8-1-1.8-2.2s0.7-2.1,1.7-2.1s1.6,0.7,1.6,2.2h-2.6c0.1,0.8,0.5,1.2,1.2,1.2c0.4,0,0.9-0.2,1.3-0.5L48.8,104.4z"/>
	<rect x="53" y="98.6" class="st2" width="0.7" height="6.2"/>
	<polyline class="st2" points="55.2,99.3 55.2,98.3 56,98.3 56,99.3 55.8,100.6 55.4,100.6 55.2,99.3 	"/>
	<polyline class="st2" points="60.8,99.4 58.4,99.4 58.4,101.3 60.7,101.3 60.7,102.1 58.4,102.1 58.4,104 60.8,104 60.8,104.8 
		57.6,104.8 57.6,98.6 60.8,98.6 60.8,99.4 	"/>
	<path class="st2" d="M62.9,101.2L62.9,101.2c0.3-0.4,0.7-0.6,1.1-0.6c0.7,0,1.3,0.5,1.3,1.6v2.5h-0.7v-2.5c0-0.6-0.3-1-0.7-1
		c-0.3,0-0.6,0.2-0.9,0.6v2.9h-0.7v-4.1H63L62.9,101.2"/>
	<polyline class="st2" points="66.3,100.7 67.1,100.7 68,103.2 69,100.7 69.8,100.7 68.2,104.9 67.9,104.9 66.3,100.7 	"/>
	<path class="st2" d="M71.3,99.9c-0.2,0-0.4-0.2-0.4-0.5s0.2-0.5,0.4-0.5c0.2,0,0.4,0.2,0.4,0.5C71.8,99.7,71.6,99.9,71.3,99.9
		 M71.7,104.8H71v-4.1h0.7V104.8z"/>
	<path class="st2" d="M74.1,100.7v0.9c0.4-0.7,0.7-1,1.1-1c0.3,0,0.6,0.2,0.9,0.5l-0.4,0.7c-0.2-0.2-0.5-0.4-0.7-0.4
		c-0.5,0-0.9,0.6-0.9,1.3v2.1h-0.7v-4.1H74.1"/>
	<path class="st2" d="M77.5,102.7c0,0.9,0.5,1.4,1.2,1.4c0.8,0,1.2-0.5,1.2-1.4c0-0.8-0.5-1.4-1.2-1.4
		C78,101.3,77.5,101.9,77.5,102.7 M80.7,102.7c0,1.3-0.8,2.2-2,2.2c-1.1,0-1.9-0.9-1.9-2.2c0-1.2,0.8-2.1,1.9-2.1
		C79.8,100.6,80.7,101.5,80.7,102.7z"/>
	<path class="st2" d="M82.8,101.2L82.8,101.2c0.3-0.4,0.7-0.6,1.1-0.6c0.7,0,1.2,0.5,1.2,1.6v2.5h-0.7v-2.5c0-0.6-0.3-1-0.7-1
		c-0.3,0-0.6,0.2-0.9,0.6v2.9h-0.7v-4.1h0.7V101.2"/>
	<path class="st2" d="M87.5,101.2L87.5,101.2c0.3-0.4,0.7-0.6,1.1-0.6c0.7,0,1.2,0.5,1.2,1.6v2.5h-0.7v-2.5c0-0.6-0.3-1-0.7-1
		c-0.3,0-0.6,0.2-0.9,0.6v2.9h-0.7v-4.1h0.7V101.2"/>
	<path class="st2" d="M93.9,102.3c0-0.6-0.3-1-0.9-1s-0.9,0.4-1,1H93.9 M94.5,104.4c-0.4,0.3-0.8,0.5-1.5,0.5c-1.1,0-1.8-1-1.8-2.2
		s0.7-2.1,1.7-2.1s1.6,0.7,1.6,2.2H92c0.1,0.8,0.5,1.2,1.2,1.2c0.4,0,0.9-0.2,1.3-0.5V104.4z"/>
	<path class="st2" d="M96.7,100.7v0.5c0.4-0.4,0.7-0.6,1.1-0.6c0.5,0,0.8,0.3,1.1,0.7c0.3-0.4,0.7-0.7,1.2-0.7
		c0.7,0,1.2,0.6,1.2,1.6v2.6h-0.7v-2.5c0-0.6-0.3-1-0.8-1c-0.2,0-0.6,0.2-0.8,0.5v3h-0.7v-2.5c0-0.7-0.3-0.9-0.7-0.9
		c-0.4,0-0.6,0.1-0.9,0.5v3H96v-4.1L96.7,100.7"/>
	<path class="st2" d="M105.3,102.3c0-0.6-0.3-1-0.9-1s-0.9,0.4-1,1H105.3 M105.9,104.4c-0.4,0.3-0.8,0.5-1.5,0.5
		c-1.1,0-1.8-1-1.8-2.2s0.7-2.1,1.7-2.1s1.6,0.7,1.6,2.2h-2.6c0.1,0.8,0.5,1.2,1.2,1.2c0.4,0,0.9-0.2,1.3-0.5L105.9,104.4z"/>
	<path class="st2" d="M108.1,101.2L108.1,101.2c0.3-0.4,0.7-0.6,1.1-0.6c0.7,0,1.2,0.5,1.2,1.6v2.5h-0.7v-2.5c0-0.6-0.3-1-0.7-1
		c-0.3,0-0.6,0.2-0.9,0.6v2.9h-0.7v-4.1h0.7V101.2"/>
	<path class="st2" d="M112.9,100.7h1.2v0.7h-1.2v2.1c0,0.5,0.3,0.6,0.5,0.6c0.3,0,0.5-0.1,0.8-0.3v0.7c-0.3,0.2-0.6,0.3-0.9,0.3
		c-0.8,0-1.2-0.5-1.2-1.3v-2.1h-0.6v-0.1l1.4-1.5L112.9,100.7"/>
	<path class="st2" d="M12.2,114.7c0-0.6-0.3-1-0.9-1c-0.6,0-0.9,0.4-1,1H12.2 M12.8,116.7c-0.4,0.3-0.8,0.5-1.5,0.5
		c-1.1,0-1.8-1-1.8-2.2s0.7-2.1,1.7-2.1s1.6,0.7,1.6,2.2h-2.6c0.1,0.8,0.5,1.2,1.2,1.2c0.4,0,0.9-0.2,1.3-0.5L12.8,116.7L12.8,116.7
		z"/>
	<path class="st2" d="M15,113.1h1.2v0.7H15v2.1c0,0.5,0.3,0.6,0.5,0.6c0.3,0,0.5-0.1,0.8-0.3v0.7c-0.3,0.2-0.6,0.3-0.9,0.3
		c-0.8,0-1.2-0.5-1.2-1.3v-2.1h-0.6v-0.1l1.4-1.5L15,113.1"/>
	<path class="st2" d="M22.2,113.9c-0.2-0.1-0.4-0.2-0.7-0.2c-0.7,0-1.2,0.6-1.2,1.4s0.3,1.3,1.1,1.3h0.7L22.2,113.9 M22.9,117.1
		h-1.5c-1.1,0-1.8-0.8-1.8-2.1c0-1.2,0.8-2,1.8-2c0.2,0,0.5,0,0.8,0.2V111h0.7V117.1z"/>
	<path class="st2" d="M26.8,114.7c0-0.6-0.3-1-0.9-1s-0.9,0.4-1,1H26.8 M27.4,116.7c-0.4,0.3-0.8,0.5-1.5,0.5c-1.1,0-1.8-1-1.8-2.2
		s0.7-2.1,1.7-2.1s1.6,0.7,1.6,2.2h-2.6c0.1,0.8,0.5,1.2,1.2,1.2c0.4,0,0.9-0.2,1.3-0.5L27.4,116.7L27.4,116.7z"/>
	<rect x="31.2" y="110.9" class="st2" width="0.7" height="6.2"/>
	<path class="st2" d="M35.1,115.1c-0.6,0.2-1.2,0.5-1.2,1c0,0.3,0.2,0.6,0.5,0.6c0.2,0,0.4-0.1,0.6-0.3v-1.3 M36.3,116.9
		c-0.3,0.2-0.5,0.3-0.7,0.3c-0.3,0-0.5-0.1-0.6-0.4c-0.3,0.3-0.7,0.4-1,0.4c-0.5,0-0.9-0.5-0.9-1c0-0.8,0.7-1.1,1.2-1.3l0.6-0.3
		v-0.2c0-0.5-0.2-0.7-0.7-0.7c-0.4,0-0.8,0.2-1.2,0.7v-0.9c0.3-0.4,0.7-0.6,1.2-0.6c0.7,0,1.3,0.4,1.3,1.3v2.1c0,0.2,0,0.2,0.1,0.2
		s0.2-0.1,0.4-0.2L36.3,116.9z"/>
	<polyline class="st2" points="45.2,117.1 44.4,117.1 44.4,112.3 44.3,112.3 42.6,114.7 42.5,114.7 40.8,112.3 40.8,117.1 40,117.1 
		40,110.9 40.7,110.9 42.6,113.5 44.4,110.9 45.2,110.9 45.2,117.1 	"/>
	<path class="st2" d="M48.3,115.1c-0.6,0.2-1.2,0.5-1.2,1c0,0.3,0.2,0.6,0.5,0.6c0.2,0,0.4-0.1,0.6-0.3v-1.3 M49.5,116.9
		c-0.3,0.2-0.5,0.3-0.7,0.3c-0.3,0-0.5-0.1-0.6-0.4c-0.3,0.3-0.7,0.4-1,0.4c-0.5,0-0.9-0.5-0.9-1c0-0.8,0.7-1.1,1.2-1.3l0.6-0.3
		v-0.2c0-0.5-0.2-0.7-0.7-0.7c-0.4,0-0.8,0.2-1.2,0.7v-0.9c0.3-0.4,0.7-0.6,1.2-0.6c0.7,0,1.3,0.4,1.3,1.3v2.1c0,0.2,0,0.2,0.1,0.2
		s0.2-0.1,0.4-0.2L49.5,116.9z"/>
	<path class="st2" d="M52.1,112.5h-0.4l-0.7-0.8l-0.7,0.8h-0.4l0.7-1.4h0.8L52.1,112.5 M51.4,117.1h-0.7V113h0.7V117.1z"/>
	<path class="st2" d="M53.7,113.1h1.2v0.7h-1.2v2.1c0,0.5,0.3,0.6,0.5,0.6c0.3,0,0.5-0.1,0.8-0.3v0.7c-0.3,0.2-0.6,0.3-0.9,0.3
		c-0.8,0-1.2-0.5-1.2-1.3v-2.1h-0.6v-0.1l1.4-1.5V113.1"/>
	<path class="st2" d="M56.8,113.1v0.9c0.4-0.7,0.7-1,1.1-1c0.3,0,0.6,0.2,0.9,0.5l-0.4,0.7c-0.2-0.2-0.5-0.4-0.7-0.4
		c-0.5,0-0.9,0.6-0.9,1.3v2.1h-0.7v-4.1H56.8"/>
	<path class="st2" d="M60.1,112.3c-0.2,0-0.4-0.2-0.4-0.5s0.2-0.5,0.4-0.5s0.4,0.2,0.4,0.5C60.5,112.1,60.3,112.3,60.1,112.3
		 M60.4,117.1h-0.7V113h0.7V117.1z"/>
	<path class="st2" d="M64.1,114.1c-0.4-0.3-0.8-0.4-1.1-0.4s-0.5,0.2-0.5,0.4c0,0.2,0.2,0.4,0.9,0.8c0.6,0.4,0.8,0.7,0.8,1.1
		c0,0.7-0.5,1.2-1.2,1.2c-0.4,0-0.8-0.1-1.3-0.4V116c0.5,0.4,0.9,0.5,1.2,0.5s0.5-0.2,0.5-0.5c0-0.6-1.7-0.9-1.7-2
		c0-0.7,0.5-1.1,1.2-1.1c0.3,0,0.7,0.1,1.1,0.3L64.1,114.1"/>
	<path class="st2" d="M67.9,114.7c0-0.6-0.3-1-0.9-1s-0.9,0.4-1,1H67.9 M68.6,116.7c-0.4,0.3-0.8,0.5-1.5,0.5c-1.1,0-1.8-1-1.8-2.2
		s0.7-2.1,1.7-2.1s1.6,0.7,1.6,2.2H66c0.1,0.8,0.5,1.2,1.2,1.2c0.4,0,0.9-0.2,1.3-0.5L68.6,116.7z"/>
	<path class="st2" d="M74.8,113.9c-0.2-0.1-0.4-0.2-0.7-0.2c-0.7,0-1.2,0.6-1.2,1.4s0.3,1.3,1.1,1.3h0.7L74.8,113.9 M75.5,117.1H74
		c-1.1,0-1.8-0.8-1.8-2.1c0-1.2,0.8-2,1.8-2c0.2,0,0.5,0,0.8,0.2V111h0.7V117.1z"/>
	<path class="st2" d="M79.4,114.7c0-0.6-0.3-1-0.9-1s-0.9,0.4-1,1H79.4 M80,116.7c-0.4,0.3-0.8,0.5-1.5,0.5c-1.1,0-1.8-1-1.8-2.2
		s0.7-2.1,1.7-2.1s1.6,0.7,1.6,2.2h-2.6c0.1,0.8,0.5,1.2,1.2,1.2c0.4,0,0.9-0.2,1.3-0.5L80,116.7z"/>
	<rect x="83.8" y="110.9" class="st2" width="0.7" height="6.2"/>
	<polyline class="st2" points="85.9,111.7 85.9,110.6 86.7,110.6 86.7,111.7 86.5,112.9 86.1,112.9 85.9,111.7 	"/>
	<polyline class="st2" points="91.3,111.7 88.9,111.7 88.9,113.6 91.2,113.6 91.2,114.4 88.9,114.4 88.9,116.3 91.4,116.3 
		91.4,117.1 88.1,117.1 88.1,110.9 91.3,110.9 91.3,111.7 	"/>
	<path class="st2" d="M93.3,113.6L93.3,113.6c0.3-0.4,0.7-0.6,1.1-0.6c0.7,0,1.3,0.5,1.3,1.6v2.5H95v-2.5c0-0.6-0.3-1-0.7-1
		c-0.3,0-0.6,0.2-0.9,0.6v2.9h-0.7V113h0.7v0.6"/>
	<path class="st2" d="M99.5,114.7c0-0.6-0.3-1-0.9-1s-0.9,0.4-1,1H99.5 M100.1,116.7c-0.4,0.3-0.8,0.5-1.5,0.5c-1.1,0-1.8-1-1.8-2.2
		s0.7-2.1,1.7-2.1s1.6,0.7,1.6,2.2h-2.6c0.1,0.8,0.5,1.2,1.2,1.2c0.4,0,0.9-0.2,1.3-0.5L100.1,116.7z"/>
	<path class="st2" d="M102.2,113.1v0.9c0.4-0.7,0.7-1,1.1-1c0.3,0,0.6,0.2,0.9,0.5l-0.4,0.7c-0.2-0.2-0.5-0.4-0.7-0.4
		c-0.5,0-0.9,0.6-0.9,1.3v2.1h-0.7v-4.1H102.2"/>
	<path class="st2" d="M106.1,117.3c-0.5,0-0.8,0.3-0.8,0.6c0,0.4,0.4,0.6,1,0.6s1-0.2,1-0.6C107.3,117.5,106.6,117.3,106.1,117.3
		 M106.3,113.8c-0.4,0-0.7,0.3-0.7,0.7c0,0.4,0.3,0.7,0.7,0.7c0.4,0,0.7-0.3,0.7-0.8C107,114.1,106.7,113.8,106.3,113.8z M108,113.7
		h-0.7c0.3,0.3,0.4,0.5,0.4,0.9c0,0.3-0.2,0.7-0.3,0.9c-0.5,0.6-1.5,0.3-1.5,0.8c0,0.2,0.4,0.4,1.1,0.5c0.8,0.2,1.1,0.6,1.1,1.1
		c0,0.8-0.6,1.3-1.7,1.3c-1,0-1.7-0.5-1.7-1.2c0-0.6,0.3-1,0.9-1.1c-0.3-0.2-0.4-0.3-0.4-0.5c0-0.3,0.2-0.5,0.6-0.6
		c-0.3-0.1-0.5-0.3-0.6-0.5s-0.2-0.5-0.2-0.8c0-0.9,0.6-1.4,1.6-1.4h1.5L108,113.7z"/>
	<path class="st2" d="M109.4,112.3c-0.2,0-0.4-0.2-0.4-0.5s0.2-0.5,0.4-0.5c0.2,0,0.4,0.2,0.4,0.5
		C109.9,112.1,109.7,112.3,109.4,112.3 M109.8,117.1h-0.7V113h0.7V117.1z"/>
	<path class="st2" d="M113.7,114.7c0-0.6-0.3-1-0.9-1s-0.9,0.4-1,1H113.7 M114.3,116.7c-0.4,0.3-0.8,0.5-1.5,0.5
		c-1.1,0-1.8-1-1.8-2.2s0.7-2.1,1.7-2.1s1.6,0.7,1.6,2.2h-2.6c0.1,0.8,0.5,1.2,1.2,1.2c0.4,0,0.9-0.2,1.3-0.5L114.3,116.7z"/>
</g>
</svg>
