<?xml version="1.0" encoding="UTF-8" standalone="no"?>
<!-- Created with Inkscape (http://www.inkscape.org/) -->

<svg
   xmlns:dc="http://purl.org/dc/elements/1.1/"
   xmlns:cc="http://creativecommons.org/ns#"
   xmlns:rdf="http://www.w3.org/1999/02/22-rdf-syntax-ns#"
   xmlns:svg="http://www.w3.org/2000/svg"
   xmlns="http://www.w3.org/2000/svg"
   xmlns:sodipodi="http://sodipodi.sourceforge.net/DTD/sodipodi-0.dtd"
   xmlns:inkscape="http://www.inkscape.org/namespaces/inkscape"
   version="1.1"
   id="svg2"
   xml:space="preserve"
   width="209.99974"
   height="113.66"
   viewBox="0 0 209.99974 113.66"
   sodipodi:docname="Agence Nationale pour la Rénovation Urbaine (logo).svg"
   inkscape:version="0.92.2 (5c3e80d, 2017-08-06)"><metadata
     id="metadata8"><rdf:RDF><cc:Work
         rdf:about=""><dc:format>image/svg+xml</dc:format><dc:type
           rdf:resource="http://purl.org/dc/dcmitype/StillImage" /><dc:title></dc:title></cc:Work></rdf:RDF></metadata><defs
     id="defs6"><clipPath
       clipPathUnits="userSpaceOnUse"
       id="clipPath18"><path
         d="M 1.712,864.167 H 574.866 V 0.529 H 1.712 Z"
         id="path16"
         inkscape:connector-curvature="0" /></clipPath><clipPath
       clipPathUnits="userSpaceOnUse"
       id="clipPath24"><path
         d="M 1.712,863.257 H 574.33 V 0.5 H 1.712 Z"
         id="path22"
         inkscape:connector-curvature="0" /></clipPath><clipPath
       clipPathUnits="userSpaceOnUse"
       id="clipPath30"><path
         d="M 20.712,842.5 H 575.287 V 0.5 H 20.712 Z"
         id="path28"
         inkscape:connector-curvature="0" /></clipPath><clipPath
       clipPathUnits="userSpaceOnUse"
       id="clipPath44"><path
         d="m 472.022,590.626 h 16.494 v 14.328 h -16.494 z"
         id="path42"
         inkscape:connector-curvature="0" /></clipPath><clipPath
       clipPathUnits="userSpaceOnUse"
       id="clipPath166"><path
         d="m 437.753,83.644 h 63.413 v 32.866 h -63.413 z"
         id="path164"
         inkscape:connector-curvature="0" /></clipPath></defs><sodipodi:namedview
     pagecolor="#ffffff"
     bordercolor="#666666"
     borderopacity="1"
     objecttolerance="10"
     gridtolerance="10"
     guidetolerance="10"
     inkscape:pageopacity="0"
     inkscape:pageshadow="2"
     inkscape:window-width="1920"
     inkscape:window-height="1017"
     id="namedview4"
     showgrid="false"
     fit-margin-top="5"
     fit-margin-left="5"
     fit-margin-right="5"
     fit-margin-bottom="5"
     inkscape:zoom="1.1891486"
     inkscape:cx="255.93249"
     inkscape:cy="125.72899"
     inkscape:window-x="-8"
     inkscape:window-y="-8"
     inkscape:window-maximized="1"
     inkscape:current-layer="g50" /><g
     id="g10"
     inkscape:groupmode="layer"
     inkscape:label="054000539"
     transform="matrix(1.3333333,0,0,-1.3333333,-520.94611,190.26667)"><g
       id="g12"><g
         id="g14"
         clip-path="url(#clipPath18)"><g
           id="g20"
           clip-path="url(#clipPath24)"><g
             id="g26"
             clip-path="url(#clipPath30)"><g
               id="g32"><path
                 d="m 434.874,606.527 h 20.144 v -20.144 h -20.144 z"
                 style="fill:#006ab6;fill-opacity:1;fill-rule:nonzero;stroke:none"
                 id="path34"
                 inkscape:connector-curvature="0" /><path
                 d="m 478.504,616.02 c 2.522,0.271 8.792,-7.483 16.843,-8.45 5.679,-0.683 -1.36,-7.366 -1.323,-12.057 0.04,-5.229 1.311,-6.646 2.425,-8.76 1.256,-2.381 -11.067,-0.437 -13.241,-2.606 -1.896,-1.891 -1.389,-2.886 -1.634,-4.263 -0.245,-1.382 -8.792,0.076 -14.332,3.322 -1.633,0.956 1.838,4.929 1.78,7.643 -0.074,3.412 0.569,7.073 -4.792,9.442 -6.937,3.065 -3.585,6.376 -0.268,6.468 3.841,0.107 9.287,2.148 11.512,5.072 0.981,1.289 1.664,4.042 3.03,4.189"
                 style="fill:#ffffff;fill-opacity:1;fill-rule:evenodd;stroke:none"
                 id="path36"
                 inkscape:connector-curvature="0" /></g></g></g></g></g><g
       id="g38"><g
         id="g40"
         clip-path="url(#clipPath44)"><g
           id="g46"><path
             d="m 472.022,599.851 h 2.468 c 0,0 1.337,-6.928 5.976,-6.928 4.639,0 5.846,6.928 5.846,6.928 0.236,1.495 2.403,1.342 2.189,-0.031 -0.152,-0.973 -1.413,-9.194 -8.065,-9.194 -6.653,0 -8.414,9.225 -8.414,9.225"
             style="fill:#ffffff;fill-opacity:1;fill-rule:nonzero;stroke:none"
             id="path48"
             inkscape:connector-curvature="0" /></g></g></g><g
       id="g50"><g
         id="g4752"
         transform="matrix(2.3654426,0,0,2.3654426,-641.02,-136.65008)"><path
           inkscape:connector-curvature="0"
           id="path80"
           style="fill:#006fb5;fill-opacity:1;fill-rule:nonzero;stroke:none"
           d="m 447.629,104.89 h 9.816 c 0,0 0.17,-0.818 0.17,-1.47 h 2.248 c 0,0 -0.042,1.9 -0.554,3.305 -0.51,1.406 -1.192,2.706 -2.086,3.787 -0.894,1.08 -2.676,2.039 -4.728,2.039 -2.04,0 -3.682,-0.908 -4.709,-2.091 -0.614,-0.707 -1.486,-2.234 -2.08,-4.096 -0.339,-1.064 -0.543,-1.917 -0.571,-2.333 0,0 0.1,-1.002 1.066,-1.002 0.965,0 1.155,0.846 1.155,0.846 0,0 0.273,0.937 0.273,1.015 z m 0.465,1.855 c 0,0 0.231,1.031 1.39,2.432 0.522,0.63 1.394,1.412 3.012,1.412 1.569,0 2.564,-0.738 3.154,-1.503 0.488,-0.633 0.962,-1.502 1.274,-2.341 h -8.83" /><path
           inkscape:connector-curvature="0"
           id="path82"
           style="fill:#006fb5;fill-opacity:1;fill-rule:nonzero;stroke:none"
           d="m 442.626,96.288 -0.577,1.459 -0.577,-1.459 z m 0.512,-1.297 -0.37,0.935 h -1.437 l -0.372,-0.935 h -0.447 l 1.344,3.388 h 0.472 l 1.329,-3.388 h -0.519" /><path
           inkscape:connector-curvature="0"
           id="path84"
           style="fill:#006fb5;fill-opacity:1;fill-rule:nonzero;stroke:none"
           d="m 445.762,95.849 v 1.041 c -0.2,0.207 -0.418,0.31 -0.653,0.31 -0.209,0 -0.373,-0.084 -0.491,-0.25 -0.118,-0.169 -0.178,-0.398 -0.178,-0.69 0,-0.547 0.194,-0.821 0.579,-0.821 0.263,0 0.51,0.137 0.743,0.41 z m -1.596,-1.684 0.052,0.393 c 0.263,-0.126 0.521,-0.189 0.777,-0.189 0.511,0 0.767,0.269 0.767,0.807 v 0.391 c -0.168,-0.348 -0.442,-0.522 -0.824,-0.522 -0.298,0 -0.537,0.109 -0.713,0.327 -0.176,0.217 -0.264,0.511 -0.264,0.88 0,0.38 0.1,0.688 0.301,0.928 0.202,0.239 0.461,0.359 0.78,0.359 0.278,0 0.519,-0.113 0.72,-0.339 v 0.283 h 0.448 v -1.812 c 0,-0.39 -0.02,-0.679 -0.061,-0.866 -0.04,-0.187 -0.116,-0.34 -0.228,-0.46 -0.197,-0.209 -0.505,-0.314 -0.92,-0.314 -0.291,0 -0.569,0.044 -0.835,0.134" /><path
           inkscape:connector-curvature="0"
           id="path86"
           style="fill:#006fb5;fill-opacity:1;fill-rule:nonzero;stroke:none"
           d="m 447.355,96.508 h 1.12 c 0,0.461 -0.177,0.692 -0.529,0.692 -0.353,0 -0.55,-0.231 -0.591,-0.692 z m 1.56,-1.439 c -0.303,-0.089 -0.564,-0.133 -0.779,-0.133 -0.369,0 -0.669,0.121 -0.901,0.365 -0.232,0.244 -0.349,0.559 -0.349,0.947 0,0.377 0.103,0.686 0.307,0.928 0.204,0.241 0.466,0.363 0.784,0.363 0.301,0 0.534,-0.108 0.699,-0.321 0.164,-0.213 0.247,-0.516 0.247,-0.909 l -0.002,-0.139 h -1.587 c 0.066,-0.597 0.36,-0.896 0.88,-0.896 0.191,0 0.424,0.049 0.701,0.149 v -0.354" /><path
           inkscape:connector-curvature="0"
           id="path88"
           style="fill:#006fb5;fill-opacity:1;fill-rule:nonzero;stroke:none"
           d="m 449.697,94.991 v 2.492 h 0.448 v -0.471 c 0.24,0.351 0.534,0.527 0.883,0.527 0.216,0 0.389,-0.069 0.519,-0.206 0.129,-0.137 0.194,-0.321 0.194,-0.552 v -1.79 h -0.448 v 1.641 c 0,0.185 -0.028,0.317 -0.083,0.395 -0.055,0.079 -0.146,0.118 -0.272,0.118 -0.281,0 -0.545,-0.181 -0.793,-0.544 v -1.61 h -0.448" /><path
           inkscape:connector-curvature="0"
           id="path90"
           style="fill:#006fb5;fill-opacity:1;fill-rule:nonzero;stroke:none"
           d="m 453.581,94.936 c -0.337,0 -0.615,0.123 -0.838,0.372 -0.221,0.25 -0.332,0.564 -0.332,0.944 0,0.405 0.11,0.721 0.329,0.947 0.219,0.226 0.524,0.34 0.916,0.34 0.194,0 0.411,-0.024 0.65,-0.071 V 97.09 c -0.254,0.073 -0.46,0.11 -0.62,0.11 -0.23,0 -0.415,-0.087 -0.555,-0.261 -0.139,-0.173 -0.208,-0.405 -0.208,-0.694 0,-0.281 0.071,-0.508 0.215,-0.681 0.144,-0.172 0.331,-0.259 0.563,-0.259 0.206,0 0.418,0.052 0.637,0.158 v -0.394 c -0.292,-0.089 -0.544,-0.133 -0.757,-0.133" /><path
           inkscape:connector-curvature="0"
           id="path92"
           style="fill:#006fb5;fill-opacity:1;fill-rule:nonzero;stroke:none"
           d="m 455.284,96.508 h 1.119 c 0,0.461 -0.176,0.692 -0.528,0.692 -0.354,0 -0.551,-0.231 -0.591,-0.692 z m 1.559,-1.439 c -0.304,-0.089 -0.563,-0.133 -0.78,-0.133 -0.367,0 -0.668,0.121 -0.9,0.365 -0.232,0.244 -0.348,0.559 -0.348,0.947 0,0.377 0.101,0.686 0.306,0.928 0.204,0.241 0.465,0.363 0.784,0.363 0.302,0 0.535,-0.108 0.699,-0.321 0.165,-0.213 0.247,-0.516 0.247,-0.909 l -0.002,-0.139 h -1.586 c 0.066,-0.597 0.359,-0.896 0.879,-0.896 0.19,0 0.424,0.049 0.701,0.149 v -0.354" /><path
           inkscape:connector-curvature="0"
           id="path94"
           style="fill:#006fb5;fill-opacity:1;fill-rule:nonzero;stroke:none"
           d="m 459.102,94.991 v 3.388 h 0.468 l 1.709,-2.618 v 2.618 h 0.409 v -3.388 h -0.466 l -1.712,2.617 v -2.617 h -0.408" /><path
           inkscape:connector-curvature="0"
           id="path96"
           style="fill:#006fb5;fill-opacity:1;fill-rule:nonzero;stroke:none"
           d="m 463.801,95.557 v 0.653 l -0.152,0.003 c -0.25,0 -0.452,-0.047 -0.606,-0.141 -0.155,-0.096 -0.232,-0.221 -0.232,-0.376 0,-0.109 0.038,-0.202 0.116,-0.277 0.077,-0.076 0.171,-0.114 0.283,-0.114 0.189,0 0.386,0.084 0.591,0.252 z m 0.066,-0.249 c -0.271,-0.249 -0.533,-0.372 -0.784,-0.372 -0.208,0 -0.379,0.064 -0.515,0.193 -0.137,0.13 -0.205,0.293 -0.205,0.492 0,0.272 0.114,0.482 0.344,0.628 0.23,0.146 0.558,0.22 0.986,0.22 h 0.108 v 0.299 c 0,0.288 -0.148,0.432 -0.448,0.432 -0.24,0 -0.5,-0.074 -0.777,-0.221 v 0.379 c 0.304,0.119 0.59,0.181 0.858,0.181 0.278,0 0.484,-0.064 0.617,-0.189 0.132,-0.126 0.199,-0.32 0.199,-0.584 v -1.129 c 0,-0.259 0.079,-0.387 0.236,-0.387 0.019,0 0.049,0.003 0.086,0.008 l 0.032,-0.249 c -0.102,-0.049 -0.214,-0.073 -0.336,-0.073 -0.21,0 -0.343,0.123 -0.401,0.372" /><path
           inkscape:connector-curvature="0"
           id="path98"
           style="fill:#006fb5;fill-opacity:1;fill-rule:nonzero;stroke:none"
           d="m 465.915,94.936 c -0.229,0 -0.406,0.065 -0.535,0.196 -0.127,0.132 -0.191,0.315 -0.191,0.549 v 1.464 h -0.314 v 0.338 h 0.314 v 0.452 l 0.449,0.043 v -0.495 h 0.644 v -0.338 h -0.644 v -1.383 c 0,-0.325 0.14,-0.488 0.419,-0.488 0.06,0 0.132,0.01 0.218,0.031 v -0.314 c -0.139,-0.037 -0.259,-0.055 -0.36,-0.055" /><path
           inkscape:connector-curvature="0"
           id="path100"
           style="fill:#006fb5;fill-opacity:1;fill-rule:nonzero;stroke:none"
           d="m 466.929,97.483 h 0.448 V 94.99 h -0.448 z m 0,0.896 h 0.448 v -0.448 h -0.448 z" /><path
           inkscape:connector-curvature="0"
           id="path102"
           style="fill:#006fb5;fill-opacity:1;fill-rule:nonzero;stroke:none"
           d="m 469.261,95.274 c 0.481,0 0.722,0.323 0.722,0.968 0,0.639 -0.237,0.958 -0.713,0.958 -0.473,0 -0.711,-0.321 -0.711,-0.963 0,-0.642 0.234,-0.963 0.702,-0.963 z m -0.005,-0.338 c -0.359,0 -0.643,0.118 -0.857,0.353 -0.212,0.237 -0.318,0.553 -0.318,0.948 0,0.401 0.106,0.718 0.319,0.951 0.215,0.234 0.505,0.351 0.871,0.351 0.367,0 0.657,-0.117 0.871,-0.351 0.214,-0.233 0.321,-0.549 0.321,-0.946 0,-0.406 -0.108,-0.726 -0.323,-0.958 -0.214,-0.232 -0.509,-0.348 -0.884,-0.348" /><path
           inkscape:connector-curvature="0"
           id="path104"
           style="fill:#006fb5;fill-opacity:1;fill-rule:nonzero;stroke:none"
           d="m 471.158,94.991 v 2.492 h 0.448 v -0.471 c 0.241,0.351 0.535,0.527 0.883,0.527 0.217,0 0.39,-0.069 0.52,-0.206 0.128,-0.137 0.194,-0.321 0.194,-0.552 v -1.79 h -0.449 v 1.641 c 0,0.185 -0.027,0.317 -0.082,0.395 -0.055,0.079 -0.145,0.118 -0.273,0.118 -0.28,0 -0.545,-0.181 -0.793,-0.544 v -1.61 h -0.448" /><path
           inkscape:connector-curvature="0"
           id="path106"
           style="fill:#006fb5;fill-opacity:1;fill-rule:nonzero;stroke:none"
           d="m 475.297,95.557 v 0.653 l -0.153,0.003 c -0.25,0 -0.452,-0.047 -0.607,-0.141 -0.154,-0.096 -0.231,-0.221 -0.231,-0.376 0,-0.109 0.039,-0.202 0.116,-0.277 0.076,-0.076 0.171,-0.114 0.282,-0.114 0.19,0 0.388,0.084 0.593,0.252 z m 0.066,-0.249 c -0.272,-0.249 -0.534,-0.372 -0.785,-0.372 -0.207,0 -0.38,0.064 -0.516,0.193 -0.136,0.13 -0.204,0.293 -0.204,0.492 0,0.272 0.114,0.482 0.344,0.628 0.229,0.146 0.558,0.22 0.987,0.22 h 0.108 v 0.299 c 0,0.288 -0.15,0.432 -0.449,0.432 -0.24,0 -0.499,-0.074 -0.779,-0.221 v 0.379 c 0.306,0.119 0.592,0.181 0.859,0.181 0.279,0 0.485,-0.064 0.618,-0.189 0.132,-0.126 0.198,-0.32 0.198,-0.584 v -1.129 c 0,-0.259 0.079,-0.387 0.236,-0.387 0.021,0 0.048,0.003 0.088,0.008 l 0.03,-0.249 c -0.101,-0.049 -0.212,-0.073 -0.336,-0.073 -0.209,0 -0.342,0.123 -0.399,0.372" /><path
           inkscape:connector-curvature="0"
           id="path108"
           style="fill:#006fb5;fill-opacity:1;fill-rule:nonzero;stroke:none"
           d="m 476.668,98.607 h 0.449 V 94.99 h -0.449 z" /><path
           inkscape:connector-curvature="0"
           id="path110"
           style="fill:#006fb5;fill-opacity:1;fill-rule:nonzero;stroke:none"
           d="m 478.29,96.508 h 1.118 c 0,0.461 -0.176,0.692 -0.527,0.692 -0.354,0 -0.552,-0.231 -0.591,-0.692 z m 1.559,-1.439 c -0.304,-0.089 -0.564,-0.133 -0.78,-0.133 -0.367,0 -0.668,0.121 -0.901,0.365 -0.232,0.244 -0.348,0.559 -0.348,0.947 0,0.377 0.102,0.686 0.306,0.928 0.204,0.241 0.467,0.363 0.785,0.363 0.301,0 0.534,-0.108 0.699,-0.321 0.164,-0.213 0.247,-0.516 0.247,-0.909 l -0.002,-0.139 h -1.587 c 0.067,-0.597 0.36,-0.896 0.88,-0.896 0.19,0 0.424,0.049 0.701,0.149 v -0.354" /><path
           inkscape:connector-curvature="0"
           id="path112"
           style="fill:#006fb5;fill-opacity:1;fill-rule:nonzero;stroke:none"
           d="m 438.201,89.956 c 0.235,-0.208 0.459,-0.312 0.671,-0.312 0.439,0 0.658,0.331 0.658,0.994 0,0.586 -0.194,0.878 -0.584,0.878 -0.255,0 -0.503,-0.137 -0.745,-0.41 z m -0.448,-1.499 v 3.397 h 0.448 v -0.467 c 0.186,0.348 0.465,0.521 0.837,0.521 0.302,0 0.539,-0.109 0.712,-0.327 0.173,-0.22 0.26,-0.518 0.26,-0.897 0,-0.413 -0.099,-0.746 -0.295,-0.998 -0.195,-0.254 -0.454,-0.38 -0.774,-0.38 -0.297,0 -0.544,0.113 -0.74,0.338 v -1.187 h -0.448" /><path
           inkscape:connector-curvature="0"
           id="path114"
           style="fill:#006fb5;fill-opacity:1;fill-rule:nonzero;stroke:none"
           d="m 441.689,89.644 c 0.482,0 0.722,0.323 0.722,0.969 0,0.638 -0.237,0.957 -0.712,0.957 -0.474,0 -0.711,-0.321 -0.711,-0.962 0,-0.643 0.234,-0.964 0.701,-0.964 z m -0.005,-0.338 c -0.357,0 -0.642,0.118 -0.855,0.354 -0.214,0.236 -0.32,0.552 -0.32,0.948 0,0.4 0.107,0.717 0.321,0.951 0.213,0.233 0.504,0.349 0.87,0.349 0.367,0 0.657,-0.116 0.87,-0.349 0.215,-0.234 0.321,-0.549 0.321,-0.946 0,-0.406 -0.107,-0.726 -0.322,-0.959 -0.214,-0.233 -0.509,-0.348 -0.885,-0.348" /><path
           inkscape:connector-curvature="0"
           id="path116"
           style="fill:#006fb5;fill-opacity:1;fill-rule:nonzero;stroke:none"
           d="m 445.152,89.361 v 0.473 c -0.24,-0.352 -0.532,-0.528 -0.875,-0.528 -0.219,0 -0.392,0.068 -0.52,0.204 -0.129,0.138 -0.194,0.322 -0.194,0.555 v 1.789 h 0.449 v -1.641 c 0,-0.185 0.027,-0.318 0.082,-0.396 0.054,-0.079 0.145,-0.118 0.274,-0.118 0.276,0 0.538,0.181 0.784,0.543 v 1.612 h 0.448 v -2.493 h -0.448" /><path
           inkscape:connector-curvature="0"
           id="path118"
           style="fill:#006fb5;fill-opacity:1;fill-rule:nonzero;stroke:none"
           d="m 446.498,89.361 v 2.493 h 0.449 v -0.467 c 0.179,0.348 0.441,0.521 0.783,0.521 0.046,0 0.094,-0.003 0.145,-0.007 v -0.425 c -0.078,0.026 -0.147,0.04 -0.208,0.04 -0.287,0 -0.526,-0.171 -0.72,-0.51 v -1.645 h -0.449" /><path
           inkscape:connector-curvature="0"
           id="path120"
           style="fill:#006fb5;fill-opacity:1;fill-rule:nonzero;stroke:none"
           d="m 449.911,92.978 h 0.448 V 89.36 h -0.448 z" /><path
           inkscape:connector-curvature="0"
           id="path122"
           style="fill:#006fb5;fill-opacity:1;fill-rule:nonzero;stroke:none"
           d="m 452.486,89.928 v 0.652 l -0.153,0.004 c -0.25,0 -0.452,-0.047 -0.606,-0.143 -0.155,-0.095 -0.232,-0.219 -0.232,-0.374 0,-0.109 0.038,-0.202 0.116,-0.278 0.076,-0.076 0.171,-0.114 0.282,-0.114 0.19,0 0.387,0.084 0.593,0.253 z m 0.065,-0.249 c -0.271,-0.249 -0.532,-0.373 -0.784,-0.373 -0.207,0 -0.379,0.065 -0.515,0.194 -0.137,0.129 -0.205,0.293 -0.205,0.491 0,0.272 0.115,0.482 0.343,0.628 0.23,0.147 0.559,0.22 0.988,0.22 h 0.108 v 0.299 c 0,0.289 -0.15,0.432 -0.448,0.432 -0.241,0 -0.501,-0.074 -0.779,-0.22 v 0.378 c 0.305,0.12 0.591,0.18 0.858,0.18 0.279,0 0.485,-0.062 0.618,-0.188 0.132,-0.125 0.199,-0.319 0.199,-0.585 v -1.128 c 0,-0.258 0.079,-0.387 0.236,-0.387 0.02,0 0.048,0.002 0.086,0.008 l 0.031,-0.249 c -0.101,-0.049 -0.213,-0.073 -0.336,-0.073 -0.208,0 -0.343,0.124 -0.4,0.373" /><path
           inkscape:connector-curvature="0"
           id="path124"
           style="fill:#006fb5;fill-opacity:1;fill-rule:nonzero;stroke:none"
           d="m 455.806,91.154 h 0.156 c 0.603,0 0.906,0.236 0.906,0.71 0,0.35 -0.254,0.525 -0.761,0.525 h -0.301 z m -0.48,-1.793 v 3.389 h 1.027 c 0.326,0 0.576,-0.072 0.749,-0.216 0.174,-0.143 0.261,-0.352 0.261,-0.626 0,-0.452 -0.228,-0.773 -0.684,-0.963 l 1.132,-1.584 h -0.591 l -0.966,1.431 h -0.448 v -1.431 h -0.48" /><path
           inkscape:connector-curvature="0"
           id="path126"
           style="fill:#006fb5;fill-opacity:1;fill-rule:nonzero;stroke:none"
           d="m 458.819,92.302 0.554,0.739 h 0.523 l -0.737,-0.739 z m -0.246,-1.423 h 1.119 c 0,0.46 -0.176,0.691 -0.528,0.691 -0.353,0 -0.551,-0.231 -0.591,-0.691 z m 1.56,-1.439 c -0.305,-0.09 -0.564,-0.134 -0.78,-0.134 -0.368,0 -0.669,0.121 -0.901,0.365 -0.232,0.244 -0.348,0.56 -0.348,0.947 0,0.378 0.102,0.687 0.306,0.928 0.204,0.242 0.466,0.362 0.784,0.362 0.302,0 0.535,-0.106 0.7,-0.32 0.164,-0.212 0.247,-0.516 0.247,-0.908 l -0.002,-0.139 h -1.587 c 0.067,-0.599 0.36,-0.897 0.88,-0.897 0.19,0 0.424,0.049 0.701,0.15 V 89.44" /><path
           inkscape:connector-curvature="0"
           id="path128"
           style="fill:#006fb5;fill-opacity:1;fill-rule:nonzero;stroke:none"
           d="m 460.914,89.361 v 2.493 h 0.448 v -0.472 c 0.241,0.351 0.535,0.526 0.883,0.526 0.217,0 0.39,-0.068 0.519,-0.205 0.131,-0.137 0.195,-0.321 0.195,-0.552 v -1.79 h -0.448 v 1.641 c 0,0.184 -0.028,0.316 -0.083,0.395 -0.055,0.078 -0.146,0.119 -0.273,0.119 -0.28,0 -0.545,-0.181 -0.793,-0.544 v -1.611 h -0.448" /><path
           inkscape:connector-curvature="0"
           id="path130"
           style="fill:#006fb5;fill-opacity:1;fill-rule:nonzero;stroke:none"
           d="m 464.81,89.644 c 0.481,0 0.722,0.323 0.722,0.969 0,0.638 -0.238,0.957 -0.713,0.957 -0.473,0 -0.71,-0.321 -0.71,-0.962 0,-0.643 0.233,-0.964 0.701,-0.964 z m -0.005,-0.338 c -0.358,0 -0.643,0.118 -0.856,0.354 -0.214,0.236 -0.32,0.552 -0.32,0.948 0,0.4 0.107,0.717 0.321,0.951 0.214,0.233 0.504,0.349 0.87,0.349 0.367,0 0.657,-0.116 0.871,-0.349 0.214,-0.234 0.32,-0.549 0.32,-0.946 0,-0.406 -0.107,-0.726 -0.321,-0.959 -0.215,-0.233 -0.51,-0.348 -0.885,-0.348" /><path
           inkscape:connector-curvature="0"
           id="path132"
           style="fill:#006fb5;fill-opacity:1;fill-rule:nonzero;stroke:none"
           d="m 467.227,89.361 -0.928,2.493 h 0.452 l 0.723,-1.94 0.765,1.94 h 0.419 l -0.982,-2.493 h -0.449" /><path
           inkscape:connector-curvature="0"
           id="path134"
           style="fill:#006fb5;fill-opacity:1;fill-rule:nonzero;stroke:none"
           d="m 470.362,89.928 v 0.652 l -0.153,0.004 c -0.25,0 -0.452,-0.047 -0.606,-0.143 -0.154,-0.095 -0.232,-0.219 -0.232,-0.374 0,-0.109 0.04,-0.202 0.116,-0.278 0.078,-0.076 0.172,-0.114 0.283,-0.114 0.189,0 0.387,0.084 0.592,0.253 z m 0.066,-0.249 c -0.271,-0.249 -0.533,-0.373 -0.785,-0.373 -0.206,0 -0.379,0.065 -0.515,0.194 -0.137,0.129 -0.205,0.293 -0.205,0.491 0,0.272 0.115,0.482 0.344,0.628 0.23,0.147 0.559,0.22 0.987,0.22 h 0.108 v 0.299 c 0,0.289 -0.149,0.432 -0.448,0.432 -0.24,0 -0.5,-0.074 -0.778,-0.22 v 0.378 c 0.304,0.12 0.591,0.18 0.858,0.18 0.279,0 0.484,-0.062 0.617,-0.188 0.134,-0.125 0.2,-0.319 0.2,-0.585 v -1.128 c 0,-0.258 0.078,-0.387 0.235,-0.387 0.019,0 0.049,0.002 0.086,0.008 l 0.032,-0.249 c -0.102,-0.049 -0.214,-0.073 -0.336,-0.073 -0.209,0 -0.342,0.124 -0.4,0.373" /><path
           inkscape:connector-curvature="0"
           id="path136"
           style="fill:#006fb5;fill-opacity:1;fill-rule:nonzero;stroke:none"
           d="m 472.475,89.306 c -0.228,0 -0.406,0.066 -0.534,0.197 -0.128,0.132 -0.191,0.315 -0.191,0.548 v 1.465 h -0.314 v 0.338 h 0.314 v 0.451 l 0.448,0.045 v -0.496 h 0.646 v -0.338 h -0.646 v -1.383 c 0,-0.326 0.14,-0.489 0.42,-0.489 0.06,0 0.132,0.01 0.217,0.031 v -0.314 c -0.138,-0.037 -0.258,-0.055 -0.36,-0.055" /><path
           inkscape:connector-curvature="0"
           id="path138"
           style="fill:#006fb5;fill-opacity:1;fill-rule:nonzero;stroke:none"
           d="m 473.489,91.854 h 0.448 v -2.493 h -0.448 z m 0,0.896 h 0.448 v -0.448 h -0.448 z" /><path
           inkscape:connector-curvature="0"
           id="path140"
           style="fill:#006fb5;fill-opacity:1;fill-rule:nonzero;stroke:none"
           d="m 475.821,89.644 c 0.482,0 0.722,0.323 0.722,0.969 0,0.638 -0.237,0.957 -0.712,0.957 -0.474,0 -0.71,-0.321 -0.71,-0.962 0,-0.643 0.233,-0.964 0.7,-0.964 z m -0.005,-0.338 c -0.357,0 -0.643,0.118 -0.855,0.354 -0.214,0.236 -0.32,0.552 -0.32,0.948 0,0.4 0.106,0.717 0.321,0.951 0.214,0.233 0.503,0.349 0.87,0.349 0.367,0 0.657,-0.116 0.87,-0.349 0.214,-0.234 0.321,-0.549 0.321,-0.946 0,-0.406 -0.107,-0.726 -0.322,-0.959 -0.215,-0.233 -0.51,-0.348 -0.885,-0.348" /><path
           inkscape:connector-curvature="0"
           id="path142"
           style="fill:#006fb5;fill-opacity:1;fill-rule:nonzero;stroke:none"
           d="m 477.718,89.361 v 2.493 h 0.45 v -0.472 c 0.24,0.351 0.534,0.526 0.881,0.526 0.218,0 0.391,-0.068 0.519,-0.205 0.131,-0.137 0.196,-0.321 0.196,-0.552 v -1.79 h -0.448 v 1.641 c 0,0.184 -0.028,0.316 -0.084,0.395 -0.054,0.078 -0.145,0.119 -0.272,0.119 -0.281,0 -0.545,-0.181 -0.792,-0.544 v -1.611 h -0.45" /><path
           inkscape:connector-curvature="0"
           id="path144"
           style="fill:#006fb5;fill-opacity:1;fill-rule:nonzero;stroke:none"
           d="m 462.996,87.119 h 0.48 v -2.138 c 0,-0.34 0.064,-0.588 0.191,-0.743 0.128,-0.154 0.331,-0.232 0.609,-0.232 0.272,0 0.465,0.073 0.579,0.219 0.113,0.145 0.17,0.392 0.17,0.741 v 2.153 h 0.409 v -2.147 c 0,-0.464 -0.096,-0.801 -0.286,-1.012 -0.191,-0.21 -0.494,-0.316 -0.91,-0.316 -0.424,0 -0.737,0.11 -0.938,0.328 -0.203,0.218 -0.304,0.556 -0.304,1.013 v 2.134" /><path
           inkscape:connector-curvature="0"
           id="path146"
           style="fill:#006fb5;fill-opacity:1;fill-rule:nonzero;stroke:none"
           d="m 466.286,83.731 v 2.492 h 0.448 v -0.466 c 0.179,0.348 0.441,0.522 0.783,0.522 0.046,0 0.094,-0.003 0.145,-0.008 v -0.425 c -0.078,0.027 -0.147,0.039 -0.208,0.039 -0.286,0 -0.526,-0.169 -0.72,-0.508 v -1.646 h -0.448" /><path
           inkscape:connector-curvature="0"
           id="path148"
           style="fill:#006fb5;fill-opacity:1;fill-rule:nonzero;stroke:none"
           d="m 468.654,84.326 c 0.235,-0.208 0.458,-0.312 0.671,-0.312 0.438,0 0.657,0.331 0.657,0.995 0,0.584 -0.194,0.876 -0.583,0.876 -0.255,0 -0.503,-0.136 -0.745,-0.41 z m -0.449,-0.627 v 3.649 h 0.449 v -1.591 c 0.186,0.348 0.465,0.522 0.837,0.522 0.302,0 0.539,-0.109 0.712,-0.329 0.173,-0.218 0.259,-0.517 0.259,-0.896 0,-0.413 -0.098,-0.746 -0.294,-0.999 -0.195,-0.253 -0.454,-0.379 -0.774,-0.379 -0.296,0 -0.544,0.113 -0.74,0.338 L 468.6,83.699 h -0.395" /><path
           inkscape:connector-curvature="0"
           id="path150"
           style="fill:#006fb5;fill-opacity:1;fill-rule:nonzero;stroke:none"
           d="m 472.385,84.298 v 0.652 l -0.152,0.004 c -0.251,0 -0.453,-0.047 -0.608,-0.142 -0.154,-0.095 -0.231,-0.22 -0.231,-0.375 0,-0.11 0.039,-0.202 0.116,-0.278 0.077,-0.075 0.171,-0.113 0.282,-0.113 0.19,0 0.388,0.084 0.593,0.252 z m 0.066,-0.249 c -0.272,-0.248 -0.533,-0.373 -0.785,-0.373 -0.207,0 -0.379,0.065 -0.515,0.194 -0.137,0.13 -0.205,0.293 -0.205,0.491 0,0.273 0.115,0.482 0.344,0.629 0.23,0.146 0.559,0.219 0.987,0.219 h 0.108 v 0.3 c 0,0.288 -0.15,0.432 -0.448,0.432 -0.241,0 -0.5,-0.074 -0.779,-0.221 v 0.378 c 0.306,0.12 0.591,0.181 0.858,0.181 0.28,0 0.486,-0.063 0.618,-0.189 0.133,-0.124 0.199,-0.32 0.199,-0.584 v -1.128 c 0,-0.259 0.078,-0.387 0.236,-0.387 0.02,0 0.048,0.002 0.086,0.007 l 0.032,-0.249 c -0.101,-0.049 -0.214,-0.073 -0.336,-0.073 -0.21,0 -0.343,0.125 -0.4,0.373" /><path
           inkscape:connector-curvature="0"
           id="path152"
           style="fill:#006fb5;fill-opacity:1;fill-rule:nonzero;stroke:none"
           d="m 473.757,86.223 h 0.448 V 83.73 h -0.448 z m 0,0.896 h 0.448 v -0.448 h -0.448 z" /><path
           inkscape:connector-curvature="0"
           id="path154"
           style="fill:#006fb5;fill-opacity:1;fill-rule:nonzero;stroke:none"
           d="m 475.105,83.731 v 2.492 h 0.448 v -0.47 c 0.241,0.35 0.536,0.526 0.883,0.526 0.218,0 0.39,-0.068 0.519,-0.206 0.13,-0.136 0.195,-0.321 0.195,-0.552 v -1.79 h -0.449 v 1.641 c 0,0.186 -0.027,0.317 -0.082,0.395 -0.055,0.079 -0.146,0.118 -0.274,0.118 -0.28,0 -0.544,-0.181 -0.792,-0.543 v -1.611 h -0.448" /><path
           inkscape:connector-curvature="0"
           id="path156"
           style="fill:#006fb5;fill-opacity:1;fill-rule:nonzero;stroke:none"
           d="m 478.29,85.248 h 1.118 c 0,0.462 -0.176,0.693 -0.527,0.693 -0.354,0 -0.552,-0.231 -0.591,-0.693 z m 1.559,-1.439 c -0.304,-0.089 -0.564,-0.133 -0.78,-0.133 -0.367,0 -0.668,0.122 -0.901,0.366 -0.232,0.243 -0.348,0.559 -0.348,0.947 0,0.377 0.102,0.686 0.306,0.928 0.204,0.241 0.467,0.362 0.785,0.362 0.301,0 0.534,-0.107 0.699,-0.32 0.164,-0.214 0.247,-0.516 0.247,-0.909 l -0.002,-0.14 h -1.587 c 0.067,-0.597 0.36,-0.896 0.88,-0.896 0.19,0 0.424,0.05 0.701,0.149 v -0.354" /><path
           inkscape:connector-curvature="0"
           id="path158"
           style="fill:#f69a3b;fill-opacity:1;fill-rule:nonzero;stroke:none"
           d="m 495.431,113.814 c -0.139,-0.934 -1.245,-1.89 -2.231,-1.749 -0.936,0.134 -1.72,0.909 -1.72,1.854 0,1.331 1.208,2.592 2.154,2.592 0.945,0 1.952,-1.651 1.797,-2.697" /><g
           id="g160"><g
             clip-path="url(#clipPath166)"
             id="g162"><path
               inkscape:connector-curvature="0"
               id="path168"
               style="fill:#006fb5;fill-opacity:1;fill-rule:nonzero;stroke:none"
               d="m 462.443,103.045 c -0.401,0 -1.078,0.268 -1.078,1.164 0,0.897 0,5.86 0,5.86 0,0 -0.263,2.134 2.129,2.134 1.32,0 1.949,-0.871 2.83,-1.919 0.341,-0.406 4.079,-4.912 4.768,-5.536 0.569,-0.516 1.659,-0.647 1.965,1.033 0.305,1.679 0.057,4.154 0.097,4.822 0.037,0.668 0.512,1.465 1.545,1.89 1.176,0.485 2.974,0.589 5.266,0.36 2.29,-0.229 4.109,-1.659 4.048,-3.414 -0.07,-2.023 -2.473,-2.985 -3.741,-3.359 -0.733,-0.216 -0.712,-0.62 -0.461,-0.859 0.138,-0.131 0.679,-0.531 1.23,-0.882 0.599,-0.381 5.129,-3.299 5.778,-3.851 0.649,-0.554 0.42,-1.165 0.191,-1.508 -0.229,-0.344 -0.802,-0.554 -1.355,-0.248 -0.554,0.305 -7.344,4.736 -8.188,6.184 -0.465,0.795 -0.298,1.727 0.582,2.041 0.345,0.124 3.785,1.196 3.785,2.369 0,1.89 -2.591,1.828 -3.221,1.828 -0.63,0 -3.162,0.314 -3.162,-1.828 0,-1.795 -0.033,-5.133 -1.368,-6.507 -1.336,-1.375 -3.212,-1.084 -4.308,-0.175 -0.883,0.734 -5.249,6.213 -6.165,6.671 v -5.086 c 0,0 -0.079,-1.184 -1.167,-1.184" /><path
               inkscape:connector-curvature="0"
               id="path170"
               style="fill:#f69a3b;fill-opacity:1;fill-rule:nonzero;stroke:none"
               d="m 485.455,111.513 c 0,0 1.299,-5.256 4.195,-7.488 2.896,-2.233 6.378,-1.768 8.388,0.409 1.832,1.981 2.719,4.546 3.116,6.585 0.113,0.586 -0.576,1.045 -0.985,1.058 -0.999,0.032 -1.235,-1.113 -1.399,-1.762 -0.164,-0.649 -1.353,-5.374 -4.826,-5.566 -3.396,-0.19 -5.026,3.239 -5.927,6.768 l -2.562,-0.004" /></g></g></g></g></g></svg>