<svg xmlns="http://www.w3.org/2000/svg" width="100mm" height="150mm" viewBox="0 0 100 150"><defs><linearGradient x1="0" y1="0" x2="1" y2="0" gradientUnits="userSpaceOnUse" gradientTransform="scale(-201.26339 201.26339) rotate(-55 .04 2.604)" spreadMethod="pad" id="b"><stop offset="0" stop-color="#d42c1e"/><stop offset=".178" stop-color="#d42c1e"/><stop offset=".688" stop-color="#142b70"/><stop offset=".712" stop-color="#142b70"/><stop offset="1" stop-color="#142b70"/></linearGradient><clipPath clipPathUnits="userSpaceOnUse" id="a"><path d="M321.88 240.299c-11.728-11.729-18.187-27.32-18.187-43.906 0-16.584 6.459-32.178 18.187-43.906 11.727-11.727 27.318-18.185 43.904-18.185 16.585 0 32.177 6.458 43.902 18.185 11.731 11.728 18.19 27.322 18.19 43.906 0 16.586-6.459 32.177-18.185 43.906-11.729 11.724-27.322 18.185-43.907 18.185-16.587 0-32.177-6.461-43.904-18.185m7.889-79.922c-9.621 9.621-14.919 22.412-14.919 36.016 0 13.603 5.298 26.398 14.918 36.018 9.619 9.618 22.411 14.917 36.016 14.917 13.607 0 26.396-5.299 36.015-14.917 9.622-9.62 14.919-22.415 14.919-36.018 0-13.604-5.297-26.395-14.919-36.016-9.619-9.62-22.411-14.918-36.015-14.918s-26.395 5.298-36.015 14.918m4.941 67.092c-8.3-8.303-12.87-19.338-12.87-31.076 0-11.737 4.572-22.772 12.872-31.072 8.3-8.302 19.337-12.872 31.076-12.872 11.737 0 22.77 4.57 31.072 12.871 17.132 17.132 17.132 45.014-.004 62.149-7.316 7.316-16.762 11.734-26.941 12.676v.006l-.017-.005a44.935 44.935 0 01-4.114.192c-11.739 0-22.774-4.57-31.074-12.869m-1.493-34.828a43.888 43.888 0 0124.02 12.298 43.8 43.8 0 0112.307 24.021 32.42 32.42 0 0015.14-5.778l-45.687-45.688a32.445 32.445 0 00-5.78 15.147m9.383 26.936c4.321 4.32 9.637 7.282 15.428 8.681a32.69 32.69 0 00-8.68-15.429 32.736 32.736 0 00-15.426-8.669c1.401 5.788 4.361 11.097 8.678 15.417m4.286-49.971l45.684 45.685a32.636 32.636 0 005.672-14.383 43.908 43.908 0 01-24.103-12.308 43.805 43.805 0 01-12.414-24.737 32.392 32.392 0 00-14.839 5.743m35.141 11.101a32.753 32.753 0 0015.785 8.754 32.585 32.585 0 00-8.842-16.253c-4.416-4.414-9.871-7.407-15.81-8.765a32.688 32.688 0 008.867 16.264m19.729-59.992l-2.994-1.323V73.515c4.857-2.562 11.293-3.696 14.919-3.696 3.623 0 9.098.8 12.663 2.376l1.787.79.784 1.786c3.12 7.127 3.015 14.371 1.181 19.798-.758 2.253-2.429 3.71-3.418 5.385 1.691 4.06 2.457 10.988-.693 18.183l-.785 1.791-1.785.787c-3.563 1.575-7.197 2.363-10.83 2.363s-7.266-.788-10.829-2.363m7.054-8.148c2.9.728 5.759.624 8.68-.324 1.066-3.325 1.066-6.174 0-9.498-1.648-.536-3.271-.639-4.891-.802-.76-.075-1.568-.054-2.425-.033-.442.011-.897.02-1.364.019zm0-31.892v11.999c1.487.122 3.874.24 4.668.257 2.978.067 5.313-.237 6.899-.751 1.829-3.447 1.219-9.54.042-11.513-1.525-.496-3.594-.785-5.76-.786-1.984 0-4.049.244-5.849.794m-44.058 40.04l-2.99-1.323V73.515c4.858-2.562 11.292-3.696 14.919-3.696 3.62 0 9.098.8 12.661 2.376l1.787.79.783 1.786c3.121 7.127 2.904 14.337 1.185 19.798-.848 2.693-2.431 3.71-3.42 5.385 1.691 4.06 2.457 10.988-.693 18.183l-.785 1.791-1.787.787c-3.562 1.575-7.195 2.363-10.829 2.363-3.633 0-7.267-.788-10.831-2.363m7.054-8.148c2.904.728 5.761.624 8.682-.324 1.067-3.325 1.067-6.174 0-9.498-1.649-.536-3.271-.639-4.89-.802-.76-.075-1.569-.054-2.426-.033-.442.011-.898.02-1.366.019zm0-31.892v11.999c1.489.122 3.876.24 4.67.257 2.979.067 5.314-.237 6.9-.751 2.292-3.204 1.129-10.169.04-11.513-1.524-.496-3.593-.785-5.758-.786-1.985 0-4.05.244-5.852.794m-35.797 39.516l-3.164-1.261V69.896h10.049V90.85c4.182.008 9.884.023 12.604.027v10.045c-2.713-.002-8.415-.018-12.604-.026v10.979c4.207 1.017 8.359.678 12.604-1.015v10.566a30.252 30.252 0 01-7.903 1.065c-3.872 0-7.743-.766-11.586-2.3m-29.015 0l-3.164-1.261V69.896h10.047V90.85c4.183.008 9.883.023 12.607.027v10.045c-2.716-.002-8.414-.018-12.607-.026v10.979c4.209 1.017 8.36.678 12.607-1.015v10.566a30.274 30.274 0 01-7.906 1.065c-3.872 0-7.742-.766-11.584-2.3"/></clipPath></defs><g clip-path="url(#a)" transform="matrix(.78313 0 0 -.78313 -237.832 204.677)"><path d="M321.88 240.299c-11.728-11.729-18.187-27.32-18.187-43.906 0-16.584 6.459-32.178 18.187-43.906 11.727-11.727 27.318-18.185 43.904-18.185 16.585 0 32.177 6.458 43.902 18.185 11.731 11.728 18.19 27.322 18.19 43.906 0 16.586-6.459 32.177-18.185 43.906-11.729 11.724-27.322 18.185-43.907 18.185-16.587 0-32.177-6.461-43.904-18.185m7.889-79.922c-9.621 9.621-14.919 22.412-14.919 36.016 0 13.603 5.298 26.398 14.918 36.018 9.619 9.618 22.411 14.917 36.016 14.917 13.607 0 26.396-5.299 36.015-14.917 9.622-9.62 14.919-22.415 14.919-36.018 0-13.604-5.297-26.395-14.919-36.016-9.619-9.62-22.411-14.918-36.015-14.918s-26.395 5.298-36.015 14.918m4.941 67.092c-8.3-8.303-12.87-19.338-12.87-31.076 0-11.737 4.572-22.772 12.872-31.072 8.3-8.302 19.337-12.872 31.076-12.872 11.737 0 22.77 4.57 31.072 12.871 17.132 17.132 17.132 45.014-.004 62.149-7.316 7.316-16.762 11.734-26.941 12.676v.006l-.017-.005a44.935 44.935 0 01-4.114.192c-11.739 0-22.774-4.57-31.074-12.869m-1.493-34.828a43.888 43.888 0 0124.02 12.298 43.8 43.8 0 0112.307 24.021 32.42 32.42 0 0015.14-5.778l-45.687-45.688a32.445 32.445 0 00-5.78 15.147m9.383 26.936c4.321 4.32 9.637 7.282 15.428 8.681a32.69 32.69 0 00-8.68-15.429 32.736 32.736 0 00-15.426-8.669c1.401 5.788 4.361 11.097 8.678 15.417m4.286-49.971l45.684 45.685a32.636 32.636 0 005.672-14.383 43.908 43.908 0 01-24.103-12.308 43.805 43.805 0 01-12.414-24.737 32.392 32.392 0 00-14.839 5.743m35.141 11.101a32.753 32.753 0 0015.785 8.754 32.585 32.585 0 00-8.842-16.253c-4.416-4.414-9.871-7.407-15.81-8.765a32.688 32.688 0 008.867 16.264m19.729-59.992l-2.994-1.323V73.515c4.857-2.562 11.293-3.696 14.919-3.696 3.623 0 9.098.8 12.663 2.376l1.787.79.784 1.786c3.12 7.127 3.015 14.371 1.181 19.798-.758 2.253-2.429 3.71-3.418 5.385 1.691 4.06 2.457 10.988-.693 18.183l-.785 1.791-1.785.787c-3.563 1.575-7.197 2.363-10.83 2.363s-7.266-.788-10.829-2.363m7.054-8.148c2.9.728 5.759.624 8.68-.324 1.066-3.325 1.066-6.174 0-9.498-1.648-.536-3.271-.639-4.891-.802-.76-.075-1.568-.054-2.425-.033-.442.011-.897.02-1.364.019zm0-31.892v11.999c1.487.122 3.874.24 4.668.257 2.978.067 5.313-.237 6.899-.751 1.829-3.447 1.219-9.54.042-11.513-1.525-.496-3.594-.785-5.76-.786-1.984 0-4.049.244-5.849.794m-44.058 40.04l-2.99-1.323V73.515c4.858-2.562 11.292-3.696 14.919-3.696 3.62 0 9.098.8 12.661 2.376l1.787.79.783 1.786c3.121 7.127 2.904 14.337 1.185 19.798-.848 2.693-2.431 3.71-3.42 5.385 1.691 4.06 2.457 10.988-.693 18.183l-.785 1.791-1.787.787c-3.562 1.575-7.195 2.363-10.829 2.363-3.633 0-7.267-.788-10.831-2.363m7.054-8.148c2.904.728 5.761.624 8.682-.324 1.067-3.325 1.067-6.174 0-9.498-1.649-.536-3.271-.639-4.89-.802-.76-.075-1.569-.054-2.426-.033-.442.011-.898.02-1.366.019zm0-31.892v11.999c1.489.122 3.876.24 4.67.257 2.979.067 5.314-.237 6.9-.751 2.292-3.204 1.129-10.169.04-11.513-1.524-.496-3.593-.785-5.758-.786-1.985 0-4.05.244-5.852.794m-35.797 39.516l-3.164-1.261V69.896h10.049V90.85c4.182.008 9.884.023 12.604.027v10.045c-2.713-.002-8.415-.018-12.604-.026v10.979c4.207 1.017 8.359.678 12.604-1.015v10.566a30.252 30.252 0 01-7.903 1.065c-3.872 0-7.743-.766-11.586-2.3m-29.015 0l-3.164-1.261V69.896h10.047V90.85c4.183.008 9.883.023 12.607.027v10.045c-2.716-.002-8.414-.018-12.607-.026v10.979c4.209 1.017 8.36.678 12.607-1.015v10.566a30.274 30.274 0 01-7.906 1.065c-3.872 0-7.742-.766-11.584-2.3" fill="url(#b)"/></g></svg>