<svg height="110" width="94" xmlns="http://www.w3.org/2000/svg"><g fill="none"><path d="M93.161 109.738H.457V.457h92.704z" fill="#004899"/><path d="M2.519 2.519h88.576v105.158H2.519z" fill="#fff"/><path d="M28.6 61.862c5.874 8.896 17.283 12.294 27.067 8.063 9.784-4.232 15.12-14.873 12.661-25.245S56.321 27.196 45.68 27.808s-19.31 8.773-20.564 19.358a21.861 21.861 0 003.485 14.68" fill="#80a4cc"/><path d="M39.81 42.607l1.173.185-.401.771-1.028-.555zm4.714-2.57l-.981.863v.586l1.542.386 3.11-2.113-.083-.858-1.233-.427zm.483-2.318h-.282l-.52.981-.842.067-.962 1.388.514.33 1.296-.823.992-1.06zm1.748-2.725l-1.99 1.584.71.514 1.589-1.625zM31.463 43.83l.689.088.216-1.63v-.514l-.124-.514-.354-.03zm.365 1.075l.221.344.416.062.19-.843-.688-.165zm.401.843l.067.447h.426l-.056-.483zm.242.96l.118.289.36-.16s-.098-.267-.108-.267zm.215.823l.309-.113-.118-.262s-.175.15-.17.17v.205m14.583-1.27s-.56 1.363-.56 1.373c0 .01.878.082.878.087l.211-1.12-.154-.113.103-.386-.442-.241-.14.288zm-1.29.946l.478.134.143-.447-.339-.077zm10.31 17.287l-.693.4-.884.186-1.943 1.912.118.427.283-.041 1.11-.478a6.297 6.297 0 001.67-1.142 4.4 4.4 0 00.838-1.161zm-.513 2.668l-.237-.262-.37.22s.278.283.273.283zM48.43 50.615l-.273-.036v.514l.278.052.164-.668-.087-.036zm-16.408-2.878l.098.416.396-.128-.129-.422zM28.6 61.877l1.542-1.259 1.25.319 3.335-2.514.16-1.336-2.19-3.197a28.271 28.271 0 00-.602-3.542c-.226-.781-.735-3.053-.755-3.084l-.288-.58-2.087-3.131 1.352-3.382 1.038-.078.067-.514-.802-.668v-.776c0-.432.73-.869 1.218-.869.138.001.275.022.406.062.35.14.673.339.956.586.052.036.957 2.154.957 2.154l-.766.622-.38.925.513.416.735-1.27 3.043 1.029 1.861 1.059.566-.617 1.542.128 1.14-1.542-1.027-.39 1.084-1.306-.128-.442-1.655-.319 1.264-1.352 1.229.802v.355l.776.092.611-1.249-.457-.406 1.933-1.86 1.763-.818 1.362-.894.267-.21.052-.957-.232-.678-.601-.237.77-.606-.21-.114a7.515 7.515 0 01-3.88 1.342c-1.543.103-4.596-.57-4.596-.57l-3.053-.458-1.07-.19a22.103 22.103 0 00-6.723 5.53l-.077 2.884-.473 1.326-1.069 3.804.355 1.074-1.733.247-1.752 1.948a22.622 22.622 0 00-.15 2.57 21.861 21.861 0 003.64 12.11m29.864-30.81a21.995 21.995 0 0110.137 15.226l-1.717 1.47-1.095-.262-.514.452.036.303c0 .144.082.427.19.854.212.84.323 1.703.33 2.57.02.613-.051 1.227-.212 1.82h-.935l-2.632-2.067-2.004.452-1.296-.22-1.64.513.74.638 1.29-.365 1.111.889-.175.39-.457.746-.987 1.408-1.542 1.229-2.812-2.92-.73.077 3.002 3.444 1.218-.247.304.622-1.224 2.005-2.385 2.277-1.038 2.689a.617.617 0 01-.308.236c-.441.234-.845.532-1.198.884-.576.54-.895.838-.966.894-.541.47-1.111.904-1.707 1.3-.633.428-1.29.818-1.969 1.168a8.224 8.224 0 01-3.598.91 7.222 7.222 0 01-2.308-.386c-.103-.036-.17-.087-.17-.134l.515-1.47c.402-.515.832-1.008 1.29-1.475a4.38 4.38 0 00.9-1.63c.172-.612.394-1.21.662-1.788.478-.771.705-1.43.545-1.588l-3.115-3.13-1.305-2.432.138-.576c.268-.786.613-1.543 1.029-2.262.178-.45.49-.836.894-1.105l2.087-1.028 4.045.612 1.234.822.576-.072 2.472.643.617-1.609-3.14-.884-1.111-1.105-.154.041.514 1.31-.627.13-.067-.155.22-.041s-.19-.807-.678-1.028a1.028 1.028 0 00-.468-.16 1.455 1.455 0 00-.832.34c-.375.4-.804.747-1.275 1.028l-1.29-.972.478-1.203.2.047c.12.03.242.043.365.04a.673.673 0 00.704-.467.411.411 0 00-.138-.427l-.124-.138a1.44 1.44 0 00.18-.211c.253.068.51.116.771.144.279.038.56-.034.787-.2l.308-.515.514-.149.093-.694h.323c.12.18.207.377.258.586l.91-.236.267-.93-.144-.165.395-.894-.344-.242-.586 1.645-.319.041-.144-.365-.817.062-.457-.735.992-1.028.971-1.3 1.373.431.334.679h.416l-.154-.987 1.12-1.028-.745-3.378.478-1.064.514.031.077-.832-3.598-3.912.118-1.059 2.956-.673.427.128 1.68-.164.391.174 2.714-.267zm-.051.653L55 32.44l2.375 1.368.776-.91.961-.647z" fill="#004899"/><g fill="#e3211b"><path d="M22.21 20.951l-.57-1.83h-3.778l-.601 1.83h-3.156L18.57 8.666H20.9l4.462 12.285zm-2.4-7.628l-1.1 3.28h2.139zm16.85 6.42a4.575 4.575 0 01-3.31 1.208h-4.565V8.666h4.55a4.575 4.575 0 013.31 1.208c1.434 1.434 1.274 3.002 1.274 4.935s.175 3.5-1.26 4.934zm-2.056-7.71a1.573 1.573 0 00-1.45-.689h-1.336v6.914h1.326a1.573 1.573 0 001.45-.689c.241-.344.323-.673.323-2.76s-.082-2.416-.324-2.76zM42.036 20.951V8.666h8.338v2.694h-5.32v2.056h4.549v2.693h-4.549v2.154h5.32v2.694zM62.993 20.951v-5.885l-1.743 3.038h-1.932l-1.748-3.038v5.885h-3.012V8.666h2.961l2.76 5.418 2.76-5.418H66v12.285zM70.482 20.951V8.666h8.343v2.694h-5.32v2.056h4.549v2.693h-4.549v2.154h5.325v2.694zM16.551 78.645l-1.953 5.376h1.275l.267-.822h1.789l.257.822h1.275l-1.959-5.376zm-.072 3.557l.586-1.743.55 1.743zm6.467 1.85a1.969 1.969 0 001.542-.601c.39-.396.514-.884.514-1.784v-.704h-1.995v1.028h.813v.139a.91.91 0 01-.227.627.858.858 0 01-.647.231.72.72 0 01-.586-.257c-.129-.17-.216-.36-.216-1.398 0-1.038.087-1.223.216-1.393a.735.735 0 01.586-.262.766.766 0 01.838.617h1.233A2.123 2.123 0 0021.46 79.2c-.514.514-.514 1.27-.514 2.056v.185c0 .771 0 1.501.514 2.056.395.386.935.587 1.486.555zM28.328 81.832h2.04v-1.075h-2.04v-1.048h2.39v-1.08h-3.614v5.377h3.614v-1.079h-2.39zM36.979 84.006v-5.377H35.75v2.925l-1.861-2.925H32.81v5.377h1.223v-2.925l1.861 2.925zM41.826 82.387a.725.725 0 01-.75.586.72.72 0 01-.587-.257c-.128-.17-.22-.37-.22-1.398s.092-1.229.22-1.398a.72.72 0 01.586-.257c.362-.02.682.23.75.586h1.25a1.907 1.907 0 00-2.01-1.666c-.557-.019-1.095.2-1.48.602-.54.514-.54 1.27-.54 2.056v.185c0 .77 0 1.5.54 2.056.385.402.923.62 1.48.601a1.907 1.907 0 002.01-1.665zM46.159 81.832H48.2v-1.075h-2.041v-1.048h2.385v-1.08h-3.608v5.377h3.608v-1.079h-2.385zM58.125 81.554v-.468c0-.765 0-1.367-.555-1.932a1.99 1.99 0 00-1.44-.514h-1.973v5.371h1.974c.53.03 1.048-.156 1.44-.514.565-.576.56-1.182.554-1.943zm-1.382 1.028a.771.771 0 01-.705.34h-.658v-3.223h.648a.771.771 0 01.704.339c.124.175.154.365.154 1.27s-.025 1.12-.143 1.285zM61.415 81.837h2.041v-1.08h-2.041v-1.048h2.39v-1.074h-3.613v5.371h3.613v-1.074h-2.39zM70.642 78.629h-1.224v5.377h3.532v-1.079h-2.308zM77.725 84.006H79l-1.959-5.361h-.966L74.12 84.02h1.275l.273-.822h1.783zm-1.707-1.82l.57-1.742.55 1.742zM16.156 92.765h1.223v-4.297h1.357v-1.08h-3.937v1.08h1.357zM25.002 90.467c.526-.26.858-.796.858-1.382a1.701 1.701 0 00-1.814-1.702h-2.118v5.377h1.229v-2.056h.56l.976 2.056h1.424l-1.177-2.262zm-1.028-.76h-.817v-1.244h.827a.622.622 0 110 1.244zm6.703-2.324l-1.959 5.377h1.28l.273-.823h1.788l.252.823h1.28l-1.958-5.377zm-.072 3.557l.586-1.742.55 1.742zM36.578 87.388v5.377h1.228V89.84l1.861 2.925h1.084v-5.377h-1.223v2.925l-1.866-2.925zM46.4 89.547l-.652-.108a.694.694 0 01-.417-.18.452.452 0 01-.128-.303c0-.277.231-.576.73-.576h.046c.358-.03.714.077.997.299l.766-.756a2.406 2.406 0 00-1.768-.596c-1.167 0-1.948.673-1.948 1.675-.024.387.105.767.36 1.06.293.27.67.435 1.069.467l.668.092c.147.013.287.07.4.165a.514.514 0 01.124.37c0 .257-.144.56-.853.56a2 2 0 01-1.229-.36l-.776.777c.546.488 1.27.729 2 .663 1.028 0 2.056-.514 2.056-1.666a1.542 1.542 0 00-.39-1.161 1.789 1.789 0 00-1.055-.422zM51.135 87.388h1.223v5.371h-1.223zM56.912 92.765h1.224v-4.297h1.351v-1.08h-3.932v1.08h1.357zM62.685 87.388h1.223v5.371h-1.223zM71.315 89.984c0-.77 0-1.5-.54-2.056a2.154 2.154 0 00-2.986 0c-.514.514-.514 1.27-.514 2.056v.185c0 .771 0 1.501.514 2.056a2.154 2.154 0 002.986 0c.54-.514.54-1.27.54-2.056zm-1.44 1.475a.781.781 0 01-1.187 0c-.133-.174-.216-.354-.216-1.382s.088-1.224.216-1.393a.802.802 0 011.188 0c.128.17.216.36.216 1.393s-.083 1.208-.216 1.382zM78.83 92.765v-5.377h-1.229v2.925l-1.86-2.925h-1.085v5.377h1.223V89.84l1.866 2.925zM16.032 99.355h2.051v-1.08h-2.051v-1.054h2.401v-1.079h-3.629v5.392h3.629v-1.079h-2.401zM16.551 94.204l-.344 1.265h.648l.832-1.265zM24.267 97.766h1.254a1.917 1.917 0 00-2.015-1.645c-.56-.019-1.101.2-1.49.602-.515.514-.515 1.275-.515 2.056v.18c0 .776 0 1.511.514 2.056.39.402.931.62 1.491.601a1.917 1.917 0 002.015-1.67h-1.254a.73.73 0 01-.756.59.725.725 0 01-.586-.256c-.128-.175-.22-.375-.22-1.403s.092-1.234.22-1.409a.74.74 0 01.586-.257.73.73 0 01.756.555zm6.101-1.645a1.948 1.948 0 00-1.496.602c-.544.514-.544 1.275-.514 2.056v.18c0 .776 0 1.511.514 2.056a2.159 2.159 0 002.992 0c.545-.514.54-1.27.54-2.056v-.19c0-.771 0-1.506-.54-2.056a1.948 1.948 0 00-1.496-.592zm.596 4.113a.786.786 0 01-1.192 0c-.134-.175-.21-.355-.21-1.388s.076-1.224.21-1.398a.797.797 0 011.192 0c.134.174.211.354.211 1.398 0 1.043-.077 1.208-.21 1.388zM36.835 96.142h-1.229v5.392h3.547v-1.079h-2.318zM43.861 96.121a1.964 1.964 0 00-1.496.602c-.514.514-.514 1.275-.514 2.056v.18c0 .776 0 1.511.514 2.056.839.8 2.159.8 2.997 0 .514-.514.514-1.275.514-2.056v-.18c0-.776 0-1.511-.514-2.056a1.969 1.969 0 00-1.5-.602zm.596 4.113a.781.781 0 01-1.187 0c-.134-.175-.216-.36-.216-1.388s.082-1.229.216-1.398a.74.74 0 01.591-.268.75.75 0 01.596.268c.134.174.216.354.216 1.398 0 1.043-.082 1.208-.216 1.388zm7.336-2.437h1.238a2.133 2.133 0 00-3.598-1.1c-.514.514-.514 1.275-.514 2.056v.18c0 .776 0 1.511.514 2.056.86.803 2.194.803 3.053 0 .391-.4.514-.884.514-1.789v-.714h-2.056v1.028h.813v.144a.802.802 0 01-.88.869.725.725 0 01-.503-.293c-.129-.17-.216-.36-.216-1.404 0-1.043.087-1.228.216-1.398a.73.73 0 01.586-.267c.4-.041.764.235.833.632zM56.249 96.142h1.229v5.392h-1.229zM64.448 100.691c.264-.548.369-1.158.303-1.763v-.18c0-.776 0-1.511-.54-2.056a2.159 2.159 0 00-2.991 0c-.514.514-.514 1.275-.514 2.056v.18c0 .776 0 1.511.514 2.056.39.405.934.624 1.495.602.359.008.713-.077 1.028-.247h.042l.416.416.601-.596-.395-.396zm-.956-1.028v.139l-.314-.319-.601.602.39.39h-.118a.514.514 0 01-.123 0 .75.75 0 01-.591-.272c-.134-.175-.216-.36-.216-1.388s.082-1.229.216-1.398a.74.74 0 01.59-.267.75.75 0 01.597.267c.128.17.21.36.21 1.398-.01.421-.025.684-.04.843zm5.597-.03V96.12H67.85v3.522a2.056 2.056 0 004.061 0V96.12h-1.228v3.49a.781.781 0 01-.812.87.771.771 0 01-.782-.849zM76.435 99.355h2.045v-1.08h-2.045v-1.054h2.395v-1.079h-3.624v5.392h3.624v-1.079h-2.395z"/></g></g></svg>