<svg height="150mm" viewBox="0 0 100 150" width="100mm" xmlns="http://www.w3.org/2000/svg" xmlns:xlink="http://www.w3.org/1999/xlink"><clipPath id="a"><path d="m321.88 240.299c-11.728-11.729-18.187-27.32-18.187-43.906 0-16.584 6.459-32.178 18.187-43.906 11.727-11.727 27.318-18.185 43.904-18.185 16.585 0 32.177 6.458 43.902 18.185 11.731 11.728 18.19 27.322 18.19 43.906 0 16.586-6.459 32.177-18.185 43.906-11.729 11.724-27.322 18.185-43.907 18.185-16.587 0-32.177-6.461-43.904-18.185m7.889-79.922c-9.621 9.621-14.919 22.412-14.919 36.016 0 13.603 5.298 26.398 14.918 36.018 9.619 9.618 22.411 14.917 36.016 14.917 13.607 0 26.396-5.299 36.015-14.917 9.622-9.62 14.919-22.415 14.919-36.018 0-13.604-5.297-26.395-14.919-36.016-9.619-9.62-22.411-14.918-36.015-14.918-13.604 0-26.395 5.298-36.015 14.918m4.941 67.092c-8.3-8.303-12.87-19.338-12.87-31.076 0-11.737 4.572-22.772 12.872-31.072 8.3-8.302 19.337-12.872 31.076-12.872 11.737 0 22.77 4.57 31.072 12.871 17.132 17.132 17.132 45.014-.004 62.149-7.316 7.316-16.762 11.734-26.941 12.676v.006l-.017-.005c-1.361.125-2.731.192-4.114.192-11.739 0-22.774-4.57-31.074-12.869m-1.493-34.828c9.016 1.464 17.433 5.71 24.02 12.298 6.609 6.608 10.85 15.008 12.307 24.021 5.485-.622 10.66-2.603 15.14-5.778l-45.687-45.688c-3.176 4.481-5.157 9.66-5.78 15.147m9.383 26.936c4.321 4.32 9.637 7.282 15.428 8.681-1.4-5.774-4.365-11.115-8.68-15.429-4.303-4.301-9.647-7.265-15.426-8.669 1.401 5.788 4.361 11.097 8.678 15.417m4.286-49.971 45.684 45.685c3.077-4.357 4.972-9.303 5.672-14.383-9.049-1.45-17.494-5.705-24.103-12.308-6.782-6.784-11.071-15.454-12.414-24.737-5.374.661-10.442 2.623-14.839 5.743m35.141 11.101c4.391 4.389 9.87 7.386 15.785 8.754-1.279-5.959-4.221-11.631-8.842-16.253-4.416-4.414-9.871-7.407-15.81-8.765 1.309 6.094 4.347 11.743 8.867 16.264m19.729-59.992-2.994-1.323v-45.877c4.857-2.562 11.293-3.696 14.919-3.696 3.623 0 9.098.8 12.663 2.376l1.787.79.784 1.786c3.12 7.127 3.015 14.371 1.181 19.798-.758 2.253-2.429 3.71-3.418 5.385 1.691 4.06 2.457 10.988-.693 18.183l-.785 1.791-1.785.787c-3.563 1.575-7.197 2.363-10.83 2.363-3.633 0-7.266-.788-10.829-2.363m7.054-8.148c2.9.728 5.759.624 8.68-.324 1.066-3.325 1.066-6.174 0-9.498-1.648-.536-3.271-.639-4.891-.802-.76-.075-1.568-.054-2.425-.033-.442.011-.897.02-1.364.019zm0-31.892v11.999c1.487.122 3.874.24 4.668.257 2.978.067 5.313-.237 6.899-.751 1.829-3.447 1.219-9.54.042-11.513-1.525-.496-3.594-.785-5.76-.786-1.984 0-4.049.244-5.849.794m-44.058 40.04-2.99-1.323v-45.877c4.858-2.562 11.292-3.696 14.919-3.696 3.62 0 9.098.8 12.661 2.376l1.787.79.783 1.786c3.121 7.127 2.904 14.337 1.185 19.798-.848 2.693-2.431 3.71-3.42 5.385 1.691 4.06 2.457 10.988-.693 18.183l-.785 1.791-1.787.787c-3.562 1.575-7.195 2.363-10.829 2.363-3.633 0-7.267-.788-10.831-2.363m7.054-8.148c2.904.728 5.761.624 8.682-.324 1.067-3.325 1.067-6.174 0-9.498-1.649-.536-3.271-.639-4.89-.802-.76-.075-1.569-.054-2.426-.033-.442.011-.898.02-1.366.019zm0-31.892v11.999c1.489.122 3.876.24 4.67.257 2.979.067 5.314-.237 6.9-.751 2.292-3.204 1.129-10.169.04-11.513-1.524-.496-3.593-.785-5.758-.786-1.985 0-4.05.244-5.852.794m-35.797 39.516-3.164-1.261v-49.034h10.049v20.954c4.182.008 9.884.023 12.604.027v10.045c-2.713-.002-8.415-.018-12.604-.026v10.979c4.207 1.017 8.359.678 12.604-1.015v10.566c-2.629.709-5.266 1.065-7.903 1.065-3.872 0-7.743-.766-11.586-2.3m-29.015 0-3.164-1.261v-49.034h10.047v20.954c4.183.008 9.883.023 12.607.027v10.045c-2.716-.002-8.414-.018-12.607-.026v10.979c4.209 1.017 8.36.678 12.607-1.015v10.566c-2.63.709-5.268 1.065-7.906 1.065-3.872 0-7.742-.766-11.584-2.3"/></clipPath><linearGradient id="b" gradientTransform="matrix(-115.43994 -164.86531 -164.86531 115.43994 425.87842 230.13379)" gradientUnits="userSpaceOnUse" spreadMethod="pad" x1="0" x2="1" y1="0" y2="0"><stop offset="0" stop-color="#d42c1e"/><stop offset=".177917" stop-color="#d42c1e"/><stop offset=".68820229" stop-color="#142b70"/><stop offset=".711655" stop-color="#142b70"/><stop offset="1" stop-color="#142b70"/></linearGradient><g clip-path="url(#a)" transform="matrix(.78313193 0 0 -.78313193 -237.83169 204.67749)"><path d="m321.88 240.299c-11.728-11.729-18.187-27.32-18.187-43.906 0-16.584 6.459-32.178 18.187-43.906 11.727-11.727 27.318-18.185 43.904-18.185 16.585 0 32.177 6.458 43.902 18.185 11.731 11.728 18.19 27.322 18.19 43.906 0 16.586-6.459 32.177-18.185 43.906-11.729 11.724-27.322 18.185-43.907 18.185-16.587 0-32.177-6.461-43.904-18.185m7.889-79.922c-9.621 9.621-14.919 22.412-14.919 36.016 0 13.603 5.298 26.398 14.918 36.018 9.619 9.618 22.411 14.917 36.016 14.917 13.607 0 26.396-5.299 36.015-14.917 9.622-9.62 14.919-22.415 14.919-36.018 0-13.604-5.297-26.395-14.919-36.016-9.619-9.62-22.411-14.918-36.015-14.918-13.604 0-26.395 5.298-36.015 14.918m4.941 67.092c-8.3-8.303-12.87-19.338-12.87-31.076 0-11.737 4.572-22.772 12.872-31.072 8.3-8.302 19.337-12.872 31.076-12.872 11.737 0 22.77 4.57 31.072 12.871 17.132 17.132 17.132 45.014-.004 62.149-7.316 7.316-16.762 11.734-26.941 12.676v.006l-.017-.005c-1.361.125-2.731.192-4.114.192-11.739 0-22.774-4.57-31.074-12.869m-1.493-34.828c9.016 1.464 17.433 5.71 24.02 12.298 6.609 6.608 10.85 15.008 12.307 24.021 5.485-.622 10.66-2.603 15.14-5.778l-45.687-45.688c-3.176 4.481-5.157 9.66-5.78 15.147m9.383 26.936c4.321 4.32 9.637 7.282 15.428 8.681-1.4-5.774-4.365-11.115-8.68-15.429-4.303-4.301-9.647-7.265-15.426-8.669 1.401 5.788 4.361 11.097 8.678 15.417m4.286-49.971 45.684 45.685c3.077-4.357 4.972-9.303 5.672-14.383-9.049-1.45-17.494-5.705-24.103-12.308-6.782-6.784-11.071-15.454-12.414-24.737-5.374.661-10.442 2.623-14.839 5.743m35.141 11.101c4.391 4.389 9.87 7.386 15.785 8.754-1.279-5.959-4.221-11.631-8.842-16.253-4.416-4.414-9.871-7.407-15.81-8.765 1.309 6.094 4.347 11.743 8.867 16.264m19.729-59.992-2.994-1.323v-45.877c4.857-2.562 11.293-3.696 14.919-3.696 3.623 0 9.098.8 12.663 2.376l1.787.79.784 1.786c3.12 7.127 3.015 14.371 1.181 19.798-.758 2.253-2.429 3.71-3.418 5.385 1.691 4.06 2.457 10.988-.693 18.183l-.785 1.791-1.785.787c-3.563 1.575-7.197 2.363-10.83 2.363-3.633 0-7.266-.788-10.829-2.363m7.054-8.148c2.9.728 5.759.624 8.68-.324 1.066-3.325 1.066-6.174 0-9.498-1.648-.536-3.271-.639-4.891-.802-.76-.075-1.568-.054-2.425-.033-.442.011-.897.02-1.364.019zm0-31.892v11.999c1.487.122 3.874.24 4.668.257 2.978.067 5.313-.237 6.899-.751 1.829-3.447 1.219-9.54.042-11.513-1.525-.496-3.594-.785-5.76-.786-1.984 0-4.049.244-5.849.794m-44.058 40.04-2.99-1.323v-45.877c4.858-2.562 11.292-3.696 14.919-3.696 3.62 0 9.098.8 12.661 2.376l1.787.79.783 1.786c3.121 7.127 2.904 14.337 1.185 19.798-.848 2.693-2.431 3.71-3.42 5.385 1.691 4.06 2.457 10.988-.693 18.183l-.785 1.791-1.787.787c-3.562 1.575-7.195 2.363-10.829 2.363-3.633 0-7.267-.788-10.831-2.363m7.054-8.148c2.904.728 5.761.624 8.682-.324 1.067-3.325 1.067-6.174 0-9.498-1.649-.536-3.271-.639-4.89-.802-.76-.075-1.569-.054-2.426-.033-.442.011-.898.02-1.366.019zm0-31.892v11.999c1.489.122 3.876.24 4.67.257 2.979.067 5.314-.237 6.9-.751 2.292-3.204 1.129-10.169.04-11.513-1.524-.496-3.593-.785-5.758-.786-1.985 0-4.05.244-5.852.794m-35.797 39.516-3.164-1.261v-49.034h10.049v20.954c4.182.008 9.884.023 12.604.027v10.045c-2.713-.002-8.415-.018-12.604-.026v10.979c4.207 1.017 8.359.678 12.604-1.015v10.566c-2.629.709-5.266 1.065-7.903 1.065-3.872 0-7.743-.766-11.586-2.3m-29.015 0-3.164-1.261v-49.034h10.047v20.954c4.183.008 9.883.023 12.607.027v10.045c-2.716-.002-8.414-.018-12.607-.026v10.979c4.209 1.017 8.36.678 12.607-1.015v10.566c-2.63.709-5.268 1.065-7.906 1.065-3.872 0-7.742-.766-11.584-2.3" fill="url(#b)"/></g></svg>