<?xml version="1.0" encoding="UTF-8" standalone="no"?>
<!-- Created with Inkscape (http://www.inkscape.org/) -->

<svg
   xmlns:dc="http://purl.org/dc/elements/1.1/"
   xmlns:cc="http://creativecommons.org/ns#"
   xmlns:rdf="http://www.w3.org/1999/02/22-rdf-syntax-ns#"
   xmlns:svg="http://www.w3.org/2000/svg"
   xmlns="http://www.w3.org/2000/svg"
   xmlns:sodipodi="http://sodipodi.sourceforge.net/DTD/sodipodi-0.dtd"
   xmlns:inkscape="http://www.inkscape.org/namespaces/inkscape"
   version="1.1"
   id="svg2"
   xml:space="preserve"
   width="400"
   height="140"
   viewBox="0 0 400 140"
   sodipodi:docname="logo-ans.svg"
   inkscape:version="0.92.5 (2060ec1f9f, 2020-04-08)"><metadata
     id="metadata8"><rdf:RDF><cc:Work
         rdf:about=""><dc:format>image/svg+xml</dc:format><dc:type
           rdf:resource="http://purl.org/dc/dcmitype/StillImage" /><dc:title></dc:title></cc:Work></rdf:RDF></metadata><defs
     id="defs6" /><sodipodi:namedview
     pagecolor="#ffffff"
     bordercolor="#666666"
     borderopacity="1"
     objecttolerance="10"
     gridtolerance="10"
     guidetolerance="10"
     inkscape:pageopacity="0"
     inkscape:pageshadow="2"
     inkscape:window-width="2560"
     inkscape:window-height="1376"
     id="namedview4"
     showgrid="false"
     inkscape:zoom="3.383506"
     inkscape:cx="157.84285"
     inkscape:cy="26.998139"
     inkscape:window-x="0"
     inkscape:window-y="27"
     inkscape:window-maximized="1"
     inkscape:current-layer="g10" /><g
     id="g10"
     inkscape:groupmode="layer"
     inkscape:label="ink_ext_XXXXXX"
     transform="matrix(1.3333333,0,0,-1.3333333,0,139.99999)"><g
       id="g4873"
       transform="matrix(1.0583345,0,0,1.0583345,-129.31444,-561.59673)"><path
         d="m 229.597,608.143 h 6.484 l -3.18,8.762 h -0.125 z m 5.86,14.28 8.73,-21.825 h -5.394 l -1.341,3.711 h -9.227 l -1.341,-3.711 h -5.394 l 8.698,21.825 h 5.269"
         style="fill:#1d2346;fill-opacity:1;fill-rule:nonzero;stroke:none;stroke-width:0.1"
         id="path136"
         inkscape:connector-curvature="0" /><path
         d="m 256.416,612.975 9.167,0.032 v -10.164 c -2.463,-1.558 -5.082,-2.681 -8.606,-2.681 -7.202,0 -12.034,4.49 -12.034,11.099 0,6.641 4.832,11.598 12.066,11.598 2.992,0 5.674,-0.748 7.357,-1.714 0,-0.032 -1.496,-4.023 -1.496,-4.054 -1.559,0.936 -3.43,1.435 -5.706,1.435 -4.551,0 -7.451,-3.243 -7.451,-7.265 0,-4.022 2.962,-6.765 7.264,-6.765 1.622,0 2.775,0.343 3.835,0.935 v 3.71 h -4.396 v 3.834"
         style="fill:#1d2346;fill-opacity:1;fill-rule:nonzero;stroke:none;stroke-width:0.1"
         id="path138"
         inkscape:connector-curvature="0" /><path
         d="m 274.895,604.932 h 12.815 v -4.334 h -17.553 v 21.825 h 17.272 v -4.334 h -12.534 v -4.926 h 11.567 v -3.897 h -11.567 v -4.334"
         style="fill:#1d2346;fill-opacity:1;fill-rule:nonzero;stroke:none;stroke-width:0.1"
         id="path140"
         inkscape:connector-curvature="0" /><path
         d="m 307.116,600.598 -10.195,13.313 h -0.124 v -13.313 h -4.74 v 21.825 h 3.992 l 10.225,-13.344 h 0.125 v 13.344 h 4.739 v -21.825 h -4.022"
         style="fill:#1d2346;fill-opacity:1;fill-rule:nonzero;stroke:none;stroke-width:0.1"
         id="path142"
         inkscape:connector-curvature="0" /><path
         d="m 333.505,606.211 0.81,-4.272 c -1.871,-1.122 -4.489,-1.777 -7.046,-1.777 -7.077,0 -12.065,4.458 -12.065,11.161 0,6.61 4.864,11.536 12.065,11.536 2.369,0 4.615,-0.561 6.517,-1.496 -0.031,-0.031 -1.186,-4.334 -1.216,-4.365 -1.434,0.904 -3.243,1.528 -5.301,1.528 -4.645,0 -7.295,-3.336 -7.295,-7.203 0,-4.24 3.149,-6.827 7.452,-6.827 2.151,0 4.675,0.78 6.079,1.715"
         style="fill:#1d2346;fill-opacity:1;fill-rule:nonzero;stroke:none;stroke-width:0.1"
         id="path144"
         inkscape:connector-curvature="0" /><path
         d="m 342.508,604.932 h 12.813 v -4.334 h -17.552 v 21.825 h 17.272 v -4.334 h -12.533 v -4.926 h 11.566 v -3.897 h -11.566 v -4.334"
         style="fill:#1d2346;fill-opacity:1;fill-rule:nonzero;stroke:none;stroke-width:0.1"
         id="path146"
         inkscape:connector-curvature="0" /><path
         d="m 237.422,569.126 -10.196,13.313 h -0.124 v -13.313 h -4.739 v 21.825 h 3.991 l 10.225,-13.344 h 0.125 v 13.344 h 4.739 v -21.825 h -4.021"
         style="fill:#1d2346;fill-opacity:1;fill-rule:nonzero;stroke:none;stroke-width:0.1"
         id="path148"
         inkscape:connector-curvature="0" /><path
         d="m 252.273,576.671 h 6.484 l -3.18,8.761 h -0.124 z m 5.861,14.28 8.73,-21.825 h -5.394 l -1.341,3.711 h -9.228 l -1.341,-3.711 h -5.394 l 8.699,21.825 h 5.269"
         style="fill:#1d2346;fill-opacity:1;fill-rule:nonzero;stroke:none;stroke-width:0.1"
         id="path150"
         inkscape:connector-curvature="0" /><path
         d="m 272.052,586.617 h -6.61 v 4.334 h 17.99 v -4.334 h -6.61 v -17.491 h -4.77 v 17.491"
         style="fill:#1d2346;fill-opacity:1;fill-rule:nonzero;stroke:none;stroke-width:0.1"
         id="path152"
         inkscape:connector-curvature="0" /><path
         d="m 287.068,590.951 h 4.77 v -21.825 h -4.77 v 21.825"
         style="fill:#1d2346;fill-opacity:1;fill-rule:nonzero;stroke:none;stroke-width:0.1"
         id="path154"
         inkscape:connector-curvature="0" /><path
         d="m 313.39,580.038 c 0,4.084 -2.619,7.016 -6.36,7.016 -3.741,0 -6.359,-2.932 -6.359,-7.016 0,-4.084 2.618,-7.014 6.359,-7.014 3.741,0 6.36,2.93 6.36,7.014 z m 4.771,0 c 0,-6.609 -4.708,-11.348 -11.131,-11.348 -6.423,0 -11.13,4.739 -11.13,11.348 0,6.61 4.707,11.348 11.13,11.348 6.423,0 11.131,-4.738 11.131,-11.348"
         style="fill:#1d2346;fill-opacity:1;fill-rule:nonzero;stroke:none;stroke-width:0.1"
         id="path156"
         inkscape:connector-curvature="0" /><path
         d="m 337.281,569.126 -10.195,13.313 h -0.124 v -13.313 h -4.74 v 21.825 h 3.992 l 10.224,-13.344 h 0.126 v 13.344 h 4.739 v -21.825 h -4.022"
         style="fill:#1d2346;fill-opacity:1;fill-rule:nonzero;stroke:none;stroke-width:0.1"
         id="path158"
         inkscape:connector-curvature="0" /><path
         d="m 352.133,576.671 h 6.484 l -3.181,8.761 h -0.124 z m 5.86,14.28 8.73,-21.825 h -5.394 l -1.341,3.711 h -9.227 l -1.341,-3.711 h -5.394 l 8.698,21.825 h 5.269"
         style="fill:#1d2346;fill-opacity:1;fill-rule:nonzero;stroke:none;stroke-width:0.1"
         id="path160"
         inkscape:connector-curvature="0" /><path
         d="m 374.216,573.46 h 11.252 v -4.334 h -16.022 v 21.825 h 4.77 V 573.46"
         style="fill:#1d2346;fill-opacity:1;fill-rule:nonzero;stroke:none;stroke-width:0.1"
         id="path162"
         inkscape:connector-curvature="0" /><path
         d="m 392.838,573.46 h 12.813 v -4.334 h -17.552 v 21.825 h 17.272 v -4.334 h -12.533 v -4.926 h 11.566 v -3.897 h -11.566 v -4.334"
         style="fill:#1d2346;fill-opacity:1;fill-rule:nonzero;stroke:none;stroke-width:0.1"
         id="path164"
         inkscape:connector-curvature="0" /><path
         d="m 237.265,548.565 c 0,3.835 -2.432,6.578 -5.768,6.578 h -4.395 v -13.156 h 4.395 c 3.336,0 5.768,2.743 5.768,6.578 z m 4.864,0 c 0,-6.36 -4.49,-10.912 -10.632,-10.912 h -9.134 v 21.824 h 9.134 c 6.142,0 10.632,-4.553 10.632,-10.912"
         style="fill:#1d2346;fill-opacity:1;fill-rule:nonzero;stroke:none;stroke-width:0.1"
         id="path166"
         inkscape:connector-curvature="0" /><path
         d="m 245.928,545.604 v 13.873 h 4.77 v -13.873 c 0,-2.432 1.933,-4.054 4.708,-4.054 2.774,0 4.707,1.622 4.707,4.054 v 13.873 h 4.739 v -13.873 c 0,-4.958 -3.991,-8.388 -9.446,-8.388 -5.456,0 -9.478,3.43 -9.478,8.388"
         style="fill:#1d2346;fill-opacity:1;fill-rule:nonzero;stroke:none;stroke-width:0.1"
         id="path168"
         inkscape:connector-curvature="0" /><path
         d="m 295.202,543.95 c 0,-4.458 -3.835,-6.734 -9.136,-6.734 -3.179,0 -7.201,1.31 -9.477,2.806 l 1.778,3.741 c 2.182,-1.465 5.112,-2.369 7.793,-2.369 2.09,0 4.022,0.749 4.022,2.276 0,1.247 -1.247,2.027 -4.708,2.775 -5.082,1.122 -8.261,2.869 -8.261,7.046 0,4.022 3.835,6.422 9.29,6.422 2.993,0 5.986,-1.059 7.577,-1.995 l -1.341,-3.991 c -1.622,0.936 -4.021,1.747 -6.392,1.747 -2.899,0 -4.178,-1.03 -4.178,-2.152 0,-1.247 1.31,-2.026 4.77,-2.743 5.301,-1.154 8.263,-2.932 8.263,-6.829"
         style="fill:#ee2c2d;fill-opacity:1;fill-rule:nonzero;stroke:none;stroke-width:0.1"
         id="path170"
         inkscape:connector-curvature="0" /><path
         d="m 303.762,555.111 v -6.608 h 6.048 c 2.183,0 3.46,1.559 3.46,3.304 0,1.778 -1.277,3.304 -3.46,3.304 z m 0,-10.849 v -6.609 h -4.77 v 21.824 h 11.099 c 4.584,0 7.919,-3.366 7.919,-7.67 0,-4.488 -3.335,-7.545 -7.919,-7.545 h -6.329"
         style="fill:#ee2c2d;fill-opacity:1;fill-rule:nonzero;stroke:none;stroke-width:0.1"
         id="path172"
         inkscape:connector-curvature="0" /><path
         d="m 337.945,548.565 c 0,4.084 -2.619,7.015 -6.36,7.015 -3.741,0 -6.361,-2.931 -6.361,-7.015 0,-4.084 2.62,-7.015 6.361,-7.015 3.741,0 6.36,2.931 6.36,7.015 z m 4.771,0 c 0,-6.61 -4.708,-11.349 -11.131,-11.349 -6.423,0 -11.131,4.739 -11.131,11.349 0,6.609 4.708,11.348 11.131,11.348 6.423,0 11.131,-4.739 11.131,-11.348"
         style="fill:#ee2c2d;fill-opacity:1;fill-rule:nonzero;stroke:none;stroke-width:0.1"
         id="path174"
         inkscape:connector-curvature="0" /><path
         d="m 356.701,555.143 h -5.581 v -5.829 h 5.581 c 1.87,0 3.181,1.215 3.181,2.93 0,1.715 -1.311,2.899 -3.181,2.899 z m 6.672,-10.943 2.37,-6.547 h -5.27 l -2.337,6.142 c -0.624,1.652 -2.277,1.776 -3.336,1.776 h -3.68 v -7.918 h -4.77 v 21.824 h 10.788 c 4.458,0 7.576,-2.494 7.576,-6.578 0,-2.775 -1.559,-4.739 -3.929,-5.769 h 0.031 v -0.124 c 1.435,-0.53 2.121,-1.622 2.557,-2.806"
         style="fill:#ee2c2d;fill-opacity:1;fill-rule:nonzero;stroke:none;stroke-width:0.1"
         id="path176"
         inkscape:connector-curvature="0" /><path
         d="m 374.087,555.143 h -6.61 v 4.334 h 17.991 v -4.334 h -6.611 v -17.49 h -4.77 v 17.49"
         style="fill:#ee2c2d;fill-opacity:1;fill-rule:nonzero;stroke:none;stroke-width:0.1"
         id="path178"
         inkscape:connector-curvature="0" /><path
         d="m 163.584,547.823 c 12.889,0 21.481,4.687 21.481,12.368 0,9.113 -11.586,12.238 -22.132,15.102 -14.971,4.036 -30.463,8.462 -30.463,24.214 0,13.721 11.84,22.68 30.018,22.91 0.174,0.002 0.316,0.142 0.316,0.315 v 6.345 c 0,0.205 -0.171,0.372 -0.377,0.369 -22.317,-0.262 -37.508,-12.333 -37.508,-30.069 0,-21.611 22.392,-27.079 35.931,-30.854 13.28,-3.645 16.664,-5.728 16.664,-8.462 0,-3.255 -5.207,-5.207 -13.539,-5.207 -12.204,0 -24.788,4.183 -33.625,11.174 -0.185,0.145 -0.452,0.086 -0.558,-0.123 l -7.566,-15.009 c -0.093,-0.185 -0.015,-0.411 0.173,-0.5 l 5.71,-2.68 c 0.181,-0.085 0.397,-0.01 0.487,0.169 l 3.894,7.788 c 0.094,0.189 0.323,0.26 0.507,0.157 8.969,-4.998 20.245,-8.007 30.587,-8.007"
         style="fill:#1d2346;fill-opacity:1;fill-rule:nonzero;stroke:none;stroke-width:0.1"
         id="path180"
         inkscape:connector-curvature="0" /><path
         d="m 166.97,592.347 c -13.019,3.515 -16.274,5.078 -16.274,7.681 0,3.254 5.208,5.208 12.888,5.208 8.33,0 16.786,-2.272 23.879,-6.316 0.184,-0.105 0.416,-0.036 0.511,0.153 l 7.335,14.546 c 0.094,0.185 0.016,0.412 -0.172,0.501 l -5.755,2.7 c -0.157,0.074 -0.343,0.009 -0.421,-0.145 l -4.105,-8.133 c -0.085,-0.17 -0.282,-0.246 -0.46,-0.179 -6.514,2.495 -13.832,3.902 -20.681,3.902 -11.456,0 -20.57,-4.166 -20.57,-12.367 0,-7.421 7.291,-10.415 21.742,-14.321 12.106,-3.254 30.854,-7.811 30.854,-24.605 0,-14.507 -11.985,-23.085 -32.621,-23.3 -0.174,-0.002 -0.316,-0.142 -0.316,-0.316 v -6.344 c 0,-0.205 0.17,-0.372 0.376,-0.37 25.287,0.239 40.111,11.547 40.111,30.461 0,20.959 -21.611,27.339 -36.321,31.244"
         style="fill:#ee2c2d;fill-opacity:1;fill-rule:nonzero;stroke:none;stroke-width:0.1"
         id="path182"
         inkscape:connector-curvature="0" /></g></g></svg>