<svg height="140" viewBox="0 0 400 140" width="400" xmlns="http://www.w3.org/2000/svg"><g transform="matrix(1.41111263139 0 0 -1.41111263139 -172.41924902285 888.79561128011)"><g fill="#1d2346"><path d="m229.597 608.143h6.484l-3.18 8.762h-.125zm5.86 14.28 8.73-21.825h-5.394l-1.341 3.711h-9.227l-1.341-3.711h-5.394l8.698 21.825z"/><path d="m256.416 612.975 9.167.032v-10.164c-2.463-1.558-5.082-2.681-8.606-2.681-7.202 0-12.034 4.49-12.034 11.099 0 6.641 4.832 11.598 12.066 11.598 2.992 0 5.674-.748 7.357-1.714 0-.032-1.496-4.023-1.496-4.054-1.559.936-3.43 1.435-5.706 1.435-4.551 0-7.451-3.243-7.451-7.265s2.962-6.765 7.264-6.765c1.622 0 2.775.343 3.835.935v3.71h-4.396z"/><path d="m274.895 604.932h12.815v-4.334h-17.553v21.825h17.272v-4.334h-12.534v-4.926h11.567v-3.897h-11.567z"/><path d="m307.116 600.598-10.195 13.313h-.124v-13.313h-4.74v21.825h3.992l10.225-13.344h.125v13.344h4.739v-21.825z"/><path d="m333.505 606.211.81-4.272c-1.871-1.122-4.489-1.777-7.046-1.777-7.077 0-12.065 4.458-12.065 11.161 0 6.61 4.864 11.536 12.065 11.536 2.369 0 4.615-.561 6.517-1.496-.031-.031-1.186-4.334-1.216-4.365-1.434.904-3.243 1.528-5.301 1.528-4.645 0-7.295-3.336-7.295-7.203 0-4.24 3.149-6.827 7.452-6.827 2.151 0 4.675.78 6.079 1.715"/><path d="m342.508 604.932h12.813v-4.334h-17.552v21.825h17.272v-4.334h-12.533v-4.926h11.566v-3.897h-11.566z"/><path d="m237.422 569.126-10.196 13.313h-.124v-13.313h-4.739v21.825h3.991l10.225-13.344h.125v13.344h4.739v-21.825z"/><path d="m252.273 576.671h6.484l-3.18 8.761h-.124zm5.861 14.28 8.73-21.825h-5.394l-1.341 3.711h-9.228l-1.341-3.711h-5.394l8.699 21.825z"/><path d="m272.052 586.617h-6.61v4.334h17.99v-4.334h-6.61v-17.491h-4.77z"/><path d="m287.068 590.951h4.77v-21.825h-4.77z"/><path d="m313.39 580.038c0 4.084-2.619 7.016-6.36 7.016s-6.359-2.932-6.359-7.016 2.618-7.014 6.359-7.014 6.36 2.93 6.36 7.014zm4.771 0c0-6.609-4.708-11.348-11.131-11.348s-11.13 4.739-11.13 11.348c0 6.61 4.707 11.348 11.13 11.348s11.131-4.738 11.131-11.348"/><path d="m337.281 569.126-10.195 13.313h-.124v-13.313h-4.74v21.825h3.992l10.224-13.344h.126v13.344h4.739v-21.825z"/><path d="m352.133 576.671h6.484l-3.181 8.761h-.124zm5.86 14.28 8.73-21.825h-5.394l-1.341 3.711h-9.227l-1.341-3.711h-5.394l8.698 21.825z"/><path d="m374.216 573.46h11.252v-4.334h-16.022v21.825h4.77z"/><path d="m392.838 573.46h12.813v-4.334h-17.552v21.825h17.272v-4.334h-12.533v-4.926h11.566v-3.897h-11.566z"/><path d="m237.265 548.565c0 3.835-2.432 6.578-5.768 6.578h-4.395v-13.156h4.395c3.336 0 5.768 2.743 5.768 6.578zm4.864 0c0-6.36-4.49-10.912-10.632-10.912h-9.134v21.824h9.134c6.142 0 10.632-4.553 10.632-10.912"/><path d="m245.928 545.604v13.873h4.77v-13.873c0-2.432 1.933-4.054 4.708-4.054 2.774 0 4.707 1.622 4.707 4.054v13.873h4.739v-13.873c0-4.958-3.991-8.388-9.446-8.388-5.456 0-9.478 3.43-9.478 8.388"/></g><path d="m295.202 543.95c0-4.458-3.835-6.734-9.136-6.734-3.179 0-7.201 1.31-9.477 2.806l1.778 3.741c2.182-1.465 5.112-2.369 7.793-2.369 2.09 0 4.022.749 4.022 2.276 0 1.247-1.247 2.027-4.708 2.775-5.082 1.122-8.261 2.869-8.261 7.046 0 4.022 3.835 6.422 9.29 6.422 2.993 0 5.986-1.059 7.577-1.995l-1.341-3.991c-1.622.936-4.021 1.747-6.392 1.747-2.899 0-4.178-1.03-4.178-2.152 0-1.247 1.31-2.026 4.77-2.743 5.301-1.154 8.263-2.932 8.263-6.829" fill="#ee2c2d"/><path d="m303.762 555.111v-6.608h6.048c2.183 0 3.46 1.559 3.46 3.304 0 1.778-1.277 3.304-3.46 3.304zm0-10.849v-6.609h-4.77v21.824h11.099c4.584 0 7.919-3.366 7.919-7.67 0-4.488-3.335-7.545-7.919-7.545z" fill="#ee2c2d"/><path d="m337.945 548.565c0 4.084-2.619 7.015-6.36 7.015s-6.361-2.931-6.361-7.015 2.62-7.015 6.361-7.015 6.36 2.931 6.36 7.015zm4.771 0c0-6.61-4.708-11.349-11.131-11.349s-11.131 4.739-11.131 11.349c0 6.609 4.708 11.348 11.131 11.348s11.131-4.739 11.131-11.348" fill="#ee2c2d"/><path d="m356.701 555.143h-5.581v-5.829h5.581c1.87 0 3.181 1.215 3.181 2.93s-1.311 2.899-3.181 2.899zm6.672-10.943 2.37-6.547h-5.27l-2.337 6.142c-.624 1.652-2.277 1.776-3.336 1.776h-3.68v-7.918h-4.77v21.824h10.788c4.458 0 7.576-2.494 7.576-6.578 0-2.775-1.559-4.739-3.929-5.769h.031v-.124c1.435-.53 2.121-1.622 2.557-2.806" fill="#ee2c2d"/><path d="m374.087 555.143h-6.61v4.334h17.991v-4.334h-6.611v-17.49h-4.77z" fill="#ee2c2d"/><path d="m163.584 547.823c12.889 0 21.481 4.687 21.481 12.368 0 9.113-11.586 12.238-22.132 15.102-14.971 4.036-30.463 8.462-30.463 24.214 0 13.721 11.84 22.68 30.018 22.91.174.002.316.142.316.315v6.345c0 .205-.171.372-.377.369-22.317-.262-37.508-12.333-37.508-30.069 0-21.611 22.392-27.079 35.931-30.854 13.28-3.645 16.664-5.728 16.664-8.462 0-3.255-5.207-5.207-13.539-5.207-12.204 0-24.788 4.183-33.625 11.174-.185.145-.452.086-.558-.123l-7.566-15.009c-.093-.185-.015-.411.173-.5l5.71-2.68c.181-.085.397-.01.487.169l3.894 7.788c.094.189.323.26.507.157 8.969-4.998 20.245-8.007 30.587-8.007" fill="#1d2346"/><path d="m166.97 592.347c-13.019 3.515-16.274 5.078-16.274 7.681 0 3.254 5.208 5.208 12.888 5.208 8.33 0 16.786-2.272 23.879-6.316.184-.105.416-.036.511.153l7.335 14.546c.094.185.016.412-.172.501l-5.755 2.7c-.157.074-.343.009-.421-.145l-4.105-8.133c-.085-.17-.282-.246-.46-.179-6.514 2.495-13.832 3.902-20.681 3.902-11.456 0-20.57-4.166-20.57-12.367 0-7.421 7.291-10.415 21.742-14.321 12.106-3.254 30.854-7.811 30.854-24.605 0-14.507-11.985-23.085-32.621-23.3-.174-.002-.316-.142-.316-.316v-6.344c0-.205.17-.372.376-.37 25.287.239 40.111 11.547 40.111 30.461 0 20.959-21.611 27.339-36.321 31.244" fill="#ee2c2d"/></g></svg>