<svg height="110" viewBox="0 0 94 110" width="94" xmlns="http://www.w3.org/2000/svg"><g fill="none"><path d="m93.161 109.738h-92.704v-109.281h92.704z" fill="#004899"/><path d="m2.519 2.519h88.576v105.158h-88.576z" fill="#fff"/><path d="m28.6 61.8621495c5.8735118 8.8954396 17.2831803 12.2941328 27.0669184 8.0626491 9.7837381-4.2314838 15.1209005-14.8732106 12.6612389-25.2451463s-12.0070283-17.4838581-22.6490187-16.871465-19.3105258 8.7725491-20.5641853 19.3581678c-.1027196.8528461-.1542298 1.7110837-.1542298 2.5700935-.0063717 4.3071236 1.2596873 8.5201676 3.6392765 12.1102804" fill="#80a4cc"/><path d="m39.8107477 42.6070093 1.1719626.1850468-.4009346.771028-1.0280374-.5551402zm4.7135514-2.5700934-.9817757.8635514v.5859813l1.542056.385514 3.1098131-2.1126168-.082243-.8584112-1.2336448-.4266355zm.4831775-2.3182243h-.2827102l-.5191589.9817757-.8429907.0668224-.9612149 1.3878505.5140187.3289719 1.2953271-.8224299.992056-1.0588785zm1.7476636-2.7242991-1.9892523 1.5831776.7093457.5140187 1.5883178-1.6242991zm-15.2920561 8.8359813.6887851.0873832.2158878-1.6294392v-.5140187l-.1233645-.5140187-.3546729-.0308411zm.3649533 1.0742991.221028.3443925.4163552.0616823.1901869-.8429907-.6887851-.164486zm.4009346.8429907.0668224.4471962h.4266355l-.056542-.4831776zm.2415887.9612149.1182243.2878505.3598131-.1593458s-.0976635-.2672897-.1079439-.2672897zm.2158879.8224299.3084112-.1130841-.1182243-.2621495s-.1747663.1490654-.1696262.1696261v.2056075m14.5827103-1.2696262s-.5602803 1.3621496-.5602803 1.3724299c0 .0102804.8789719.082243.8789719.0873832l.2107477-1.1205607-.1542056-.1130841.1028037-.3855141-.4420561-.2415887-.138785.2878504zm-1.2901869.9457944.4780374.1336449.1439252-.4471963-.3392523-.0771028zm10.311215 17.2864486-.6939253.4009346-.8841121.1850467-1.9429907 1.9121496.1182243.4266355.2827103-.0411215 1.1102804-.4780374c.614719-.287846 1.1788523-.6731924 1.6705607-1.1411215.3408579-.3388665.6238905-.7312921.8378505-1.1616822zm-.5140187 2.667757-.2364486-.2621495s-.3700935.221028-.3700935.221028.2775701.2827103.2724299.2827103zm-7.3658879-16.5462616-.2724299-.0359813v.5140186l.2775701.0514019.164486-.6682243-.0873832-.0359813zm-16.4074766-2.8785047.0976635.4163551.3957944-.1285046-.1285046-.4214954zm-3.4233645 14.1406542 1.5420561-1.2593458 1.2490654.3186916 3.3359813-2.5135514.1593458-1.3364486-2.1897196-3.1971963c-.1251861-1.192085-.3260588-2.375002-.6014019-3.5415888-.2261682-.7813084-.7350467-3.053271-.7556075-3.0841121l-.2878504-.5808411-2.0869159-3.1303739 1.3518691-3.382243 1.0383178-.0771028.0668224-.5140186-.8018691-.6682243v-.1439253-.632243c0-.4317757.7299065-.8686916 1.2182243-.8686916.1376054.0011121.2743459.0218828.4060747.0616823.3491204.1406819.6722658.3387388.9560748.5859813.0514019.0359813.9560748 2.1537383.9560748 2.1537383l-.7658879.6219626-.3803738.9252337.5140187.4163551.7350467-1.2696262 3.0429906 1.0280374 1.8607477 1.0588785.5654206-.6168224 1.542056.1285047 1.1411215-1.5420561-1.0280373-.3906542 1.0845794-1.3056075-.1285047-.4420561-1.6551402-.3186915 1.264486-1.3518692 1.2285047.8018692v.3546729l.7761682.0925233.6116823-1.2490654-.4574767-.4060748 1.9327103-1.8607476 1.7630841-.8172898 1.3621496-.8943925.2672897-.2107476.0514018-.9560748-.2313084-.6785047-.6014018-.2364486.771028-.606542-.2107477-.1130841c-1.1439864.7987947-2.4877675 1.2633335-3.8808411 1.3415887-1.5420561.1028038-4.5953271-.5705607-4.5953271-.5705607l-3.053271-.4574766-1.0691589-.190187c-2.585635 1.3796446-4.8710828 3.2597225-6.7233645 5.5308412l-.0771028 2.8836448-.4728972 1.3261682-1.0691589 3.8037384.3546729 1.074299-1.732243.246729-1.7528037 1.9481308c-.0984455.8531727-.1482146 1.7112603-.1490895 2.5700935-.0063718 4.3071236 1.2596873 8.5201676 3.6392764 12.1102804m29.864486-30.8102804c5.4288701 3.3629019 9.1281217 8.9192828 10.1364486 15.2252336l-1.7168224 1.4700935-1.0948598-.2621495-.5140187.4523364.0359813.303271c0 .1439253.082243.4266356.1901869.8532711.2118664.8404927.3223102 1.7033346.328972 2.5700934.0207073.6136506-.0503251 1.226954-.2107477 1.8196262h-.935514l-2.6317757-2.0663551-2.0046729.4523364-1.2953271-.221028-1.6397197.5140187.740187.6373831 1.2901869-.3649532 1.1102803.8892523-.1747663.3906542-.4574766.7453271-.9869159 1.4084112-1.5420561 1.2285047-2.8116822-2.9196262-.7299066.0771028 3.0018692 3.4439253 1.2182243-.246729.303271.6219626-1.2233645 2.0046729-2.3850467 2.2771028-1.0383178 2.6883178c-.0746412.1099883-.1828158.1929222-.3084112.2364486-.440885.2336341-.8445308.5316043-1.1976635.8841121-.575701.5397196-.8943926.8378505-.9663552.8943925-.5406683.4692711-1.1106689.903639-1.706542 1.3004673-.6326459.4274243-1.2900249.8170457-1.9686916 1.1668225-1.1143879.5734656-2.3450984.8846596-3.5981309.909813-.785156-.0021925-1.5647003-.1324059-2.3079439-.385514-.1028037-.0359813-.1696262-.0873831-.1696262-.1336448l.5140187-1.4700935c.4019625-.5156283.83271-1.0081563 1.2901869-1.4752336.4131315-.4724202.7199028-1.0281145.8995328-1.6294393.1726718-.6130881.394416-1.2112817.6630841-1.788785.4780374-.7710281.7042056-1.428972.5448598-1.5883178l-3.1149533-3.1303738-1.3056075-2.4313084.1387851-.575701c.2678872-.7857012.6122157-1.5432239 1.0280374-2.2616822.1788506-.4507375.4908462-.8362494.8943925-1.1051402l2.0869159-1.0280374 4.0453271.6116823 1.2336448.8224299.575701-.0719626 2.4724299.6425233.6168224-1.6088785-3.1406542-.8841121-1.1102804-1.1051402-.1542056.0411215.5140187 1.3107476-.6271028.1285047-.0668224-.1542056.221028-.0411215s-.1901869-.8070093-.6785047-1.0280374c-.1406444-.0903559-.3012015-.1450512-.467757-.1593458-.3064318.0223078-.5979322.1410671-.8327102.3392524-.3744741.4009096-.8036231.7469975-1.2747664 1.0280373l-1.2901869-.9714953.4780374-1.2028037.2004673.0462617c.1193555.0294619.2420343.0432849.3649532.0411215.3155608.0292203.608789-.1655517.7042056-.4677571.0422233-.1571451-.0121876-.3244079-.138785-.4266355 0 0-.1233645-.138785-.1233645-.138785.0666074-.0642995.1268554-.1348757.1799065-.2107477.2528873.0679008.5106747.1160211.7710281.1439253.2782459.0380248.5603572-.0338859.7864486-.2004673l.3084112-.5140187.5140187-.1490654.0925234-.6939253h.3238317c.1194201.1787168.2064196.3770758.2570094.5859813l.9098131-.2364486.2672897-.9303738-.1439253-.164486.3957944-.8943925-.3443925-.2415888-.5859813 1.6448598-.3186916.0411215-.1439252-.3649533-.8172897.0616823-.4574767-.7350467.9920561-1.0280374.9714953-1.3004673 1.3724299.4317757.3341122.6785047h.4163551l-.1542056-.9869159 1.1205608-1.0280374-.7453271-3.3771028.4780373-1.0640187.5140187.0308411.0771028-.8327103-3.5981308-3.9116822.1182243-1.0588785 2.9556075-.6733645.4266355.1285047 1.6808411-.164486.3906542.1747664 2.7140187-.2672898zm-.0514019.6528037-3.4439252.7504673 2.3747664 1.3672897.7761682-.909813.9612149-.6476636z" fill="#004899"/><g fill="#e3211b"><path d="m22.2107477 20.9514019-.5705608-1.8299066h-3.7780374l-.6014018 1.8299066h-3.1560748l4.4668224-12.28504676h2.3285047l4.4616822 12.28504676zm-2.4004673-7.6280374-1.1 3.2794392h2.1383177zm16.8495327 6.4200934c-.8978668.8285096-2.0898254 1.2634634-3.3102804 1.207944h-4.564486v-12.28504676h4.5490654c1.220455-.05551948 2.4124137.37943437 3.3102804 1.20794393 1.4341122 1.43411213 1.2747664 3.00186913 1.2747664 4.93457943s.1747663 3.5004673-1.2593458 4.9345794zm-2.0560748-7.7102803c-.3208905-.4773644-.8767601-.7415009-1.4495327-.6887851h-1.3364486v6.9135514h1.3261682c.5727727.0527159 1.1286422-.2114207 1.4495327-.688785.2415888-.3443925.3238318-.6733645.3238318-2.7602804s-.082243-2.4158878-.3238318-2.7602804z"/><path d="m42.036 20.951v-12.285h8.338v2.694h-5.32v2.056h4.549v2.693h-4.549v2.154h5.32v2.694z"/><path d="m62.993 20.951v-5.885l-1.743 3.038h-1.932l-1.748-3.038v5.885h-3.012v-12.285h2.961l2.76 5.418 2.76-5.418h2.961v12.285z"/><path d="m70.482 20.951v-12.285h8.343v2.694h-5.32v2.056h4.549v2.693h-4.549v2.154h5.325v2.694z"/><path d="m16.5514019 78.6448598-1.9532711 5.3766355h1.2747664l.2672897-.8224299h1.7887851l.2570093.8224299h1.2747664l-1.9584113-5.3766355zm-.0719626 3.5570094.5859813-1.7425234.55 1.7425234zm6.4663551 1.8504672c.5774152.0358476 1.141371-.1840951 1.5420561-.6014018.3906542-.3957944.5140187-.8841122.5140187-1.7836449v-.7042056h-1.9943926v1.0280374h.8121496v.138785c.006666.2301203-.0741538.4542116-.2261683.6271028-.1742179.1639936-.4089741.2478351-.6476635.2313085-.2247665.0106567-.4415788-.0844364-.5859813-.2570094-.1285047-.1696262-.2158879-.3598131-.2158879-1.3981308 0-1.0383178.0873832-1.2233645.2158879-1.3929907.1448317-.1725665.3608015-.2691846.5859813-.2621495.3975106-.0447459.7625045.2239613.8378505.6168224h1.2336448c-.156595-.7587561-.7140966-1.3719513-1.4545604-1.5998686-.7404637-.2279173-1.5462871-.0343583-2.1024489.5050088-.5140187.5140187-.5140187 1.2696262-.5140187 2.0560748v.1850467c0 .771028 0 1.5009346.5140187 2.0560748.3950989.3856715.9343159.5871783 1.485514.5551401z"/><path d="m28.328 81.832h2.04v-1.075h-2.04v-1.048h2.39v-1.08h-3.614v5.377h3.614v-1.079h-2.39z"/><path d="m36.979 84.006v-5.377h-1.229v2.925l-1.861-2.925h-1.079v5.377h1.223v-2.925l1.861 2.925z"/><path d="m41.8257009 82.3869159c-.0687764.355296-.3890977.6054098-.7504673.5859813-.2247664.0106567-.4415787-.0844364-.5859813-.2570093-.1285046-.1696262-.221028-.3700935-.221028-1.3981309s.0925234-1.2285047.221028-1.3981308c.1444026-.172573.3612149-.2676661.5859813-.2570094.3613696-.0194285.6816909.2306854.7504673.5859813h1.2490655c-.1255695-.9984786-1.0053885-1.7275357-2.0098131-1.6654205-.5565173-.0191104-1.0948564.1995898-1.4803739.6014018-.5397196.5140187-.5397196 1.2696262-.5397196 2.0560748v.1850467c0 .7710281 0 1.5009346.5397196 2.0560748.3855175.401812.9238566.6205123 1.4803739.6014019 1.0044246.0621152 1.8842436-.666942 2.0098131-1.6654206z"/><path d="m46.159 81.832h2.041v-1.075h-2.041v-1.048h2.385v-1.08h-3.608v5.377h3.608v-1.079h-2.385z"/><path d="m58.1252336 81.5542056v-.467757c0-.7658879 0-1.3672897-.5551401-1.9327103-.3921692-.3561458-.9101965-.5411555-1.4392524-.5140187h-1.9738318v5.3714954h1.9738318c.5293951.0294632 1.0482944-.155858 1.4392524-.5140187.5654205-.575701.5602803-1.182243.5551401-1.9429907zm-1.3827102 1.0280374c-.1557689.2325081-.4252965.3623535-.7042056.3392523h-.657944v-3.2228972h.6476636c.2789091-.0231012.5484367.1067443.7042056.3392524.1233645.1747663.1542056.3649532.1542056 1.2696261s-.0257009 1.1205608-.1439252 1.2850468z"/><path d="m61.415 81.837h2.041v-1.08h-2.041v-1.048h2.39v-1.074h-3.613v5.371h3.613v-1.074h-2.39z"/><path d="m70.642 78.629h-1.224v5.377h3.532v-1.079h-2.308z"/><path d="m77.7247664 84.0060748h1.2747663l-1.9584112-5.361215h-.9663551l-1.9532711 5.3766355h1.2747664l.2724299-.8224299h1.7836448zm-1.7065421-1.8196262.5705607-1.7425234.55 1.7425234z"/><path d="m16.156 92.765h1.223v-4.297h1.357v-1.08h-3.937v1.08h1.357z"/><path d="m25.0018692 90.4672897c.5258639-.2600895.8585929-.7960422.8584112-1.3827103.0010427-.471534-.19365-.9223541-.5376221-1.2448888-.343972-.3225347-.8063715-.4878549-1.2768639-.456513h-2.117757v5.3766355h1.2285047v-2.0560748h.5602803l.9766355 2.0560748h1.4238318l-1.1771028-2.2616823zm-1.0280374-.7607476h-.8172897v-1.2439253h.82757c.2222059 0 .4275326.1185454.5386356.3109813.1111029.1924359.1111029.4295268 0 .6219627-.111103.1924359-.3164297.3109813-.5386356.3109813zm6.7028037-2.3233645-1.9584112 5.3766355h1.2799065l.2724299-.8224299h1.7887851l.2518692.8224299h1.2799065l-1.9584112-5.3766355zm-.0719626 3.5570093.5859813-1.7425233.55 1.7425233z"/><path d="m36.578 87.388v5.377h1.228v-2.925l1.861 2.925h1.084v-5.377h-1.223v2.925l-1.866-2.925z"/><path d="m46.4004673 89.5471963-.6528037-.107944c-.1550188-.0116394-.3016396-.074994-.4163552-.1799065-.0794256-.0813485-.1253048-.1896235-.1285047-.303271 0-.2775701.2313084-.575701.7299066-.575701h.0462617c.3580577-.0295141.7140945.0769299.9971962.2981309l.7658879-.7556075c-.4851715-.4285743-1.1225975-.6435203-1.7682243-.5962617-1.1668225 0-1.9481309.6733645-1.9481309 1.6757009-.0236809.3865033.1055533.7668211.3598131 1.0588786.2938536.2713945.6704045.4361356 1.0691589.467757l.6682243.0925233c.1472927.0126549.2871931.0700499.4009346.164486.0881561.1023608.1324729.2353111.1233645.3700935 0 .2570093-.1439253.5602803-.8532711.5602803-.4378668.0179275-.8694974-.1084915-1.2285046-.359813l-.7761683.7761682c.5457599.4886778 1.2699176.7288226 1.9995327.6630841 1.0280374 0 2.0560748-.5140187 2.0560748-1.6654206.0358644-.4245684-.1055379-.8450542-.3906542-1.1616822-.2961827-.2511534-.666052-.3991011-1.0537383-.4214953z"/><path d="m51.135 87.388h1.223v5.371h-1.223z"/><path d="m56.912 92.765h1.224v-4.297h1.351v-1.08h-3.932v1.08h1.357z"/><path d="m62.685 87.388h1.223v5.371h-1.223z"/><path d="m71.3149533 89.9841121c0-.771028 0-1.5009345-.5397197-2.0560747-.8338529-.8022465-2.1525956-.8022465-2.9864486 0-.5140186.5140187-.5140186 1.2696262-.5140186 2.0560747v.1850468c0 .771028 0 1.5009346.5140186 2.0560747.833853.8022465 2.1525957.8022465 2.9864486 0 .5397197-.5140186.5397197-1.2696261.5397197-2.0560747zm-1.4392524 1.4752337c-.1484386.1735084-.3653515.2733979-.5936916.2733979s-.4452529-.0998895-.5936915-.2733979c-.1336449-.1747664-.2158879-.3546729-.2158879-1.3827103s.0873832-1.2233645.2158879-1.3929906c.1519855-.1674063.3675843-.262866.5936915-.262866.2261073 0 .4417061.0954597.5936916.262866.1285047.1696261.2158879.359813.2158879 1.3929906s-.082243 1.2079439-.2158879 1.3827103z"/><path d="m78.83 92.765v-5.377h-1.229v2.925l-1.86-2.925h-1.085v5.377h1.223v-2.925l1.866 2.925z"/><path d="m16.032 99.355h2.051v-1.08h-2.051v-1.054h2.401v-1.079h-3.629v5.392h3.629v-1.079h-2.401z"/><path d="m16.551 94.204-.344 1.265h.648l.832-1.265z"/><path d="m24.2668224 97.7663551h1.2542056c-.1401821-.9897099-1.0172155-1.7056555-2.0149532-1.6448598-.5595897-.0194415-1.1012243.19908-1.4906542.6014019-.5140187.5140187-.5140187 1.2747664-.5140187 2.0560748v.1799065c0 .7761682 0 1.5112145.5140187 2.0560745.3894299.402322.9310645.620844 1.4906542.601402 1.0064032.05951 1.8869746-.670555 2.0149532-1.6705606h-1.2542056c-.0688266.3581376-.3914323.6105166-.7556074.5911216-.224618.009858-.4410918-.085087-.5859814-.257009-.1285046-.174767-.221028-.3752341-.221028-1.4032715s.0925234-1.2336448.221028-1.4084112c.1462953-.1700323.3618021-.2645528.5859814-.2570093.3531365-.0225758.6716019.2113987.7556074.5551401zm6.1014019-1.6448598c-.5620471-.0249217-1.1074257.1943542-1.4957944.6014019-.5448598.5140187-.5448598 1.2747664-.5140187 2.0560748v.1799065c0 .7761682 0 1.5112145.5140187 2.0560745.8355862.802888 2.1560026.802888 2.9915888 0 .5448598-.514018.5397205-1.2696259.5397205-2.0560745v-.1901869c0-.771028 0-1.5060748-.5397205-2.0560748-.3901955-.4032695-.9353319-.6187014-1.4957944-.5911215zm.5962617 4.1121497c-.149403.173716-.367136.273639-.5962617.273639s-.4468587-.099923-.5962617-.273639c-.1336448-.174766-.2107476-.354673-.2107476-1.3878506s.0771028-1.2233645.2107476-1.3981308c.1512139-.1706212.3682766-.2682888.5962617-.2682888s.4450478.0976676.5962617.2682888c.1336448.1747663.2107476.3546728.2107476 1.3981308 0 1.0434579-.0771028 1.2079436-.2107476 1.3878506z"/><path d="m36.835 96.142h-1.229v5.392h3.547v-1.079h-2.318z"/><path d="m43.861215 96.1214953c-.5617002-.0228994-1.1062762.1960539-1.4957944.6014019-.5140187.5140187-.5140187 1.2747664-.5140187 2.0560748v.1799065c0 .7761682 0 1.5112145.5140187 2.0560745.8383765.800895 2.1583524.800895 2.9967289 0 .5140187-.514018.5140187-1.2747661.5140187-2.0560745v-.1799065c0-.7761683 0-1.511215-.5140187-2.0560748-.3911032-.4061571-.9375851-.6251242-1.5009345-.6014019zm.5962616 4.1121497c-.1484386.173508-.3653515.273398-.5936916.273398s-.4452529-.09989-.5936915-.273398c-.1336449-.174766-.2158879-.3598132-.2158879-1.3878506s.082243-1.2285047.2158879-1.3981308c.1454214-.1752993.3634513-.2738867.5911215-.2672898.2291459-.0066487.4487637.0918007.5962616.2672898.1336449.1747663.2158879.3546728.2158879 1.3981308 0 1.0434579-.082243 1.2079436-.2158879 1.3878506zm7.3350468-2.4364487h1.238785c-.1519058-.7722814-.7167301-1.3981669-1.4694213-1.6282753-.7526911-.2301085-1.5709363-.0270471-2.1287095.5282753-.5140187.5140187-.5140187 1.2747663-.5140187 2.0560747v.1799066c0 .7761682 0 1.5112154.5140187 2.0560744.8593541.803034 2.1939168.803034 3.053271 0 .3906542-.400934.5140187-.884112.5140187-1.7887847v-.714486h-2.0560748v1.0280374h.8121496v.1439252c.0211174.2380793-.0650716.4731681-.2350713.6411801-.1699996.168011-.4060863.251428-.6439007.227512-.2015098-.022884-.3842135-.129151-.5037383-.292991-.1285047-.169626-.2158879-.3598132-.2158879-1.4032712 0-1.0434579.0873832-1.2285046.2158879-1.3981308.1433317-.1751163.3597807-.2738474.5859813-.2672897.4006225-.04095.7645262.2353472.8327103.632243z"/><path d="m56.249 96.142h1.229v5.392h-1.229z"/><path d="m64.4476636 100.691121c.2641066-.547728.3691815-1.158588.303271-1.7630836v-.1799066c0-.7761682 0-1.5112149-.5397196-2.0560747-.8355862-.8028873-2.1560027-.8028873-2.9915888 0-.5140187.5140187-.5140187 1.2747663-.5140187 2.0560747v.1799066c0 .7761682 0 1.5112146.5140187 2.0560746.3895182.405348.9340942.624301 1.4957944.601402.3583271.008772.7127223-.076283 1.0280373-.246729h.0411215l.4163552.416355.6014018-.596261-.3957943-.395795zm-.9560748-1.0280369v.1387851l-.3135514-.3186916-.6014019.6014014.3906542.390655h-.1182243c-.0409724.004952-.0823921.004952-.1233645 0-.2282166.003807-.4457621-.096453-.5911215-.27243-.1336448-.174767-.2158878-.3598133-.2158878-1.3878507s.082243-1.2285047.2158878-1.3981309c.1454214-.1752992.3634514-.2738867.5911215-.2672897.229146-.0066487.4487637.0918006.5962617.2672897.1285047.1696262.2107477.3598131.2107477 1.3981309-.0102804.4214953-.025701.6836448-.0411215.8429906zm5.5976635-.0308411v-3.5107477h-1.238785v3.5210281c.1592636.9978036 1.0199396 1.7319986 2.0303738 1.7319986 1.0104343 0 1.8711102-.734195 2.0303739-1.7319986v-3.5210281h-1.2285047v3.4901869c.0258337.2273677-.0493071.4546318-.2055833.6217878s-.3779765.2574-.6065663.246904c-.2203574.004047-.4319131-.086399-.5812391-.248496-.1493259-.162098-.2221459-.3803489-.2000693-.599635z"/><path d="m76.435 99.355h2.045v-1.08h-2.045v-1.054h2.395v-1.079h-3.624v5.392h3.624v-1.079h-2.395z"/></g></g></svg>