<svg height="600" width="557.77002" xmlns="http://www.w3.org/2000/svg" xmlns:xlink="http://www.w3.org/1999/xlink"><clipPath><path d="m36 413.667v-23.804l19.064-6.798 19.056 6.798v23.806l-16.876 6.025c.341-.816 1.137-2.712 1.137-2.712s-2.969 1.505-3.317 1.681c-.348-.176-3.316-1.681-3.316-1.681s.797 1.896 1.14 2.713z"/></clipPath><linearGradient id="a" gradientTransform="matrix(1.6307683 0 0 1.3386161 -636.8894 451.24304)" gradientUnits="userSpaceOnUse" x1="703.64771" x2="449.99631" y1="112.24141" y2="339.5882"><stop offset="0" stop-color="#0075bb"/><stop offset=".15213515" stop-color="#0864a8"/><stop offset=".23654814" stop-color="#0f5395"/><stop offset=".32445863" stop-color="#184281"/><stop offset=".41436213" stop-color="#21316f"/><stop offset=".5036816" stop-color="#252966"/><stop offset=".65451837" stop-color="#21255d"/><stop offset=".82377547" stop-color="#1d2053"/><stop offset="1" stop-color="#161944"/></linearGradient><linearGradient id="b" gradientTransform="matrix(1.6844642 0 0 1.3826924 -667.94367 441.27743)" gradientUnits="userSpaceOnUse" x1="717.73944" x2="438.72293" y1="102.84692" y2="347.10379"><stop offset="0" stop-color="#c8af74"/><stop offset=".13721518" stop-color="#d0b985"/><stop offset=".26429644" stop-color="#d3c08e"/><stop offset=".3756811" stop-color="#e1d2ab"/><stop offset=".49928439" stop-color="#d5cb99"/><stop offset=".5981825" stop-color="#d5bb8e"/><stop offset=".71454686" stop-color="#c3a068"/><stop offset=".84791112" stop-color="#c09a5e"/><stop offset="1" stop-color="#bd9659"/></linearGradient><clipPath><path d="m36 413.667v-23.804l19.064-6.798 19.056 6.798v23.806l-16.876 6.025c.341-.816 1.137-2.712 1.137-2.712s-2.969 1.505-3.317 1.681c-.348-.176-3.316-1.681-3.316-1.681s.797 1.896 1.14 2.713z"/></clipPath><clipPath><path d="m36 413.667v-23.804l19.064-6.798 19.056 6.798v23.806l-16.876 6.025c.341-.816 1.137-2.712 1.137-2.712s-2.969 1.505-3.317 1.681c-.348-.176-3.316-1.681-3.316-1.681s.797 1.896 1.14 2.713z"/></clipPath><linearGradient id="c" gradientUnits="userSpaceOnUse" x1="139.36563" x2="138.4608" y1="599.83881" y2="491.15604"><stop offset="0" stop-color="#db0021"/><stop offset=".23534806" stop-color="#de0b2b"/><stop offset=".46222284" stop-color="#dc1931"/><stop offset=".65541595" stop-color="#cd453b"/><stop offset=".857153" stop-color="#cb4e40"/><stop offset="1" stop-color="#bd9359"/></linearGradient><linearGradient id="d" gradientUnits="userSpaceOnUse" x1="370.01013" x2="368.87613" y1="601.32855" y2="492.59323"><stop offset="0" stop-color="#dc0223"/><stop offset=".16574131" stop-color="#dc0424"/><stop offset=".37709773" stop-color="#de0b2b"/><stop offset=".57140976" stop-color="#d62b35"/><stop offset=".84007043" stop-color="#de917d"/><stop offset="1" stop-color="#dfd1a7"/></linearGradient><g transform="matrix(1.1557011 0 0 1.1557011 -75.043217 -571.72294)"><path d="m306.36736 494.69792-241.434242 107.69366v303.26294l241.309352 108.20878 241.31265-108.20878v-303.26304z" fill="url(#b)"/><path d="m83.368425 613.52109-.079306 283.10823 222.953001 101.72578 222.95708-101.72578-.0828-283.10857-222.75292-100.06893z" fill="url(#a)"/><g transform="translate(64.933119 413.86332)"><path d="m18.355 481.773v1.73481c43.830741 25.0386 149.3535 68.72632 222.95359 101.46094 73.60009-32.73462 179.12267-76.42234 222.95341-101.46094v-1.73481c-74.32474 29.99722-148.6368 60.026-222.95341 90.04341-74.36606-29.89416-148.562571-60.21142-222.95359-90.04341z" fill="#fff" fill-rule="evenodd"/><path d="m464.26159 483.50785c-43.83061 25.03856-149.35291 68.72628-222.953 101.4609v15.03125l241.3125-108.20898z" fill="url(#d)"/><path d="m241.30859 584.96875c-73.60009-32.73462-179.12238-76.42234-222.953121-101.46094l-18.355469 8.28321 241.30859 108.20898z" fill="url(#c)"/></g></g><g transform="matrix(1.1557011 0 0 1.1557011 429.581746 -571.72294)"><g><path d="m-58.681263 606.2767c-.158323 1.95664 1.351755 3.63374 3.361126 3.8039 1.997203.17014 3.750838-1.28822 3.909161-3.23271.158312-1.93233-1.351776-3.6216-3.373324-3.77959-2.009381-.15799-3.750829 1.27606-3.896963 3.2084" fill="#fff"/><path d="m-37.54359 591.32108s-14.749058 20.80126 8.433067 23.81894c0 0-9.43903 1.98008-15.244027-1.72727-5.80427-3.71951-2.483319-13.75987 6.81096-22.09167" fill="#fff"/><path d="m-43.086762 616.91376c1.500796 4.5375 5.519841 5.59362 10.86109 6.31466 5.353358.71966 14.228872 4.36281 10.857082 13.33667-1.856102 4.87342-6.901044 7.59246-14.246682 2.96658-7.290315-4.57108-10.846674-13.03203-7.47149-22.61791" fill="#d30b23"/><path d="m-60.93598 578.04577c-10.448745-1.75004-15.344305-5.0192-16.001921-7.82657 0 0-7.550368 7.63212-3.007967 14.26768 0 0-6.685739 3.39069-11.021105.71704 0 0-4.980825 5.57824-1.534444 13.11313.08522.23091.243568.44965.353169.68056-4.822492 2.90458-8.524622 3.53653-10.521812 2.80735 0 0 2.09462 6.48971 8.816888 7.09737 0 0-.560203 4.39941-4.359733 5.32305 0 0 1.777992 4.50877 8.658576 5.95499 3.738661.78994 9.827653.81423 14.272641-1.65282-3.275891-2.83166-3.982208-5.83346-3.446392-8.67727.584559-2.27263 1.583155-4.16849 2.837488-5.78485 1.400476-1.65281 3.1054-3.07473 4.737257-4.07127v-.0244c6.661382-3.9133 15.928852-3.98621 22.017865-2.64938l1.631856-.86287c3.288069-5.35949-.755039-16.29721-13.432366-18.41185" fill="#d30b23"/><g fill="#fff" transform="matrix(1.0170967 0 0 1.0136319 -314.57095894439 422.32795539191)"><path d="m110.21094 300.39844c-.0389.11863-.0731.2316-.11133.34961l.10937.15039.0332-.0332c-.005-.0978-.0312-.46679-.0312-.46679zm-.23828 2.70703c-3.30273 11.03764-3.84891 19.28806-2.58789 25.23047 1.36109 6.414 4.65178 10.31312 8.48242 12.72851 3.83065 2.4154 8.22018 3.32323 11.70898 3.61719 1.74439.147 3.26198.14221 4.36914.0996.0414-.002.0593-.004.0996-.006-10.25979-5.01241-15.85212-15.63997-18.8418-25.24219-2.41795-7.76597-3.00556-13.54-3.23046-16.42773z"/><path d="m176.10742 269.42188c-3.51557 20.2608-11.89298 48.47508-13.00586 69.33007-1.17084 22.13129 3.66476 38.20225 8.78321 48.74219 4.22452 8.69916 7.91977 12.7385 9.32617 14.1875-2.08942-9.30932-2.59438-23.62036-1.07422-38.51562 1.61242-15.79928 5.43401-32.02404 11.97656-42.91016 4.86124-8.10978 10.53503-23.61024 14.50195-33.89258-3.44322-2.30839-6.63023-4.42357-9.0957-5.78516l-.0117-.006-.0156-.01c-.002-.001-.002-.003-.004-.004-7.2421-4.00233-14.21839-8.14657-21.38086-11.13671z"/><path d="m153.36133 180.21094c-1.12159.004-2.24645.0327-3.375.0898-16.11982.81286-35.30805 6.50776-50.179689 16.40234 34.350069-8.67253 60.143689 1.89902 73.720699 25.61524l.01.0195.008.0176c.22034.47068.65609 1.43017.9707 2.13672 14.69183 1.75622 27.52819 7.81632 38.70118 14.99023l-.33203-10.03711c-2.0729-9.64025-7.64869-20.54862-15.0293-29.2832-11.8269-13.98495-27.67587-20.00147-44.49414-19.95117z"/><path d="m165.94336 227.3418c-9.5954 0-22.77518 1.0913-34.19727 5.66992-.002.001-.003.001-.004.002l-.006.002c-34.589752 14.75897-44.789749 40.95454-44.810549 64.82422-.01038 11.93602 2.546703 23.2849 5.914063 32.27149 2.91423 7.77732 6.4349 13.61207 9.343746 16.66406-3.186146-9.26549-4.369674-23.31934-.64843-37.80078 3.96837-15.44314 13.45446-31.1513 31.77929-41.17578l.008-.004.008-.004c13.86646-6.95545 25.52736-7.19573 36.09961-4.33204 10.57226 2.86368 20.05801 8.7944 29.72656 14.13672 7.00471 3.86699 17.24152 11.66025 28.70898 18.35157 4.51083-5.36373 8.81339-10.99264 12.50782-16.98047 1.93482-3.99436 3.43062-7.55737 4.62109-11.23828-.45861-.32199-.92115-.64238-1.38086-.98047-17.98053-13.23056-43.16324-39.40625-77.66992-39.40625zm129.42969 43.13086c-3.19954 4.78335-7.06408 7.82313-11.39649 9.26367-4.80239 1.59681-10.10199 1.35076-15.52929-.0703-5.18428 12.72939-10.44856 19.89227-17.75391 26.33789 4.03252 1.06011 8.05604 1.70061 11.99609 1.63671 14.67508-.23775 22.88519-10.01493 27.50782-19.83203 3.7693-8.00489 4.81655-14.66355 5.17578-17.33593z"/><path d="m123.68945 199.86133c-2.96518.0138-5.9388.23127-8.89062.63476-15.736422 2.15102-30.824451 9.61839-40.605471 19.72657-18.85761 22.14796-19.424417 44.13678-15.304687 60.6582 3.51299 14.08822 10.12636 23.6865 12.09375 26.34766.42597-16.74371.304569-28.88249 2.693359-39.55274 2.4673-11.021 7.638503-20.65113 18.789063-32.68164l.01563-.0156.01563-.0156c22.077216-19.98307 37.204026-21.13695 65.861326-23.18945-9.15038-7.71453-20.27915-11.37813-31.70703-11.85742-.98555-.0413-1.97254-.0593-2.96094-.0547z" fill-rule="evenodd"/><path d="m285.11523 230.20703c1.38427 12.89809 4.14897 31.8455-7.9082 46.24805 4.97882.4459 9.05093-1.51047 12.13477-4.89649 3.26789-3.5881 5.41616-8.69715 6.25-13.83007.9515-9.60145-1.23887-18.93667-10.47657-27.52149z" fill-rule="evenodd"/><path d="m243.44336 212.39453s.07.14112.084.16797l.0273-.10352c-.0379-.0208-.0733-.0437-.11133-.0644zm1.19531 1.36719c1.77097 3.69287 7.59908 17.0674 6.99414 33.7168-.52443 14.43332-3.1453 22.5797-8.25976 33.11328l-.0117.0234-.0117.0215c-7.80335 12.68385-18.08858 23.63768-27.38086 33.64453-8.68221 9.34988-16.3436 17.87004-20.47656 26.12891.43101-.27963.78828-.51193 1.38281-.89454 1.94045-1.24874 4.71971-3.03211 8.12109-5.25 6.79153-4.42845 16.06635-10.59525 26.05664-17.68164l.041-.0293h.002c20.4472-14.5286 27.6374-18.34327 37.29883-46.23047 5.90439-22.67996-2.18058-44.01296-23.75586-56.5625zm-50.52539 128.10742c-.0132.03-.0298.0598-.043.0898v.0137c.003-.006.10699-.0735.1211-.0859z"/></g></g><g fill="#fff" fill-rule="evenodd"><path d="m-246.28726 848.12269v59.45406h15.34338v-20.45743h39.696v-12.361h-39.696v-13.34981h45.839v-13.28582z"/><path d="m-155.73706 848.12269v59.45406h15.34338v-20.45743h39.696v-12.361h-39.696v-13.34981h45.839001v-13.28582z"/><path d="m-65.186881 848.12269v59.45406h15.34338v-20.45743h39.696v-12.361h-39.696v-13.34981h45.839v-13.28582z"/></g></g></svg>