<?xml version="1.0" encoding="UTF-8" standalone="no"?>
<!-- Created with Inkscape (http://www.inkscape.org/) -->

<svg
   xmlns:dc="http://purl.org/dc/elements/1.1/"
   xmlns:cc="http://creativecommons.org/ns#"
   xmlns:rdf="http://www.w3.org/1999/02/22-rdf-syntax-ns#"
   xmlns:svg="http://www.w3.org/2000/svg"
   xmlns="http://www.w3.org/2000/svg"
   xmlns:sodipodi="http://sodipodi.sourceforge.net/DTD/sodipodi-0.dtd"
   xmlns:inkscape="http://www.inkscape.org/namespaces/inkscape"
   width="100mm"
   height="150mm"
   viewBox="0 0 100 150"
   version="1.1"
   id="svg3310"
   inkscape:version="0.92.5 (2060ec1f9f, 2020-04-08)"
   sodipodi:docname="logo-ffbb.svg">
  <defs
     id="defs3304">
    <clipPath
       clipPathUnits="userSpaceOnUse"
       id="clipPath2098">
      <path
         d="m 321.88,240.299 c -11.728,-11.729 -18.187,-27.32 -18.187,-43.906 v 0 c 0,-16.584 6.459,-32.178 18.187,-43.906 v 0 c 11.727,-11.727 27.318,-18.185 43.904,-18.185 v 0 c 16.585,0 32.177,6.458 43.902,18.185 v 0 c 11.731,11.728 18.19,27.322 18.19,43.906 v 0 c 0,16.586 -6.459,32.177 -18.185,43.906 v 0 c -11.729,11.724 -27.322,18.185 -43.907,18.185 v 0 c -16.587,0 -32.177,-6.461 -43.904,-18.185 m 7.889,-79.922 c -9.621,9.621 -14.919,22.412 -14.919,36.016 v 0 c 0,13.603 5.298,26.398 14.918,36.018 v 0 c 9.619,9.618 22.411,14.917 36.016,14.917 v 0 c 13.607,0 26.396,-5.299 36.015,-14.917 v 0 c 9.622,-9.62 14.919,-22.415 14.919,-36.018 v 0 c 0,-13.604 -5.297,-26.395 -14.919,-36.016 v 0 c -9.619,-9.62 -22.411,-14.918 -36.015,-14.918 v 0 c -13.604,0 -26.395,5.298 -36.015,14.918 m 4.941,67.092 c -8.3,-8.303 -12.87,-19.338 -12.87,-31.076 v 0 c 0,-11.737 4.572,-22.772 12.872,-31.072 v 0 c 8.3,-8.302 19.337,-12.872 31.076,-12.872 v 0 c 11.737,0 22.77,4.57 31.072,12.871 v 0 c 17.132,17.132 17.132,45.014 -0.004,62.149 v 0 c -7.316,7.316 -16.762,11.734 -26.941,12.676 v 0 0.006 l -0.017,-0.005 c -1.361,0.125 -2.731,0.192 -4.114,0.192 v 0 c -11.739,0 -22.774,-4.57 -31.074,-12.869 m -1.493,-34.828 c 9.016,1.464 17.433,5.71 24.02,12.298 v 0 c 6.609,6.608 10.85,15.008 12.307,24.021 v 0 c 5.485,-0.622 10.66,-2.603 15.14,-5.778 v 0 l -45.687,-45.688 c -3.176,4.481 -5.157,9.66 -5.78,15.147 m 9.383,26.936 c 4.321,4.32 9.637,7.282 15.428,8.681 v 0 c -1.4,-5.774 -4.365,-11.115 -8.68,-15.429 v 0 c -4.303,-4.301 -9.647,-7.265 -15.426,-8.669 v 0 c 1.401,5.788 4.361,11.097 8.678,15.417 m 4.286,-49.971 45.684,45.685 c 3.077,-4.357 4.972,-9.303 5.672,-14.383 v 0 c -9.049,-1.45 -17.494,-5.705 -24.103,-12.308 v 0 c -6.782,-6.784 -11.071,-15.454 -12.414,-24.737 v 0 c -5.374,0.661 -10.442,2.623 -14.839,5.743 m 35.141,11.101 c 4.391,4.389 9.87,7.386 15.785,8.754 v 0 c -1.279,-5.959 -4.221,-11.631 -8.842,-16.253 v 0 c -4.416,-4.414 -9.871,-7.407 -15.81,-8.765 v 0 c 1.309,6.094 4.347,11.743 8.867,16.264 m 19.729,-59.992 -2.994,-1.323 V 73.515 c 4.857,-2.562 11.293,-3.696 14.919,-3.696 v 0 c 3.623,0 9.098,0.8 12.663,2.376 v 0 l 1.787,0.79 0.784,1.786 c 3.12,7.127 3.015,14.371 1.181,19.798 v 0 c -0.758,2.253 -2.429,3.71 -3.418,5.385 v 0 c 1.691,4.06 2.457,10.988 -0.693,18.183 v 0 l -0.785,1.791 -1.785,0.787 c -3.563,1.575 -7.197,2.363 -10.83,2.363 v 0 c -3.633,0 -7.266,-0.788 -10.829,-2.363 m 7.054,-8.148 c 2.9,0.728 5.759,0.624 8.68,-0.324 v 0 c 1.066,-3.325 1.066,-6.174 0,-9.498 v 0 c -1.648,-0.536 -3.271,-0.639 -4.891,-0.802 v 0 c -0.76,-0.075 -1.568,-0.054 -2.425,-0.033 v 0 c -0.442,0.011 -0.897,0.02 -1.364,0.019 v 0 z m 0,-31.892 v 11.999 c 1.487,0.122 3.874,0.24 4.668,0.257 v 0 c 2.978,0.067 5.313,-0.237 6.899,-0.751 v 0 c 1.829,-3.447 1.219,-9.54 0.042,-11.513 v 0 c -1.525,-0.496 -3.594,-0.785 -5.76,-0.786 v 0 c -1.984,0 -4.049,0.244 -5.849,0.794 m -44.058,40.04 -2.99,-1.323 V 73.515 c 4.858,-2.562 11.292,-3.696 14.919,-3.696 v 0 c 3.62,0 9.098,0.8 12.661,2.376 v 0 l 1.787,0.79 0.783,1.786 c 3.121,7.127 2.904,14.337 1.185,19.798 v 0 c -0.848,2.693 -2.431,3.71 -3.42,5.385 v 0 c 1.691,4.06 2.457,10.988 -0.693,18.183 v 0 l -0.785,1.791 -1.787,0.787 c -3.562,1.575 -7.195,2.363 -10.829,2.363 v 0 c -3.633,0 -7.267,-0.788 -10.831,-2.363 m 7.054,-8.148 c 2.904,0.728 5.761,0.624 8.682,-0.324 v 0 c 1.067,-3.325 1.067,-6.174 0,-9.498 v 0 c -1.649,-0.536 -3.271,-0.639 -4.89,-0.802 v 0 c -0.76,-0.075 -1.569,-0.054 -2.426,-0.033 v 0 c -0.442,0.011 -0.898,0.02 -1.366,0.019 v 0 z m 0,-31.892 v 11.999 c 1.489,0.122 3.876,0.24 4.67,0.257 v 0 c 2.979,0.067 5.314,-0.237 6.9,-0.751 v 0 c 2.292,-3.204 1.129,-10.169 0.04,-11.513 v 0 c -1.524,-0.496 -3.593,-0.785 -5.758,-0.786 v 0 c -1.985,0 -4.05,0.244 -5.852,0.794 m -35.797,39.516 -3.164,-1.261 V 69.896 h 10.049 V 90.85 c 4.182,0.008 9.884,0.023 12.604,0.027 v 0 10.045 c -2.713,-0.002 -8.415,-0.018 -12.604,-0.026 v 0 10.979 c 4.207,1.017 8.359,0.678 12.604,-1.015 v 0 10.566 c -2.629,0.709 -5.266,1.065 -7.903,1.065 v 0 c -3.872,0 -7.743,-0.766 -11.586,-2.3 m -29.015,0 -3.164,-1.261 V 69.896 h 10.047 V 90.85 c 4.183,0.008 9.883,0.023 12.607,0.027 v 0 10.045 c -2.716,-0.002 -8.414,-0.018 -12.607,-0.026 v 0 10.979 c 4.209,1.017 8.36,0.678 12.607,-1.015 v 0 10.566 c -2.63,0.709 -5.268,1.065 -7.906,1.065 v 0 c -3.872,0 -7.742,-0.766 -11.584,-2.3"
         id="path2096"
         inkscape:connector-curvature="0" />
    </clipPath>
    <linearGradient
       x1="0"
       y1="0"
       x2="1"
       y2="0"
       gradientUnits="userSpaceOnUse"
       gradientTransform="matrix(-115.43994,-164.86531,-164.86531,115.43994,425.87842,230.13379)"
       spreadMethod="pad"
       id="linearGradient2114">
      <stop
         style="stop-opacity:1;stop-color:#d42c1e"
         offset="0"
         id="stop2104" />
      <stop
         style="stop-opacity:1;stop-color:#d42c1e"
         offset="0.177917"
         id="stop2106" />
      <stop
         style="stop-opacity:1;stop-color:#142b70"
         offset="0.68820229"
         id="stop2108" />
      <stop
         style="stop-opacity:1;stop-color:#142b70"
         offset="0.711655"
         id="stop2110" />
      <stop
         style="stop-opacity:1;stop-color:#142b70"
         offset="1"
         id="stop2112" />
    </linearGradient>
  </defs>
  <sodipodi:namedview
     id="base"
     pagecolor="#ffffff"
     bordercolor="#666666"
     borderopacity="1.0"
     inkscape:pageopacity="0.0"
     inkscape:pageshadow="2"
     inkscape:zoom="0.98994949"
     inkscape:cx="274.76951"
     inkscape:cy="470.26587"
     inkscape:document-units="mm"
     inkscape:current-layer="layer1"
     showgrid="false"
     inkscape:window-width="2560"
     inkscape:window-height="1376"
     inkscape:window-x="0"
     inkscape:window-y="27"
     inkscape:window-maximized="1" />
  <metadata
     id="metadata3307">
    <rdf:RDF>
      <cc:Work
         rdf:about="">
        <dc:format>image/svg+xml</dc:format>
        <dc:type
           rdf:resource="http://purl.org/dc/dcmitype/StillImage" />
        <dc:title></dc:title>
      </cc:Work>
    </rdf:RDF>
  </metadata>
  <g
     inkscape:label="Calque 1"
     inkscape:groupmode="layer"
     id="layer1"
     transform="translate(0,-147)">
    <g
       transform="matrix(0.78313193,0,0,-0.78313193,-237.83169,351.67749)"
       id="g2092">
      <g
         id="g2094"
         clip-path="url(#clipPath2098)">
        <g
           id="g2100">
          <g
             id="g2102">
            <path
               d="m 321.88,240.299 c -11.728,-11.729 -18.187,-27.32 -18.187,-43.906 v 0 c 0,-16.584 6.459,-32.178 18.187,-43.906 v 0 c 11.727,-11.727 27.318,-18.185 43.904,-18.185 v 0 c 16.585,0 32.177,6.458 43.902,18.185 v 0 c 11.731,11.728 18.19,27.322 18.19,43.906 v 0 c 0,16.586 -6.459,32.177 -18.185,43.906 v 0 c -11.729,11.724 -27.322,18.185 -43.907,18.185 v 0 c -16.587,0 -32.177,-6.461 -43.904,-18.185 m 7.889,-79.922 c -9.621,9.621 -14.919,22.412 -14.919,36.016 v 0 c 0,13.603 5.298,26.398 14.918,36.018 v 0 c 9.619,9.618 22.411,14.917 36.016,14.917 v 0 c 13.607,0 26.396,-5.299 36.015,-14.917 v 0 c 9.622,-9.62 14.919,-22.415 14.919,-36.018 v 0 c 0,-13.604 -5.297,-26.395 -14.919,-36.016 v 0 c -9.619,-9.62 -22.411,-14.918 -36.015,-14.918 v 0 c -13.604,0 -26.395,5.298 -36.015,14.918 m 4.941,67.092 c -8.3,-8.303 -12.87,-19.338 -12.87,-31.076 v 0 c 0,-11.737 4.572,-22.772 12.872,-31.072 v 0 c 8.3,-8.302 19.337,-12.872 31.076,-12.872 v 0 c 11.737,0 22.77,4.57 31.072,12.871 v 0 c 17.132,17.132 17.132,45.014 -0.004,62.149 v 0 c -7.316,7.316 -16.762,11.734 -26.941,12.676 v 0 0.006 l -0.017,-0.005 c -1.361,0.125 -2.731,0.192 -4.114,0.192 v 0 c -11.739,0 -22.774,-4.57 -31.074,-12.869 m -1.493,-34.828 c 9.016,1.464 17.433,5.71 24.02,12.298 v 0 c 6.609,6.608 10.85,15.008 12.307,24.021 v 0 c 5.485,-0.622 10.66,-2.603 15.14,-5.778 v 0 l -45.687,-45.688 c -3.176,4.481 -5.157,9.66 -5.78,15.147 m 9.383,26.936 c 4.321,4.32 9.637,7.282 15.428,8.681 v 0 c -1.4,-5.774 -4.365,-11.115 -8.68,-15.429 v 0 c -4.303,-4.301 -9.647,-7.265 -15.426,-8.669 v 0 c 1.401,5.788 4.361,11.097 8.678,15.417 m 4.286,-49.971 45.684,45.685 c 3.077,-4.357 4.972,-9.303 5.672,-14.383 v 0 c -9.049,-1.45 -17.494,-5.705 -24.103,-12.308 v 0 c -6.782,-6.784 -11.071,-15.454 -12.414,-24.737 v 0 c -5.374,0.661 -10.442,2.623 -14.839,5.743 m 35.141,11.101 c 4.391,4.389 9.87,7.386 15.785,8.754 v 0 c -1.279,-5.959 -4.221,-11.631 -8.842,-16.253 v 0 c -4.416,-4.414 -9.871,-7.407 -15.81,-8.765 v 0 c 1.309,6.094 4.347,11.743 8.867,16.264 m 19.729,-59.992 -2.994,-1.323 V 73.515 c 4.857,-2.562 11.293,-3.696 14.919,-3.696 v 0 c 3.623,0 9.098,0.8 12.663,2.376 v 0 l 1.787,0.79 0.784,1.786 c 3.12,7.127 3.015,14.371 1.181,19.798 v 0 c -0.758,2.253 -2.429,3.71 -3.418,5.385 v 0 c 1.691,4.06 2.457,10.988 -0.693,18.183 v 0 l -0.785,1.791 -1.785,0.787 c -3.563,1.575 -7.197,2.363 -10.83,2.363 v 0 c -3.633,0 -7.266,-0.788 -10.829,-2.363 m 7.054,-8.148 c 2.9,0.728 5.759,0.624 8.68,-0.324 v 0 c 1.066,-3.325 1.066,-6.174 0,-9.498 v 0 c -1.648,-0.536 -3.271,-0.639 -4.891,-0.802 v 0 c -0.76,-0.075 -1.568,-0.054 -2.425,-0.033 v 0 c -0.442,0.011 -0.897,0.02 -1.364,0.019 v 0 z m 0,-31.892 v 11.999 c 1.487,0.122 3.874,0.24 4.668,0.257 v 0 c 2.978,0.067 5.313,-0.237 6.899,-0.751 v 0 c 1.829,-3.447 1.219,-9.54 0.042,-11.513 v 0 c -1.525,-0.496 -3.594,-0.785 -5.76,-0.786 v 0 c -1.984,0 -4.049,0.244 -5.849,0.794 m -44.058,40.04 -2.99,-1.323 V 73.515 c 4.858,-2.562 11.292,-3.696 14.919,-3.696 v 0 c 3.62,0 9.098,0.8 12.661,2.376 v 0 l 1.787,0.79 0.783,1.786 c 3.121,7.127 2.904,14.337 1.185,19.798 v 0 c -0.848,2.693 -2.431,3.71 -3.42,5.385 v 0 c 1.691,4.06 2.457,10.988 -0.693,18.183 v 0 l -0.785,1.791 -1.787,0.787 c -3.562,1.575 -7.195,2.363 -10.829,2.363 v 0 c -3.633,0 -7.267,-0.788 -10.831,-2.363 m 7.054,-8.148 c 2.904,0.728 5.761,0.624 8.682,-0.324 v 0 c 1.067,-3.325 1.067,-6.174 0,-9.498 v 0 c -1.649,-0.536 -3.271,-0.639 -4.89,-0.802 v 0 c -0.76,-0.075 -1.569,-0.054 -2.426,-0.033 v 0 c -0.442,0.011 -0.898,0.02 -1.366,0.019 v 0 z m 0,-31.892 v 11.999 c 1.489,0.122 3.876,0.24 4.67,0.257 v 0 c 2.979,0.067 5.314,-0.237 6.9,-0.751 v 0 c 2.292,-3.204 1.129,-10.169 0.04,-11.513 v 0 c -1.524,-0.496 -3.593,-0.785 -5.758,-0.786 v 0 c -1.985,0 -4.05,0.244 -5.852,0.794 m -35.797,39.516 -3.164,-1.261 V 69.896 h 10.049 V 90.85 c 4.182,0.008 9.884,0.023 12.604,0.027 v 0 10.045 c -2.713,-0.002 -8.415,-0.018 -12.604,-0.026 v 0 10.979 c 4.207,1.017 8.359,0.678 12.604,-1.015 v 0 10.566 c -2.629,0.709 -5.266,1.065 -7.903,1.065 v 0 c -3.872,0 -7.743,-0.766 -11.586,-2.3 m -29.015,0 -3.164,-1.261 V 69.896 h 10.047 V 90.85 c 4.183,0.008 9.883,0.023 12.607,0.027 v 0 10.045 c -2.716,-0.002 -8.414,-0.018 -12.607,-0.026 v 0 10.979 c 4.209,1.017 8.36,0.678 12.607,-1.015 v 0 10.566 c -2.63,0.709 -5.268,1.065 -7.906,1.065 v 0 c -3.872,0 -7.742,-0.766 -11.584,-2.3"
               style="fill:url(#linearGradient2114);stroke:none"
               id="path2116"
               inkscape:connector-curvature="0" />
          </g>
        </g>
      </g>
    </g>
  </g>
</svg>
