<svg xmlns="http://www.w3.org/2000/svg" xmlns:xlink="http://www.w3.org/1999/xlink" width="800" height="800"><style>.B{fill:#fff}.C{font-family:DIN Engschrift Std}.D{writing-mode:lr-tb}.E{font-size:51px}.F{font-size:37.785px}.G{fill:#4f7383}.H{stroke-miterlimit:10}.I{stroke:#b2b2b2}</style><defs><clipPath id="c"><path d="M0 595.276h595.276V0H0z"/></clipPath><clipPath id="A"><path d="M0 595.276h595.276V0H0z"/></clipPath><clipPath id="C"><path d="M247.577 310.322c-6.558 14.82-6.628 30.672-1.427 43.724-8.046-13.6-9.708-30.462-2.977-45.674s20.327-25.324 35.804-28.516c-13.16 4.93-24.844 15.644-31.4 30.466"/></clipPath><clipPath id="l"><path d="M182.007 327.503c7.876 38.197 29.905 69.352 58.342 87.65-34.775-15.4-61.608-46.1-69.694-85.31s4.4-78.032 30.265-105.92c-18.883 28.054-26.792 65.382-18.913 103.58"/></clipPath><clipPath id="E"><path d="M249.378 274.933c14.308-12.5 33.26-16.39 50.815-12.22-15.995-1.25-33.26 4.193-47.2 16.362-13.94 12.167-21.667 28.537-22.588 44.554-1.76-17.958 4.665-36.208 18.974-48.697"/></clipPath><clipPath id="k"><path d="M168.216 415.15h72.133V223.92h-72.133z"/></clipPath><clipPath id="G"><path d="M0 595.276h595.276V0H0z"/></clipPath><clipPath id="H"><path d="M230.12 323.63h70.073v-62.523H230.12z"/></clipPath><clipPath id="I"><path d="M234.425 280.1h103.823v-36.57H234.425z"/></clipPath><clipPath id="J"><path d="M282.87 250.54c-20.74 3.427-37.986 14.627-48.445 29.55 9.03-18.4 26.14-32.195 47.426-35.714s41.928 4.037 56.397 18.554c-14.706-10.766-34.64-15.82-55.378-12.39"/></clipPath><clipPath id="j"><path d="M201.247 420.452h120.12V294.49h-120.12z"/></clipPath><clipPath id="L"><path d="M0 595.276h595.276V0H0z"/></clipPath><clipPath id="M"><path d="M238.984 354.046h39.993v-74.2h-39.993z"/></clipPath><clipPath id="N"><path d="M247.577 310.322c-6.558 14.82-6.628 30.672-1.427 43.724-8.046-13.6-9.708-30.462-2.977-45.674s20.327-25.324 35.804-28.516c-13.16 4.93-24.844 15.644-31.4 30.466"/></clipPath><clipPath id="O"><path d="M249.378 274.933c14.308-12.5 33.26-16.39 50.815-12.22-15.995-1.25-33.26 4.193-47.2 16.362-13.94 12.167-21.667 28.537-22.588 44.554-1.76-17.958 4.665-36.208 18.974-48.697"/></clipPath><clipPath id="P"><path d="M0 595.276h595.276V0H0z"/></clipPath><clipPath id="Q"><path d="M230.12 323.63h70.073v-62.523H230.12z"/></clipPath><clipPath id="R"><path d="M234.425 280.1h103.823v-36.57H234.425z"/></clipPath><clipPath id="S"><path d="M282.87 250.54c-20.74 3.427-37.986 14.627-48.445 29.55 9.03-18.4 26.14-32.195 47.426-35.714s41.928 4.037 56.397 18.554c-14.706-10.766-34.64-15.82-55.378-12.39"/></clipPath><clipPath id="T"><path d="M268 52.888c10.6-9.254 24.643-12.143 37.65-9.053-11.85-.928-24.642 3.106-34.97 12.122-10.328 9.013-16.054 21.142-16.736 33C252.64 75.662 257.4 62.14 268 52.888"/></clipPath><clipPath id="i"><path d="M0 595.276h595.276V0H0z"/></clipPath><clipPath id="V"><path d="M268 478.492c10.6-9.254 24.643-12.143 37.65-9.053-11.85-.927-24.642 3.107-34.97 12.122s-16.054 21.143-16.736 33c-1.304-13.304 3.457-26.826 14.057-36.08"/></clipPath><clipPath id="g"><path d="M229.692 387.807c-24.207-25.612-32.827-60.463-26.382-93.315-1.148 29.746 10.212 61.355 33.796 86.31 23.58 24.95 54.497 38.077 84.26 38.6a110.4 110.4 0 01-15.087 1.039c-28.226.001-56.044-10.905-76.588-32.645"/></clipPath><clipPath id="X"><path d="M0 595.276h595.276V0H0z"/></clipPath><clipPath id="Y"><path d="M253.733 514.57h51.916v-46.323h-51.916z"/></clipPath><clipPath id="Z"><path d="M256.922 482.313h76.92V455.22h-76.92z"/></clipPath><clipPath id="a"><path d="M292.814 460.42c-15.365 2.54-28.143 10.837-35.892 21.894 6.69-13.632 19.366-23.853 35.138-26.46s31.064 2.99 41.784 13.747c-10.896-7.977-25.664-11.722-41.03-9.18"/></clipPath><clipPath id="e"><path d="M295.435 388.55c27.956 11.07 57.35 10.04 81.168-.562-24.622 15.915-55.765 20.233-84.46 8.87s-48.442-35.83-55.496-64.29c10.106 24.036 30.827 44.914 58.79 55.982"/></clipPath><clipPath id="B"><path d="M238.984 354.046h39.993v-74.2h-39.993z"/></clipPath><clipPath id="d"><path d="M236.647 403.244h139.956V332.57H236.647z"/></clipPath><path id="v" d="M232.946 513.826c-.7 1.724-2.333 2.74-4.227 2.74s-3.516-1.015-4.227-2.74c-.37-1.048-.473-1.488-.574-3.077h9.603c-.102 1.555-.136 2.096-.575 3.077m-3.72-10.888c1.928 0 3.11.574 4.497 1.96l1.286-1.014c-1.657-1.657-3.18-2.502-5.884-2.502-4.497 0-6.932 2.907-6.932 8.35 0 5.275 2.435 8.352 6.526 8.352s6.526-2.942 6.526-7.946v-.778h-11.327c0-4.16 1.826-6.424 5.308-6.424"/><path id="r" d="M249.378 274.933c14.308-12.5 33.26-16.39 50.815-12.22-15.995-1.25-33.26 4.193-47.2 16.362-13.94 12.167-21.667 28.537-22.588 44.554-1.76-17.958 4.665-36.208 18.974-48.697"/><path id="o" d="M445.145 304.958c0-84.534-68.528-153.062-153.063-153.062S139.02 220.424 139.02 304.958 207.548 458.02 292.082 458.02s153.063-68.528 153.063-153.062z"/><path id="p" d="M386.905 399.242l-2.107 2.1L371.618 412l-7.382 5.26-9.208 5.394c-3.35 1.802-7.097 3.37-10.944 5.204-3.914 1.685-8.215 3-12.598 4.614-4.52 1.165-9.206 2.53-14.144 3.465-4.98.725-10.08 1.834-15.434 1.986-10.644 1.055-21.964.197-33.425-1.585-11.483-1.934-22.943-5.784-34.03-10.803-10.973-5.293-21.37-12.414-30.596-20.4-9-8.45-17-17.916-23.42-28.214-6.12-10.445-11.1-21.337-14.22-32.427-2.948-11.092-4.987-22.095-5.062-32.63-.42-5.252.147-10.36.325-15.292.405-4.92 1.242-9.636 1.91-14.156 1.124-4.438 1.946-8.758 3.187-12.735 1.393-3.93 2.515-7.73 3.925-11.16l4.282-9.476c1.487-2.844 3.04-5.36 4.343-7.68 1.29-2.332 2.51-4.367 3.784-6l5.595-7.817-5.433 7.93c-1.24 1.66-2.418 3.718-3.656 6.068-1.25 2.34-2.744 4.873-4.166 7.73l-4.067 9.513c-1.33 3.44-2.368 7.24-3.67 11.163-1.15 3.97-1.877 8.276-2.9 12.69-.568 4.494-1.3 9.173-1.602 14.04-.075 4.884-.535 9.93-.01 15.104.28 10.38 2.52 21.172 5.63 31.988 3.28 10.815 8.38 21.368 14.55 31.426 6.457 9.912 14.426 18.944 23.31 26.954 9.333 7.715 19.25 14.185 29.954 19.102 10.788 4.6 21.87 8.1 32.926 9.718 11.035 1.476 21.878 2.1 32.025.862 5.108-.237 9.95-1.414 14.677-2.2 4.686-.987 9.114-2.386 13.385-3.568 4.13-1.63 8.184-2.95 11.858-4.623 3.607-1.823 7.122-3.365 10.252-5.133l8.585-5.267c2.553-1.77 4.777-3.573 6.85-5.102 2.084-1.52 3.895-2.935 5.31-4.36l6.618-6.115-2.24-2.238-2.868 2.544-3.72 3.29c-1.415 1.353-3.202 2.7-5.27 4.147-2.05 1.456-4.27 3.14-6.78 4.828l-8.467 4.928c-3.062 1.68-6.52 3.08-10.054 4.76-3.58 1.58-7.546 2.737-11.57 4.21-4.133 1.123-8.463 2.264-12.982 3.18-4.577.604-9.25 1.682-14.167 1.78-9.77.98-20.147.08-30.663-1.513-10.512-1.9-21.03-5.35-31.198-9.99-9.9-4.983-19.73-11.44-27.896-18.798-8.35-7.87-15.688-16.418-21.443-25.98-5.574-9.58-10.197-19.56-12.914-29.763-2.72-10.162-4.455-20.27-4.507-29.915-.446-9.64.786-18.712 2.174-26.968 1.05-4.062 1.87-8.002 2.988-11.65 1.294-3.593 2.375-7.054 3.654-10.202l3.983-8.648c1.357-2.607 2.813-4.894 4.015-7.013 2.3-4.313 4.876-7.187 6.315-9.36l2.348-3.237-2.275 3.288c-1.388 2.204-3.905 5.143-6.1 9.493-1.15 2.14-2.545 4.442-3.836 7.062l-3.768 8.69c-1.2 3.155-2.197 6.62-3.4 10.206-1.027 3.64-1.752 7.566-2.703 11.6-.472 4.122-1.262 8.387-1.486 12.85-.133 4.47-.502 9.08-.067 13.82.262 9.492 2.196 19.388 5.08 29.275 2.88 9.93 7.624 19.568 13.246 28.762 5.744 9.128 13.237 17.397 21.21 24.61 8.578 7.347 17.638 12.916 27.383 17.607 9.868 4.23 20.01 7.307 30.092 8.9 10.09 1.286 19.99 1.942 29.265.79 4.667-.186 9.086-1.332 13.4-1.987 4.262-.968 8.337-2.142 12.218-3.283 3.77-1.49 7.492-2.65 10.83-4.22 3.29-1.667 6.52-3.043 9.36-4.688l7.843-4.8c2.315-1.64 4.356-3.27 6.246-4.67 1.906-1.382 3.55-2.684 4.84-3.987l6.017-5.567-2.178-2.177-2.58 2.284c-1.9 1.533-4.343 4.203-8.15 6.733-1.858 1.317-3.87 2.84-6.144 4.37l-7.67 4.464c-2.77 1.522-5.904 2.8-9.103 4.312-3.24 1.434-6.833 2.483-10.475 3.82-3.74 1.024-7.662 2.053-11.75 2.893-4.144.55-8.374 1.535-12.823 1.63-8.842.906-18.236.106-27.758-1.305-9.513-1.705-19.05-4.775-28.26-8.95-8.974-4.468-17.92-10.278-25.31-16.9-7.598-7.085-14.28-14.768-19.53-23.39-5.096-8.63-9.343-17.62-11.86-26.827-2.534-9.166-4.163-18.29-4.288-27.004-.477-8.706.567-16.912 1.748-24.384.915-3.677 1.626-7.243 2.6-10.547 1.137-3.258 2.087-6.392 3.21-9.247l3.52-7.848c1.2-2.368 2.493-4.447 3.558-6.372 2.038-3.917 4.332-6.54 5.6-8.515l2.087-2.945-2.013 2.996c-1.228 2.004-3.462 4.69-5.393 8.643-1.013 1.945-2.246 4.04-3.38 6.42l-3.304 7.885c-1.045 2.862-1.91 5.998-2.956 9.25-.884 3.298-1.5 6.848-2.315 10.5-.982 7.418-1.813 15.527-1.13 24.08.33 8.56 2.16 17.47 4.853 26.36 2.677 8.934 7.043 17.583 12.184 25.827 5.24 8.19 12.07 15.59 19.295 22.027 7.797 6.595 15.976 11.52 24.788 15.7 8.91 3.77 18.07 6.47 27.156 7.87 9.096 1.106 18.014 1.663 26.36.586 4.203-.182 8.178-1.235 12.07-1.835 3.834-.892 7.5-1.954 11-2.997 3.4-1.354 6.736-2.404 9.736-3.828 2.96-1.51 5.86-2.753 8.412-4.24l7.05-4.336c2.08-1.48 3.914-2.95 5.612-4.213 3.486-2.42 5.677-4.982 7.408-6.436l2.326-2.154-2.887-2.887-2.266 2.002c-1.69 1.36-3.86 3.722-7.237 5.966-1.648 1.167-3.435 2.516-5.452 3.872l-6.804 3.955c-2.457 1.353-5.236 2.477-8.073 3.826-2.87 1.276-6.056 2.206-9.286 3.392-3.312.918-6.79 1.825-10.412 2.58-3.673.49-7.418 1.373-11.362 1.465-7.835.82-16.16.128-24.6-1.1-8.43-1.496-16.893-4.16-25.06-7.836-7.954-3.912-15.95-9.027-22.485-14.83-6.776-6.237-12.737-12.985-17.433-20.587-4.568-7.602-8.397-15.52-10.7-23.646-2.32-8.084-3.83-16.14-4.02-23.842-.5-7.693.348-14.956 1.314-21.57.77-3.26 1.368-6.417 2.2-9.35.97-2.9 1.78-5.67 2.737-8.205l3.025-6.97c1.03-2.107 2.152-3.958 3.07-5.67 1.756-3.483 3.747-5.827 4.854-7.586l1.81-2.626-1.735 2.675c-1.055 1.79-2.986 4.196-4.635 7.712-.867 1.732-1.927 3.596-2.89 5.716l-2.81 7.006c-.878 2.542-1.604 5.32-2.484 8.203-.73 2.924-1.234 6.064-1.906 9.296-.767 6.56-1.404 13.723-.698 21.26.397 7.547 2.103 15.387 4.58 23.196 2.45 7.85 6.395 15.43 11.006 22.645 4.685 7.172 10.786 13.633 17.193 19.233 6.944 5.783 14.16 10.018 21.958 13.644 7.87 3.27 15.955 5.57 23.958 6.763 8.016.914 15.866 1.367 23.207.377 3.697-.177 7.2-1.13 10.61-1.668 3.368-.805 6.592-1.746 9.657-2.68 2.976-1.203 5.917-2.135 8.55-3.4 2.598-1.337 5.147-2.437 7.384-3.755l6.187-3.83c1.824-1.307 3.434-2.602 4.923-3.716 3.058-2.135 4.98-4.39 6.5-5.67l2.013-1.872-3.242-3.242-1.937 1.707c-1.466 1.176-3.354 3.22-6.284 5.163l-4.73 3.354-5.9 3.427c-2.13 1.174-4.537 2.148-6.995 3.317-2.486 1.11-5.247 1.918-8.043 2.947-2.868.806-5.88 1.587-9.015 2.254-3.18.427-6.423 1.205-9.837 1.294-6.782.732-14 .153-21.3-.86-7.298-1.276-14.64-3.513-21.722-6.665-6.9-3.328-13.893-7.714-19.54-12.67-5.918-5.347-11.13-11.116-15.25-17.65-4.02-6.523-7.417-13.32-9.477-20.316-2.1-6.954-3.487-13.89-3.754-20.536-.53-6.633.11-12.91.85-18.63.616-2.825 1.096-5.553 1.755-8.096.794-2.507 1.457-4.913 2.24-7.116l2.502-6.056c.852-1.834 1.792-3.447 2.556-4.94 1.46-3.028 3.133-5.083 4.06-6.617l1.514-2.293-1.44 2.34c-.874 1.56-2.485 3.677-3.837 6.738-.712 1.5-1.59 3.135-2.376 4.98l-2.287 6.087c-.704 2.208-1.283 4.612-1.986 7.11-.57 2.532-.956 5.242-1.472 8.038-.544 5.66-.973 11.837-.24 18.31.47 6.487 2.05 13.207 4.303 19.885 2.213 6.72 5.723 13.176 9.78 19.316 4.107 6.11 9.448 11.585 15.005 16.31 6.054 4.933 12.267 8.442 19.004 11.49 6.78 2.75 13.75 4.627 20.622 5.603 6.888.714 13.622 1.056 19.914.156 3.17-.173 6.158-1.017 9.09-1.494 2.882-.717 5.643-1.53 8.263-2.353 2.547-1.046 5.064-1.855 7.313-2.954 2.22-1.157 4.4-2.108 6.3-3.248l5.286-3.3 4.204-3.2c2.613-1.837 4.25-3.774 5.55-4.873l1.908-1.783 2.038-1.75c30.54-30.598 30.463-80.453-.17-111.14-14.9-14.963-34.756-23.2-55.88-23.2-20.93 0-40.584 8.11-55.39 22.893l-2.108 2.11-36.653-36.653-2-2.225 2.116-2.107c25.1-25.017 58.512-38.793 94.08-38.793 35.803 0 69.42 13.93 94.655 39.22 51.942 52.057 51.98 136.672.085 188.624"/><path id="q" d="M247.577 310.322c-6.558 14.82-6.628 30.672-1.427 43.724-8.046-13.6-9.708-30.462-2.977-45.674s20.327-25.324 35.804-28.516c-13.16 4.93-24.844 15.644-31.4 30.466"/><path id="s" d="M252.992 279.076c-13.94 12.167-21.667 28.537-22.588 44.554-1.76-17.958 4.665-36.207 18.974-48.697s33.26-16.39 50.815-12.218c-15.995-1.252-33.26 4.192-47.2 16.36"/><path id="t" d="M282.87 250.54c-20.74 3.427-37.986 14.627-48.445 29.55 9.03-18.4 26.14-32.195 47.426-35.714s41.928 4.037 56.397 18.554c-14.706-10.766-34.64-15.82-55.378-12.39"/><path id="u" d="M216.75 516.565c-2.806 0-4.362-2.333-4.362-4.937v-10.043h-1.724v16.3h1.724v-2.164c.947 1.52 2.84 2.366 4.768 2.366 1.59 0 2.74-.372 3.922-1.555l-1.25-1.25c-.98.98-1.724 1.285-3.077 1.285"/><path id="n" d="M445.145 304.958c0-84.534-68.528-153.062-153.063-153.062S139.02 220.424 139.02 304.958 207.548 458.02 292.082 458.02s153.063-68.528 153.063-153.062"/><path id="w" d="M261.247 516.49l5.625 8.526h3.887l-6.148-8.526zm9.86-13.224c-1.217 2.958-4.002 4.698-7.25 4.698s-6.032-1.74-7.25-4.698c-.638-1.798-.812-2.552-.986-5.277h16.472c-.175 2.667-.232 3.595-.987 5.277m-6.38-18.675c3.307 0 5.336.986 7.714 3.364l2.204-1.74c-2.84-2.842-5.45-4.292-10.09-4.292-7.714 0-11.9 4.987-11.9 14.325 0 9.048 4.176 14.326 11.194 14.326s11.193-5.046 11.193-13.63v-1.334h-19.43c0-7.134 3.132-11.02 9.105-11.02"/><path id="x" d="M291.523 507.965c-6.844 0-7.888-5.916-7.888-11.716s1.044-11.716 7.888-11.716 7.888 5.916 7.888 11.716-1.044 11.716-7.888 11.716m7.888-22.098c-2.494-3.247-5.104-3.944-8.294-3.944-2.958 0-5.394.987-6.844 2.437-2.842 2.84-3.596 7.48-3.596 11.89s.754 9.048 3.596 11.9c1.45 1.45 3.886 2.436 6.844 2.436 3.2 0 5.8-.696 8.294-3.944v16.936h2.958v-41.295h-2.958z"/><path id="y" d="M323.887 489.58v18.444h-3.828v2.204h3.828v8.932h2.957v-8.932h6.322v-2.204h-6.322V489.52c0-2.958 1.334-4.64 4.293-4.64h2.03v-2.6h-2.55c-4.41 0-6.728 3.074-6.728 7.308"/><path id="z" d="M367.037 505.587c-1.566 1.566-3.537 2.378-5.8 2.378s-4.233-.812-5.8-2.378c-2.32-2.32-2.494-6.1-2.494-9.338s.174-7.017 2.494-9.338c1.567-1.566 3.538-2.378 5.8-2.378s4.234.812 5.8 2.378c2.32 2.32 2.494 6.09 2.494 9.338s-.174 7.018-2.494 9.338m1.973-20.59c-2.03-2.03-4.582-3.075-7.773-3.075-3.132 0-5.74 1.044-7.77 3.075-2.958 2.958-3.48 7.25-3.48 11.25s.522 8.294 3.48 11.252c2.03 2.03 4.64 3.074 7.77 3.074 3.19 0 5.742-1.044 7.773-3.074 2.957-2.958 3.48-7.25 3.48-11.252s-.522-8.293-3.48-11.25"/><path id="AA" d="M398.356 499.613c0 5.394-2.668 8.352-7.713 8.352s-7.89-3.017-7.89-8.352V482.27h-2.957v27.956h2.957v-3.306c2.088 2.436 4.815 3.653 8.237 3.653 3.074 0 5.568-.87 7.424-2.668 1.914-1.856 2.9-4.465 2.9-7.77V482.27h-2.96z"/><path id="AB" d="M220.916 82.938v6.785l15.428 17.922c1.508 1.8 2.146 3.074 2.146 4.988 0 3.075-1.798 5.162-4.988 5.162-2.494 0-5.046-1.276-5.046-5.278h-7.54c0 7.54 5.5 12.064 12.586 12.064 7.308 0 12.527-4.582 12.527-12.006 0-4.002-1.566-6.148-4.407-9.453l-11.542-13.4h15.95v-6.785z"/><path id="AC" d="M275.55 112.17c0 3.48-2.03 5.626-4.988 5.626s-5.046-2.147-5.046-5.626V94.944c0-3.48 2.088-5.568 5.046-5.568s4.988 2.088 4.988 5.568zm-4.988-29.58c-6.728 0-12.586 4.408-12.586 12.295v17.4c0 7.888 5.858 12.295 12.586 12.295s12.528-4.407 12.528-12.295v-17.4c0-7.887-5.8-12.295-12.528-12.295"/><path id="AD" d="M345.15 117.796c-2.958 0-5.162-2.262-5.162-5.22 0-3.015 2.204-5.218 5.162-5.218s5.104 2.203 5.104 5.218c0 2.96-2.146 5.22-5.104 5.22m0-16.994c-3.2 0-5.685-2.552-5.685-5.742s2.495-5.684 5.685-5.684 5.684 2.494 5.684 5.684-2.495 5.742-5.684 5.742m0-18.21c-7.308 0-13.224 4.35-13.224 12.353 0 5.046 2.9 7.772 5.162 9.28-2.087 1.45-4.64 4.176-4.64 8.584 0 7.308 5.8 11.773 12.702 11.773s12.644-4.465 12.644-11.773c0-4.408-2.553-7.134-4.64-8.584 2.263-1.508 5.22-4.234 5.22-9.28 0-8.003-5.916-12.353-13.224-12.353"/><linearGradient x1="0" y1="0" x2="1" y2="0" gradientTransform="scale(-192.6393 192.6393) rotate(-87.734 .589 1.638)" spreadMethod="pad" id="m" xlink:href="#AE"><stop offset="0" stop-color="#004e80"/><stop offset=".368" stop-color="#0075bf"/><stop offset="1" stop-color="#0075bf"/></linearGradient><linearGradient x1="256.922" y1="468.766" x2="333.843" y2="468.766" spreadMethod="pad" id="b" xlink:href="#AE"><stop offset="0" stop-color="#004e80"/><stop offset=".368" stop-color="#0075bf"/><stop offset="1" stop-color="#0075bf"/></linearGradient><linearGradient x1="0" y1="0" x2="1" y2="0" gradientTransform="matrix(0 46.3226 46.3226 0 279.69 468.248)" spreadMethod="pad" id="W" xlink:href="#AE"><stop offset="0" stop-color="#f8f8f8"/><stop offset=".491" stop-color="#d4d4d4"/><stop offset="1" stop-color="#b0b0b0"/></linearGradient><linearGradient x1="0" y1="0" x2="1" y2="0" gradientTransform="scale(116.00951 -116.00951) rotate(2.266 79.249 42.676)" spreadMethod="pad" id="h" xlink:href="#AE"><stop offset="0" stop-color="#f8f8f8"/><stop offset=".491" stop-color="#d4d4d4"/><stop offset="1" stop-color="#b0b0b0"/></linearGradient><linearGradient x1="0" y1="0" x2="1" y2="0" gradientTransform="matrix(0 46.3226 46.3226 0 279.69 42.644)" spreadMethod="pad" id="U" xlink:href="#AE"><stop offset="0" stop-color="#f8f8f8"/><stop offset=".491" stop-color="#d4d4d4"/><stop offset="1" stop-color="#b0b0b0"/></linearGradient><linearGradient x1="0" y1="0" x2="1" y2="0" gradientTransform="scale(-119.38584 119.38584) rotate(-24.373 6.305 8.562)" spreadMethod="pad" id="f" xlink:href="#AE"><stop offset="0" stop-color="#b20f0b"/><stop offset=".368" stop-color="#e30613"/><stop offset="1" stop-color="#e30613"/></linearGradient><linearGradient x1="234.425" y1="261.805" x2="338.248" y2="261.805" spreadMethod="pad" id="K" xlink:href="#AE"><stop offset="0" stop-color="#004e80"/><stop offset=".368" stop-color="#0075bf"/><stop offset="1" stop-color="#0075bf"/></linearGradient><linearGradient x1="0" y1="0" x2="1" y2="0" gradientTransform="matrix(0 62.52354 62.52354 0 265.157 261.107)" spreadMethod="pad" id="F" xlink:href="#AE"><stop offset="0" stop-color="#f8f8f8"/><stop offset=".491" stop-color="#d4d4d4"/><stop offset="1" stop-color="#b0b0b0"/></linearGradient><linearGradient x1="0" y1="0" x2="1" y2="0" gradientTransform="scale(64.34322 -64.34322) rotate(63.362 6.165 .355)" spreadMethod="pad" id="D" xlink:href="#AE"><stop offset="0" stop-color="#b20f0b"/><stop offset=".368" stop-color="#e30613"/><stop offset="1" stop-color="#e30613"/></linearGradient><linearGradient id="AE" gradientUnits="userSpaceOnUse"/></defs><g clip-path="url(#A)" transform="matrix(1.4102 0 0 -1.4102 -19.726 819.727)"><use xlink:href="#n" class="B"/><use xlink:href="#o" fill="none" stroke-width=".5" class="H I"/><use xlink:href="#p" class="G"/><path d="M234.215 236.238l12.6-9.05-2.858-3.975-8.365 6.013-6.43-8.945 7.288-5.24-2.858-3.976-7.288 5.24-9.05-12.6-4.224 3.037zM247.15 209.1l2.714-1.176c3.323-1.438 4.648.2 6.087 3.533 1.46 3.37 1.688 5.438-1.822 6.958l-2.48 1.074zm1.67 16.948l7.675-3.323c5.663-2.45 6.985-6.97 4.2-13.428-1.662-3.838-3.954-6.18-7.725-6.547l-1.438-17.438-5.055 2.187 1.715 16.153-2.855 1.236-6.16-14.226-4.773 2.066zm18.327-7.442l15.188-3.108-.982-4.796-10.092 2.065-2.136-10.44 8.792-1.8-.98-4.796-8.793 1.8-2.137-10.44 10.092-2.065-1.043-5.096-15.187 3.108zm17.383-3.352l4.998.084 8.22-21.745.102.002-.366 21.877 5.2.087.6-36.3-4.896-.082-8.32 21.692-.102-.002.366-21.825-5.202-.087zm44.23-22.58c1.076-4.357-1.5-9.038-6.005-10.15-3.86-.954-8.782-.172-10.37 6.265l-4.8 19.4c-1.137 4.606 1.313 8.94 6.215 10.15 4.654 1.15 8.988-1.5 10.198-6.413l.488-1.98-5.05-1.247-.416 1.684c-.5 1.98-2.093 3.37-4.024 2.894-2.525-.623-2.692-2.503-2.105-4.88l4.45-18.023c.5-2.03 1.684-3.42 3.962-2.856 1.387.34 2.973 1.574 2.3 4.346l-.428 1.734 5.05 1.247zm-3.937 28.45l4.645 2.342 7.003-13.887 5.738 2.894-7.004 13.886 4.643 2.343 16.35-32.42-4.644-2.343-7.28 14.434-5.736-2.894 7.28-14.433-4.644-2.342zm25.877 15.103l3.352 3.7L372.787 232l.068.076-9.82 17.8 3.384 3.746 26.944-24.346-3.487-3.86-16.386 14.806-.07-.075 8.126-14.286-1.744-1.93-15 6.68-.068-.077 16.386-14.805-3.5-3.86zm44.12 11.946c2.222-1.146 4.012-.23 4.876 1.445s.57 3.666-1.652 4.8L381 263.212c-2.222 1.146-4.012.232-4.876-1.445s-.57-3.666 1.65-4.8zm-19.43 4.16c-5.258 2.7-5.832 8.055-3.892 11.818s6.624 6.396 11.883 3.687l17.044-8.784c5.26-2.7 5.833-8.055 3.894-11.817s-6.624-6.397-11.883-3.687zm32.952 20.004l.547 2.177c1.018 4.055-1.38 4.973-4.844 5.844-3.512.88-5.504.698-6.423-2.963l-.56-2.226zm-15.73 3.95l.57 2.276c.845 3.364-.663 4.7-3.878 5.497-3.117.782-5.035.054-5.867-3.26l-.522-2.078zm-15.712-1.42l1.85 7.37c1.64 6.53 6.552 7.873 11.153 6.718l1.286-.322c3.76-.944 4.834-2.528 5.66-5.103 1.734 2.1 4.135 2.643 7.795 1.724l1.98-.496c6.134-1.54 8.865-5.33 7.225-11.86l-1.727-6.875zm4.32 20.906l.375 5.188 36.22-2.618-.375-5.188zm.696 9.97l-.44 5.183 30.995 2.643-.875 10.264 5.182.442 1.318-15.447zm-2.002 17.098l-1.178 5.066 35.364 8.224 1.177-5.065zm.884 14.763l2.236-5.587-4.545-1.82-6.406 16.004 4.546 1.82 2.236-5.587 29.166 11.674 1.934-4.83zm4.526 26.795l-13.406-17.62-3.073 4.57 9.64 11.524-.057.085-14.307-4.584-3.074 4.57 21.375 5.772 12.736 8.566 2.902-4.316z"/><g clip-path="url(#B)"><g clip-path="url(#C)"><use xlink:href="#q" fill="url(#D)"/></g></g></g><g clip-path="url(#E)" transform="matrix(1.4102 0 0 -1.4102 -19.726 819.727)"><use xlink:href="#r" fill="url(#F)"/></g><g clip-path="url(#G)" transform="matrix(1.4102 0 0 -1.4102 -19.726 819.727)"><g clip-path="url(#H)" class="B"><use xlink:href="#s"/></g><g clip-path="url(#I)"><g clip-path="url(#J)"><use xlink:href="#t" fill="url(#K)"/></g></g><g class="G"><path d="M195.087 520.203l-7.482-6.612v3.538l7.482 6.438h2.958v-41.295h-2.958z"/><use xlink:href="#u"/><use xlink:href="#v"/><use xlink:href="#w"/><use xlink:href="#x"/><path d="M311.3 510.227h2.958V482.27H311.3zm-.348 13.34h3.653v-3.654h-3.653z"/><use xlink:href="#y"/><path d="M339.72 510.227h2.957V482.27h-2.957zm-.35 13.34h3.653v-3.654h-3.653z"/><use xlink:href="#z"/><use xlink:href="#AA"/><use xlink:href="#AB"/><use xlink:href="#AC"/><path d="M306.465 82.938v33.176l-8.4-7.31v8.12l8.4 7.308h7.54V82.938z"/><use xlink:href="#AD"/></g></g><g clip-path="url(#L)" transform="matrix(1.4102 0 0 -1.4102 -19.726 819.727)"><use xlink:href="#n" class="B"/><use xlink:href="#o" fill="none" stroke-width=".5" class="H I"/><use xlink:href="#p" class="G"/><g clip-path="url(#M)"><g clip-path="url(#N)"><use xlink:href="#q" fill="url(#D)"/></g></g></g><g clip-path="url(#O)" transform="matrix(1.4102 0 0 -1.4102 -19.726 819.727)"><use xlink:href="#r" fill="url(#F)"/></g><g clip-path="url(#P)" transform="matrix(1.4102 0 0 -1.4102 -19.726 819.727)"><g clip-path="url(#Q)" class="B"><use xlink:href="#s"/></g><g clip-path="url(#R)"><g clip-path="url(#S)"><use xlink:href="#t" fill="url(#K)"/></g></g><g class="G"><path d="M195.087 520.203l-7.482-6.612v3.538l7.482 6.438h2.958v-41.295h-2.958z"/><use xlink:href="#u"/><use xlink:href="#v"/><use xlink:href="#w"/><use xlink:href="#x"/><path d="M311.3 510.227h2.958V482.27H311.3zm-.348 13.34h3.653v-3.654h-3.653z"/><use xlink:href="#y"/><path d="M339.72 510.227h2.957V482.27h-2.957zm-.35 13.34h3.653v-3.654h-3.653z"/><use xlink:href="#z"/><use xlink:href="#AA"/><use xlink:href="#AB"/><use xlink:href="#AC"/><path d="M306.465 82.938v33.176l-8.4-7.31v8.12l8.4 7.308h7.54V82.938z"/><use xlink:href="#AD"/></g></g><text transform="matrix(1.11816 .85928 -.85928 1.11816 274.957 526.225)" class="B C D E"><tspan x="0" y="0">F</tspan></text><text transform="matrix(1.26935 .61432 -.61432 1.26935 302.555 546.695)" class="B C D E"><tspan x="0" y="0">R</tspan></text><text transform="matrix(1.37128 .329 -.329 1.37128 337.78 562.699)" class="B C D E"><tspan x="0" y="0">A</tspan></text><text transform="matrix(1.41 .02344 -.02344 1.41 374.601 570.715)" class="B C D E"><tspan x="0" y="0">N</tspan></text><text transform="matrix(1.38266 -.27729 .27729 1.38266 414.322 570.415)" class="B C D E"><tspan x="0" y="0">C</tspan></text><text transform="matrix(1.2992 -.54836 .54836 1.29921 450.289 562.282)" class="B C D E"><tspan x="0" y="0">E</tspan></text><text transform="matrix(1.04497 -.94694 .94693 1.04497 497.918 538.496)" class="B C D E"><tspan x="0" y="0">M</tspan></text><text transform="matrix(.78019 -1.17471 1.17471 .78019 533.077 504.335)" class="B C D E"><tspan x="0" y="0">O</tspan></text><text transform="matrix(.50645 -1.31611 1.31611 .50645 553.803 471.52)" class="B C D E"><tspan x="0" y="0">B</tspan></text><text transform="matrix(.28298 -1.3815 1.3815 .28298 566.002 436.485)" class="B C D E"><tspan x="0" y="0">I</tspan></text><text transform="matrix(.07362 -1.40827 1.40827 .07362 570.148 416.196)" class="B C D E"><tspan x="0" y="0">L</tspan></text><text transform="matrix(-.13445 -1.40377 1.40377 -.13445 570.971 383.658)" class="B C D E"><tspan x="0" y="0">I</tspan></text><text transform="matrix(-.33084 -1.37083 1.37083 -.33085 568.94 363.297)" class="B C D E"><tspan x="0" y="0">T</tspan></text><text transform="matrix(-.5748 -1.28773 1.28772 -.5748 561.175 333.357)" class="B C D E"><tspan x="0" y="0">É</tspan></text><text transform="matrix(-.81898 -1.148 1.148 -.81898 546.66 302.397)" class="B C D E"><tspan x="0" y="0">S</tspan></text><g clip-path="url(#T)" transform="matrix(1.4102 0 0 -1.4102 -19.726 819.727)"><path d="M268 52.888c10.6-9.254 24.643-12.143 37.65-9.053-11.85-.928-24.642 3.106-34.97 12.122-10.328 9.013-16.054 21.142-16.736 33C252.64 75.662 257.4 62.14 268 52.888" fill="url(#U)"/></g><text transform="matrix(.78019 -1.17471 1.17471 .78019 507.222 798.725)" class="B C D F"><tspan x="0" y="0">O</tspan></text><text transform="matrix(.5067 -1.31601 1.31601 .5067 522.567 774.435)" class="B C D F"><tspan x="0" y="0">B</tspan></text><text transform="matrix(.28382 -1.38134 1.38133 .28382 531.598 748.53)" class="B C D F"><tspan x="0" y="0">I</tspan></text><text transform="matrix(.07417 -1.40824 1.40824 .07417 534.682 733.475)" class="B C D F"><tspan x="0" y="0">L</tspan></text><text transform="matrix(-.13362 -1.40385 1.40385 -.13362 535.301 709.394)" class="B C D F"><tspan x="0" y="0">I</tspan></text><text transform="matrix(-.32952 -1.37115 1.37115 -.32952 533.816 694.359)" class="B C D F"><tspan x="0" y="0">T</tspan></text><text transform="matrix(-.5736 -1.28826 1.28826 -.5736 528.084 672.168)" class="B C D F"><tspan x="0" y="0">É</tspan></text><text transform="matrix(-.8177 -1.14892 1.14892 -.8177 517.363 649.242)" class="B C D F"><tspan x="0" y="0">S</tspan></text><g clip-path="url(#V)" transform="matrix(1.4102 0 0 -1.4102 -19.726 819.727)"><path d="M268 478.492c10.6-9.254 24.643-12.143 37.65-9.053-11.85-.927-24.642 3.107-34.97 12.122s-16.054 21.143-16.736 33c-1.304-13.304 3.457-26.826 14.057-36.08" fill="url(#W)"/></g><g clip-path="url(#X)" transform="matrix(1.4102 0 0 -1.4102 -19.726 819.727)"><g clip-path="url(#Y)" class="B"><path d="M270.678 481.56c-10.327 9.014-16.053 21.143-16.735 33-1.304-13.305 3.457-26.826 14.057-36.08s24.643-12.142 37.65-9.053c-11.85-.927-24.642 3.106-34.97 12.122"/></g><g clip-path="url(#Z)"><g clip-path="url(#a)"><path d="M292.814 460.42c-15.365 2.54-28.143 10.837-35.892 21.894 6.69-13.632 19.366-23.853 35.138-26.46s31.064 2.99 41.784 13.747c-10.896-7.977-25.664-11.722-41.03-9.18" fill="url(#b)"/></g></g><path d="M246.914 336.246v5.027l11.43 13.278c1.117 1.333 1.6 2.278 1.6 3.696 0 2.277-1.332 3.824-3.695 3.824-1.848 0-3.74-.945-3.74-3.9h-5.586c0 5.586 4.082 8.938 9.325 8.938 5.414 0 9.28-3.395 9.28-8.895 0-2.965-1.16-4.555-3.266-7.004l-8.55-9.927h11.817v-5.027zm40.478 21.658c0 2.578-1.504 4.168-3.695 4.168s-3.74-1.6-3.74-4.168v-12.762c0-2.58 1.547-4.126 3.74-4.126s3.695 1.547 3.695 4.126zm-3.695-21.915c-4.985 0-9.325 3.266-9.325 9.1V358c0 5.844 4.34 9.1 9.325 9.1s9.28-3.265 9.28-9.1v-12.892c0-5.843-4.297-9.1-9.28-9.1m26.598.248v24.58l-6.23-5.415v6.016l6.23 5.414h5.587v-30.595zm28.663 25.824c-2.192 0-3.825-1.675-3.825-3.868 0-2.234 1.633-3.866 3.825-3.866s3.78 1.632 3.78 3.866c0 2.193-1.6 3.868-3.78 3.868m0-12.6c-2.364 0-4.212-1.9-4.212-4.255a4.211 4.211 0 118.422 0c0 2.364-1.848 4.255-4.2 4.255m0-13.493c-5.414 0-9.798 3.223-9.798 9.153 0 3.738 2.15 5.758 3.825 6.875-1.547 1.074-3.438 3.094-3.438 6.36 0 5.414 4.298 8.722 9.4 8.722s9.367-3.308 9.367-8.722c0-3.266-1.9-5.286-3.438-6.36 1.676-1.117 3.868-3.137 3.868-6.875 0-5.93-4.383-9.153-9.797-9.153"/><path d="M40.902 287.08h517.474" fill="none" stroke="#1d1d1b" class="H"/></g><g clip-path="url(#c)" transform="matrix(1.4102 0 0 -1.4102 -19.726 819.727)"><path d="M581.103 297.638c0-156.553-126.91-283.464-283.465-283.464S14.174 141.085 14.174 297.638s126.91 283.464 283.464 283.464 283.465-126.91 283.465-283.464" class="B"/><path d="M581.103 297.638c0-156.553-126.91-283.464-283.465-283.464S14.174 141.085 14.174 297.638s126.91 283.464 283.464 283.464 283.465-126.91 283.465-283.464z" fill="none" stroke-width=".37" class="H I"/><path d="M473.247 472.25l-3.903 3.907-24.41 19.718c-4.136 2.933-8.584 6.37-13.67 9.742l-17.053 9.99c-6.2 3.337-13.143 6.24-20.27 9.637-7.248 3.122-15.214 5.56-23.33 8.546-8.372 2.156-17.05 4.687-26.196 6.417-9.222 1.343-18.664 3.396-28.58 3.676-19.712 1.955-40.676.367-61.9-2.934-21.267-3.58-42.49-10.712-63.02-20.008-20.324-9.802-39.577-22.99-56.665-37.777-16.684-15.65-31.5-33.18-43.373-52.25-11.336-19.344-20.56-39.515-26.334-60.053-5.458-20.54-9.236-40.92-9.374-60.428-.778-9.726.273-19.186.602-28.32.75-9.11 2.3-17.843 3.535-26.214 2.083-8.22 3.603-16.22 5.903-23.585 2.58-7.28 4.658-14.315 7.268-20.668l7.93-17.548c2.755-5.267 5.633-9.93 8.044-14.225 2.4-4.318 4.65-8.086 7.007-11.1l5.655-7.9 4.707-6.576-10.063 14.684c-2.297 3.072-4.477 6.885-6.77 11.238-2.315 4.333-5.08 9.023-7.714 14.314l-7.532 17.62c-2.466 6.37-4.387 13.41-6.8 20.674-2.13 7.353-3.476 15.326-5.373 23.498-1.05 8.323-2.41 16.988-2.967 26.004-.138 9.044-.99 18.388-.02 27.97.52 19.225 4.67 39.2 10.426 59.24 6.073 20.03 15.52 39.573 26.944 58.2 11.957 18.356 26.716 35.083 43.17 49.917 17.284 14.288 35.65 26.27 55.473 35.375 19.98 8.54 40.502 14.983 60.978 17.998 20.436 2.733 40.516 3.87 59.31 1.597 9.458-.44 18.43-2.62 27.18-4.057 8.678-1.826 16.88-4.418 24.79-6.607 7.646-3.02 15.155-5.46 21.96-8.562 6.68-3.376 13.2-6.232 18.986-9.506l15.9-9.754c4.727-3.28 8.845-6.617 12.683-9.45 3.86-2.817 7.214-5.436 9.833-8.077l12.255-11.324-4.148-4.145-5.31 4.712-6.887 6.094c-2.62 2.507-5.93 5.02-9.76 7.68-3.797 2.695-7.907 5.814-12.554 8.94l-15.68 9.127c-5.67 3.1-12.075 5.703-18.62 8.813-6.628 2.928-13.975 5.07-21.426 7.8-7.654 2.078-15.674 4.192-24.042 5.89-8.476 1.118-17.13 3.114-26.235 3.297-18.095 1.817-37.313.15-56.79-2.802-19.466-3.518-38.946-9.906-57.775-18.498-18.353-9.23-36.537-21.185-51.663-34.814-15.46-14.574-29.054-30.405-39.71-48.116-10.324-17.743-18.885-36.22-23.917-55.12-5.038-18.82-8.25-37.538-8.347-55.4-.825-17.852 1.456-34.654 4.025-49.944 1.948-7.52 3.464-14.818 5.535-21.572 2.397-6.655 4.4-13.065 6.768-18.893l7.375-16.017c2.515-4.828 5.21-9.064 7.436-12.988 4.26-7.988 9.03-13.3 11.694-17.336l4.35-5.994-4.213 6.1c-2.57 4.08-7.232 9.522-11.297 17.58-2.13 3.962-4.713 8.226-7.105 13.08l-6.98 16.09c-2.223 5.843-4.067 12.258-6.297 18.9-1.903 6.743-3.244 14.014-5.005 21.486-.875 7.635-2.34 15.533-2.752 23.796-.248 8.275-.93 16.818-.124 25.593.484 17.58 4.066 35.906 9.405 54.216 5.332 18.39 14.12 36.24 24.53 53.266 10.64 16.904 24.514 32.22 39.278 45.578 15.888 13.607 32.665 23.92 50.712 32.607 18.276 7.832 37.058 13.534 55.73 16.483 18.688 2.383 37.023 3.598 54.197 1.46 8.645-.343 16.828-2.466 24.834-3.68 7.896-1.792 15.44-3.967 22.63-6.08 6.982-2.76 13.873-4.908 20.056-7.814 6.093-3.087 12.072-5.636 17.332-8.682l14.525-8.892c4.288-3.034 8.068-6.052 11.567-8.646 3.53-2.56 6.576-4.97 8.966-7.384l11.143-10.31-4.033-4.033-4.778 4.23c-3.52 2.84-8.042 7.783-15.1 12.47-3.44 2.44-7.167 5.26-11.378 8.093l-14.204 8.265c-5.132 2.82-10.934 5.168-16.86 7.986-6 2.657-12.654 4.6-19.4 7.074-6.928 1.898-14.19 3.804-21.76 5.36-7.675 1.017-15.507 2.843-23.747 3.02-16.377 1.677-33.774.196-51.408-2.418-17.618-3.157-35.278-8.842-52.333-16.576-16.62-8.273-33.19-19.034-46.872-31.278-14.07-13.12-26.444-27.35-36.168-43.316-9.438-15.982-17.303-32.63-21.965-49.682-4.692-16.974-7.71-33.87-7.94-50.01-.883-16.125 1.05-31.322 3.238-45.157 1.693-6.812 3.01-13.414 4.815-19.535 2.106-6.034 3.864-11.837 5.943-17.125l6.517-14.534c2.22-4.385 4.617-8.236 6.588-11.8 3.775-7.254 8.024-12.11 10.39-15.77l3.865-5.455-3.73 5.55c-2.274 3.713-6.41 8.688-9.987 16.008-1.876 3.6-4.16 7.48-6.258 11.89l-6.12 14.602c-1.934 5.3-3.536 11.11-5.475 17.13-1.636 6.107-2.777 12.68-4.287 19.443-1.818 13.738-3.357 28.755-2.09 44.594.612 15.853 4 32.354 8.988 48.818 4.958 16.544 13.044 32.562 22.565 47.83 9.705 15.166 22.352 28.87 35.733 40.793 14.44 12.216 29.586 21.338 45.906 29.076 16.502 6.98 33.463 11.98 50.29 14.573 16.846 2.05 33.363 3.08 48.82 1.086 7.784-.338 15.146-2.288 22.35-3.4 7.1-1.65 13.9-3.617 20.353-5.55 6.278-2.506 12.477-4.452 18.032-7.09 5.478-2.794 10.853-5.098 15.578-7.855l13.055-8.03c3.852-2.74 7.248-5.462 10.39-7.8 6.456-4.485 10.514-9.227 13.72-11.92l4.307-3.99-5.346-5.346-4.197 3.707c-3.127 2.516-7.145 6.893-13.402 11.048-3.054 2.163-6.36 4.66-10.097 7.17L383.84 460.2c-4.55 2.504-9.696 4.587-14.948 7.084-5.32 2.364-11.22 4.087-17.2 6.283-6.135 1.7-12.577 3.38-19.282 4.778-6.803.906-13.74 2.542-21.043 2.713-14.5 1.52-29.928.236-45.558-2.02-15.61-2.77-31.284-7.704-46.4-14.512-14.732-7.244-29.537-16.717-41.64-27.463-12.548-11.55-23.59-24.047-32.286-38.126-8.46-14.077-15.55-28.74-19.796-43.79-4.295-14.972-7.092-29.89-7.448-44.154-.927-14.247.645-27.698 2.434-39.948 1.427-6.037 2.534-11.883 4.056-17.313 1.797-5.353 3.298-10.498 5.07-15.194l5.6-12.9c1.906-3.9 3.986-7.33 5.686-10.5 3.25-6.45 6.94-10.79 8.99-14.05l3.35-4.862-3.213 4.954c-1.954 3.3-5.53 7.77-8.584 14.28-1.605 3.208-3.57 6.66-5.354 10.586l-5.2 12.975c-1.628 4.708-2.97 9.853-4.6 15.19-1.355 5.415-2.285 11.23-3.53 17.216-1.422 12.148-2.6 25.415-1.294 39.373.735 13.977 3.895 28.495 8.48 42.957 4.536 14.54 11.843 28.575 20.382 41.937 8.675 13.284 19.975 25.25 31.842 35.62 12.86 10.712 26.225 18.553 40.663 25.27 14.574 6.058 29.548 10.315 44.37 12.524 14.845 1.694 29.383 2.53 42.978.7 6.848-.328 13.317-2.1 19.652-3.09 6.238-1.492 12.208-3.233 17.883-4.965 5.513-2.228 10.958-3.955 15.835-6.297 4.808-2.475 9.53-4.513 13.673-6.954l11.456-7.093c3.38-2.42 6.36-4.818 9.118-6.88 5.665-3.955 9.22-8.132 12.036-10.503l3.73-3.467-6.005-6.004-3.587 3.16c-2.715 2.18-6.2 5.964-11.637 9.563l-8.76 6.2-10.928 6.346c-3.942 2.174-8.4 3.98-12.954 6.144-4.604 2.057-9.718 3.552-14.895 5.458-5.31 1.493-10.893 2.938-16.697 4.174-5.9.79-11.893 2.23-18.216 2.396-12.56 1.356-25.9.283-39.45-1.594-13.515-2.363-27.114-6.507-40.227-12.343-12.76-6.164-25.73-14.285-36.19-23.465-10.96-9.903-20.612-20.586-28.24-32.688-7.444-12.082-13.736-24.67-17.55-37.624-3.89-12.88-6.458-25.726-6.953-38.033-.98-12.283.202-23.9 1.572-34.502 1.14-5.23 2.03-10.283 3.25-14.992 1.47-4.644 2.698-9.1 4.148-13.178l4.635-11.217c1.577-3.397 3.318-6.383 4.733-9.145 2.704-5.6 5.803-9.415 7.517-12.257l2.806-4.246-2.667 4.336c-1.618 2.9-4.6 6.81-7.106 12.48-1.318 2.795-2.946 5.805-4.4 9.224l-4.234 11.272c-1.305 4.1-2.376 8.542-3.68 13.168-1.057 4.69-1.77 9.7-2.727 14.887-1.006 10.485-1.8 21.923-.444 33.913.868 12.012 3.794 24.458 7.97 36.825 4.1 12.443 10.598 24.402 18.114 35.773 7.606 11.313 17.5 21.455 27.79 30.203 11.21 9.135 22.717 15.634 35.195 21.282 12.557 5.093 25.46 8.568 38.19 10.376 12.755 1.32 25.227 1.955 36.88.288 5.87-.32 11.405-1.884 16.832-2.766 5.338-1.328 10.45-2.832 15.304-4.358 4.716-1.938 9.378-3.436 13.542-5.47 4.1-2.143 8.148-3.903 11.687-6.015l9.79-6.115 7.786-5.923c4.84-3.402 7.874-6.988 10.28-9.024l3.533-3.302 3.772-3.24c56.558-56.666 56.42-148.996-.316-205.828-27.612-27.7-64.366-42.968-103.488-42.968-38.762 0-75.16 15.022-102.58 42.397l-3.904 3.9-67.88-67.88-3.702-4.12 3.918-3.903c46.483-46.33 108.36-71.842 174.233-71.842 66.307 0 128.562 25.797 175.298 72.637 96.193 96.406 96.26 253.11.157 349.32" class="G"/><path d="M188.436 168.717l22.785-17.46-5.514-7.196-15.14 11.602-12.407-16.186 13.2-10.112-5.515-7.193-13.2 10.108-17.462-22.785-7.644 5.86zm20.65-50.052l4.934-2.382c6.038-2.917 8.617.034 11.534 6.073 2.957 6.124 3.538 9.935-2.84 13.016l-4.508 2.178zm4.387 31.238l13.95-6.737c10.292-4.97 12.393-13.433 6.726-25.17-3.37-6.974-7.8-11.134-14.798-11.526l-3.994-32.16-9.187 4.437 4.4 29.76L205.4 111l-12.5-25.846-8.675 4.2zm42.79-37.463l-.185.044-10.26-22.597 9.368-2.24zm.554 19.772l7.808-1.867-1.04-68.886-9.368 2.24.606 14.712-12.766 3.053-6.117-13.394-9.37 2.24zm22.958-5.147l9.255-.16 13.857-40.76.188-.003.7 40.515 9.632-.163-1.14-67.242-9.066.156-14.05 40.668-.2.003-.684-40.42-9.634.163zm78.543-45.125c1.64-8.15-3.505-16.602-11.932-18.295-7.222-1.453-16.264.4-18.686 12.43l-7.296 36.303c-1.73 8.613 3.153 16.433 12.322 18.277 8.705 1.75 16.5-3.523 18.352-12.692l.745-3.703-9.447-1.9-.632 3.15c-.745 3.703-3.6 6.406-7.214 5.68-4.72-.95-5.182-4.413-4.3-8.858l6.776-33.7c.762-3.796 2.84-6.462 7.1-5.605 2.596.52 5.63 2.673 4.587 7.858l-.65 3.242 9.446 1.898zm-6.268 52.758l26.45 11.178 3.53-8.35-17.576-7.43 7.685-18.183 15.312 6.472 3.53-8.35-15.313-6.472 7.684-18.183 17.576 7.425 3.75-8.873-26.446-11.177zm42.668 20.382l6.86 6.215 33.08-18.076.14.127-14.812 34.63 6.927 6.28 45.162-49.832-7.137-6.47-27.467 30.306-.14-.127 12.34-27.824-3.568-3.237-26.408 15.076-.142-.127 27.467-30.305-7.14-6.472zM477 167.167c3.854-2.56 7.338-1.245 9.27 1.667s1.794 6.63-2.06 9.2l-29.586 19.65c-3.857 2.56-7.338 1.245-9.27-1.667s-1.797-6.63 2.06-9.2zm-34.917 11.622c-9.128 6.062-9.094 16.016-4.756 22.548s13.5 10.424 22.627 4.362l29.586-19.648c9.13-6.06 9.095-16.016 4.757-22.548s-13.5-10.424-22.628-4.362zm63.913 28.01l1.494 3.88c2.783 7.227-1.42 9.454-7.592 11.83-6.256 2.4-9.962 2.52-12.473-4.003l-1.526-3.967zm-28.03 10.794l1.56 4.055c2.3 5.996-.164 8.768-5.895 10.975-5.55 2.14-9.24 1.233-11.517-4.675l-1.426-3.7zm-29.203.92l5.058 13.135c4.482 11.634 13.814 13.002 22 9.842l2.292-.88c6.698-2.58 8.32-5.735 9.26-10.65 3.657 3.45 8.195 3.928 14.717 1.415l3.525-1.356c10.932-4.2 15.1-11.786 10.616-23.423l-4.72-12.25zm12.225 35.762l1.937 9.44L528.8 250.2l-1.938-9.44zm3.46 16.5l.505 9.62 57.538-3.024 1.004 19.054 9.62-.507-1.506-28.673zm.62 33.04l-.912 9.6 66.94 6.38.915-9.6zm5.65 25.196l2.606-10.838-8.816-2.12-7.465 31.043 8.817 2.12 2.607-10.836 56.577 13.604 2.253-9.37zM456.4 348.184l-11.676 26.227 8.282 3.7 7.758-17.43 18.032 8.03-6.76 15.183 8.282 3.7 6.762-15.186 18.032 8.028-7.76 17.427 8.8 3.918 11.68-26.227zm-21.533 8.195l-4.148 9.317 17.235-5.973 2.536-5.695zm6.093 56.96l5.588-7.848-1.77-1.26c-3.618-2.573-5.52-6.25-2.672-10.25 3.065-4.306 7.24-2.84 10.857-.268 4.23 3.012 5.417 4.438 4.13 9.667l-1.888 7.696c-2.313 8.788 1.14 13.216 9.143 18.913 9.23 6.572 18.488 8.063 25.715-2.1 5.425-7.62 3.917-17.386-3.47-22.644l-2.922-2.082-5.588 7.848 2.463 1.753c2.847 2.025 4.52 5.536 1.673 9.537-3.78 5.307-7.2 3.446-12.208-.113-5.847-4.164-6.28-5.5-5.078-10.455l1.7-7.26c2.05-8.742-1.15-13.687-7.997-18.562-8.3-5.917-18.18-6.22-24.586 2.783-5.588 7.845-3.005 17.568 3.073 21.896z"/><g clip-path="url(#d)"><g clip-path="url(#e)"><path d="M295.435 388.55c27.956 11.07 57.35 10.04 81.168-.562-24.622 15.915-55.765 20.233-84.46 8.87s-48.442-35.83-55.496-64.29c10.106 24.036 30.827 44.914 58.79 55.982" fill="url(#f)"/></g></g></g><g clip-path="url(#g)" transform="matrix(1.4102 0 0 -1.4102 -19.726 819.727)"><path d="M229.692 387.807c-24.207-25.612-32.827-60.463-26.382-93.315-1.148 29.746 10.212 61.355 33.796 86.31 23.58 24.95 54.497 38.077 84.26 38.6a110.4 110.4 0 01-15.087 1.039c-28.226.001-56.044-10.905-76.588-32.645" fill="url(#h)"/></g><g clip-path="url(#i)" transform="matrix(1.4102 0 0 -1.4102 -19.726 819.727)"><g clip-path="url(#j)" class="B"><path d="M237.106 380.802c23.58 24.95 54.498 38.078 84.262 38.6-33.166 4.582-67.472-5.993-91.676-31.605s-32.826-60.463-26.382-93.316c-1.148 29.747 10.213 61.356 33.796 86.31"/></g><g clip-path="url(#k)"><g clip-path="url(#l)"><path d="M182.007 327.503c7.876 38.197 29.905 69.352 58.342 87.65-34.775-15.4-61.608-46.1-69.694-85.31s4.4-78.032 30.265-105.92c-18.883 28.054-26.792 65.382-18.913 103.58" fill="url(#m)"/></g></g><g class="G"><path d="M240.2 223.212l13.53-8.674-2.74-4.274-8.992 5.763-6.162-9.612 7.835-5.02-2.74-4.275-7.834 5.022-8.673-13.532-4.54 2.9zm14.026-27.034l2.864-1.088c3.508-1.33 4.802.437 6.134 3.944 1.35 3.557 1.5 5.707-2.214 7.117l-2.618.993zm.93 17.622l8.1-3.078c5.977-2.27 7.56-6.884 4.97-13.7-1.538-4.05-3.8-6.58-7.687-7.14l-.665-18.117-5.335 2.028 1.013 16.797-3.013 1.146-5.705-15.016-5.037 1.914zm19.45-6.864l15.874-2.492-.787-5.014-10.548 1.657-1.713-10.914 9.2-1.442-.787-5.014-9.2 1.445-1.715-10.914 10.548-1.658-.836-5.326-15.873 2.495zm17.257-2.6l5.172.27 9.308-22.224.105.005-1.177 22.645 5.386.282 1.952-37.586-5.067-.264-9.408 22.165-.107-.005 1.176-22.594-5.385-.28zm45.9-22.007c1.25-4.48-1.27-9.4-5.907-10.7-3.972-1.106-9.094-.447-10.94 6.17l-5.56 19.96c-1.32 4.735 1.084 9.302 6.125 10.706 4.787 1.333 9.36-1.3 10.762-6.33l.57-2.037-5.196-1.447-.48 1.73c-.57 2.038-2.272 3.426-4.26 2.875-2.594-.725-2.7-2.678-2.028-5.12L326 179.6c.584-2.086 1.85-3.5 4.194-2.835 1.426.397 3.032 1.722 2.24 4.574l-.498 1.782 5.194 1.447zm-5.67 29.066l4.763 2.526 7.56-14.24 5.884 3.125-7.562 14.24 4.76 2.53 17.652-33.24-4.762-2.528-7.858 14.8-5.883-3.124 7.86-14.8-4.763-2.53zm25.263 15.16l3.457 3.857 19.462-8.146.07.08-10.255 18.418 3.494 3.895 28.025-25.118-3.598-4.015-17.044 15.276-.07-.078 8.48-14.774-1.8-2.006-15.572 6.86-.07-.078 17.043-15.276-3.598-4.016zm45.215 11.725c2.297-1.196 4.154-.256 5.056 1.48s.602 3.793-1.695 5l-17.625 9.164c-2.297 1.193-4.154.254-5.055-1.48s-.605-3.796 1.692-5zm-20.112 4.382c-5.44 2.827-6.013 8.365-4 12.257s6.886 6.602 12.325 3.773l17.625-9.164c5.436-2.826 6.012-8.365 3.988-12.256s-6.886-6.6-12.324-3.774zm33.93 19.626l.594 2.248c1.108 4.2-1.367 5.173-4.944 6.117-3.63.96-5.695.796-6.696-2.987l-.607-2.3zm-16.252 4.294l.62 2.35c.92 3.476-.627 4.868-3.95 5.746-3.22.85-5.217.12-6.12-3.305l-.57-2.146zm-16.302-1.272l2.012 7.617c1.78 6.747 6.9 8.075 11.644 6.82l1.328-.352c3.885-1.025 4.98-2.682 5.8-5.36 1.825 2.144 4.32 2.7 8.1 1.7l2.046-.542c6.337-1.672 9.117-5.634 7.335-12.38l-1.877-7.104zm4.637 20.793l.498 5.368 37.478-3.476-.498-5.37zm.902 9.503l-.306 5.385 32.2 1.814-.6 10.665 5.385.303.903-16.048zm-1.677 18.516l-1.108 5.275 36.826 7.74 1.108-5.275zm1.518 14.46l2.14-5.86-4.768-1.738-6.125 16.785 4.768 1.738 2.138-5.86 30.6 11.16 1.848-5.065z"/><path d="M396.1 353.84l-14.86-17.5-2.93 4.9 10.62 11.398-.054.1-15.07-3.952-2.93 4.902 22.45 4.79 13.664 8.16 2.765-4.628z"/></g></g></svg>