<?xml version="1.0" encoding="UTF-8" standalone="no"?>
<!-- Generator: Adobe Illustrator 22.1.0, SVG Export Plug-In . SVG Version: 6.00 Build 0)  -->

<svg
   xmlns:dc="http://purl.org/dc/elements/1.1/"
   xmlns:cc="http://creativecommons.org/ns#"
   xmlns:rdf="http://www.w3.org/1999/02/22-rdf-syntax-ns#"
   xmlns:svg="http://www.w3.org/2000/svg"
   xmlns="http://www.w3.org/2000/svg"
   xmlns:sodipodi="http://sodipodi.sourceforge.net/DTD/sodipodi-0.dtd"
   xmlns:inkscape="http://www.inkscape.org/namespaces/inkscape"
   version="1.1"
   x="0px"
   y="0px"
   viewBox="0 0 400.00001 165"
   xml:space="preserve"
   id="svg135"
   sodipodi:docname="logo-amrf.svg"
   width="400"
   height="165"
   inkscape:version="0.92.5 (2060ec1f9f, 2020-04-08)"><metadata
   id="metadata141"><rdf:RDF><cc:Work
       rdf:about=""><dc:format>image/svg+xml</dc:format><dc:type
         rdf:resource="http://purl.org/dc/dcmitype/StillImage" /><dc:title></dc:title></cc:Work></rdf:RDF></metadata><defs
   id="defs139" /><sodipodi:namedview
   pagecolor="#ffffff"
   bordercolor="#666666"
   borderopacity="1"
   objecttolerance="10"
   gridtolerance="10"
   guidetolerance="10"
   inkscape:pageopacity="0"
   inkscape:pageshadow="2"
   inkscape:window-width="2560"
   inkscape:window-height="1376"
   id="namedview137"
   showgrid="false"
   inkscape:zoom="1.1212733"
   inkscape:cx="613.34931"
   inkscape:cy="412.21072"
   inkscape:window-x="0"
   inkscape:window-y="27"
   inkscape:window-maximized="1"
   inkscape:current-layer="svg135" />
<style
   type="text/css"
   id="style2">
	.st0{fill:#FFFFFF;}
	.st1{fill:#009E3D;}
	.st2{fill:#E30613;}
	.st3{fill:#005CA9;}
	.st4{display:none;}
	.st5{display:inline;fill:#C6C6C6;}
	.st6{display:inline;fill:#9D9D9C;}
	.st7{display:inline;}
	.st8{fill:#706F6F;}
</style>


<g
   id="Vagues_Gris"
   class="st4"
   style="display:none"
   transform="translate(0,-676.90002)">
	<path
   id="Vague_verte_1_"
   class="st5"
   d="m 540.1,335 c -1.4,0.3 -2.8,0.7 -4.1,1 -3.9,1 -7.9,1.9 -11.8,3.1 -3.2,1 -6.3,1.1 -9.6,0.6 -3.6,-0.6 -7.2,-0.9 -10.8,-1.1 -4.8,-0.3 -9.6,-0.4 -14.5,-0.4 -6.8,0 -13.5,0.7 -20.2,1.4 -9.3,1 -18.6,2.4 -27.8,4.3 -11.2,2.3 -22.4,4.9 -33.5,7.6 -13,3.2 -25.9,6.8 -38.8,10.1 -10.8,2.7 -21.7,4.9 -32.7,6.5 -4.9,0.7 -9.9,1.1 -14.9,1.7 -8.4,0.9 -16.8,0.9 -25.2,0.6 -7.8,-0.3 -15.5,-1.3 -23.1,-2.7 -20.2,-3.8 -40.2,-8.9 -60.2,-13.6 -11.4,-2.6 -22.8,-5.1 -34.4,-6.8 -5,-0.7 -10.1,-1.2 -15.1,-1.6 -6.3,-0.6 -12.6,-0.8 -19,-0.6 -5.6,0.2 -11.1,0.5 -16.7,1 -5.3,0.5 -10.6,1.1 -15.8,1.9 -4.6,0.7 -9,1.9 -13.6,2.8 -4.5,0.8 -9,1.5 -13.5,2.1 -4.5,0.6 -9.1,1.2 -13.6,1.4 -6.9,0.3 -13.8,0.5 -20.7,0.4 -6.4,-0.1 -12.7,-0.7 -19.2,-1.9 0.7,-0.9 1.7,-0.9 2.5,-1.2 3.1,-0.9 6.3,-1.7 9.4,-2.6 0.5,-0.2 1.1,-0.3 1.6,-0.5 4.1,-1.9 8.4,-1.6 12.7,-1 4.1,0.6 8.3,1.1 12.5,1.4 4.1,0.3 8.1,0.4 12.2,0.4 9.2,-0.1 18.2,-1 27.2,-2.7 6.3,-1.2 12.7,-2.1 19.1,-2.9 7.1,-0.9 14.3,-1.7 21.5,-2.1 7.9,-0.4 15.8,-0.6 23.7,-0.4 14.5,0.4 28.7,2.9 42.9,6.1 17.4,4 34.8,8.1 52.3,12 9.1,2 18.3,3.7 27.4,5.3 4.3,0.8 8.7,0.9 13.1,1.3 1.4,0.1 2.9,0.3 4.3,0.3 5.8,0.1 11.6,-0.3 17.4,-1 5.8,-0.8 11.5,-1.4 17.3,-2.4 10.1,-1.7 20.1,-4.2 29.9,-7.1 17.1,-5.1 34.4,-9.5 51.9,-12.9 8.3,-1.6 16.6,-2.9 25,-4.3 5.6,-0.9 11.2,-1.8 16.9,-2.5 5,-0.7 10.1,-1.2 15.1,-1.7 6.2,-0.6 12.3,-1.2 18.5,-1.4 5.9,-0.2 11.8,-0.2 17.7,0.1 5.2,0.2 10.5,1 15.7,1.5 0.4,0 0.7,0.2 1.1,0.3 -0.2,0 -0.1,0.1 -0.1,0.2 z"
   inkscape:connector-curvature="0"
   style="display:inline;fill:#c6c6c6" />
	<path
   id="Vague_rouge_1_"
   class="st6"
   d="m 553.7,320.9 c -1.6,0.4 -3.2,0.9 -4.8,1.3 -3.9,1 -7.9,2 -11.8,3.1 -2.8,0.8 -5.5,0.8 -8.3,0.4 -4.5,-0.6 -9,-1.1 -13.4,-1.4 -5.4,-0.3 -10.8,-0.4 -16.2,-0.3 -8.5,0.2 -17,1.1 -25.4,2.4 -9.8,1.5 -19.6,3.6 -29.3,5.6 -4.3,0.9 -8.5,2.2 -12.9,2.9 -4.4,0.7 -8.7,1.8 -13,2.7 -7.1,1.4 -14.3,2.4 -21.6,2.9 -6,0.3 -12,0.7 -18,0.6 -17.9,-0.2 -35.4,-3.2 -52.6,-7.9 -15,-4.1 -29.7,-9.1 -44.4,-13.9 -14,-4.6 -28.2,-8.3 -42.8,-10.6 -11.2,-1.8 -22.4,-2.3 -33.7,-1.8 -9,0.4 -18,1.4 -26.9,2.9 -7,1.2 -13.7,3.3 -20.5,5.4 -10.4,3.2 -20.8,6.2 -31.5,7.9 -6.9,1.1 -13.9,2.1 -20.8,2.9 -7,0.8 -14,1.1 -21,1 -7.7,-0.1 -15.3,-0.7 -22.8,-1.9 -0.6,-0.1 -1.2,-0.3 -2.2,-0.5 0.9,-0.4 1.5,-0.7 2.1,-0.8 5.2,-1.5 10.3,-3 15.5,-4.6 2.3,-0.7 4.6,-0.6 6.9,-0.2 10.7,1.9 21.6,2.2 32.4,1.6 13.5,-0.8 26.7,-3.2 39.8,-6.4 6.1,-1.5 12.1,-3.2 18.2,-4.4 9.4,-1.9 18.8,-3.7 28.3,-4.8 10.2,-1.1 20.4,-1.6 30.6,-1.1 20.5,0.9 40.4,5.1 60,11.4 12.8,4.1 25.6,8.3 38.4,12.3 11.4,3.6 23.1,6.2 34.9,8 6.7,1 13.5,1.7 20.4,2.1 6.6,0.4 13.2,0.3 19.7,-0.1 6.8,-0.4 13.6,-1.2 20.3,-2.4 8.9,-1.6 17.6,-3.9 26.3,-6.3 12.2,-3.3 24.5,-5.9 36.9,-7.7 6.4,-0.9 12.9,-1.6 19.4,-2 6.2,-0.4 12.5,-0.7 18.8,-0.6 8.4,0.1 16.9,0.6 25.2,1.9 -0.2,0.1 -0.2,0.2 -0.2,0.4 z"
   inkscape:connector-curvature="0"
   style="display:inline;fill:#9d9d9c" />
	<g
   id="Vague_bleue_2_"
   class="st7"
   style="display:inline">
		<path
   class="st8"
   d="m 566.5,306.8 c -2.3,0.6 -4.6,1.1 -6.9,1.7 -3.3,0.9 -6.6,1.6 -9.8,2.6 -3,0.9 -5.9,0.8 -8.9,0.3 -5.3,-0.8 -10.7,-1.4 -16.1,-1.4 -4.2,0 -8.4,-0.2 -12.6,0.1 -5.5,0.3 -11,0.8 -16.4,1.4 -6,0.7 -12,1.6 -18,2.7 -7.8,1.4 -15.6,2.9 -23.4,4.4 -10,1.9 -20,3.9 -30,5.7 -5,0.9 -10.1,1.3 -15.1,1.6 -4.8,0.3 -9.6,0.4 -14.5,0.4 -5.2,0 -10.2,-1 -15.2,-2.1 -2.9,-0.6 -3.6,-0.3 -3.5,-4 0.1,-1.9 -0.7,-2.5 -3,-2.9 -3.1,-0.5 -6.2,-0.9 -9.2,-1.6 -4.2,-1 -8.4,-2.1 -12.5,-3.4 -4.2,-1.4 -7.6,-4 -9.9,-8 -1.7,-3 -4.9,-4.7 -7.7,-5.5 -0.7,-0.2 -1.4,-0.4 -2.9,-0.2 2.4,-1 5,-1.8 7.3,-2.1 1.4,-0.2 2.9,-0.4 4.3,-0.3 2.2,0.2 4.2,1.2 5.8,2.8 1.3,1.3 2.5,2.7 3.5,4.2 4,5.8 9.8,8.5 16.6,9.5 3.7,0.5 7.3,0.6 11,0.1 2.1,-0.3 4.2,0 6.3,0.8 1.8,0.8 2.1,1.4 1.2,3.2 -0.2,0.5 -0.6,1 -0.7,1.5 -0.4,1.1 -0.1,1.7 1.1,1.9 2.1,0.4 4.3,0.9 6.5,1.1 4.8,0.6 9.5,1.3 14.3,1.6 3.8,0.3 7.6,0.3 11.5,0.2 3.6,-0.1 7.2,-0.5 10.8,-1 5.4,-0.7 10.8,-1.6 16.1,-2.5 11.1,-1.9 21.9,-5.2 32.8,-7.8 7.7,-1.9 15.5,-3.5 23.4,-4.4 6,-0.7 12.1,-1.3 18.1,-1.9 9.7,-1 19.4,-1.1 29.1,-0.6 5.3,0.2 10.6,1 15.9,1.5 0.2,0 0.3,0.2 0.5,0.2 0.2,0 0.2,0.1 0.2,0.2 z"
   id="path19"
   inkscape:connector-curvature="0"
   style="fill:#706f6f" />
		<path
   class="st8"
   d="m 258.2,281.9 c 0.7,-0.3 1,-0.4 1.2,-0.6 3.4,-3 7.6,-4.5 12,-5.6 1.6,-0.4 3.2,-0.7 4.8,-1.1 0.6,-0.1 1.2,-0.2 1.9,-0.2 1.8,0 2.6,0.6 3.2,2.3 0.2,0.6 0.3,1.2 0.4,1.8 0.3,1.4 1,2.4 2.5,2.7 0.8,0.1 1.6,0.3 2.4,0.3 3,-0.1 5.7,0.7 8.2,2.2 3.7,2.1 7,4.9 9.9,8 1.3,1.4 2.5,3 3.9,4.3 1.5,1.5 3.1,2.9 4.9,4.1 2,1.5 4.4,1.8 6.8,1.1 2.4,-0.7 12.1,-3.6 14.4,-4.1 -0.8,0.6 -8.9,3 -9.8,3.2 -3.9,1 -7.8,2.1 -11.8,3 -1.9,0.4 -4,0.4 -6,0.3 -2.5,-0.2 -4.5,-1.5 -6.2,-3.2 -3,-3 -5.9,-6.1 -9,-9.1 -2.9,-2.9 -6.1,-5.2 -10,-6.6 -2.4,-0.9 -4.9,-1.5 -7.5,-1.1 -1.7,0.3 -2.2,-0.2 -2.6,-1.9 -0.2,-1.2 -0.5,-2.4 -0.9,-4 -0.9,0.5 -1.6,0.9 -2.2,1.2 -1.8,1.2 -3.5,2.5 -5.4,3.5 -2.1,1 -4.3,1.6 -6.5,2.4 -1.4,0.4 -2.8,0.8 -4.2,1 -2.6,0.5 -4.2,-0.6 -4.7,-3.2 -0.4,-2.4 -0.8,-4.8 -1.1,-7.2 0,-0.2 0,-0.5 -0.1,-0.7 -0.8,-2.7 -1.2,-3.8 -4.7,-3.7 -1.6,0 -3.1,0 -4.7,0 -1.9,0 -2,-0.2 -2,-2 0,-5.9 0.2,-11.8 0,-17.7 -0.1,-3.9 -0.8,-7.7 -1.3,-11.6 -0.3,-2.3 -0.7,-4.6 -1,-6.9 -0.1,-0.6 -0.3,-1.1 -0.5,-2.2 -0.6,0.7 -1,1.1 -1.1,1.5 -1.5,4.2 -3,8.5 -4.6,12.7 -0.9,2.2 -0.8,4.5 -0.9,6.8 -0.1,2.4 -0.4,7.2 -0.5,9.6 -1,-3.2 -0.6,-12.2 0.4,-15.3 1.6,-5.3 3.3,-10.5 4.9,-15.8 0.5,-1.5 1,-3.1 1.6,-5 0.3,0.7 0.6,1 0.7,1.3 1.9,4.4 3.8,8.9 5.7,13.3 0.8,1.9 1.7,3.8 2.3,5.7 0.5,1.6 0.7,3.3 0.7,5 0.1,5.3 0,10.5 0,15.8 0,0.4 0,0.8 0,1.1 0.1,1.5 0.6,2.1 2.1,2 2.3,-0.1 4.6,-0.4 6.9,-0.6 0.3,0 0.6,-0.2 0.9,-0.2 2.6,-0.7 4,0.1 4.5,2.7 0.5,2.4 0.8,4.8 1.2,7.2 0.2,1.2 0.6,2.2 0.9,3.5 z"
   id="path21"
   inkscape:connector-curvature="0"
   style="fill:#706f6f" />
		<path
   class="st8"
   d="m 225.4,260.5 c 0,1.1 0,2 0,3 -1.5,0.5 -3,0.5 -4.3,0.3 -3.3,-0.5 -5.4,1.6 -7.7,3.3 -1,0.8 -1,2.1 -1,3.3 0,2.3 0,4.5 0,6.8 -0.1,2.7 -1.5,4.6 -4.1,5.5 -4.7,1.6 -9.4,3 -14.4,3.6 -2.3,0.3 -4.6,-0.2 -6.8,-0.9 -1.6,-0.5 -3.2,-1.2 -4.7,-1.8 -1.2,-0.5 -2.4,-1 -3.7,-1.4 -1.5,-0.6 -2.8,-0.3 -4.1,0.5 -1,0.7 -2,1.5 -3,2.3 -4.9,4.3 -10.7,6.8 -17,7.7 -6.1,0.9 -12.3,1.6 -18.4,2.3 -7.4,0.8 -14.7,1.2 -22.1,1 -7.4,-0.1 -14.7,-0.8 -22.1,-1.9 -0.2,0 -0.3,-0.1 -0.7,-0.3 0.5,-0.2 0.8,-0.4 1.2,-0.5 5.6,-1.6 11.2,-3.2 16.8,-4.8 1.6,-0.5 3.2,-0.4 4.8,-0.2 4.8,0.7 9.7,1.3 14.5,1.7 4.7,0.3 9.4,0.4 14.1,0.3 4.7,-0.1 9.5,-0.1 14.1,-1.8 2,-0.7 4,-1.5 5.9,-2.4 7.2,-3.6 14.8,-5.8 22.6,-7.3 3.1,-0.6 6.1,-0.1 9,1.2 1.5,0.7 3.1,1.4 4.9,2.2 0.2,-0.8 0.4,-1.4 0.5,-2.1 0.2,-1.7 0.5,-2.1 2.1,-2.3 1.3,-0.2 2.6,-0.3 3.9,-0.5 2.7,-0.3 3.6,-1.2 3.7,-4 0,-1.6 0,-3.3 0,-4.9 0,-1.3 0.3,-2.3 1.4,-3.1 1.4,-1 2.6,-2.1 4.1,-3 1.9,-1.2 4,-1.7 6.3,-1.6 1.2,-0.1 2.6,-0.2 4.2,-0.2 z"
   id="path23"
   inkscape:connector-curvature="0"
   style="fill:#706f6f" />
	</g>
</g>
<g
   id="g997"
   transform="matrix(0.74738416,0,0,0.74738416,-23.393124,-169.07961)"><g
     id="Vagues_Couleur">
	<path
   d="m 540.1,335 c -1.4,0.3 -2.8,0.7 -4.1,1 -3.9,1 -7.9,1.9 -11.8,3.1 -3.2,1 -6.3,1.1 -9.6,0.6 -3.6,-0.6 -7.2,-0.9 -10.8,-1.1 -4.8,-0.3 -9.6,-0.4 -14.5,-0.4 -6.8,0 -13.5,0.7 -20.2,1.4 -9.3,1 -18.6,2.4 -27.8,4.3 -11.2,2.3 -22.4,4.9 -33.5,7.6 -13,3.2 -25.9,6.8 -38.8,10.1 -10.8,2.7 -21.7,4.9 -32.7,6.5 -4.9,0.7 -9.9,1.1 -14.9,1.7 -8.4,0.9 -16.8,0.9 -25.2,0.6 -7.8,-0.3 -15.5,-1.3 -23.1,-2.7 -20.2,-3.8 -40.2,-8.9 -60.2,-13.6 -11.4,-2.6 -22.8,-5.1 -34.4,-6.8 -5,-0.7 -10.1,-1.2 -15.1,-1.6 -6.3,-0.6 -12.6,-0.8 -19,-0.6 -5.6,0.2 -11.1,0.5 -16.7,1 -5.3,0.5 -10.6,1.1 -15.8,1.9 -4.6,0.7 -9,1.9 -13.6,2.8 -4.5,0.8 -9,1.5 -13.5,2.1 -4.5,0.6 -9.1,1.2 -13.6,1.4 -6.9,0.3 -13.8,0.5 -20.7,0.4 -6.4,-0.1 -12.7,-0.7 -19.2,-1.9 0.7,-0.9 1.7,-0.9 2.5,-1.2 3.1,-0.9 6.3,-1.7 9.4,-2.6 0.5,-0.2 1.1,-0.3 1.6,-0.5 4.1,-1.9 8.4,-1.6 12.7,-1 4.1,0.6 8.3,1.1 12.5,1.4 4.1,0.3 8.1,0.4 12.2,0.4 9.2,-0.1 18.2,-1 27.2,-2.7 6.3,-1.2 12.7,-2.1 19.1,-2.9 7.1,-0.9 14.3,-1.7 21.5,-2.1 7.9,-0.4 15.8,-0.6 23.7,-0.4 14.5,0.4 28.7,2.9 42.9,6.1 17.4,4 34.8,8.1 52.3,12 9.1,2 18.3,3.7 27.4,5.3 4.3,0.8 8.7,0.9 13.1,1.3 1.4,0.1 2.9,0.3 4.3,0.3 5.8,0.1 11.6,-0.3 17.4,-1 5.8,-0.8 11.5,-1.4 17.3,-2.4 10.1,-1.7 20.1,-4.2 29.9,-7.1 17.1,-5.1 34.4,-9.5 51.9,-12.9 8.3,-1.6 16.6,-2.9 25,-4.3 5.6,-0.9 11.2,-1.8 16.9,-2.5 5,-0.7 10.1,-1.2 15.1,-1.7 6.2,-0.6 12.3,-1.2 18.5,-1.4 5.9,-0.2 11.8,-0.2 17.7,0.1 5.2,0.2 10.5,1 15.7,1.5 0.4,0 0.7,0.2 1.1,0.3 -0.2,0 -0.1,0.1 -0.1,0.2 z"
   class="st1"
   id="Vague_verte"
   inkscape:connector-curvature="0"
   style="fill:#009e3d" />
	<path
   d="m 553.7,320.9 c -1.6,0.4 -3.2,0.9 -4.8,1.3 -3.9,1 -7.9,2 -11.8,3.1 -2.8,0.8 -5.5,0.8 -8.3,0.4 -4.5,-0.6 -9,-1.1 -13.4,-1.4 -5.4,-0.3 -10.8,-0.4 -16.2,-0.3 -8.5,0.2 -17,1.1 -25.4,2.4 -9.8,1.5 -19.6,3.6 -29.3,5.6 -4.3,0.9 -8.5,2.2 -12.9,2.9 -4.4,0.7 -8.7,1.8 -13,2.7 -7.1,1.4 -14.3,2.4 -21.6,2.9 -6,0.3 -12,0.7 -18,0.6 -17.9,-0.2 -35.4,-3.2 -52.6,-7.9 -15,-4.1 -29.7,-9.1 -44.4,-13.9 -14,-4.6 -28.2,-8.3 -42.8,-10.6 -11.2,-1.8 -22.4,-2.3 -33.7,-1.8 -9,0.4 -18,1.4 -26.9,2.9 -7,1.2 -13.7,3.3 -20.5,5.4 -10.4,3.2 -20.8,6.2 -31.5,7.9 -6.9,1.1 -13.9,2.1 -20.8,2.9 -7,0.8 -14,1.1 -21,1 -7.7,-0.1 -15.3,-0.7 -22.8,-1.9 -0.6,-0.1 -1.2,-0.3 -2.2,-0.5 0.9,-0.4 1.5,-0.7 2.1,-0.8 5.2,-1.5 10.3,-3 15.5,-4.6 2.3,-0.7 4.6,-0.6 6.9,-0.2 10.7,1.9 21.6,2.2 32.4,1.6 13.5,-0.8 26.7,-3.2 39.8,-6.4 6.1,-1.5 12.1,-3.2 18.2,-4.4 9.4,-1.9 18.8,-3.7 28.3,-4.8 10.2,-1.1 20.4,-1.6 30.6,-1.1 20.5,0.9 40.4,5.1 60,11.4 12.8,4.1 25.6,8.3 38.4,12.3 11.4,3.6 23.1,6.2 34.9,8 6.7,1 13.5,1.7 20.4,2.1 6.6,0.4 13.2,0.3 19.7,-0.1 6.8,-0.4 13.6,-1.2 20.3,-2.4 8.9,-1.6 17.6,-3.9 26.3,-6.3 12.2,-3.3 24.5,-5.9 36.9,-7.7 6.4,-0.9 12.9,-1.6 19.4,-2 6.2,-0.4 12.5,-0.7 18.8,-0.6 8.4,0.1 16.9,0.6 25.2,1.9 -0.2,0.1 -0.2,0.2 -0.2,0.4 z"
   class="st2"
   id="Vague_rouge"
   inkscape:connector-curvature="0"
   style="fill:#e30613" />
	<g
   id="Vague_bleue">
		<path
   id="path9"
   d="m 566.5,306.8 c -2.3,0.6 -4.6,1.1 -6.9,1.7 -3.3,0.9 -6.6,1.6 -9.8,2.6 -3,0.9 -5.9,0.8 -8.9,0.3 -5.3,-0.8 -10.7,-1.4 -16.1,-1.4 -4.2,0 -8.4,-0.2 -12.6,0.1 -5.5,0.3 -11,0.8 -16.4,1.4 -6,0.7 -12,1.6 -18,2.7 -7.8,1.4 -15.6,2.9 -23.4,4.4 -10,1.9 -20,3.9 -30,5.7 -5,0.9 -10.1,1.3 -15.1,1.6 -4.8,0.3 -9.6,0.4 -14.5,0.4 -5.2,0 -10.2,-1 -15.2,-2.1 -2.9,-0.6 -3.6,-0.3 -3.5,-4 0.1,-1.9 -0.7,-2.5 -3,-2.9 -3.1,-0.5 -6.2,-0.9 -9.2,-1.6 -4.2,-1 -8.4,-2.1 -12.5,-3.4 -4.2,-1.4 -7.6,-4 -9.9,-8 -1.7,-3 -4.9,-4.7 -7.7,-5.5 -0.7,-0.2 -1.4,-0.4 -2.9,-0.2 2.4,-1 5,-1.8 7.3,-2.1 1.4,-0.2 2.9,-0.4 4.3,-0.3 2.2,0.2 4.2,1.2 5.8,2.8 1.3,1.3 2.5,2.7 3.5,4.2 4,5.8 9.8,8.5 16.6,9.5 3.7,0.5 7.3,0.6 11,0.1 2.1,-0.3 4.2,0 6.3,0.8 1.8,0.8 2.1,1.4 1.2,3.2 -0.2,0.5 -0.6,1 -0.7,1.5 -0.4,1.1 -0.1,1.7 1.1,1.9 2.1,0.4 4.3,0.9 6.5,1.1 4.8,0.6 9.5,1.3 14.3,1.6 3.8,0.3 7.6,0.3 11.5,0.2 3.6,-0.1 7.2,-0.5 10.8,-1 5.4,-0.7 10.8,-1.6 16.1,-2.5 11.1,-1.9 21.9,-5.2 32.8,-7.8 7.7,-1.9 15.5,-3.5 23.4,-4.4 6,-0.7 12.1,-1.3 18.1,-1.9 9.7,-1 19.4,-1.1 29.1,-0.6 5.3,0.2 10.6,1 15.9,1.5 0.2,0 0.3,0.2 0.5,0.2 0.2,0 0.2,0.1 0.2,0.2 z"
   class="st3"
   inkscape:connector-curvature="0"
   style="fill:#005ca9" />
		<path
   id="path11"
   d="m 258.2,281.9 c 0.7,-0.3 1,-0.4 1.2,-0.6 3.4,-3 7.6,-4.5 12,-5.6 1.6,-0.4 3.2,-0.7 4.8,-1.1 0.6,-0.1 1.2,-0.2 1.9,-0.2 1.8,0 2.6,0.6 3.2,2.3 0.2,0.6 0.3,1.2 0.4,1.8 0.3,1.4 1,2.4 2.5,2.7 0.8,0.1 1.6,0.3 2.4,0.3 3,-0.1 5.7,0.7 8.2,2.2 3.7,2.1 7,4.9 9.9,8 1.3,1.4 2.5,3 3.9,4.3 1.5,1.5 3.1,2.9 4.9,4.1 2,1.5 4.4,1.8 6.8,1.1 2.4,-0.7 12.1,-3.6 14.4,-4.1 -0.8,0.6 -8.9,3 -9.8,3.2 -3.9,1 -7.8,2.1 -11.8,3 -1.9,0.4 -4,0.4 -6,0.3 -2.5,-0.2 -4.5,-1.5 -6.2,-3.2 -3,-3 -5.9,-6.1 -9,-9.1 -2.9,-2.9 -6.1,-5.2 -10,-6.6 -2.4,-0.9 -4.9,-1.5 -7.5,-1.1 -1.7,0.3 -2.2,-0.2 -2.6,-1.9 -0.2,-1.2 -0.5,-2.4 -0.9,-4 -0.9,0.5 -1.6,0.9 -2.2,1.2 -1.8,1.2 -3.5,2.5 -5.4,3.5 -2.1,1 -4.3,1.6 -6.5,2.4 -1.4,0.4 -2.8,0.8 -4.2,1 -2.6,0.5 -4.2,-0.6 -4.7,-3.2 -0.4,-2.4 -0.8,-4.8 -1.1,-7.2 0,-0.2 0,-0.5 -0.1,-0.7 -0.8,-2.7 -1.2,-3.8 -4.7,-3.7 -1.6,0 -3.1,0 -4.7,0 -1.9,0 -2,-0.2 -2,-2 0,-5.9 0.2,-11.8 0,-17.7 -0.1,-3.9 -0.8,-7.7 -1.3,-11.6 -0.3,-2.3 -0.7,-4.6 -1,-6.9 -0.1,-0.6 -0.3,-1.1 -0.5,-2.2 -0.6,0.7 -1,1.1 -1.1,1.5 -1.5,4.2 -3,8.5 -4.6,12.7 -0.9,2.2 -0.8,4.5 -0.9,6.8 -0.1,2.4 -0.4,7.2 -0.5,9.6 -1,-3.2 -0.6,-12.2 0.4,-15.3 1.6,-5.3 3.3,-10.5 4.9,-15.8 0.5,-1.5 1,-3.1 1.6,-5 0.3,0.7 0.6,1 0.7,1.3 1.9,4.4 3.8,8.9 5.7,13.3 0.8,1.9 1.7,3.8 2.3,5.7 0.5,1.6 0.7,3.3 0.7,5 0.1,5.3 0,10.5 0,15.8 0,0.4 0,0.8 0,1.1 0.1,1.5 0.6,2.1 2.1,2 2.3,-0.1 4.6,-0.4 6.9,-0.6 0.3,0 0.6,-0.2 0.9,-0.2 2.6,-0.7 4,0.1 4.5,2.7 0.5,2.4 0.8,4.8 1.2,7.2 0.2,1.2 0.6,2.2 0.9,3.5 z"
   class="st3"
   inkscape:connector-curvature="0"
   style="fill:#005ca9" />
		<path
   id="path13"
   d="m 225.4,260.5 c 0,1.1 0,2 0,3 -1.5,0.5 -3,0.5 -4.3,0.3 -3.3,-0.5 -5.4,1.6 -7.7,3.3 -1,0.8 -1,2.1 -1,3.3 0,2.3 0,4.5 0,6.8 -0.1,2.7 -1.5,4.6 -4.1,5.5 -4.7,1.6 -9.4,3 -14.4,3.6 -2.3,0.3 -4.6,-0.2 -6.8,-0.9 -1.6,-0.5 -3.2,-1.2 -4.7,-1.8 -1.2,-0.5 -2.4,-1 -3.7,-1.4 -1.5,-0.6 -2.8,-0.3 -4.1,0.5 -1,0.7 -2,1.5 -3,2.3 -4.9,4.3 -10.7,6.8 -17,7.7 -6.1,0.9 -12.3,1.6 -18.4,2.3 -7.4,0.8 -14.7,1.2 -22.1,1 -7.4,-0.1 -14.7,-0.8 -22.1,-1.9 -0.2,0 -0.3,-0.1 -0.7,-0.3 0.5,-0.2 0.8,-0.4 1.2,-0.5 5.6,-1.6 11.2,-3.2 16.8,-4.8 1.6,-0.5 3.2,-0.4 4.8,-0.2 4.8,0.7 9.7,1.3 14.5,1.7 4.7,0.3 9.4,0.4 14.1,0.3 4.7,-0.1 9.5,-0.1 14.1,-1.8 2,-0.7 4,-1.5 5.9,-2.4 7.2,-3.6 14.8,-5.8 22.6,-7.3 3.1,-0.6 6.1,-0.1 9,1.2 1.5,0.7 3.1,1.4 4.9,2.2 0.2,-0.8 0.4,-1.4 0.5,-2.1 0.2,-1.7 0.5,-2.1 2.1,-2.3 1.3,-0.2 2.6,-0.3 3.9,-0.5 2.7,-0.3 3.6,-1.2 3.7,-4 0,-1.6 0,-3.3 0,-4.9 0,-1.3 0.3,-2.3 1.4,-3.1 1.4,-1 2.6,-2.1 4.1,-3 1.9,-1.2 4,-1.7 6.3,-1.6 1.2,-0.1 2.6,-0.2 4.2,-0.2 z"
   class="st3"
   inkscape:connector-curvature="0"
   style="fill:#005ca9" />
	</g>
</g><g
     id="Texte">
	<path
   id="path27"
   d="m 418.1,228.2 c 0.5,0 0.8,-0.1 1.2,-0.1 4.4,0 8.8,0 13.2,0 3.7,12 7.3,23.9 11,36 1.5,-4 3,-7.9 4.5,-11.8 1.6,-4 3.2,-8 4.8,-12 1.6,-4 3.1,-7.9 4.6,-12 4.9,0 9.9,0 14.8,0 -0.2,16.5 -0.4,32.9 -0.7,49.3 -1.2,0.4 -6.9,0.5 -9.8,0.1 0.2,-12.8 0.4,-25.6 0.6,-38.2 -0.3,-0.1 -0.3,-0.2 -0.4,-0.2 -0.1,0 -0.1,0 -0.2,0.1 -4.9,12.8 -9.7,25.6 -14.6,38.5 -3.3,0 -6.5,0 -9.9,0 -3.6,-12.6 -7,-25.2 -11.3,-37.5 -1.5,12.4 -2,24.8 -2.9,37.2 -1.4,0.4 -6.8,0.5 -9,0.1 1.5,-16.5 2.8,-32.9 4.1,-49.5 z"
   inkscape:connector-curvature="0" />
	<path
   id="path29"
   d="m 494,235.6 c -1.1,14.1 -1,28.1 -1.7,42.2 -3.7,0 -7.3,0 -11.1,0 1.8,-16.5 2.2,-33 2.6,-49.5 0.6,0 1,-0.1 1.5,-0.1 7.7,0 15.4,0 23.1,0 1.4,0 2.8,0.2 4.1,0.5 7.2,1.7 11,8.2 9.2,15.4 -1.2,4.8 -4.1,8.1 -8.8,9.7 -1.4,0.5 -2.7,0.9 -4.3,1.5 3.6,7.8 8.3,14.9 12.3,22.6 -4.2,0 -8.1,0 -11.9,0 -4.2,-9 -8.3,-17.9 -12.6,-27 0.9,0.1 1.6,0.1 2.3,0.2 2.1,0.2 4.3,0.1 6.3,-0.6 3.4,-1.1 5.6,-3.4 6.2,-7.1 0.6,-3.5 -1.2,-6.3 -4.7,-7.3 -0.3,-0.1 -0.6,-0.2 -0.9,-0.2 -3.8,-0.7 -7.6,-0.4 -11.6,-0.3 z"
   inkscape:connector-curvature="0" />
	<path
   id="path31"
   d="m 364.3,277.7 c -4.2,0 -8.1,0 -12.3,0 0.3,-0.7 0.5,-1.2 0.8,-1.6 8,-15.5 16.1,-31 24.1,-46.5 0.6,-1.1 1.2,-1.5 2.4,-1.5 3.9,0.1 7.8,0 11.7,0 6.1,16.6 12.1,33 18.2,49.7 -3.9,0 -7.7,0 -11.5,0 -0.2,-0.5 -0.5,-1.1 -0.7,-1.7 -1.5,-4.4 -2.9,-8.8 -4.4,-13.2 -0.8,-2.3 -1.5,-2.8 -3.8,-2.8 -4.6,0.1 -9.3,0.2 -13.9,0.1 -1.9,0 -2.8,0.6 -3.5,2.3 -2,4.5 -4.1,9 -6.2,13.5 -0.4,0.6 -0.6,1.1 -0.9,1.7 z m 11.4,-25.5 c 2.6,0.5 12.5,0.4 13.7,-0.1 -1.9,-5.3 -3.7,-10.6 -5.7,-16.3 -2.8,5.7 -5.4,10.9 -8,16.4 z"
   inkscape:connector-curvature="0" />
	<path
   id="path33"
   d="m 540.8,277.7 c -4.1,0 -7.8,0 -11.6,0 0.6,-16.5 1.1,-32.9 1.7,-49.5 11.2,0 22.4,0 33.7,0 0,2.5 0,5 0,7.7 -7.5,0 -15.1,0 -22.7,0 0,4.4 0,8.6 0,13 1.6,0.3 3.2,0.1 4.8,0.1 1.7,0 3.4,0 5.1,0 1.6,0 3.3,0 4.9,0 1.6,0 3.2,0 4.9,0 0,2.6 0,5.1 0,7.8 -7,-0.1 -13.8,-0.3 -20.8,0.1 0,7 0,13.8 0,20.8 z"
   inkscape:connector-curvature="0" />
	<path
   id="path35"
   d="m 440,384.6 c -1.4,3.8 -2.8,7.6 -4.1,11.4 -1.4,3.8 -2.7,7.5 -4.1,11.4 -2,0 -4,0 -6.2,0 -2.2,-7.3 -3.9,-14.9 -6.6,-22.1 -0.1,0 -0.3,0 -0.4,0 -0.6,7.3 -1.1,14.6 -1.7,22 -1.8,0 -3.5,0 -5.3,0 0.9,-10 1.7,-19.9 2.6,-29.8 1.3,-0.4 6.4,-0.5 8.7,-0.1 2.1,7 4.2,14.1 6.4,21.5 2.8,-7.4 5.5,-14.4 8.2,-21.6 3.2,0 6.3,0 9.3,0 0,10 0,19.9 0,29.9 -2.1,0 -4,0 -6.2,0 0,-3.8 0,-7.6 0,-11.4 0,-3.7 0,-7.4 0,-11.2 -0.3,0.1 -0.4,0 -0.6,0 z"
   inkscape:connector-curvature="0" />
	<path
   id="path37"
   d="m 127.9,446.3 c -2.5,0 -4.6,0 -6.7,0 -2.6,-5.4 -5.2,-10.7 -7.9,-16.2 0.8,0 1.4,0 1.9,0 1.6,0.1 3.1,-0.1 4.6,-0.8 1.3,-0.5 2.2,-1.4 2.7,-2.7 1,-2.3 0.1,-4.3 -2.2,-5.1 -0.5,-0.2 -1.1,-0.3 -1.6,-0.4 -0.9,-0.1 -1.8,-0.1 -2.6,-0.1 -1.4,0 -2.9,0 -4.5,0 0,8.5 0,16.8 0,25.3 -2.5,0.3 -4.7,0.1 -7.2,0.1 0.4,-10 0.7,-19.9 1.1,-30 0.5,-0.1 0.9,-0.2 1.4,-0.2 4.3,0 8.6,0 13,0 1,0 2,0.1 3,0.3 3.6,0.7 6,3 6.3,6.1 0.4,3.8 -1.3,7.2 -4.6,8.7 -1.2,0.6 -2.4,0.9 -3.9,1.5 2,4.7 4.9,8.8 7.2,13.5 z"
   inkscape:connector-curvature="0" />
	<path
   id="path39"
   d="m 69.3,407.4 c -0.8,-2.3 -1.6,-4.5 -2.4,-6.7 -0.2,-0.6 -0.4,-1.3 -0.7,-2 -0.6,-1.6 -0.8,-1.8 -2.4,-1.8 -2.8,0 -5.6,0 -8.5,0 -1.2,0 -1.9,0.5 -2.3,1.5 -1.1,2.4 -2.3,4.9 -3.4,7.3 -0.6,1.3 -1.3,1.8 -2.7,1.8 -1.7,-0.1 -3.4,0 -5.3,0 0.1,-0.5 0.2,-1 0.4,-1.3 4.8,-9.2 9.6,-18.4 14.4,-27.6 0.6,-1.1 1.3,-1.5 2.5,-1.5 2.1,0.1 4.1,0 6.3,0 3.7,10.1 7.3,20.1 11,30.3 -2.4,0 -4.5,0 -6.9,0 z m -8.4,-24.9 c -0.1,0 -0.3,0 -0.4,0 -1.6,3.1 -3.1,6.2 -4.8,9.5 3,0 5.7,0 8.6,0 -1.2,-3.2 -2.3,-6.3 -3.4,-9.5 z"
   inkscape:connector-curvature="0" />
	<path
   id="path41"
   d="m 338.5,384.6 c 0.1,-1.3 0.2,-2.4 0.3,-3.6 0,-1.1 0,-2.2 0,-3.5 2.2,0 4.2,0 6.2,0 -0.5,9.9 -1,19.8 -1.5,29.8 -1.8,0 -3.6,0 -5.6,0 0,-1.1 0,-2 0,-3.4 -0.7,0.6 -1.1,0.9 -1.4,1.3 -2.8,2.7 -6.1,3.4 -9.7,2.3 -3.6,-1.1 -5.7,-3.8 -6.4,-7.4 -0.7,-3.9 0.2,-7.5 2.4,-10.7 1.8,-2.7 4.5,-4.2 7.6,-4.6 2.1,-0.3 4.2,-0.1 6.3,-0.2 0.5,-0.1 1.1,-0.1 1.8,0 z m -0.1,4.1 c -1.4,0 -2.6,0 -3.8,0 -5.6,0.1 -9.4,5.2 -8,10.6 0.6,2.2 2,3.6 4.2,4 2.3,0.4 4.2,-0.3 5.5,-2.3 0.5,-0.8 0.9,-1.8 1.2,-2.7 1,-3 0.8,-6.2 0.9,-9.6 z"
   inkscape:connector-curvature="0" />
	<path
   id="path43"
   d="m 301.1,446.3 c -1.9,0 -3.7,0 -5.6,0 -0.1,-1.1 -0.1,-2 -0.2,-3.3 -0.7,0.6 -1.2,1.1 -1.7,1.5 -3,2.6 -6.4,3.1 -10,1.7 -3.7,-1.4 -5.5,-4.4 -5.9,-8.2 -0.2,-2 0.1,-3.9 0.7,-5.7 1.7,-5.4 5.9,-8.7 11.5,-8.9 2,-0.1 4,0.1 6.2,0.2 0.2,-2.3 0.3,-4.7 0.5,-7.1 2,0 3.9,0 5.9,0 -0.4,9.9 -0.9,19.8 -1.4,29.8 z m -5,-18.1 c -0.4,-0.2 -0.5,-0.2 -0.6,-0.3 -1.1,0 -2.1,-0.1 -3.2,-0.1 -5.7,0 -9.5,4.8 -8.2,10.4 0.5,2.3 2.3,4 4.4,4.3 2.3,0.3 4.6,-0.7 5.7,-2.8 0.6,-1.1 1,-2.3 1.2,-3.5 0.4,-2.7 0.5,-5.3 0.7,-8 z"
   inkscape:connector-curvature="0" />
	<path
   id="path45"
   d="m 367.9,429 c 0,1.7 0,3.1 0,4.7 -4.2,0 -8.3,0 -12.7,0 -0.1,2.2 -0.1,4.3 -0.1,6.3 0,2.1 0,4.1 0,6.3 -2.4,0.3 -4.6,0.1 -7.1,0.1 0.3,-10.1 0.6,-20 0.8,-30.1 7.1,0 14.1,0 21.2,0 0.4,1.6 0.1,3.1 -0.3,4.8 -4.6,0 -9.3,0 -14,0 0,2.6 0,5.1 0,7.9 1.9,0.1 3.9,0 5.9,0 2.1,0 4.1,0 6.3,0 z"
   inkscape:connector-curvature="0" />
	<path
   id="path47"
   d="m 278.9,384.9 c 2,0 3.9,0 6,0 0,1 0.1,1.9 0.1,3.1 0.5,-0.4 0.9,-0.6 1.2,-0.9 3.7,-3.4 9.1,-3.3 12.9,-1.6 2.2,1 3.2,2.9 3.2,5.3 0,2.6 -0.1,5.1 -0.2,7.7 -0.1,2.4 -0.2,4.9 -0.4,7.3 0,0.5 -0.1,1 -0.2,1.5 -2,0 -3.9,0 -5.9,0 0,-1.4 0,-2.6 0,-3.9 0.1,-2.8 0.3,-5.6 0.4,-8.4 0,-0.4 0,-0.8 0,-1.1 -0.3,-3.9 -3.9,-5.9 -7.5,-4.1 -2.2,1.2 -3.4,3.1 -3.6,5.6 -0.3,3.1 -0.5,6.2 -0.8,9.4 -0.1,0.9 -0.2,1.7 -0.3,2.7 -2,0 -3.9,0 -6,0 0.4,-7.7 0.8,-15.1 1.1,-22.6 z"
   inkscape:connector-curvature="0" />
	<path
   id="path49"
   d="m 444.6,446.3 c -2.1,0 -4,0 -6.2,0 0.1,-3 0.3,-5.8 0.4,-8.7 0.1,-1.5 0.2,-3 0.1,-4.5 -0.1,-3.8 -3.1,-5.9 -6.7,-4.6 -2.3,0.8 -3.7,2.5 -4.1,4.7 -0.4,2 -0.5,4.1 -0.7,6.1 -0.2,2.2 -0.3,4.4 -0.5,6.5 0,0.1 -0.1,0.2 -0.2,0.5 -1.9,0 -3.9,0 -5.9,0 0.4,-7.5 0.7,-14.9 1.1,-22.5 2,0 4,0 6,0 0.1,1 0.1,1.9 0.2,3 0.4,-0.3 0.6,-0.4 0.8,-0.6 2.6,-2.5 5.7,-3.2 9.2,-2.9 0.7,0.1 1.4,0.2 2,0.3 3.4,0.7 5.2,2.9 5.2,6.4 -0.1,3.9 -0.3,7.9 -0.5,11.8 0.1,1.6 -0.1,3 -0.2,4.5 z"
   inkscape:connector-curvature="0" />
	<path
   id="path51"
   d="m 151.6,423.8 c 2.1,0 3.9,0 5.8,0 0.4,1.1 -0.2,20.1 -0.6,22.5 -1.9,0 -3.9,0 -5.9,0 -0.1,-0.9 -0.1,-1.7 -0.2,-2.7 -0.5,0.4 -0.9,0.6 -1.2,0.9 -3.7,3.3 -9.1,2.7 -12.2,1.2 -2.2,-1.1 -3,-3.2 -2.9,-5.5 0.2,-5.1 0.5,-10.1 0.7,-15.2 0,-0.4 0.2,-0.7 0.3,-1.1 2,0 3.9,0 5.9,0 0,1.3 0,2.6 0,3.8 -0.1,2.9 -0.3,5.8 -0.4,8.6 0,0.4 0,0.8 0,1.1 0.2,2.7 1,3.9 3.2,4.4 2.2,0.6 4.6,-0.4 5.8,-2.4 0.9,-1.5 1.2,-3.1 1.3,-4.9 0.1,-2.9 0.3,-5.9 0.4,-8.8 -0.2,-0.4 -0.1,-1 0,-1.9 z"
   inkscape:connector-curvature="0" />
	<path
   id="path53"
   d="m 232.4,446.4 c -2.1,0 -4,0 -6.1,0 -0.1,-0.9 -0.2,-1.7 -0.3,-2.8 -0.5,0.4 -0.9,0.7 -1.3,1 -3.6,3.3 -9.2,2.6 -12.2,1.1 -2.1,-1.1 -3,-3 -2.9,-5.3 0.1,-3.8 0.3,-7.6 0.5,-11.5 0.1,-1.7 0.2,-3.3 0.3,-5.1 2.1,0 4,0 6,0 0,0.4 0.1,0.8 0.1,1.2 -0.2,3.4 -0.4,6.8 -0.5,10.1 0,1.4 0.1,2.7 0.3,4.1 0.2,1.1 1,1.9 2,2.3 2.6,1.2 5.6,0.2 6.9,-2.4 0.9,-1.6 1.2,-3.3 1.2,-5.1 0,-2.8 0,-5.5 0,-8.3 0,-0.6 0,-1.2 0,-2 2.3,0 4.3,0 6.6,0 -0.1,7.7 -0.3,15.1 -0.6,22.7 z"
   inkscape:connector-curvature="0" />
	<path
   id="path55"
   d="m 147.6,395.6 c -0.1,8.5 -6.5,12.9 -14.4,12.2 -0.9,-0.1 -1.9,-0.3 -2.8,-0.6 -5.4,-1.5 -8.3,-6.1 -7.9,-11.7 0.6,-8.3 7.4,-11.7 14.2,-11.2 0.9,0.1 1.7,0.2 2.6,0.4 5.3,1.4 8.3,5.4 8.3,10.9 z m -6.2,0.2 c -0.1,0 -0.1,0 -0.2,0 0,-0.5 0,-1 0,-1.5 -0.3,-3 -2,-5 -4.6,-5.5 -3,-0.6 -5.6,0.7 -6.9,3.4 -1.2,2.4 -1.4,4.9 -0.5,7.5 0.7,2.1 2.2,3.4 4.3,3.7 3.4,0.6 6.1,-1 7.2,-4.3 0.4,-1.1 0.5,-2.2 0.7,-3.3 z"
   inkscape:connector-curvature="0" />
	<path
   id="path57"
   d="m 247.6,397.5 c 0,-7.3 3.9,-11.9 10.1,-12.9 2.4,-0.4 4.7,-0.3 7.1,0.3 5.2,1.4 8.2,5.7 7.9,11.5 -0.6,9.1 -7.8,12.1 -14.4,11.4 -1.5,-0.2 -3.1,-0.6 -4.5,-1.2 -4.3,-2 -6.1,-5.6 -6.2,-9.1 z m 6.4,-1 c 0,0.3 0,0.6 0,0.9 0.2,3.3 2.1,5.6 4.9,6 3.3,0.4 5.9,-1.2 7,-4.3 0.6,-1.9 0.8,-3.8 0.3,-5.7 -0.6,-2.6 -2.2,-4.2 -4.6,-4.6 -2.9,-0.4 -5.2,0.7 -6.5,3 -0.8,1.5 -1.2,3 -1.1,4.7 z"
   inkscape:connector-curvature="0" />
	<path
   id="path59"
   d="m 209.8,407.3 c -2,0 -3.9,0 -6,0 0.2,-3.8 0.5,-7.6 0.7,-11.5 -2.7,1 -5.1,1.7 -7.4,2.7 -2.1,0.9 -2.9,2.3 -2.4,3.9 0.4,1.5 1.8,2.2 4,2.1 0.8,0 1.6,-0.2 2.4,-0.3 0.3,2.4 -0.3,3.5 -2.6,3.6 -1.8,0.1 -3.6,0 -5.4,-0.3 -2.6,-0.5 -4.1,-2.2 -4.7,-4.8 -0.5,-2.5 0.4,-4.4 2.3,-5.9 1.6,-1.2 3.4,-1.9 5.3,-2.4 1.9,-0.5 3.8,-1 5.6,-1.5 0.5,-0.1 1,-0.3 1.4,-0.5 0.9,-0.5 1.4,-1.2 1.4,-2.3 -0.1,-1.1 -0.7,-1.7 -1.6,-2.1 -1.6,-0.6 -3.3,-0.6 -5,-0.3 -1.7,0.3 -3.3,0.7 -4.9,1.1 -0.3,0.1 -0.7,0.1 -1.3,0.3 0.2,-1.3 0.4,-2.4 0.6,-3.7 4.4,-1 8.8,-1.7 13.3,-0.9 0.6,0.1 1.2,0.3 1.8,0.5 2.2,0.7 3.4,2.2 3.6,4.6 0.1,0.7 0,1.5 0,2.3 -0.2,4.8 -0.5,9.6 -0.7,14.4 -0.3,0.3 -0.3,0.5 -0.4,1 z"
   inkscape:connector-curvature="0" />
	<path
   id="path61"
   d="m 405.4,443.2 c -0.2,0.9 -0.3,1.5 -0.5,2.1 -0.2,0.9 -0.8,1.4 -1.7,1.5 -2.4,0.3 -4.8,0.3 -7.1,-0.5 -3.8,-1.4 -5.1,-6.2 -2.6,-9.3 1,-1.3 2.4,-2.2 4,-2.7 2.2,-0.7 4.5,-1.2 6.7,-1.9 0.9,-0.3 1.8,-0.5 2.7,-0.9 1,-0.4 1.5,-1.3 1.4,-2.4 -0.1,-1.1 -0.7,-2 -1.8,-2.1 -1.7,-0.2 -3.5,-0.2 -5.2,-0.1 -1.4,0.1 -2.8,0.6 -4.2,1 -0.5,0.1 -0.9,0.2 -1.8,0.4 0.3,-1.2 0.4,-2.2 0.9,-3.1 0.3,-0.5 1,-1 1.6,-1.1 3.8,-0.6 7.7,-1.2 11.6,-0.4 0.5,0.1 1,0.2 1.5,0.4 2.6,0.9 3.8,2.4 3.9,5.1 0,1.3 0,2.5 -0.1,3.8 -0.2,4.1 -0.4,8.1 -0.7,12.2 0,0.4 -0.1,0.7 -0.1,1.2 -1.9,0 -3.9,0 -6,0 0.2,-3.8 0.4,-7.5 0.7,-11.5 -2.6,0.9 -5,1.8 -7.4,2.7 -0.3,0.1 -0.6,0.3 -0.8,0.5 -1.3,0.9 -1.9,2.1 -1.6,3.3 0.3,1.3 1.4,2.1 3.1,2.3 0.6,0 1.1,0 1.7,-0.1 0.3,-0.1 0.8,-0.2 1.8,-0.4 z"
   inkscape:connector-curvature="0" />
	<path
   id="path63"
   d="m 473.1,407.3 c -2,0 -3.9,0 -6,0 0.2,-3.8 0.5,-7.5 0.7,-11.5 -2.8,1 -5.3,1.9 -7.9,2.9 -0.5,0.2 -1,0.7 -1.4,1.2 -1.2,1.5 -0.7,3.7 1.1,4.3 1.1,0.3 2.3,0.2 3.5,0.2 0.4,0 0.8,-0.1 1.2,-0.2 0.3,2.5 -0.3,3.4 -2.5,3.5 -1.9,0.1 -3.9,0 -5.8,-0.3 -2.4,-0.5 -3.9,-2.2 -4.4,-4.6 -0.5,-2.4 0.1,-4.4 2.1,-5.8 1.3,-0.9 2.8,-1.7 4.3,-2.2 1.9,-0.7 3.9,-1 5.8,-1.5 0.8,-0.2 1.6,-0.4 2.3,-0.8 1,-0.5 1.5,-1.3 1.4,-2.4 -0.1,-1.1 -0.7,-2 -1.8,-2.1 -1.6,-0.2 -3.2,-0.3 -4.8,-0.2 -1.5,0.1 -3.1,0.7 -4.6,1 -0.5,0.1 -0.9,0.2 -1.7,0.4 0.2,-1.4 0.4,-2.5 0.6,-3.7 4.5,-0.9 8.9,-1.7 13.4,-0.8 0.7,0.1 1.5,0.4 2.1,0.7 1.6,0.6 2.6,1.8 2.9,3.5 0.1,0.9 0.3,1.9 0.2,2.8 -0.2,4.8 -0.5,9.6 -0.7,14.5 0.1,0.2 0,0.6 0,1.1 z"
   inkscape:connector-curvature="0" />
	<path
   id="path65"
   d="m 202.3,446.3 c -2,0 -3.9,0 -5.9,0 0.2,-3.8 0.5,-7.5 0.7,-11.4 -2.7,1 -5.2,1.7 -7.5,2.7 -1.9,0.8 -2.7,2.4 -2.3,3.8 0.4,1.4 2,2.3 3.9,2.2 0.9,-0.1 1.7,-0.2 2.6,-0.4 0,2.8 -0.7,3.6 -3.3,3.7 -1.5,0 -3,-0.1 -4.5,-0.3 -2.7,-0.4 -4.3,-2.1 -4.9,-4.8 -0.6,-2.6 0.3,-4.7 2.4,-6 1.5,-1 3.2,-1.7 4.9,-2.3 1.6,-0.6 3.4,-0.8 5.1,-1.3 0.7,-0.2 1.4,-0.4 2.1,-0.8 1,-0.5 1.5,-1.3 1.4,-2.4 -0.1,-1.1 -0.8,-2 -1.9,-2.1 -1.7,-0.2 -3.5,-0.3 -5.2,-0.1 -1.8,0.2 -3.7,0.8 -5.5,1.2 -0.6,-2.3 0.2,-3.8 2.4,-4.1 3.7,-0.6 7.4,-1.1 11.2,-0.4 0.6,0.1 1.2,0.3 1.8,0.5 2.2,0.8 3.3,2.3 3.5,4.6 0.1,0.7 0,1.5 0,2.3 -0.2,4.7 -0.5,9.4 -0.7,14.1 -0.2,0.5 -0.3,0.9 -0.3,1.3 z"
   inkscape:connector-curvature="0" />
	<path
   id="path67"
   d="m 238.8,423.7 c 2.4,0 4.4,0 6.4,0 0.8,0 1.3,0.4 1.7,1 0.7,1.2 1.5,2.3 2.3,3.5 0.3,0.4 0.6,0.8 1,1.3 1.1,-1.3 2.2,-2.4 3.1,-3.7 1.1,-1.6 2.4,-2.2 4.3,-2 1.1,0.1 2.2,0 3.8,0 -2.6,3.8 -5.5,7 -8.1,10.7 2.5,4 5.1,7.9 7.8,12.2 -2.5,0 -4.7,0.1 -6.8,-0.1 -0.5,0 -1,-0.7 -1.3,-1.2 -1,-1.5 -1.9,-3.1 -2.9,-4.6 -0.2,-0.4 -0.5,-0.7 -0.9,-1.2 -1.5,1.9 -2.9,3.6 -4.3,5.4 -0.9,1.2 -1.9,1.7 -3.3,1.6 -1.5,-0.1 -3,0 -4.8,0 0.4,-0.7 0.6,-1 0.8,-1.3 2.3,-2.9 4.7,-5.9 7,-8.8 1.3,-1.7 1.3,-2 0.1,-3.8 -1.6,-2.3 -3.1,-4.7 -4.7,-7 -0.4,-0.6 -0.7,-1.1 -1.2,-2 z"
   inkscape:connector-curvature="0" />
	<path
   id="path69"
   d="m 329.6,435 c -5.1,0 -10.3,0 -15.5,0 -1.1,3.8 0.8,7.1 4.5,8 2.1,0.5 4.2,0.2 6.3,-0.3 1,-0.2 2,-0.5 3.3,-0.8 -0.3,1.6 -0.5,2.9 -0.7,4.2 -3.9,0.9 -7.7,1.2 -11.5,0.5 -5.5,-0.9 -9.1,-5.6 -8.7,-11.2 0.1,-1.2 0.3,-2.4 0.6,-3.5 2.6,-8.4 11.2,-10.8 18,-7.1 3.5,1.9 5.1,6.5 3.7,10.2 z M 314,432.2 c 2.8,0.4 9,0.2 10.1,-0.2 0,-2.3 -0.5,-3.6 -2,-4.3 -3.1,-1.7 -8.1,-0.1 -8.1,4.5 z"
   inkscape:connector-curvature="0" />
	<path
   id="path71"
   d="m 372.1,395.9 c -2.7,0 -5.2,0 -7.8,0 -2.6,0 -5.1,0 -7.7,0 -1.2,3.2 0.5,6.8 3.8,7.9 1.8,0.6 3.6,0.5 5.4,0.2 1.5,-0.3 3,-0.7 4.7,-1 0.2,1.2 -0.1,2.2 -0.4,3.2 -0.3,0.8 -1,1.1 -1.7,1.3 -3.7,0.7 -7.3,0.9 -11,-0.1 -4.9,-1.3 -7.8,-5.8 -7.5,-11.2 0.1,-1.1 0.3,-2.2 0.6,-3.3 2.4,-8 11,-11 18,-7 3.2,1.7 4.8,6.1 3.6,10 z m -15.7,-2.8 c 3.4,0 6.8,0 10.1,0 0.1,-3.2 -1.3,-4.9 -3.8,-5.1 -3.5,-0.3 -5.8,1.6 -6.3,5.1 z"
   inkscape:connector-curvature="0" />
	<path
   id="path73"
   d="m 494.8,441.9 c 0,0.7 0,1.1 -0.1,1.6 -0.1,0.9 -0.3,1.7 -0.5,2.6 -4.2,1 -8.3,1.3 -12.5,0.2 -4.4,-1.2 -7.3,-4.6 -7.6,-9.2 -0.1,-2 0.1,-3.9 0.7,-5.7 2.6,-7.7 10.9,-10.5 18,-6.6 2.7,1.5 4.9,5.5 3.7,10 -5.2,0 -10.4,0 -15.5,0 -1.3,3 0.4,7 4.1,8 2.3,0.6 4.5,0.3 6.7,-0.2 0.8,-0.1 1.8,-0.4 3,-0.7 z m -4,-9.6 c 0.1,-3.4 -1.3,-5.1 -4.2,-5.2 -3.4,-0.2 -5.7,1.8 -6,5.2 3.4,0 6.8,0 10.2,0 z"
   inkscape:connector-curvature="0" />
	<path
   id="path75"
   d="m 533.9,395.9 c -5.1,0 -10.4,0 -15.5,0 -1,4.6 1.5,8 5.9,8.2 1.8,0.1 3.6,-0.3 5.4,-0.6 0.9,-0.1 1.7,-0.4 2.5,-0.6 0.4,3 -0.5,4.3 -3.4,4.7 -2.8,0.4 -5.6,0.4 -8.4,-0.1 -4.9,-0.7 -8.4,-4.4 -8.7,-9.4 -0.1,-1.2 -0.1,-2.5 0.2,-3.7 1.5,-8.5 9.7,-12.7 17.6,-9.1 4,1.8 5.8,7.3 4.4,10.6 z m -15.7,-2.6 c 1.8,0 3.5,0 5.2,0 1.7,0 3.3,0 5,0 0.1,-3.4 -1.2,-5 -3.8,-5.3 -3.5,-0.4 -5.9,1.5 -6.4,5.3 z"
   inkscape:connector-curvature="0" />
	<path
   id="path77"
   d="m 225,389 c 0,4.3 -0.1,8.3 0,12.3 0,1.5 0.8,2.1 2.3,2.1 0.9,0 1.9,-0.2 2.9,-0.3 0.3,1.3 -0.1,2.5 -0.7,3.6 -0.3,0.5 -0.9,0.9 -1.5,1 -2.2,0.5 -4.4,0.5 -6.5,-0.2 -2.2,-0.6 -3.3,-2.2 -3.2,-4.7 0.1,-3.2 0.4,-6.4 0.5,-9.6 0.1,-1.2 0.1,-2.5 0.2,-3.9 -1.1,-0.1 -2.1,-0.2 -3.1,-0.3 -0.5,-1.4 -0.2,-2.8 0.1,-4.3 1,0 2.1,0 3.2,0 0.2,-1.6 0.4,-3 0.6,-4.5 1.7,-0.3 3.3,-0.7 5.2,-1 0,1.9 0,3.5 0,5.4 1.9,0 3.6,0 5.5,0 0,1.6 0,3 0,4.5 -1.6,-0.1 -3.4,-0.1 -5.5,-0.1 z"
   inkscape:connector-curvature="0" />
	<path
   id="path79"
   d="m 170.2,402.6 c 0.1,0.3 0.2,0.4 0.2,0.5 -0.8,4 0.4,3.7 -4.5,4.6 -2.8,0.5 -5.5,0.2 -8.1,-0.8 -2.3,-0.9 -4,-2.5 -4.9,-4.9 -1.7,-4.4 -1.4,-8.7 0.9,-12.8 1.4,-2.4 3.6,-3.8 6.2,-4.5 3.1,-0.7 6.2,-0.5 9.3,0.2 1.3,0.3 1.6,0.6 1.7,2.1 0.1,0.8 0.1,1.6 0.2,2.6 -1.3,-0.3 -2.4,-0.5 -3.6,-0.7 -1,-0.1 -2,-0.3 -3,-0.2 -3.1,0.2 -5.5,2.1 -6.2,5.1 -0.3,1.4 -0.4,2.9 -0.2,4.3 0.5,3.3 2.6,5.1 5.9,5.2 1.5,0 3,-0.3 4.5,-0.5 0.6,0 1.1,-0.1 1.6,-0.2 z"
   inkscape:connector-curvature="0" />
	<path
   id="path81"
   d="m 469.5,424.7 c 0.1,1.2 0.2,2.5 0.3,4 -0.9,-0.2 -1.5,-0.3 -2.1,-0.5 -2,-0.5 -4.1,-0.7 -6.1,-0.1 -2,0.5 -3.3,1.7 -4,3.6 -0.7,1.6 -0.9,3.2 -0.8,5 0.3,3.3 2.7,5.7 6,5.8 1.5,0 3,-0.3 4.5,-0.5 0.5,-0.1 1.1,-0.2 1.8,-0.3 -0.1,0.7 -0.1,1.3 -0.2,1.8 -0.4,2.2 -1,2.9 -3.3,3.1 -2,0.3 -4.1,0.5 -6.2,0.1 -4.9,-0.8 -8.1,-3.8 -8.8,-8.7 -0.5,-3.5 0.1,-6.9 1.9,-9.9 0.8,-1.4 2,-2.5 3.5,-3.3 3.4,-1.9 9.8,-2 13.5,-0.1 z"
   inkscape:connector-curvature="0" />
	<path
   id="path83"
   d="m 376.4,406.9 c -0.1,-1.7 -0.2,-3.1 -0.3,-4.7 1,0.2 1.8,0.5 2.7,0.6 1.5,0.2 3,0.5 4.4,0.6 0.7,0 1.5,-0.2 2.1,-0.5 1.3,-0.7 1.5,-2.1 0.6,-3.2 -0.5,-0.6 -1.1,-1 -1.7,-1.5 -1.6,-1.3 -3.3,-2.5 -4.8,-3.9 -1.5,-1.4 -2.3,-3.1 -1.7,-5.3 0.6,-2.3 2.1,-3.6 4.3,-4.2 3.6,-1 7.2,-0.5 10.8,0.7 0.1,1.3 0.3,2.6 0.4,4.1 -1.1,-0.2 -2,-0.6 -2.9,-0.6 -1.5,-0.1 -3,-0.1 -4.5,0 -0.9,0.1 -1.6,0.6 -1.9,1.6 -0.3,0.9 0.3,1.6 0.9,2.1 1.2,0.9 2.4,1.8 3.6,2.8 1,0.8 2.1,1.6 2.9,2.6 2.6,3 1.9,6.7 -1.6,8.5 -2.3,1.2 -4.8,1.6 -7.3,1.3 -1.9,-0.3 -3.9,-0.7 -6,-1 z"
   inkscape:connector-curvature="0" />
	<path
   id="path85"
   d="m 96.5,389.6 c -1.2,-0.3 -2.1,-0.6 -3.1,-0.6 -1.5,-0.1 -3.1,-0.1 -4.6,0.2 -1.7,0.4 -2.1,2 -0.8,3.3 0.8,0.8 1.8,1.4 2.6,2.1 1.3,1.1 2.7,2 3.9,3.2 2.9,3.1 2,7.4 -1.9,9.1 -3.2,1.4 -6.5,1.3 -9.8,0.6 -3.4,-0.7 -3.1,-0.2 -3.3,-3.8 0,-0.4 0,-0.9 0,-1.5 0.8,0.2 1.4,0.4 2,0.5 1.6,0.3 3.2,0.5 4.8,0.7 0.6,0.1 1.3,-0.1 1.8,-0.3 1.8,-0.6 2.2,-2.4 0.8,-3.6 -1,-0.9 -2.2,-1.7 -3.2,-2.6 -1,-0.8 -2,-1.5 -2.9,-2.4 -3.6,-3.6 -2.2,-8.4 2.6,-9.7 3.3,-0.9 6.5,-0.4 9.6,0.4 0.6,0.1 1,0.5 1,1.2 0.3,0.9 0.4,2 0.5,3.2 z"
   inkscape:connector-curvature="0" />
	<path
   id="path87"
   d="m 555,389.6 c -1.1,-0.3 -2,-0.6 -2.9,-0.6 -1.4,-0.1 -2.9,-0.1 -4.3,0 -0.9,0.1 -1.7,0.5 -1.9,1.5 -0.2,1 0.2,1.7 1,2.3 1.5,1.1 3,2.2 4.5,3.4 0.8,0.6 1.6,1.3 2.1,2.1 2.3,3 1.4,6.7 -2,8.4 -2.2,1.1 -4.7,1.5 -7.1,1.2 -1.9,-0.2 -3.8,-0.6 -5.9,-1 -0.2,-1.6 -0.3,-3 -0.5,-4.7 0.9,0.2 1.5,0.4 2.2,0.5 1.7,0.3 3.3,0.5 5,0.7 0.6,0.1 1.3,-0.1 1.8,-0.3 1.7,-0.7 1.9,-2.3 0.6,-3.6 -0.4,-0.4 -1,-0.8 -1.4,-1.2 -1.5,-1.2 -3,-2.4 -4.5,-3.7 -1.7,-1.4 -2.5,-3.3 -2,-5.5 0.5,-2.3 2.1,-3.6 4.3,-4.2 3.3,-1 6.6,-0.5 9.8,0.4 0.4,0.1 1,0.7 1,1.1 0.2,0.9 0.1,2 0.2,3.2 z"
   inkscape:connector-curvature="0" />
	<path
   id="path89"
   d="m 117.9,389.6 c -1.2,-0.3 -2.1,-0.6 -3.1,-0.6 -1.4,-0.1 -2.9,-0.1 -4.3,0 -0.9,0.1 -1.6,0.6 -1.9,1.6 -0.2,0.9 0.3,1.6 0.9,2.1 1.3,1 2.6,1.9 3.9,3 0.9,0.7 1.9,1.5 2.6,2.4 2.5,3 1.8,6.7 -1.7,8.5 -2,1.1 -4.3,1.5 -6.5,1.3 -2.2,-0.2 -4.5,-0.4 -6.7,-1.2 -0.1,-1.4 -0.2,-2.8 -0.3,-4.5 1.6,0.4 3,0.8 4.4,1 1.3,0.2 2.8,0.2 4.1,-0.1 2.2,-0.5 2.6,-2.5 0.9,-3.9 -1.4,-1.2 -3,-2.3 -4.4,-3.5 -0.9,-0.7 -1.7,-1.5 -2.4,-2.4 -2.1,-3 -1.2,-6.7 2.3,-8.1 1.7,-0.7 3.6,-0.9 5.5,-0.9 1.7,0 3.5,0.5 5.2,0.8 0.7,0.1 1.2,0.5 1.3,1.4 0,1 0.1,1.9 0.2,3.1 z"
   inkscape:connector-curvature="0" />
	<path
   id="path91"
   d="m 500.3,407.3 c -2.3,0 -4.4,0 -6.7,0 0.1,-7.5 0.3,-14.9 0.4,-22.4 2,0 4,0 6,0 0.1,0.9 0.2,1.7 0.3,2.7 0.6,-0.6 1,-1 1.5,-1.4 1.2,-1.1 2.6,-1.7 4.2,-1.9 1.3,-0.1 1.7,0.2 2,1.5 0.2,1.2 0.2,2.3 0.4,3.7 -0.6,0 -1,0 -1.4,-0.1 -3.9,-0.4 -6.4,1.7 -6.7,5.6 -0.2,2.7 -0.1,5.4 -0.1,8.1 0.1,1.3 0.1,2.7 0.1,4.2 z"
   inkscape:connector-curvature="0" />
	<path
   id="path93"
   d="m 163.9,423.9 c 2.1,0 4.1,0 6.1,0 0.1,0.8 0.1,1.5 0.2,2.5 2.3,-1.6 4.3,-4.1 7.7,-2.5 0.1,1.5 0.2,3 0.4,4.6 -0.5,-0.1 -0.8,-0.2 -1.1,-0.2 -3.3,-0.5 -5.8,1 -6.7,4.3 -0.3,1 -0.4,2.1 -0.4,3.1 -0.1,2.9 0,5.8 0,8.6 0,0.6 0,1.2 0,2 -2.3,0 -4.4,0 -6.6,0 0.2,-7.4 0.3,-14.8 0.4,-22.4 z"
   inkscape:connector-curvature="0" />
	<path
   id="path95"
   d="m 375.4,423.9 c 2.1,0 4,0 6.1,0 0.1,0.8 0.1,1.6 0.2,2.8 0.6,-0.6 1.1,-1 1.5,-1.4 1.7,-1.5 3.7,-2.3 6.2,-1.5 0.1,1.6 0.3,3.2 0.4,4.9 -0.8,-0.1 -1.3,-0.2 -1.9,-0.2 -2.8,-0.2 -5.1,1.2 -5.9,4 -0.3,1 -0.4,2 -0.4,3 -0.1,3 -0.1,6 -0.1,9 0,0.6 0,1.2 0,2 -2.2,0.2 -4.3,0.2 -6.5,0.1 0.1,-7.8 0.2,-15.2 0.4,-22.7 z"
   inkscape:connector-curvature="0" />
	<path
   id="path97"
   d="m 487.3,384.7 c -0.4,7.7 -0.7,15 -1,22.5 -1.9,0 -3.9,0 -6,0 0.2,-7.5 0.5,-14.9 0.7,-22.5 2.1,-0.1 4.2,0 6.3,0 z"
   inkscape:connector-curvature="0" />
	<path
   id="path99"
   d="m 182.4,407.4 c -2,0 -3.9,0 -6,0 0.2,-7.5 0.5,-14.9 0.7,-22.5 2.1,0 4.2,0 6.4,0 -0.4,7.4 -0.8,14.8 -1.1,22.5 z"
   inkscape:connector-curvature="0" />
	<path
   id="path101"
   d="m 235,407.3 c 0.2,-7.5 0.5,-14.8 0.7,-22.3 2.2,0 4.3,0 6.3,0 -0.4,7.5 -0.7,14.8 -1.1,22.3 -1.8,0 -3.8,0 -5.9,0 z"
   inkscape:connector-curvature="0" />
	<path
   id="path103"
   d="m 235.8,376.6 c 2,0 4,0 6.1,0 0,1.3 0,2.4 0,3.7 -2.1,0 -4,0 -6.1,0 0,-1.3 0,-2.4 0,-3.7 z"
   inkscape:connector-curvature="0" />
	<path
   id="path105"
   d="m 177.2,376.6 c 2,0 3.9,0 6,0 0,1.2 0,2.3 0,3.6 -2,0 -3.9,0 -6,0 0,-1.2 0,-2.3 0,-3.6 z"
   inkscape:connector-curvature="0" />
	<path
   id="path107"
   d="m 481.1,376.5 c 1.6,0 3.1,0 4.6,0 0.4,0 0.8,0.1 1.4,0.1 0,1.2 0,2.3 0,3.6 -1.9,0.2 -3.9,0 -6,0.1 0,-1.2 0,-2.3 0,-3.8 z"
   inkscape:connector-curvature="0" />
</g></g>
<g
   id="Fond_contour"
   class="st4"
   style="display:none"
   transform="translate(0,-676.90002)">
	<g
   class="st7"
   id="g132"
   style="display:inline">
		<path
   class="st3"
   d="m 11.1,186 c 0,97.9 0,195.8 0,293.8 192.6,0 385.2,0 577.7,0 0,-97.9 0,-195.8 0,-293.8 -192.6,0 -385.2,0 -577.7,0 z m 519.8,42.2 c 11.2,0 22.4,0 33.7,0 0,2.5 0,5 0,7.7 -7.5,0 -15.1,0 -22.7,0 0,4.4 0,8.6 0,13 1.6,0.3 3.2,0.1 4.8,0.1 1.7,0 3.4,0 5.1,0 1.6,0 3.3,0 4.9,0 1.6,0 3.2,0 4.9,0 0,2.6 0,5.1 0,7.8 -7,-0.1 -13.8,-0.3 -20.8,0.1 0,6.9 0,13.7 0,20.7 -4.1,0 -7.8,0 -11.6,0 0.6,-16.4 1.2,-32.8 1.7,-49.4 z m -47.1,0 c 0.6,0 1,-0.1 1.5,-0.1 7.7,0 15.4,0 23.1,0 1.4,0 2.8,0.2 4.1,0.5 7.2,1.7 11,8.2 9.2,15.4 -1.2,4.8 -4.1,8.1 -8.8,9.7 -1.4,0.5 -2.7,0.9 -4.3,1.5 3.6,7.8 8.3,14.9 12.3,22.6 -4.2,0 -8.1,0 -11.9,0 -4.2,-9 -8.3,-17.9 -12.6,-27 0.9,0.1 1.6,0.1 2.3,0.2 2.1,0.2 4.3,0.1 6.3,-0.6 3.4,-1.1 5.6,-3.4 6.2,-7.1 0.6,-3.5 -1.2,-6.3 -4.7,-7.3 -0.3,-0.1 -0.6,-0.2 -0.9,-0.2 -3.8,-0.6 -7.6,-0.2 -11.6,-0.2 -1.1,14.1 -1,28.1 -1.7,42.2 -3.7,0 -7.3,0 -11.1,0 1.9,-16.5 2.2,-33 2.6,-49.6 z m -65.7,0 c 0.5,0 0.8,-0.1 1.2,-0.1 4.4,0 8.8,0 13.2,0 3.7,12 7.3,23.9 11,36 1.5,-4 3,-7.9 4.5,-11.8 1.6,-4 3.2,-8 4.8,-12 1.6,-4 3.1,-7.9 4.6,-12 4.9,0 9.9,0 14.8,0 -0.2,16.5 -0.4,32.9 -0.7,49.3 -1.2,0.4 -6.9,0.5 -9.8,0.1 0.2,-12.8 0.4,-25.6 0.6,-38.2 -0.3,-0.1 -0.3,-0.2 -0.4,-0.2 -0.1,0 -0.1,0 -0.2,0.1 -4.9,12.8 -9.7,25.6 -14.6,38.5 -3.3,0 -6.5,0 -9.9,0 -3.6,-12.6 -7,-25.2 -11.3,-37.5 -1.5,12.4 -2,24.8 -2.9,37.2 -1.4,0.4 -6.8,0.5 -9,0.1 1.5,-16.5 2.8,-32.9 4.1,-49.5 z m -65.4,47.9 c 8,-15.5 16.1,-31 24.1,-46.5 0.6,-1.1 1.2,-1.5 2.4,-1.5 3.9,0.1 7.8,0 11.7,0 6.1,16.6 12.1,33 18.2,49.7 -3.9,0 -7.7,0 -11.5,0 -0.2,-0.5 -0.5,-1.1 -0.7,-1.7 -1.5,-4.4 -2.9,-8.8 -4.4,-13.2 -0.8,-2.3 -1.5,-2.8 -3.8,-2.8 -4.6,0.1 -9.3,0.2 -13.9,0.1 -1.9,0 -2.8,0.6 -3.5,2.3 -2,4.5 -4.1,9 -6.2,13.5 -0.3,0.6 -0.5,1.1 -0.8,1.7 -4.2,0 -8.1,0 -12.3,0 0.3,-0.6 0.5,-1.1 0.7,-1.6 z m -127,-30.2 c 1.6,-5.3 3.3,-10.5 4.9,-15.8 0.5,-1.5 1,-3.1 1.6,-5 0.3,0.7 0.6,1 0.7,1.3 1.9,4.4 3.8,8.9 5.7,13.3 0.8,1.9 1.7,3.8 2.3,5.7 0.5,1.6 0.7,3.3 0.7,5 0.1,5.3 0,10.5 0,15.8 0,0.4 0,0.8 0,1.1 0.1,1.5 0.6,2.1 2.1,2 2.3,-0.1 4.6,-0.4 6.9,-0.6 0.3,0 0.6,-0.2 0.9,-0.2 2.6,-0.7 4,0.1 4.5,2.7 0.5,2.4 0.8,4.8 1.2,7.2 0.2,1 0.5,2 0.9,3.3 0.7,-0.3 1,-0.4 1.2,-0.6 3.4,-3 7.6,-4.5 12,-5.6 1.6,-0.4 3.2,-0.7 4.8,-1.1 0.6,-0.1 1.2,-0.2 1.9,-0.2 1.8,0 2.6,0.6 3.2,2.3 0.2,0.6 0.3,1.2 0.4,1.8 0.2,1.4 1,2.4 2.5,2.7 0.8,0.1 1.6,0.3 2.4,0.3 3,-0.1 5.7,0.7 8.2,2.2 3.7,2.1 7,4.9 9.9,8 1.3,1.4 2.5,3 3.9,4.3 1.5,1.5 3.1,2.9 4.9,4.1 2,1.5 4.4,1.8 6.8,1.1 2.4,-0.7 4.8,-1.3 7.3,-1.8 -0.9,0.3 -1.8,0.6 -2.7,0.9 -3.9,1 -7.8,2.1 -11.8,3 -1.9,0.4 -4,0.4 -6,0.3 -2.5,-0.2 -4.5,-1.5 -6.2,-3.2 -3,-3 -5.9,-6.1 -9,-9.1 -2.9,-2.9 -6.1,-5.2 -10,-6.6 -2.4,-0.9 -4.9,-1.5 -7.5,-1.1 -1.7,0.3 -2.2,-0.2 -2.6,-1.9 -0.2,-1.2 -0.5,-2.4 -0.9,-4 -0.9,0.5 -1.6,0.9 -2.2,1.2 -1.8,1.2 -3.5,2.5 -5.4,3.5 -2.1,1 -4.3,1.6 -6.5,2.4 -1.4,0.4 -2.8,0.8 -4.2,1 -2.6,0.5 -4.2,-0.6 -4.7,-3.2 -0.4,-2.4 -0.8,-4.8 -1.1,-7.2 0,-0.2 0,-0.5 -0.1,-0.7 -0.8,-2.7 -1.2,-3.8 -4.7,-3.7 -1.6,0 -3.1,0 -4.7,0 -1.9,0 -2,-0.2 -2,-2 0,-5.9 0.2,-11.8 0,-17.7 -0.1,-3.9 -0.8,-7.7 -1.3,-11.6 -0.3,-2.3 -0.7,-4.6 -1,-6.9 -0.1,-0.6 -0.3,-1.1 -0.5,-2.2 -0.6,0.7 -1,1.1 -1.1,1.5 -1.5,4.2 -3,8.5 -4.6,12.7 -0.9,2.2 -0.8,4.5 -0.9,6.8 -0.1,2.4 0,4.8 -0.1,7.1 -0.9,-2.9 -0.9,-9.5 0,-12.6 z M 92.4,293.3 c 5.6,-1.6 11.2,-3.2 16.8,-4.8 1.6,-0.5 3.2,-0.4 4.8,-0.2 4.8,0.7 9.7,1.3 14.5,1.7 4.7,0.3 9.4,0.4 14.1,0.3 4.7,-0.1 9.5,-0.1 14.1,-1.8 2,-0.7 4,-1.5 5.9,-2.4 7.2,-3.6 14.8,-5.8 22.6,-7.3 3.1,-0.6 6.1,-0.1 9,1.2 1.5,0.7 3.1,1.4 4.9,2.2 0.2,-0.8 0.4,-1.4 0.5,-2.1 0.2,-1.7 0.5,-2.1 2.1,-2.3 1.3,-0.2 2.6,-0.3 3.9,-0.5 2.7,-0.3 3.6,-1.2 3.7,-4 0,-1.6 0,-3.3 0,-4.9 0,-1.3 0.3,-2.3 1.4,-3.1 1.4,-1 2.6,-2.1 4.1,-3 1.9,-1.2 4,-1.7 6.3,-1.6 1.4,0.1 2.7,0 4.3,0 0,1.1 0,2 0,3 -1.5,0.5 -3,0.5 -4.3,0.3 -3.3,-0.5 -5.4,1.6 -7.7,3.3 -1,0.8 -1,2.1 -1,3.3 0,2.3 0,4.5 0,6.8 -0.1,2.7 -1.5,4.6 -4.1,5.5 -4.7,1.6 -9.4,3 -14.4,3.6 -2.3,0.3 -4.6,-0.2 -6.8,-0.9 -1.6,-0.5 -3.2,-1.2 -4.7,-1.8 -1.2,-0.5 -2.4,-1 -3.7,-1.4 -1.5,-0.6 -2.8,-0.3 -4.1,0.5 -1,0.7 -2,1.5 -3,2.3 -4.9,4.3 -10.7,6.8 -17,7.7 -6.1,0.9 -12.3,1.6 -18.4,2.3 -7.4,0.8 -14.7,1.2 -22.1,1 -7.4,-0.1 -14.7,-0.8 -22.1,-1.9 -0.2,0 -0.3,-0.1 -0.7,-0.3 0.4,-0.4 0.8,-0.6 1.1,-0.7 z m -30.8,30.4 c 5.2,-1.5 10.3,-3 15.5,-4.6 2.3,-0.7 4.6,-0.6 6.9,-0.2 10.7,1.9 21.6,2.2 32.4,1.6 13.5,-0.8 26.7,-3.2 39.8,-6.4 6.1,-1.5 12.1,-3.2 18.2,-4.4 9.4,-1.9 18.8,-3.7 28.3,-4.8 10.2,-1.1 20.4,-1.6 30.6,-1.1 20.5,0.9 40.4,5.1 60,11.4 12.8,4.1 25.6,8.3 38.4,12.3 11.4,3.6 23.1,6.2 34.9,8 6.7,1 13.5,1.7 20.4,2.1 6.6,0.4 13.2,0.3 19.7,-0.1 6.8,-0.4 13.6,-1.2 20.3,-2.4 8.9,-1.6 17.6,-3.9 26.3,-6.3 12.2,-3.3 24.5,-5.9 36.9,-7.7 6.4,-0.9 12.9,-1.6 19.4,-2 6.2,-0.4 12.5,-0.7 18.8,-0.6 8.4,0.1 16.9,0.6 25.2,1.9 0,0.2 0,0.3 0.1,0.5 -1.6,0.4 -3.2,0.9 -4.8,1.3 -3.9,1 -7.9,2 -11.8,3.1 -2.8,0.8 -5.5,0.8 -8.3,0.4 -4.5,-0.6 -9,-1.1 -13.4,-1.4 -5.4,-0.3 -10.8,-0.4 -16.2,-0.3 -8.5,0.2 -17,1.1 -25.4,2.4 -9.8,1.5 -19.6,3.6 -29.3,5.6 -4.3,0.9 -8.5,2.2 -12.9,2.9 -4.4,0.7 -8.7,1.8 -13,2.7 -7.1,1.4 -14.3,2.4 -21.6,2.9 -6,0.3 -12,0.7 -18,0.6 -17.9,-0.2 -35.4,-3.2 -52.6,-7.9 -15,-4.1 -29.7,-9.1 -44.4,-13.9 -14,-4.6 -28.2,-8.3 -42.8,-10.6 -11.2,-1.8 -22.4,-2.3 -33.7,-1.8 -9,0.4 -18,1.4 -26.9,2.9 -7,1.2 -13.7,3.3 -20.5,5.4 -10.4,3.2 -20.8,6.2 -31.5,7.9 -6.9,1.1 -13.9,2.1 -20.8,2.9 -7,0.8 -14,1.1 -21,1 -7.7,-0.1 -15.3,-0.7 -22.8,-1.9 -0.6,-0.1 -1.2,-0.3 -2.2,-0.5 0.7,-0.4 1.2,-0.7 1.8,-0.9 z m 7.7,83.7 c -0.8,-2.3 -1.6,-4.5 -2.4,-6.7 -0.2,-0.6 -0.4,-1.3 -0.7,-2 -0.6,-1.6 -0.8,-1.8 -2.4,-1.8 -2.8,0 -5.6,0 -8.5,0 -1.2,0 -1.9,0.5 -2.3,1.5 -1.1,2.4 -2.3,4.9 -3.4,7.3 -0.6,1.3 -1.3,1.8 -2.7,1.8 -1.7,-0.1 -3.4,0 -5.3,0 0.1,-0.5 0.2,-1 0.4,-1.3 4.8,-9.2 9.6,-18.4 14.4,-27.6 0.6,-1.1 1.3,-1.5 2.5,-1.5 2.1,0.1 4.1,0 6.3,0 3.7,10.1 7.3,20.1 11,30.3 -2.4,0 -4.5,0 -6.9,0 z m 18.6,-15 c 0.8,0.8 1.8,1.4 2.6,2.1 1.3,1.1 2.7,2 3.9,3.2 2.9,3.1 2,7.4 -1.9,9.1 -3.2,1.4 -6.5,1.3 -9.8,0.6 -3.4,-0.7 -3.1,-0.2 -3.3,-3.8 0,-0.4 0,-0.9 0,-1.5 0.8,0.2 1.4,0.4 2,0.5 1.6,0.3 3.2,0.5 4.8,0.7 0.6,0.1 1.3,-0.1 1.8,-0.3 1.8,-0.6 2.2,-2.4 0.8,-3.6 -1,-0.9 -2.2,-1.7 -3.2,-2.6 -1,-0.8 -2,-1.5 -2.9,-2.4 -3.6,-3.6 -2.2,-8.4 2.6,-9.7 3.3,-0.9 6.5,-0.4 9.6,0.4 0.6,0.1 1,0.5 1,1.2 0.1,1 0.2,2.1 0.3,3.3 -1.2,-0.3 -2.1,-0.6 -3.1,-0.6 -1.5,-0.1 -3.1,-0.1 -4.6,0.2 -1.5,0.3 -1.9,2 -0.6,3.2 z m 13,9.8 c 1.6,0.4 3,0.8 4.4,1 1.3,0.2 2.8,0.2 4.1,-0.1 2.2,-0.5 2.6,-2.5 0.9,-3.9 -1.4,-1.2 -3,-2.3 -4.4,-3.5 -0.9,-0.7 -1.7,-1.5 -2.4,-2.4 -2.1,-3 -1.2,-6.7 2.3,-8.1 1.7,-0.7 3.6,-0.9 5.5,-0.9 1.7,0 3.5,0.5 5.2,0.8 0.7,0.1 1.2,0.5 1.3,1.4 0,1 0.2,2 0.3,3.1 -1.2,-0.3 -2.1,-0.6 -3.1,-0.6 -1.4,-0.1 -2.9,-0.1 -4.3,0 -0.9,0.1 -1.6,0.6 -1.9,1.6 -0.2,0.9 0.3,1.6 0.9,2.1 1.3,1 2.6,1.9 3.9,3 0.9,0.7 1.9,1.5 2.6,2.4 2.5,3 1.8,6.7 -1.7,8.5 -2,1.1 -4.3,1.5 -6.5,1.3 -2.2,-0.2 -4.5,-0.4 -6.7,-1.2 -0.3,-1.5 -0.3,-2.9 -0.4,-4.5 z m 27,44.1 c -2.5,0 -4.6,0 -6.7,0 -2.6,-5.4 -5.2,-10.7 -7.9,-16.2 0.8,0 1.4,0 1.9,0 1.6,0.1 3.1,-0.1 4.6,-0.8 1.3,-0.5 2.2,-1.4 2.7,-2.7 1,-2.3 0.1,-4.3 -2.2,-5.1 -0.5,-0.2 -1.1,-0.3 -1.6,-0.4 -0.9,-0.1 -1.8,-0.1 -2.6,-0.1 -1.4,0 -2.9,0 -4.5,0 0,8.5 0,16.8 0,25.3 -2.5,0.3 -4.7,0.1 -7.2,0.1 0.4,-10 0.7,-19.9 1.1,-30 0.5,-0.1 0.9,-0.2 1.4,-0.2 4.3,0 8.6,0 13,0 1,0 2,0.1 3,0.3 3.6,0.7 6,3 6.3,6.1 0.4,3.8 -1.3,7.2 -4.6,8.7 -1.2,0.6 -2.4,0.9 -3.9,1.5 2,4.7 4.9,8.8 7.2,13.5 z m 2.6,-39 c -5.4,-1.5 -8.3,-6.1 -7.9,-11.7 0.6,-8.3 7.4,-11.7 14.2,-11.2 0.9,0.1 1.7,0.2 2.6,0.4 5.3,1.3 8.3,5.3 8.3,10.8 -0.1,8.5 -6.5,12.9 -14.4,12.2 -1,-0.1 -1.9,-0.3 -2.8,-0.5 z m 26.2,39.1 c -1.9,0 -3.9,0 -5.9,0 -0.1,-0.9 -0.1,-1.7 -0.2,-2.7 -0.5,0.4 -0.9,0.6 -1.2,0.9 -3.7,3.3 -9.1,2.7 -12.2,1.2 -2.2,-1.1 -3,-3.2 -2.9,-5.5 0.2,-5.1 0.5,-10.1 0.7,-15.2 0,-0.4 0.2,-0.7 0.3,-1.1 2,0 3.9,0 5.9,0 0,1.3 0,2.6 0,3.8 -0.1,2.9 -0.3,5.8 -0.4,8.6 0,0.4 0,0.8 0,1.1 0.2,2.7 1,3.9 3.2,4.4 2.2,0.6 4.6,-0.4 5.8,-2.4 0.9,-1.5 1.2,-3.1 1.3,-4.9 0.1,-2.9 0.3,-5.9 0.4,-8.8 0,-0.6 0.1,-1.2 0.1,-2 2.1,0 3.9,0 5.8,0 0.3,1.2 -0.2,20.1 -0.7,22.6 z m 1.1,-39.5 c -2.3,-0.9 -4,-2.5 -4.9,-4.9 -1.7,-4.4 -1.4,-8.7 0.9,-12.8 1.4,-2.4 3.6,-3.8 6.2,-4.5 3.1,-0.7 6.2,-0.5 9.3,0.2 1.3,0.3 1.6,0.6 1.7,2.1 0.1,0.8 0.1,1.6 0.2,2.6 -1.3,-0.3 -2.4,-0.5 -3.6,-0.7 -1,-0.1 -2,-0.3 -3,-0.2 -3.1,0.2 -5.5,2.1 -6.2,5.1 -0.3,1.4 -0.4,2.9 -0.2,4.3 0.5,3.3 2.6,5.1 5.9,5.2 1.5,0 3,-0.3 4.5,-0.5 0.5,-0.1 1.1,-0.2 1.6,-0.3 0.1,0.3 0.2,0.4 0.2,0.5 -0.8,4 0.4,3.7 -4.5,4.6 -2.8,0.6 -5.5,0.3 -8.1,-0.7 z m 19.4,21.4 c -3.3,-0.5 -5.8,1 -6.7,4.3 -0.3,1 -0.4,2.1 -0.4,3.1 -0.1,2.9 0,5.8 0,8.6 0,0.6 0,1.2 0,2 -2.3,0 -4.4,0 -6.6,0 0.1,-7.5 0.2,-14.9 0.4,-22.5 2.1,0 4.1,0 6.1,0 0.1,0.8 0.1,1.5 0.2,2.5 2.3,-1.6 4.3,-4.1 7.7,-2.5 0.1,1.5 0.2,3 0.4,4.6 -0.5,0 -0.8,0 -1.1,-0.1 z m 6.3,-43.4 c -0.4,7.5 -0.7,14.9 -1.1,22.5 -2,0 -3.9,0 -6,0 0.2,-7.5 0.5,-14.9 0.7,-22.5 2.1,0 4.2,0 6.4,0 z m -6.3,-4.7 c 0,-1.2 0,-2.3 0,-3.6 2,0 3.9,0 6,0 0,1.2 0,2.3 0,3.6 -2,0 -3.9,0 -6,0 z m 26,50.9 c -0.2,4.7 -0.5,9.4 -0.7,14.1 0,0.4 -0.1,0.7 -0.2,1.2 -2,0 -3.9,0 -5.9,0 0.2,-3.8 0.5,-7.5 0.7,-11.4 -2.7,1 -5.2,1.7 -7.5,2.7 -1.9,0.8 -2.7,2.4 -2.3,3.8 0.4,1.4 2,2.3 3.9,2.2 0.9,-0.1 1.7,-0.2 2.6,-0.4 0,2.8 -0.7,3.6 -3.3,3.7 -1.5,0 -3,-0.1 -4.5,-0.3 -2.7,-0.4 -4.3,-2.1 -4.9,-4.8 -0.6,-2.6 0.3,-4.7 2.4,-6 1.5,-1 3.2,-1.7 4.9,-2.3 1.6,-0.6 3.4,-0.8 5.1,-1.3 0.7,-0.2 1.4,-0.4 2.1,-0.8 1,-0.5 1.5,-1.3 1.4,-2.4 -0.1,-1.1 -0.8,-2 -1.9,-2.1 -1.7,-0.2 -3.5,-0.3 -5.2,-0.1 -1.8,0.2 -3.7,0.8 -5.5,1.2 -0.6,-2.3 0.2,-3.8 2.4,-4.1 3.7,-0.6 7.4,-1.1 11.2,-0.4 0.6,0.1 1.2,0.3 1.8,0.5 2.2,0.8 3.3,2.3 3.5,4.6 -0.1,0.9 -0.1,1.6 -0.1,2.4 z m -6.1,-32.6 c -2.1,0.9 -2.9,2.3 -2.4,3.9 0.4,1.5 1.8,2.2 4,2.1 0.8,0 1.6,-0.2 2.4,-0.3 0.3,2.4 -0.3,3.5 -2.6,3.6 -1.8,0.1 -3.6,0 -5.4,-0.3 -2.6,-0.5 -4.1,-2.2 -4.7,-4.8 -0.5,-2.5 0.4,-4.4 2.3,-5.9 1.6,-1.2 3.4,-1.9 5.3,-2.4 1.9,-0.5 3.8,-1 5.6,-1.5 0.5,-0.1 1,-0.3 1.4,-0.5 0.9,-0.5 1.4,-1.2 1.4,-2.3 -0.1,-1.1 -0.7,-1.7 -1.6,-2.1 -1.6,-0.6 -3.3,-0.6 -5,-0.3 -1.7,0.3 -3.3,0.7 -4.9,1.1 -0.3,0.1 -0.7,0.1 -1.3,0.3 0.2,-1.3 0.4,-2.4 0.6,-3.7 4.4,-1 8.8,-1.7 13.3,-0.9 0.6,0.1 1.2,0.3 1.8,0.5 2.2,0.7 3.4,2.2 3.6,4.6 0.1,0.7 0,1.5 0,2.3 -0.2,4.8 -0.5,9.6 -0.7,14.4 0,0.2 -0.1,0.5 -0.1,1 -2,0 -3.9,0 -6,0 0.2,-3.8 0.5,-7.6 0.7,-11.5 -2.9,1 -5.4,1.7 -7.7,2.7 z m 35.3,47.9 c -2.1,0 -4,0 -6.1,0 -0.1,-0.9 -0.2,-1.7 -0.3,-2.8 -0.5,0.4 -0.9,0.7 -1.3,1 -3.6,3.3 -9.2,2.6 -12.2,1.1 -2.1,-1.1 -3,-3 -2.9,-5.3 0.1,-3.8 0.3,-7.6 0.5,-11.5 0.1,-1.7 0.2,-3.3 0.3,-5.1 2.1,0 4,0 6,0 0,0.4 0.1,0.8 0.1,1.2 -0.2,3.4 -0.4,6.8 -0.5,10.1 0,1.4 0.1,2.7 0.3,4.1 0.2,1.1 1,1.9 2,2.3 2.6,1.2 5.6,0.2 6.9,-2.4 0.9,-1.6 1.2,-3.3 1.2,-5.1 0,-2.8 0,-5.5 0,-8.3 0,-0.6 0,-1.2 0,-2 2.3,0 4.3,0 6.6,0 -0.1,7.7 -0.3,15.1 -0.6,22.7 z m -1.7,-61.9 c 0,1.6 0,3 0,4.5 -1.8,0 -3.5,0 -5.6,0 0,4.3 -0.1,8.3 0,12.3 0,1.5 0.8,2.1 2.3,2.1 0.9,0 1.9,-0.2 2.9,-0.3 0.3,1.3 -0.1,2.5 -0.7,3.6 -0.3,0.5 -0.9,0.9 -1.5,1 -2.2,0.5 -4.4,0.5 -6.5,-0.2 -2.2,-0.6 -3.3,-2.2 -3.2,-4.7 0.1,-3.2 0.4,-6.4 0.5,-9.6 0.1,-1.2 0.1,-2.5 0.2,-3.9 -1.1,-0.1 -2.1,-0.2 -3.1,-0.3 -0.5,-1.4 -0.2,-2.8 0.1,-4.3 1,0 2.1,0 3.2,0 0.2,-1.6 0.4,-3 0.6,-4.5 1.7,-0.3 3.3,-0.7 5.2,-1 0,1.9 0,3.5 0,5.4 2,-0.1 3.7,-0.1 5.6,-0.1 z M 242,385 c -0.4,7.5 -0.7,14.8 -1.1,22.3 -1.9,0 -3.9,0 -6,0 0.2,-7.5 0.5,-14.8 0.7,-22.3 2.3,0 4.4,0 6.4,0 z m -6.2,-4.7 c 0,-1.3 0,-2.4 0,-3.7 2,0 4,0 6.1,0 0,1.3 0,2.4 0,3.7 -2.1,0 -4.1,0 -6.1,0 z m 25.1,66.3 c -2.5,0 -4.7,0.1 -6.8,-0.1 -0.5,0 -1,-0.7 -1.3,-1.2 -1,-1.5 -1.9,-3.1 -2.9,-4.6 -0.2,-0.4 -0.5,-0.7 -0.9,-1.2 -1.5,1.9 -2.9,3.6 -4.3,5.4 -0.9,1.2 -1.9,1.7 -3.3,1.6 -1.5,-0.1 -3,0 -4.8,0 0.4,-0.7 0.6,-1 0.8,-1.3 2.3,-2.9 4.7,-5.9 7,-8.8 1.3,-1.7 1.3,-2 0.1,-3.8 -1.6,-2.3 -3.1,-4.7 -4.7,-7 -0.3,-0.5 -0.6,-1 -1.1,-1.9 2.4,0 4.4,0 6.4,0 0.8,0 1.3,0.4 1.7,1 0.7,1.2 1.5,2.3 2.3,3.5 0.3,0.4 0.6,0.8 1,1.3 1.1,-1.3 2.2,-2.4 3.1,-3.7 1.1,-1.6 2.4,-2.2 4.3,-2 1.1,0.1 2.2,0 3.8,0 -2.6,3.8 -5.5,7 -8.1,10.7 2.5,3.8 5,7.8 7.7,12.1 z m 11.8,-50.2 c -0.6,9.1 -7.8,12.1 -14.4,11.4 -1.5,-0.2 -3.1,-0.6 -4.5,-1.2 -4.3,-2 -6,-5.6 -6.1,-9.1 0,-7.3 3.9,-11.9 10.1,-12.9 2.4,-0.4 4.7,-0.3 7.1,0.3 5.1,1.4 8.1,5.7 7.8,11.5 z m 28.4,49.9 c -1.9,0 -3.7,0 -5.6,0 -0.1,-1.1 -0.1,-2 -0.2,-3.3 -0.7,0.6 -1.2,1.1 -1.7,1.5 -3,2.6 -6.4,3.1 -10,1.7 -3.7,-1.4 -5.5,-4.4 -5.9,-8.2 -0.2,-2 0.1,-3.9 0.7,-5.7 1.7,-5.4 5.9,-8.7 11.5,-8.9 2,-0.1 4,0.1 6.2,0.2 0.2,-2.3 0.3,-4.7 0.5,-7.1 2,0 3.9,0 5.9,0 -0.4,9.9 -0.9,19.8 -1.4,29.8 z M 296,393.8 c -0.3,-3.9 -3.9,-5.9 -7.5,-4.1 -2.2,1.2 -3.4,3.1 -3.6,5.6 -0.3,3.1 -0.5,6.2 -0.8,9.4 -0.1,0.9 -0.2,1.7 -0.3,2.7 -2,0 -3.9,0 -6,0 0.4,-7.5 0.7,-14.9 1.1,-22.5 2,0 3.9,0 6,0 0,1 0.1,1.9 0.1,3.1 0.5,-0.4 0.9,-0.6 1.2,-0.9 3.7,-3.4 9.1,-3.3 12.9,-1.6 2.2,1 3.2,2.9 3.2,5.3 0,2.6 -0.1,5.1 -0.2,7.7 -0.1,2.4 -0.2,4.9 -0.4,7.3 0,0.5 -0.1,1 -0.2,1.5 -2,0 -3.9,0 -5.9,0 0,-1.4 0,-2.6 0,-3.9 0.1,-2.8 0.3,-5.6 0.4,-8.4 0,-0.5 0,-0.8 0,-1.2 z m 33.6,41.2 c -5.1,0 -10.3,0 -15.5,0 -1.1,3.8 0.8,7.1 4.5,8 2.1,0.5 4.2,0.2 6.3,-0.3 1,-0.2 2,-0.5 3.3,-0.8 -0.3,1.6 -0.5,2.9 -0.7,4.2 -3.9,0.9 -7.7,1.2 -11.5,0.5 -5.5,-0.9 -9.1,-5.6 -8.7,-11.2 0.1,-1.2 0.3,-2.4 0.6,-3.5 2.6,-8.4 11.2,-10.8 18,-7.1 3.5,1.9 5.1,6.5 3.7,10.2 z m 13.9,-27.7 c -1.8,0 -3.6,0 -5.6,0 0,-1.1 0,-2 0,-3.4 -0.7,0.6 -1.1,0.9 -1.4,1.3 -2.8,2.7 -6.1,3.4 -9.7,2.3 -3.6,-1.1 -5.7,-3.8 -6.4,-7.4 -0.7,-3.9 0.2,-7.5 2.4,-10.7 1.8,-2.7 4.5,-4.2 7.6,-4.6 2.1,-0.3 4.2,-0.1 6.3,-0.2 0.6,0 1.1,0.1 1.9,0.1 0.1,-1.3 0.2,-2.4 0.3,-3.6 0,-1.1 0,-2.2 0,-3.5 2.2,0 4.2,0 6.2,0 -0.6,9.8 -1.1,19.7 -1.6,29.7 z m 26.3,13.8 c -4.6,0 -9.3,0 -14,0 0,2.6 0,5.1 0,7.9 1.9,0.1 3.9,0 5.9,0 2,0 4,0 6.2,0 0,1.7 0,3.1 0,4.7 -4.2,0 -8.3,0 -12.7,0 -0.1,2.2 -0.1,4.3 -0.1,6.3 0,2.1 0,4.1 0,6.3 -2.4,0.3 -4.6,0.1 -7.1,0.1 0.3,-10.1 0.6,-20 0.8,-30.1 7.1,0 14.1,0 21.2,0 0.5,1.6 0.2,3.1 -0.2,4.8 z m 2.3,-25.2 c -2.7,0 -5.2,0 -7.8,0 -2.6,0 -5.1,0 -7.7,0 -1.2,3.2 0.5,6.8 3.8,7.9 1.8,0.6 3.6,0.5 5.4,0.2 1.5,-0.3 3,-0.7 4.7,-1 0.2,1.2 -0.1,2.2 -0.4,3.2 -0.3,0.8 -1,1.1 -1.7,1.3 -3.7,0.7 -7.3,0.9 -11,-0.1 -4.9,-1.3 -7.8,-5.8 -7.5,-11.2 0.1,-1.1 0.3,-2.2 0.6,-3.3 2.4,-8 11,-11 18,-7 3.2,1.7 4.8,6.1 3.6,10 z m 15.8,32.5 c -2.8,-0.2 -5.1,1.2 -5.9,4 -0.3,1 -0.4,2 -0.4,3 -0.1,3 -0.1,6 -0.1,9 0,0.6 0,1.2 0,2 -2.2,0.2 -4.3,0.2 -6.5,0.1 0.1,-7.6 0.2,-15 0.3,-22.5 2.1,0 4,0 6.1,0 0.1,0.8 0.1,1.6 0.2,2.8 0.6,-0.6 1.1,-1 1.5,-1.4 1.7,-1.5 3.7,-2.3 6.2,-1.5 0.1,1.6 0.3,3.2 0.4,4.9 -0.7,-0.3 -1.2,-0.4 -1.8,-0.4 z m 1.8,-21.8 c -2.3,1.2 -4.8,1.6 -7.3,1.3 -2,-0.2 -3.9,-0.6 -6,-1 -0.1,-1.7 -0.2,-3.1 -0.3,-4.7 1,0.2 1.8,0.5 2.7,0.6 1.5,0.2 3,0.5 4.4,0.6 0.7,0 1.5,-0.2 2.1,-0.5 1.3,-0.7 1.5,-2.1 0.6,-3.2 -0.5,-0.6 -1.1,-1 -1.7,-1.5 -1.6,-1.3 -3.3,-2.5 -4.8,-3.9 -1.5,-1.4 -2.3,-3.1 -1.7,-5.3 0.6,-2.3 2.1,-3.6 4.3,-4.2 3.6,-1 7.2,-0.5 10.8,0.7 0.1,1.3 0.3,2.6 0.4,4.1 -1.1,-0.2 -2,-0.6 -2.9,-0.6 -1.5,-0.1 -3,-0.1 -4.5,0 -0.9,0.1 -1.6,0.6 -1.9,1.6 -0.3,0.9 0.3,1.6 0.9,2.1 1.2,0.9 2.4,1.8 3.6,2.8 1,0.8 2.1,1.6 2.9,2.6 2.6,2.9 1.9,6.6 -1.6,8.5 z m 24.9,26.3 c -0.2,4.1 -0.4,8.1 -0.7,12.2 0,0.4 -0.1,0.7 -0.1,1.2 -1.9,0 -3.9,0 -6,0 0.2,-3.8 0.4,-7.5 0.7,-11.5 -2.6,0.9 -5,1.8 -7.4,2.7 -0.3,0.1 -0.6,0.3 -0.8,0.5 -1.3,0.9 -1.9,2.1 -1.6,3.3 0.3,1.3 1.4,2.1 3.1,2.3 0.6,0 1.1,0 1.7,-0.1 0.5,-0.1 1.1,-0.2 2,-0.4 -0.2,0.9 -0.3,1.5 -0.5,2.1 -0.2,0.9 -0.8,1.4 -1.7,1.5 -2.4,0.3 -4.8,0.3 -7.1,-0.5 -3.8,-1.4 -5.1,-6.2 -2.6,-9.3 1,-1.3 2.4,-2.2 4,-2.7 2.2,-0.7 4.5,-1.2 6.7,-1.9 0.9,-0.3 1.8,-0.5 2.7,-0.9 1,-0.4 1.5,-1.3 1.4,-2.4 -0.1,-1.1 -0.7,-2 -1.8,-2.1 -1.7,-0.2 -3.5,-0.2 -5.2,-0.1 -1.4,0.1 -2.8,0.6 -4.2,1 -0.5,0.1 -0.9,0.2 -1.8,0.4 0.3,-1.2 0.4,-2.2 0.9,-3.1 0.3,-0.5 1,-1 1.6,-1.1 3.8,-0.6 7.7,-1.2 11.6,-0.4 0.5,0.1 1,0.2 1.5,0.4 2.6,0.9 3.8,2.4 3.9,5.1 -0.2,1.3 -0.3,2.6 -0.3,3.8 z m 30.3,9 c -0.1,1.4 -0.2,2.8 -0.3,4.4 -2.1,0 -4,0 -6.2,0 0.1,-3 0.3,-5.8 0.4,-8.7 0.1,-1.5 0.2,-3 0.1,-4.5 -0.1,-3.8 -3.1,-5.9 -6.7,-4.6 -2.3,0.8 -3.7,2.5 -4.1,4.7 -0.4,2 -0.5,4.1 -0.7,6.1 -0.2,2.2 -0.3,4.4 -0.5,6.5 0,0.1 -0.1,0.2 -0.2,0.5 -1.9,0 -3.9,0 -5.9,0 0.4,-7.5 0.7,-14.9 1.1,-22.5 2,0 4,0 6,0 0.1,1 0.1,1.9 0.2,3 0.4,-0.3 0.6,-0.4 0.8,-0.6 2.6,-2.5 5.7,-3.2 9.2,-2.9 0.7,0.1 1.4,0.2 2,0.3 3.4,0.7 5.2,2.9 5.2,6.4 0,4.1 -0.2,8 -0.4,11.9 z m 1.8,-34.7 c -2.1,0 -4,0 -6.2,0 0,-3.8 0,-7.6 0,-11.4 0,-3.7 0,-7.4 0,-11.2 -0.2,0 -0.3,0 -0.5,-0.1 -1.4,3.8 -2.8,7.6 -4.1,11.4 -1.4,3.8 -2.7,7.5 -4.1,11.4 -2,0 -4,0 -6.2,0 -2.2,-7.3 -3.9,-14.9 -6.6,-22.1 -0.1,0 -0.3,0 -0.4,0 -0.6,7.3 -1.1,14.6 -1.7,22 -1.8,0 -3.5,0 -5.3,0 0.9,-10 1.7,-19.9 2.6,-29.8 1.3,-0.4 6.4,-0.5 8.7,-0.1 2.1,7 4.2,14.1 6.4,21.5 2.8,-7.4 5.5,-14.4 8.2,-21.6 3.2,0 6.3,0 9.3,0 -0.1,10.1 -0.1,20 -0.1,30 z m 10,29.5 c 0.3,3.3 2.7,5.7 6,5.8 1.5,0 3,-0.3 4.5,-0.5 0.5,-0.1 1.1,-0.2 1.8,-0.3 -0.1,0.7 -0.1,1.3 -0.2,1.8 -0.4,2.2 -1,2.9 -3.3,3.1 -2,0.3 -4.1,0.5 -6.2,0.1 -4.9,-0.8 -8.1,-3.8 -8.8,-8.7 -0.5,-3.5 0.1,-6.9 1.9,-9.9 0.8,-1.4 2,-2.5 3.5,-3.3 3.5,-1.9 9.9,-2 13.6,-0.1 0.1,1.2 0.2,2.5 0.3,4 -0.9,-0.2 -1.5,-0.3 -2.1,-0.5 -2,-0.5 -4.1,-0.7 -6.1,-0.1 -2,0.5 -3.3,1.7 -4,3.6 -0.8,1.6 -1,3.3 -0.9,5 z M 474,391.6 c -0.2,4.8 -0.5,9.6 -0.7,14.5 0,0.4 -0.1,0.7 -0.2,1.3 -2,0 -3.9,0 -6,0 0.2,-3.8 0.5,-7.5 0.7,-11.5 -2.8,1 -5.3,1.9 -7.9,2.9 -0.5,0.2 -1,0.7 -1.4,1.2 -1.2,1.5 -0.7,3.7 1.1,4.3 1.1,0.3 2.3,0.2 3.5,0.2 0.4,0 0.8,-0.1 1.2,-0.2 0.3,2.5 -0.3,3.4 -2.5,3.5 -1.9,0.1 -3.9,0 -5.8,-0.3 -2.4,-0.5 -3.9,-2.2 -4.4,-4.6 -0.5,-2.4 0.1,-4.4 2.1,-5.8 1.3,-0.9 2.8,-1.7 4.3,-2.2 1.9,-0.7 3.9,-1 5.8,-1.5 0.8,-0.2 1.6,-0.4 2.3,-0.8 1,-0.5 1.5,-1.3 1.4,-2.4 -0.1,-1.1 -0.7,-2 -1.8,-2.1 -1.6,-0.2 -3.2,-0.3 -4.8,-0.2 -1.5,0.1 -3.1,0.7 -4.6,1 -0.5,0.1 -0.9,0.2 -1.7,0.4 0.2,-1.4 0.4,-2.5 0.6,-3.7 4.5,-0.9 8.9,-1.7 13.4,-0.8 0.7,0.1 1.5,0.4 2.1,0.7 1.6,0.6 2.6,1.8 2.9,3.5 0.3,0.7 0.4,1.7 0.4,2.6 z m 22.4,43.3 c -5.2,0 -10.4,0 -15.5,0 -1.3,3 0.4,7 4.1,8 2.3,0.6 4.5,0.3 6.7,-0.2 1,-0.2 1.9,-0.5 3.2,-0.8 0,0.7 0,1.1 -0.1,1.6 -0.1,0.9 -0.3,1.7 -0.5,2.6 -4.2,1 -8.3,1.3 -12.5,0.2 -4.4,-1.2 -7.3,-4.6 -7.6,-9.2 -0.1,-2 0.1,-3.9 0.7,-5.7 2.6,-7.7 10.9,-10.5 18,-6.6 2.6,1.5 4.8,5.6 3.5,10.1 z m -9.1,-50.2 c -0.4,7.7 -0.7,15 -1,22.5 -1.9,0 -3.9,0 -6,0 0.2,-7.5 0.5,-14.9 0.7,-22.5 2.1,-0.1 4.2,0 6.3,0 z m -6.2,-4.3 c 0,-1.3 0,-2.4 0,-3.8 1.6,0 3.1,0 4.6,0 0.4,0 0.8,0.1 1.4,0.1 0,1.2 0,2.3 0,3.6 -2,0.2 -3.9,0 -6,0.1 z m 26,9 c -3.9,-0.4 -6.4,1.7 -6.7,5.6 -0.2,2.7 -0.1,5.4 -0.1,8.1 0,1.4 0,2.7 0,4.2 -2.3,0 -4.4,0 -6.7,0 0.1,-7.5 0.3,-14.9 0.4,-22.4 2,0 4,0 6,0 0.1,0.9 0.2,1.7 0.3,2.7 0.6,-0.6 1,-1 1.5,-1.4 1.2,-1.1 2.6,-1.7 4.2,-1.9 1.3,-0.1 1.7,0.2 2,1.5 0.2,1.2 0.2,2.3 0.4,3.7 -0.5,-0.1 -0.9,-0.1 -1.3,-0.1 z m 26.8,6.5 c -5.1,0 -10.4,0 -15.5,0 -1,4.6 1.5,8 5.9,8.2 1.8,0.1 3.6,-0.3 5.4,-0.6 0.9,-0.1 1.7,-0.4 2.5,-0.6 0.4,3 -0.5,4.3 -3.4,4.7 -2.8,0.4 -5.6,0.4 -8.4,-0.1 -4.9,-0.7 -8.4,-4.4 -8.7,-9.4 -0.1,-1.2 -0.1,-2.5 0.2,-3.7 1.5,-8.5 9.7,-12.7 17.6,-9.1 4,1.8 5.8,7.3 4.4,10.6 z m -9.7,-56.8 c -3.2,1 -6.3,1.1 -9.6,0.6 -3.6,-0.6 -7.2,-0.9 -10.8,-1.1 -4.8,-0.3 -9.6,-0.4 -14.5,-0.4 -6.8,0 -13.5,0.7 -20.2,1.4 -9.3,1 -18.6,2.4 -27.8,4.3 -11.2,2.3 -22.4,4.9 -33.5,7.6 -13,3.2 -25.9,6.8 -38.8,10.1 -10.8,2.7 -21.7,4.9 -32.7,6.5 -4.9,0.7 -9.9,1.1 -14.9,1.7 -8.4,0.9 -16.8,0.9 -25.2,0.6 -7.8,-0.3 -15.5,-1.3 -23.1,-2.7 -20.2,-3.8 -40.2,-8.9 -60.2,-13.6 -11.4,-2.6 -22.8,-5.1 -34.4,-6.8 -5,-0.7 -10.1,-1.2 -15.1,-1.6 -6.3,-0.6 -12.6,-0.8 -19,-0.6 -5.6,0.2 -11.1,0.5 -16.7,1 -5.3,0.5 -10.6,1.1 -15.8,1.9 -4.6,0.7 -9,1.9 -13.6,2.8 -4.5,0.8 -9,1.5 -13.5,2.1 -4.5,0.6 -9.1,1.2 -13.6,1.4 -6.9,0.3 -13.8,0.5 -20.7,0.4 -6.4,-0.1 -12.7,-0.7 -19.2,-1.9 0.7,-0.9 1.7,-0.9 2.5,-1.2 3.1,-0.9 6.3,-1.7 9.4,-2.6 0.5,-0.2 1.1,-0.3 1.6,-0.5 4.1,-1.9 8.4,-1.6 12.7,-1 4.1,0.6 8.3,1.1 12.5,1.4 4.1,0.3 8.1,0.4 12.2,0.4 9.2,-0.1 18.2,-1 27.2,-2.7 6.3,-1.2 12.7,-2.1 19.1,-2.9 7.1,-0.9 14.3,-1.7 21.5,-2.1 7.9,-0.4 15.8,-0.6 23.7,-0.4 14.5,0.4 28.7,2.9 42.9,6.1 17.4,4 34.8,8.1 52.3,12 9.1,2 18.3,3.7 27.4,5.3 4.3,0.8 8.7,0.9 13.1,1.3 1.4,0.1 2.9,0.3 4.3,0.3 5.8,0.1 11.6,-0.3 17.4,-1 5.8,-0.8 11.5,-1.4 17.3,-2.4 10.1,-1.7 20.1,-4.2 29.9,-7.1 17.1,-5.1 34.4,-9.5 51.9,-12.9 8.3,-1.6 16.6,-2.9 25,-4.3 5.6,-0.9 11.2,-1.8 16.9,-2.5 5,-0.7 10.1,-1.2 15.1,-1.7 6.2,-0.6 12.3,-1.2 18.5,-1.4 5.9,-0.2 11.8,-0.2 17.7,0.1 5.2,0.2 10.5,1 15.7,1.5 0.4,0 0.7,0.2 1.1,0.3 0,0.1 0,0.2 0.1,0.4 -1.4,0.3 -2.8,0.7 -4.1,1 -4.2,0.9 -8.2,1.8 -12,2.9 z m 22.6,53.7 c 1.5,1.1 3,2.2 4.5,3.4 0.8,0.6 1.6,1.3 2.1,2.1 2.3,3 1.4,6.7 -2,8.3 -2.2,1.1 -4.7,1.5 -7.1,1.2 -1.9,-0.2 -3.8,-0.6 -5.9,-1 -0.2,-1.6 -0.3,-3 -0.5,-4.7 0.9,0.2 1.5,0.4 2.2,0.5 1.7,0.3 3.3,0.5 5,0.7 0.6,0.1 1.3,-0.1 1.8,-0.3 1.7,-0.7 1.9,-2.3 0.6,-3.6 -0.4,-0.4 -1,-0.8 -1.4,-1.2 -1.5,-1.2 -3,-2.4 -4.5,-3.7 -1.7,-1.4 -2.5,-3.3 -2,-5.5 0.5,-2.3 2.1,-3.6 4.3,-4.2 3.3,-1 6.6,-0.5 9.8,0.4 0.4,0.1 1,0.7 1,1.1 0.2,1 0.2,2.1 0.2,3.3 -1.1,-0.3 -2,-0.6 -2.9,-0.6 -1.4,-0.1 -2.9,-0.1 -4.3,0 -0.9,0.1 -1.7,0.5 -1.9,1.5 -0.2,1 0.3,1.7 1,2.3 z m 12.9,-84.3 c -3.3,0.9 -6.6,1.6 -9.8,2.6 -3,0.9 -5.9,0.8 -8.9,0.3 -5.3,-0.8 -10.7,-1.4 -16.1,-1.4 -4.2,0 -8.4,-0.2 -12.6,0.1 -5.5,0.3 -11,0.8 -16.4,1.4 -6,0.7 -12,1.6 -18,2.7 -7.8,1.4 -15.6,2.9 -23.4,4.4 -10,1.9 -20,3.9 -30,5.7 -5,0.9 -10.1,1.3 -15.1,1.6 -4.8,0.3 -9.6,0.4 -14.5,0.4 -5.2,0 -10.2,-1 -15.2,-2.1 -2.9,-0.6 -3.6,-0.3 -3.5,-4 0.1,-1.9 -0.7,-2.5 -3,-2.9 -3.1,-0.5 -6.2,-0.9 -9.2,-1.6 -4.2,-1 -8.4,-2.1 -12.5,-3.4 -4.2,-1.4 -7.6,-4 -9.9,-8 -1.7,-3 -4.3,-4.8 -7.7,-5.4 -0.7,-0.1 -1.4,-0.3 -2.4,-0.5 2.4,-1 4.6,-1.6 6.8,-1.9 1.4,-0.2 2.9,-0.4 4.3,-0.3 2.2,0.2 4.2,1.2 5.8,2.8 1.3,1.3 2.5,2.7 3.5,4.2 4,5.8 9.8,8.5 16.6,9.5 3.7,0.5 7.3,0.6 11,0.1 2.1,-0.3 4.2,0 6.3,0.8 1.8,0.8 2.1,1.4 1.2,3.2 -0.2,0.5 -0.6,1 -0.7,1.5 -0.4,1.1 -0.1,1.7 1.1,1.9 2.1,0.4 4.3,0.9 6.5,1.1 4.8,0.6 9.5,1.3 14.3,1.6 3.8,0.3 7.6,0.3 11.5,0.2 3.6,-0.1 7.2,-0.5 10.8,-1 5.4,-0.7 10.8,-1.6 16.1,-2.5 11.1,-1.9 21.9,-5.2 32.8,-7.8 7.7,-1.9 15.5,-3.5 23.4,-4.4 6,-0.7 12.1,-1.3 18.1,-1.9 9.7,-1 19.4,-1.1 29.1,-0.6 5.3,0.2 10.6,1 15.9,1.5 0.2,0 0.3,0.2 0.5,0.2 0,0.1 0,0.2 0,0.3 -2.2,0.5 -4.5,1 -6.7,1.6 z"
   id="path110"
   inkscape:connector-curvature="0"
   style="fill:#005ca9" />
		<path
   class="st3"
   d="m 375.7,252.2 c 2.7,-5.4 5.2,-10.7 8,-16.4 2,5.7 3.9,11 5.7,16.3 -1.3,0.5 -11.2,0.6 -13.7,0.1 z"
   id="path112"
   inkscape:connector-curvature="0"
   style="fill:#005ca9" />
		<path
   class="st3"
   d="m 60.9,382.5 c 1.1,3.1 2.2,6.3 3.4,9.5 -2.9,0 -5.6,0 -8.6,0 1.7,-3.3 3.2,-6.4 4.8,-9.5 0.1,0 0.2,0 0.4,0 z"
   id="path114"
   inkscape:connector-curvature="0"
   style="fill:#005ca9" />
		<path
   class="st3"
   d="m 338.4,388.7 c -0.1,3.4 0.1,6.5 -0.8,9.6 -0.3,0.9 -0.7,1.9 -1.2,2.7 -1.3,2 -3.2,2.7 -5.5,2.3 -2.3,-0.4 -3.6,-1.8 -4.2,-4 -1.4,-5.4 2.4,-10.5 8,-10.6 1.1,0 2.3,0 3.7,0 z"
   id="path116"
   inkscape:connector-curvature="0"
   style="fill:#005ca9" />
		<path
   class="st3"
   d="m 296.1,428.2 c -0.2,2.7 -0.4,5.4 -0.7,8 -0.2,1.2 -0.6,2.4 -1.2,3.5 -1.1,2.1 -3.3,3.1 -5.7,2.8 -2.1,-0.3 -3.9,-2 -4.4,-4.3 -1.3,-5.5 2.5,-10.3 8.2,-10.4 1.1,0 2.1,0 3.2,0.1 0.2,0 0.3,0.1 0.6,0.3 z"
   id="path118"
   inkscape:connector-curvature="0"
   style="fill:#005ca9" />
		<path
   class="st3"
   d="m 141.4,395.8 c -0.2,1.1 -0.3,2.2 -0.6,3.3 -1.1,3.3 -3.8,4.9 -7.2,4.3 -2.1,-0.4 -3.6,-1.7 -4.3,-3.7 -0.8,-2.5 -0.6,-5.1 0.5,-7.5 1.3,-2.7 3.8,-3.9 6.9,-3.4 2.6,0.5 4.3,2.5 4.6,5.5 0,0.5 0,1 0,1.5 0,0 0.1,0 0.1,0 z"
   id="path120"
   inkscape:connector-curvature="0"
   style="fill:#005ca9" />
		<path
   class="st3"
   d="m 254,396.5 c -0.1,-1.7 0.3,-3.2 1.1,-4.7 1.3,-2.4 3.6,-3.5 6.5,-3 2.4,0.3 4,1.9 4.6,4.6 0.5,1.9 0.3,3.9 -0.3,5.7 -1.1,3.2 -3.6,4.8 -7,4.3 -2.8,-0.4 -4.8,-2.7 -4.9,-6 -0.1,-0.3 0,-0.6 0,-0.9 z"
   id="path122"
   inkscape:connector-curvature="0"
   style="fill:#005ca9" />
		<path
   class="st3"
   d="m 314,432.2 c 0,-4.6 5,-6.2 8.1,-4.6 1.4,0.7 1.9,2 2,4.3 -1.2,0.5 -7.3,0.7 -10.1,0.3 z"
   id="path124"
   inkscape:connector-curvature="0"
   style="fill:#005ca9" />
		<path
   class="st3"
   d="m 356.4,393.1 c 0.5,-3.5 2.9,-5.4 6.3,-5.1 2.6,0.2 3.9,2 3.8,5.1 -3.3,0 -6.7,0 -10.1,0 z"
   id="path126"
   inkscape:connector-curvature="0"
   style="fill:#005ca9" />
		<path
   class="st3"
   d="m 490.8,432.3 c -3.5,0 -6.8,0 -10.2,0 0.3,-3.4 2.6,-5.4 6,-5.2 3,0.1 4.3,1.8 4.2,5.2 z"
   id="path128"
   inkscape:connector-curvature="0"
   style="fill:#005ca9" />
		<path
   class="st3"
   d="m 518.2,393.3 c 0.5,-3.7 2.9,-5.6 6.4,-5.3 2.6,0.3 3.9,1.9 3.8,5.3 -1.7,0 -3.3,0 -5,0 -1.7,0 -3.4,0 -5.2,0 z"
   id="path130"
   inkscape:connector-curvature="0"
   style="fill:#005ca9" />
	</g>
</g>
</svg>