<svg xmlns="http://www.w3.org/2000/svg" viewBox="0 0 283.5 283.5"><path fill="none" d="M141.5 124.4c-3.9-4.4-7.5-9-11-13.7 3.5 4.7 7.2 9.3 11 13.7-5.4 6.2-11.2 12.1-17.3 17.5 6.2 5.4 12.1 11.2 17.5 17.4 2 2.3 3.9 4.6 5.8 6.9-1.9-2.3-3.8-4.7-5.8-6.9 5.4-6.2 11.3-12 17.4-17.4-6.2-5.5-12.1-11.3-17.6-17.5zM91.6 165.1z"/><path fill="#8CC0D9" d="M283.6 189.2v-38.6c-45.8 0-86.2 23.2-110.2 58.4 9.8 22.5 15.3 47.2 15.6 73.2.9-51.4 42.9-93 94.6-93zM150.3 283.9c.1-.4 0-.9 0-1.3v1.3zM147.5 166.2c-1.9-2.3-3.8-4.7-5.8-6.9-5.4-6.2-11.3-11.9-17.5-17.4-1.2 1.1-2.5 2.2-3.8 3.3-8.9 7.5-18.6 14.1-28.8 19.9 10.1 7.8 19.3 16.8 27.1 26.9 9.9 12.7 17.8 27.1 23.2 42.6 5.3 15.1 8.2 31.3 8.3 48.1.3-27.3 8.7-52.6 23.1-73.7-2.6-5.9-5.4-11.6-8.5-17.1-5-9.1-10.8-17.6-17.3-25.7zM189 283.9v-1.7c-.1.6-.1 1.2 0 1.7z"/><path fill="#2C9DBE" d="M150.3 283.9h38.6v-1.7c-.2-26-5.8-50.7-15.6-73.2-14.4 21-22.8 46.4-23.1 73.7.1.4.1.8.1 1.2z"/><path fill="#5CB2A5" d="M-.2 150.4c.5.1.9 0 1.4 0-.5.1-1 0-1.4 0zM94.3 283.8h38.6c0-45.8-23.1-86.2-58.3-110.2-22.5 9.8-47.2 15.4-73.3 15.6 51.5.8 93 42.9 93 94.6zM-.2 150.5v38.6h1.6-1.6v-38.6z"/><path fill="#5CB2A5" d="M124.2 142c6.2-5.4 11.9-11.3 17.3-17.5-3.9-4.4-7.5-9-11-13.7-4.4-6-8.5-12.3-12.1-18.9-7.8 10.1-16.8 19.3-26.9 27.2-12.7 9.9-27 17.8-42.5 23.2-15 5.3-31 8.2-47.8 8.4 27.2.3 52.5 8.7 73.4 23.1 5.8-2.5 11.5-5.3 17-8.4 10.2-5.7 19.9-12.4 28.8-19.9 1.3-1.4 2.6-2.4 3.8-3.5z"/><path fill="#00977A" d="M-.2 150.5v38.6h1.6c26.1-.2 50.8-5.8 73.3-15.6-21-14.3-46.2-22.8-73.4-23.1-.6.1-1.1.1-1.5.1z"/><path fill="#C5CC2E" d="M133.1-.1c-.1.5 0 .9 0 1.4V-.1zM-.2 94.6v38.7c45.7 0 86.2-23.2 110.2-58.4-9.8-22.5-15.3-47.2-15.6-73.2-.9 51.4-43 92.9-94.6 92.9z"/><path fill="#C5CC2E" d="M130.5 110.7c3.5 4.7 7.1 9.3 11 13.7 5.5 6.2 11.4 12 17.6 17.4 8.7-7.7 18.2-14.6 28.2-20.7 1.4-.9 2.9-1.7 4.3-2.5-10.2-7.8-19.3-16.9-27.2-27-9.9-12.7-17.7-27.1-23.2-42.6-5.2-15-8.2-31.1-8.3-47.8-.3 27.2-8.7 52.6-23.1 73.6 2.5 5.8 5.3 11.4 8.4 16.9 3.9 6.7 7.9 13 12.3 19zM94.4-.1v1.7c.1-.5.1-1.1 0-1.7z"/><path fill="#C5CC2E" d="M130.5 110.7c-4.4-6-8.5-12.3-12.1-18.9 3.7 6.6 7.7 12.9 12.1 18.9z"/><path fill="#93B63D" d="M133.1-.1H94.5v1.7c.2 26 5.8 50.7 15.6 73.2 14.3-21 22.8-46.3 23.1-73.6-.1-.4-.1-.8-.1-1.3z"/><path fill="#EE7E22" d="M283.7 133.3c-.5-.1-1 0-1.5 0h1.5zM189.1 0h-38.6c0 45.8 23.2 86.2 58.4 110.2 22.5-9.8 47.2-15.3 73.1-15.6-51.4-.9-92.9-43-92.9-94.6zM282 94.6h1.8v-.1c-.6.1-1.2.1-1.8.1z"/><path fill="#EE7E22" d="M191.7 118.7c-1.5.8-2.9 1.7-4.3 2.5-10.1 6-19.5 12.9-28.2 20.7-6.2 5.4-12 11.2-17.4 17.4 2 2.3 3.9 4.6 5.8 6.9 6.5 8.1 12.3 16.6 17.4 25.7 7.8-10.1 16.9-19.2 27-27 12.7-9.9 27-17.8 42.4-23.2 15.1-5.3 31.2-8.3 48-8.4-27.2-.3-52.4-8.8-73.4-23.1-6 2.6-11.7 5.4-17.3 8.5z"/><path fill="#EE7E22" d="M164.9 191.9c-5.1-9-10.9-17.6-17.4-25.7 6.5 8.1 12.3 16.6 17.4 25.7zM159.2 141.9c8.7-7.7 18.2-14.6 28.2-20.7-10.1 6-19.5 13-28.2 20.7z"/><path fill="#E64325" d="M208.9 110.2c21 14.3 46.2 22.7 73.4 23.1h1.5V94.7H282c-26 .2-50.7 5.7-73.1 15.5z"/></svg>