<svg xmlns="http://www.w3.org/2000/svg" xmlns:xlink="http://www.w3.org/1999/xlink" width="557.77" height="600"><defs><linearGradient xlink:href="#a" id="i" x1="703.648" y1="112.241" x2="449.996" y2="339.588" gradientUnits="userSpaceOnUse" gradientTransform="matrix(1.63077 0 0 1.33862 -636.89 451.243)"/><linearGradient id="d"><stop offset="0" stop-color="#dc0223"/><stop offset=".166" stop-color="#dc0424"/><stop offset=".377" stop-color="#de0b2b"/><stop offset=".571" stop-color="#d62b35"/><stop offset=".84" stop-color="#de917d"/><stop offset="1" stop-color="#dfd1a7"/></linearGradient><linearGradient id="b"><stop offset="0" stop-color="#c8af74"/><stop offset=".137" stop-color="#d0b985"/><stop offset=".264" stop-color="#d3c08e"/><stop offset=".376" stop-color="#e1d2ab"/><stop offset=".499" stop-color="#d5cb99"/><stop offset=".598" stop-color="#d5bb8e"/><stop offset=".715" stop-color="#c3a068"/><stop offset=".848" stop-color="#c09a5e"/><stop offset="1" stop-color="#bd9659"/></linearGradient><linearGradient id="a"><stop offset="0" stop-color="#0075bb"/><stop offset=".152" stop-color="#0864a8"/><stop offset=".237" stop-color="#0f5395"/><stop offset=".324" stop-color="#184281"/><stop offset=".414" stop-color="#21316f"/><stop offset=".504" stop-color="#252966"/><stop offset=".655" stop-color="#21255d"/><stop offset=".824" stop-color="#1d2053"/><stop offset="1" stop-color="#161944"/></linearGradient><linearGradient xlink:href="#c" id="k" x1="139.366" y1="599.839" x2="138.461" y2="491.156" gradientUnits="userSpaceOnUse"/><linearGradient id="c"><stop offset="0" stop-color="#db0021"/><stop offset=".235" stop-color="#de0b2b"/><stop offset=".462" stop-color="#dc1931"/><stop offset=".655" stop-color="#cd453b"/><stop offset=".857" stop-color="#cb4e40"/><stop offset="1" stop-color="#bd9359"/></linearGradient><linearGradient xlink:href="#b" id="h" x1="717.739" y1="102.847" x2="438.723" y2="347.104" gradientUnits="userSpaceOnUse" gradientTransform="matrix(1.68446 0 0 1.3827 -667.944 441.277)"/><linearGradient xlink:href="#d" id="j" x1="370.01" y1="601.329" x2="368.876" y2="492.593" gradientUnits="userSpaceOnUse"/><clipPath id="f" clipPathUnits="userSpaceOnUse"><path d="M36 413.667v-23.804l19.064-6.798 19.056 6.798v23.806l-16.876 6.025c.341-.816 1.137-2.712 1.137-2.712l-3.317 1.681-3.316-1.681 1.14 2.713L36 413.667z"/></clipPath><clipPath id="g" clipPathUnits="userSpaceOnUse"><path d="M36 413.667v-23.804l19.064-6.798 19.056 6.798v23.806l-16.876 6.025c.341-.816 1.137-2.712 1.137-2.712l-3.317 1.681-3.316-1.681 1.14 2.713L36 413.667z"/></clipPath><clipPath clipPathUnits="userSpaceOnUse" id="e"><path d="M36 413.667v-23.804l19.064-6.798 19.056 6.798v23.806l-16.876 6.025c.341-.816 1.137-2.712 1.137-2.712l-3.317 1.681-3.316-1.681 1.14 2.713L36 413.667z"/></clipPath></defs><path d="M306.367 494.698L64.933 602.392v303.263l241.31 108.208 241.312-108.208V602.39z" fill="url(#h)" transform="translate(-75.043 -571.723) scale(1.1557)"/><path d="M83.368 613.521L83.29 896.63l222.953 101.726L529.2 896.63l-.083-283.108-222.753-100.07z" fill="url(#i)" transform="translate(-75.043 -571.723) scale(1.1557)"/><path d="M21.213 463.365v2.005c50.655 28.937 172.608 79.427 257.668 117.258 85.06-37.831 207.012-88.321 257.667-117.258v-2.005c-85.897 34.668-171.78 69.372-257.667 104.063-85.945-34.549-171.694-69.586-257.668-104.063z" fill="#fff" fill-rule="evenodd"/><path transform="translate(0 -93.42) scale(1.1557)" d="M464.262 483.508c-43.831 25.038-149.353 68.726-222.953 101.46V600L482.62 491.791z" fill="url(#j)"/><path transform="translate(0 -93.42) scale(1.1557)" d="M241.309 584.969c-73.6-32.735-179.123-76.423-222.954-101.461L0 491.79 241.309 600z" fill="url(#k)"/><g><path d="M361.764 128.952c-.183 2.261 1.562 4.2 3.884 4.396 2.308.197 4.335-1.489 4.518-3.736.183-2.233-1.562-4.186-3.899-4.368-2.322-.183-4.334 1.475-4.503 3.708M386.193 111.667s-17.046 24.04 9.746 27.528c0 0-10.909 2.288-17.618-1.996-6.708-4.299-2.87-15.902 7.872-25.532" fill="#fff"/><path d="M379.786 141.245c1.735 5.244 6.38 6.465 12.553 7.298 6.186.832 16.444 5.042 12.547 15.413-2.145 5.632-7.976 8.775-16.465 3.429-8.425-5.283-12.535-15.062-8.635-26.14M359.158 96.325c-12.076-2.022-17.733-5.8-18.493-9.045 0 0-8.726 8.82-3.477 16.49 0 0-7.726 3.918-12.737.828 0 0-5.756 6.447-1.773 15.155.098.267.281.52.408.786-5.573 3.357-9.852 4.087-12.16 3.245 0 0 2.42 7.5 10.19 8.202 0 0-.648 5.085-5.039 6.152 0 0 2.055 5.21 10.007 6.882 4.32.913 11.358.941 16.495-1.91-3.786-3.273-4.603-6.742-3.983-10.028a18.135 18.135 0 013.279-6.686 23.296 23.296 0 015.475-4.705v-.028c7.698-4.523 18.409-4.607 25.446-3.062l1.886-.997c3.8-6.194-.873-18.835-15.524-21.279" fill="#d30b23"/><g fill="#fff"><path d="M195.58 268.265l-.13.41.128.176.039-.039a54.177 54.177 0 00-.037-.547zm-.28 3.172c-3.882 12.93-4.524 22.595-3.042 29.556 1.6 7.514 5.468 12.081 9.971 14.91 4.503 2.83 9.662 3.894 13.763 4.238a42.42 42.42 0 005.136.117l.117-.007c-12.06-5.872-18.633-18.322-22.148-29.57-2.842-9.098-3.532-15.862-3.797-19.245zM273.039 231.978c-4.132 23.734-13.98 56.786-15.288 81.217-1.376 25.926 4.308 44.752 10.324 57.1 4.966 10.19 9.31 14.922 10.963 16.62-2.456-10.906-3.05-27.671-1.263-45.12 1.896-18.508 6.388-37.515 14.078-50.268 5.714-9.5 12.384-27.658 17.047-39.703-4.048-2.704-7.794-5.182-10.692-6.777l-.014-.007-.018-.012c-.002-.001-.002-.004-.005-.005-8.513-4.688-16.713-9.543-25.132-13.046zM246.302 127.471c-1.319.005-2.64.038-3.967.105-18.949.952-41.504 7.624-58.985 19.215 40.378-10.16 70.697 2.224 86.656 30.007l.012.023.01.02c.258.552.77 1.676 1.14 2.503 17.27 2.058 32.359 9.157 45.492 17.56l-.39-11.757c-2.437-11.293-8.991-24.072-17.667-34.304-13.902-16.383-32.531-23.43-52.3-23.372z"/><path d="M261.091 182.683c-11.279 0-26.77 1.278-40.197 6.642l-.005.002-.007.002c-40.659 17.29-52.648 47.977-52.673 75.94-.012 13.982 2.994 27.276 6.952 37.804 3.426 9.11 7.564 15.946 10.983 19.521-3.745-10.854-5.136-27.318-.762-44.282 4.665-18.09 15.815-36.492 37.355-48.236l.01-.004.009-.005c16.3-8.148 30.006-8.43 42.434-5.075 12.427 3.355 23.577 10.303 34.942 16.56 8.234 4.53 20.267 13.66 33.746 21.499 5.303-6.283 10.36-12.877 14.703-19.892 2.274-4.68 4.032-8.853 5.432-13.165-.54-.377-1.083-.753-1.623-1.149-21.136-15.499-50.737-46.162-91.298-46.162zm152.14 50.526c-3.761 5.603-8.304 9.164-13.396 10.852-5.645 1.87-11.875 1.582-18.254-.083-6.094 14.912-12.282 23.303-20.87 30.854 4.74 1.242 9.47 1.992 14.102 1.917 17.25-.278 26.9-11.732 32.334-23.232 4.43-9.377 5.662-17.178 6.084-20.308z"/><path d="M211.424 150.49c-3.486.017-6.981.272-10.45.744-18.498 2.52-36.234 11.268-47.73 23.109-22.167 25.945-22.834 51.704-17.991 71.058 4.13 16.504 11.903 27.748 14.216 30.865.5-19.614.358-33.834 3.166-46.334 2.9-12.91 8.978-24.192 22.085-38.285l.019-.018.018-.018c25.951-23.41 43.732-24.761 77.418-27.166-10.756-9.037-23.838-13.329-37.27-13.89a75.058 75.058 0 00-3.481-.064zM401.173 186.04c1.627 15.109 4.877 37.305-9.296 54.177 5.853.522 10.64-1.77 14.264-5.736 3.842-4.204 6.367-10.189 7.347-16.202 1.118-11.247-1.456-22.183-12.315-32.24z" fill-rule="evenodd"/><path d="M352.19 165.173l.098.196.032-.12c-.044-.025-.086-.052-.13-.076zm1.405 1.601c2.081 4.326 8.932 19.994 8.221 39.498-.616 16.908-3.697 26.451-9.709 38.79l-.014.028-.014.025c-9.172 14.859-21.262 27.69-32.185 39.413-10.205 10.953-19.21 20.934-24.069 30.61.507-.328.927-.6 1.625-1.049 2.281-1.462 5.548-3.552 9.546-6.15 7.984-5.188 18.886-12.412 30.629-20.713l.048-.034h.003c24.034-17.02 32.486-21.489 43.843-54.157 6.94-26.569-2.563-51.56-27.924-66.26zm-59.39 150.072c-.016.036-.036.07-.051.106v.016c.003-.007.125-.086.142-.101l-.092-.02z" stroke-width="3.8"/></g><g fill="#fff" fill-rule="evenodd"><path d="M144.947 408.453v68.712h17.733v-23.643h45.876v-14.286H162.68v-15.428h52.976v-15.355zM249.596 408.453v68.712h17.733v-23.643h45.876v-14.286H267.33v-15.428h52.976v-15.355zM354.245 408.453v68.712h17.733v-23.643h45.876v-14.286h-45.876v-15.428h52.976v-15.355z"/></g></g></svg>