<svg height="113.66" viewBox="0 0 209.99974 113.66" width="209.99974" xmlns="http://www.w3.org/2000/svg" xmlns:xlink="http://www.w3.org/1999/xlink"><clipPath id="a"><path d="m1.712 864.167h573.154v-863.638h-573.154z"/></clipPath><clipPath id="b"><path d="m1.712 863.257h572.618v-862.757h-572.618z"/></clipPath><clipPath id="c"><path d="m20.712 842.5h554.575v-842h-554.575z"/></clipPath><clipPath id="d"><path d="m472.022 590.626h16.494v14.328h-16.494z"/></clipPath><clipPath id="e"><path d="m437.753 83.644h63.413v32.866h-63.413z"/></clipPath><g transform="matrix(1.3333333 0 0 -1.3333333 -520.94611 190.26667)"><g clip-path="url(#a)"><g clip-path="url(#b)"><g clip-path="url(#c)"><path d="m434.874 606.527h20.144v-20.144h-20.144z" fill="#006ab6"/><path d="m478.504 616.02c2.522.271 8.792-7.483 16.843-8.45 5.679-.683-1.36-7.366-1.323-12.057.04-5.229 1.311-6.646 2.425-8.76 1.256-2.381-11.067-.437-13.241-2.606-1.896-1.891-1.389-2.886-1.634-4.263-.245-1.382-8.792.076-14.332 3.322-1.633.956 1.838 4.929 1.78 7.643-.074 3.412.569 7.073-4.792 9.442-6.937 3.065-3.585 6.376-.268 6.468 3.841.107 9.287 2.148 11.512 5.072.981 1.289 1.664 4.042 3.03 4.189" fill="#fff" fill-rule="evenodd"/></g></g></g><g clip-path="url(#d)"><path d="m472.022 599.851h2.468s1.337-6.928 5.976-6.928 5.846 6.928 5.846 6.928c.236 1.495 2.403 1.342 2.189-.031-.152-.973-1.413-9.194-8.065-9.194-6.653 0-8.414 9.225-8.414 9.225" fill="#fff"/></g><g transform="matrix(2.3654426 0 0 2.3654426 -641.02 -136.65008)"><g fill="#006fb5"><path d="m447.629 104.89h9.816s.17-.818.17-1.47h2.248s-.042 1.9-.554 3.305c-.51 1.406-1.192 2.706-2.086 3.787-.894 1.08-2.676 2.039-4.728 2.039-2.04 0-3.682-.908-4.709-2.091-.614-.707-1.486-2.234-2.08-4.096-.339-1.064-.543-1.917-.571-2.333 0 0 .1-1.002 1.066-1.002.965 0 1.155.846 1.155.846s.273.937.273 1.015zm.465 1.855s.231 1.031 1.39 2.432c.522.63 1.394 1.412 3.012 1.412 1.569 0 2.564-.738 3.154-1.503.488-.633.962-1.502 1.274-2.341z"/><path d="m442.626 96.288-.577 1.459-.577-1.459zm.512-1.297-.37.935h-1.437l-.372-.935h-.447l1.344 3.388h.472l1.329-3.388z"/><path d="m445.762 95.849v1.041c-.2.207-.418.31-.653.31-.209 0-.373-.084-.491-.25-.118-.169-.178-.398-.178-.69 0-.547.194-.821.579-.821.263 0 .51.137.743.41zm-1.596-1.684.052.393c.263-.126.521-.189.777-.189.511 0 .767.269.767.807v.391c-.168-.348-.442-.522-.824-.522-.298 0-.537.109-.713.327-.176.217-.264.511-.264.88 0 .38.1.688.301.928.202.239.461.359.78.359.278 0 .519-.113.72-.339v.283h.448v-1.812c0-.39-.02-.679-.061-.866-.04-.187-.116-.34-.228-.46-.197-.209-.505-.314-.92-.314-.291 0-.569.044-.835.134"/><path d="m447.355 96.508h1.12c0 .461-.177.692-.529.692-.353 0-.55-.231-.591-.692zm1.56-1.439c-.303-.089-.564-.133-.779-.133-.369 0-.669.121-.901.365s-.349.559-.349.947c0 .377.103.686.307.928.204.241.466.363.784.363.301 0 .534-.108.699-.321.164-.213.247-.516.247-.909l-.002-.139h-1.587c.066-.597.36-.896.88-.896.191 0 .424.049.701.149z"/><path d="m449.697 94.991v2.492h.448v-.471c.24.351.534.527.883.527.216 0 .389-.069.519-.206.129-.137.194-.321.194-.552v-1.79h-.448v1.641c0 .185-.028.317-.083.395-.055.079-.146.118-.272.118-.281 0-.545-.181-.793-.544v-1.61z"/><path d="m453.581 94.936c-.337 0-.615.123-.838.372-.221.25-.332.564-.332.944 0 .405.11.721.329.947s.524.34.916.34c.194 0 .411-.024.65-.071v-.378c-.254.073-.46.11-.62.11-.23 0-.415-.087-.555-.261-.139-.173-.208-.405-.208-.694 0-.281.071-.508.215-.681.144-.172.331-.259.563-.259.206 0 .418.052.637.158v-.394c-.292-.089-.544-.133-.757-.133"/><path d="m455.284 96.508h1.119c0 .461-.176.692-.528.692-.354 0-.551-.231-.591-.692zm1.559-1.439c-.304-.089-.563-.133-.78-.133-.367 0-.668.121-.9.365s-.348.559-.348.947c0 .377.101.686.306.928.204.241.465.363.784.363.302 0 .535-.108.699-.321.165-.213.247-.516.247-.909l-.002-.139h-1.586c.066-.597.359-.896.879-.896.19 0 .424.049.701.149z"/><path d="m459.102 94.991v3.388h.468l1.709-2.618v2.618h.409v-3.388h-.466l-1.712 2.617v-2.617z"/><path d="m463.801 95.557v.653l-.152.003c-.25 0-.452-.047-.606-.141-.155-.096-.232-.221-.232-.376 0-.109.038-.202.116-.277.077-.076.171-.114.283-.114.189 0 .386.084.591.252zm.066-.249c-.271-.249-.533-.372-.784-.372-.208 0-.379.064-.515.193-.137.13-.205.293-.205.492 0 .272.114.482.344.628s.558.22.986.22h.108v.299c0 .288-.148.432-.448.432-.24 0-.5-.074-.777-.221v.379c.304.119.59.181.858.181.278 0 .484-.064.617-.189.132-.126.199-.32.199-.584v-1.129c0-.259.079-.387.236-.387.019 0 .049.003.086.008l.032-.249c-.102-.049-.214-.073-.336-.073-.21 0-.343.123-.401.372"/><path d="m465.915 94.936c-.229 0-.406.065-.535.196-.127.132-.191.315-.191.549v1.464h-.314v.338h.314v.452l.449.043v-.495h.644v-.338h-.644v-1.383c0-.325.14-.488.419-.488.06 0 .132.01.218.031v-.314c-.139-.037-.259-.055-.36-.055"/><path d="m466.929 97.483h.448v-2.493h-.448zm0 .896h.448v-.448h-.448z"/><path d="m469.261 95.274c.481 0 .722.323.722.968 0 .639-.237.958-.713.958-.473 0-.711-.321-.711-.963s.234-.963.702-.963zm-.005-.338c-.359 0-.643.118-.857.353-.212.237-.318.553-.318.948 0 .401.106.718.319.951.215.234.505.351.871.351.367 0 .657-.117.871-.351.214-.233.321-.549.321-.946 0-.406-.108-.726-.323-.958-.214-.232-.509-.348-.884-.348"/><path d="m471.158 94.991v2.492h.448v-.471c.241.351.535.527.883.527.217 0 .39-.069.52-.206.128-.137.194-.321.194-.552v-1.79h-.449v1.641c0 .185-.027.317-.082.395-.055.079-.145.118-.273.118-.28 0-.545-.181-.793-.544v-1.61z"/><path d="m475.297 95.557v.653l-.153.003c-.25 0-.452-.047-.607-.141-.154-.096-.231-.221-.231-.376 0-.109.039-.202.116-.277.076-.076.171-.114.282-.114.19 0 .388.084.593.252zm.066-.249c-.272-.249-.534-.372-.785-.372-.207 0-.38.064-.516.193-.136.13-.204.293-.204.492 0 .272.114.482.344.628.229.146.558.22.987.22h.108v.299c0 .288-.15.432-.449.432-.24 0-.499-.074-.779-.221v.379c.306.119.592.181.859.181.279 0 .485-.064.618-.189.132-.126.198-.32.198-.584v-1.129c0-.259.079-.387.236-.387.021 0 .048.003.088.008l.03-.249c-.101-.049-.212-.073-.336-.073-.209 0-.342.123-.399.372"/><path d="m476.668 98.607h.449v-3.617h-.449z"/><path d="m478.29 96.508h1.118c0 .461-.176.692-.527.692-.354 0-.552-.231-.591-.692zm1.559-1.439c-.304-.089-.564-.133-.78-.133-.367 0-.668.121-.901.365-.232.244-.348.559-.348.947 0 .377.102.686.306.928.204.241.467.363.785.363.301 0 .534-.108.699-.321.164-.213.247-.516.247-.909l-.002-.139h-1.587c.067-.597.36-.896.88-.896.19 0 .424.049.701.149z"/><path d="m438.201 89.956c.235-.208.459-.312.671-.312.439 0 .658.331.658.994 0 .586-.194.878-.584.878-.255 0-.503-.137-.745-.41zm-.448-1.499v3.397h.448v-.467c.186.348.465.521.837.521.302 0 .539-.109.712-.327.173-.22.26-.518.26-.897 0-.413-.099-.746-.295-.998-.195-.254-.454-.38-.774-.38-.297 0-.544.113-.74.338v-1.187z"/><path d="m441.689 89.644c.482 0 .722.323.722.969 0 .638-.237.957-.712.957-.474 0-.711-.321-.711-.962 0-.643.234-.964.701-.964zm-.005-.338c-.357 0-.642.118-.855.354-.214.236-.32.552-.32.948 0 .4.107.717.321.951.213.233.504.349.87.349.367 0 .657-.116.87-.349.215-.234.321-.549.321-.946 0-.406-.107-.726-.322-.959-.214-.233-.509-.348-.885-.348"/><path d="m445.152 89.361v.473c-.24-.352-.532-.528-.875-.528-.219 0-.392.068-.52.204-.129.138-.194.322-.194.555v1.789h.449v-1.641c0-.185.027-.318.082-.396.054-.079.145-.118.274-.118.276 0 .538.181.784.543v1.612h.448v-2.493z"/><path d="m446.498 89.361v2.493h.449v-.467c.179.348.441.521.783.521.046 0 .094-.003.145-.007v-.425c-.078.026-.147.04-.208.04-.287 0-.526-.171-.72-.51v-1.645z"/><path d="m449.911 92.978h.448v-3.618h-.448z"/><path d="m452.486 89.928v.652l-.153.004c-.25 0-.452-.047-.606-.143-.155-.095-.232-.219-.232-.374 0-.109.038-.202.116-.278.076-.076.171-.114.282-.114.19 0 .387.084.593.253zm.065-.249c-.271-.249-.532-.373-.784-.373-.207 0-.379.065-.515.194-.137.129-.205.293-.205.491 0 .272.115.482.343.628.23.147.559.22.988.22h.108v.299c0 .289-.15.432-.448.432-.241 0-.501-.074-.779-.22v.378c.305.12.591.18.858.18.279 0 .485-.062.618-.188.132-.125.199-.319.199-.585v-1.128c0-.258.079-.387.236-.387.02 0 .048.002.086.008l.031-.249c-.101-.049-.213-.073-.336-.073-.208 0-.343.124-.4.373"/><path d="m455.806 91.154h.156c.603 0 .906.236.906.71 0 .35-.254.525-.761.525h-.301zm-.48-1.793v3.389h1.027c.326 0 .576-.072.749-.216.174-.143.261-.352.261-.626 0-.452-.228-.773-.684-.963l1.132-1.584h-.591l-.966 1.431h-.448v-1.431z"/><path d="m458.819 92.302.554.739h.523l-.737-.739zm-.246-1.423h1.119c0 .46-.176.691-.528.691-.353 0-.551-.231-.591-.691zm1.56-1.439c-.305-.09-.564-.134-.78-.134-.368 0-.669.121-.901.365s-.348.56-.348.947c0 .378.102.687.306.928.204.242.466.362.784.362.302 0 .535-.106.7-.32.164-.212.247-.516.247-.908l-.002-.139h-1.587c.067-.599.36-.897.88-.897.19 0 .424.049.701.15z"/><path d="m460.914 89.361v2.493h.448v-.472c.241.351.535.526.883.526.217 0 .39-.068.519-.205.131-.137.195-.321.195-.552v-1.79h-.448v1.641c0 .184-.028.316-.083.395-.055.078-.146.119-.273.119-.28 0-.545-.181-.793-.544v-1.611z"/><path d="m464.81 89.644c.481 0 .722.323.722.969 0 .638-.238.957-.713.957-.473 0-.71-.321-.71-.962 0-.643.233-.964.701-.964zm-.005-.338c-.358 0-.643.118-.856.354-.214.236-.32.552-.32.948 0 .4.107.717.321.951.214.233.504.349.87.349.367 0 .657-.116.871-.349.214-.234.32-.549.32-.946 0-.406-.107-.726-.321-.959-.215-.233-.51-.348-.885-.348"/><path d="m467.227 89.361-.928 2.493h.452l.723-1.94.765 1.94h.419l-.982-2.493z"/><path d="m470.362 89.928v.652l-.153.004c-.25 0-.452-.047-.606-.143-.154-.095-.232-.219-.232-.374 0-.109.04-.202.116-.278.078-.076.172-.114.283-.114.189 0 .387.084.592.253zm.066-.249c-.271-.249-.533-.373-.785-.373-.206 0-.379.065-.515.194-.137.129-.205.293-.205.491 0 .272.115.482.344.628.23.147.559.22.987.22h.108v.299c0 .289-.149.432-.448.432-.24 0-.5-.074-.778-.22v.378c.304.12.591.18.858.18.279 0 .484-.062.617-.188.134-.125.2-.319.2-.585v-1.128c0-.258.078-.387.235-.387.019 0 .049.002.086.008l.032-.249c-.102-.049-.214-.073-.336-.073-.209 0-.342.124-.4.373"/><path d="m472.475 89.306c-.228 0-.406.066-.534.197-.128.132-.191.315-.191.548v1.465h-.314v.338h.314v.451l.448.045v-.496h.646v-.338h-.646v-1.383c0-.326.14-.489.42-.489.06 0 .132.01.217.031v-.314c-.138-.037-.258-.055-.36-.055"/><path d="m473.489 91.854h.448v-2.493h-.448zm0 .896h.448v-.448h-.448z"/><path d="m475.821 89.644c.482 0 .722.323.722.969 0 .638-.237.957-.712.957-.474 0-.71-.321-.71-.962 0-.643.233-.964.7-.964zm-.005-.338c-.357 0-.643.118-.855.354-.214.236-.32.552-.32.948 0 .4.106.717.321.951.214.233.503.349.87.349s.657-.116.87-.349c.214-.234.321-.549.321-.946 0-.406-.107-.726-.322-.959s-.51-.348-.885-.348"/><path d="m477.718 89.361v2.493h.45v-.472c.24.351.534.526.881.526.218 0 .391-.068.519-.205.131-.137.196-.321.196-.552v-1.79h-.448v1.641c0 .184-.028.316-.084.395-.054.078-.145.119-.272.119-.281 0-.545-.181-.792-.544v-1.611z"/><path d="m462.996 87.119h.48v-2.138c0-.34.064-.588.191-.743.128-.154.331-.232.609-.232.272 0 .465.073.579.219.113.145.17.392.17.741v2.153h.409v-2.147c0-.464-.096-.801-.286-1.012-.191-.21-.494-.316-.91-.316-.424 0-.737.11-.938.328-.203.218-.304.556-.304 1.013z"/><path d="m466.286 83.731v2.492h.448v-.466c.179.348.441.522.783.522.046 0 .094-.003.145-.008v-.425c-.078.027-.147.039-.208.039-.286 0-.526-.169-.72-.508v-1.646z"/><path d="m468.654 84.326c.235-.208.458-.312.671-.312.438 0 .657.331.657.995 0 .584-.194.876-.583.876-.255 0-.503-.136-.745-.41zm-.449-.627v3.649h.449v-1.591c.186.348.465.522.837.522.302 0 .539-.109.712-.329.173-.218.259-.517.259-.896 0-.413-.098-.746-.294-.999-.195-.253-.454-.379-.774-.379-.296 0-.544.113-.74.338l-.054-.315z"/><path d="m472.385 84.298v.652l-.152.004c-.251 0-.453-.047-.608-.142-.154-.095-.231-.22-.231-.375 0-.11.039-.202.116-.278.077-.075.171-.113.282-.113.19 0 .388.084.593.252zm.066-.249c-.272-.248-.533-.373-.785-.373-.207 0-.379.065-.515.194-.137.13-.205.293-.205.491 0 .273.115.482.344.629.23.146.559.219.987.219h.108v.3c0 .288-.15.432-.448.432-.241 0-.5-.074-.779-.221v.378c.306.12.591.181.858.181.28 0 .486-.063.618-.189.133-.124.199-.32.199-.584v-1.128c0-.259.078-.387.236-.387.02 0 .048.002.086.007l.032-.249c-.101-.049-.214-.073-.336-.073-.21 0-.343.125-.4.373"/><path d="m473.757 86.223h.448v-2.493h-.448zm0 .896h.448v-.448h-.448z"/><path d="m475.105 83.731v2.492h.448v-.47c.241.35.536.526.883.526.218 0 .39-.068.519-.206.13-.136.195-.321.195-.552v-1.79h-.449v1.641c0 .186-.027.317-.082.395-.055.079-.146.118-.274.118-.28 0-.544-.181-.792-.543v-1.611z"/><path d="m478.29 85.248h1.118c0 .462-.176.693-.527.693-.354 0-.552-.231-.591-.693zm1.559-1.439c-.304-.089-.564-.133-.78-.133-.367 0-.668.122-.901.366-.232.243-.348.559-.348.947 0 .377.102.686.306.928.204.241.467.362.785.362.301 0 .534-.107.699-.32.164-.214.247-.516.247-.909l-.002-.14h-1.587c.067-.597.36-.896.88-.896.19 0 .424.05.701.149z"/></g><path d="m495.431 113.814c-.139-.934-1.245-1.89-2.231-1.749-.936.134-1.72.909-1.72 1.854 0 1.331 1.208 2.592 2.154 2.592.945 0 1.952-1.651 1.797-2.697" fill="#f69a3b"/><g clip-path="url(#e)"><path d="m462.443 103.045c-.401 0-1.078.268-1.078 1.164v5.86s-.263 2.134 2.129 2.134c1.32 0 1.949-.871 2.83-1.919.341-.406 4.079-4.912 4.768-5.536.569-.516 1.659-.647 1.965 1.033.305 1.679.057 4.154.097 4.822.037.668.512 1.465 1.545 1.89 1.176.485 2.974.589 5.266.36 2.29-.229 4.109-1.659 4.048-3.414-.07-2.023-2.473-2.985-3.741-3.359-.733-.216-.712-.62-.461-.859.138-.131.679-.531 1.23-.882.599-.381 5.129-3.299 5.778-3.851.649-.554.42-1.165.191-1.508-.229-.344-.802-.554-1.355-.248-.554.305-7.344 4.736-8.188 6.184-.465.795-.298 1.727.582 2.041.345.124 3.785 1.196 3.785 2.369 0 1.89-2.591 1.828-3.221 1.828s-3.162.314-3.162-1.828c0-1.795-.033-5.133-1.368-6.507-1.336-1.375-3.212-1.084-4.308-.175-.883.734-5.249 6.213-6.165 6.671v-5.086s-.079-1.184-1.167-1.184" fill="#006fb5"/><path d="m485.455 111.513s1.299-5.256 4.195-7.488c2.896-2.233 6.378-1.768 8.388.409 1.832 1.981 2.719 4.546 3.116 6.585.113.586-.576 1.045-.985 1.058-.999.032-1.235-1.113-1.399-1.762s-1.353-5.374-4.826-5.566c-3.396-.19-5.026 3.239-5.927 6.768z" fill="#f69a3b"/></g></g></g></svg>