<svg xmlns="http://www.w3.org/2000/svg" width="400" height="140"><g stroke-width=".1"><path d="M151.568 30.637h9.15l-4.488-12.364h-.176zm8.27-20.15l12.318 30.797h-7.611l-1.893-5.236h-13.02l-1.892 5.236h-7.612l12.274-30.797h7.435M189.413 23.819l12.935-.045v14.342c-3.475 2.199-7.171 3.783-12.144 3.783-10.163 0-16.981-6.335-16.981-15.662 0-9.37 6.818-16.366 17.026-16.366 4.222 0 8.007 1.056 10.382 2.42 0 .044-2.111 5.676-2.111 5.72-2.2-1.321-4.84-2.025-8.052-2.025-6.422 0-10.514 4.576-10.514 10.251 0 5.676 4.18 9.547 10.25 9.547 2.29 0 3.916-.484 5.412-1.32V29.23h-6.203v-5.41M215.489 35.168h18.083v6.116h-24.77V10.487h24.373v6.115H215.49v6.952h16.322v5.499h-16.322v6.115M260.956 41.284L246.57 22.498h-.175v18.786h-6.689V10.487h5.633l14.429 18.83h.176v-18.83h6.688v30.797h-5.676M298.194 33.364l1.143 6.028c-2.64 1.583-6.335 2.507-9.943 2.507-9.986 0-17.025-6.29-17.025-15.749 0-9.327 6.864-16.279 17.025-16.279 3.343 0 6.512.792 9.196 2.111-.043.044-1.673 6.116-1.716 6.16a13.992 13.992 0 00-7.48-2.156c-6.554 0-10.294 4.707-10.294 10.164 0 5.983 4.444 9.634 10.516 9.634 3.035 0 6.597-1.101 8.578-2.42M310.898 35.168h18.08v6.116h-24.767V10.487h24.373v6.115h-17.686v6.952h16.321v5.499h-16.32v6.115M162.61 85.695l-14.388-18.786h-.175v18.786h-6.687V54.897h5.632l14.428 18.83h.177v-18.83h6.687v30.798h-5.674M183.566 75.048h9.15l-4.487-12.363h-.175zm8.27-20.15l12.32 30.797h-7.612l-1.892-5.237H181.63l-1.892 5.237h-7.612l12.276-30.798h7.435M211.477 61.013h-9.328v-6.116h25.386v6.116h-9.327v24.682h-6.731V61.013M232.666 54.897h6.731v30.798h-6.731V54.897M269.81 70.297c0-5.763-3.696-9.9-8.975-9.9-5.28 0-8.974 4.137-8.974 9.9 0 5.763 3.695 9.897 8.974 9.897s8.974-4.134 8.974-9.897zm6.732 0c0 9.326-6.644 16.013-15.707 16.013-9.064 0-15.706-6.687-15.706-16.013 0-9.328 6.642-16.014 15.706-16.014 9.063 0 15.707 6.686 15.707 16.014M303.522 85.695l-14.386-18.786h-.175v18.786h-6.689V54.897h5.633l14.428 18.83h.177v-18.83h6.688v30.798h-5.676M324.48 75.048h9.15l-4.489-12.363h-.175zm8.27-20.15l12.318 30.797h-7.611l-1.893-5.237h-13.02l-1.892 5.237h-7.612l12.274-30.798h7.435M355.642 79.579h15.878v6.116h-22.61V54.897h6.732V79.58M381.92 79.579H400v6.116h-24.768V54.897h24.373v6.116h-17.686v6.951h16.321v5.5h-16.32v6.115M162.388 114.709c0-5.412-3.431-9.283-8.139-9.283h-6.202v18.565h6.202c4.708 0 8.14-3.87 8.14-9.282zm6.864 0c0 8.974-6.336 15.398-15.003 15.398H141.36V99.31h12.89c8.666 0 15.002 6.424 15.002 15.398M174.613 118.887V99.31h6.73v19.576c0 3.432 2.729 5.72 6.644 5.72s6.642-2.288 6.642-5.72V99.31h6.688v19.576c0 6.996-5.632 11.836-13.33 11.836-7.699 0-13.374-4.84-13.374-11.836" fill="#1d2346"/><path d="M244.144 121.22c0 6.292-5.412 9.503-12.892 9.503-4.486 0-10.161-1.848-13.373-3.96l2.509-5.278c3.079 2.067 7.214 3.343 10.997 3.343 2.949 0 5.675-1.057 5.675-3.212 0-1.76-1.76-2.86-6.643-3.916-7.172-1.583-11.657-4.048-11.657-9.943 0-5.675 5.411-9.062 13.109-9.062 4.223 0 8.447 1.495 10.692 2.815l-1.893 5.632c-2.288-1.32-5.674-2.465-9.02-2.465-4.09 0-5.895 1.453-5.895 3.037 0 1.76 1.849 2.859 6.731 3.87 7.48 1.629 11.66 4.138 11.66 9.637M256.223 105.471v9.325h8.535c3.08 0 4.882-2.2 4.882-4.662 0-2.51-1.802-4.663-4.882-4.663zm0 15.31v9.326h-6.73V99.31h15.661c6.469 0 11.175 4.75 11.175 10.823 0 6.333-4.706 10.647-11.175 10.647h-8.93M304.46 114.709c0-5.763-3.696-9.9-8.975-9.9-5.28 0-8.977 4.137-8.977 9.9 0 5.763 3.698 9.899 8.977 9.899s8.974-4.136 8.974-9.9zm6.732 0c0 9.327-6.644 16.014-15.707 16.014-9.064 0-15.708-6.687-15.708-16.014 0-9.326 6.644-16.014 15.708-16.014 9.063 0 15.707 6.688 15.707 16.014M330.926 105.426h-7.875v8.226h7.875c2.639 0 4.489-1.715 4.489-4.135s-1.85-4.09-4.489-4.09zm9.415 15.442l3.344 9.239h-7.436l-3.298-8.667c-.88-2.332-3.213-2.507-4.707-2.507h-5.193v11.174h-6.731V99.31h15.223c6.29 0 10.69 3.519 10.69 9.282 0 3.916-2.2 6.687-5.544 8.14h.044v.176c2.025.747 2.993 2.288 3.608 3.96M355.46 105.426h-9.328v-6.115h25.388v6.115h-9.33v24.68h-6.73v-24.68" fill="#ee2c2d"/><path d="M58.416 115.756c18.188 0 30.312-6.614 30.312-17.453 0-12.86-16.349-17.27-31.23-21.31-21.126-5.696-42.987-11.941-42.987-34.17 0-19.361 16.707-32.003 42.359-32.328a.448.448 0 00.446-.444V1.097a.525.525 0 00-.532-.52C25.292.946 3.856 17.98 3.856 43.006c0 30.496 31.597 38.212 50.702 43.539 18.74 5.143 23.515 8.082 23.515 11.94 0 4.594-7.348 7.348-19.105 7.348-17.221 0-34.979-5.903-47.449-15.768a.52.52 0 00-.787.174L.055 111.42a.522.522 0 00.245.705l8.057 3.782c.255.12.56.014.687-.239l5.495-10.99a.514.514 0 01.715-.221c12.657 7.053 28.568 11.299 43.162 11.299" fill="#1d2346"/><path d="M63.194 52.927C44.823 47.967 40.23 45.762 40.23 42.09c0-4.592 7.349-7.35 18.186-7.35 11.755 0 23.687 3.206 33.696 8.913.26.148.587.05.721-.216l10.35-20.526a.522.522 0 00-.242-.707l-8.12-3.81a.45.45 0 00-.595.205l-5.793 11.476a.517.517 0 01-.649.253c-9.192-3.52-19.518-5.506-29.183-5.506-16.166 0-29.027 5.878-29.027 17.451 0 10.472 10.289 14.697 30.68 20.209 17.084 4.591 43.54 11.022 43.54 34.72 0 20.47-16.913 32.575-46.033 32.879a.449.449 0 00-.445.446v8.952c0 .29.24.525.53.522 35.683-.337 56.601-16.294 56.601-42.984 0-29.575-30.495-38.578-51.253-44.089" fill="#ee2c2d"/></g></svg>