<svg xmlns="http://www.w3.org/2000/svg" width="210" height="113.66"><defs><clipPath clipPathUnits="userSpaceOnUse" id="a"><path d="M1.712 864.167h573.154V.529H1.712z"/></clipPath><clipPath clipPathUnits="userSpaceOnUse" id="b"><path d="M1.712 863.257H574.33V.5H1.712z"/></clipPath><clipPath clipPathUnits="userSpaceOnUse" id="c"><path d="M20.712 842.5h554.575V.5H20.712z"/></clipPath><clipPath clipPathUnits="userSpaceOnUse" id="d"><path d="M472.022 590.626h16.494v14.328h-16.494z"/></clipPath><clipPath clipPathUnits="userSpaceOnUse" id="e"><path d="M437.753 83.644h63.413v32.866h-63.413z"/></clipPath></defs><g clip-path="url(#a)" transform="matrix(1.33333 0 0 -1.33333 -520.946 190.267)"><g clip-path="url(#b)"><g clip-path="url(#c)"><path d="M434.874 606.527h20.144v-20.144h-20.144z" fill="#006ab6"/><path d="M478.504 616.02c2.522.271 8.792-7.483 16.843-8.45 5.679-.683-1.36-7.366-1.323-12.057.04-5.229 1.311-6.646 2.425-8.76 1.256-2.381-11.067-.437-13.241-2.606-1.896-1.891-1.389-2.886-1.634-4.263-.245-1.382-8.792.076-14.332 3.322-1.633.956 1.838 4.929 1.78 7.643-.074 3.412.569 7.073-4.792 9.442-6.937 3.065-3.585 6.376-.268 6.468 3.841.107 9.287 2.148 11.512 5.072.981 1.289 1.664 4.042 3.03 4.189" fill="#fff" fill-rule="evenodd"/></g></g></g><g clip-path="url(#d)" transform="matrix(1.33333 0 0 -1.33333 -520.946 190.267)"><path d="M472.022 599.851h2.468s1.337-6.928 5.976-6.928 5.846 6.928 5.846 6.928c.236 1.495 2.403 1.342 2.189-.031-.152-.973-1.413-9.194-8.065-9.194-6.653 0-8.414 9.225-8.414 9.225" fill="#fff"/></g><path d="M36.148 41.652h30.96s.535 2.58.535 4.636h7.09s-.132-5.992-1.747-10.424c-1.609-4.434-3.76-8.534-6.58-11.944-2.819-3.406-8.439-6.43-14.91-6.43-6.435 0-11.614 2.863-14.853 6.594-1.936 2.23-4.686 7.046-6.56 12.919-1.069 3.356-1.712 6.046-1.8 7.358 0 0 .315 3.16 3.361 3.16 3.044 0 3.643-2.668 3.643-2.668s.861-2.955.861-3.201zm1.467-5.85s.728-3.252 4.384-7.671c1.646-1.987 4.396-4.453 9.5-4.453 4.948 0 8.086 2.327 9.947 4.74 1.539 1.996 3.034 4.737 4.018 7.383h-27.85M20.37 68.782l-1.82-4.602-1.82 4.602zm1.614 4.09l-1.167-2.948h-4.532l-1.174 2.948h-1.41l4.24-10.685h1.488l4.192 10.685h-1.637M30.26 70.166v-3.283c-.631-.653-1.319-.978-2.06-.978-.659 0-1.176.265-1.548.789-.372.533-.562 1.255-.562 2.176 0 1.725.612 2.59 1.826 2.59.83 0 1.609-.433 2.344-1.294zm-5.034 5.312l.164-1.24c.83.397 1.643.596 2.45.596 1.612 0 2.42-.848 2.42-2.545v-1.233c-.53 1.097-1.394 1.646-2.6 1.646-.939 0-1.693-.344-2.248-1.031-.555-.685-.832-1.612-.832-2.776 0-1.198.315-2.17.949-2.927.637-.753 1.454-1.132 2.46-1.132.877 0 1.637.357 2.27 1.07v-.893h1.414v5.715c0 1.23-.063 2.141-.193 2.731-.126.59-.366 1.072-.719 1.45-.621.66-1.592.991-2.901.991a8.154 8.154 0 01-2.634-.422M35.284 68.088h3.532c0-1.454-.558-2.183-1.668-2.183-1.113 0-1.735.729-1.864 2.183zm4.92 4.538c-.956.281-1.779.42-2.457.42-1.164 0-2.11-.382-2.841-1.151-.732-.77-1.101-1.763-1.101-2.987 0-1.19.325-2.164.968-2.927.643-.76 1.47-1.145 2.473-1.145.949 0 1.684.34 2.204 1.013.518.671.78 1.627.78 2.867l-.007.438h-5.005c.208 1.883 1.135 2.826 2.775 2.826.603 0 1.337-.155 2.211-.47v1.116M42.67 72.872v-7.86h1.413v1.486c.757-1.107 1.685-1.662 2.785-1.662.682 0 1.227.218 1.637.65.407.432.612 1.012.612 1.74v5.646h-1.413v-5.175c0-.584-.088-1-.262-1.246-.173-.25-.46-.372-.858-.372-.886 0-1.718.57-2.5 1.716v5.077H42.67M54.92 73.046c-1.063 0-1.94-.388-2.643-1.173-.697-.789-1.047-1.78-1.047-2.978 0-1.277.347-2.274 1.038-2.986.69-.713 1.653-1.073 2.889-1.073.612 0 1.296.076 2.05.224v1.192c-.801-.23-1.45-.347-1.956-.347-.725 0-1.308.275-1.75.824-.438.545-.656 1.277-.656 2.188 0 .887.224 1.603.678 2.148.454.543 1.044.817 1.776.817.65 0 1.318-.164 2.009-.498v1.242c-.921.281-1.716.42-2.388.42M60.291 68.088h3.53c0-1.454-.555-2.183-1.666-2.183-1.116 0-1.737.729-1.864 2.183zm4.917 4.538c-.958.281-1.775.42-2.46.42-1.157 0-2.106-.382-2.838-1.151-.732-.77-1.098-1.763-1.098-2.987 0-1.19.319-2.164.965-2.927.644-.76 1.467-1.145 2.473-1.145.953 0 1.687.34 2.205 1.013.52.671.779 1.627.779 2.867l-.007.438h-5.002c.208 1.883 1.132 2.826 2.773 2.826.599 0 1.337-.155 2.21-.47v1.116M72.333 72.872V62.187h1.476l5.39 8.257v-8.257h1.29v10.685h-1.47l-5.4-8.253v8.253h-1.286M87.153 71.087v-2.06l-.479-.009c-.788 0-1.426.149-1.911.445-.49.303-.732.697-.732 1.186 0 .344.12.637.366.874.243.24.54.36.892.36.597 0 1.218-.266 1.864-.796zm.209.786c-.855.785-1.681 1.173-2.473 1.173-.656 0-1.195-.202-1.624-.609-.432-.41-.647-.924-.647-1.552 0-.857.36-1.52 1.085-1.98.725-.46 1.76-.694 3.11-.694h.34v-.943c0-.908-.466-1.363-1.413-1.363-.757 0-1.577.234-2.45.697v-1.195c.959-.375 1.86-.57 2.706-.57.877 0 1.526.201 1.946.595.416.398.628 1.01.628 1.842v3.561c0 .817.249 1.22.744 1.22.06 0 .154-.009.271-.025l.101.786c-.322.154-.675.23-1.06.23-.662 0-1.082-.388-1.264-1.173M93.82 73.046c-.721 0-1.28-.205-1.687-.618-.4-.417-.602-.994-.602-1.732V66.08h-.99v-1.066h.99v-1.426l1.416-.135v1.56h2.031v1.067h-2.03v4.362c0 1.025.44 1.539 1.32 1.539.19 0 .417-.032.688-.098v.99a4.504 4.504 0 01-1.135.174M97.019 65.013h1.413v7.863h-1.413zm0-2.826h1.413V63.6h-1.413zM104.374 71.98c1.517 0 2.277-1.019 2.277-3.053 0-2.015-.748-3.022-2.249-3.022-1.492 0-2.242 1.013-2.242 3.038 0 2.024.738 3.037 2.214 3.037zm-.016 1.066c-1.132 0-2.028-.372-2.703-1.113-.668-.748-1.003-1.745-1.003-2.99 0-1.265.335-2.265 1.006-3 .678-.738 1.593-1.107 2.747-1.107 1.158 0 2.072.37 2.747 1.107.675.735 1.013 1.732 1.013 2.984 0 1.28-.34 2.29-1.019 3.021-.675.732-1.605 1.098-2.788 1.098M110.357 72.872v-7.86h1.413v1.486c.76-1.107 1.687-1.662 2.785-1.662.684 0 1.23.218 1.64.65.403.432.612 1.012.612 1.74v5.646h-1.417v-5.175c0-.584-.085-1-.258-1.246-.174-.25-.457-.372-.861-.372-.883 0-1.72.57-2.501 1.716v5.077h-1.413M123.41 71.087v-2.06l-.482-.009c-.788 0-1.425.149-1.914.445-.486.303-.729.697-.729 1.186 0 .344.123.637.366.874.24.24.54.36.89.36.599 0 1.223-.266 1.87-.796zm.21.786c-.859.785-1.685 1.173-2.477 1.173-.653 0-1.198-.202-1.627-.609-.43-.41-.644-.924-.644-1.552 0-.857.36-1.52 1.085-1.98.723-.46 1.76-.694 3.113-.694h.34v-.943c0-.908-.472-1.363-1.415-1.363-.757 0-1.574.234-2.457.697v-1.195c.965-.375 1.867-.57 2.71-.57.879 0 1.529.201 1.948.595.417.398.625 1.01.625 1.842v3.561c0 .817.249 1.22.744 1.22.066 0 .151-.009.278-.025l.094.786c-.318.154-.668.23-1.06.23-.659 0-1.078-.388-1.258-1.173M127.735 61.468h1.416v11.408h-1.416zM132.85 68.088h3.527c0-1.454-.555-2.183-1.662-2.183-1.117 0-1.741.729-1.864 2.183zm4.918 4.538c-.96.281-1.78.42-2.46.42-1.158 0-2.107-.382-2.842-1.151-.732-.77-1.098-1.763-1.098-2.987 0-1.19.322-2.164.965-2.927.644-.76 1.473-1.145 2.476-1.145.95 0 1.684.34 2.205 1.013.517.671.779 1.627.779 2.867l-.007.438h-5.005c.212 1.883 1.136 2.826 2.776 2.826.599 0 1.337-.155 2.21-.47v1.116M6.413 88.752c.741.656 1.448.984 2.116.984 1.385 0 2.076-1.043 2.076-3.135 0-1.848-.612-2.769-1.842-2.769-.805 0-1.587.432-2.35 1.293zM5 93.48V82.766h1.413v1.473c.587-1.097 1.467-1.643 2.64-1.643.952 0 1.7.344 2.245 1.031.546.694.82 1.634.82 2.83 0 1.302-.312 2.352-.93 3.147-.615.801-1.432 1.198-2.441 1.198-.937 0-1.716-.356-2.334-1.066v3.744H5M17.414 89.736c1.52 0 2.277-1.018 2.277-3.056 0-2.012-.748-3.018-2.246-3.018-1.495 0-2.242 1.012-2.242 3.034 0 2.028.738 3.04 2.21 3.04zm-.016 1.066c-1.126 0-2.025-.372-2.697-1.116-.674-.744-1.009-1.741-1.009-2.99 0-1.261.338-2.261 1.013-3 .671-.734 1.59-1.1 2.744-1.1 1.157 0 2.072.366 2.743 1.1.679.739 1.013 1.732 1.013 2.984 0 1.28-.338 2.29-1.016 3.025-.675.735-1.605 1.097-2.79 1.097M28.336 90.629v-1.492c-.757 1.11-1.678 1.665-2.76 1.665-.69 0-1.236-.214-1.64-.643-.407-.435-.612-1.015-.612-1.75v-5.643h1.416v5.176c0 .583.086 1.003.259 1.249.17.249.457.372.864.372.87 0 1.697-.57 2.473-1.713v-5.084h1.413v7.863h-1.413M32.581 90.629v-7.863h1.416v1.473c.565-1.097 1.391-1.643 2.47-1.643.145 0 .296.01.457.022v1.34a2.114 2.114 0 00-.656-.126c-.905 0-1.659.54-2.27 1.609v5.188H32.58M43.345 79.221h1.413v11.411h-1.413zM51.467 88.84v-2.056l-.483-.012c-.788 0-1.425.148-1.911.45-.489.3-.732.691-.732 1.18 0 .344.12.637.366.877.24.24.54.36.89.36.599 0 1.22-.265 1.87-.798zm.205.786c-.855.785-1.678 1.176-2.473 1.176-.653 0-1.195-.205-1.624-.611-.432-.407-.647-.924-.647-1.549 0-.858.363-1.52 1.082-1.98.725-.464 1.763-.694 3.116-.694h.34v-.943c0-.912-.472-1.363-1.412-1.363-.76 0-1.58.233-2.457.694v-1.192c.962-.379 1.864-.568 2.706-.568.88 0 1.53.196 1.95.593.415.394.627 1.006.627 1.845v3.558c0 .813.249 1.22.744 1.22.063 0 .151-.006.271-.025l.098.785c-.318.155-.672.23-1.06.23-.656 0-1.081-.39-1.261-1.176M61.938 84.974h.492c1.902 0 2.857-.744 2.857-2.24 0-1.103-.8-1.655-2.4-1.655h-.95zm-1.514 5.655V79.94h3.239c1.028 0 1.817.227 2.362.682.549.45.823 1.11.823 1.974 0 1.426-.719 2.438-2.157 3.037l3.57 4.996h-1.864l-3.046-4.513h-1.413v4.513h-1.514M71.44 81.353l1.748-2.33h1.65l-2.325 2.33zm-.775 4.488h3.529c0-1.45-.555-2.179-1.665-2.179-1.114 0-1.738.729-1.864 2.18zm4.92 4.539c-.962.284-1.779.422-2.46.422-1.16 0-2.11-.381-2.842-1.15-.732-.77-1.098-1.767-1.098-2.987 0-1.193.322-2.167.966-2.927.643-.764 1.47-1.142 2.472-1.142.953 0 1.688.334 2.208 1.01.517.668.779 1.627.779 2.863l-.006.438h-5.006c.212 1.89 1.136 2.83 2.776 2.83.6 0 1.337-.155 2.21-.474v1.117M78.048 90.629v-7.863h1.413v1.489c.76-1.107 1.687-1.659 2.785-1.659.684 0 1.23.214 1.637.647.413.432.615 1.012.615 1.74v5.646h-1.413v-5.176c0-.58-.088-.996-.262-1.245-.173-.246-.46-.376-.861-.376-.883 0-1.719.571-2.501 1.716v5.081h-1.413M90.336 89.736c1.517 0 2.277-1.018 2.277-3.056 0-2.012-.75-3.018-2.249-3.018-1.492 0-2.24 1.012-2.24 3.034 0 2.028.736 3.04 2.212 3.04zm-.016 1.066c-1.13 0-2.028-.372-2.7-1.116-.675-.744-1.01-1.741-1.01-2.99 0-1.261.338-2.261 1.013-3 .675-.734 1.59-1.1 2.744-1.1 1.158 0 2.072.366 2.747 1.1.675.739 1.01 1.732 1.01 2.984 0 1.28-.338 2.29-1.013 3.025-.678.735-1.608 1.097-2.791 1.097M97.959 90.629l-2.927-7.863h1.425l2.28 6.119 2.414-6.119h1.321l-3.097 7.863h-1.416M107.846 88.84v-2.056l-.482-.012c-.789 0-1.426.148-1.912.45-.485.3-.731.691-.731 1.18 0 .344.126.637.366.877.246.24.542.36.892.36.596 0 1.22-.265 1.867-.798zm.208.786c-.854.785-1.68 1.176-2.475 1.176-.65 0-1.196-.205-1.625-.611-.432-.407-.646-.924-.646-1.549 0-.858.362-1.52 1.085-1.98.725-.464 1.763-.694 3.113-.694h.34v-.943c0-.912-.47-1.363-1.413-1.363-.757 0-1.577.233-2.453.694v-1.192c.958-.379 1.864-.568 2.706-.568.88 0 1.526.196 1.946.593.422.394.63 1.006.63 1.845v3.558c0 .813.246 1.22.742 1.22.06 0 .154-.006.27-.025l.102.785c-.322.155-.675.23-1.06.23-.66 0-1.079-.39-1.262-1.176M114.51 90.802c-.719 0-1.28-.208-1.684-.62-.403-.417-.602-.994-.602-1.73v-4.62h-.99v-1.066h.99v-1.422l1.413-.142v1.564h2.037v1.066h-2.037v4.362c0 1.028.441 1.542 1.325 1.542.189 0 .416-.031.684-.097v.99a4.464 4.464 0 01-1.135.173M117.709 82.766h1.413v7.863h-1.413zm0-2.826h1.413v1.413h-1.413zM125.064 89.736c1.52 0 2.277-1.018 2.277-3.056 0-2.012-.748-3.018-2.246-3.018-1.495 0-2.24 1.012-2.24 3.034 0 2.028.736 3.04 2.209 3.04zm-.016 1.066c-1.126 0-2.028-.372-2.697-1.116-.675-.744-1.01-1.741-1.01-2.99 0-1.261.335-2.261 1.013-3 .675-.734 1.587-1.1 2.744-1.1 1.158 0 2.072.366 2.744 1.1.675.739 1.013 1.732 1.013 2.984 0 1.28-.338 2.29-1.016 3.025-.678.735-1.608 1.097-2.791 1.097M131.047 90.629v-7.863h1.419v1.489c.757-1.107 1.684-1.659 2.778-1.659.688 0 1.234.214 1.637.647.413.432.618 1.012.618 1.74v5.646h-1.412v-5.176c0-.58-.089-.996-.265-1.245-.17-.246-.458-.376-.858-.376-.887 0-1.72.571-2.498 1.716v5.081h-1.42M84.614 97.7h1.514v6.743c0 1.073.202 1.855.603 2.344.403.485 1.044.731 1.92.731.858 0 1.467-.23 1.827-.69.356-.458.536-1.237.536-2.337V97.7h1.29v6.77c0 1.464-.303 2.527-.902 3.192-.603.663-1.558.997-2.87.997-1.338 0-2.325-.347-2.959-1.034-.64-.688-.959-1.754-.959-3.195V97.7M94.99 108.386v-7.86h1.414v1.47c.564-1.098 1.39-1.647 2.47-1.647.144 0 .296.01.457.026v1.34a2.014 2.014 0 00-.656-.123c-.902 0-1.66.533-2.271 1.602v5.192H94.99M102.46 106.509c.74.656 1.444.984 2.116.984 1.381 0 2.072-1.044 2.072-3.138 0-1.842-.612-2.763-1.839-2.763-.804 0-1.586.429-2.35 1.293zm-1.417 1.978v-11.51h1.416v5.019c.587-1.098 1.467-1.647 2.64-1.647.953 0 1.7.344 2.246 1.038.545.688.817 1.63.817 2.826 0 1.303-.31 2.353-.928 3.15-.615.799-1.431 1.196-2.44 1.196-.934 0-1.716-.356-2.335-1.066l-.17.994h-1.246M114.227 106.597v-2.056l-.48-.013c-.791 0-1.428.149-1.917.448-.486.3-.729.694-.729 1.183 0 .347.123.637.366.877.243.236.54.356.89.356.599 0 1.223-.265 1.87-.795zm.208.786c-.858.782-1.681 1.176-2.476 1.176-.653 0-1.195-.205-1.624-.612-.432-.41-.647-.924-.647-1.548 0-.861.363-1.52 1.085-1.984.726-.46 1.763-.69 3.113-.69h.34v-.947c0-.908-.472-1.363-1.412-1.363-.76 0-1.577.234-2.457.697v-1.192c.965-.378 1.864-.57 2.706-.57.883 0 1.533.198 1.949.596.42.39.628 1.009.628 1.841v3.558c0 .817.246 1.22.744 1.22.063 0 .151-.006.271-.021l.101.785c-.318.154-.675.23-1.06.23-.662 0-1.081-.394-1.261-1.176M118.554 100.526h1.413v7.863h-1.413zm0-2.826h1.413v1.413h-1.413zM122.805 108.386v-7.86h1.413v1.482c.76-1.103 1.69-1.659 2.785-1.659.688 0 1.23.215 1.637.65.41.43.615 1.013.615 1.741v5.646h-1.416v-5.176c0-.587-.085-1-.259-1.246-.173-.249-.46-.372-.864-.372-.883 0-1.716.57-2.498 1.713v5.08h-1.413M132.85 103.601h3.527c0-1.457-.555-2.186-1.662-2.186-1.117 0-1.741.729-1.864 2.186zm4.918 4.539c-.96.28-1.78.42-2.46.42-1.158 0-2.107-.386-2.842-1.155-.732-.767-1.098-1.763-1.098-2.987 0-1.19.322-2.164.965-2.927.644-.76 1.473-1.142 2.476-1.142.95 0 1.684.338 2.205 1.01.517.675.779 1.627.779 2.867l-.007.441h-5.005c.212 1.883 1.136 2.826 2.776 2.826.599 0 1.337-.158 2.21-.47v1.117" fill="#006fb5"/><path d="M186.912 13.506c-.438 2.946-3.927 5.961-7.036 5.516-2.952-.422-5.425-2.867-5.425-5.847 0-4.198 3.81-8.175 6.793-8.175 2.98 0 6.157 5.207 5.668 8.506" fill="#f69a3b"/><g clip-path="url(#e)" transform="matrix(3.15392 0 0 -3.15392 -1375.64 372.467)"><path d="M462.443 103.045c-.401 0-1.078.268-1.078 1.164v5.86s-.263 2.134 2.129 2.134c1.32 0 1.949-.871 2.83-1.919.341-.406 4.079-4.912 4.768-5.536.569-.516 1.659-.647 1.965 1.033.305 1.679.057 4.154.097 4.822.037.668.512 1.465 1.545 1.89 1.176.485 2.974.589 5.266.36 2.29-.229 4.109-1.659 4.048-3.414-.07-2.023-2.473-2.985-3.741-3.359-.733-.216-.712-.62-.461-.859.138-.131.679-.531 1.23-.882.599-.381 5.129-3.299 5.778-3.851.649-.554.42-1.165.191-1.508-.229-.344-.802-.554-1.355-.248-.554.305-7.344 4.736-8.188 6.184-.465.795-.298 1.727.582 2.041.345.124 3.785 1.196 3.785 2.369 0 1.89-2.591 1.828-3.221 1.828-.63 0-3.162.314-3.162-1.828 0-1.795-.033-5.133-1.368-6.507-1.336-1.375-3.212-1.084-4.308-.175-.883.734-5.249 6.213-6.165 6.671v-5.086s-.079-1.184-1.167-1.184" fill="#006fb5"/><path d="M485.455 111.513s1.299-5.256 4.195-7.488c2.896-2.233 6.378-1.768 8.388.409 1.832 1.981 2.719 4.546 3.116 6.585.113.586-.576 1.045-.985 1.058-.999.032-1.235-1.113-1.399-1.762-.164-.649-1.353-5.374-4.826-5.566-3.396-.19-5.026 3.239-5.927 6.768l-2.562-.004" fill="#f69a3b"/></g></svg>