<?xml version="1.0" encoding="UTF-8"?>
<!-- Generator: Adobe Illustrator 18.1.1, SVG Export Plug-In . SVG Version: 6.00 Build 0)  -->
<svg version="1.1" id="Calque_1" xmlns="http://www.w3.org/2000/svg" xmlns:xlink="http://www.w3.org/1999/xlink" x="0px" y="0px" viewBox="0 90 612 612" enable-background="new 0 90 612 612" xml:space="preserve">
<g id="XMLID_53_">
	<g id="XMLID_1045_">
		
			<radialGradient id="XMLID_2_" cx="29.148" cy="762.7256" r="279.1031" gradientTransform="matrix(2.1587 0 0 -2.1587 -3.051758e-005 1799.7144)" gradientUnits="userSpaceOnUse">
			<stop offset="0" style="stop-color:#006CB5"/>
			<stop offset="1" style="stop-color:#1F3460"/>
		</radialGradient>
		<rect id="XMLID_1046_" x="0" y="90" fill="url(#XMLID_2_)" width="612" height="612"/>
	</g>
	<g id="XMLID_992_">
		<g id="XMLID_993_">
			
				<radialGradient id="XMLID_3_" cx="149.3985" cy="722.6508" r="133.9091" fx="132.1028" fy="722.7217" gradientTransform="matrix(2.1587 0 0 -1.2128 -3.051758e-005 1116.1115)" gradientUnits="userSpaceOnUse">
				<stop offset="6.381498e-002" style="stop-color:#000000;stop-opacity:0.5"/>
				<stop offset="1" style="stop-color:#000000;stop-opacity:0"/>
			</radialGradient>
			<rect id="XMLID_1037_" x="0" y="90" fill="url(#XMLID_3_)" width="612" height="336.5"/>
			<g id="XMLID_1006_">
				<path id="XMLID_1033_" fill="#FFFFFF" d="M103.4,482c0-6.3-4.1-10.6-11-10.6h-25v21.2h25.3C99.3,492.6,103.4,488.3,103.4,482z       M106.9,514.6c0-6.3-4.3-11-11.4-11H67.4v22h28.3C102.5,525.6,106.9,521.3,106.9,514.6z M55,460.2h39.1      c13.6,0,21.8,8.9,21.8,20.1c0,8.6-5,14.7-11.2,16.8c8.2,1.7,14.7,9.1,14.7,18.8c0,12.3-8.6,20.7-22,20.7H55V460.2z"/>
				<path id="XMLID_1030_" fill="#FFFFFF" d="M170.3,473.4l-14.9,36.3h30L170.3,473.4z M196,536.6l-6.5-15.8h-38.4l-6.5,15.8H131      l32.6-76.4H177l32.6,76.4H196z"/>
				<path id="XMLID_1028_" fill="#FFFFFF" d="M281.1,536.6l-43.8-56.8v56.8h-12.3v-76.4h11.9l43.4,55.9v-55.9h12.3v76.4H281.1z"/>
				<path id="XMLID_1026_" fill="#FFFFFF" d="M411.2,506.2v-46h12.3V506c0,13.6,8.2,20.7,21.2,20.7c13.2,0,21.2-7.1,21.2-20.7v-45.8      h12.3v46c0,20.9-13.4,31.7-33.5,31.7C424.8,537.9,411.2,526.9,411.2,506.2z"/>
				<path id="XMLID_1024_" fill="#FFFFFF" d="M500.6,536.6v-76.4h55.9v11.2h-43.6v20.9h34.5v11.2h-34.5v22h44v11.2h-56.3V536.6z"/>
				<path id="XMLID_1018_" fill="#FFFFFF" d="M88.5,570.3H55V647h12.3v-28.1h19.2c0.6,0,3.5,0,4.1-0.2c13.6-0.9,22.9-11.2,22.9-24.2      C113.5,581.1,103.6,570.3,88.5,570.3z M87.4,607.7H67.4v-26.1h20.1c7.8,0,13.8,5.4,13.8,13.2C101.2,602.3,95.2,607.7,87.4,607.7      z"/>
				<polygon id="XMLID_1017_" fill="#FFFFFF" points="351.9,581.5 351.9,570.3 292.7,570.3 292.7,581.5 316.3,581.5 316.3,581.8       316.3,647 328.3,647 328.3,581.5     "/>
				<polygon id="XMLID_1016_" fill="#FFFFFF" points="454,570.3 441.9,570.3 441.9,647 489.2,647 489.2,635.7 454,635.7     "/>
				<path id="XMLID_1015_" fill="#FFFFFF" d="M252.4,601.8c-13.4-2.4-20.1-4.3-19.9-10.6c0.2-5.8,5-10.1,13.4-11      c1.9-0.2,3.9-0.2,6,0c6.9,0.4,14,3,18.6,6.9c0.4,0.2,1.1,0.6,1.3,1.1l6.7-9.7c-6.3-5.6-17.3-9.5-28.3-9.5      c-17.9,0-30,9.7-30.2,23.1c-0.4,15.8,14,19,27.4,21.4c15.1,2.8,22,4.3,21.8,11c-0.2,6.3-5.6,11.4-16.6,12.1c-1.5,0-2.8,0-4.3,0      c-9.9-0.6-17.7-3.9-23.1-9.1c-0.4-0.4-0.9-0.6-1.3-1.1l-6.9,9.9c8,7.6,19,11.7,32.6,11.7c19.6,0,31.5-9.7,31.9-24      C282.1,607,266.8,604.4,252.4,601.8z"/>
				<path id="XMLID_1012_" fill="#FFFFFF" d="M166.2,568.8c-23.3,0-39.7,17.1-39.7,39.5c0,22.2,16.4,39.5,39.7,39.5      s39.7-17.1,39.7-39.5C206.2,585.9,189.5,568.8,166.2,568.8z M166.2,636.4c-16.6,0-27.4-12.3-27.4-28.3c0-16,10.6-28.3,27.4-28.3      c16.6,0,27.4,12.3,27.4,28.3S183.1,636.4,166.2,636.4z"/>
				<path id="XMLID_1009_" fill="#FFFFFF" d="M381,570.3L348.4,647H362l6.5-15.8h38.4l6.5,15.8H427l-32.6-76.4H381V570.3z       M372.8,620l14.9-36.3l14.9,36.3H372.8z"/>
				<polygon id="XMLID_1008_" fill="#FFFFFF" points="514.9,635.7 514.9,613.7 547.5,613.7 547.5,602.5 514.9,602.5 514.9,581.5       556.5,581.5 556.5,570.3 502.6,570.3 502.6,647 557,647 557,635.7     "/>
				<path id="XMLID_18_" fill="#FFFFFF" d="M392.2,498.4c0-22.2-16.4-39.5-39.7-39.5c-23.3,0-39.7,17.1-39.7,39.5      c0,22.5,16.4,39.5,39.7,39.5c3.5,0,6.7-0.4,9.7-1.1l5.6,13.6h13.6l-8-17.9C385.1,525.6,392.2,513.1,392.2,498.4z M352.5,526.7      c-16.6,0-27.4-12.3-27.4-28.3c0-16,10.6-28.3,27.4-28.3c16.6,0,27.4,12.3,27.4,28.3c0,9.7-4.1,18.1-11,23.3l-3-7.1h-13l5,11.7      C356,526.5,354.2,526.7,352.5,526.7z"/>
			</g>
			<g id="XMLID_1000_">
				<path id="XMLID_1004_" fill="#FFCC00" d="M55,426.5v-76.4h12.3v65.4h40.2v11.2H55V426.5z"/>
				<path id="XMLID_1001_" fill="#FFCC00" d="M161.3,363.3l-14.9,36.3h30L161.3,363.3z M187.2,426.5l-6.5-15.8H142l-6.5,15.8H122      l32.6-76.4h13.4l32.8,76.4H187.2z"/>
			</g>
			<g id="XMLID_994_">
				<g id="XMLID_995_">
					<path id="XMLID_996_" fill="#FFFFFF" d="M176.6,147.6c23.3,8.2,61.5,23.1,81.6,41.2l146.8-1.5c4.1-5.2,5.6-7.3,10.1-13.2       c10.6-14.2,11.2-28.7-11.4-28.9c-12.1-0.2-203.1,0.6-225.4,0.9C174.9,145.9,172.3,145.9,176.6,147.6z M517.4,193.8l-255.2,4.7       c1.1,10.4-10.1,25.5-33.2,39.7c-11.9,7.3-38.9,21.8-134.7,58.1c-1.3,0.4-0.6,1.9,0.2,1.7C260.1,256,370,224.7,517.4,196.6       C522,195.8,524.8,193.8,517.4,193.8z M363.5,239.2L134.7,297c-0.4,0.2-0.9,0.9,0.4,0.9l177.2-5.6c10.8-0.4,18.6-9.1,22.7-14.5       l28.9-37.6C364.6,239.6,364.6,238.7,363.5,239.2z"/>
				</g>
			</g>
		</g>
	</g>
</g>
</svg>