<svg height="800" viewBox="0 0 799.99999 799.99999" width="800" xmlns="http://www.w3.org/2000/svg" xmlns:xlink="http://www.w3.org/1999/xlink"><clipPath id="a"><path d="m0 595.276h595.276v-595.276h-595.276z"/></clipPath><clipPath id="b"><path d="m238.984 354.046h39.993v-74.19h-39.993z"/></clipPath><clipPath id="c"><path d="m247.577 310.322c-6.558 14.82-6.628 30.672-1.427 43.724-8.046-13.599-9.708-30.462-2.977-45.674 6.731-15.211 20.327-25.324 35.804-28.516-13.159 4.93-24.844 15.644-31.4 30.466"/></clipPath><linearGradient id="d"><stop offset="0" stop-color="#b20f0b"/><stop offset=".3681523" stop-color="#e30613"/><stop offset=".490909" stop-color="#e30613"/><stop offset="1" stop-color="#e30613"/></linearGradient><linearGradient id="e" gradientTransform="matrix(28.848637 -57.513527 -57.513527 -28.848637 239.22998 341.97275)" gradientUnits="userSpaceOnUse" spreadMethod="pad" x1="0" x2="1" xlink:href="#d" y1="0" y2="0"/><clipPath id="f"><path d="m249.378 274.933c14.308-12.49 33.261-16.389 50.815-12.219-15.995-1.251-33.259 4.193-47.201 16.362-13.939 12.167-21.667 28.537-22.588 44.554-1.761-17.958 4.665-36.208 18.974-48.697"/></clipPath><linearGradient id="g"><stop offset="0" stop-color="#f8f8f8"/><stop offset=".490909" stop-color="#d4d4d4"/><stop offset="1" stop-color="#b0b0b0"/></linearGradient><linearGradient id="h" gradientTransform="matrix(0 62.523537 62.523537 0 265.15665 261.10663)" gradientUnits="userSpaceOnUse" spreadMethod="pad" x1="0" x2="1" xlink:href="#g" y1="0" y2="0"/><clipPath id="i"><path d="m0 595.276h595.276v-595.276h-595.276z"/></clipPath><clipPath id="j"><path d="m230.12 323.63h70.073v-62.523h-70.073z"/></clipPath><clipPath id="k"><path d="m234.425 280.09h103.823v-36.57h-103.823z"/></clipPath><clipPath id="l"><path d="m282.87 250.539c-20.739 3.427-37.986 14.627-48.445 29.551 9.029-18.399 26.139-32.195 47.426-35.714 21.287-3.518 41.928 4.037 56.397 18.554-14.706-10.766-34.64-15.821-55.378-12.391"/></clipPath><linearGradient id="m"><stop offset="0" stop-color="#004e80"/><stop offset=".3681523" stop-color="#0075bf"/><stop offset=".490909" stop-color="#0075bf"/><stop offset="1" stop-color="#0075bf"/></linearGradient><linearGradient id="n" gradientTransform="matrix(103.8233 0 0 -103.8233 234.42513 261.80545)" gradientUnits="userSpaceOnUse" spreadMethod="pad" x1="0" x2="1" xlink:href="#m" y1="0" y2="0"/><clipPath id="o"><path d="m0 595.276h595.276v-595.276h-595.276z"/></clipPath><clipPath id="p"><path d="m238.984 354.046h39.993v-74.19h-39.993z"/></clipPath><clipPath id="q"><path d="m247.577 310.322c-6.558 14.82-6.628 30.672-1.427 43.724-8.046-13.599-9.708-30.462-2.977-45.674 6.731-15.211 20.327-25.324 35.804-28.516-13.159 4.93-24.844 15.644-31.4 30.466"/></clipPath><clipPath id="r"><path d="m249.378 274.933c14.308-12.49 33.261-16.389 50.815-12.219-15.995-1.251-33.259 4.193-47.201 16.362-13.939 12.167-21.667 28.537-22.588 44.554-1.761-17.958 4.665-36.208 18.974-48.697"/></clipPath><clipPath id="s"><path d="m0 595.276h595.276v-595.276h-595.276z"/></clipPath><clipPath id="t"><path d="m230.12 323.63h70.073v-62.523h-70.073z"/></clipPath><clipPath id="u"><path d="m234.425 280.09h103.823v-36.57h-103.823z"/></clipPath><clipPath id="v"><path d="m282.87 250.539c-20.739 3.427-37.986 14.627-48.445 29.551 9.029-18.399 26.139-32.195 47.426-35.714 21.287-3.518 41.928 4.037 56.397 18.554-14.706-10.766-34.64-15.821-55.378-12.391"/></clipPath><clipPath id="w"><path d="m268 52.888c10.601-9.254 24.643-12.143 37.649-9.053-11.85-.928-24.642 3.106-34.97 12.122-10.328 9.013-16.054 21.142-16.736 33.01-1.304-13.305 3.457-26.826 14.057-36.079"/></clipPath><linearGradient id="x" gradientTransform="matrix(0 46.322609 46.322609 0 279.69086 42.643627)" gradientUnits="userSpaceOnUse" spreadMethod="pad" x1="0" x2="1" xlink:href="#g" y1="0" y2="0"/><clipPath id="y"><path d="m268 478.492c10.601-9.254 24.643-12.143 37.649-9.053-11.85-.927-24.642 3.107-34.97 12.122-10.328 9.015-16.054 21.143-16.736 33.01-1.304-13.304 3.457-26.826 14.057-36.079"/></clipPath><linearGradient id="z" gradientTransform="matrix(0 46.322609 46.322609 0 279.69086 468.24835)" gradientUnits="userSpaceOnUse" spreadMethod="pad" x1="0" x2="1" xlink:href="#g" y1="0" y2="0"/><clipPath id="A"><path d="m0 595.276h595.276v-595.276h-595.276z"/></clipPath><clipPath id="B"><path d="m253.733 514.571h51.916v-46.323h-51.916z"/></clipPath><clipPath id="C"><path d="m256.922 482.313h76.921v-27.094h-76.921z"/></clipPath><clipPath id="D"><path d="m292.814 460.419c-15.365 2.539-28.143 10.837-35.892 21.894 6.689-13.632 19.366-23.853 35.138-26.46 15.771-2.606 31.064 2.991 41.784 13.747-10.896-7.977-25.664-11.722-41.03-9.181"/></clipPath><linearGradient id="E" gradientTransform="matrix(76.920891 0 0 -76.920891 256.92239 468.76611)" gradientUnits="userSpaceOnUse" spreadMethod="pad" x1="0" x2="1" xlink:href="#m" y1="0" y2="0"/><clipPath id="F"><path d="m0 595.276h595.276v-595.276h-595.276z"/></clipPath><clipPath id="G"><path d="m236.647 403.244h139.956v-70.674h-139.956z"/></clipPath><clipPath id="H"><path d="m295.435 388.551c27.956 11.071 57.351 10.039 81.168-.562-24.622 15.915-55.765 20.233-84.461 8.869-28.695-11.363-48.442-35.829-55.496-64.289 10.106 24.036 30.827 44.914 58.789 55.982"/></clipPath><linearGradient id="I" gradientTransform="matrix(-108.74627 -49.266895 -49.266895 108.74627 354.72678 401.70428)" gradientUnits="userSpaceOnUse" spreadMethod="pad" x1="0" x2="1" xlink:href="#d" y1="0" y2="0"/><clipPath id="J"><path d="m229.692 387.807c-24.207-25.612-32.827-60.463-26.382-93.315-1.148 29.746 10.212 61.355 33.796 86.311 23.58 24.95 54.497 38.077 84.261 38.61-5.014.692-10.059 1.039-15.087 1.039-28.226.001-56.044-10.905-76.588-32.645"/></clipPath><linearGradient id="K" gradientTransform="matrix(115.91883 -4.5860457 -4.5860457 -115.91883 202.899 359.56763)" gradientUnits="userSpaceOnUse" spreadMethod="pad" x1="0" x2="1" xlink:href="#g" y1="0" y2="0"/><clipPath id="L"><path d="m0 595.276h595.276v-595.276h-595.276z"/></clipPath><clipPath id="M"><path d="m201.247 420.452h120.12v-125.961h-120.12z"/></clipPath><clipPath id="N"><path d="m168.216 415.151h72.133v-191.23h-72.133z"/></clipPath><clipPath id="O"><path d="m182.007 327.503c7.876 38.197 29.905 69.352 58.342 87.649-34.775-15.39-61.608-46.1-69.694-85.309-8.082-39.208 4.41-78.032 30.265-105.921-18.883 28.054-26.792 65.382-18.913 103.581"/></clipPath><linearGradient id="P" gradientTransform="matrix(-7.615346 -192.48872 -192.48872 7.615346 206.44878 416.49271)" gradientUnits="userSpaceOnUse" spreadMethod="pad" x1="0" x2="1" xlink:href="#m" y1="0" y2="0"/><g transform="matrix(1.41019116475 0 0 -1.41019183141 -19.72645950684 819.72689684016)"><g clip-path="url(#a)"><path d="m0 0c0-84.534-68.528-153.062-153.063-153.062-84.534 0-153.062 68.528-153.062 153.062s68.528 153.062 153.062 153.062c84.535 0 153.063-68.528 153.063-153.062" fill="#fff" transform="translate(445.1445 304.9577)"/><path d="m0 0c0-84.534-68.528-153.062-153.063-153.062-84.534 0-153.062 68.528-153.062 153.062s68.528 153.062 153.062 153.062c84.535 0 153.063-68.528 153.063-153.062z" fill="none" stroke="#b2b2b2" stroke-miterlimit="10" stroke-width=".5" transform="translate(445.1445 304.9577)"/><path d="m0 0-2.107 2.11s-10.936 9.072-13.18 10.647c-2.234 1.583-4.636 3.44-7.382 5.26-2.845 1.667-5.921 3.469-9.208 5.394-3.349 1.802-7.097 3.369-10.944 5.204-3.914 1.685-8.215 3.001-12.598 4.614-4.52 1.165-9.206 2.531-14.144 3.465-4.98.725-10.079 1.834-15.434 1.986-10.644 1.055-21.964.197-33.425-1.585-11.483-1.934-22.943-5.784-34.03-10.803-10.973-5.293-21.369-12.414-30.596-20.399-9.01-8.451-17.01-17.916-23.421-28.214-6.121-10.445-11.101-21.337-14.219-32.427-2.948-11.092-4.987-22.095-5.062-32.629-.42-5.252.147-10.36.325-15.292.405-4.919 1.242-9.636 1.909-14.156 1.124-4.438 1.946-8.758 3.187-12.735 1.393-3.93 2.515-7.73 3.925-11.16 1.529-3.383 2.959-6.549 4.282-9.476 1.487-2.844 3.041-5.36 4.343-7.68 1.291-2.332 2.511-4.367 3.784-5.999 1.202-1.679 2.224-3.108 3.053-4.266 1.658-2.316 2.542-3.551 2.542-3.551s-.859 1.253-2.469 3.603c-.804 1.174-1.797 2.623-2.964 4.326-1.241 1.659-2.418 3.718-3.656 6.068-1.25 2.34-2.744 4.873-4.166 7.73-1.256 2.939-2.615 6.117-4.067 9.513-1.331 3.44-2.368 7.241-3.671 11.163-1.151 3.971-1.877 8.276-2.901 12.689-.568 4.494-1.301 9.173-1.602 14.041-.075 4.884-.535 9.929-.011 15.104.281 10.381 2.521 21.172 5.629 31.988 3.279 10.815 8.38 21.368 14.549 31.426 6.457 9.912 14.426 18.944 23.311 26.954 9.333 7.715 19.25 14.185 29.954 19.102 10.788 4.61 21.87 8.09 32.926 9.718 11.035 1.476 21.878 2.09 32.025.862 5.108-.237 9.951-1.414 14.677-2.19 4.686-.987 9.114-2.386 13.385-3.568 4.13-1.63 8.184-2.949 11.858-4.623 3.607-1.823 7.122-3.365 10.252-5.133 3.065-1.88 5.933-3.64 8.585-5.267 2.553-1.771 4.777-3.573 6.849-5.102 2.084-1.521 3.895-2.935 5.309-4.361 1.469-1.36 2.718-2.515 3.732-3.452 1.502-1.386 2.477-2.286 2.886-2.663l-2.24-2.238c-.409.362-1.378 1.222-2.868 2.544-1.009.894-2.256 1.995-3.719 3.291-1.415 1.353-3.202 2.71-5.27 4.147-2.051 1.456-4.27 3.14-6.779 4.828-2.616 1.522-5.445 3.169-8.467 4.928-3.062 1.68-6.52 3.079-10.054 4.759-3.579 1.581-7.546 2.737-11.569 4.211-4.133 1.123-8.463 2.264-12.982 3.18-4.577.604-9.251 1.682-14.167 1.781-9.77.98-20.147.081-30.663-1.513-10.512-1.9-21.03-5.349-31.198-9.989-9.91-4.983-19.729-11.439-27.896-18.798-8.349-7.87-15.688-16.418-21.443-25.981-5.574-9.581-10.197-19.559-12.914-29.763-2.721-10.162-4.455-20.27-4.507-29.915-.446-9.64.786-18.712 2.174-26.968 1.051-4.062 1.87-8.002 2.988-11.649 1.294-3.593 2.375-7.054 3.654-10.202 1.422-3.087 2.753-5.976 3.983-8.648 1.357-2.607 2.813-4.894 4.015-7.013 2.3-4.313 4.876-7.187 6.315-9.361 1.531-2.111 2.348-3.237 2.348-3.237s-.791 1.145-2.275 3.288c-1.388 2.204-3.905 5.143-6.1 9.493-1.15 2.139-2.545 4.442-3.836 7.062-1.165 2.685-2.424 5.588-3.768 8.689-1.201 3.155-2.197 6.619-3.401 10.206-1.027 3.64-1.752 7.566-2.703 11.601-.472 4.122-1.262 8.387-1.486 12.849-.133 4.469-.502 9.081-.067 13.82.262 9.492 2.196 19.388 5.079 29.275 2.879 9.93 7.624 19.568 13.246 28.762 5.744 9.128 13.237 17.397 21.209 24.611 8.578 7.347 17.638 12.916 27.383 17.607 9.868 4.229 20.009 7.307 30.092 8.9 10.091 1.286 19.991 1.942 29.265.789 4.667-.186 9.086-1.332 13.41-1.987 4.262-.968 8.337-2.142 12.218-3.283 3.771-1.491 7.492-2.651 10.829-4.22 3.291-1.667 6.519-3.043 9.36-4.688 2.8-1.714 5.42-3.318 7.843-4.801 2.315-1.639 4.356-3.269 6.246-4.669 1.906-1.382 3.55-2.684 4.841-3.987 1.34-1.241 2.48-2.297 3.404-3.153 1.353-1.25 2.233-2.062 2.613-2.414l-2.178-2.177c-.38.336-1.246 1.103-2.579 2.284-1.901 1.533-4.343 4.203-8.149 6.733-1.858 1.317-3.87 2.841-6.144 4.369-2.369 1.379-4.931 2.87-7.67 4.464-2.771 1.522-5.904 2.79-9.103 4.312-3.24 1.434-6.833 2.483-10.475 3.82-3.741 1.024-7.662 2.053-11.75 2.893-4.144.549-8.374 1.535-12.823 1.631-8.842.906-18.236.106-27.758-1.305-9.513-1.705-19.049-4.775-28.259-8.95-8.974-4.468-17.921-10.278-25.309-16.89-7.598-7.085-14.279-14.768-19.53-23.389-5.096-8.631-9.343-17.619-11.86-26.827-2.534-9.166-4.163-18.289-4.288-27.004-.477-8.706.567-16.912 1.748-24.384.915-3.677 1.626-7.243 2.6-10.547 1.137-3.258 2.087-6.392 3.209-9.247 1.257-2.802 2.432-5.424 3.519-7.848 1.199-2.368 2.493-4.447 3.558-6.372 2.038-3.917 4.332-6.539 5.61-8.515 1.362-1.921 2.087-2.945 2.087-2.945s-.7 1.042-2.013 2.996c-1.228 2.004-3.462 4.691-5.393 8.643-1.013 1.945-2.246 4.039-3.379 6.42-1.021 2.436-2.125 5.07-3.304 7.885-1.045 2.862-1.909 5.998-2.956 9.249-.884 3.298-1.5 6.848-2.315 10.499-.982 7.418-1.813 15.527-1.129 24.079.33 8.56 2.16 17.47 4.853 26.36 2.677 8.934 7.043 17.583 12.184 25.827 5.241 8.189 12.07 15.589 19.295 22.027 7.797 6.595 15.976 11.521 24.788 15.699 8.911 3.769 18.069 6.47 27.156 7.87 9.096 1.106 18.014 1.663 26.361.586 4.203-.182 8.178-1.235 12.069-1.835 3.834-.892 7.5-1.954 10.99-2.997 3.39-1.354 6.736-2.404 9.736-3.828 2.959-1.509 5.861-2.753 8.412-4.241 2.516-1.548 4.872-2.997 7.049-4.336 2.081-1.48 3.914-2.95 5.612-4.213 3.486-2.421 5.677-4.982 7.408-6.436 1.197-1.109 1.976-1.829 2.326-2.154l-2.887-2.887c-.347.307-1.103.975-2.266 2.002-1.689 1.359-3.859 3.722-7.237 5.966-1.648 1.167-3.435 2.516-5.452 3.872-2.101 1.221-4.376 2.544-6.804 3.955-2.457 1.353-5.236 2.477-8.073 3.826-2.871 1.276-6.056 2.206-9.286 3.392-3.312.918-6.791 1.825-10.412 2.58-3.673.489-7.418 1.373-11.362 1.465-7.835.82-16.16.128-24.6-1.09-8.429-1.496-16.893-4.16-25.06-7.836-7.954-3.912-15.949-9.027-22.485-14.829-6.776-6.237-12.737-12.985-17.433-20.587-4.568-7.602-8.397-15.519-10.69-23.646-2.319-8.084-3.829-16.139-4.021-23.842-.501-7.693.348-14.956 1.314-21.57.77-3.261 1.368-6.417 2.19-9.349.97-2.89 1.781-5.669 2.737-8.205 1.081-2.488 2.091-4.817 3.025-6.97 1.029-2.107 2.152-3.958 3.07-5.671 1.756-3.483 3.747-5.827 4.854-7.586 1.179-1.712 1.809-2.626 1.809-2.626s-.604.93-1.735 2.675c-1.055 1.789-2.986 4.196-4.635 7.712-.867 1.732-1.927 3.596-2.891 5.716-.867 2.164-1.806 4.505-2.809 7.006-.878 2.542-1.604 5.32-2.484 8.203-.731 2.924-1.234 6.064-1.906 9.296-.767 6.56-1.404 13.723-.698 21.26.397 7.547 2.103 15.387 4.579 23.196 2.449 7.851 6.395 15.429 11.006 22.645 4.685 7.172 10.786 13.633 17.193 19.233 6.944 5.783 14.161 10.018 21.958 13.644 7.869 3.271 15.955 5.569 23.958 6.763 8.016.914 15.866 1.367 23.207.377 3.697-.177 7.19-1.129 10.611-1.668 3.368-.805 6.592-1.746 9.657-2.681 2.976-1.203 5.917-2.135 8.549-3.4 2.598-1.337 5.147-2.437 7.384-3.755 2.209-1.367 4.276-2.647 6.187-3.83 1.824-1.307 3.434-2.602 4.923-3.716 3.058-2.135 4.979-4.391 6.499-5.671 1.027-.955 1.696-1.577 2.013-1.872l-3.242-3.242c-.312.275-.953.84-1.937 1.707-1.466 1.176-3.354 3.22-6.284 5.163-1.43 1.013-2.982 2.179-4.729 3.354-1.824 1.059-3.795 2.203-5.901 3.427-2.129 1.174-4.537 2.148-6.995 3.317-2.486 1.111-5.247 1.918-8.043 2.947-2.868.806-5.881 1.587-9.015 2.254-3.181.427-6.423 1.205-9.837 1.294-6.782.732-13.99.153-21.301-.861-7.298-1.276-14.641-3.513-21.722-6.665-6.89-3.328-13.893-7.714-19.541-12.67-5.918-5.347-11.131-11.116-15.25-17.651-4.02-6.523-7.417-13.321-9.477-20.316-2.1-6.954-3.487-13.891-3.754-20.536-.53-6.633.109-12.911.849-18.63.616-2.825 1.096-5.553 1.755-8.096.794-2.507 1.457-4.913 2.241-7.116.893-2.161 1.729-4.185 2.502-6.056.852-1.834 1.792-3.447 2.556-4.939 1.46-3.028 3.133-5.083 4.059-6.617.988-1.495 1.514-2.293 1.514-2.293s-.5.814-1.439 2.341c-.874 1.56-2.485 3.677-3.837 6.738-.712 1.51-1.591 3.135-2.376 4.981-.707 1.88-1.471 3.914-2.287 6.087-.704 2.208-1.283 4.612-1.986 7.111-.571 2.532-.956 5.242-1.472 8.038-.544 5.661-.973 11.837-.24 18.311.469 6.487 2.049 13.207 4.303 19.885 2.213 6.719 5.723 13.176 9.781 19.316 4.107 6.109 9.448 11.585 15.005 16.309 6.054 4.933 12.267 8.442 19.004 11.491 6.781 2.751 13.749 4.627 20.622 5.603 6.888.714 13.622 1.056 19.914.156 3.169-.173 6.158-1.017 9.089-1.494 2.882-.717 5.643-1.529 8.263-2.353 2.547-1.046 5.064-1.855 7.313-2.954 2.219-1.157 4.4-2.108 6.31-3.248 1.888-1.179 3.653-2.282 5.286-3.301 1.53-1.165 2.935-2.233 4.204-3.199 2.613-1.837 4.251-3.774 5.55-4.873 1.244-1.163 1.908-1.783 1.908-1.783l2.038-1.749c30.539-30.598 30.463-80.453-.171-111.141-14.91-14.963-34.756-23.201-55.881-23.201-20.93 0-40.584 8.111-55.391 22.893l-2.108 2.111-36.653-36.653-2-2.225 2.116-2.107c25.1-25.017 58.512-38.793 94.081-38.793 35.803 0 69.42 13.929 94.655 39.221 51.942 52.057 51.98 136.672.085 188.624" fill="#4f7383" transform="translate(386.9053 399.2423)"/><g fill="#fff"><path d="m0 0 12.589-9.05-2.858-3.975-8.365 6.013-6.43-8.945 7.288-5.239-2.858-3.976-7.288 5.239-9.05-12.589-4.224 3.037z" transform="translate(234.2153 236.2379)"/><path d="m0 0 2.714-1.176c3.323-1.438 4.648.211 6.087 3.533 1.459 3.37 1.688 5.438-1.822 6.958l-2.48 1.074zm1.67 16.948 7.675-3.323c5.663-2.451 6.985-6.97 4.189-13.428-1.662-3.838-3.954-6.179-7.725-6.547l-1.438-17.438-5.055 2.187 1.715 16.153-2.855 1.236-6.16-14.226-4.773 2.066z" transform="translate(247.1509 209.1012)"/><path d="m0 0 15.188-3.108-.982-4.796-10.092 2.065-2.136-10.441 8.792-1.799-.981-4.796-8.793 1.799-2.137-10.441 10.092-2.065-1.043-5.096-15.187 3.108z" transform="translate(267.1465 218.6061)"/><path d="m0 0 4.998.084 8.219-21.745.102.002-.366 21.877 5.201.087.609-36.309-4.896-.082-8.321 21.692-.102-.002.366-21.825-5.202-.087z" transform="translate(284.5312 215.2536)"/><path d="m0 0c1.076-4.357-1.499-9.038-6.005-10.15-3.861-.954-8.782-.172-10.371 6.265l-4.791 19.409c-1.137 4.606 1.313 8.94 6.215 10.15 4.654 1.149 8.988-1.511 10.198-6.413l.488-1.981-5.049-1.247-.416 1.684c-.49 1.98-2.093 3.371-4.024 2.894-2.525-.623-2.692-2.503-2.105-4.88l4.449-18.023c.501-2.03 1.684-3.419 3.962-2.856 1.387.341 2.973 1.574 2.289 4.346l-.428 1.734 5.051 1.247z" transform="translate(328.7607 192.6754)"/><path d="m0 0 4.645 2.342 7.003-13.887 5.738 2.894-7.004 13.886 4.643 2.343 16.351-32.419-4.644-2.343-7.28 14.434-5.736-2.894 7.279-14.433-4.644-2.342z" transform="translate(324.8232 221.1237)"/><path d="m0 0 3.352 3.709 18.745-7.935.068.076-9.82 17.811 3.384 3.746 26.944-24.346-3.487-3.86-16.386 14.806-.069-.075 8.126-14.286-1.744-1.93-14.999 6.68-.068-.077 16.386-14.805-3.489-3.861z" transform="translate(350.6895 236.2272)"/><path d="m0 0c2.222-1.146 4.012-.231 4.876 1.445.864 1.678.569 3.666-1.652 4.811l-17.045 8.783c-2.222 1.146-4.012.232-4.876-1.445-.865-1.678-.57-3.666 1.651-4.811zm-19.429 4.159c-5.258 2.71-5.832 8.055-3.892 11.818 1.938 3.762 6.624 6.396 11.883 3.687l17.044-8.784c5.259-2.71 5.833-8.055 3.894-11.817-1.938-3.763-6.624-6.397-11.883-3.687z" transform="translate(394.8203 248.1725)"/><path d="m0 0 .547 2.177c1.018 4.055-1.381 4.973-4.844 5.844-3.512.881-5.504.698-6.423-2.963l-.559-2.226zm-15.731 3.949.571 2.276c.845 3.364-.663 4.689-3.878 5.497-3.117.782-5.035.054-5.867-3.26l-.522-2.078zm-15.712-1.419 1.851 7.371c1.639 6.531 6.552 7.873 11.153 6.718l1.286-.322c3.759-.944 4.834-2.528 5.66-5.103 1.734 2.089 4.135 2.643 7.795 1.724l1.979-.496c6.134-1.541 8.865-5.329 7.225-11.859l-1.727-6.875z" transform="translate(408.3418 272.3366)"/><path d="m0 0 .375 5.188 36.221-2.618-.375-5.188z" transform="translate(381.2207 295.7731)"/><path d="m0 0-.441 5.183 30.995 2.643-.875 10.264 5.182.442 1.318-15.447z" transform="translate(381.916 305.7438)"/><path d="m0 0-1.178 5.066 35.364 8.224 1.177-5.065z" transform="translate(379.9141 322.8424)"/><path d="m0 0 2.236-5.587-4.545-1.819-6.406 16.004 4.546 1.819 2.236-5.587 29.166 11.674 1.934-4.829z" transform="translate(380.7979 337.6051)"/><path d="m0 0-13.406-17.62-3.073 4.569 9.64 11.524-.057.085-14.307-4.584-3.074 4.569 21.375 5.772 12.736 8.566 2.902-4.316z" transform="translate(385.3242 364.3991)"/></g><g clip-path="url(#b)"><g clip-path="url(#c)"><path d="m247.577 310.322c-6.558 14.82-6.628 30.672-1.427 43.724-8.046-13.599-9.708-30.462-2.977-45.674 6.731-15.211 20.327-25.324 35.804-28.516-13.159 4.93-24.844 15.644-31.4 30.466" fill="url(#e)"/></g></g></g><g clip-path="url(#f)"><path d="m249.378 274.933c14.308-12.49 33.261-16.389 50.815-12.219-15.995-1.251-33.259 4.193-47.201 16.362-13.939 12.167-21.667 28.537-22.588 44.554-1.761-17.958 4.665-36.208 18.974-48.697" fill="url(#h)"/></g><g clip-path="url(#i)"><g clip-path="url(#j)"><path d="m0 0c-13.939 12.167-21.667 28.537-22.588 44.554-1.761-17.958 4.665-36.207 18.974-48.697 14.308-12.49 33.26-16.389 50.815-12.218-15.995-1.252-33.26 4.192-47.201 16.361" fill="#fff" transform="translate(252.9922 279.0758)"/></g><g clip-path="url(#k)"><g clip-path="url(#l)"><path d="m282.87 250.539c-20.739 3.427-37.986 14.627-48.445 29.551 9.029-18.399 26.139-32.195 47.426-35.714 21.287-3.518 41.928 4.037 56.397 18.554-14.706-10.766-34.64-15.821-55.378-12.391" fill="url(#n)"/></g></g><g fill="#4f7383"><path d="m0 0-7.482-6.612v3.538l7.482 6.438h2.958v-41.295h-2.958z" transform="translate(195.0869 520.2028)"/><path d="m0 0c-2.806 0-4.362-2.333-4.362-4.937v-10.043h-1.724v16.299h1.724v-2.164c.947 1.521 2.841 2.366 4.768 2.366 1.589 0 2.739-.372 3.922-1.555l-1.251-1.251c-.98.981-1.724 1.285-3.077 1.285" transform="translate(216.749 516.5651)"/><path d="m0 0c-.71 1.724-2.333 2.739-4.227 2.739-1.893 0-3.516-1.015-4.227-2.739-.371-1.048-.473-1.488-.574-3.077h9.603c-.102 1.555-.136 2.096-.575 3.077m-3.72-10.888c1.928 0 3.111.574 4.497 1.961l1.286-1.014c-1.657-1.657-3.179-2.502-5.884-2.502-4.497 0-6.932 2.907-6.932 8.351 0 5.275 2.435 8.352 6.526 8.352 4.092 0 6.526-2.942 6.526-7.946v-.778h-11.327c0-4.159 1.826-6.424 5.308-6.424" transform="translate(232.9458 513.8264)"/><path d="m0 0 5.625 8.526h3.887l-6.148-8.526zm9.859-13.224c-1.217 2.958-4.002 4.698-7.249 4.698-3.248 0-6.032-1.74-7.25-4.698-.638-1.798-.812-2.552-.986-5.277h16.472c-.175 2.667-.232 3.595-.987 5.277m-6.38-18.675c3.307 0 5.336.986 7.714 3.364l2.204-1.74c-2.841-2.842-5.451-4.292-10.091-4.292-7.714 0-11.89 4.987-11.89 14.325 0 9.048 4.176 14.326 11.194 14.326 7.017 0 11.193-5.046 11.193-13.629v-1.334h-19.429c0-7.134 3.132-11.02 9.105-11.02" transform="translate(261.2471 516.4909)"/><path d="m0 0c-6.844 0-7.888-5.916-7.888-11.716s1.044-11.716 7.888-11.716 7.888 5.916 7.888 11.716-1.044 11.716-7.888 11.716m7.888-22.098c-2.494-3.247-5.104-3.944-8.294-3.944-2.958 0-5.394.987-6.844 2.437-2.842 2.841-3.596 7.481-3.596 11.889s.754 9.048 3.596 11.89c1.45 1.45 3.886 2.436 6.844 2.436 3.19 0 5.8-.696 8.294-3.944v16.936h2.958v-41.295h-2.958z" transform="translate(291.5225 507.965)"/><path d="m311.301 510.227h2.958v-27.956h-2.958zm-.348 13.34h3.653v-3.654h-3.653z"/><path d="m0 0v18.444h-3.828v2.204h3.828v8.932h2.957v-8.932h6.322v-2.204h-6.322v-18.502c0-2.958 1.334-4.64 4.293-4.64h2.029v-2.61h-2.551c-4.409 0-6.728 3.074-6.728 7.308" transform="translate(323.8867 489.5793)"/><path d="m339.721 510.227h2.957v-27.956h-2.957zm-.349 13.34h3.653v-3.654h-3.653z"/><path d="m0 0c-1.566 1.566-3.537 2.378-5.8 2.378-2.262 0-4.233-.812-5.8-2.378-2.32-2.32-2.494-6.09-2.494-9.338 0-3.247.174-7.017 2.494-9.338 1.567-1.566 3.538-2.378 5.8-2.378 2.263 0 4.234.812 5.8 2.378 2.32 2.321 2.494 6.091 2.494 9.338 0 3.248-.174 7.018-2.494 9.338m1.973-20.589c-2.031-2.031-4.582-3.075-7.773-3.075-3.132 0-5.741 1.044-7.771 3.075-2.958 2.958-3.48 7.249-3.48 11.251s.522 8.294 3.48 11.252c2.03 2.03 4.639 3.074 7.771 3.074 3.191 0 5.742-1.044 7.773-3.074 2.957-2.958 3.479-7.25 3.479-11.252s-.522-8.293-3.479-11.251" transform="translate(367.0371 505.5871)"/><path d="m0 0c0 5.394-2.668 8.352-7.713 8.352-5.047 0-7.889-3.017-7.889-8.352v-17.342h-2.957v27.956h2.957v-3.306c2.088 2.436 4.815 3.653 8.237 3.653 3.074 0 5.568-.869 7.424-2.668 1.914-1.856 2.9-4.465 2.9-7.771v-17.864h-2.959z" transform="translate(398.3555 499.6134)"/><path d="m0 0v6.785l15.428 17.922c1.508 1.799 2.146 3.074 2.146 4.988 0 3.075-1.798 5.162-4.988 5.162-2.494 0-5.046-1.276-5.046-5.278h-7.54c0 7.54 5.51 12.064 12.586 12.064 7.308 0 12.527-4.582 12.527-12.006 0-4.002-1.566-6.148-4.407-9.453l-11.542-13.399h15.949v-6.785z" transform="translate(220.9155 82.9382)"/><path d="m0 0c0 3.479-2.03 5.626-4.988 5.626s-5.046-2.147-5.046-5.626v-17.226c0-3.48 2.088-5.568 5.046-5.568s4.988 2.088 4.988 5.568zm-4.988-29.579c-6.728 0-12.586 4.408-12.586 12.295v17.4c0 7.888 5.858 12.295 12.586 12.295 6.728 0 12.528-4.407 12.528-12.295v-17.4c0-7.887-5.8-12.295-12.528-12.295" transform="translate(275.5513 112.1696)"/><path d="m0 0v33.176l-8.41-7.309v8.12l8.41 7.308h7.54v-41.295z" transform="translate(306.4648 82.9382)"/><path d="m0 0c-2.958 0-5.162-2.262-5.162-5.221 0-3.015 2.204-5.218 5.162-5.218s5.104 2.203 5.104 5.218c0 2.959-2.146 5.221-5.104 5.221m0-16.994c-3.19 0-5.685-2.552-5.685-5.742s2.495-5.684 5.685-5.684c3.189 0 5.684 2.494 5.684 5.684s-2.495 5.742-5.684 5.742m0-18.211c-7.308 0-13.224 4.35-13.224 12.353 0 5.046 2.9 7.772 5.162 9.28-2.087 1.45-4.64 4.176-4.64 8.584 0 7.308 5.801 11.773 12.702 11.773s12.644-4.465 12.644-11.773c0-4.408-2.553-7.134-4.641-8.584 2.263-1.508 5.221-4.234 5.221-9.28 0-8.003-5.916-12.353-13.224-12.353" transform="translate(345.1514 117.7956)"/></g></g><g clip-path="url(#o)"><path d="m0 0c0-84.534-68.528-153.062-153.063-153.062-84.534 0-153.062 68.528-153.062 153.062s68.528 153.062 153.062 153.062c84.535 0 153.063-68.528 153.063-153.062" fill="#fff" transform="translate(445.1445 304.9577)"/><path d="m0 0c0-84.534-68.528-153.062-153.063-153.062-84.534 0-153.062 68.528-153.062 153.062s68.528 153.062 153.062 153.062c84.535 0 153.063-68.528 153.063-153.062z" fill="none" stroke="#b2b2b2" stroke-miterlimit="10" stroke-width=".5" transform="translate(445.1445 304.9577)"/><path d="m0 0-2.107 2.11s-10.936 9.072-13.18 10.647c-2.234 1.583-4.636 3.44-7.382 5.26-2.845 1.667-5.921 3.469-9.208 5.394-3.349 1.802-7.097 3.369-10.944 5.204-3.914 1.685-8.215 3.001-12.598 4.614-4.52 1.165-9.206 2.531-14.144 3.465-4.98.725-10.079 1.834-15.434 1.986-10.644 1.055-21.964.197-33.425-1.585-11.483-1.934-22.943-5.784-34.03-10.803-10.973-5.293-21.369-12.414-30.596-20.399-9.01-8.451-17.01-17.916-23.421-28.214-6.121-10.445-11.101-21.337-14.219-32.427-2.948-11.092-4.987-22.095-5.062-32.629-.42-5.252.147-10.36.325-15.292.405-4.919 1.242-9.636 1.909-14.156 1.124-4.438 1.946-8.758 3.187-12.735 1.393-3.93 2.515-7.73 3.925-11.16 1.529-3.383 2.959-6.549 4.282-9.476 1.487-2.844 3.041-5.36 4.343-7.68 1.291-2.332 2.511-4.367 3.784-5.999 1.202-1.679 2.224-3.108 3.053-4.266 1.658-2.316 2.542-3.551 2.542-3.551s-.859 1.253-2.469 3.603c-.804 1.174-1.797 2.623-2.964 4.326-1.241 1.659-2.418 3.718-3.656 6.068-1.25 2.34-2.744 4.873-4.166 7.73-1.256 2.939-2.615 6.117-4.067 9.513-1.331 3.44-2.368 7.241-3.671 11.163-1.151 3.971-1.877 8.276-2.901 12.689-.568 4.494-1.301 9.173-1.602 14.041-.075 4.884-.535 9.929-.011 15.104.281 10.381 2.521 21.172 5.629 31.988 3.279 10.815 8.38 21.368 14.549 31.426 6.457 9.912 14.426 18.944 23.311 26.954 9.333 7.715 19.25 14.185 29.954 19.102 10.788 4.61 21.87 8.09 32.926 9.718 11.035 1.476 21.878 2.09 32.025.862 5.108-.237 9.951-1.414 14.677-2.19 4.686-.987 9.114-2.386 13.385-3.568 4.13-1.63 8.184-2.949 11.858-4.623 3.607-1.823 7.122-3.365 10.252-5.133 3.065-1.88 5.933-3.64 8.585-5.267 2.553-1.771 4.777-3.573 6.849-5.102 2.084-1.521 3.895-2.935 5.309-4.361 1.469-1.36 2.718-2.515 3.732-3.452 1.502-1.386 2.477-2.286 2.886-2.663l-2.24-2.238c-.409.362-1.378 1.222-2.868 2.544-1.009.894-2.256 1.995-3.719 3.291-1.415 1.353-3.202 2.71-5.27 4.147-2.051 1.456-4.27 3.14-6.779 4.828-2.616 1.522-5.445 3.169-8.467 4.928-3.062 1.68-6.52 3.079-10.054 4.759-3.579 1.581-7.546 2.737-11.569 4.211-4.133 1.123-8.463 2.264-12.982 3.18-4.577.604-9.251 1.682-14.167 1.781-9.77.98-20.147.081-30.663-1.513-10.512-1.9-21.03-5.349-31.198-9.989-9.91-4.983-19.729-11.439-27.896-18.798-8.349-7.87-15.688-16.418-21.443-25.981-5.574-9.581-10.197-19.559-12.914-29.763-2.721-10.162-4.455-20.27-4.507-29.915-.446-9.64.786-18.712 2.174-26.968 1.051-4.062 1.87-8.002 2.988-11.649 1.294-3.593 2.375-7.054 3.654-10.202 1.422-3.087 2.753-5.976 3.983-8.648 1.357-2.607 2.813-4.894 4.015-7.013 2.3-4.313 4.876-7.187 6.315-9.361 1.531-2.111 2.348-3.237 2.348-3.237s-.791 1.145-2.275 3.288c-1.388 2.204-3.905 5.143-6.1 9.493-1.15 2.139-2.545 4.442-3.836 7.062-1.165 2.685-2.424 5.588-3.768 8.689-1.201 3.155-2.197 6.619-3.401 10.206-1.027 3.64-1.752 7.566-2.703 11.601-.472 4.122-1.262 8.387-1.486 12.849-.133 4.469-.502 9.081-.067 13.82.262 9.492 2.196 19.388 5.079 29.275 2.879 9.93 7.624 19.568 13.246 28.762 5.744 9.128 13.237 17.397 21.209 24.611 8.578 7.347 17.638 12.916 27.383 17.607 9.868 4.229 20.009 7.307 30.092 8.9 10.091 1.286 19.991 1.942 29.265.789 4.667-.186 9.086-1.332 13.41-1.987 4.262-.968 8.337-2.142 12.218-3.283 3.771-1.491 7.492-2.651 10.829-4.22 3.291-1.667 6.519-3.043 9.36-4.688 2.8-1.714 5.42-3.318 7.843-4.801 2.315-1.639 4.356-3.269 6.246-4.669 1.906-1.382 3.55-2.684 4.841-3.987 1.34-1.241 2.48-2.297 3.404-3.153 1.353-1.25 2.233-2.062 2.613-2.414l-2.178-2.177c-.38.336-1.246 1.103-2.579 2.284-1.901 1.533-4.343 4.203-8.149 6.733-1.858 1.317-3.87 2.841-6.144 4.369-2.369 1.379-4.931 2.87-7.67 4.464-2.771 1.522-5.904 2.79-9.103 4.312-3.24 1.434-6.833 2.483-10.475 3.82-3.741 1.024-7.662 2.053-11.75 2.893-4.144.549-8.374 1.535-12.823 1.631-8.842.906-18.236.106-27.758-1.305-9.513-1.705-19.049-4.775-28.259-8.95-8.974-4.468-17.921-10.278-25.309-16.89-7.598-7.085-14.279-14.768-19.53-23.389-5.096-8.631-9.343-17.619-11.86-26.827-2.534-9.166-4.163-18.289-4.288-27.004-.477-8.706.567-16.912 1.748-24.384.915-3.677 1.626-7.243 2.6-10.547 1.137-3.258 2.087-6.392 3.209-9.247 1.257-2.802 2.432-5.424 3.519-7.848 1.199-2.368 2.493-4.447 3.558-6.372 2.038-3.917 4.332-6.539 5.61-8.515 1.362-1.921 2.087-2.945 2.087-2.945s-.7 1.042-2.013 2.996c-1.228 2.004-3.462 4.691-5.393 8.643-1.013 1.945-2.246 4.039-3.379 6.42-1.021 2.436-2.125 5.07-3.304 7.885-1.045 2.862-1.909 5.998-2.956 9.249-.884 3.298-1.5 6.848-2.315 10.499-.982 7.418-1.813 15.527-1.129 24.079.33 8.56 2.16 17.47 4.853 26.36 2.677 8.934 7.043 17.583 12.184 25.827 5.241 8.189 12.07 15.589 19.295 22.027 7.797 6.595 15.976 11.521 24.788 15.699 8.911 3.769 18.069 6.47 27.156 7.87 9.096 1.106 18.014 1.663 26.361.586 4.203-.182 8.178-1.235 12.069-1.835 3.834-.892 7.5-1.954 10.99-2.997 3.39-1.354 6.736-2.404 9.736-3.828 2.959-1.509 5.861-2.753 8.412-4.241 2.516-1.548 4.872-2.997 7.049-4.336 2.081-1.48 3.914-2.95 5.612-4.213 3.486-2.421 5.677-4.982 7.408-6.436 1.197-1.109 1.976-1.829 2.326-2.154l-2.887-2.887c-.347.307-1.103.975-2.266 2.002-1.689 1.359-3.859 3.722-7.237 5.966-1.648 1.167-3.435 2.516-5.452 3.872-2.101 1.221-4.376 2.544-6.804 3.955-2.457 1.353-5.236 2.477-8.073 3.826-2.871 1.276-6.056 2.206-9.286 3.392-3.312.918-6.791 1.825-10.412 2.58-3.673.489-7.418 1.373-11.362 1.465-7.835.82-16.16.128-24.6-1.09-8.429-1.496-16.893-4.16-25.06-7.836-7.954-3.912-15.949-9.027-22.485-14.829-6.776-6.237-12.737-12.985-17.433-20.587-4.568-7.602-8.397-15.519-10.69-23.646-2.319-8.084-3.829-16.139-4.021-23.842-.501-7.693.348-14.956 1.314-21.57.77-3.261 1.368-6.417 2.19-9.349.97-2.89 1.781-5.669 2.737-8.205 1.081-2.488 2.091-4.817 3.025-6.97 1.029-2.107 2.152-3.958 3.07-5.671 1.756-3.483 3.747-5.827 4.854-7.586 1.179-1.712 1.809-2.626 1.809-2.626s-.604.93-1.735 2.675c-1.055 1.789-2.986 4.196-4.635 7.712-.867 1.732-1.927 3.596-2.891 5.716-.867 2.164-1.806 4.505-2.809 7.006-.878 2.542-1.604 5.32-2.484 8.203-.731 2.924-1.234 6.064-1.906 9.296-.767 6.56-1.404 13.723-.698 21.26.397 7.547 2.103 15.387 4.579 23.196 2.449 7.851 6.395 15.429 11.006 22.645 4.685 7.172 10.786 13.633 17.193 19.233 6.944 5.783 14.161 10.018 21.958 13.644 7.869 3.271 15.955 5.569 23.958 6.763 8.016.914 15.866 1.367 23.207.377 3.697-.177 7.19-1.129 10.611-1.668 3.368-.805 6.592-1.746 9.657-2.681 2.976-1.203 5.917-2.135 8.549-3.4 2.598-1.337 5.147-2.437 7.384-3.755 2.209-1.367 4.276-2.647 6.187-3.83 1.824-1.307 3.434-2.602 4.923-3.716 3.058-2.135 4.979-4.391 6.499-5.671 1.027-.955 1.696-1.577 2.013-1.872l-3.242-3.242c-.312.275-.953.84-1.937 1.707-1.466 1.176-3.354 3.22-6.284 5.163-1.43 1.013-2.982 2.179-4.729 3.354-1.824 1.059-3.795 2.203-5.901 3.427-2.129 1.174-4.537 2.148-6.995 3.317-2.486 1.111-5.247 1.918-8.043 2.947-2.868.806-5.881 1.587-9.015 2.254-3.181.427-6.423 1.205-9.837 1.294-6.782.732-13.99.153-21.301-.861-7.298-1.276-14.641-3.513-21.722-6.665-6.89-3.328-13.893-7.714-19.541-12.67-5.918-5.347-11.131-11.116-15.25-17.651-4.02-6.523-7.417-13.321-9.477-20.316-2.1-6.954-3.487-13.891-3.754-20.536-.53-6.633.109-12.911.849-18.63.616-2.825 1.096-5.553 1.755-8.096.794-2.507 1.457-4.913 2.241-7.116.893-2.161 1.729-4.185 2.502-6.056.852-1.834 1.792-3.447 2.556-4.939 1.46-3.028 3.133-5.083 4.059-6.617.988-1.495 1.514-2.293 1.514-2.293s-.5.814-1.439 2.341c-.874 1.56-2.485 3.677-3.837 6.738-.712 1.51-1.591 3.135-2.376 4.981-.707 1.88-1.471 3.914-2.287 6.087-.704 2.208-1.283 4.612-1.986 7.111-.571 2.532-.956 5.242-1.472 8.038-.544 5.661-.973 11.837-.24 18.311.469 6.487 2.049 13.207 4.303 19.885 2.213 6.719 5.723 13.176 9.781 19.316 4.107 6.109 9.448 11.585 15.005 16.309 6.054 4.933 12.267 8.442 19.004 11.491 6.781 2.751 13.749 4.627 20.622 5.603 6.888.714 13.622 1.056 19.914.156 3.169-.173 6.158-1.017 9.089-1.494 2.882-.717 5.643-1.529 8.263-2.353 2.547-1.046 5.064-1.855 7.313-2.954 2.219-1.157 4.4-2.108 6.31-3.248 1.888-1.179 3.653-2.282 5.286-3.301 1.53-1.165 2.935-2.233 4.204-3.199 2.613-1.837 4.251-3.774 5.55-4.873 1.244-1.163 1.908-1.783 1.908-1.783l2.038-1.749c30.539-30.598 30.463-80.453-.171-111.141-14.91-14.963-34.756-23.201-55.881-23.201-20.93 0-40.584 8.111-55.391 22.893l-2.108 2.111-36.653-36.653-2-2.225 2.116-2.107c25.1-25.017 58.512-38.793 94.081-38.793 35.803 0 69.42 13.929 94.655 39.221 51.942 52.057 51.98 136.672.085 188.624" fill="#4f7383" transform="translate(386.9053 399.2423)"/><g clip-path="url(#p)"><g clip-path="url(#q)"><path d="m247.577 310.322c-6.558 14.82-6.628 30.672-1.427 43.724-8.046-13.599-9.708-30.462-2.977-45.674 6.731-15.211 20.327-25.324 35.804-28.516-13.159 4.93-24.844 15.644-31.4 30.466" fill="url(#e)"/></g></g></g><g clip-path="url(#r)"><path d="m249.378 274.933c14.308-12.49 33.261-16.389 50.815-12.219-15.995-1.251-33.259 4.193-47.201 16.362-13.939 12.167-21.667 28.537-22.588 44.554-1.761-17.958 4.665-36.208 18.974-48.697" fill="url(#h)"/></g><g clip-path="url(#s)"><g clip-path="url(#t)"><path d="m0 0c-13.939 12.167-21.667 28.537-22.588 44.554-1.761-17.958 4.665-36.207 18.974-48.697 14.308-12.49 33.26-16.389 50.815-12.218-15.995-1.252-33.26 4.192-47.201 16.361" fill="#fff" transform="translate(252.9922 279.0758)"/></g><g clip-path="url(#u)"><g clip-path="url(#v)"><path d="m282.87 250.539c-20.739 3.427-37.986 14.627-48.445 29.551 9.029-18.399 26.139-32.195 47.426-35.714 21.287-3.518 41.928 4.037 56.397 18.554-14.706-10.766-34.64-15.821-55.378-12.391" fill="url(#n)"/></g></g><g fill="#4f7383"><path d="m0 0-7.482-6.612v3.538l7.482 6.438h2.958v-41.295h-2.958z" transform="translate(195.0869 520.2028)"/><path d="m0 0c-2.806 0-4.362-2.333-4.362-4.937v-10.043h-1.724v16.299h1.724v-2.164c.947 1.521 2.841 2.366 4.768 2.366 1.589 0 2.739-.372 3.922-1.555l-1.251-1.251c-.98.981-1.724 1.285-3.077 1.285" transform="translate(216.749 516.5651)"/><path d="m0 0c-.71 1.724-2.333 2.739-4.227 2.739-1.893 0-3.516-1.015-4.227-2.739-.371-1.048-.473-1.488-.574-3.077h9.603c-.102 1.555-.136 2.096-.575 3.077m-3.72-10.888c1.928 0 3.111.574 4.497 1.961l1.286-1.014c-1.657-1.657-3.179-2.502-5.884-2.502-4.497 0-6.932 2.907-6.932 8.351 0 5.275 2.435 8.352 6.526 8.352 4.092 0 6.526-2.942 6.526-7.946v-.778h-11.327c0-4.159 1.826-6.424 5.308-6.424" transform="translate(232.9458 513.8264)"/><path d="m0 0 5.625 8.526h3.887l-6.148-8.526zm9.859-13.224c-1.217 2.958-4.002 4.698-7.249 4.698-3.248 0-6.032-1.74-7.25-4.698-.638-1.798-.812-2.552-.986-5.277h16.472c-.175 2.667-.232 3.595-.987 5.277m-6.38-18.675c3.307 0 5.336.986 7.714 3.364l2.204-1.74c-2.841-2.842-5.451-4.292-10.091-4.292-7.714 0-11.89 4.987-11.89 14.325 0 9.048 4.176 14.326 11.194 14.326 7.017 0 11.193-5.046 11.193-13.629v-1.334h-19.429c0-7.134 3.132-11.02 9.105-11.02" transform="translate(261.2471 516.4909)"/><path d="m0 0c-6.844 0-7.888-5.916-7.888-11.716s1.044-11.716 7.888-11.716 7.888 5.916 7.888 11.716-1.044 11.716-7.888 11.716m7.888-22.098c-2.494-3.247-5.104-3.944-8.294-3.944-2.958 0-5.394.987-6.844 2.437-2.842 2.841-3.596 7.481-3.596 11.889s.754 9.048 3.596 11.89c1.45 1.45 3.886 2.436 6.844 2.436 3.19 0 5.8-.696 8.294-3.944v16.936h2.958v-41.295h-2.958z" transform="translate(291.5225 507.965)"/><path d="m311.301 510.227h2.958v-27.956h-2.958zm-.348 13.34h3.653v-3.654h-3.653z"/><path d="m0 0v18.444h-3.828v2.204h3.828v8.932h2.957v-8.932h6.322v-2.204h-6.322v-18.502c0-2.958 1.334-4.64 4.293-4.64h2.029v-2.61h-2.551c-4.409 0-6.728 3.074-6.728 7.308" transform="translate(323.8867 489.5793)"/><path d="m339.721 510.227h2.957v-27.956h-2.957zm-.349 13.34h3.653v-3.654h-3.653z"/><path d="m0 0c-1.566 1.566-3.537 2.378-5.8 2.378-2.262 0-4.233-.812-5.8-2.378-2.32-2.32-2.494-6.09-2.494-9.338 0-3.247.174-7.017 2.494-9.338 1.567-1.566 3.538-2.378 5.8-2.378 2.263 0 4.234.812 5.8 2.378 2.32 2.321 2.494 6.091 2.494 9.338 0 3.248-.174 7.018-2.494 9.338m1.973-20.589c-2.031-2.031-4.582-3.075-7.773-3.075-3.132 0-5.741 1.044-7.771 3.075-2.958 2.958-3.48 7.249-3.48 11.251s.522 8.294 3.48 11.252c2.03 2.03 4.639 3.074 7.771 3.074 3.191 0 5.742-1.044 7.773-3.074 2.957-2.958 3.479-7.25 3.479-11.252s-.522-8.293-3.479-11.251" transform="translate(367.0371 505.5871)"/><path d="m0 0c0 5.394-2.668 8.352-7.713 8.352-5.047 0-7.889-3.017-7.889-8.352v-17.342h-2.957v27.956h2.957v-3.306c2.088 2.436 4.815 3.653 8.237 3.653 3.074 0 5.568-.869 7.424-2.668 1.914-1.856 2.9-4.465 2.9-7.771v-17.864h-2.959z" transform="translate(398.3555 499.6134)"/><path d="m0 0v6.785l15.428 17.922c1.508 1.799 2.146 3.074 2.146 4.988 0 3.075-1.798 5.162-4.988 5.162-2.494 0-5.046-1.276-5.046-5.278h-7.54c0 7.54 5.51 12.064 12.586 12.064 7.308 0 12.527-4.582 12.527-12.006 0-4.002-1.566-6.148-4.407-9.453l-11.542-13.399h15.949v-6.785z" transform="translate(220.9155 82.9382)"/><path d="m0 0c0 3.479-2.03 5.626-4.988 5.626s-5.046-2.147-5.046-5.626v-17.226c0-3.48 2.088-5.568 5.046-5.568s4.988 2.088 4.988 5.568zm-4.988-29.579c-6.728 0-12.586 4.408-12.586 12.295v17.4c0 7.888 5.858 12.295 12.586 12.295 6.728 0 12.528-4.407 12.528-12.295v-17.4c0-7.887-5.8-12.295-12.528-12.295" transform="translate(275.5513 112.1696)"/><path d="m0 0v33.176l-8.41-7.309v8.12l8.41 7.308h7.54v-41.295z" transform="translate(306.4648 82.9382)"/><path d="m0 0c-2.958 0-5.162-2.262-5.162-5.221 0-3.015 2.204-5.218 5.162-5.218s5.104 2.203 5.104 5.218c0 2.959-2.146 5.221-5.104 5.221m0-16.994c-3.19 0-5.685-2.552-5.685-5.742s2.495-5.684 5.685-5.684c3.189 0 5.684 2.494 5.684 5.684s-2.495 5.742-5.684 5.742m0-18.211c-7.308 0-13.224 4.35-13.224 12.353 0 5.046 2.9 7.772 5.162 9.28-2.087 1.45-4.64 4.176-4.64 8.584 0 7.308 5.801 11.773 12.702 11.773s12.644-4.465 12.644-11.773c0-4.408-2.553-7.134-4.641-8.584 2.263-1.508 5.221-4.234 5.221-9.28 0-8.003-5.916-12.353-13.224-12.353" transform="translate(345.1514 117.7956)"/></g></g><g fill="#fff" font-family="DIN Engschrift Std"><text font-size="51.000061" transform="matrix(.79291474 -.6093326 -.6093326 -.79291474 208.9668 208.1289)"><tspan x="0" y="0">F</tspan></text><text font-size="50.999973" transform="matrix(.90012599 -.43562966 -.43562966 -.90012599 228.5371 193.6133)"><tspan x="0" y="0">R</tspan></text><text font-size="51.000008" transform="matrix(.97240576 -.23329605 -.23329605 -.97240576 253.5166 182.2646)"><tspan x="0" y="0">A</tspan></text><text font-size="51.00005" transform="matrix(.99986179 -.01662547 -.01662547 -.99986179 279.627 176.5801)"><tspan x="0" y="0">N</tspan></text><text font-size="51.000046" transform="matrix(.98047752 .19663119 .19663119 -.98047752 307.7944 176.793)"><tspan x="0" y="0">C</tspan></text><text font-size="51.000008" transform="matrix(.92129986 .38885288 .38885288 -.92129986 333.2988 182.5605)"><tspan x="0" y="0">E</tspan></text><text font-size="50.999996" transform="matrix(.74100985 .67149416 .67149416 -.74100985 367.0737 199.4277)"><tspan x="0" y="0">M</tspan></text><text font-size="50.999989" transform="matrix(.55324913 .83301585 .83301585 -.55324913 392.0063 223.6514)"><tspan x="0" y="0">O</tspan></text><text font-size="51.000038" transform="matrix(.35913504 .93328561 .93328561 -.35913504 406.7031 246.9219)"><tspan x="0" y="0">B</tspan></text><text font-size="50.999981" transform="matrix(.2006687 .97965916 .97965916 -.2006687 415.354 271.7656)"><tspan x="0" y="0">I</tspan></text><text font-size="51.000053" transform="matrix(.05220779 .99863624 .99863624 -.05220779 418.2939 286.1533)"><tspan x="0" y="0">L</tspan></text><text font-size="51.000023" transform="matrix(-.09534113 .99544466 .99544466 .09534113 418.8779 309.2266)"><tspan x="0" y="0">I</tspan></text><text font-size="51.000027" transform="matrix(-.23460967 .97208966 .97208966 .23460967 417.4375 323.665)"><tspan x="0" y="0">T</tspan></text><text font-size="51.000031" transform="matrix(-.40760956 .91315631 .91315631 .40760956 411.9312 344.8965)"><tspan x="0" y="0">É</tspan></text><text font-size="51" transform="matrix(-.58075492 .81407845 .81407845 .58075492 401.6387 366.8506)"><tspan x="0" y="0">S</tspan></text></g><g clip-path="url(#w)"><path d="m268 52.888c10.601-9.254 24.643-12.143 37.649-9.053-11.85-.928-24.642 3.106-34.97 12.122-10.328 9.013-16.054 21.142-16.736 33.01-1.304-13.305 3.457-26.826 14.057-36.079" fill="url(#x)"/></g><text fill="#fff" font-family="DIN Engschrift Std" font-size="37.785042" transform="matrix(.55325067 .83301482 .83301482 -.55325067 373.6714 14.8926)"><tspan x="0" y="0">O</tspan></text><text fill="#fff" font-family="DIN Engschrift Std" font-size="37.785049" transform="matrix(.35931672 .93321567 .93321567 -.35931672 384.5532 32.1172)"><tspan x="0" y="0">B</tspan></text><text fill="#fff" font-family="DIN Engschrift Std" font-size="37.784981" transform="matrix(.20126251 .97953734 .97953734 -.20126251 390.9575 50.4873)"><tspan x="0" y="0">I</tspan></text><text fill="#fff" font-family="DIN Engschrift Std" font-size="37.785004" transform="matrix(.05259759 .99861579 .99861579 -.05259759 393.144 61.1631)"><tspan x="0" y="0">L</tspan></text><text fill="#fff" font-family="DIN Engschrift Std" font-size="37.784996" transform="matrix(-.09475189 .99550092 .99550092 .09475189 393.5835 78.2393)"><tspan x="0" y="0">I</tspan></text><text fill="#fff" font-family="DIN Engschrift Std" font-size="37.785034" transform="matrix(-.23366923 .97231615 .97231615 .23366923 392.5298 88.9014)"><tspan x="0" y="0">T</tspan></text><text fill="#fff" font-family="DIN Engschrift Std" font-size="37.784981" transform="matrix(-.40675423 .91353763 .91353763 .40675423 388.4653 104.6377)"><tspan x="0" y="0">É</tspan></text><text fill="#fff" font-family="DIN Engschrift Std" font-size="37.785015" transform="matrix(-.57984365 .81472777 .81472777 .57984365 380.8628 120.895)"><tspan x="0" y="0">S</tspan></text><g clip-path="url(#y)"><path d="m268 478.492c10.601-9.254 24.643-12.143 37.649-9.053-11.85-.927-24.642 3.107-34.97 12.122-10.328 9.015-16.054 21.143-16.736 33.01-1.304-13.304 3.457-26.826 14.057-36.079" fill="url(#z)"/></g><g clip-path="url(#A)"><g clip-path="url(#B)"><path d="m0 0c-10.327 9.014-16.053 21.143-16.735 33.01-1.304-13.305 3.457-26.826 14.057-36.079 10.601-9.254 24.643-12.142 37.649-9.053-11.851-.927-24.642 3.106-34.971 12.122" fill="#fff" transform="translate(270.6782 481.5612)"/></g><g clip-path="url(#C)"><g clip-path="url(#D)"><path d="m292.814 460.419c-15.365 2.539-28.143 10.837-35.892 21.894 6.689-13.632 19.366-23.853 35.138-26.46 15.771-2.606 31.064 2.991 41.784 13.747-10.896-7.977-25.664-11.722-41.03-9.181" fill="url(#E)"/></g></g><g fill="#4f7383"><path d="m0 0v5.027l11.43 13.278c1.117 1.333 1.59 2.278 1.59 3.696 0 2.277-1.332 3.824-3.695 3.824-1.848 0-3.739-.945-3.739-3.91h-5.586c0 5.586 4.082 8.938 9.325 8.938 5.414 0 9.281-3.395 9.281-8.895 0-2.965-1.16-4.555-3.266-7.004l-8.551-9.927h11.817v-5.027z" transform="translate(246.9136 336.2462)"/><path d="m0 0c0 2.578-1.504 4.168-3.695 4.168-2.192 0-3.739-1.59-3.739-4.168v-12.762c0-2.579 1.547-4.126 3.739-4.126 2.191 0 3.695 1.547 3.695 4.126zm-3.695-21.915c-4.985 0-9.325 3.266-9.325 9.109v12.892c0 5.844 4.34 9.109 9.325 9.109 4.984 0 9.281-3.265 9.281-9.109v-12.892c0-5.843-4.297-9.109-9.281-9.109" transform="translate(287.3921 357.9035)"/><path d="m0 0v24.58l-6.23-5.415v6.016l6.23 5.414h5.587v-30.595z" transform="translate(310.2949 336.2462)"/><path d="m0 0c-2.192 0-3.825-1.675-3.825-3.868 0-2.234 1.633-3.866 3.825-3.866 2.191 0 3.78 1.632 3.78 3.866 0 2.193-1.589 3.868-3.78 3.868m0-12.59c-2.364 0-4.212-1.891-4.212-4.255 0-2.363 1.848-4.211 4.212-4.211 2.362 0 4.21 1.848 4.21 4.211 0 2.364-1.848 4.255-4.21 4.255m0-13.493c-5.414 0-9.798 3.223-9.798 9.153 0 3.738 2.149 5.758 3.825 6.875-1.547 1.074-3.438 3.094-3.438 6.36 0 5.414 4.298 8.722 9.411 8.722 5.112 0 9.367-3.308 9.367-8.722 0-3.266-1.891-5.286-3.438-6.36 1.676-1.117 3.868-3.137 3.868-6.875 0-5.93-4.383-9.153-9.797-9.153" transform="translate(338.958 362.0714)"/></g><path d="m0 0h517.474" fill="none" stroke="#1d1d1b" stroke-miterlimit="10" transform="translate(40.9023 287.0797)"/></g><g clip-path="url(#F)"><path d="m0 0c0-156.553-126.911-283.464-283.465-283.464-156.553 0-283.464 126.911-283.464 283.464s126.911 283.464 283.464 283.464c156.554 0 283.465-126.911 283.465-283.464" fill="#fff" transform="translate(581.1025 297.6378)"/><path d="m0 0c0-156.553-126.911-283.464-283.465-283.464-156.553 0-283.464 126.911-283.464 283.464s126.911 283.464 283.464 283.464c156.554 0 283.465-126.911 283.465-283.464z" fill="none" stroke="#b2b2b2" stroke-miterlimit="10" stroke-width=".37" transform="translate(581.1025 297.6378)"/><path d="m0 0-3.903 3.907s-20.252 16.801-24.409 19.718c-4.136 2.933-8.584 6.371-13.67 9.742-5.269 3.086-10.965 6.424-17.053 9.989-6.201 3.337-13.143 6.239-20.269 9.637-7.248 3.122-15.214 5.559-23.33 8.546-8.372 2.156-17.05 4.687-26.196 6.417-9.222 1.343-18.664 3.396-28.581 3.676-19.712 1.955-40.676.367-61.901-2.934-21.267-3.581-42.491-10.712-63.021-20.008-20.324-9.802-39.577-22.989-56.665-37.777-16.684-15.649-31.5-33.18-43.373-52.251-11.336-19.344-20.559-39.515-26.334-60.053-5.458-20.541-9.236-40.919-9.374-60.428-.778-9.726.273-19.186.602-28.321.751-9.109 2.3-17.843 3.535-26.214 2.083-8.22 3.603-16.221 5.903-23.585 2.58-7.279 4.658-14.315 7.268-20.668 2.831-6.265 5.48-12.128 7.93-17.548 2.755-5.267 5.633-9.929 8.044-14.225 2.39-4.318 4.65-8.086 7.007-11.11 2.226-3.109 4.12-5.754 5.655-7.899 3.07-4.289 4.707-6.576 4.707-6.576s-1.591 2.319-4.572 6.671c-1.491 2.175-3.329 4.858-5.491 8.013-2.297 3.072-4.477 6.885-6.77 11.238-2.315 4.333-5.081 9.023-7.714 14.314-2.327 5.443-4.843 11.33-7.532 17.619-2.466 6.369-4.387 13.409-6.799 20.674-2.131 7.353-3.476 15.326-5.373 23.498-1.051 8.323-2.409 16.988-2.967 26.004-.138 9.044-.991 18.388-.021 27.971.521 19.225 4.67 39.21 10.426 59.241 6.073 20.029 15.519 39.573 26.944 58.2 11.957 18.356 26.716 35.083 43.171 49.917 17.284 14.288 35.649 26.27 55.473 35.375 19.98 8.539 40.502 14.983 60.978 17.998 20.436 2.733 40.516 3.87 59.309 1.597 9.458-.439 18.429-2.62 27.179-4.057 8.678-1.826 16.88-4.418 24.791-6.607 7.646-3.02 15.155-5.461 21.959-8.562 6.679-3.376 13.19-6.232 18.986-9.506 5.676-3.482 10.988-6.74 15.9-9.754 4.727-3.279 8.845-6.617 12.683-9.449 3.859-2.817 7.214-5.436 9.833-8.077 2.722-2.517 5.034-4.657 6.91-6.392 2.782-2.566 4.589-4.234 5.345-4.932l-4.148-4.145c-.757.671-2.551 2.263-5.311 4.712-1.869 1.655-4.177 3.695-6.887 6.094-2.62 2.507-5.931 5.02-9.761 7.681-3.797 2.695-7.907 5.814-12.554 8.94-4.844 2.82-10.082 5.869-15.68 9.127-5.67 3.11-12.075 5.703-18.619 8.813-6.628 2.928-13.975 5.071-21.426 7.8-7.654 2.078-15.674 4.192-24.042 5.889-8.476 1.118-17.131 3.114-26.235 3.297-18.095 1.817-37.313.15-56.789-2.802-19.466-3.518-38.946-9.906-57.775-18.498-18.353-9.229-36.537-21.185-51.663-34.814-15.461-14.574-29.054-30.405-39.711-48.116-10.324-17.743-18.885-36.22-23.917-55.119-5.038-18.819-8.25-37.538-8.347-55.401-.825-17.852 1.456-34.654 4.025-49.944 1.948-7.521 3.464-14.818 5.535-21.572 2.397-6.655 4.399-13.065 6.768-18.893 2.633-5.718 5.097-11.069 7.375-16.017 2.515-4.828 5.211-9.064 7.436-12.988 4.261-7.988 9.031-13.31 11.694-17.336 2.836-3.909 4.35-5.994 4.35-5.994s-1.466 2.119-4.213 6.09c-2.571 4.079-7.232 9.522-11.297 17.579-2.13 3.962-4.713 8.226-7.105 13.079-2.157 4.972-4.487 10.348-6.979 16.091-2.223 5.843-4.067 12.258-6.297 18.9-1.903 6.743-3.244 14.014-5.005 21.486-.875 7.635-2.339 15.533-2.752 23.796-.248 8.275-.931 16.818-.124 25.593.484 17.58 4.066 35.906 9.405 54.216 5.332 18.391 14.119 36.239 24.53 53.266 10.639 16.904 24.514 32.219 39.278 45.578 15.888 13.607 32.665 23.92 50.712 32.607 18.276 7.832 37.058 13.534 55.73 16.483 18.688 2.383 37.023 3.598 54.197 1.461 8.645-.343 16.828-2.466 24.834-3.68 7.896-1.792 15.44-3.967 22.629-6.08 6.982-2.761 13.873-4.908 20.056-7.814 6.093-3.087 12.072-5.636 17.332-8.682 5.184-3.174 10.038-6.145 14.525-8.892 4.288-3.034 8.068-6.052 11.567-8.646 3.53-2.559 6.576-4.971 8.966-7.384 2.482-2.298 4.592-4.253 6.304-5.838 2.506-2.316 4.136-3.82 4.839-4.471l-4.033-4.033c-.702.622-2.308 2.043-4.778 4.23-3.52 2.839-8.042 7.783-15.09 12.469-3.44 2.44-7.167 5.261-11.378 8.093-4.388 2.552-9.134 5.315-14.204 8.265-5.132 2.82-10.934 5.168-16.86 7.986-6.001 2.657-12.654 4.599-19.399 7.074-6.928 1.898-14.189 3.804-21.76 5.359-7.675 1.017-15.507 2.843-23.747 3.021-16.377 1.677-33.774.196-51.408-2.418-17.618-3.157-35.278-8.842-52.333-16.576-16.621-8.273-33.189-19.034-46.872-31.278-14.07-13.121-26.444-27.349-36.168-43.316-9.438-15.982-17.303-32.629-21.965-49.682-4.692-16.974-7.709-33.87-7.941-50.009-.883-16.125 1.051-31.322 3.238-45.157 1.693-6.812 3.011-13.414 4.815-19.535 2.106-6.034 3.864-11.837 5.943-17.125 2.326-5.189 4.504-10.044 6.517-14.534 2.219-4.385 4.617-8.236 6.588-11.801 3.775-7.254 8.024-12.109 10.391-15.769 2.521-3.557 3.865-5.455 3.865-5.455s-1.297 1.931-3.729 5.549c-2.274 3.713-6.411 8.688-9.987 16.008-1.876 3.601-4.161 7.479-6.258 11.889-1.891 4.511-3.934 9.39-6.119 14.602-1.934 5.301-3.536 11.109-5.475 17.129-1.636 6.107-2.777 12.681-4.287 19.443-1.818 13.738-3.357 28.755-2.091 44.594.612 15.853 4 32.354 8.988 48.818 4.958 16.544 13.044 32.562 22.565 47.829 9.705 15.166 22.352 28.871 35.733 40.793 14.439 12.216 29.586 21.338 45.906 29.076 16.502 6.979 33.463 11.981 50.291 14.573 16.846 2.049 33.363 3.08 48.82 1.086 7.784-.338 15.146-2.288 22.351-3.4 7.1-1.651 13.89-3.617 20.353-5.549 6.278-2.506 12.477-4.452 18.032-7.089 5.478-2.794 10.853-5.098 15.578-7.855 4.66-2.867 9.021-5.549 13.055-8.03 3.852-2.741 7.248-5.462 10.391-7.801 6.456-4.485 10.514-9.227 13.721-11.92 2.217-2.053 3.658-3.388 4.307-3.989l-5.346-5.346c-.644.568-2.043 1.804-4.197 3.707-3.127 2.516-7.145 6.893-13.402 11.048-3.054 2.163-6.361 4.66-10.097 7.17-3.892 2.264-8.103 4.712-12.602 7.327-4.55 2.504-9.696 4.587-14.948 7.084-5.319 2.364-11.219 4.087-17.199 6.283-6.135 1.7-12.577 3.379-19.282 4.778-6.803.906-13.739 2.542-21.043 2.713-14.51 1.519-29.928.236-45.558-2.019-15.611-2.77-31.284-7.704-46.41-14.512-14.732-7.244-29.537-16.717-41.641-27.463-12.548-11.55-23.589-24.047-32.286-38.126-8.459-14.077-15.551-28.74-19.796-43.791-4.295-14.972-7.092-29.889-7.448-44.154-.927-14.247.645-27.698 2.434-39.948 1.427-6.037 2.534-11.883 4.056-17.313 1.797-5.353 3.298-10.498 5.07-15.194 2-4.608 3.872-8.922 5.601-12.91 1.906-3.901 3.986-7.329 5.686-10.501 3.251-6.449 6.939-10.791 8.989-14.05 2.183-3.171 3.35-4.862 3.35-4.862s-1.118 1.722-3.213 4.954c-1.954 3.31-5.53 7.769-8.584 14.281-1.605 3.208-3.569 6.66-5.354 10.586-1.606 4.009-3.344 8.343-5.201 12.975-1.628 4.708-2.971 9.853-4.601 15.191-1.355 5.415-2.285 11.23-3.529 17.216-1.422 12.148-2.601 25.415-1.294 39.373.735 13.977 3.895 28.495 8.481 42.957 4.536 14.54 11.843 28.575 20.382 41.937 8.675 13.284 19.975 25.25 31.842 35.619 12.859 10.712 26.225 18.553 40.663 25.269 14.574 6.058 29.548 10.315 44.37 12.524 14.845 1.694 29.383 2.531 42.978.699 6.848-.328 13.317-2.09 19.652-3.089 6.238-1.492 12.208-3.233 17.883-4.965 5.513-2.228 10.958-3.955 15.835-6.297 4.808-2.475 9.53-4.513 13.673-6.954 4.091-2.532 7.918-4.902 11.456-7.093 3.379-2.421 6.361-4.818 9.118-6.881 5.665-3.955 9.221-8.132 12.036-10.503 1.903-1.768 3.141-2.92 3.729-3.467l-6.005-6.004c-.576.509-1.764 1.555-3.587 3.161-2.715 2.179-6.21 5.964-11.637 9.563-2.649 1.874-5.523 4.033-8.759 6.21-3.378 1.96-7.027 4.081-10.928 6.346-3.942 2.174-8.401 3.979-12.954 6.144-4.604 2.057-9.718 3.552-14.895 5.458-5.311 1.493-10.893 2.938-16.697 4.174-5.89.791-11.893 2.231-18.216 2.396-12.561 1.356-25.91.283-39.449-1.594-13.515-2.363-27.114-6.507-40.227-12.343-12.76-6.164-25.729-14.285-36.191-23.465-10.959-9.903-20.612-20.586-28.241-32.688-7.444-12.082-13.736-24.67-17.55-37.624-3.891-12.88-6.458-25.726-6.953-38.033-.981-12.283.202-23.91 1.572-34.502 1.14-5.23 2.029-10.283 3.251-14.992 1.47-4.644 2.698-9.1 4.148-13.178 1.656-4.004 3.204-7.752 4.635-11.217 1.577-3.397 3.318-6.383 4.733-9.145 2.704-5.61 5.803-9.415 7.517-12.257 1.83-2.769 2.806-4.246 2.806-4.246s-.928 1.508-2.667 4.336c-1.618 2.89-4.601 6.811-7.106 12.479-1.318 2.795-2.946 5.805-4.4 9.224-1.308 3.482-2.723 7.248-4.234 11.272-1.305 4.09-2.376 8.542-3.679 13.168-1.057 4.691-1.771 9.71-2.727 14.887-1.006 10.485-1.8 21.923-.444 33.913.868 12.012 3.794 24.458 7.969 36.825 4.1 12.443 10.598 24.402 18.114 35.773 7.606 11.313 17.499 21.455 27.789 30.203 11.211 9.135 22.717 15.634 35.195 21.282 12.557 5.093 25.461 8.568 38.191 10.376 12.755 1.321 25.227 1.955 36.879.288 5.869-.32 11.405-1.884 16.832-2.766 5.338-1.328 10.451-2.832 15.304-4.358 4.716-1.938 9.378-3.436 13.542-5.471 4.11-2.143 8.148-3.903 11.687-6.015 3.497-2.183 6.765-4.226 9.789-6.115 2.833-2.155 5.435-4.135 7.786-5.923 4.839-3.402 7.874-6.988 10.279-9.024 2.304-2.154 3.533-3.302 3.533-3.302l3.772-3.239c56.558-56.666 56.419-148.996-.316-205.828-27.612-27.71-64.366-42.968-103.488-42.968-38.762 0-75.159 15.022-102.581 42.397l-3.904 3.91-67.881-67.881-3.702-4.119 3.918-3.903c46.483-46.329 108.361-71.842 174.233-71.842 66.307 0 128.562 25.797 175.298 72.637 96.193 96.406 96.261 253.109.157 349.321" fill="#4f7383" transform="translate(473.2471 472.2487)"/><g fill="#fff"><path d="m0 0 22.785-17.461-5.514-7.196-15.141 11.602-12.407-16.186 13.191-10.112-5.515-7.193-13.19 10.108-17.462-22.785-7.644 5.859z" transform="translate(188.436 168.7165)"/><path d="m0 0 4.934-2.382c6.038-2.917 8.617.034 11.534 6.073 2.957 6.124 3.538 9.935-2.841 13.016l-4.508 2.178zm4.387 31.238 13.949-6.737c10.292-4.97 12.393-13.433 6.726-25.17-3.369-6.974-7.79-11.134-14.798-11.526l-3.994-32.161-9.187 4.437 4.409 29.76-5.189 2.504-12.489-25.856-8.675 4.189z" transform="translate(209.0874 118.6647)"/><path d="m0 0-.185.044-10.259-22.597 9.368-2.241zm.554 19.772 7.808-1.867-1.04-68.886-9.368 2.241.606 14.712-12.766 3.053-6.117-13.394-9.369 2.241z" transform="translate(256.2627 112.4401)"/><path d="m0 0 9.255-.159 13.857-40.761.188-.003.689 40.515 9.632-.163-1.14-67.242-9.066.156-14.049 40.668-.189.003-.684-40.419-9.634.163z" transform="translate(279.7749 127.0651)"/><path d="m0 0c1.639-8.15-3.505-16.602-11.932-18.295-7.222-1.453-16.264.391-18.686 12.43l-7.296 36.303c-1.731 8.613 3.153 16.433 12.322 18.277 8.705 1.75 16.509-3.523 18.352-12.692l.745-3.703-9.447-1.899-.632 3.149c-.745 3.703-3.601 6.406-7.214 5.68-4.721-.949-5.182-4.413-4.289-8.858l6.776-33.711c.762-3.796 2.84-6.462 7.099-5.605 2.596.52 5.63 2.673 4.587 7.858l-.65 3.242 9.446 1.898z" transform="translate(358.3184 81.9411)"/><path d="m0 0 26.449 11.178 3.53-8.351-17.576-7.429 7.685-18.183 15.312 6.472 3.531-8.351-15.313-6.472 7.684-18.183 17.576 7.425 3.749-8.873-26.446-11.177z" transform="translate(352.0498 134.6979)"/><path d="m0 0 6.859 6.215 33.081-18.076.14.127-14.812 34.63 6.927 6.28 45.162-49.832-7.137-6.469-27.467 30.306-.14-.127 12.34-27.824-3.568-3.237-26.408 15.076-.142-.127 27.467-30.305-7.14-6.472z" transform="translate(394.7178 155.0788)"/><path d="m0 0c3.854-2.561 7.338-1.245 9.271 1.667s1.794 6.63-2.06 9.19l-29.586 19.649c-3.857 2.56-7.338 1.245-9.271-1.667-1.934-2.91-1.797-6.63 2.06-9.191zm-34.917 11.622c-9.128 6.062-9.094 16.016-4.756 22.548 4.338 6.53 13.499 10.424 22.627 4.362l29.586-19.648c9.129-6.061 9.095-16.016 4.757-22.548-4.338-6.53-13.499-10.424-22.628-4.362z" transform="translate(476.999 167.1667)"/><path d="m0 0 1.494 3.879c2.783 7.227-1.421 9.454-7.592 11.829-6.256 2.409-9.962 2.52-12.473-4.003l-1.526-3.967zm-28.03 10.794 1.559 4.055c2.31 5.996-.164 8.768-5.895 10.975-5.551 2.139-9.241 1.233-11.517-4.675l-1.426-3.701zm-29.203.921 5.058 13.135c4.482 11.634 13.814 13.002 22.011 9.842l2.292-.88c6.698-2.581 8.319-5.735 9.259-10.651 3.657 3.449 8.195 3.928 14.717 1.415l3.525-1.356c10.932-4.209 15.099-11.786 10.616-23.423l-4.719-12.251z" transform="translate(505.9961 206.7975)"/><path d="m0 0 1.937 9.439 65.885-13.523-1.938-9.439z" transform="translate(460.9883 254.2741)"/><path d="m0 0 .505 9.621 57.538-3.024 1.004 19.054 9.62-.507-1.506-28.673z" transform="translate(464.4473 270.7751)"/><path d="m0 0-.912 9.591 66.941 6.381.915-9.591z" transform="translate(465.0664 303.8156)"/><path d="m0 0 2.606-10.838-8.816-2.12-7.465 31.043 8.817 2.12 2.607-10.836 56.577 13.604 2.253-9.369z" transform="translate(470.7158 329.0124)"/><path d="m0 0-11.676 26.227 8.282 3.689 7.758-17.43 18.032 8.029-6.761 15.183 8.282 3.689 6.762-15.186 18.032 8.028-7.76 17.427 8.8 3.918 11.679-26.227zm-21.533 8.195-4.148 9.317 17.235-5.973 2.536-5.695z" transform="translate(456.4014 348.1842)"/><path d="m0 0 5.588-7.848-1.77-1.26c-3.618-2.573-5.521-6.249-2.672-10.25 3.065-4.306 7.24-2.841 10.857-.268 4.23 3.012 5.417 4.438 4.131 9.667l-1.888 7.696c-2.313 8.788 1.141 13.216 9.143 18.913 9.231 6.572 18.488 8.063 25.715-2.091 5.425-7.619 3.917-17.386-3.47-22.644l-2.922-2.082-5.588 7.848 2.463 1.753c2.847 2.025 4.521 5.536 1.673 9.537-3.78 5.307-7.209 3.446-12.208-.113-5.847-4.164-6.279-5.511-5.078-10.455l1.689-7.259c2.051-8.742-1.149-13.687-7.997-18.562-8.309-5.917-18.179-6.22-24.586 2.783-5.588 7.845-3.005 17.568 3.073 21.896z" transform="translate(440.9609 413.339)"/></g><g clip-path="url(#G)"><g clip-path="url(#H)"><path d="m295.435 388.551c27.956 11.071 57.351 10.039 81.168-.562-24.622 15.915-55.765 20.233-84.461 8.869-28.695-11.363-48.442-35.829-55.496-64.289 10.106 24.036 30.827 44.914 58.789 55.982" fill="url(#I)"/></g></g></g><g clip-path="url(#J)"><path d="m229.692 387.807c-24.207-25.612-32.827-60.463-26.382-93.315-1.148 29.746 10.212 61.355 33.796 86.311 23.58 24.95 54.497 38.077 84.261 38.61-5.014.692-10.059 1.039-15.087 1.039-28.226.001-56.044-10.905-76.588-32.645" fill="url(#K)"/></g><g clip-path="url(#L)"><g clip-path="url(#M)"><path d="m0 0c23.58 24.951 54.498 38.078 84.262 38.61-33.166 4.582-67.472-5.993-91.676-31.605-24.207-25.612-32.826-60.463-26.382-93.316-1.148 29.747 10.213 61.356 33.796 86.311" fill="#fff" transform="translate(237.1055 380.8024)"/></g><g clip-path="url(#N)"><g clip-path="url(#O)"><path d="m182.007 327.503c7.876 38.197 29.905 69.352 58.342 87.649-34.775-15.39-61.608-46.1-69.694-85.309-8.082-39.208 4.41-78.032 30.265-105.921-18.883 28.054-26.792 65.382-18.913 103.581" fill="url(#P)"/></g></g><g fill="#4f7383"><path d="m0 0 13.531-8.674-2.739-4.274-8.992 5.763-6.162-9.612 7.835-5.021-2.74-4.275-7.834 5.022-8.673-13.532-4.54 2.911z" transform="translate(240.2002 223.2116)"/><path d="m0 0 2.864-1.088c3.508-1.331 4.802.437 6.134 3.944 1.351 3.557 1.49 5.707-2.214 7.117l-2.618.993zm.929 17.622 8.1-3.078c5.977-2.27 7.559-6.884 4.969-13.701-1.538-4.05-3.801-6.581-7.687-7.141l-.665-18.117-5.335 2.028 1.013 16.797-3.013 1.146-5.705-15.016-5.037 1.914z" transform="translate(254.2256 196.1784)"/><path d="m0 0 15.874-2.492-.787-5.014-10.548 1.657-1.713-10.914 9.189-1.442-.787-5.014-9.19 1.445-1.715-10.914 10.548-1.658-.836-5.326-15.873 2.495z" transform="translate(274.606 206.9362)"/><path d="m0 0 5.172.269 9.308-22.224.105.005-1.177 22.645 5.386.282 1.952-37.586-5.067-.264-9.408 22.165-.107-.005 1.176-22.594-5.385-.281z" transform="translate(291.8633 204.3346)"/><path d="m0 0c1.25-4.481-1.271-9.41-5.907-10.701-3.972-1.106-9.094-.447-10.939 6.171l-5.561 19.961c-1.321 4.735 1.084 9.302 6.125 10.706 4.787 1.333 9.359-1.289 10.762-6.329l.57-2.037-5.196-1.447-.48 1.731c-.569 2.038-2.272 3.426-4.26 2.875-2.594-.725-2.71-2.678-2.028-5.121l5.162-18.536c.584-2.086 1.851-3.49 4.194-2.835 1.426.397 3.032 1.722 2.239 4.574l-.498 1.782 5.194 1.447z" transform="translate(337.7529 182.3278)"/><path d="m0 0 4.763 2.526 7.559-14.239 5.884 3.125-7.562 14.239 4.761 2.529 17.652-33.241-4.762-2.528-7.858 14.8-5.883-3.124 7.86-14.801-4.763-2.529z" transform="translate(332.082 211.3942)"/><path d="m0 0 3.457 3.857 19.462-8.146.071.081-10.255 18.418 3.494 3.895 28.025-25.118-3.598-4.015-17.044 15.276-.07-.078 8.48-14.774-1.799-2.006-15.572 6.859-.07-.078 17.043-15.276-3.598-4.016z" transform="translate(357.3447 226.5553)"/><path d="m0 0c2.297-1.196 4.154-.256 5.056 1.479.902 1.734.602 3.793-1.695 4.99l-17.625 9.164c-2.297 1.193-4.154.254-5.055-1.48-.903-1.735-.605-3.796 1.692-4.989zm-20.112 4.382c-5.439 2.827-6.013 8.365-3.989 12.257 2.024 3.89 6.886 6.602 12.325 3.773l17.625-9.164c5.436-2.826 6.012-8.365 3.988-12.256-2.024-3.888-6.886-6.6-12.324-3.774z" transform="translate(402.5586 238.2799)"/><path d="m0 0 .594 2.248c1.108 4.191-1.367 5.173-4.944 6.117-3.629.96-5.695.796-6.696-2.987l-.607-2.3zm-16.252 4.294.619 2.351c.921 3.476-.627 4.868-3.949 5.746-3.22.849-5.217.12-6.12-3.305l-.569-2.146zm-16.302-1.272 2.012 7.617c1.781 6.747 6.891 8.075 11.644 6.82l1.328-.352c3.885-1.025 4.979-2.682 5.801-5.361 1.825 2.144 4.319 2.689 8.1 1.69l2.046-.542c6.337-1.672 9.117-5.634 7.335-12.381l-1.877-7.104z" transform="translate(416.377 262.2878)"/><path d="m0 0 .498 5.368 37.478-3.476-.498-5.369z" transform="translate(388.459 286.1032)"/><path d="m0 0-.306 5.385 32.201 1.814-.601 10.665 5.385.303.903-16.048z" transform="translate(389.3623 295.6061)"/><path d="m0 0-1.108 5.275 36.826 7.741 1.108-5.275z" transform="translate(387.6846 314.1217)"/><path d="m0 0 2.139-5.861-4.768-1.738-6.125 16.785 4.768 1.738 2.138-5.859 30.589 11.161 1.848-5.065z" transform="translate(389.2031 328.5827)"/><path d="m0 0-14.859-17.5-2.929 4.901 10.621 11.398-.054.09-15.069-3.952-2.929 4.902 22.45 4.791 13.664 8.161 2.765-4.628z" transform="translate(396.0898 353.8405)"/></g></g></g></svg>