<?xml version="1.0" encoding="utf-8"?>
<!-- Generator: Adobe Illustrator 18.0.0, SVG Export Plug-In . SVG Version: 6.00 Build 0)  -->
<!DOCTYPE svg PUBLIC "-//W3C//DTD SVG 1.1//EN" "http://www.w3.org/Graphics/SVG/1.1/DTD/svg11.dtd">
<svg version="1.1" id="Calque_1" xmlns="http://www.w3.org/2000/svg" xmlns:xlink="http://www.w3.org/1999/xlink" x="0px" y="0px"
	 viewBox="0 0 283.5 283.5" enable-background="new 0 0 283.5 283.5" xml:space="preserve">
<g id="Calque_2">
	<g>
		<path fill="none" d="M141.5,124.4c-3.9-4.4-7.5-9-11-13.7C134,115.4,137.7,120,141.5,124.4c-5.4,6.2-11.2,12.1-17.3,17.5
			c6.2,5.4,12.1,11.2,17.5,17.4c2,2.3,3.9,4.6,5.8,6.9c-1.9-2.3-3.8-4.7-5.8-6.9c5.4-6.2,11.3-12,17.4-17.4l0,0
			C152.9,136.4,147,130.6,141.5,124.4z"/>
		<path fill="none" d="M91.6,165.1c10.2-5.7,19.9-12.4,28.8-19.9C111.5,152.7,101.8,159.4,91.6,165.1z"/>
		<path fill="#8CC0D9" d="M283.6,189.2v-38.6c-45.8,0-86.2,23.2-110.2,58.4c9.8,22.5,15.3,47.2,15.6,73.2
			C189.9,230.8,231.9,189.2,283.6,189.2z"/>
		<path fill="#8CC0D9" d="M150.3,283.9L150.3,283.9c0.1-0.4,0-0.9,0-1.3C150.3,283.1,150.3,283.5,150.3,283.9z"/>
		<path fill="#8CC0D9" d="M147.5,166.2c-1.9-2.3-3.8-4.7-5.8-6.9c-5.4-6.2-11.3-11.9-17.5-17.4c-1.2,1.1-2.5,2.2-3.8,3.3
			c-8.9,7.5-18.6,14.1-28.8,19.9c10.1,7.8,19.3,16.8,27.1,26.9c9.9,12.7,17.8,27.1,23.2,42.6c5.3,15.1,8.2,31.3,8.3,48.1
			c0.3-27.3,8.7-52.6,23.1-73.7c-2.6-5.9-5.4-11.6-8.5-17.1l0,0l0,0C159.8,182.8,154,174.3,147.5,166.2z"/>
		<path fill="#8CC0D9" d="M189,283.9c0-0.6,0-1.1,0-1.7C188.9,282.8,188.9,283.4,189,283.9L189,283.9z"/>
		<path fill="#2C9DBE" d="M150.3,283.9h38.6c0-0.6,0-1.1,0-1.7c-0.2-26-5.8-50.7-15.6-73.2c-14.4,21-22.8,46.4-23.1,73.7
			C150.3,283.1,150.3,283.5,150.3,283.9z"/>
		<path fill="#5CB2A5" d="M-0.2,150.4L-0.2,150.4c0.5,0.1,0.9,0,1.4,0C0.7,150.5,0.2,150.4-0.2,150.4z"/>
		<path fill="#5CB2A5" d="M94.3,283.8h38.6c0-45.8-23.1-86.2-58.3-110.2c-22.5,9.8-47.2,15.4-73.3,15.6
			C52.8,190,94.3,232.1,94.3,283.8z"/>
		<path fill="#5CB2A5" d="M-0.2,150.5L-0.2,150.5v38.6c0.5,0,1.1,0,1.6,0c-0.5,0-1.1,0-1.6,0V150.5z"/>
		<path fill="#5CB2A5" d="M124.2,142c6.2-5.4,11.9-11.3,17.3-17.5c-3.9-4.4-7.5-9-11-13.7c-4.4-6-8.5-12.3-12.1-18.9v0
			c-7.8,10.1-16.8,19.3-26.9,27.2c-12.7,9.9-27,17.8-42.5,23.2c-15,5.3-31,8.2-47.8,8.4c27.2,0.3,52.5,8.7,73.4,23.1
			c5.8-2.5,11.5-5.3,17-8.4c10.2-5.7,19.9-12.4,28.8-19.9C121.7,144.1,123,143.1,124.2,142z"/>
		<path fill="#00977A" d="M-0.2,150.5v38.6c0.5,0,1.1,0,1.6,0c26.1-0.2,50.8-5.8,73.3-15.6c-21-14.3-46.2-22.8-73.4-23.1
			C0.7,150.5,0.2,150.5-0.2,150.5z"/>
		<path fill="#C5CC2E" d="M133.1-0.1L133.1-0.1c-0.1,0.5,0,0.9,0,1.4C133.1,0.8,133.1,0.4,133.1-0.1z"/>
		<path fill="#C5CC2E" d="M-0.2,94.6v38.7c45.7,0,86.2-23.2,110.2-58.4c-9.8-22.5-15.3-47.2-15.6-73.2C93.5,53.1,51.4,94.6-0.2,94.6
			z"/>
		<path fill="#C5CC2E" d="M130.5,110.7c3.5,4.7,7.1,9.3,11,13.7c5.5,6.2,11.4,12,17.6,17.4c8.7-7.7,18.2-14.6,28.2-20.7
			c1.4-0.9,2.9-1.7,4.3-2.5c-10.2-7.8-19.3-16.9-27.2-27c-9.9-12.7-17.7-27.1-23.2-42.6c-5.2-15-8.2-31.1-8.3-47.8
			c-0.3,27.2-8.7,52.6-23.1,73.6c2.5,5.8,5.3,11.4,8.4,16.9l0,0C122.1,98.4,126.1,104.7,130.5,110.7z"/>
		<path fill="#C5CC2E" d="M94.4-0.1c0,0.6,0,1.2,0,1.7C94.5,1.1,94.5,0.5,94.4-0.1L94.4-0.1z"/>
		<path fill="#C5CC2E" d="M130.5,110.7c-4.4-6-8.5-12.3-12.1-18.9l0,0v0C122.1,98.4,126.1,104.7,130.5,110.7z"/>
		<path fill="#93B63D" d="M133.1-0.1H94.5c0,0.6,0,1.2,0,1.7c0.2,26,5.8,50.7,15.6,73.2c14.3-21,22.8-46.3,23.1-73.6
			C133.1,0.8,133.1,0.4,133.1-0.1z"/>
		<path fill="#EE7E22" d="M283.7,133.3L283.7,133.3c-0.5-0.1-1,0-1.5,0C282.8,133.3,283.2,133.3,283.7,133.3z"/>
		<path fill="#EE7E22" d="M189.1,0h-38.6c0,45.8,23.2,86.2,58.4,110.2c22.5-9.8,47.2-15.3,73.1-15.6C230.6,93.7,189.1,51.6,189.1,0z
			"/>
		<path fill="#EE7E22" d="M282,94.6c0.6,0,1.2,0,1.8,0v-0.1C283.2,94.6,282.6,94.6,282,94.6z"/>
		<path fill="#EE7E22" d="M191.7,118.7c-1.5,0.8-2.9,1.7-4.3,2.5c-10.1,6-19.5,12.9-28.2,20.7c0,0,0,0,0,0l0,0
			c-6.2,5.4-12,11.2-17.4,17.4c2,2.3,3.9,4.6,5.8,6.9c6.5,8.1,12.3,16.6,17.4,25.7c7.8-10.1,16.9-19.2,27-27
			c12.7-9.9,27-17.8,42.4-23.2c15.1-5.3,31.2-8.3,48-8.4c-27.2-0.3-52.4-8.8-73.4-23.1C203,112.8,197.3,115.6,191.7,118.7z"/>
		<path fill="#EE7E22" d="M164.9,191.9L164.9,191.9c-5.1-9-10.9-17.6-17.4-25.7C154,174.3,159.8,182.8,164.9,191.9z"/>
		<path fill="#EE7E22" d="M159.2,141.9c8.7-7.7,18.2-14.6,28.2-20.7C177.3,127.2,167.9,134.2,159.2,141.9L159.2,141.9z"/>
		<path fill="#E64325" d="M208.9,110.2c21,14.3,46.2,22.7,73.4,23.1c0.5,0,1,0,1.5,0V94.7c-0.6,0-1.2,0-1.8,0
			C256,94.9,231.3,100.4,208.9,110.2z"/>
	</g>
</g>
</svg>
