<svg xmlns="http://www.w3.org/2000/svg" viewBox="0 0 239.1 80.5"><style id="style2">.st0{fill:#7db82b}.st1{fill:#706f6f}</style><linearGradient id="SVGID_1_" x1="50" x2="1051.6" y1="251.84" y2="251.84" gradientUnits="userSpaceOnUse" gradientTransform="translate(0 419.102)"><stop id="stop128" offset="0" stop-color="#0A4F86"/><stop id="stop130" offset=".5" stop-color="#A0C128"/><stop id="stop132" offset=".75" stop-color="#54B085"/><stop id="stop134" offset="1" stop-color="#079EE3"/></linearGradient><path id="rect4617" fill="#fff" stroke-width=".03" d="M0 0h239.1v80.5H0z"/><g id="g4615"><g id="g70" fill="#7db82b"><path id="path4" d="M218.46 29.54h2.2l2.44-2.3-2.48-1.1zm-3.42 14.57h10.1v-2.63h-7.2v-2.84h6.25V36h-6.26v-2.76h7.1V30.6h-9.98v13.5z" class="st0"/><path id="path6" d="M19.2 14.7l1.8-4.4 1.78 4.4zm-5.24 5.66h2.98l1.22-3.02h5.63l1.23 3.02h3.07L22.38 6.7h-2.7z" class="st0"/><path id="path8" d="M39.37 19.96c.95-.42 1.77-.92 2.46-1.5v-5.9h-5.8v2.6H39v1.95c-.76.55-1.66.83-2.76.83-.58 0-1.13-.1-1.63-.32-.48-.2-.92-.5-1.28-.9-.35-.37-.65-.83-.84-1.36-.18-.52-.3-1.1-.3-1.72v-.04c0-.6.12-1.13.3-1.64.2-.5.47-.96.82-1.34.36-.38.76-.7 1.22-.9.46-.24.97-.34 1.5-.34.37 0 .73.04 1.04.1.32.07.6.15.88.28.28.12.55.25.8.42.25.17.5.35.76.6l1.85-2.28c-.34-.3-.7-.57-1.07-.8-.38-.23-.76-.42-1.18-.6-.42-.14-.88-.26-1.37-.35-.48-.08-1.02-.12-1.63-.12-1 0-1.96.2-2.8.55-.86.38-1.6.87-2.2 1.52-.63.63-1.1 1.38-1.45 2.22-.36.83-.53 1.74-.53 2.72v.04c0 1 .17 1.94.5 2.8.34.86.83 1.6 1.44 2.2.6.63 1.34 1.12 2.2 1.45.86.37 1.8.54 2.86.54 1.24-.05 2.3-.26 3.25-.68z" class="st0"/><path id="path10" d="M45.2 20.36h10.13v-2.64H48.1v-2.86h6.27v-2.64H48.1V9.46h7.13V6.82H45.2v13.54z" class="st0"/><path id="path12" d="M58.55 20.36h2.9v-8.6l6.44 8.6h2.5V6.82h-2.9v8.34L61.3 6.82h-2.7v13.54z" class="st0"/><path id="path14" d="M82.02 20.45c.53-.1 1-.28 1.43-.5.42-.2.84-.45 1.22-.74.38-.3.7-.62 1.07-1l-1.87-1.9c-.52.47-1.05.87-1.57 1.14-.53.3-1.18.42-1.94.42-.56 0-1.1-.1-1.57-.33-.5-.23-.9-.53-1.23-.93-.33-.37-.6-.84-.8-1.36-.2-.53-.3-1.07-.3-1.64v-.04c0-.6.1-1.13.3-1.64.2-.5.47-.96.8-1.34.34-.38.76-.7 1.22-.9.47-.22.98-.34 1.54-.34.68 0 1.28.12 1.83.4.55.27 1.07.65 1.6 1.1l1.87-2.17c-.32-.32-.63-.6-1-.86-.35-.25-.73-.48-1.15-.65-.43-.18-.9-.3-1.4-.42-.52-.1-1.1-.14-1.7-.14-1.04 0-2 .18-2.83.53C76.7 7.5 76 8 75.4 8.65a6.75 6.75 0 00-1.44 2.22c-.34.84-.5 1.74-.5 2.73v.04c0 .97.16 1.87.5 2.73.34.86.82 1.6 1.43 2.23.6.63 1.3 1.1 2.15 1.5.84.35 1.74.54 2.73.54.63-.05 1.22-.1 1.74-.2z" class="st0"/><path id="path16" d="M88.32 20.36h10.13v-2.64H91.2v-2.86h6.28v-2.64H91.2V9.46h7.14V6.82H88.3v13.54z" class="st0"/><path id="path18" d="M107.56 20.36h2.94V15.1h6.36v-2.67h-6.36V9.5h7.2V6.83h-10.14z" class="st0"/><path id="path20" d="M123.33 13.4V9.5h2.92c.7 0 1.28.17 1.7.5.4.3.6.8.6 1.44v.04c0 .6-.18 1.05-.58 1.4-.38.34-.94.5-1.66.5zm-2.94 6.96h2.93v-4.32h2.31l2.84 4.32h3.42l-3.26-4.83c.84-.3 1.54-.82 2.06-1.5.53-.7.8-1.58.8-2.7v-.04c0-1.3-.38-2.34-1.13-3.12-.9-.92-2.2-1.36-3.9-1.36h-6.08z" class="st0"/><path id="path22" d="M139.02 14.7l1.76-4.4 1.77 4.4zm-5.25 5.66h2.98l1.22-3.04h5.63l1.2 3.04h3.08l-5.7-13.65h-2.72z" class="st0"/><path id="path24" d="M150.23 20.36h2.9v-8.6l6.45 8.6h2.5V6.82h-2.9v8.34l-6.24-8.34h-2.7z" class="st0"/><path id="path26" d="M171.2 23.72l1.25-3.13c.57-.03 1.1-.1 1.55-.24.47-.12.9-.3 1.3-.5s.78-.46 1.12-.74c.33-.3.67-.6 1-.94l-1.88-1.9c-.53.47-1.05.87-1.58 1.14-.52.3-1.17.42-1.93.42-.57 0-1.1-.1-1.58-.33-.48-.22-.88-.52-1.2-.92-.35-.37-.62-.84-.8-1.36-.2-.53-.3-1.07-.3-1.64v-.04c0-.6.1-1.14.3-1.64.18-.5.45-.97.8-1.34.32-.38.74-.7 1.2-.9.5-.22 1-.34 1.56-.34.68 0 1.3.12 1.84.4.54.27 1.07.65 1.6 1.1l1.86-2.17c-.3-.32-.63-.6-1-.87a5.28 5.28 0 00-1.14-.65c-.42-.2-.88-.3-1.4-.42-.5-.1-1.1-.13-1.7-.13-1.04 0-1.98.2-2.82.54-.86.4-1.58.87-2.2 1.52-.6.63-1.08 1.4-1.42 2.23-.33.84-.5 1.74-.5 2.73v.04c0 .84.13 1.64.38 2.38.25.73.6 1.4 1.07 2 .46.58 1 1.08 1.64 1.5.66.42 1.35.72 2.1.88l-1.53 2.3z" class="st0"/><path id="path28" d="M184.2 14.7l1.75-4.4 1.77 4.4zm-5.26 5.66h2.98l1.22-3.04h5.63l1.2 3.04h3.08l-5.7-13.65h-2.72z" class="st0"/><path id="path30" d="M195.47 20.36h2.94V6.82h-2.93z" class="st0"/><path id="path32" d="M208.84 20.28c.6-.2 1.12-.46 1.54-.82.42-.36.75-.8 1-1.32.23-.53.36-1.12.36-1.8v-.03c0-.58-.08-1.1-.27-1.52-.2-.42-.46-.8-.82-1.12-.36-.3-.8-.58-1.35-.8-.52-.25-1.13-.43-1.8-.62l-1.43-.4c-.38-.13-.67-.23-.88-.38-.22-.13-.37-.27-.45-.44-.1-.17-.13-.36-.13-.57v-.04c0-.33.15-.6.42-.83.3-.23.72-.34 1.28-.34.57 0 1.14.13 1.72.36.57.22 1.16.56 1.75.98l1.52-2.25c-.7-.55-1.43-1-2.25-1.28-.82-.3-1.72-.44-2.68-.44-.7 0-1.34.1-1.9.3-.57.2-1.05.46-1.47.84-.42.36-.74.8-.95 1.28-.23.5-.34 1.05-.34 1.68v.05c0 .67.1 1.23.32 1.68.2.46.5.84.88 1.13.38.3.84.57 1.4.76.53.2 1.14.4 1.8.56.58.15 1.02.28 1.38.4.36.13.63.25.82.38.2.13.33.27.4.42.06.15.1.3.1.5v.05c0 .4-.17.7-.5.94-.34.23-.82.34-1.43.34-.75 0-1.46-.14-2.1-.43-.64-.3-1.25-.7-1.86-1.2l-1.74 2.12c.8.72 1.68 1.27 2.67 1.63.98.35 1.97.52 2.98.52.75.02 1.4-.08 2-.27z" class="st0"/><path id="path34" d="M214.76 20.36h10.13v-2.64h-7.26v-2.86h6.28v-2.64h-6.28V9.46h7.14V6.82h-10.04v13.54z" class="st0"/><path id="path36" d="M16.73 39.62v-2.77h1.52c.48 0 .88.12 1.17.36.3.24.42.57.42 1.03v.03c0 .4-.12.7-.4.98-.27.28-.65.4-1.15.4h-1.57zm-1.95 4.52h1.98V41.4h1.5c.5 0 .95-.06 1.4-.2.43-.13.8-.34 1.15-.6.34-.3.6-.62.8-1.02.17-.4.26-.86.26-1.4 0-.47-.1-.9-.23-1.3-.15-.37-.38-.7-.67-.98-.3-.27-.66-.48-1.08-.65-.42-.14-.9-.23-1.42-.23h-3.68z" class="st0"/><path id="path38" d="M26.96 42.22c-.33-.14-.6-.35-.86-.6-.25-.26-.42-.57-.57-.9-.12-.34-.2-.72-.2-1.1v-.02c0-.4.08-.76.2-1.1.13-.33.32-.64.55-.9.23-.25.5-.46.84-.6.34-.15.7-.2 1.1-.2.4 0 .75.07 1.08.22.34.14.6.35.86.6.26.26.42.57.57.9.13.34.2.72.2 1.1v.02c0 .4-.07.76-.2 1.1-.12.33-.3.64-.54.9-.25.25-.54.46-.85.6-.34.15-.7.22-1.1.22-.42-.03-.77-.1-1.1-.24zm2.96 1.68c.6-.25 1.1-.58 1.5-1 .43-.42.77-.93 1-1.5.23-.56.36-1.17.36-1.82v-.02c0-.65-.13-1.26-.36-1.83-.23-.57-.57-1.05-1-1.47a4.3 4.3 0 00-1.48-1c-.58-.26-1.2-.4-1.9-.4-.68 0-1.3.14-1.9.4-.6.24-1.1.58-1.5 1-.43.42-.77.92-1 1.5-.23.56-.35 1.17-.35 1.82v.02c0 .65.1 1.26.34 1.83.23.56.57 1.05 1 1.47.4.42.9.75 1.48 1 .6.26 1.22.38 1.9.38.68 0 1.3-.12 1.9-.38z" class="st0"/><path id="path40" d="M40.2 44c.5-.16.92-.4 1.25-.75.34-.33.6-.77.78-1.28.2-.5.27-1.1.27-1.8v-5.13h-1.97v5.2c0 .75-.17 1.3-.5 1.65-.34.35-.83.53-1.4.53-.62 0-1.08-.18-1.42-.56-.33-.38-.5-.95-.5-1.68v-5.16h-1.97v5.2c0 1.33.34 2.34 1.03 3 .7.7 1.64 1.02 2.84 1.02.58 0 1.13-.08 1.6-.25z" class="st0"/><path id="path42" d="M46.93 39.45v-2.6h1.96c.47 0 .85.1 1.12.3.27.22.4.56.4.98v.02c0 .4-.13.7-.4.92-.25.24-.63.36-1.1.36h-2zm-1.97 4.7h1.97v-2.9h1.54l1.9 2.9h2.3l-2.17-3.27c.57-.2 1.03-.55 1.4-1 .35-.47.5-1.08.5-1.8v-.03c0-.87-.24-1.56-.74-2.08-.6-.6-1.47-.93-2.6-.93h-4.08v9.1z" class="st0"/><path id="path44" d="M57.47 44.14h6.4v-1.8h-4.44v-7.28h-1.98v9.08z" class="st0"/><path id="path46" d="M68.73 40.33l1.18-2.94 1.18 2.93zm-3.53 3.8h2l.82-2.03h3.78l.82 2.04h2.05L70.85 35h-1.8z" class="st0"/><path id="path48" d="M84.65 41.5v-2.97h3.38c.76 0 1.3.12 1.66.4.32.27.5.63.5 1.07v.04c0 .5-.2.88-.55 1.1-.36.24-.9.37-1.52.37zm0-5.43v-2.85h2.88c.63 0 1.1.12 1.42.35.34.23.5.6.5 1.03v.04c0 .5-.18.86-.56 1.1-.4.23-.9.33-1.54.33zM81.8 44.1h6.3c.75 0 1.44-.07 2.05-.22.6-.14 1.13-.37 1.58-.7.44-.3.77-.68 1-1.14.23-.47.36-1 .36-1.62v-.04c0-.9-.24-1.6-.66-2.12-.44-.5-1.05-.9-1.8-1.2.22-.13.46-.27.67-.46.22-.2.4-.4.55-.63.15-.23.27-.5.38-.8.08-.3.15-.63.15-1.03v-.04c0-.93-.3-1.68-.9-2.3-.78-.8-1.94-1.2-3.47-1.2h-6.14v13.5z" class="st0"/><path id="path50" d="M96.2 44.1h2.92V30.6H96.2z" class="st0"/><path id="path52" d="M107.7 41.28c-.48-.23-.9-.53-1.27-.92-.36-.38-.63-.84-.84-1.35-.2-.5-.3-1.06-.3-1.63v-.04c0-.6.1-1.1.3-1.64.17-.5.45-.95.8-1.35.36-.38.76-.7 1.26-.9.5-.2 1.03-.34 1.62-.34.6 0 1.1.12 1.62.35.5.23.92.52 1.28.92.36.38.63.84.84 1.34.2.54.3 1.1.3 1.65v.04a4.489 4.489 0 01-1.12 2.98c-.36.37-.78.7-1.26.9-.5.2-1.03.34-1.62.34-.58 0-1.13-.13-1.6-.34zm4.44 2.52c.86-.36 1.6-.86 2.24-1.5.63-.64 1.12-1.4 1.47-2.24.36-.84.53-1.74.53-2.7v-.05c0-.96-.17-1.86-.53-2.7-.35-.84-.84-1.57-1.47-2.2a7.185 7.185 0 00-2.22-1.5c-.86-.35-1.8-.54-2.84-.54-1.03 0-1.97.2-2.83.55-.87.36-1.63.87-2.26 1.52-.63.63-1.1 1.38-1.47 2.22-.36.84-.52 1.75-.52 2.7v.05c0 .96.16 1.86.52 2.7.36.84.84 1.58 1.47 2.2.63.64 1.37 1.12 2.23 1.5.86.36 1.8.55 2.83.55 1 0 1.96-.2 2.84-.55z" class="st0"/><path id="path54" d="M122.34 41.43v-8.15h2.27c.6 0 1.15.1 1.65.3.48.2.92.48 1.26.83.37.37.64.8.83 1.3.2.52.3 1.06.3 1.65v.04c0 .6-.1 1.15-.3 1.63-.2.5-.46.93-.82 1.28-.35.37-.77.64-1.25.85-.48.2-1.03.3-1.64.3h-2.26zm-2.92 2.68h5.2c1.02 0 2-.15 2.85-.5.86-.37 1.6-.83 2.24-1.44.64-.6 1.13-1.32 1.46-2.14.34-.82.5-1.7.5-2.67v-.04c0-.93-.16-1.82-.5-2.64-.33-.8-.82-1.53-1.45-2.14-.62-.6-1.35-1.07-2.23-1.43-.86-.34-1.83-.5-2.86-.5h-5.18z" class="st0"/><path id="path56" d="M134.78 44.1h2.9V30.6h-2.9z" class="st0"/><path id="path58" d="M145.53 44.22h2.58l5.4-13.6h-3.16l-3.47 9.5-3.46-9.5h-3.23z" class="st0"/><path id="path60" d="M155.88 44.1h10.1v-2.63h-7.2v-2.84h6.26V36h-6.26v-2.76h7.12V30.6h-10v13.5z" class="st0"/><path id="path62" d="M172.16 37.16v-3.88h2.9c.7 0 1.27.17 1.67.48.4.32.6.8.6 1.45v.05c0 .6-.18 1.05-.58 1.4-.37.35-.94.5-1.65.5zm-2.92 6.95h2.92v-4.3h2.31l2.85 4.3h3.42l-3.25-4.82c.83-.3 1.52-.8 2.05-1.5.52-.7.8-1.58.8-2.67v-.04c0-1.28-.38-2.3-1.14-3.08-.9-.93-2.17-1.37-3.85-1.37h-6.07v13.5z" class="st0"/><path id="path64" d="M190.07 44.03c.6-.2 1.1-.46 1.53-.82.42-.35.76-.8 1-1.3.24-.54.37-1.12.37-1.8v-.04c0-.6-.1-1.1-.28-1.53-.2-.42-.47-.8-.83-1.1-.35-.33-.8-.6-1.32-.83-.52-.23-1.13-.42-1.8-.6l-1.43-.4c-.38-.14-.67-.24-.88-.37-.2-.12-.36-.27-.45-.44-.1-.18-.13-.37-.13-.58 0-.33.15-.6.42-.84.28-.23.7-.33 1.27-.33.57 0 1.13.12 1.7.35.57.24 1.16.57 1.74.97l1.53-2.25c-.7-.54-1.43-.98-2.25-1.28-.82-.3-1.72-.44-2.7-.44-.68 0-1.3.1-1.86.3-.57.18-1.05.46-1.47.84-.4.35-.73.8-.94 1.28-.22.5-.33 1.05-.33 1.68v.04c0 .67.1 1.24.32 1.68.2.44.5.82.87 1.13.38.3.84.57 1.38.76.55.22 1.16.4 1.83.58.57.14 1 .27 1.37.4.35.12.63.25.8.37.2.13.35.28.4.42.08.15.12.32.12.5v.05c0 .4-.17.7-.5.94-.34.23-.8.34-1.4.34-.77 0-1.46-.15-2.1-.44-.64-.3-1.27-.7-1.88-1.2l-1.73 2.1c.8.74 1.68 1.28 2.66 1.64.97.36 1.98.52 3 .52.7-.02 1.35-.1 1.94-.3z" class="st0"/><path id="path66" d="M196.07 44.1H199V30.6h-2.93z" class="st0"/><path id="path68" d="M205.6 44.1h2.9V33.35h4.06V30.6h-11v2.74h4.05V44.1z" class="st0"/></g><g id="g126" fill="#706f6f"><path id="path72" d="M16.27 68.03h1.9v1.43h-1.9v2.92h2.4v1.43H14.9v-10h3.77v1.44h-2.4zm1.98-6.32l-1.28 1.6h-.93l.86-1.6z" class="st1"/><path id="path74" d="M22 63.8h4.3v1.44h-1.46v8.57h-1.4v-8.56h-1.43z" class="st1"/><path id="path76" d="M33.77 73.8h-1.4l-.22-1.8h-1.7l-.23 1.8h-1.26l1.4-10h2.02zm-3.15-3.16h1.32l-.65-5.06h-.03z" class="st1"/><path id="path78" d="M41.43 66.12v.36c0 1.03-.27 1.68-.9 2v.02c.73.33 1.03 1.07 1.03 2.12v.82c0 1.53-.72 2.37-2.1 2.37h-2.2v-10h2.1c1.46 0 2.07.77 2.07 2.32zm-2.75-.88v2.65h.55c.52 0 .84-.27.84-1.06v-.57c0-.7-.2-1.03-.72-1.03zm0 4.07v3.08h.8c.46 0 .7-.25.7-1v-.85c0-.92-.26-1.22-.9-1.22z" class="st1"/><path id="path80" d="M45.3 63.8h1.38v8.58h2.27v1.43H45.3z" class="st1"/><path id="path82" d="M52.43 63.8h1.4v10h-1.4z" class="st1"/><path id="path84" d="M59.57 63.7c1.35 0 2.04.93 2.04 2.53v.3h-1.3v-.4c0-.72-.24-1-.68-1-.44 0-.7.28-.7 1 0 .73.28 1.27 1.18 2.16 1.15 1.14 1.5 1.98 1.5 3.1 0 1.6-.7 2.53-2.05 2.53-1.34 0-2.05-.92-2.05-2.52v-.6h1.3v.72c0 .7.27.97.7.97.45 0 .73-.27.73-.98 0-.74-.28-1.28-1.18-2.16-1.16-1.16-1.5-2-1.5-3.13 0-1.62.68-2.52 2.02-2.52z" class="st1"/><path id="path86" d="M67.18 63.7c1.34 0 2.03.93 2.03 2.53v.3h-1.3v-.4c0-.72-.24-1-.68-1-.44 0-.7.28-.7 1 0 .73.28 1.27 1.18 2.16 1.16 1.14 1.5 1.98 1.5 3.1 0 1.6-.7 2.53-2.04 2.53-1.35 0-2.06-.92-2.06-2.52v-.6h1.3v.72c0 .7.27.97.7.97.45 0 .73-.27.73-.98 0-.74-.28-1.28-1.18-2.16-1.15-1.16-1.5-2-1.5-3.13 0-1.62.68-2.52 2.03-2.52z" class="st1"/><path id="path88" d="M74.27 68.03h1.9v1.43h-1.9v2.92h2.4v1.43H72.9v-10h3.77v1.44h-2.4z" class="st1"/><path id="path90" d="M83.33 70.9h.02l.92-7.1h1.93v10h-1.3v-7.15h-.02l-.92 7.16h-1.33l-1-7.07h-.03v7.08h-1.2v-10h1.94z" class="st1"/><path id="path92" d="M91.5 68.03h1.88v1.43h-1.9v2.92h2.4v1.43h-3.77v-10h3.8v1.44h-2.4z" class="st1"/><path id="path94" d="M98.9 66.58h-.03v7.25h-1.24v-10h1.74l1.4 6v-6h1.25v10h-1.43z" class="st1"/><path id="path96" d="M105.48 63.8h4.28v1.44h-1.44v8.57h-1.4v-8.56h-1.44z" class="st1"/><path id="path98" d="M122.18 66.3v1.3c0 1.6-.68 2.47-2.06 2.47h-.65v3.76h-1.4v-10h2.05c1.38-.02 2.06.86 2.06 2.46zm-2.7-1.06v3.38h.64c.44 0 .67-.23.67-.94v-1.5c0-.7-.24-.94-.68-.94z" class="st1"/><path id="path100" d="M127.03 63.8v7.72c0 .7.27.97.7.97.45 0 .72-.27.72-.98v-7.7h1.3v7.6c0 1.6-.7 2.5-2.05 2.5-1.35 0-2.06-.9-2.06-2.5v-7.6z" class="st1"/><path id="path102" d="M137.74 66.12v.36c0 1.03-.28 1.68-.9 2v.02c.73.33 1.02 1.07 1.02 2.12v.82c0 1.53-.7 2.37-2.1 2.37h-2.18v-10h2.08c1.47 0 2.08.77 2.08 2.32zm-2.75-.88v2.65h.53c.53 0 .84-.27.84-1.06v-.57c0-.7-.2-1.03-.7-1.03zm0 4.07v3.08h.78c.47 0 .72-.25.72-1v-.85c0-.92-.28-1.22-.9-1.22z" class="st1"/><path id="path104" d="M141.6 63.8h1.4v8.58h2.25v1.43h-3.65z" class="st1"/><path id="path106" d="M148.76 63.8h1.4v10h-1.4z" class="st1"/><path id="path108" d="M158.04 70.1v1.3c0 1.6-.7 2.53-2.05 2.53-1.36 0-2.07-.92-2.07-2.52v-5.17c0-1.6.7-2.52 2.06-2.52 1.33 0 2.04.93 2.04 2.53v.96h-1.3V66.1c0-.7-.27-.98-.7-.98-.45 0-.73.27-.73.98v5.4c0 .7.3.97.73.97.44 0 .7-.27.7-.98V70.1z" class="st1"/><path id="path110" d="M166.6 63.8h2.2c1.38 0 2.05.87 2.05 2.5v5.05c0 1.6-.67 2.48-2.05 2.48h-2.2zm1.4 1.44v7.14h.77c.45 0 .72-.25.72-.97v-5.17c0-.72-.28-.97-.73-.97H168z" class="st1"/><path id="path112" d="M176.02 68.03h1.9v1.43H176v2.92h2.4v1.43h-3.8v-10h3.8v1.44H176z" class="st1"/><path id="path114" d="M186.98 63.8h1.4v8.58h2.26v1.43h-3.66z" class="st1"/><path id="path116" d="M193.2 65.32v-1.5h1.32v1.36l-.6 1.57h-.58l.36-1.43z" class="st1"/><path id="path118" d="M199.8 68.03h1.9v1.43h-1.9v2.92h2.4v1.43h-3.77v-10h3.78v1.44h-2.4zm2-6.32l-1.3 1.6h-.92l.86-1.6z" class="st1"/><path id="path120" d="M205.55 63.8h4.28v1.44h-1.45v8.57h-1.4v-8.56h-1.43z" class="st1"/><path id="path122" d="M217.3 73.8h-1.38l-.23-1.8H214l-.24 1.8h-1.26l1.4-10h2.02zm-3.14-3.16h1.32l-.65-5.06h-.02z" class="st1"/><path id="path124" d="M219.95 63.8h4.3v1.44h-1.46v8.57h-1.4v-8.56h-1.45z" class="st1"/></g><path id="rect137" fill="url(#SVGID_1_)" fill-rule="evenodd" d="M50 667.2h1001.6v7.5H50z" clip-rule="evenodd" transform="matrix(.21 0 0 .21 4.302 -87.808)"/></g></svg>