<svg xmlns="http://www.w3.org/2000/svg" version="1.1" x="0" y="0" xml:space="preserve" id="svg135" width="400" height="165"><style type="text/css" id="style2">.st3{fill:#005ca9}.st4{display:none}.st7{display:inline}.st8{fill:#706f6f}</style><g id="g997" transform="matrix(.74738 0 0 .74738 -23.393 -169.08)"><g id="Vagues_Couleur"><path d="M540.1 335c-1.4.3-2.8.7-4.1 1-3.9 1-7.9 1.9-11.8 3.1-3.2 1-6.3 1.1-9.6.6-3.6-.6-7.2-.9-10.8-1.1-4.8-.3-9.6-.4-14.5-.4-6.8 0-13.5.7-20.2 1.4-9.3 1-18.6 2.4-27.8 4.3-11.2 2.3-22.4 4.9-33.5 7.6-13 3.2-25.9 6.8-38.8 10.1-10.8 2.7-21.7 4.9-32.7 6.5-4.9.7-9.9 1.1-14.9 1.7-8.4.9-16.8.9-25.2.6-7.8-.3-15.5-1.3-23.1-2.7-20.2-3.8-40.2-8.9-60.2-13.6-11.4-2.6-22.8-5.1-34.4-6.8-5-.7-10.1-1.2-15.1-1.6-6.3-.6-12.6-.8-19-.6-5.6.2-11.1.5-16.7 1-5.3.5-10.6 1.1-15.8 1.9-4.6.7-9 1.9-13.6 2.8-4.5.8-9 1.5-13.5 2.1-4.5.6-9.1 1.2-13.6 1.4-6.9.3-13.8.5-20.7.4-6.4-.1-12.7-.7-19.2-1.9.7-.9 1.7-.9 2.5-1.2 3.1-.9 6.3-1.7 9.4-2.6.5-.2 1.1-.3 1.6-.5 4.1-1.9 8.4-1.6 12.7-1 4.1.6 8.3 1.1 12.5 1.4 4.1.3 8.1.4 12.2.4 9.2-.1 18.2-1 27.2-2.7 6.3-1.2 12.7-2.1 19.1-2.9 7.1-.9 14.3-1.7 21.5-2.1 7.9-.4 15.8-.6 23.7-.4 14.5.4 28.7 2.9 42.9 6.1 17.4 4 34.8 8.1 52.3 12 9.1 2 18.3 3.7 27.4 5.3 4.3.8 8.7.9 13.1 1.3 1.4.1 2.9.3 4.3.3 5.8.1 11.6-.3 17.4-1 5.8-.8 11.5-1.4 17.3-2.4 10.1-1.7 20.1-4.2 29.9-7.1 17.1-5.1 34.4-9.5 51.9-12.9 8.3-1.6 16.6-2.9 25-4.3 5.6-.9 11.2-1.8 16.9-2.5 5-.7 10.1-1.2 15.1-1.7 6.2-.6 12.3-1.2 18.5-1.4 5.9-.2 11.8-.2 17.7.1 5.2.2 10.5 1 15.7 1.5.4 0 .7.2 1.1.3-.2 0-.1.1-.1.2z" id="Vague_verte" fill="#009e3d"/><path d="M553.7 320.9c-1.6.4-3.2.9-4.8 1.3-3.9 1-7.9 2-11.8 3.1-2.8.8-5.5.8-8.3.4-4.5-.6-9-1.1-13.4-1.4-5.4-.3-10.8-.4-16.2-.3-8.5.2-17 1.1-25.4 2.4-9.8 1.5-19.6 3.6-29.3 5.6-4.3.9-8.5 2.2-12.9 2.9-4.4.7-8.7 1.8-13 2.7-7.1 1.4-14.3 2.4-21.6 2.9-6 .3-12 .7-18 .6-17.9-.2-35.4-3.2-52.6-7.9-15-4.1-29.7-9.1-44.4-13.9-14-4.6-28.2-8.3-42.8-10.6-11.2-1.8-22.4-2.3-33.7-1.8-9 .4-18 1.4-26.9 2.9-7 1.2-13.7 3.3-20.5 5.4-10.4 3.2-20.8 6.2-31.5 7.9-6.9 1.1-13.9 2.1-20.8 2.9-7 .8-14 1.1-21 1-7.7-.1-15.3-.7-22.8-1.9-.6-.1-1.2-.3-2.2-.5.9-.4 1.5-.7 2.1-.8 5.2-1.5 10.3-3 15.5-4.6 2.3-.7 4.6-.6 6.9-.2 10.7 1.9 21.6 2.2 32.4 1.6 13.5-.8 26.7-3.2 39.8-6.4 6.1-1.5 12.1-3.2 18.2-4.4 9.4-1.9 18.8-3.7 28.3-4.8 10.2-1.1 20.4-1.6 30.6-1.1 20.5.9 40.4 5.1 60 11.4 12.8 4.1 25.6 8.3 38.4 12.3 11.4 3.6 23.1 6.2 34.9 8 6.7 1 13.5 1.7 20.4 2.1 6.6.4 13.2.3 19.7-.1 6.8-.4 13.6-1.2 20.3-2.4 8.9-1.6 17.6-3.9 26.3-6.3 12.2-3.3 24.5-5.9 36.9-7.7 6.4-.9 12.9-1.6 19.4-2 6.2-.4 12.5-.7 18.8-.6 8.4.1 16.9.6 25.2 1.9-.2.1-.2.2-.2.4z" id="Vague_rouge" fill="#e30613"/><g id="Vague_bleue"><path id="path9" d="M566.5 306.8c-2.3.6-4.6 1.1-6.9 1.7-3.3.9-6.6 1.6-9.8 2.6-3 .9-5.9.8-8.9.3-5.3-.8-10.7-1.4-16.1-1.4-4.2 0-8.4-.2-12.6.1-5.5.3-11 .8-16.4 1.4-6 .7-12 1.6-18 2.7-7.8 1.4-15.6 2.9-23.4 4.4-10 1.9-20 3.9-30 5.7-5 .9-10.1 1.3-15.1 1.6-4.8.3-9.6.4-14.5.4-5.2 0-10.2-1-15.2-2.1-2.9-.6-3.6-.3-3.5-4 .1-1.9-.7-2.5-3-2.9-3.1-.5-6.2-.9-9.2-1.6-4.2-1-8.4-2.1-12.5-3.4-4.2-1.4-7.6-4-9.9-8-1.7-3-4.9-4.7-7.7-5.5-.7-.2-1.4-.4-2.9-.2 2.4-1 5-1.8 7.3-2.1 1.4-.2 2.9-.4 4.3-.3 2.2.2 4.2 1.2 5.8 2.8 1.3 1.3 2.5 2.7 3.5 4.2 4 5.8 9.8 8.5 16.6 9.5 3.7.5 7.3.6 11 .1 2.1-.3 4.2 0 6.3.8 1.8.8 2.1 1.4 1.2 3.2-.2.5-.6 1-.7 1.5-.4 1.1-.1 1.7 1.1 1.9 2.1.4 4.3.9 6.5 1.1 4.8.6 9.5 1.3 14.3 1.6 3.8.3 7.6.3 11.5.2 3.6-.1 7.2-.5 10.8-1 5.4-.7 10.8-1.6 16.1-2.5 11.1-1.9 21.9-5.2 32.8-7.8 7.7-1.9 15.5-3.5 23.4-4.4 6-.7 12.1-1.3 18.1-1.9 9.7-1 19.4-1.1 29.1-.6 5.3.2 10.6 1 15.9 1.5.2 0 .3.2.5.2s.2.1.2.2z" class="st3" fill="#005ca9"/><path id="path11" d="M258.2 281.9c.7-.3 1-.4 1.2-.6 3.4-3 7.6-4.5 12-5.6 1.6-.4 3.2-.7 4.8-1.1.6-.1 1.2-.2 1.9-.2 1.8 0 2.6.6 3.2 2.3.2.6.3 1.2.4 1.8.3 1.4 1 2.4 2.5 2.7.8.1 1.6.3 2.4.3 3-.1 5.7.7 8.2 2.2 3.7 2.1 7 4.9 9.9 8 1.3 1.4 2.5 3 3.9 4.3 1.5 1.5 3.1 2.9 4.9 4.1 2 1.5 4.4 1.8 6.8 1.1 2.4-.7 12.1-3.6 14.4-4.1-.8.6-8.9 3-9.8 3.2-3.9 1-7.8 2.1-11.8 3-1.9.4-4 .4-6 .3-2.5-.2-4.5-1.5-6.2-3.2-3-3-5.9-6.1-9-9.1-2.9-2.9-6.1-5.2-10-6.6-2.4-.9-4.9-1.5-7.5-1.1-1.7.3-2.2-.2-2.6-1.9-.2-1.2-.5-2.4-.9-4-.9.5-1.6.9-2.2 1.2-1.8 1.2-3.5 2.5-5.4 3.5-2.1 1-4.3 1.6-6.5 2.4-1.4.4-2.8.8-4.2 1-2.6.5-4.2-.6-4.7-3.2-.4-2.4-.8-4.8-1.1-7.2 0-.2 0-.5-.1-.7-.8-2.7-1.2-3.8-4.7-3.7h-4.7c-1.9 0-2-.2-2-2 0-5.9.2-11.8 0-17.7-.1-3.9-.8-7.7-1.3-11.6-.3-2.3-.7-4.6-1-6.9-.1-.6-.3-1.1-.5-2.2-.6.7-1 1.1-1.1 1.5-1.5 4.2-3 8.5-4.6 12.7-.9 2.2-.8 4.5-.9 6.8-.1 2.4-.4 7.2-.5 9.6-1-3.2-.6-12.2.4-15.3 1.6-5.3 3.3-10.5 4.9-15.8.5-1.5 1-3.1 1.6-5 .3.7.6 1 .7 1.3 1.9 4.4 3.8 8.9 5.7 13.3.8 1.9 1.7 3.8 2.3 5.7.5 1.6.7 3.3.7 5 .1 5.3 0 10.5 0 15.8v1.1c.1 1.5.6 2.1 2.1 2 2.3-.1 4.6-.4 6.9-.6.3 0 .6-.2.9-.2 2.6-.7 4 .1 4.5 2.7.5 2.4.8 4.8 1.2 7.2.2 1.2.6 2.2.9 3.5z" class="st3" fill="#005ca9"/><path id="path13" d="M225.4 260.5v3c-1.5.5-3 .5-4.3.3-3.3-.5-5.4 1.6-7.7 3.3-1 .8-1 2.1-1 3.3v6.8c-.1 2.7-1.5 4.6-4.1 5.5-4.7 1.6-9.4 3-14.4 3.6-2.3.3-4.6-.2-6.8-.9-1.6-.5-3.2-1.2-4.7-1.8-1.2-.5-2.4-1-3.7-1.4-1.5-.6-2.8-.3-4.1.5-1 .7-2 1.5-3 2.3-4.9 4.3-10.7 6.8-17 7.7-6.1.9-12.3 1.6-18.4 2.3-7.4.8-14.7 1.2-22.1 1-7.4-.1-14.7-.8-22.1-1.9-.2 0-.3-.1-.7-.3.5-.2.8-.4 1.2-.5l16.8-4.8c1.6-.5 3.2-.4 4.8-.2 4.8.7 9.7 1.3 14.5 1.7 4.7.3 9.4.4 14.1.3 4.7-.1 9.5-.1 14.1-1.8 2-.7 4-1.5 5.9-2.4 7.2-3.6 14.8-5.8 22.6-7.3 3.1-.6 6.1-.1 9 1.2 1.5.7 3.1 1.4 4.9 2.2.2-.8.4-1.4.5-2.1.2-1.7.5-2.1 2.1-2.3 1.3-.2 2.6-.3 3.9-.5 2.7-.3 3.6-1.2 3.7-4v-4.9c0-1.3.3-2.3 1.4-3.1 1.4-1 2.6-2.1 4.1-3 1.9-1.2 4-1.7 6.3-1.6 1.2-.1 2.6-.2 4.2-.2z" class="st3" fill="#005ca9"/></g></g><g id="Texte"><path id="path27" d="M418.1 228.2c.5 0 .8-.1 1.2-.1h13.2c3.7 12 7.3 23.9 11 36 1.5-4 3-7.9 4.5-11.8l4.8-12c1.6-4 3.1-7.9 4.6-12h14.8c-.2 16.5-.4 32.9-.7 49.3-1.2.4-6.9.5-9.8.1.2-12.8.4-25.6.6-38.2-.3-.1-.3-.2-.4-.2-.1 0-.1 0-.2.1-4.9 12.8-9.7 25.6-14.6 38.5h-9.9c-3.6-12.6-7-25.2-11.3-37.5-1.5 12.4-2 24.8-2.9 37.2-1.4.4-6.8.5-9 .1 1.5-16.5 2.8-32.9 4.1-49.5z"/><path id="path29" d="M494 235.6c-1.1 14.1-1 28.1-1.7 42.2h-11.1c1.8-16.5 2.2-33 2.6-49.5.6 0 1-.1 1.5-.1h23.1c1.4 0 2.8.2 4.1.5 7.2 1.7 11 8.2 9.2 15.4-1.2 4.8-4.1 8.1-8.8 9.7-1.4.5-2.7.9-4.3 1.5 3.6 7.8 8.3 14.9 12.3 22.6H509c-4.2-9-8.3-17.9-12.6-27 .9.1 1.6.1 2.3.2 2.1.2 4.3.1 6.3-.6 3.4-1.1 5.6-3.4 6.2-7.1.6-3.5-1.2-6.3-4.7-7.3-.3-.1-.6-.2-.9-.2-3.8-.7-7.6-.4-11.6-.3z"/><path id="path31" d="M364.3 277.7H352c.3-.7.5-1.2.8-1.6 8-15.5 16.1-31 24.1-46.5.6-1.1 1.2-1.5 2.4-1.5 3.9.1 7.8 0 11.7 0 6.1 16.6 12.1 33 18.2 49.7h-11.5c-.2-.5-.5-1.1-.7-1.7-1.5-4.4-2.9-8.8-4.4-13.2-.8-2.3-1.5-2.8-3.8-2.8-4.6.1-9.3.2-13.9.1-1.9 0-2.8.6-3.5 2.3-2 4.5-4.1 9-6.2 13.5-.4.6-.6 1.1-.9 1.7zm11.4-25.5c2.6.5 12.5.4 13.7-.1-1.9-5.3-3.7-10.6-5.7-16.3-2.8 5.7-5.4 10.9-8 16.4z"/><path id="path33" d="M540.8 277.7h-11.6c.6-16.5 1.1-32.9 1.7-49.5h33.7v7.7h-22.7v13c1.6.3 3.2.1 4.8.1h14.9v7.8c-7-.1-13.8-.3-20.8.1v20.8z"/><path id="path35" d="M440 384.6c-1.4 3.8-2.8 7.6-4.1 11.4-1.4 3.8-2.7 7.5-4.1 11.4h-6.2c-2.2-7.3-3.9-14.9-6.6-22.1h-.4c-.6 7.3-1.1 14.6-1.7 22h-5.3c.9-10 1.7-19.9 2.6-29.8 1.3-.4 6.4-.5 8.7-.1 2.1 7 4.2 14.1 6.4 21.5 2.8-7.4 5.5-14.4 8.2-21.6h9.3v29.9h-6.2v-11.4-11.2c-.3.1-.4 0-.6 0z"/><path id="path37" d="M127.9 446.3h-6.7c-2.6-5.4-5.2-10.7-7.9-16.2h1.9c1.6.1 3.1-.1 4.6-.8 1.3-.5 2.2-1.4 2.7-2.7 1-2.3.1-4.3-2.2-5.1-.5-.2-1.1-.3-1.6-.4-.9-.1-1.8-.1-2.6-.1h-4.5v25.3c-2.5.3-4.7.1-7.2.1.4-10 .7-19.9 1.1-30 .5-.1.9-.2 1.4-.2h13c1 0 2 .1 3 .3 3.6.7 6 3 6.3 6.1.4 3.8-1.3 7.2-4.6 8.7-1.2.6-2.4.9-3.9 1.5 2 4.7 4.9 8.8 7.2 13.5z"/><path id="path39" d="M69.3 407.4c-.8-2.3-1.6-4.5-2.4-6.7-.2-.6-.4-1.3-.7-2-.6-1.6-.8-1.8-2.4-1.8h-8.5c-1.2 0-1.9.5-2.3 1.5-1.1 2.4-2.3 4.9-3.4 7.3-.6 1.3-1.3 1.8-2.7 1.8-1.7-.1-3.4 0-5.3 0 .1-.5.2-1 .4-1.3l14.4-27.6c.6-1.1 1.3-1.5 2.5-1.5 2.1.1 4.1 0 6.3 0 3.7 10.1 7.3 20.1 11 30.3h-6.9zm-8.4-24.9h-.4c-1.6 3.1-3.1 6.2-4.8 9.5h8.6c-1.2-3.2-2.3-6.3-3.4-9.5z"/><path id="path41" d="M338.5 384.6c.1-1.3.2-2.4.3-3.6v-3.5h6.2c-.5 9.9-1 19.8-1.5 29.8h-5.6v-3.4c-.7.6-1.1.9-1.4 1.3-2.8 2.7-6.1 3.4-9.7 2.3-3.6-1.1-5.7-3.8-6.4-7.4-.7-3.9.2-7.5 2.4-10.7 1.8-2.7 4.5-4.2 7.6-4.6 2.1-.3 4.2-.1 6.3-.2.5-.1 1.1-.1 1.8 0zm-.1 4.1h-3.8c-5.6.1-9.4 5.2-8 10.6.6 2.2 2 3.6 4.2 4 2.3.4 4.2-.3 5.5-2.3.5-.8.9-1.8 1.2-2.7 1-3 .8-6.2.9-9.6z"/><path id="path43" d="M301.1 446.3h-5.6c-.1-1.1-.1-2-.2-3.3-.7.6-1.2 1.1-1.7 1.5-3 2.6-6.4 3.1-10 1.7-3.7-1.4-5.5-4.4-5.9-8.2-.2-2 .1-3.9.7-5.7 1.7-5.4 5.9-8.7 11.5-8.9 2-.1 4 .1 6.2.2.2-2.3.3-4.7.5-7.1h5.9c-.4 9.9-.9 19.8-1.4 29.8zm-5-18.1c-.4-.2-.5-.2-.6-.3-1.1 0-2.1-.1-3.2-.1-5.7 0-9.5 4.8-8.2 10.4.5 2.3 2.3 4 4.4 4.3 2.3.3 4.6-.7 5.7-2.8.6-1.1 1-2.3 1.2-3.5.4-2.7.5-5.3.7-8z"/><path id="path45" d="M367.9 429v4.7h-12.7c-.1 2.2-.1 4.3-.1 6.3v6.3c-2.4.3-4.6.1-7.1.1.3-10.1.6-20 .8-30.1H370c.4 1.6.1 3.1-.3 4.8h-14v7.9c1.9.1 3.9 0 5.9 0h6.3z"/><path id="path47" d="M278.9 384.9h6c0 1 .1 1.9.1 3.1.5-.4.9-.6 1.2-.9 3.7-3.4 9.1-3.3 12.9-1.6 2.2 1 3.2 2.9 3.2 5.3 0 2.6-.1 5.1-.2 7.7-.1 2.4-.2 4.9-.4 7.3 0 .5-.1 1-.2 1.5h-5.9v-3.9c.1-2.8.3-5.6.4-8.4v-1.1c-.3-3.9-3.9-5.9-7.5-4.1-2.2 1.2-3.4 3.1-3.6 5.6-.3 3.1-.5 6.2-.8 9.4-.1.9-.2 1.7-.3 2.7h-6c.4-7.7.8-15.1 1.1-22.6z"/><path id="path49" d="M444.6 446.3h-6.2c.1-3 .3-5.8.4-8.7.1-1.5.2-3 .1-4.5-.1-3.8-3.1-5.9-6.7-4.6-2.3.8-3.7 2.5-4.1 4.7-.4 2-.5 4.1-.7 6.1-.2 2.2-.3 4.4-.5 6.5 0 .1-.1.2-.2.5h-5.9c.4-7.5.7-14.9 1.1-22.5h6c.1 1 .1 1.9.2 3 .4-.3.6-.4.8-.6 2.6-2.5 5.7-3.2 9.2-2.9.7.1 1.4.2 2 .3 3.4.7 5.2 2.9 5.2 6.4-.1 3.9-.3 7.9-.5 11.8.1 1.6-.1 3-.2 4.5z"/><path id="path51" d="M151.6 423.8h5.8c.4 1.1-.2 20.1-.6 22.5h-5.9c-.1-.9-.1-1.7-.2-2.7-.5.4-.9.6-1.2.9-3.7 3.3-9.1 2.7-12.2 1.2-2.2-1.1-3-3.2-2.9-5.5.2-5.1.5-10.1.7-15.2 0-.4.2-.7.3-1.1h5.9v3.8c-.1 2.9-.3 5.8-.4 8.6v1.1c.2 2.7 1 3.9 3.2 4.4 2.2.6 4.6-.4 5.8-2.4.9-1.5 1.2-3.1 1.3-4.9.1-2.9.3-5.9.4-8.8-.2-.4-.1-1 0-1.9z"/><path id="path53" d="M232.4 446.4h-6.1c-.1-.9-.2-1.7-.3-2.8-.5.4-.9.7-1.3 1-3.6 3.3-9.2 2.6-12.2 1.1-2.1-1.1-3-3-2.9-5.3.1-3.8.3-7.6.5-11.5.1-1.7.2-3.3.3-5.1h6c0 .4.1.8.1 1.2-.2 3.4-.4 6.8-.5 10.1 0 1.4.1 2.7.3 4.1.2 1.1 1 1.9 2 2.3 2.6 1.2 5.6.2 6.9-2.4.9-1.6 1.2-3.3 1.2-5.1v-8.3-2h6.6c-.1 7.7-.3 15.1-.6 22.7z"/><path id="path55" d="M147.6 395.6c-.1 8.5-6.5 12.9-14.4 12.2-.9-.1-1.9-.3-2.8-.6-5.4-1.5-8.3-6.1-7.9-11.7.6-8.3 7.4-11.7 14.2-11.2.9.1 1.7.2 2.6.4 5.3 1.4 8.3 5.4 8.3 10.9zm-6.2.2h-.2v-1.5c-.3-3-2-5-4.6-5.5-3-.6-5.6.7-6.9 3.4-1.2 2.4-1.4 4.9-.5 7.5.7 2.1 2.2 3.4 4.3 3.7 3.4.6 6.1-1 7.2-4.3.4-1.1.5-2.2.7-3.3z"/><path id="path57" d="M247.6 397.5c0-7.3 3.9-11.9 10.1-12.9 2.4-.4 4.7-.3 7.1.3 5.2 1.4 8.2 5.7 7.9 11.5-.6 9.1-7.8 12.1-14.4 11.4-1.5-.2-3.1-.6-4.5-1.2-4.3-2-6.1-5.6-6.2-9.1zm6.4-1v.9c.2 3.3 2.1 5.6 4.9 6 3.3.4 5.9-1.2 7-4.3.6-1.9.8-3.8.3-5.7-.6-2.6-2.2-4.2-4.6-4.6-2.9-.4-5.2.7-6.5 3-.8 1.5-1.2 3-1.1 4.7z"/><path id="path59" d="M209.8 407.3h-6c.2-3.8.5-7.6.7-11.5-2.7 1-5.1 1.7-7.4 2.7-2.1.9-2.9 2.3-2.4 3.9.4 1.5 1.8 2.2 4 2.1.8 0 1.6-.2 2.4-.3.3 2.4-.3 3.5-2.6 3.6-1.8.1-3.6 0-5.4-.3-2.6-.5-4.1-2.2-4.7-4.8-.5-2.5.4-4.4 2.3-5.9 1.6-1.2 3.4-1.9 5.3-2.4s3.8-1 5.6-1.5c.5-.1 1-.3 1.4-.5.9-.5 1.4-1.2 1.4-2.3-.1-1.1-.7-1.7-1.6-2.1-1.6-.6-3.3-.6-5-.3-1.7.3-3.3.7-4.9 1.1-.3.1-.7.1-1.3.3.2-1.3.4-2.4.6-3.7 4.4-1 8.8-1.7 13.3-.9.6.1 1.2.3 1.8.5 2.2.7 3.4 2.2 3.6 4.6.1.7 0 1.5 0 2.3-.2 4.8-.5 9.6-.7 14.4-.3.3-.3.5-.4 1z"/><path id="path61" d="M405.4 443.2c-.2.9-.3 1.5-.5 2.1-.2.9-.8 1.4-1.7 1.5-2.4.3-4.8.3-7.1-.5-3.8-1.4-5.1-6.2-2.6-9.3 1-1.3 2.4-2.2 4-2.7 2.2-.7 4.5-1.2 6.7-1.9.9-.3 1.8-.5 2.7-.9 1-.4 1.5-1.3 1.4-2.4-.1-1.1-.7-2-1.8-2.1-1.7-.2-3.5-.2-5.2-.1-1.4.1-2.8.6-4.2 1-.5.1-.9.2-1.8.4.3-1.2.4-2.2.9-3.1.3-.5 1-1 1.6-1.1 3.8-.6 7.7-1.2 11.6-.4.5.1 1 .2 1.5.4 2.6.9 3.8 2.4 3.9 5.1 0 1.3 0 2.5-.1 3.8-.2 4.1-.4 8.1-.7 12.2 0 .4-.1.7-.1 1.2h-6c.2-3.8.4-7.5.7-11.5-2.6.9-5 1.8-7.4 2.7-.3.1-.6.3-.8.5-1.3.9-1.9 2.1-1.6 3.3.3 1.3 1.4 2.1 3.1 2.3.6 0 1.1 0 1.7-.1.3-.1.8-.2 1.8-.4z"/><path id="path63" d="M473.1 407.3h-6c.2-3.8.5-7.5.7-11.5-2.8 1-5.3 1.9-7.9 2.9-.5.2-1 .7-1.4 1.2-1.2 1.5-.7 3.7 1.1 4.3 1.1.3 2.3.2 3.5.2.4 0 .8-.1 1.2-.2.3 2.5-.3 3.4-2.5 3.5-1.9.1-3.9 0-5.8-.3-2.4-.5-3.9-2.2-4.4-4.6-.5-2.4.1-4.4 2.1-5.8 1.3-.9 2.8-1.7 4.3-2.2 1.9-.7 3.9-1 5.8-1.5.8-.2 1.6-.4 2.3-.8 1-.5 1.5-1.3 1.4-2.4-.1-1.1-.7-2-1.8-2.1-1.6-.2-3.2-.3-4.8-.2-1.5.1-3.1.7-4.6 1-.5.1-.9.2-1.7.4.2-1.4.4-2.5.6-3.7 4.5-.9 8.9-1.7 13.4-.8.7.1 1.5.4 2.1.7 1.6.6 2.6 1.8 2.9 3.5.1.9.3 1.9.2 2.8-.2 4.8-.5 9.6-.7 14.5.1.2 0 .6 0 1.1z"/><path id="path65" d="M202.3 446.3h-5.9c.2-3.8.5-7.5.7-11.4-2.7 1-5.2 1.7-7.5 2.7-1.9.8-2.7 2.4-2.3 3.8.4 1.4 2 2.3 3.9 2.2.9-.1 1.7-.2 2.6-.4 0 2.8-.7 3.6-3.3 3.7-1.5 0-3-.1-4.5-.3-2.7-.4-4.3-2.1-4.9-4.8-.6-2.6.3-4.7 2.4-6 1.5-1 3.2-1.7 4.9-2.3 1.6-.6 3.4-.8 5.1-1.3.7-.2 1.4-.4 2.1-.8 1-.5 1.5-1.3 1.4-2.4-.1-1.1-.8-2-1.9-2.1-1.7-.2-3.5-.3-5.2-.1-1.8.2-3.7.8-5.5 1.2-.6-2.3.2-3.8 2.4-4.1 3.7-.6 7.4-1.1 11.2-.4.6.1 1.2.3 1.8.5 2.2.8 3.3 2.3 3.5 4.6.1.7 0 1.5 0 2.3-.2 4.7-.5 9.4-.7 14.1-.2.5-.3.9-.3 1.3z"/><path id="path67" d="M238.8 423.7h6.4c.8 0 1.3.4 1.7 1 .7 1.2 1.5 2.3 2.3 3.5.3.4.6.8 1 1.3 1.1-1.3 2.2-2.4 3.1-3.7 1.1-1.6 2.4-2.2 4.3-2 1.1.1 2.2 0 3.8 0-2.6 3.8-5.5 7-8.1 10.7 2.5 4 5.1 7.9 7.8 12.2-2.5 0-4.7.1-6.8-.1-.5 0-1-.7-1.3-1.2-1-1.5-1.9-3.1-2.9-4.6-.2-.4-.5-.7-.9-1.2-1.5 1.9-2.9 3.6-4.3 5.4-.9 1.2-1.9 1.7-3.3 1.6-1.5-.1-3 0-4.8 0 .4-.7.6-1 .8-1.3 2.3-2.9 4.7-5.9 7-8.8 1.3-1.7 1.3-2 .1-3.8-1.6-2.3-3.1-4.7-4.7-7-.4-.6-.7-1.1-1.2-2z"/><path id="path69" d="M329.6 435h-15.5c-1.1 3.8.8 7.1 4.5 8 2.1.5 4.2.2 6.3-.3 1-.2 2-.5 3.3-.8-.3 1.6-.5 2.9-.7 4.2-3.9.9-7.7 1.2-11.5.5-5.5-.9-9.1-5.6-8.7-11.2.1-1.2.3-2.4.6-3.5 2.6-8.4 11.2-10.8 18-7.1 3.5 1.9 5.1 6.5 3.7 10.2zm-15.6-2.8c2.8.4 9 .2 10.1-.2 0-2.3-.5-3.6-2-4.3-3.1-1.7-8.1-.1-8.1 4.5z"/><path id="path71" d="M372.1 395.9h-15.5c-1.2 3.2.5 6.8 3.8 7.9 1.8.6 3.6.5 5.4.2 1.5-.3 3-.7 4.7-1 .2 1.2-.1 2.2-.4 3.2-.3.8-1 1.1-1.7 1.3-3.7.7-7.3.9-11-.1-4.9-1.3-7.8-5.8-7.5-11.2.1-1.1.3-2.2.6-3.3 2.4-8 11-11 18-7 3.2 1.7 4.8 6.1 3.6 10zm-15.7-2.8h10.1c.1-3.2-1.3-4.9-3.8-5.1-3.5-.3-5.8 1.6-6.3 5.1z"/><path id="path73" d="M494.8 441.9c0 .7 0 1.1-.1 1.6-.1.9-.3 1.7-.5 2.6-4.2 1-8.3 1.3-12.5.2-4.4-1.2-7.3-4.6-7.6-9.2-.1-2 .1-3.9.7-5.7 2.6-7.7 10.9-10.5 18-6.6 2.7 1.5 4.9 5.5 3.7 10H481c-1.3 3 .4 7 4.1 8 2.3.6 4.5.3 6.7-.2.8-.1 1.8-.4 3-.7zm-4-9.6c.1-3.4-1.3-5.1-4.2-5.2-3.4-.2-5.7 1.8-6 5.2h10.2z"/><path id="path75" d="M533.9 395.9h-15.5c-1 4.6 1.5 8 5.9 8.2 1.8.1 3.6-.3 5.4-.6.9-.1 1.7-.4 2.5-.6.4 3-.5 4.3-3.4 4.7-2.8.4-5.6.4-8.4-.1-4.9-.7-8.4-4.4-8.7-9.4-.1-1.2-.1-2.5.2-3.7 1.5-8.5 9.7-12.7 17.6-9.1 4 1.8 5.8 7.3 4.4 10.6zm-15.7-2.6h10.2c.1-3.4-1.2-5-3.8-5.3-3.5-.4-5.9 1.5-6.4 5.3z"/><path id="path77" d="M225 389c0 4.3-.1 8.3 0 12.3 0 1.5.8 2.1 2.3 2.1.9 0 1.9-.2 2.9-.3.3 1.3-.1 2.5-.7 3.6-.3.5-.9.9-1.5 1-2.2.5-4.4.5-6.5-.2-2.2-.6-3.3-2.2-3.2-4.7.1-3.2.4-6.4.5-9.6.1-1.2.1-2.5.2-3.9-1.1-.1-2.1-.2-3.1-.3-.5-1.4-.2-2.8.1-4.3h3.2c.2-1.6.4-3 .6-4.5 1.7-.3 3.3-.7 5.2-1v5.4h5.5v4.5c-1.6-.1-3.4-.1-5.5-.1z"/><path id="path79" d="M170.2 402.6c.1.3.2.4.2.5-.8 4 .4 3.7-4.5 4.6-2.8.5-5.5.2-8.1-.8-2.3-.9-4-2.5-4.9-4.9-1.7-4.4-1.4-8.7.9-12.8 1.4-2.4 3.6-3.8 6.2-4.5 3.1-.7 6.2-.5 9.3.2 1.3.3 1.6.6 1.7 2.1.1.8.1 1.6.2 2.6-1.3-.3-2.4-.5-3.6-.7-1-.1-2-.3-3-.2-3.1.2-5.5 2.1-6.2 5.1-.3 1.4-.4 2.9-.2 4.3.5 3.3 2.6 5.1 5.9 5.2 1.5 0 3-.3 4.5-.5.6 0 1.1-.1 1.6-.2z"/><path id="path81" d="M469.5 424.7c.1 1.2.2 2.5.3 4-.9-.2-1.5-.3-2.1-.5-2-.5-4.1-.7-6.1-.1-2 .5-3.3 1.7-4 3.6-.7 1.6-.9 3.2-.8 5 .3 3.3 2.7 5.7 6 5.8 1.5 0 3-.3 4.5-.5.5-.1 1.1-.2 1.8-.3-.1.7-.1 1.3-.2 1.8-.4 2.2-1 2.9-3.3 3.1-2 .3-4.1.5-6.2.1-4.9-.8-8.1-3.8-8.8-8.7-.5-3.5.1-6.9 1.9-9.9.8-1.4 2-2.5 3.5-3.3 3.4-1.9 9.8-2 13.5-.1z"/><path id="path83" d="M376.4 406.9c-.1-1.7-.2-3.1-.3-4.7 1 .2 1.8.5 2.7.6 1.5.2 3 .5 4.4.6.7 0 1.5-.2 2.1-.5 1.3-.7 1.5-2.1.6-3.2-.5-.6-1.1-1-1.7-1.5-1.6-1.3-3.3-2.5-4.8-3.9s-2.3-3.1-1.7-5.3c.6-2.3 2.1-3.6 4.3-4.2 3.6-1 7.2-.5 10.8.7.1 1.3.3 2.6.4 4.1-1.1-.2-2-.6-2.9-.6-1.5-.1-3-.1-4.5 0-.9.1-1.6.6-1.9 1.6-.3.9.3 1.6.9 2.1 1.2.9 2.4 1.8 3.6 2.8 1 .8 2.1 1.6 2.9 2.6 2.6 3 1.9 6.7-1.6 8.5-2.3 1.2-4.8 1.6-7.3 1.3-1.9-.3-3.9-.7-6-1z"/><path id="path85" d="M96.5 389.6c-1.2-.3-2.1-.6-3.1-.6-1.5-.1-3.1-.1-4.6.2-1.7.4-2.1 2-.8 3.3.8.8 1.8 1.4 2.6 2.1 1.3 1.1 2.7 2 3.9 3.2 2.9 3.1 2 7.4-1.9 9.1-3.2 1.4-6.5 1.3-9.8.6-3.4-.7-3.1-.2-3.3-3.8v-1.5c.8.2 1.4.4 2 .5 1.6.3 3.2.5 4.8.7.6.1 1.3-.1 1.8-.3 1.8-.6 2.2-2.4.8-3.6-1-.9-2.2-1.7-3.2-2.6-1-.8-2-1.5-2.9-2.4-3.6-3.6-2.2-8.4 2.6-9.7 3.3-.9 6.5-.4 9.6.4.6.1 1 .5 1 1.2.3.9.4 2 .5 3.2z"/><path id="path87" d="M555 389.6c-1.1-.3-2-.6-2.9-.6-1.4-.1-2.9-.1-4.3 0-.9.1-1.7.5-1.9 1.5-.2 1 .2 1.7 1 2.3 1.5 1.1 3 2.2 4.5 3.4.8.6 1.6 1.3 2.1 2.1 2.3 3 1.4 6.7-2 8.4-2.2 1.1-4.7 1.5-7.1 1.2-1.9-.2-3.8-.6-5.9-1-.2-1.6-.3-3-.5-4.7.9.2 1.5.4 2.2.5 1.7.3 3.3.5 5 .7.6.1 1.3-.1 1.8-.3 1.7-.7 1.9-2.3.6-3.6-.4-.4-1-.8-1.4-1.2-1.5-1.2-3-2.4-4.5-3.7-1.7-1.4-2.5-3.3-2-5.5.5-2.3 2.1-3.6 4.3-4.2 3.3-1 6.6-.5 9.8.4.4.1 1 .7 1 1.1.2.9.1 2 .2 3.2z"/><path id="path89" d="M117.9 389.6c-1.2-.3-2.1-.6-3.1-.6-1.4-.1-2.9-.1-4.3 0-.9.1-1.6.6-1.9 1.6-.2.9.3 1.6.9 2.1 1.3 1 2.6 1.9 3.9 3 .9.7 1.9 1.5 2.6 2.4 2.5 3 1.8 6.7-1.7 8.5-2 1.1-4.3 1.5-6.5 1.3-2.2-.2-4.5-.4-6.7-1.2-.1-1.4-.2-2.8-.3-4.5 1.6.4 3 .8 4.4 1 1.3.2 2.8.2 4.1-.1 2.2-.5 2.6-2.5.9-3.9-1.4-1.2-3-2.3-4.4-3.5-.9-.7-1.7-1.5-2.4-2.4-2.1-3-1.2-6.7 2.3-8.1 1.7-.7 3.6-.9 5.5-.9 1.7 0 3.5.5 5.2.8.7.1 1.2.5 1.3 1.4 0 1 .1 1.9.2 3.1z"/><path id="path91" d="M500.3 407.3h-6.7c.1-7.5.3-14.9.4-22.4h6c.1.9.2 1.7.3 2.7.6-.6 1-1 1.5-1.4 1.2-1.1 2.6-1.7 4.2-1.9 1.3-.1 1.7.2 2 1.5.2 1.2.2 2.3.4 3.7-.6 0-1 0-1.4-.1-3.9-.4-6.4 1.7-6.7 5.6-.2 2.7-.1 5.4-.1 8.1.1 1.3.1 2.7.1 4.2z"/><path id="path93" d="M163.9 423.9h6.1c.1.8.1 1.5.2 2.5 2.3-1.6 4.3-4.1 7.7-2.5.1 1.5.2 3 .4 4.6-.5-.1-.8-.2-1.1-.2-3.3-.5-5.8 1-6.7 4.3-.3 1-.4 2.1-.4 3.1-.1 2.9 0 5.8 0 8.6v2h-6.6c.2-7.4.3-14.8.4-22.4z"/><path id="path95" d="M375.4 423.9h6.1c.1.8.1 1.6.2 2.8.6-.6 1.1-1 1.5-1.4 1.7-1.5 3.7-2.3 6.2-1.5.1 1.6.3 3.2.4 4.9-.8-.1-1.3-.2-1.9-.2-2.8-.2-5.1 1.2-5.9 4-.3 1-.4 2-.4 3-.1 3-.1 6-.1 9v2c-2.2.2-4.3.2-6.5.1.1-7.8.2-15.2.4-22.7z"/><path id="path97" d="M487.3 384.7c-.4 7.7-.7 15-1 22.5h-6c.2-7.5.5-14.9.7-22.5 2.1-.1 4.2 0 6.3 0z"/><path id="path99" d="M182.4 407.4h-6c.2-7.5.5-14.9.7-22.5h6.4c-.4 7.4-.8 14.8-1.1 22.5z"/><path id="path101" d="M235 407.3c.2-7.5.5-14.8.7-22.3h6.3c-.4 7.5-.7 14.8-1.1 22.3H235z"/><path id="path103" d="M235.8 376.6h6.1v3.7h-6.1v-3.7z"/><path id="path105" d="M177.2 376.6h6v3.6h-6v-3.6z"/><path id="path107" d="M481.1 376.5h4.6c.4 0 .8.1 1.4.1v3.6c-1.9.2-3.9 0-6 .1v-3.8z"/></g></g></svg>