<?xml version="1.0" encoding="UTF-8" standalone="no"?>
<!-- Generator: Adobe Illustrator 24.0.2, SVG Export Plug-In . SVG Version: 6.00 Build 0)  -->

<svg
   xmlns:dc="http://purl.org/dc/elements/1.1/"
   xmlns:cc="http://creativecommons.org/ns#"
   xmlns:rdf="http://www.w3.org/1999/02/22-rdf-syntax-ns#"
   xmlns:svg="http://www.w3.org/2000/svg"
   xmlns="http://www.w3.org/2000/svg"
   xmlns:xlink="http://www.w3.org/1999/xlink"
   xmlns:sodipodi="http://sodipodi.sourceforge.net/DTD/sodipodi-0.dtd"
   xmlns:inkscape="http://www.inkscape.org/namespaces/inkscape"
   version="1.1"
   id="bcf710b1-c458-4f9f-8ad7-030bb98cfa68"
   x="0px"
   y="0px"
   viewBox="0 0 32.000001 31.999999"
   xml:space="preserve"
   sodipodi:docname="logo_AT.svg"
   width="32"
   height="32"
   inkscape:version="0.92.4 (5da689c313, 2019-01-14)"><metadata
   id="metadata32"><rdf:RDF><cc:Work
       rdf:about=""><dc:format>image/svg+xml</dc:format><dc:type
         rdf:resource="http://purl.org/dc/dcmitype/StillImage" /><dc:title>HOME_3 patates</dc:title></cc:Work></rdf:RDF></metadata><defs
   id="defs30" /><sodipodi:namedview
   pagecolor="#ffffff"
   bordercolor="#666666"
   borderopacity="1"
   objecttolerance="10"
   gridtolerance="10"
   guidetolerance="10"
   inkscape:pageopacity="0"
   inkscape:pageshadow="2"
   inkscape:window-width="2560"
   inkscape:window-height="1376"
   id="namedview28"
   showgrid="false"
   inkscape:zoom="26.442576"
   inkscape:cx="11.035065"
   inkscape:cy="13.684154"
   inkscape:window-x="0"
   inkscape:window-y="27"
   inkscape:window-maximized="1"
   inkscape:current-layer="bcf710b1-c458-4f9f-8ad7-030bb98cfa68" />
<style
   type="text/css"
   id="style2">
	.st0{clip-path:url(#SVGID_2_);}
	.st1{fill:url(#Rectangle_833_1_);}
	.st2{fill:#DB1C83;}
</style>
<title
   id="title4">HOME_3 patates</title>
<g
   id="Groupe_1617"
   transform="translate(-41.650003,-23.697625)">
	<g
   id="LOGO_Favicone"
   transform="translate(162,22.469)">
		<g
   id="Groupe_1043"
   transform="translate(0,27.259)">
			<g
   id="g21">
				<defs
   id="defs7">
					<rect
   id="SVGID_1_"
   x="-115.7"
   y="2.4000001"
   width="22.700001"
   height="2.4000001" />
				</defs>
				<clipPath
   id="SVGID_2_">
					<use
   xlink:href="#SVGID_1_"
   style="overflow:visible"
   id="use9"
   x="0"
   y="0"
   width="100%"
   height="100%" />
				</clipPath>
				<g
   id="Groupe_1042"
   class="st0"
   clip-path="url(#SVGID_2_)">
					
						<linearGradient
   id="Rectangle_833_1_"
   gradientUnits="userSpaceOnUse"
   x1="4488.127"
   y1="5354.5151"
   x2="4489.127"
   y2="5354.5151"
   gradientTransform="matrix(22.667,0,0,-2.36,-101848.11,12640.205)">
						<stop
   offset="0"
   style="stop-color:#59BBAB"
   id="stop12" />
						<stop
   offset="0.623"
   style="stop-color:#3AB2BB"
   id="stop14" />
						<stop
   offset="1"
   style="stop-color:#00A1D9"
   id="stop16" />
					</linearGradient>
					<rect
   id="Rectangle_833"
   x="-115.7"
   y="2.4000001"
   class="st1"
   width="22.700001"
   height="2.4000001"
   style="fill:url(#Rectangle_833_1_)" />
				</g>
			</g>
		</g>
		<path
   id="Tracé_3045"
   class="st2"
   d="m -104.6,2.4 c -5.2,-0.1 -9.5,4.1 -9.5,9.3 0,0.9 0.1,1.8 0.4,2.7 0,0 0.1,0.4 0.2,0.5 0.2,0.5 0.5,1.1 0.8,1.6 2.3,4.2 5,8.1 8.2,11.6 3,-3.1 5.6,-6.6 7.7,-10.4 1.1,-1.8 1.7,-3.9 1.8,-6 -0.1,-5.2 -4.4,-9.4 -9.6,-9.3 0,0 0,0 0,0 m 0,15.2 c -3.3,0 -6,-2.8 -5.9,-6.1 0.1,-3.3 2.8,-6 6.1,-5.9 3.3,0 5.9,2.7 5.9,6 0,3.3 -2.7,6 -6.1,6"
   inkscape:connector-curvature="0"
   style="fill:#db1c83" />
	</g>
</g>
</svg>