<?xml version="1.0" encoding="utf-8"?>
<!-- Generator: Adobe Illustrator 22.0.1, SVG Export Plug-In . SVG Version: 6.00 Build 0)  -->
<svg version="1.1" xmlns="http://www.w3.org/2000/svg" xmlns:xlink="http://www.w3.org/1999/xlink" x="0px" y="0px"
	 viewBox="0 0 1417.3 1417.3" style="enable-background:new 0 0 1417.3 1417.3;" xml:space="preserve">
<style type="text/css">
	.st0{display:none;}
	.st1{display:inline;fill:none;stroke:#000000;stroke-width:1.0167;stroke-miterlimit:10;}
	.st2{fill:#556F7B;}
	.st3{fill:#3DAC48;}
	.st4{fill:#20B2E8;}
	.st5{fill:#1173BA;}
	.st6{fill:#03A14F;}
	.st7{fill:#95C11F;}
	.st8{opacity:0.55;fill-rule:evenodd;clip-rule:evenodd;fill:#169BD8;}
	.st9{opacity:0.55;fill-rule:evenodd;clip-rule:evenodd;fill:#16428E;}
	.st10{opacity:0.55;fill-rule:evenodd;clip-rule:evenodd;fill:#048D42;}
	.st11{opacity:0.55;fill-rule:evenodd;clip-rule:evenodd;fill:#83BD45;}
	.st12{opacity:0.55;fill-rule:evenodd;clip-rule:evenodd;fill:#0A67B1;}
	.st13{opacity:0.55;fill-rule:evenodd;clip-rule:evenodd;fill:#D5DA2C;}
	.st14{opacity:0.55;fill-rule:evenodd;clip-rule:evenodd;fill:#03A14F;}
	.st15{opacity:0.55;fill-rule:evenodd;clip-rule:evenodd;fill:#3DAC48;}
	.st16{opacity:0.55;fill-rule:evenodd;clip-rule:evenodd;fill:#1173BA;}
	.st17{opacity:0.55;fill-rule:evenodd;clip-rule:evenodd;fill:#088CCD;}
	.st18{opacity:0.35;fill-rule:evenodd;clip-rule:evenodd;fill:#121212;}
	.st19{fill:#FFFFFF;}
</style>
<g id="forme_de_découpe" class="st0">
	<path class="st1" d="M1365.2,1417.3c28.2,0,51.1-22.9,51.1-51.1v-128c0-28.2-22.9-51.1-51.1-51.1H1224
		c117.8-126.1,189.9-295.3,189.9-481.5C1413.8,315.9,1097.9,0,708.2,0S2.6,315.9,2.6,705.6c0,186.1,72.1,355.4,189.9,481.5H51.1
		c-28.2,0-51.1,22.9-51.1,51.1v128c0,28.2,22.9,51.1,51.1,51.1H1365.2z"/>
</g>
<g id="logo_vecto">
	<g>
		<path class="st2" d="M180,992.4l-13.5,7.2l-7.2-13.5l13.5-7.2L180,992.4z"/>
		<path class="st3" d="M97.1,973.8l-14.7-2.6L80,966l15.1,3.3L97.1,973.8z M107.7,983.7L93,950l3.7-1.6l12.8,29.5l21.9-9.5
			l-10.9-25.1l3.7-1.6l10.9,25.1l22.4-9.7l-12.8-29.4l3.7-1.6l14.7,33.7L107.7,983.7z"/>
		<path class="st3" d="M139.1,897.8c1.9,5.5,1.5,11.2-1,16.3c-3.5,7-8.6,8.8-21.5,13.2c-13,4.4-18.1,6-25.1,2.6
			c-5.1-2.5-8.9-6.9-10.7-12.3c-3.5-10.3,0.5-19.7,10.1-25.2l1.5,4.4c-7.4,4.4-10.4,11.7-7.8,19.4c1.4,4.1,4.2,7.4,8.1,9.4
			c5.5,2.7,10.1,1.5,22.3-2.6c12.2-4.2,16.6-6,19.3-11.5c1.9-3.9,2.1-8.3,0.7-12.4c-2.6-7.7-9.5-11.9-18-10.8l-1.4-4.3
			C126.7,882.4,135.7,887.6,139.1,897.8z"/>
		<path class="st3" d="M115.1,835c4.8,2.9,8.2,7.6,9.6,13.2c1.4,5.6,0.5,11.3-2.4,16.2c-4.1,6.7-9.3,8.1-22.5,11.3
			c-13.3,3.2-18.5,4.4-25.2,0.4c-4.8-2.9-8.2-7.6-9.6-13.2c-1.4-5.6-0.5-11.3,2.4-16.2c4.1-6.7,9.2-8,22.5-11.3
			C103.1,832.1,108.4,830.9,115.1,835z M70.7,849.6c-2.2,3.7-2.8,8-1.8,12.3c1,4.2,3.6,7.8,7.3,10c5.2,3.2,9.9,2.4,22.5-0.7
			c12.5-3.1,17.1-4.5,20.3-9.8c2.2-3.7,2.8-8,1.8-12.3c-1-4.2-3.6-7.8-7.3-10c-5.2-3.2-9.9-2.4-22.5,0.7
			C78.4,842.9,73.9,844.3,70.7,849.6z"/>
		<path class="st3" d="M57.1,824.5l-0.7-4.5l55.7-8.9l-5.1-31.7l4-0.6l5.8,36.2L57.1,824.5z"/>
		<path class="st3" d="M102,738.9c4.3,3.7,6.9,8.8,7.4,14.6c0.5,5.8-1.3,11.3-5,15.6c-5.1,6-10.5,6.5-24,7.6
			c-13.6,1.1-19,1.4-24.9-3.6c-4.3-3.7-6.9-8.8-7.4-14.6c-0.5-5.8,1.3-11.3,5-15.6c5.1-6,10.4-6.5,24-7.6
			C90.6,734.2,96.1,733.8,102,738.9z M55.9,746.2c-2.8,3.3-4.1,7.5-3.7,11.8c0.3,4.3,2.3,8.3,5.6,11.1c4.7,4,9.4,3.9,22.3,2.9
			c12.9-1,17.6-1.7,21.6-6.4c2.8-3.3,4.1-7.5,3.7-11.8c-0.3-4.3-2.3-8.3-5.6-11.1c-4.7-4-9.4-3.9-22.3-2.9S59.9,741.6,55.9,746.2z"
			/>
		<path class="st3" d="M100.7,685.3c4.4,4,6.8,9.9,6.8,16c-0.1,5.8-2.3,11.1-6.4,15c-5.6,5.5-11,5.5-24.6,5.3
			c-13.7-0.2-19-0.3-24.5-5.9c-3.9-4-6.1-9.4-6-15.2c0.1-10.5,7.3-18.8,17.9-20.4l-0.1,4.6c-8.4,1.7-13.7,7.7-13.8,15.9
			c-0.1,4.3,1.5,8.4,4.5,11.5c4.3,4.4,9,4.8,21.9,4.9c12.9,0.2,17.7-0.1,22.1-4.4c3.1-3,4.8-7.1,4.8-11.4c0.1-4.8-1.9-9.5-5.7-12.6
			c-3.3-2.7-6.8-3.7-11.9-3.8l-5.4-0.1l-0.2,16.2l-4.1-0.1l0.3-20.8l9.9,0.1C92.5,680.3,96.9,681.6,100.7,685.3z"/>
		<path class="st3" d="M47.8,662.8l0.3-4.6l60.3,4l-0.3,4.6L47.8,662.8z"/>
		<path class="st3" d="M109.5,614.1c2.5,4.1,3.5,9,2.9,13.8c-0.7,5.7-3.6,10.8-8.1,14.2c-6.2,4.8-11.6,4.2-25.1,2.5
			c-13.6-1.7-18.9-2.5-23.6-8.7c-3.5-4.5-5-10.1-4.2-15.8c0.7-5.7,3.6-10.8,8.1-14.2c6.2-4.8,11.5-4.2,25.1-2.5
			c12.3,1.6,18,2.4,22.4,7.2l8-6.2l2.6,3.4L109.5,614.1z M61.5,609.9c-3.4,2.6-5.5,6.5-6.1,10.8c-0.5,4.3,0.5,8.5,3.2,12
			c3.7,4.8,8.4,5.8,21.2,7.4c12.8,1.6,17.6,1.9,22.4-1.8c3.4-2.6,5.5-6.5,6.1-10.8c0.5-3.8-0.3-7.4-2.2-10.6l-9.5,7.4l-2.6-3.4
			l9.4-7.3c-3.4-3.2-8.6-4-19.4-5.4C71.1,606.4,66.3,606.1,61.5,609.9z"/>
		<path class="st3" d="M121.5,575c-2.6,11.9-12.6,18.5-24.1,15.9l-39.9-8.8l1-4.5l39.3,8.7c9.8,2.2,17.6-2.6,19.7-12.2
			c2.1-9.5-3-17.2-12.8-19.3l-39.3-8.7l1-4.5l39.9,8.8C117.9,553,124.1,563.1,121.5,575z"/>
		<path class="st3" d="M71.8,522.3l11-35l3.9,1.2l-9.6,30.6l22.8,7.1l8.2-26.1l3.9,1.2l-8.2,26.1l23.3,7.3l9.6-30.6l3.9,1.2l-11,35
			L71.8,522.3z"/>
		<path class="st2" d="M148.9,483.6l-14.1-5.8l5.8-14.2l14.1,5.8L148.9,483.6z"/>
		<path class="st4" d="M172.1,433.4c-2.6,5.2-7,8.9-12.4,10.7c-7.4,2.4-12.3,0-24.4-6.1c-12.2-6.2-16.9-8.7-19.4-16.1
			c-1.8-5.4-1.3-11.1,1.3-16.3c4.9-9.7,14.4-13.5,25.1-10.4l-2.1,4.2c-8.3-2.2-15.6,0.8-19.3,8c-2,3.9-2.4,8.2-1,12.3
			c1.9,5.8,6,8.3,17.5,14.1c11.5,5.8,15.9,7.7,21.7,5.8c4.1-1.3,7.4-4.3,9.4-8.1c3.7-7.3,1.8-15.1-4.9-20.5l2-4
			C174.4,413.8,177,423.9,172.1,433.4z"/>
		<path class="st4" d="M200.2,372.3c1.3,5.5,0.3,11.2-2.7,16.1c-3,4.9-7.8,8.3-13.3,9.6c-7.6,1.8-12.3-1-23.8-8.2
			c-11.6-7.2-16.1-10.1-17.9-17.7c-1.3-5.5-0.3-11.2,2.7-16.1c3-4.9,7.7-8.3,13.2-9.6c7.6-1.8,12.2,1,23.8,8.2
			C193.8,361.7,198.4,364.7,200.2,372.3z M158.7,350.8c-4.2,1-7.7,3.6-10,7.3c-2.3,3.7-3.1,8-2.1,12.2c1.4,6,5.3,8.8,16.2,15.6
			c11,6.8,15.2,9,21.2,7.6c4.2-1,7.7-3.6,10-7.3c2.3-3.7,3.1-8,2.1-12.2c-1.4-6-5.3-8.8-16.2-15.6
			C168.9,351.6,164.7,349.4,158.7,350.8z"/>
		<path class="st4" d="M214.5,313.5l-19,25.2l22.7,17.1l-2.8,3.7l-48.3-36.4l2.8-3.7l22.3,16.8l19-25.2l-22.3-16.8l2.8-3.7L240,327
			l-2.8,3.7L214.5,313.5z"/>
		<path class="st4" d="M205.3,274.4l24.5-27.3l3,2.7l-21.5,23.9l17.8,16l18.3-20.3l3,2.7l-18.3,20.3l18.1,16.3l21.5-23.9l3,2.7
			l-24.5,27.3L205.3,274.4z M209.9,260.6l-3.8-14.5l3.8-4.2l3.3,15.1L209.9,260.6z"/>
		<path class="st4" d="M294.1,269.6c-6.5,6.1-12.3,8.3-20.1,8.1l0.1-4.6c7.7,0.2,12.1-1.7,17.4-6.7c7-6.6,8.1-14,2.7-19.8
			c-2.5-2.6-5.2-4-8.3-3.9c-2.9,0.3-4.5,0.7-8.6,3.7l-5.9,4.1c-3.8,2.7-7.4,4.1-10.9,4.2c-4.1,0.3-7.8-1.3-11.1-4.8
			c-7-7.4-6.2-16.9,2.2-25c5.4-5.2,10.3-7,17.1-7.3l-0.1,4.2c-4.9,0-9.3,1.1-14.5,6.1c-6.4,6.1-6.9,13.1-1.6,18.7
			c2.4,2.5,5,3.7,7.7,3.6c2.8-0.2,6.2-1.6,9.1-3.5l5.4-3.8c4.7-3.4,7.3-4.4,10.6-4.5c4.3-0.3,8.6,1.4,11.9,4.9
			C304.4,250.9,303.3,260.9,294.1,269.6z"/>
		<path class="st4" d="M278.5,201.5l3.5-3l39.1,46.1l-3.5,3L278.5,201.5z"/>
		<path class="st4" d="M356.8,209.6c-0.8,5.6-3.8,10.6-8.4,14c-4.6,3.5-10.2,4.9-15.8,4.1c-7.7-1.1-11.1-5.4-19.2-16.3
			c-8.2-10.9-11.3-15.3-10.2-23c0.8-5.6,3.8-10.6,8.4-14c4.6-3.5,10.2-4.9,15.8-4.1c7.7,1.1,11,5.3,19.2,16.3
			C354.7,197.5,357.9,201.9,356.8,209.6z M326,174.5c-4.3-0.6-8.5,0.5-12,3.1c-3.5,2.6-5.8,6.3-6.4,10.6c-0.9,6.1,1.7,10.1,9.5,20.4
			c7.7,10.3,10.9,13.9,16.9,14.8c4.3,0.6,8.5-0.5,12-3.1c3.5-2.6,5.8-6.3,6.4-10.6c0.9-6.1-1.7-10.1-9.5-20.4
			C335.2,179,332,175.4,326,174.5z"/>
		<path class="st4" d="M352.1,156.1l27.5,44.8l-3.9,2.4l-31.6-51.6l3.9-2.4l57.2,26.5l-27.4-44.7l3.9-2.4l31.6,51.6l-3.9,2.4
			L352.1,156.1z"/>
		<path class="st2" d="M437.9,167.5l-6.7-13.7l13.7-6.7l6.7,13.7L437.9,167.5z"/>
		<path class="st5" d="M486.1,145.9l-4.3,1.7l-21.1-52.3L444,102l-1.5-3.8L480.3,83l1.5,3.8L465,93.5L486.1,145.9z"/>
		<path class="st5" d="M523.5,103.2l-15.9,5l8.3,26.6l-4.4,1.4l-18-57.7l22-6.8c9.4-2.9,18.2,0.3,21.4,10.3
			c2.7,8.7-0.8,15.8-8.4,19.7l22.3,22.3l-5.1,1.6L523.5,103.2z M516.1,75.6l-17,5.3l7.3,23.4l17-5.3c7.5-2.3,11.6-7.6,9.1-15.6
			C530,75.3,523.6,73.3,516.1,75.6z"/>
		<path class="st5" d="M588.6,100.3l-27.5,6.1l-2,15.5l-4.8,1.1L563,59l4-0.9l34.8,54.3l-4.8,1.1L588.6,100.3z M561.6,102l24.7-5.5
			l-20-32L561.6,102z"/>
		<path class="st5" d="M607.2,58.4l6.7,52.2l-4.6,0.6l-7.7-60l4.6-0.6l41.3,47.6l-6.7-52l4.6-0.6l7.7,60l-4.6,0.6L607.2,58.4z"/>
		<path class="st5" d="M683.9,104.5c-8.9,0.3-14.7-1.9-20.4-7.2l3.1-3.4c5.6,5.2,10.2,6.7,17.4,6.5c9.6-0.4,15.4-5.2,15.1-13.1
			c-0.1-3.7-1.3-6.5-3.6-8.4c-2.4-1.7-3.8-2.4-8.9-2.9l-7.1-0.8c-4.6-0.5-8.2-1.8-11-4c-3.2-2.5-5-6.2-5.2-10.9
			c-0.4-10.2,6.5-16.8,18.1-17.3c7.5-0.3,12.3,1.6,17.7,5.9l-2.9,3.1c-3.7-3.3-7.8-5.3-14.9-5c-8.8,0.3-13.8,5.3-13.5,13
			c0.1,3.5,1.3,6.1,3.5,7.8c2.2,1.7,5.7,2.9,9.1,3.4l6.6,0.8c5.7,0.5,8.4,1.5,10.9,3.6c3.4,2.6,5.5,6.7,5.7,11.5
			C704,97.2,696.6,104,683.9,104.5z"/>
		<path class="st5" d="M717.1,43l4.6,0.1l-1,60.5l-4.6-0.1L717.1,43z"/>
		<path class="st5" d="M752.7,105.1l-4.6-0.3l3.9-56.3l-18-1.2l0.3-4.1l40.6,2.8l-0.3,4.1l-18.1-1.3L752.7,105.1z"/>
		<path class="st5" d="M787.4,47.7l4.6,0.6l-7.4,60l-4.6-0.6L787.4,47.7z"/>
		<path class="st5" d="M834.6,110.8c-4.7,3.2-10.3,4.4-16,3.3c-5.7-1.1-10.5-4.2-13.7-8.9c-4.4-6.4-3.5-11.8-1-25.2
			c2.5-13.4,3.6-18.7,10-23.1c4.7-3.2,10.3-4.4,16-3.3c5.7,1.1,10.5,4.2,13.7,8.9c4.4,6.4,3.5,11.7,1,25.2
			C842.1,101,841,106.3,834.6,110.8z M839.5,64.3c-2.5-3.6-6.2-5.9-10.4-6.7c-4.3-0.8-8.6,0-12.1,2.5c-5.1,3.5-6.3,8.1-8.6,20.8
			c-2.4,12.7-2.9,17.4,0.6,22.5c2.4,3.6,6.2,5.9,10.4,6.7c4.3,0.8,8.6,0,12.1-2.5c5.1-3.5,6.3-8.1,8.6-20.8
			C842.4,74.1,842.9,69.4,839.5,64.3z"/>
		<path class="st5" d="M870.8,71l-14.4,50.6l-4.4-1.3l16.6-58.2l4.4,1.3l19.2,60L906.6,73l4.4,1.3l-16.6,58.2l-4.4-1.3L870.8,71z"/>
		<path class="st2" d="M923.5,143.1l5.7-14.2l14.2,5.7l-5.7,14.2L923.5,143.1z"/>
		<path class="st6" d="M972,164.2l-4.1-2l24.6-50.8l-16.2-7.8l1.8-3.7l36.6,17.7l-1.8,3.7l-16.3-7.9L972,164.2z"/>
		<path class="st6" d="M1026.6,124.2l31.7,18.5l-2.1,3.5l-27.8-16.2l-12,20.6l23.6,13.8l-2.1,3.5l-23.6-13.8l-12.3,21.1l27.8,16.2
			l-2.1,3.5l-31.7-18.5L1026.6,124.2z"/>
		<path class="st6" d="M1070.8,190.5l-13.7-9.5l-16,22.8l-3.8-2.6l34.7-49.6l18.9,13.2c8.1,5.7,10.9,14.6,4.9,23.2
			c-5.2,7.5-13,9.1-20.8,5.4l-4.1,31.3l-4.4-3.1L1070.8,190.5z M1088.2,167.7l-14.6-10.2l-14,20.1l14.6,10.2
			c6.4,4.5,13.1,4.5,17.9-2.4C1096.9,178.5,1094.6,172.2,1088.2,167.7z"/>
		<path class="st6" d="M1114.5,224.3l-12.8-10.7l-17.9,21.4l-3.5-2.9l38.9-46.4l17.7,14.8c7.6,6.3,9.6,15.5,2.9,23.6
			c-5.8,7-13.7,7.9-21.2,3.5l-6.8,30.8l-4.1-3.4L1114.5,224.3z M1133.8,203.1l-13.7-11.5l-15.7,18.8l13.7,11.5
			c6,5,12.7,5.6,18.1-0.8C1141.6,214.6,1139.8,208.2,1133.8,203.1z"/>
		<path class="st6" d="M1162.1,223l3.3,3.2l-41.6,43.9l-3.3-3.2L1162.1,223z"/>
		<path class="st6" d="M1146.3,292.8l-3.2-3.3l40.9-38.8l-12.4-13.1l3-2.8l28,29.5l-3,2.8l-12.5-13.1L1146.3,292.8z"/>
		<path class="st6" d="M1189.2,333.9c-5.6-0.6-10.7-3.3-14.4-7.8c-3.6-4.5-5.3-10-4.7-15.6c0.8-7.8,5-11.3,15.5-19.8
			c10.6-8.6,14.8-11.9,22.6-11.1c5.6,0.6,10.7,3.3,14.4,7.8c3.6,4.5,5.3,10,4.7,15.7c-0.8,7.8-4.9,11.2-15.5,19.8
			C1201.2,331.4,1196.9,334.7,1189.2,333.9z M1223,301.7c0.4-4.3-0.9-8.5-3.6-11.8c-2.7-3.4-6.6-5.5-10.9-6c-6.1-0.6-10,2.1-20,10.3
			c-10,8.1-13.5,11.4-14.1,17.5c-0.4,4.3,0.9,8.5,3.6,11.8c2.7,3.4,6.6,5.5,10.9,6c6.1,0.6,10-2.1,20-10.3
			C1218.9,311.1,1222.4,307.8,1223,301.7z"/>
		<path class="st6" d="M1245.3,317.8l2.7,3.7l-49.2,35.3l-2.7-3.7L1245.3,317.8z"/>
		<path class="st6" d="M1243.1,373.1l-8.9-14.1l-23.6,14.8l-2.4-3.9l51.3-32.1l12.2,19.5c5.2,8.4,4.4,17.7-4.5,23.3
			c-7.7,4.8-15.5,3.3-21.2-3.1l-15.9,27.2l-2.8-4.5L1243.1,373.1z M1268,359l-9.5-15.1l-20.7,13l9.5,15.1c4.2,6.6,10.3,9.3,17.5,4.8
			C1271.8,372.3,1272.1,365.6,1268,359z"/>
		<path class="st6" d="M1289.5,387.4l16.8,32.6l-3.6,1.9l-14.7-28.5l-21.2,11l12.5,24.3l-3.6,1.9l-12.5-24.3l-21.7,11.2l14.7,28.5
			l-3.6,1.9l-16.8-32.6L1289.5,387.4z"/>
		<path class="st6" d="M1262.5,472.2c-3.4-8.2-3.4-14.4-0.4-21.7l4.2,1.7c-2.9,7.1-2.7,11.9,0.1,18.6c3.7,8.9,10.2,12.6,17.5,9.5
			c3.4-1.4,5.6-3.5,6.6-6.3c0.8-2.8,0.9-4.4-0.4-9.3l-1.7-6.9c-1.1-4.5-1.2-8.3-0.1-11.7c1.2-3.9,4-6.9,8.4-8.7
			c9.4-3.9,18,0.2,22.5,10.9c2.9,6.9,2.8,12.1,0.7,18.6l-3.9-1.6c1.8-4.6,2.2-9.1-0.5-15.7c-3.4-8.1-9.8-11.1-16.9-8.1
			c-3.2,1.3-5.2,3.3-6.1,6c-0.8,2.6-0.7,6.4,0,9.8l1.6,6.4c1.5,5.5,1.5,8.4,0.5,11.5c-1.2,4.1-4.3,7.5-8.8,9.4
			C1276.3,488.5,1267.4,483.9,1262.5,472.2z"/>
		<path class="st2" d="M1278.5,513l14.6-4.7l4.7,14.6l-14.6,4.7L1278.5,513z"/>
		<path class="st7" d="M1292.4,563.3c-2.1-8.7-1-14.8,3.1-21.4l3.9,2.4c-4,6.6-4.6,11.3-2.9,18.4c2.2,9.3,8.1,14,15.8,12.2
			c3.6-0.9,6.1-2.5,7.5-5.2c1.2-2.6,1.6-4.2,1.1-9.3l-0.6-7.1c-0.4-4.6,0.2-8.4,1.8-11.5c1.8-3.7,5.1-6.1,9.7-7.2
			c9.9-2.4,17.8,3.1,20.5,14.4c1.7,7.3,0.9,12.4-2.3,18.5l-3.6-2.2c2.5-4.3,3.7-8.7,2-15.6c-2.1-8.6-7.9-12.5-15.4-10.7
			c-3.4,0.8-5.7,2.4-6.9,4.9c-1.2,2.5-1.7,6.2-1.5,9.6l0.5,6.6c0.6,5.7,0.1,8.5-1.4,11.4c-1.9,3.9-5.5,6.7-10.2,7.9
			C1303.4,581.6,1295.4,575.6,1292.4,563.3z"/>
		<path class="st7" d="M1310.5,626.5c-4.6-3.3-7.6-8.3-8.4-14c-0.9-5.7,0.5-11.3,3.8-15.9c4.6-6.3,10-7.2,23.4-9.3
			c13.5-2.1,18.8-2.8,25.1,1.8c4.6,3.3,7.6,8.3,8.4,14c0.9,5.7-0.5,11.3-3.8,15.9c-4.6,6.3-9.9,7.2-23.4,9.3
			C1322.2,630.4,1316.8,631.1,1310.5,626.5z M1356,615.8c2.6-3.5,3.5-7.8,2.9-12c-0.7-4.3-2.9-8.1-6.4-10.6
			c-4.9-3.6-9.7-3.2-22.5-1.3c-12.8,2-17.4,3-21,8c-2.6,3.5-3.5,7.8-2.9,12c0.7,4.3,2.9,8.1,6.4,10.6c4.9,3.6,9.7,3.2,22.5,1.3
			S1352.4,620.7,1356,615.8z"/>
		<path class="st7" d="M1367.4,642l0.3,4.6l-56.3,4l2.3,32l-4.1,0.3l-2.6-36.6L1367.4,642z"/>
		<path class="st7" d="M1370,691.2l0.1,4.6l-60.5,1.2l-0.1-4.6L1370,691.2z"/>
		<path class="st7" d="M1313.9,748.6c-3.5-3.8-5.1-9-4.8-15.3l0.9-20.3l60.4,2.7l-0.9,20.3c-0.3,6.4-2.4,11.4-6.2,14.9
			c-6.4,5.8-16,5.1-24.1,4.8S1319.7,755,1313.9,748.6z M1360.2,747.5c3.8-3.3,5-7.9,5.3-12.8l0.7-14.6l-52.3-2.4l-0.7,14.6
			c-0.2,4.8,0.6,9.5,4.1,13.2c4.8,5,15.3,5.2,22.1,5.5C1346.1,751.4,1354.9,752,1360.2,747.5z"/>
		<path class="st7" d="M1317.4,798.8l3.6-28l-13.9-7.1l0.6-4.9l57.1,29.9l-0.5,4l-62.9,14.3l0.6-4.9L1317.4,798.8z M1324.9,772.8
			l-3.3,25.1l36.9-8L1324.9,772.8z"/>
		<path class="st7" d="M1359.1,826.1l-0.9,4.5l-59.4-11.2l0.9-4.5L1359.1,826.1z"/>
		<path class="st7" d="M1317.6,862.6l4.1-16.1l-27-6.9l1.1-4.4l58.7,14.9l-5.7,22.3c-2.4,9.6-9.8,15.4-20,12.8
			c-8.8-2.2-13.1-8.9-12.4-17.5l-30.7,7.3l1.3-5.2L1317.6,862.6z M1345,870.8l4.4-17.3l-23.7-6l-4.4,17.3
			c-1.9,7.6,0.4,13.9,8.6,15.9C1338,882.8,1343.1,878.4,1345,870.8z"/>
		<path class="st7" d="M1339.2,906l-12,34.7l-3.9-1.3l10.5-30.4l-22.6-7.8l-8.9,25.9l-3.9-1.3l8.9-25.9l-23-8l-10.5,30.4l-3.9-1.3
			l12-34.7L1339.2,906z"/>
		<path class="st2" d="M1261,942.4l14,6.2l-6.2,14l-14-6.2L1261,942.4z"/>
	</g>
	<g>
		<path id="XMLID_22_" class="st8" d="M135.1,672.9c18.1-316.6,289.4-558.5,606-540.4c316.6,18.1,558.5,289.4,540.4,606
			c-18.1,316.6-289.4,558.5-606,540.4C359,1260.8,117,989.5,135.1,672.9L135.1,672.9z"/>
		<path id="XMLID_21_" class="st9" d="M377.3,236.7c207.8,96,346.3,311.8,332.4,554.2c-10.4,181.7-104.2,338.8-242.1,436.3
			c-207.8-96-346.3-311.8-332.5-554.2C145.5,491.2,239.3,334.1,377.3,236.7L377.3,236.7z"/>
		<path id="XMLID_20_" class="st10" d="M800.5,650.2c10-173.9,96.3-325.3,224.6-423.4c164.6,109.1,268.4,300.3,256.4,511.6
			c-10,173.9-96.3,325.3-224.6,423.4C892.3,1052.8,788.5,861.6,800.5,650.2L800.5,650.2z"/>
		<path id="XMLID_19_" class="st11" d="M875.6,156.4C771.2,340.2,568.8,459.2,343.4,446.3c-46.7-2.7-91.7-10.9-134.5-23.9
			c104.5-183.9,306.9-302.8,532.3-289.9C787.8,135.2,832.8,143.4,875.6,156.4L875.6,156.4z"/>
		<path id="XMLID_18_" class="st12" d="M241.6,1040c95.8-208.3,311.9-347.2,554.6-333.4c180.3,10.3,336.3,102.8,434,238.9
			c-95.8,208.3-311.9,347.2-554.6,333.3C495.3,1268.6,339.2,1176.1,241.6,1040L241.6,1040z"/>
		<path id="XMLID_17_" class="st13" d="M1279.2,644.6c-32.7,3.8-66.2,4.9-100.3,3c-284.7-16.3-509.1-237.5-538.1-512.1
			c32.7-3.8,66.2-4.9,100.3-3C1025.9,148.8,1250.2,370,1279.2,644.6L1279.2,644.6z"/>
		<path id="XMLID_16_" class="st14" d="M1140,327.2c-98.2,179.5-302.5,299.8-532.3,290c-160.1-6.8-300.9-83-398.9-194.7
			c104.4-183.9,306.9-302.9,532.3-290C901.1,141.7,1042,215.5,1140,327.2L1140,327.2z"/>
		<path id="XMLID_15_" class="st15" d="M377.2,236.7c16.7,59.5,24,122.7,20.3,187.9c-10.4,181.7-104.2,338.8-242.1,436.2
			c-16.7-59.5-24-122.7-20.3-187.9C145.5,491.2,239.3,334.2,377.2,236.7L377.2,236.7z"/>
		<path id="XMLID_14_" class="st16" d="M689.9,1243c17.9-312.1,281.8-551.6,592.5-541c0.1,12.1-0.2,24.2-0.9,36.4
			c-17.9,312.1-281.8,551.6-592.5,541C688.9,1267.4,689.2,1255.3,689.9,1243L689.9,1243z"/>
		<path id="XMLID_13_" class="st17" d="M134.3,717c48.4-10.1,98.8-14.1,150.5-11.2c301.8,17.3,535.7,264.6,541.2,561.9
			c-48.4,10.1-98.8,14.1-150.5,11.2C373.8,1261.6,139.8,1014.3,134.3,717L134.3,717z"/>
		<path id="XMLID_12_" class="st18" d="M1276.2,790.3c-32.6,220.5-190.5,400.2-399.1,464.3l-397-263.8c0,0,170.5-106.1,181.1-135.3
			c10.6-29.2-125.7-445.3-88.1-465.1c37.6-19.8,219.6-104.5,219.6-104.5L1276.2,790.3z"/>
	</g>
	<path class="st19" d="M707.9,1282.6c179.1,0,339-82,444.3-210.6c-9.6-12.2-16.6-21.1-16.6-21.1s37.7-5.7-5.9-30
		c-43.6-24.3-43.6-25.4-53.4-32.3c-9.8-6.9-35.1-10.8-37.3-14.2c-2.1-3.4,22.5-13.8-3.9-22.2c-26.3-8.4-53.7-19-53.7-19
		s13.8-21.8-2.6-29.9c-16.4-8.1-32.9-9.7-36.3-7.5c-3.4,2.1-9.7-9.1-15.1-14.7c-5.4-5.7-19.7-8.2-26.4-7.3c-6,0.9-46.5-0.9-55.6-4.6
		c0.2,2.1,0.3,3.3,0.3,3.3l-2.1-4.5c0.2,0.4,0.8,0.8,1.8,1.2c-1.3-12.7-5.9-59.3-5.7-68.8c0.3-11.1,4.8-14.3,4.8-14.3
		s62.9,6,58.5-39.5c0,0-6.2-16.7-3.7-28.8c0,0,11.3-6.4,3-16.3c0,0,7.3-5.6,3.4-21.2c0,0-2.1-6.7,0.3-13.3c0,0,24.2-2.1,15.9-18.4
		c-5.4-10.7-6.4-7.9-8.5-14.6c-2-6.7-11.5-25.7-13.5-34.6c-2-8.9,11.7-25.2,11.9-32.9c0.2-7.7-9.3-25.7-11.3-33.5
		c-2-7.8-11.5-27.9-13.4-41.2c-1.9-13.3-7.9-37.8-12.2-42.3c-4.3-4.5-10.7-15.7-12.7-23.5c-2-7.8-13.8-22.5-17.1-25.9
		c-3.2-3.4-28.2-23.9-53.4-31.2c-25.3-7.3-31.8-10.7-47.3-12.2c-15.4-1.5-24.3,0.5-23.1-3.9c1.2-4.4,15.6-2.9,31-0.4
		c4.4,0.7,19.5,7.4,37.7-2.4c15.7-8.5,29.7-38-14.7-76.7c-44.4-38.7-100.3-12.4-112.7-6.1c-12.3,6.3,0-1.1-30.2,13.6
		c-30.2,14.7-74.4,55.7-84.2,96.4c-9.8,40.7-1,40.9-0.2,52c0.8,11.1-1.7,24.3-12,39.5c-10.3,15.2-27.2,25.9-14.4,46.1
		c12.8,20.2,3.7,27.7-2,37.6c-5.8,9.8-12.9,29.5,1.2,42.1c14.1,12.5,11.8,16.9,13.7,25.8c2,8.9,8.2,27.9,11.3,35.7
		c3.1,7.8,0.8,11.1-0.6,24.3c-1.4,13.2-10.3,15.2-11.7,25.2c-1.3,9.9-0.2,6.6,9.9,1.3c10.1-5.3-8.1,13.1-8.3,21.9
		c-0.2,8.8,8.8,1.3,8.8,1.3s0.7,16.6-6,19.8c-6.7,3.2,11,3.6,12.5-15.2c1.6-18.8,11.7,19.1-11.9,36.2c-23.6,17.1,15.6-5.2,15.6-5.2
		l-5.8,12c0,0,21.1-3.9,4.2,7.8c-16.9,11.8-23.4,8.3-23.4,8.3s-23.8,23.8,0.5,23.2c24.3-0.5,10.9,5.8,16.3,13.7
		c5.3,7.9,21.6,19.3,30.4,22.9c8.8,3.5,56.7,6.3,56.7,6.3l-4.7,10.3c0,0-71.2-0.4-96.7,4.5c-25.6,4.9-41.4,18.9-41.6,28.8
		c-0.2,9.9,0.7,15.5-9.3,17.5c-10,2-45.3,0-56.8,14.1c-11.4,14.1-14.8,18.4-24.8,19.3c-10,0.9-23.5,9.4-24.8,18.2
		c-1.3,8.8-2.8,22.1-14.1,32.8c-11.3,10.8-44.6,14.4-50.7,38.6c-5.1,20-3.4,43.2-10,68C403.7,1217.3,548.2,1282.6,707.9,1282.6z"/>
	<g>
		<g>
			<path class="st2" d="M425.1,1119v65.8h-5.7v-75.7h5.7l43.7,65.6v-65.6h5.7v75.7h-5.7L425.1,1119z"/>
			<path class="st2" d="M520.7,1185.4c-15.2,0-25.9-10.4-25.9-25.2v-51.1h5.7v50.4c0,12.5,8,20.8,20.2,20.8
				c12.2,0,20.2-8.3,20.2-20.8v-50.4h5.7v51.1C546.6,1175,535.9,1185.4,520.7,1185.4z"/>
			<path class="st2" d="M624.7,1122.4l-23,51.8H596l-23.4-51.8v62.4h-5.7v-75.7h5.7l26.4,58.4l25.7-58.4h5.7v75.7h-5.7V1122.4z"/>
			<path class="st2" d="M651.7,1109.1h45.9v5.1h-40.2v29.9h34.2v5.1h-34.2v30.5h40.2v5.1h-45.9V1109.1z M668.4,1101.9l10.3-15.6h7.1
				l-11.3,15.6H668.4z"/>
			<path class="st2" d="M739.7,1149.9h-20.8v34.9h-5.7v-75.7H742c12.3,0,21.7,7.1,21.7,20.3c0,11.4-6.8,18.6-17.4,20.4l18.3,35h-6.7
				L739.7,1149.9z M741.2,1114.2h-22.3v30.6h22.3c9.8,0,16.7-4.8,16.7-15.3C757.9,1119,751,1114.2,741.2,1114.2z"/>
			<path class="st2" d="M780.9,1109.1h5.7v75.7h-5.7V1109.1z"/>
			<path class="st2" d="M847.6,1179.7c-4.7,3.7-10.6,5.7-16.7,5.7c-7.2,0-13.9-2.8-18.9-7.8c-6.9-6.9-7-13.7-7-30.7
				c0-17.1,0.1-23.8,7-30.7c5-5,11.7-7.8,18.9-7.8c7.2,0,13.9,2.8,18.9,7.8c6.9,6.9,7,13.6,7,30.7c0,15.5-0.1,22.8-5.4,28.9l8.9,8.9
				l-3.8,3.8L847.6,1179.7z M845.2,1119.4c-3.8-3.8-8.9-5.8-14.4-5.8c-5.4,0-10.5,2-14.4,5.8c-5.4,5.4-5.8,11.4-5.8,27.5
				c0,16.2,0.4,22.1,5.8,27.5c3.8,3.8,8.9,5.8,14.4,5.8c4.8,0,9.1-1.5,12.9-4.5l-10.6-10.6l3.8-3.8l10.5,10.5
				c3.4-4.8,3.6-11.4,3.6-25C851.1,1130.8,850.6,1124.8,845.2,1119.4z"/>
			<path class="st2" d="M899.9,1185.4c-15.2,0-25.9-10.4-25.9-25.2v-51.1h5.7v50.4c0,12.5,8,20.8,20.2,20.8
				c12.2,0,20.2-8.3,20.2-20.8v-50.4h5.7v51.1C925.8,1175,915.1,1185.4,899.9,1185.4z"/>
			<path class="st2" d="M946,1109.1h45.9v5.1h-40.2v29.9H986v5.1h-34.2v30.5h40.2v5.1H946V1109.1z"/>
		</g>
		<g>
			<path class="st2" d="M440.7,1007.2v22.1h35.6v15.7h-35.6v36.6h-17.6v-90.1h59.3v15.7H440.7z"/>
			<path class="st2" d="M541.5,1081.6l-5.3-15.9h-32l-5.4,15.9h-18.3l32.8-90.1h13.8l32.9,90.1H541.5z M520.5,1018.1l-11.4,32.8
				h22.4L520.5,1018.1z"/>
			<path class="st2" d="M608.7,1081.6h-37.7v-90.1h36.2c17.6,0,27.8,9.9,27.8,25.3c0,10-6.6,16.4-11.1,18.6
				c5.4,2.5,12.4,8.2,12.4,20.2C636.2,1072.5,624.7,1081.6,608.7,1081.6z M605.7,1007.2h-17.2v20.7h17.2c7.5,0,11.6-4.2,11.6-10.4
				C617.4,1011.4,613.2,1007.2,605.7,1007.2z M606.9,1043.8h-18.3v22.1h18.3c8,0,11.8-5.1,11.8-11.1
				C618.6,1048.7,614.8,1043.8,606.9,1043.8z"/>
			<path class="st2" d="M702,1081.6l-17.6-35.9h-12.6v35.9h-17.6v-90.1h35.3c18.3,0,29.2,12.5,29.2,27.6c0,12.7-7.7,20.5-16.4,23.7
				l20.1,38.8H702z M688.4,1007.2h-16.6v23.8h16.6c7.7,0,12.8-4.9,12.8-11.9C701.1,1012.1,696.1,1007.2,688.4,1007.2z"/>
			<path class="st2" d="M737,1081.6v-90.1h17.6v90.1H737z"/>
			<path class="st2" d="M829.5,1085.4l-8-8c-5.1,3.3-11.1,4.9-18.2,4.9c-10.2,0-18.1-3.5-24.4-9.9c-9.1-9.1-8.9-20.4-8.9-35.9
				c0-15.6-0.3-26.8,8.9-35.9c6.3-6.3,14.2-9.9,24.4-9.9c10.3,0,18,3.5,24.3,9.9c9.1,9.1,9,20.4,9,35.9c0,13.5,0.1,23.5-5.6,31.9
				l7.7,7.7L829.5,1085.4z M814.5,1011.2c-2.5-2.9-6.5-4.8-11.3-4.8c-4.8,0-8.9,1.9-11.4,4.8c-3.4,3.8-4.3,8-4.3,25.3
				c0,17.3,0.9,21.5,4.3,25.3c2.5,2.9,6.6,4.8,11.4,4.8c2.2,0,4.2-0.5,5.8-1.6l-7.8-7.7l9.4-9.2l6.7,6.7c1.4-3.9,1.6-9.1,1.6-18.2
				C819,1019.2,817.9,1015,814.5,1011.2z"/>
			<path class="st2" d="M881.1,1082.3c-18.5,0-33.1-12.5-33.1-31.6v-59.2h17.6v58.6c0,10.4,6.1,16.6,15.6,16.6s15.7-6.2,15.7-16.6
				v-58.6h17.5v59.2C914.2,1069.8,899.6,1082.3,881.1,1082.3z"/>
			<path class="st2" d="M928.8,1081.6v-90.1h59.3v15.7h-41.8v21.1h35.6v15.7h-35.6v21.9h41.8v15.7H928.8z"/>
		</g>
	</g>
	<g>
		<g>
			<g>
				<path class="st2" d="M73.7,1296.1v-22.7l-7.8,16.6H62l-8-16.6v22.7h-5.2v-34H54l9.9,21.1l9.7-21.1h5.2v34H73.7z"/>
				<path class="st2" d="M88.6,1296.1v-34h5.2v34H88.6z"/>
				<path class="st2" d="M124.4,1296.1l-15.7-23.9v23.9h-5.2v-34h4.7L124,1286v-23.9h5.2v34H124.4z"/>
				<path class="st2" d="M139,1296.1v-34h5.2v34H139z"/>
				<path class="st2" d="M163,1296.4c-5.1,0-8.8-1.2-12-4.5l3.4-3.4c2.5,2.5,5.2,3.2,8.7,3.2c4.4,0,7-1.9,7-5.2
					c0-1.5-0.4-2.7-1.3-3.5c-0.9-0.8-1.7-1.1-3.7-1.4l-4-0.6c-2.8-0.4-5-1.3-6.4-2.7c-1.7-1.6-2.5-3.7-2.5-6.5c0-5.9,4.3-10,11.4-10
					c4.5,0,7.6,1.1,10.5,3.9l-3.3,3.2c-2.1-2-4.5-2.6-7.4-2.6c-4,0-6.2,2.3-6.2,5.3c0,1.2,0.4,2.3,1.3,3.1c0.9,0.8,2.2,1.3,3.8,1.6
					l3.9,0.6c3.1,0.5,4.9,1.2,6.3,2.5c1.9,1.6,2.8,4.1,2.8,7C175.2,1292.7,170.1,1296.4,163,1296.4z"/>
				<path class="st2" d="M194.6,1266.8v29.3h-5.2v-29.3h-9.4v-4.6h23.9v4.6H194.6z"/>
				<path class="st2" d="M210.8,1296.1v-34h21.7v4.6h-16.6v9.9h14.1v4.6h-14.1v10.2h16.6v4.6H210.8z M220,1258.9l-5.3-7.7h5.4
					l3.6,7.7H220z"/>
				<path class="st2" d="M259.3,1296.1l-7.2-14.3h-6.4v14.3h-5.2v-34h13.2c6.4,0,10.5,4.2,10.5,9.9c0,4.9-3,8-6.8,9l7.8,15H259.3z
					 M253.3,1266.8h-7.6v10.6h7.6c3.4,0,5.8-2,5.8-5.3C259.1,1268.8,256.7,1266.8,253.3,1266.8z"/>
				<path class="st2" d="M272.7,1296.1v-34h21.7v4.6h-16.6v9.9H292v4.6h-14.1v10.2h16.6v4.6H272.7z"/>
				<path class="st2" d="M335.6,1292.9c-2.1,2.1-5.2,3.2-8.8,3.2h-11.9v-34h11.9c3.5,0,6.6,1.1,8.8,3.2c3.7,3.7,3.4,8.6,3.4,13.5
					C339,1283.8,339.2,1289.3,335.6,1292.9z M332,1269.1c-1.4-1.6-3.3-2.3-5.8-2.3H320v24.7h6.2c2.4,0,4.3-0.7,5.8-2.3
					c1.8-2,1.8-5.6,1.8-10.3S333.8,1271,332,1269.1z"/>
				<path class="st2" d="M347.6,1296.1v-34h21.7v4.6h-16.6v9.9h14.1v4.6h-14.1v10.2h16.6v4.6H347.6z"/>
				<path class="st2" d="M389.7,1296.1v-34h5.2v29.3h16.4v4.6H389.7z"/>
				<path class="st2" d="M437.6,1296.1l-2.3-6.8h-13.4l-2.3,6.8H414l12.5-34h4.2l12.5,34H437.6z M428.7,1269.9l-5.3,15.1h10.4
					L428.7,1269.9z"/>
				<path class="st2" d="M472.8,1266.8v29.3h-5.2v-29.3h-9.4v-4.6h23.9v4.6H472.8z"/>
				<path class="st2" d="M507.7,1296.1l-7.2-14.3h-6.4v14.3H489v-34h13.2c6.4,0,10.5,4.2,10.5,9.9c0,4.9-3,8-6.8,9l7.8,15H507.7z
					 M501.7,1266.8h-7.6v10.6h7.6c3.4,0,5.8-2,5.8-5.3C507.5,1268.8,505.2,1266.8,501.7,1266.8z"/>
				<path class="st2" d="M540.7,1296.1l-2.3-6.8h-13.4l-2.3,6.8h-5.5l12.5-34h4.2l12.5,34H540.7z M531.8,1269.9l-5.3,15.1h10.4
					L531.8,1269.9z"/>
				<path class="st2" d="M572.8,1296.1l-15.7-23.9v23.9H552v-34h4.7l15.7,23.9v-23.9h5.2v34H572.8z"/>
				<path class="st2" d="M596.4,1296.4c-5.1,0-8.8-1.2-12-4.5l3.4-3.4c2.5,2.5,5.2,3.2,8.7,3.2c4.4,0,7-1.9,7-5.2
					c0-1.5-0.4-2.7-1.3-3.5c-0.9-0.8-1.7-1.1-3.7-1.4l-4-0.6c-2.8-0.4-5-1.3-6.4-2.7c-1.7-1.6-2.5-3.7-2.5-6.5c0-5.9,4.3-10,11.4-10
					c4.5,0,7.6,1.1,10.5,3.9l-3.3,3.2c-2.1-2-4.5-2.6-7.4-2.6c-4,0-6.2,2.3-6.2,5.3c0,1.2,0.4,2.3,1.3,3.1c0.9,0.8,2.2,1.3,3.8,1.6
					l3.9,0.6c3.1,0.5,4.9,1.2,6.3,2.5c1.9,1.6,2.8,4.1,2.8,7C608.6,1292.7,603.5,1296.4,596.4,1296.4z"/>
				<path class="st2" d="M616.5,1296.1v-34h5.2v34H616.5z"/>
				<path class="st2" d="M643,1266.8v29.3h-5.2v-29.3h-9.4v-4.6h23.9v4.6H643z"/>
				<path class="st2" d="M659.1,1296.1v-34h5.2v34H659.1z"/>
				<path class="st2" d="M694.1,1292.8c-2.3,2.3-5.3,3.6-9,3.6c-3.6,0-6.6-1.3-8.9-3.6c-3.3-3.3-3.3-7.1-3.3-13.6
					c0-6.5,0-10.3,3.3-13.6c2.3-2.3,5.3-3.6,8.9-3.6c3.6,0,6.6,1.3,9,3.6c3.3,3.3,3.2,7.1,3.2,13.6
					C697.3,1285.7,697.4,1289.5,694.1,1292.8z M690.2,1268.6c-1.2-1.3-3.1-2.1-5.1-2.1c-2,0-3.9,0.8-5.1,2.1c-1.7,1.8-2,3.7-2,10.5
					s0.3,8.7,2,10.5c1.2,1.3,3.1,2.1,5.1,2.1c2,0,3.9-0.8,5.1-2.1c1.7-1.8,2-3.7,2-10.5S691.8,1270.4,690.2,1268.6z"/>
				<path class="st2" d="M726.8,1296.1l-15.7-23.9v23.9h-5.2v-34h4.7l15.7,23.9v-23.9h5.2v34H726.8z"/>
				<path class="st2" d="M753.7,1296.1v-34h21.7v4.6h-16.6v9.9H773v4.6h-14.1v10.2h16.6v4.6H753.7z M765.3,1258.9h-3.7l3.6-7.7h5.4
					L765.3,1258.9z"/>
				<path class="st2" d="M794.4,1296.4c-3.5,0-6.6-1.3-8.9-3.6c-3.3-3.3-3.3-7.1-3.3-13.6c0-6.5,0-10.3,3.3-13.6
					c2.3-2.3,5.4-3.6,8.9-3.6c6.3,0,10.9,3.7,12.1,10.4h-5.2c-0.8-3.4-3.1-5.8-6.9-5.8c-2,0-3.8,0.8-5,2.1
					c-1.7,1.8-2.1,3.8-2.1,10.6s0.4,8.8,2.1,10.6c1.2,1.3,3,2.1,5,2.1c3.8,0,6.1-2.4,6.9-5.8h5.2
					C805.4,1292.8,800.6,1296.4,794.4,1296.4z"/>
				<path class="st2" d="M834.3,1292.8c-2.3,2.3-5.3,3.6-9,3.6c-3.6,0-6.6-1.3-8.9-3.6c-3.3-3.3-3.3-7.1-3.3-13.6
					c0-6.5,0-10.3,3.3-13.6c2.3-2.3,5.3-3.6,8.9-3.6c3.6,0,6.6,1.3,9,3.6c3.3,3.3,3.2,7.1,3.2,13.6
					C837.6,1285.7,837.7,1289.5,834.3,1292.8z M830.4,1268.6c-1.2-1.3-3.1-2.1-5.1-2.1c-2,0-3.9,0.8-5.1,2.1c-1.7,1.8-2,3.7-2,10.5
					s0.3,8.7,2,10.5c1.2,1.3,3.1,2.1,5.1,2.1c2,0,3.9-0.8,5.1-2.1c1.7-1.8,2-3.7,2-10.5S832.1,1270.4,830.4,1268.6z"/>
				<path class="st2" d="M846.2,1296.1v-34h5.2v29.3h16.4v4.6H846.2z"/>
				<path class="st2" d="M893.2,1292.8c-2.3,2.3-5.3,3.6-9,3.6c-3.6,0-6.6-1.3-8.9-3.6c-3.3-3.3-3.3-7.1-3.3-13.6
					c0-6.5,0-10.3,3.3-13.6c2.3-2.3,5.3-3.6,8.9-3.6c3.6,0,6.6,1.3,9,3.6c3.3,3.3,3.2,7.1,3.2,13.6
					C896.5,1285.7,896.6,1289.5,893.2,1292.8z M889.3,1268.6c-1.2-1.3-3.1-2.1-5.1-2.1c-2,0-3.9,0.8-5.1,2.1c-1.7,1.8-2,3.7-2,10.5
					s0.3,8.7,2,10.5c1.2,1.3,3.1,2.1,5.1,2.1c2,0,3.9-0.8,5.1-2.1c1.7-1.8,2-3.7,2-10.5S891,1270.4,889.3,1268.6z"/>
				<path class="st2" d="M925.4,1292.6c-2.6,2.7-5.8,3.9-9.4,3.9c-3.5,0-6.6-1.3-8.9-3.6c-3.3-3.3-3.3-7.1-3.3-13.6
					c0-6.5,0-10.3,3.3-13.6c2.3-2.3,5.3-3.6,8.9-3.6c7.2,0,11.4,4.7,12.4,10.5h-5.2c-0.9-3.7-3.3-5.9-7.2-5.9c-2,0-3.8,0.8-5,2.1
					c-1.7,1.8-2.1,3.7-2.1,10.5s0.4,8.8,2.1,10.6c1.2,1.3,3,2.1,5,2.1c2.2,0,4.2-0.9,5.5-2.4c1.2-1.4,1.7-3.1,1.7-5.3v-1.9H916v-4.4
					h12.4v5.2C928.4,1287.4,927.6,1290.2,925.4,1292.6z"/>
				<path class="st2" d="M937,1296.1v-34h5.2v34H937z"/>
				<path class="st2" d="M973.4,1297.7l-3.4-3.4c-2,1.4-4.4,2.1-7.1,2.1c-3.6,0-6.6-1.3-8.9-3.6c-3.3-3.3-3.3-7.1-3.3-13.6
					c0-6.5,0-10.3,3.3-13.6c2.3-2.3,5.3-3.6,8.9-3.6c3.6,0,6.6,1.3,9,3.6c3.3,3.3,3.2,7.1,3.2,13.6c0,5.8,0,9.3-2.2,12.4l3.3,3.3
					L973.4,1297.7z M968,1268.6c-1.2-1.3-3.1-2.1-5.1-2.1c-2,0-3.9,0.8-5.1,2.1c-1.7,1.8-2,3.7-2,10.5s0.3,8.7,2,10.5
					c1.2,1.3,3.1,2.1,5.1,2.1c1.3,0,2.5-0.4,3.5-1.1l-3.6-3.6l2.9-2.9l3.3,3.3c0.9-1.7,1-4,1-8.4
					C970,1272.3,969.7,1270.4,968,1268.6z"/>
				<path class="st2" d="M995.4,1296.4c-6.9,0-12.2-4.7-12.2-11.7v-22.5h5.2v22.3c0,4.5,2.8,7.3,7,7.3s7.1-2.8,7.1-7.3v-22.3h5.2
					v22.5C1007.6,1291.7,1002.3,1296.4,995.4,1296.4z"/>
				<path class="st2" d="M1016.9,1296.1v-34h21.7v4.6h-16.6v9.9h14.1v4.6h-14.1v10.2h16.6v4.6H1016.9z"/>
				<path class="st2" d="M1059.1,1296.1v-34h21.7v4.6h-16.6v9.9h14.1v4.6h-14.1v10.2h16.6v4.6H1059.1z"/>
				<path class="st2" d="M1100.3,1266.8v29.3h-5.2v-29.3h-9.4v-4.6h23.9v4.6H1100.3z"/>
				<path class="st2" d="M1137.9,1296.4c-5.1,0-8.8-1.2-12-4.5l3.4-3.4c2.5,2.5,5.2,3.2,8.7,3.2c4.4,0,7-1.9,7-5.2
					c0-1.5-0.4-2.7-1.3-3.5c-0.9-0.8-1.7-1.1-3.7-1.4l-4-0.6c-2.8-0.4-5-1.3-6.4-2.7c-1.7-1.6-2.5-3.7-2.5-6.5c0-5.9,4.3-10,11.4-10
					c4.5,0,7.6,1.1,10.5,3.9l-3.3,3.2c-2.1-2-4.5-2.6-7.4-2.6c-4,0-6.2,2.3-6.2,5.3c0,1.2,0.4,2.3,1.3,3.1c0.9,0.8,2.2,1.3,3.8,1.6
					l3.9,0.6c3.1,0.5,4.9,1.2,6.3,2.5c1.9,1.6,2.8,4.1,2.8,7C1150.1,1292.7,1145,1296.4,1137.9,1296.4z"/>
				<path class="st2" d="M1177.9,1292.8c-2.3,2.3-5.3,3.6-9,3.6c-3.6,0-6.6-1.3-8.9-3.6c-3.3-3.3-3.3-7.1-3.3-13.6
					c0-6.5,0-10.3,3.3-13.6c2.3-2.3,5.3-3.6,8.9-3.6c3.6,0,6.6,1.3,9,3.6c3.3,3.3,3.2,7.1,3.2,13.6
					C1181.2,1285.7,1181.3,1289.5,1177.9,1292.8z M1174,1268.6c-1.2-1.3-3.1-2.1-5.1-2.1c-2,0-3.9,0.8-5.1,2.1
					c-1.7,1.8-2,3.7-2,10.5s0.3,8.7,2,10.5c1.2,1.3,3.1,2.1,5.1,2.1c2,0,3.9-0.8,5.1-2.1c1.7-1.8,2-3.7,2-10.5
					S1175.7,1270.4,1174,1268.6z"/>
				<path class="st2" d="M1189.8,1296.1v-34h5.2v29.3h16.4v4.6H1189.8z"/>
				<path class="st2" d="M1218.1,1296.1v-34h5.2v34H1218.1z"/>
				<path class="st2" d="M1253.8,1292.9c-2.1,2.1-5.2,3.2-8.8,3.2h-11.9v-34h11.9c3.5,0,6.6,1.1,8.8,3.2c3.7,3.7,3.4,8.6,3.4,13.5
					C1257.2,1283.8,1257.5,1289.3,1253.8,1292.9z M1250.3,1269.1c-1.4-1.6-3.3-2.3-5.8-2.3h-6.3v24.7h6.3c2.4,0,4.3-0.7,5.8-2.3
					c1.8-2,1.8-5.6,1.8-10.3S1252,1271,1250.3,1269.1z"/>
				<path class="st2" d="M1284.9,1296.1l-2.3-6.8h-13.4l-2.3,6.8h-5.5l12.5-34h4.2l12.5,34H1284.9z M1276,1269.9l-5.3,15.1h10.4
					L1276,1269.9z"/>
				<path class="st2" d="M1296.2,1296.1v-34h5.2v34H1296.2z"/>
				<path class="st2" d="M1329.9,1296.1l-7.2-14.3h-6.4v14.3h-5.2v-34h13.2c6.4,0,10.5,4.2,10.5,9.9c0,4.9-3,8-6.8,9l7.8,15H1329.9z
					 M1323.9,1266.8h-7.6v10.6h7.6c3.4,0,5.8-2,5.8-5.3C1329.7,1268.8,1327.4,1266.8,1323.9,1266.8z"/>
				<path class="st2" d="M1343.3,1296.1v-34h21.7v4.6h-16.6v9.9h14.1v4.6h-14.1v10.2h16.6v4.6H1343.3z"/>
			</g>
		</g>
		<g>
			<g>
				<path class="st2" d="M188.9,1356.8v-22.7l-7.8,16.6h-3.8l-8-16.6v22.7h-5.2v-34h5.2l9.9,21.1l9.7-21.1h5.2v34H188.9z"/>
				<path class="st2" d="M203.9,1356.8v-34h5.2v34H203.9z"/>
				<path class="st2" d="M239.7,1356.8l-15.7-23.9v23.9h-5.2v-34h4.7l15.7,23.9v-23.9h5.2v34H239.7z"/>
				<path class="st2" d="M254.3,1356.8v-34h5.2v34H254.3z"/>
				<path class="st2" d="M278.3,1357.1c-5.1,0-8.8-1.2-12-4.5l3.4-3.4c2.5,2.5,5.2,3.2,8.7,3.2c4.4,0,7-1.9,7-5.2
					c0-1.5-0.4-2.7-1.3-3.5c-0.9-0.8-1.7-1.1-3.7-1.4l-4-0.6c-2.8-0.4-5-1.3-6.4-2.7c-1.7-1.6-2.5-3.7-2.5-6.5c0-5.9,4.3-10,11.4-10
					c4.5,0,7.6,1.1,10.5,3.9l-3.3,3.2c-2.1-2-4.5-2.6-7.4-2.6c-4,0-6.2,2.3-6.2,5.3c0,1.2,0.4,2.3,1.3,3.1c0.9,0.8,2.2,1.3,3.8,1.6
					l3.9,0.6c3.1,0.5,4.9,1.2,6.3,2.5c1.9,1.6,2.8,4.1,2.8,7C290.5,1353.3,285.4,1357.1,278.3,1357.1z"/>
				<path class="st2" d="M309.9,1327.4v29.3h-5.2v-29.3h-9.4v-4.6h23.9v4.6H309.9z"/>
				<path class="st2" d="M326.1,1356.8v-34h21.7v4.6h-16.6v9.9h14.1v4.6h-14.1v10.2h16.6v4.6H326.1z M335.3,1319.5l-5.3-7.7h5.4
					l3.6,7.7H335.3z"/>
				<path class="st2" d="M374.5,1356.8l-7.2-14.3h-6.4v14.3h-5.2v-34H369c6.4,0,10.5,4.2,10.5,9.9c0,4.9-3,8-6.8,9l7.8,15H374.5z
					 M368.6,1327.4h-7.6v10.6h7.6c3.4,0,5.8-2,5.8-5.3C374.4,1329.4,372,1327.4,368.6,1327.4z"/>
				<path class="st2" d="M388,1356.8v-34h21.7v4.6h-16.6v9.9h14.1v4.6h-14.1v10.2h16.6v4.6H388z"/>
				<path class="st2" d="M450.9,1353.6c-2.1,2.1-5.2,3.2-8.8,3.2h-11.9v-34h11.9c3.5,0,6.6,1.1,8.8,3.2c3.7,3.7,3.4,8.6,3.4,13.5
					C454.3,1344.5,454.5,1349.9,450.9,1353.6z M447.3,1329.7c-1.4-1.6-3.3-2.3-5.8-2.3h-6.2v24.7h6.2c2.4,0,4.3-0.7,5.8-2.3
					c1.8-2,1.8-5.6,1.8-10.3S449.1,1331.7,447.3,1329.7z"/>
				<path class="st2" d="M462.9,1356.8v-34h21.7v4.6H468v9.9h14.1v4.6H468v10.2h16.6v4.6H462.9z"/>
				<path class="st2" d="M505,1356.8v-34h5.2v29.3h16.4v4.6H505z"/>
				<path class="st2" d="M552.9,1356.8l-2.3-6.8h-13.4l-2.3,6.8h-5.5l12.5-34h4.2l12.5,34H552.9z M544,1330.5l-5.3,15.1h10.4
					L544,1330.5z"/>
				<path class="st2" d="M587.5,1357.1c-3.5,0-6.6-1.3-8.9-3.6c-3.3-3.3-3.3-7.1-3.3-13.6c0-6.5,0-10.3,3.3-13.6
					c2.3-2.3,5.4-3.6,8.9-3.6c6.3,0,10.9,3.7,12.1,10.4h-5.2c-0.8-3.4-3.1-5.8-6.9-5.8c-2,0-3.8,0.8-5,2.1
					c-1.7,1.8-2.1,3.8-2.1,10.6s0.4,8.8,2.1,10.6c1.2,1.3,3,2.1,5,2.1c3.8,0,6.1-2.4,6.9-5.8h5.2
					C598.5,1353.4,593.7,1357.1,587.5,1357.1z"/>
				<path class="st2" d="M627.4,1353.4c-2.3,2.3-5.3,3.6-9,3.6c-3.6,0-6.6-1.3-8.9-3.6c-3.3-3.3-3.3-7.1-3.3-13.6
					c0-6.5,0-10.3,3.3-13.6c2.3-2.3,5.3-3.6,8.9-3.6c3.6,0,6.6,1.3,9,3.6c3.3,3.3,3.2,7.1,3.2,13.6
					C630.7,1346.3,630.8,1350.1,627.4,1353.4z M623.5,1329.3c-1.2-1.3-3.1-2.1-5.1-2.1c-2,0-3.9,0.8-5.1,2.1c-1.7,1.8-2,3.7-2,10.5
					s0.3,8.7,2,10.5c1.2,1.3,3.1,2.1,5.1,2.1c2,0,3.9-0.8,5.1-2.1c1.7-1.8,2-3.7,2-10.5S625.2,1331.1,623.5,1329.3z"/>
				<path class="st2" d="M658.2,1356.8v-14.8h-13.8v14.8h-5.2v-34h5.2v14.5h13.8v-14.5h5.2v34H658.2z"/>
				<path class="st2" d="M673.2,1356.8v-34h21.7v4.6h-16.6v9.9h14.1v4.6h-14.1v10.2h16.6v4.6H673.2z M684.8,1319.5h-3.7l3.6-7.7h5.4
					L684.8,1319.5z"/>
				<path class="st2" d="M712,1357.1c-5.1,0-8.8-1.2-12-4.5l3.4-3.4c2.5,2.5,5.2,3.2,8.7,3.2c4.4,0,7-1.9,7-5.2
					c0-1.5-0.4-2.7-1.3-3.5c-0.9-0.8-1.7-1.1-3.7-1.4l-4-0.6c-2.8-0.4-5-1.3-6.4-2.7c-1.7-1.6-2.5-3.7-2.5-6.5c0-5.9,4.3-10,11.4-10
					c4.5,0,7.6,1.1,10.5,3.9l-3.3,3.2c-2.1-2-4.5-2.6-7.4-2.6c-4,0-6.2,2.3-6.2,5.3c0,1.2,0.4,2.3,1.3,3.1c0.9,0.8,2.2,1.3,3.8,1.6
					l3.9,0.6c3.1,0.5,4.9,1.2,6.3,2.5c1.9,1.6,2.8,4.1,2.8,7C724.2,1353.3,719.1,1357.1,712,1357.1z"/>
				<path class="st2" d="M732,1356.8v-34h5.2v34H732z"/>
				<path class="st2" d="M767,1353.4c-2.3,2.3-5.3,3.6-9,3.6c-3.6,0-6.6-1.3-8.9-3.6c-3.3-3.3-3.3-7.1-3.3-13.6
					c0-6.5,0-10.3,3.3-13.6c2.3-2.3,5.3-3.6,8.9-3.6c3.6,0,6.6,1.3,9,3.6c3.3,3.3,3.2,7.1,3.2,13.6
					C770.2,1346.3,770.3,1350.1,767,1353.4z M763.1,1329.3c-1.2-1.3-3.1-2.1-5.1-2.1c-2,0-3.9,0.8-5.1,2.1c-1.7,1.8-2,3.7-2,10.5
					s0.3,8.7,2,10.5c1.2,1.3,3.1,2.1,5.1,2.1c2,0,3.9-0.8,5.1-2.1c1.7-1.8,2-3.7,2-10.5S764.7,1331.1,763.1,1329.3z"/>
				<path class="st2" d="M799.7,1356.8l-15.7-23.9v23.9h-5.2v-34h4.7l15.7,23.9v-23.9h5.2v34H799.7z"/>
				<path class="st2" d="M847.3,1353.6c-2.1,2.1-5.2,3.2-8.8,3.2h-11.9v-34h11.9c3.5,0,6.6,1.1,8.8,3.2c3.7,3.7,3.4,8.6,3.4,13.5
					C850.8,1344.5,851,1349.9,847.3,1353.6z M843.8,1329.7c-1.4-1.6-3.3-2.3-5.8-2.3h-6.3v24.7h6.3c2.4,0,4.3-0.7,5.8-2.3
					c1.8-2,1.8-5.6,1.8-10.3S845.6,1331.7,843.8,1329.7z"/>
				<path class="st2" d="M859.4,1356.8v-34h21.7v4.6h-16.6v9.9h14.1v4.6h-14.1v10.2h16.6v4.6H859.4z"/>
				<path class="st2" d="M898.1,1357.1c-5.1,0-8.8-1.2-12-4.5l3.4-3.4c2.5,2.5,5.2,3.2,8.7,3.2c4.4,0,7-1.9,7-5.2
					c0-1.5-0.4-2.7-1.3-3.5c-0.9-0.8-1.7-1.1-3.7-1.4l-4-0.6c-2.8-0.4-5-1.3-6.4-2.7c-1.7-1.6-2.5-3.7-2.5-6.5c0-5.9,4.3-10,11.4-10
					c4.5,0,7.6,1.1,10.5,3.9l-3.3,3.2c-2.1-2-4.5-2.6-7.4-2.6c-4,0-6.2,2.3-6.2,5.3c0,1.2,0.4,2.3,1.3,3.1c0.9,0.8,2.2,1.3,3.8,1.6
					l3.9,0.6c3.1,0.5,4.9,1.2,6.3,2.5c1.9,1.6,2.8,4.1,2.8,7C910.3,1353.3,905.2,1357.1,898.1,1357.1z"/>
				<path class="st2" d="M942.1,1327.4v29.3H937v-29.3h-9.4v-4.6h23.9v4.6H942.1z"/>
				<path class="st2" d="M958.3,1356.8v-34H980v4.6h-16.6v9.9h14.1v4.6h-14.1v10.2H980v4.6H958.3z"/>
				<path class="st2" d="M1006.8,1356.8l-7.2-14.3h-6.4v14.3H988v-34h13.2c6.4,0,10.5,4.2,10.5,9.9c0,4.9-3,8-6.8,9l7.8,15H1006.8z
					 M1000.8,1327.4h-7.6v10.6h7.6c3.4,0,5.8-2,5.8-5.3C1006.6,1329.4,1004.3,1327.4,1000.8,1327.4z"/>
				<path class="st2" d="M1039,1356.8l-7.2-14.3h-6.4v14.3h-5.2v-34h13.2c6.4,0,10.5,4.2,10.5,9.9c0,4.9-3,8-6.8,9l7.8,15H1039z
					 M1033,1327.4h-7.6v10.6h7.6c3.4,0,5.8-2,5.8-5.3C1038.8,1329.4,1036.5,1327.4,1033,1327.4z"/>
				<path class="st2" d="M1052.5,1356.8v-34h5.2v34H1052.5z"/>
				<path class="st2" d="M1078.9,1327.4v29.3h-5.2v-29.3h-9.4v-4.6h23.9v4.6H1078.9z"/>
				<path class="st2" d="M1114.1,1353.4c-2.3,2.3-5.3,3.6-9,3.6c-3.6,0-6.6-1.3-8.9-3.6c-3.3-3.3-3.3-7.1-3.3-13.6
					c0-6.5,0-10.3,3.3-13.6c2.3-2.3,5.3-3.6,8.9-3.6c3.6,0,6.6,1.3,9,3.6c3.3,3.3,3.2,7.1,3.2,13.6
					C1117.4,1346.3,1117.5,1350.1,1114.1,1353.4z M1110.2,1329.3c-1.2-1.3-3.1-2.1-5.1-2.1c-2,0-3.9,0.8-5.1,2.1
					c-1.7,1.8-2,3.7-2,10.5s0.3,8.7,2,10.5c1.2,1.3,3.1,2.1,5.1,2.1c2,0,3.9-0.8,5.1-2.1c1.7-1.8,2-3.7,2-10.5
					S1111.9,1331.1,1110.2,1329.3z"/>
				<path class="st2" d="M1126,1356.8v-34h5.2v34H1126z"/>
				<path class="st2" d="M1159.7,1356.8l-7.2-14.3h-6.4v14.3h-5.2v-34h13.2c6.4,0,10.5,4.2,10.5,9.9c0,4.9-3,8-6.8,9l7.8,15H1159.7z
					 M1153.7,1327.4h-7.6v10.6h7.6c3.4,0,5.8-2,5.8-5.3C1159.5,1329.4,1157.2,1327.4,1153.7,1327.4z"/>
				<path class="st2" d="M1173.2,1356.8v-34h21.7v4.6h-16.6v9.9h14.1v4.6h-14.1v10.2h16.6v4.6H1173.2z"/>
				<path class="st2" d="M1211.9,1357.1c-5.1,0-8.8-1.2-12-4.5l3.4-3.4c2.5,2.5,5.2,3.2,8.7,3.2c4.4,0,7-1.9,7-5.2
					c0-1.5-0.4-2.7-1.3-3.5c-0.9-0.8-1.7-1.1-3.7-1.4l-4-0.6c-2.8-0.4-5-1.3-6.4-2.7c-1.7-1.6-2.5-3.7-2.5-6.5c0-5.9,4.3-10,11.4-10
					c4.5,0,7.6,1.1,10.5,3.9l-3.3,3.2c-2.1-2-4.5-2.6-7.4-2.6c-4,0-6.2,2.3-6.2,5.3c0,1.2,0.4,2.3,1.3,3.1c0.9,0.8,2.2,1.3,3.8,1.6
					l3.9,0.6c3.1,0.5,4.9,1.2,6.3,2.5c1.9,1.6,2.8,4.1,2.8,7C1224.1,1353.3,1219,1357.1,1211.9,1357.1z"/>
			</g>
		</g>
	</g>
</g>
</svg>
